M48
;GenerationSoftware,Autodesk,EAGLE,9.3.0*%
;CreationDate,2019-12-12T09:06:29Z*%
FMAT,2
ICI,OFF
METRIC,TZ,000.000
T3C0.350
T2C0.914
T1C1.100
%
G90
M71
T1
X19487Y66448
X15987Y66448
X22987Y66448
X26487Y66448
X29987Y66448
X26487Y13943
X22987Y13943
X19487Y13943
T2
X11303Y52578
X34798Y57531
X34798Y54991
X34798Y52451
X11303Y57658
X11303Y55118
T3
X13716Y42926
X38481Y53467
X32385Y42926
X7454Y26990
X13716Y37719
X38520Y26990
X7399Y23439
X13589Y12700
X18591Y28878
X16302Y31958
X26797Y36195
X30607Y24130
X32269Y12666
X38481Y23495
X29502Y34252
X16129Y50267
X31130Y27492
X36576Y26924
X17907Y40513
X17907Y43688
X15761Y43701
X13589Y25146
X23876Y26223
X36957Y23241
X17653Y68580
X21209Y68580
X24765Y68580
X28194Y68580
X20447Y61722
X21463Y63500
X23368Y61595
X12827Y51054
X32512Y51308
X18161Y16256
X20320Y16256
X24638Y16256
X16002Y45974
X21209Y12573
X24638Y12446
X25654Y36576
X17907Y36322
X24511Y40132
X29972Y48768
X25146Y55753
X24384Y30861
X11938Y25781
X24638Y57277
X21717Y55753
X20193Y48600
X27813Y21590
X34671Y21590
X23495Y47879
X21971Y41656
X23622Y36322
X24638Y45466
X23368Y37338
X23677Y41742
X16256Y37973
X17907Y37988
X15494Y26670
X15433Y24785
X15113Y23876
X22860Y29210
X32258Y17907
X26241Y31115
X25400Y31750
X29718Y43434
X13970Y46990
X13716Y16891
X13716Y61722
X32639Y61722
X11811Y29845
X13566Y27305
X23495Y27686
X27559Y16002
X10414Y28321
X25527Y35433
X16129Y12446
X28448Y12319
X33147Y25273
X31115Y42799
X23495Y58547
X14859Y55118
X24765Y59436
X32512Y49784
X7620Y53467
X34290Y29591
M30