M48
;GenerationSoftware,Autodesk,EAGLE,9.6.2*%
;CreationDate,2023-09-17T11:17:41Z*%
FMAT,2
ICI,OFF
METRIC,TZ,000.000
T3C0.350
T2C1.016
T1C1.100
%
G90
M71
T1
X-7000Y26252
X-3500Y26252
X0Y26252
X3500Y26252
X7000Y26252
X-6885Y16983
X-6885Y20483
T2
X-7779Y7302
X12065Y15240
X-7779Y12382
X-7779Y9843
T3
X-10723Y5165
X-11402Y19662
X10213Y5662
X3339Y707
X13262Y19209
X1270Y12700
X476Y13494
X-794Y13689
X4604Y2381
X2149Y17304
X5254Y17076
X8096Y16669
X4902Y18788
X6985Y18891
X7144Y12859
X5874Y19685
X-5127Y2699
X-8481Y2931
X-8414Y5137
X-13017Y19107
X14764Y17463
X12382Y17939
X1270Y5865
X-4763Y5398
X-10478Y20320
X-1905Y8731
X-6667Y8666
X4313Y17549
M30