G04 EAGLE Gerber RS-274X export*
G75*
%MOMM*%
%FSLAX34Y34*%
%LPD*%
%INTop Copper*%
%IPPOS*%
%AMOC8*
5,1,8,0,0,1.08239X$1,22.5*%
G01*
%ADD10C,1.000000*%
%ADD11R,1.200000X0.600000*%
%ADD12R,1.100000X1.000000*%
%ADD13R,1.000000X1.100000*%
%ADD14C,1.700000*%
%ADD15R,0.800000X0.800000*%
%ADD16P,1.649562X8X22.500000*%
%ADD17C,1.524000*%
%ADD18C,0.756400*%
%ADD19C,0.812800*%
%ADD20C,0.304800*%
%ADD21C,0.609600*%
%ADD22C,0.508000*%
%ADD23C,0.406400*%

G36*
X-44981Y13695D02*
X-44981Y13695D01*
X-44882Y13698D01*
X-44824Y13714D01*
X-44764Y13722D01*
X-44672Y13759D01*
X-44577Y13786D01*
X-44525Y13817D01*
X-44468Y13839D01*
X-44388Y13897D01*
X-44303Y13948D01*
X-44228Y14014D01*
X-44211Y14026D01*
X-44203Y14035D01*
X-44182Y14054D01*
X-19360Y38876D01*
X-19299Y38955D01*
X-19231Y39027D01*
X-19202Y39080D01*
X-19165Y39128D01*
X-19125Y39219D01*
X-19078Y39305D01*
X-19062Y39364D01*
X-19038Y39420D01*
X-19023Y39517D01*
X-18998Y39613D01*
X-18992Y39713D01*
X-18989Y39734D01*
X-18990Y39746D01*
X-18988Y39774D01*
X-18988Y61879D01*
X-19003Y61997D01*
X-19010Y62116D01*
X-19023Y62154D01*
X-19028Y62195D01*
X-19072Y62305D01*
X-19108Y62418D01*
X-19130Y62453D01*
X-19145Y62490D01*
X-19215Y62586D01*
X-19278Y62687D01*
X-19308Y62715D01*
X-19332Y62748D01*
X-19423Y62824D01*
X-19510Y62905D01*
X-19545Y62925D01*
X-19577Y62950D01*
X-19684Y63001D01*
X-19789Y63059D01*
X-19828Y63069D01*
X-19864Y63086D01*
X-19981Y63108D01*
X-20096Y63138D01*
X-20157Y63142D01*
X-20177Y63146D01*
X-20197Y63144D01*
X-20257Y63148D01*
X-23460Y63148D01*
X-25234Y63883D01*
X-26163Y64812D01*
X-26241Y64873D01*
X-26313Y64941D01*
X-26367Y64970D01*
X-26414Y65007D01*
X-26505Y65046D01*
X-26592Y65094D01*
X-26651Y65109D01*
X-26706Y65133D01*
X-26804Y65149D01*
X-26900Y65174D01*
X-27000Y65180D01*
X-27020Y65183D01*
X-27033Y65182D01*
X-27061Y65184D01*
X-42249Y65184D01*
X-43291Y66226D01*
X-43291Y78699D01*
X-41925Y80065D01*
X-41852Y80159D01*
X-41774Y80248D01*
X-41762Y80272D01*
X-41761Y80274D01*
X-41755Y80284D01*
X-41731Y80316D01*
X-41683Y80426D01*
X-41629Y80532D01*
X-41620Y80571D01*
X-41604Y80608D01*
X-41586Y80726D01*
X-41559Y80842D01*
X-41561Y80882D01*
X-41554Y80922D01*
X-41566Y81041D01*
X-41569Y81160D01*
X-41580Y81199D01*
X-41584Y81239D01*
X-41624Y81351D01*
X-41658Y81465D01*
X-41678Y81500D01*
X-41692Y81538D01*
X-41759Y81637D01*
X-41819Y81739D01*
X-41859Y81784D01*
X-41870Y81801D01*
X-41886Y81815D01*
X-41925Y81860D01*
X-43291Y83226D01*
X-43291Y95699D01*
X-42249Y96741D01*
X-27061Y96741D01*
X-26962Y96754D01*
X-26863Y96757D01*
X-26805Y96773D01*
X-26745Y96781D01*
X-26653Y96817D01*
X-26558Y96845D01*
X-26506Y96876D01*
X-26449Y96898D01*
X-26369Y96956D01*
X-26284Y97007D01*
X-26209Y97073D01*
X-26192Y97085D01*
X-26184Y97094D01*
X-26163Y97113D01*
X-25471Y97805D01*
X-25470Y97806D01*
X-23934Y99342D01*
X-22160Y100077D01*
X-6342Y100077D01*
X-6213Y100041D01*
X-6204Y100041D01*
X-6195Y100039D01*
X-6034Y100029D01*
X-626Y100029D01*
X416Y98987D01*
X416Y91513D01*
X-626Y90471D01*
X-6034Y90471D01*
X-6043Y90470D01*
X-6053Y90471D01*
X-6201Y90450D01*
X-6350Y90431D01*
X-6358Y90428D01*
X-6368Y90427D01*
X-6378Y90423D01*
X-12420Y90423D01*
X-12469Y90417D01*
X-12519Y90419D01*
X-12627Y90397D01*
X-12736Y90383D01*
X-12782Y90365D01*
X-12830Y90355D01*
X-12929Y90307D01*
X-13031Y90266D01*
X-13071Y90237D01*
X-13116Y90215D01*
X-13200Y90144D01*
X-13289Y90080D01*
X-13320Y90041D01*
X-13358Y90009D01*
X-13421Y89919D01*
X-13491Y89835D01*
X-13513Y89790D01*
X-13541Y89749D01*
X-13580Y89646D01*
X-13627Y89547D01*
X-13636Y89498D01*
X-13654Y89452D01*
X-13666Y89342D01*
X-13687Y89235D01*
X-13684Y89185D01*
X-13689Y89136D01*
X-13674Y89027D01*
X-13667Y88917D01*
X-13652Y88870D01*
X-13645Y88821D01*
X-13593Y88668D01*
X-13467Y88365D01*
X-13467Y88361D01*
X-13454Y88323D01*
X-13449Y88282D01*
X-13406Y88172D01*
X-13369Y88059D01*
X-13347Y88024D01*
X-13332Y87987D01*
X-13263Y87891D01*
X-13199Y87790D01*
X-13169Y87762D01*
X-13146Y87729D01*
X-13054Y87653D01*
X-12967Y87572D01*
X-12932Y87552D01*
X-12901Y87527D01*
X-12793Y87476D01*
X-12689Y87418D01*
X-12649Y87408D01*
X-12613Y87391D01*
X-12496Y87369D01*
X-12381Y87339D01*
X-12321Y87335D01*
X-12301Y87331D01*
X-12280Y87333D01*
X-12220Y87329D01*
X-418Y87329D01*
X-320Y87341D01*
X-221Y87344D01*
X-162Y87361D01*
X-102Y87369D01*
X-10Y87405D01*
X85Y87433D01*
X137Y87463D01*
X193Y87486D01*
X274Y87544D01*
X359Y87594D01*
X434Y87660D01*
X451Y87672D01*
X459Y87682D01*
X480Y87700D01*
X9026Y96246D01*
X9086Y96325D01*
X9154Y96397D01*
X9183Y96450D01*
X9220Y96498D01*
X9260Y96589D01*
X9308Y96675D01*
X9323Y96734D01*
X9347Y96789D01*
X9362Y96887D01*
X9387Y96983D01*
X9393Y97083D01*
X9397Y97104D01*
X9395Y97116D01*
X9397Y97144D01*
X9397Y121913D01*
X9385Y122011D01*
X9382Y122110D01*
X9365Y122168D01*
X9357Y122228D01*
X9321Y122321D01*
X9293Y122416D01*
X9263Y122468D01*
X9240Y122524D01*
X9182Y122604D01*
X9132Y122690D01*
X9066Y122765D01*
X9054Y122781D01*
X9044Y122789D01*
X9026Y122810D01*
X7986Y123850D01*
X7749Y124422D01*
X7725Y124465D01*
X7708Y124511D01*
X7646Y124602D01*
X7592Y124698D01*
X7557Y124733D01*
X7529Y124775D01*
X7447Y124847D01*
X7370Y124926D01*
X7328Y124952D01*
X7291Y124985D01*
X7193Y125035D01*
X7099Y125092D01*
X7052Y125107D01*
X7007Y125130D01*
X6900Y125154D01*
X6795Y125186D01*
X6746Y125188D01*
X6697Y125199D01*
X6587Y125196D01*
X6478Y125201D01*
X6429Y125191D01*
X6379Y125190D01*
X6274Y125159D01*
X6166Y125137D01*
X6122Y125115D01*
X6074Y125101D01*
X5979Y125045D01*
X5880Y124997D01*
X5843Y124965D01*
X5800Y124940D01*
X5679Y124833D01*
X788Y119942D01*
X727Y119864D01*
X659Y119792D01*
X630Y119739D01*
X593Y119691D01*
X554Y119600D01*
X506Y119513D01*
X491Y119455D01*
X467Y119399D01*
X451Y119301D01*
X426Y119205D01*
X421Y119123D01*
X419Y119110D01*
X419Y119101D01*
X417Y119085D01*
X418Y119073D01*
X416Y119045D01*
X416Y116913D01*
X-626Y115871D01*
X-14099Y115871D01*
X-15141Y116913D01*
X-15141Y124387D01*
X-14099Y125429D01*
X-3593Y125429D01*
X-3495Y125441D01*
X-3396Y125444D01*
X-3337Y125461D01*
X-3277Y125469D01*
X-3185Y125505D01*
X-3090Y125533D01*
X-3038Y125563D01*
X-2982Y125586D01*
X-2902Y125644D01*
X-2816Y125694D01*
X-2741Y125760D01*
X-2724Y125772D01*
X-2716Y125782D01*
X-2695Y125800D01*
X-2091Y126405D01*
X-2006Y126514D01*
X-1917Y126621D01*
X-1909Y126640D01*
X-1896Y126656D01*
X-1841Y126784D01*
X-1782Y126909D01*
X-1778Y126929D01*
X-1770Y126948D01*
X-1748Y127086D01*
X-1722Y127222D01*
X-1723Y127242D01*
X-1720Y127262D01*
X-1733Y127401D01*
X-1742Y127539D01*
X-1748Y127558D01*
X-1750Y127578D01*
X-1797Y127710D01*
X-1840Y127841D01*
X-1851Y127859D01*
X-1858Y127878D01*
X-1936Y127993D01*
X-2010Y128110D01*
X-2025Y128124D01*
X-2036Y128141D01*
X-2140Y128233D01*
X-2242Y128328D01*
X-2259Y128338D01*
X-2275Y128351D01*
X-2398Y128414D01*
X-2520Y128482D01*
X-2540Y128487D01*
X-2558Y128496D01*
X-2694Y128526D01*
X-2828Y128561D01*
X-2856Y128563D01*
X-2868Y128566D01*
X-2889Y128565D01*
X-2989Y128571D01*
X-14099Y128571D01*
X-15141Y129613D01*
X-15141Y134904D01*
X-15159Y135042D01*
X-15172Y135180D01*
X-15179Y135199D01*
X-15181Y135220D01*
X-15232Y135349D01*
X-15279Y135480D01*
X-15291Y135497D01*
X-15298Y135515D01*
X-15380Y135628D01*
X-15458Y135743D01*
X-15473Y135756D01*
X-15485Y135773D01*
X-15592Y135861D01*
X-15696Y135953D01*
X-15714Y135962D01*
X-15730Y135975D01*
X-15856Y136035D01*
X-15980Y136098D01*
X-15999Y136102D01*
X-16018Y136111D01*
X-16154Y136137D01*
X-16290Y136168D01*
X-16310Y136167D01*
X-16330Y136171D01*
X-16468Y136162D01*
X-16608Y136158D01*
X-16627Y136152D01*
X-16647Y136151D01*
X-16779Y136108D01*
X-16913Y136069D01*
X-16931Y136059D01*
X-16950Y136053D01*
X-17068Y135978D01*
X-17187Y135908D01*
X-17208Y135889D01*
X-17219Y135883D01*
X-17233Y135868D01*
X-17308Y135802D01*
X-18076Y135034D01*
X-29549Y135034D01*
X-30591Y136076D01*
X-30591Y148549D01*
X-29225Y149915D01*
X-29152Y150009D01*
X-29074Y150098D01*
X-29055Y150134D01*
X-29031Y150166D01*
X-28983Y150276D01*
X-28929Y150382D01*
X-28920Y150421D01*
X-28904Y150458D01*
X-28886Y150576D01*
X-28859Y150692D01*
X-28861Y150732D01*
X-28854Y150772D01*
X-28866Y150891D01*
X-28869Y151010D01*
X-28880Y151049D01*
X-28884Y151089D01*
X-28924Y151201D01*
X-28958Y151315D01*
X-28978Y151350D01*
X-28992Y151388D01*
X-29059Y151487D01*
X-29119Y151589D01*
X-29159Y151634D01*
X-29170Y151651D01*
X-29186Y151665D01*
X-29225Y151710D01*
X-30591Y153076D01*
X-30591Y165549D01*
X-29549Y166591D01*
X-18076Y166591D01*
X-17034Y165549D01*
X-17034Y163658D01*
X-17016Y163520D01*
X-17003Y163382D01*
X-16996Y163363D01*
X-16994Y163343D01*
X-16943Y163214D01*
X-16896Y163083D01*
X-16884Y163066D01*
X-16877Y163047D01*
X-16795Y162935D01*
X-16717Y162820D01*
X-16702Y162806D01*
X-16690Y162790D01*
X-16583Y162701D01*
X-16479Y162609D01*
X-16461Y162600D01*
X-16445Y162587D01*
X-16319Y162528D01*
X-16195Y162465D01*
X-16176Y162460D01*
X-16157Y162452D01*
X-16021Y162425D01*
X-15885Y162395D01*
X-15865Y162396D01*
X-15845Y162392D01*
X-15707Y162400D01*
X-15567Y162405D01*
X-15548Y162410D01*
X-15528Y162412D01*
X-15396Y162454D01*
X-15262Y162493D01*
X-15244Y162503D01*
X-15225Y162510D01*
X-15107Y162584D01*
X-14988Y162655D01*
X-14967Y162673D01*
X-14956Y162680D01*
X-14942Y162695D01*
X-14867Y162761D01*
X-14099Y163529D01*
X-11934Y163529D01*
X-11816Y163544D01*
X-11698Y163551D01*
X-11659Y163564D01*
X-11619Y163569D01*
X-11508Y163612D01*
X-11395Y163649D01*
X-11361Y163671D01*
X-11323Y163686D01*
X-11227Y163755D01*
X-11126Y163819D01*
X-11099Y163849D01*
X-11066Y163872D01*
X-10990Y163964D01*
X-10908Y164051D01*
X-10889Y164086D01*
X-10863Y164117D01*
X-10812Y164225D01*
X-10755Y164329D01*
X-10745Y164369D01*
X-10728Y164405D01*
X-10705Y164522D01*
X-10675Y164637D01*
X-10672Y164697D01*
X-10668Y164717D01*
X-10669Y164738D01*
X-10665Y164798D01*
X-10665Y169252D01*
X-10680Y169370D01*
X-10688Y169489D01*
X-10700Y169527D01*
X-10705Y169568D01*
X-10749Y169678D01*
X-10786Y169791D01*
X-10807Y169826D01*
X-10822Y169863D01*
X-10892Y169959D01*
X-10956Y170060D01*
X-10985Y170088D01*
X-11009Y170121D01*
X-11101Y170197D01*
X-11187Y170278D01*
X-11223Y170298D01*
X-11254Y170323D01*
X-11362Y170374D01*
X-11466Y170432D01*
X-11505Y170442D01*
X-11542Y170459D01*
X-11658Y170481D01*
X-11774Y170511D01*
X-11834Y170515D01*
X-11854Y170519D01*
X-11874Y170517D01*
X-11934Y170521D01*
X-13112Y170521D01*
X-14154Y171563D01*
X-14154Y184037D01*
X-13112Y185079D01*
X-4926Y185079D01*
X-4788Y185096D01*
X-4650Y185109D01*
X-4631Y185116D01*
X-4611Y185119D01*
X-4481Y185170D01*
X-4351Y185217D01*
X-4334Y185228D01*
X-4315Y185236D01*
X-4203Y185317D01*
X-4087Y185395D01*
X-4074Y185411D01*
X-4058Y185422D01*
X-3969Y185530D01*
X-3877Y185634D01*
X-3868Y185652D01*
X-3855Y185667D01*
X-3796Y185793D01*
X-3732Y185917D01*
X-3728Y185937D01*
X-3719Y185955D01*
X-3693Y186091D01*
X-3663Y186227D01*
X-3663Y186248D01*
X-3660Y186267D01*
X-3668Y186406D01*
X-3672Y186545D01*
X-3678Y186565D01*
X-3679Y186585D01*
X-3722Y186717D01*
X-3761Y186851D01*
X-3771Y186868D01*
X-3777Y186887D01*
X-3852Y187005D01*
X-3922Y187125D01*
X-3941Y187146D01*
X-3947Y187156D01*
X-3963Y187170D01*
X-4029Y187246D01*
X-4395Y187612D01*
X-4474Y187673D01*
X-4546Y187741D01*
X-4599Y187770D01*
X-4647Y187807D01*
X-4738Y187846D01*
X-4824Y187894D01*
X-4883Y187909D01*
X-4938Y187933D01*
X-5036Y187949D01*
X-5132Y187974D01*
X-5232Y187980D01*
X-5253Y187983D01*
X-5265Y187982D01*
X-5293Y187984D01*
X-13112Y187984D01*
X-14154Y189026D01*
X-14154Y201499D01*
X-13112Y202541D01*
X-1638Y202541D01*
X-596Y201499D01*
X-596Y193680D01*
X-584Y193582D01*
X-581Y193483D01*
X-564Y193425D01*
X-556Y193365D01*
X-520Y193273D01*
X-492Y193178D01*
X-462Y193125D01*
X-439Y193069D01*
X-381Y192989D01*
X-331Y192904D01*
X-265Y192828D01*
X-253Y192812D01*
X-243Y192804D01*
X-225Y192783D01*
X6478Y186081D01*
X6478Y146269D01*
X5262Y145054D01*
X2873Y142665D01*
X2788Y142555D01*
X2699Y142448D01*
X2691Y142430D01*
X2678Y142414D01*
X2623Y142286D01*
X2564Y142160D01*
X2560Y142141D01*
X2552Y142122D01*
X2530Y141984D01*
X2504Y141848D01*
X2505Y141828D01*
X2502Y141808D01*
X2515Y141669D01*
X2524Y141531D01*
X2530Y141511D01*
X2532Y141491D01*
X2579Y141360D01*
X2622Y141228D01*
X2633Y141211D01*
X2640Y141192D01*
X2718Y141077D01*
X2792Y140959D01*
X2807Y140945D01*
X2818Y140929D01*
X2922Y140837D01*
X3024Y140741D01*
X3041Y140732D01*
X3057Y140718D01*
X3181Y140655D01*
X3302Y140588D01*
X3322Y140583D01*
X3340Y140574D01*
X3476Y140543D01*
X3610Y140508D01*
X3638Y140507D01*
X3650Y140504D01*
X3671Y140505D01*
X3771Y140498D01*
X5869Y140498D01*
X7912Y139652D01*
X9477Y138087D01*
X10323Y136044D01*
X10323Y133830D01*
X10338Y133712D01*
X10346Y133593D01*
X10358Y133555D01*
X10363Y133514D01*
X10407Y133404D01*
X10444Y133291D01*
X10465Y133256D01*
X10480Y133219D01*
X10550Y133123D01*
X10614Y133022D01*
X10643Y132994D01*
X10667Y132961D01*
X10759Y132885D01*
X10845Y132804D01*
X10881Y132784D01*
X10912Y132759D01*
X11020Y132708D01*
X11124Y132650D01*
X11163Y132640D01*
X11200Y132623D01*
X11316Y132601D01*
X11432Y132571D01*
X11492Y132567D01*
X11512Y132563D01*
X11532Y132565D01*
X11592Y132561D01*
X13806Y132561D01*
X15850Y131714D01*
X17414Y130150D01*
X18261Y128106D01*
X18261Y125894D01*
X17414Y123850D01*
X16374Y122810D01*
X16314Y122732D01*
X16246Y122660D01*
X16217Y122607D01*
X16180Y122559D01*
X16140Y122468D01*
X16092Y122382D01*
X16077Y122323D01*
X16053Y122267D01*
X16038Y122169D01*
X16013Y122074D01*
X16007Y121974D01*
X16003Y121953D01*
X16005Y121941D01*
X16003Y121913D01*
X16003Y93882D01*
X1367Y79246D01*
X1278Y79235D01*
X1179Y79232D01*
X1120Y79215D01*
X1060Y79207D01*
X968Y79171D01*
X873Y79143D01*
X821Y79113D01*
X765Y79090D01*
X685Y79032D01*
X599Y78982D01*
X524Y78916D01*
X507Y78904D01*
X500Y78894D01*
X478Y78875D01*
X-626Y77771D01*
X-14099Y77771D01*
X-15141Y78813D01*
X-15141Y81013D01*
X-15147Y81062D01*
X-15145Y81112D01*
X-15167Y81219D01*
X-15181Y81329D01*
X-15199Y81375D01*
X-15209Y81423D01*
X-15258Y81522D01*
X-15298Y81624D01*
X-15327Y81665D01*
X-15349Y81709D01*
X-15420Y81793D01*
X-15485Y81882D01*
X-15523Y81913D01*
X-15555Y81951D01*
X-15645Y82014D01*
X-15730Y82084D01*
X-15775Y82106D01*
X-15816Y82134D01*
X-15918Y82173D01*
X-16018Y82220D01*
X-16066Y82229D01*
X-16113Y82247D01*
X-16222Y82259D01*
X-16330Y82280D01*
X-16379Y82277D01*
X-16429Y82282D01*
X-16538Y82267D01*
X-16647Y82260D01*
X-16695Y82245D01*
X-16744Y82238D01*
X-16896Y82186D01*
X-17944Y81752D01*
X-20197Y81752D01*
X-20335Y81734D01*
X-20473Y81721D01*
X-20492Y81714D01*
X-20513Y81712D01*
X-20642Y81661D01*
X-20773Y81614D01*
X-20790Y81602D01*
X-20808Y81595D01*
X-20921Y81513D01*
X-21036Y81435D01*
X-21049Y81420D01*
X-21066Y81408D01*
X-21154Y81301D01*
X-21246Y81197D01*
X-21255Y81179D01*
X-21268Y81163D01*
X-21328Y81037D01*
X-21391Y80913D01*
X-21395Y80894D01*
X-21404Y80875D01*
X-21430Y80739D01*
X-21461Y80603D01*
X-21460Y80583D01*
X-21464Y80563D01*
X-21455Y80425D01*
X-21451Y80285D01*
X-21445Y80266D01*
X-21444Y80246D01*
X-21401Y80114D01*
X-21362Y79980D01*
X-21352Y79962D01*
X-21346Y79943D01*
X-21271Y79825D01*
X-21201Y79706D01*
X-21182Y79685D01*
X-21176Y79674D01*
X-21161Y79660D01*
X-21095Y79585D01*
X-20209Y78699D01*
X-20209Y74071D01*
X-20194Y73953D01*
X-20186Y73834D01*
X-20174Y73796D01*
X-20169Y73755D01*
X-20125Y73645D01*
X-20088Y73532D01*
X-20067Y73497D01*
X-20052Y73460D01*
X-19982Y73364D01*
X-19918Y73263D01*
X-19889Y73235D01*
X-19865Y73202D01*
X-19773Y73126D01*
X-19687Y73045D01*
X-19651Y73025D01*
X-19620Y73000D01*
X-19512Y72949D01*
X-19408Y72891D01*
X-19369Y72881D01*
X-19332Y72864D01*
X-19216Y72842D01*
X-19100Y72812D01*
X-19040Y72808D01*
X-19020Y72804D01*
X-19000Y72806D01*
X-18940Y72802D01*
X-16410Y72802D01*
X-16292Y72817D01*
X-16174Y72824D01*
X-16135Y72837D01*
X-16095Y72842D01*
X-15984Y72885D01*
X-15871Y72922D01*
X-15837Y72944D01*
X-15799Y72959D01*
X-15703Y73028D01*
X-15602Y73092D01*
X-15575Y73122D01*
X-15542Y73145D01*
X-15466Y73237D01*
X-15384Y73324D01*
X-15365Y73359D01*
X-15346Y73382D01*
X-14099Y74629D01*
X-8691Y74629D01*
X-8682Y74630D01*
X-8672Y74629D01*
X-8523Y74650D01*
X-8375Y74669D01*
X-8367Y74672D01*
X-8358Y74673D01*
X-8347Y74677D01*
X-6342Y74677D01*
X-6213Y74641D01*
X-6204Y74641D01*
X-6195Y74639D01*
X-6034Y74629D01*
X-626Y74629D01*
X416Y73587D01*
X416Y66113D01*
X-626Y65071D01*
X-4789Y65071D01*
X-4888Y65059D01*
X-4987Y65056D01*
X-5045Y65039D01*
X-5105Y65031D01*
X-5197Y64995D01*
X-5292Y64967D01*
X-5344Y64937D01*
X-5401Y64914D01*
X-5481Y64856D01*
X-5566Y64806D01*
X-5642Y64740D01*
X-5658Y64728D01*
X-5666Y64718D01*
X-5687Y64700D01*
X-8963Y61424D01*
X-9023Y61345D01*
X-9091Y61273D01*
X-9120Y61220D01*
X-9158Y61172D01*
X-9197Y61082D01*
X-9245Y60995D01*
X-9260Y60936D01*
X-9284Y60881D01*
X-9300Y60783D01*
X-9324Y60687D01*
X-9331Y60587D01*
X-9334Y60567D01*
X-9333Y60554D01*
X-9334Y60526D01*
X-9334Y42924D01*
X-9320Y42806D01*
X-9312Y42687D01*
X-9300Y42649D01*
X-9295Y42608D01*
X-9251Y42498D01*
X-9214Y42385D01*
X-9192Y42350D01*
X-9178Y42313D01*
X-9108Y42217D01*
X-9044Y42116D01*
X-9014Y42088D01*
X-8991Y42055D01*
X-8899Y41980D01*
X-8812Y41898D01*
X-8777Y41878D01*
X-8746Y41853D01*
X-8638Y41802D01*
X-8534Y41744D01*
X-8495Y41734D01*
X-8458Y41717D01*
X-8341Y41695D01*
X-8226Y41665D01*
X-8166Y41661D01*
X-8146Y41657D01*
X-8125Y41659D01*
X-8065Y41655D01*
X16868Y41655D01*
X17006Y41672D01*
X17144Y41685D01*
X17164Y41692D01*
X17184Y41695D01*
X17313Y41746D01*
X17444Y41793D01*
X17461Y41804D01*
X17479Y41812D01*
X17591Y41893D01*
X17707Y41971D01*
X17720Y41987D01*
X17737Y41998D01*
X17825Y42106D01*
X17917Y42210D01*
X17927Y42228D01*
X17940Y42243D01*
X17999Y42369D01*
X18062Y42493D01*
X18066Y42513D01*
X18075Y42531D01*
X18101Y42667D01*
X18132Y42803D01*
X18131Y42824D01*
X18135Y42844D01*
X18126Y42982D01*
X18122Y43121D01*
X18116Y43141D01*
X18115Y43161D01*
X18072Y43293D01*
X18034Y43427D01*
X18023Y43444D01*
X18017Y43463D01*
X17942Y43581D01*
X17872Y43701D01*
X17853Y43722D01*
X17847Y43732D01*
X17832Y43746D01*
X17766Y43822D01*
X9569Y52018D01*
X7747Y53840D01*
X6857Y55988D01*
X6857Y59810D01*
X7747Y61957D01*
X9390Y63601D01*
X11538Y64490D01*
X13862Y64490D01*
X16010Y63601D01*
X17653Y61957D01*
X18616Y59634D01*
X18620Y59626D01*
X18623Y59617D01*
X18699Y59488D01*
X18773Y59358D01*
X18780Y59351D01*
X18784Y59343D01*
X18891Y59222D01*
X50991Y27122D01*
X51880Y24975D01*
X51880Y22650D01*
X50991Y20503D01*
X49347Y18859D01*
X47818Y18226D01*
X47775Y18201D01*
X47728Y18184D01*
X47637Y18123D01*
X47542Y18068D01*
X47506Y18034D01*
X47465Y18006D01*
X47392Y17924D01*
X47313Y17847D01*
X47287Y17805D01*
X47255Y17767D01*
X47205Y17670D01*
X47147Y17576D01*
X47133Y17529D01*
X47110Y17484D01*
X47086Y17377D01*
X47054Y17272D01*
X47051Y17222D01*
X47040Y17174D01*
X47044Y17064D01*
X47038Y16954D01*
X47048Y16906D01*
X47050Y16856D01*
X47080Y16751D01*
X47103Y16643D01*
X47125Y16598D01*
X47138Y16551D01*
X47194Y16456D01*
X47242Y16357D01*
X47275Y16319D01*
X47300Y16277D01*
X47406Y16156D01*
X49508Y14054D01*
X49586Y13993D01*
X49658Y13925D01*
X49711Y13896D01*
X49759Y13859D01*
X49850Y13820D01*
X49937Y13772D01*
X49995Y13757D01*
X50051Y13733D01*
X50149Y13717D01*
X50245Y13692D01*
X50345Y13686D01*
X50365Y13683D01*
X50378Y13684D01*
X50406Y13682D01*
X68962Y13682D01*
X69043Y13692D01*
X69124Y13693D01*
X69200Y13712D01*
X69278Y13722D01*
X69353Y13752D01*
X69432Y13772D01*
X69501Y13810D01*
X69574Y13839D01*
X69639Y13887D01*
X69710Y13926D01*
X69767Y13980D01*
X69831Y14026D01*
X69883Y14088D01*
X69942Y14144D01*
X70031Y14268D01*
X70034Y14271D01*
X70034Y14272D01*
X70036Y14274D01*
X70124Y14414D01*
X70200Y14441D01*
X70202Y14443D01*
X70206Y14444D01*
X70336Y14533D01*
X70463Y14619D01*
X70466Y14622D01*
X70468Y14624D01*
X70472Y14628D01*
X70577Y14733D01*
X71087Y15310D01*
X71174Y15437D01*
X71263Y15567D01*
X71264Y15570D01*
X71266Y15573D01*
X71319Y15719D01*
X71349Y15799D01*
X71888Y16241D01*
X71903Y16257D01*
X71921Y16269D01*
X72035Y16382D01*
X72497Y16905D01*
X72576Y16920D01*
X72579Y16921D01*
X72582Y16922D01*
X72722Y16987D01*
X72865Y17053D01*
X72868Y17056D01*
X72870Y17057D01*
X72874Y17060D01*
X72996Y17147D01*
X73591Y17635D01*
X73698Y17747D01*
X73807Y17861D01*
X73808Y17863D01*
X73810Y17866D01*
X73886Y18001D01*
X73928Y18076D01*
X74531Y18425D01*
X74548Y18439D01*
X74568Y18448D01*
X74699Y18542D01*
X75239Y18984D01*
X75319Y18985D01*
X75323Y18986D01*
X75326Y18986D01*
X75478Y19030D01*
X75626Y19071D01*
X75629Y19073D01*
X75632Y19073D01*
X75637Y19077D01*
X75770Y19143D01*
X76436Y19528D01*
X76562Y19624D01*
X76685Y19716D01*
X76687Y19719D01*
X76689Y19721D01*
X76786Y19843D01*
X76839Y19910D01*
X77491Y20158D01*
X77510Y20168D01*
X77531Y20174D01*
X77675Y20246D01*
X78279Y20595D01*
X78358Y20584D01*
X78362Y20584D01*
X78365Y20584D01*
X78519Y20602D01*
X78674Y20619D01*
X78679Y20621D01*
X78681Y20621D01*
X78686Y20623D01*
X78828Y20667D01*
X79548Y20941D01*
X79687Y21015D01*
X79823Y21087D01*
X79826Y21089D01*
X79829Y21090D01*
X79943Y21195D01*
X80007Y21253D01*
X80689Y21393D01*
X80710Y21400D01*
X80732Y21402D01*
X80886Y21450D01*
X81538Y21698D01*
X81614Y21674D01*
X81618Y21674D01*
X81621Y21673D01*
X81778Y21666D01*
X81932Y21659D01*
X81936Y21659D01*
X81938Y21659D01*
X81944Y21660D01*
X82091Y21681D01*
X82846Y21836D01*
X82994Y21886D01*
X83141Y21936D01*
X83144Y21937D01*
X83147Y21938D01*
X83278Y22024D01*
X83349Y22070D01*
X84045Y22099D01*
X84067Y22103D01*
X84088Y22101D01*
X84248Y22124D01*
X84932Y22264D01*
X85003Y22228D01*
X85006Y22228D01*
X85009Y22226D01*
X85162Y22194D01*
X85314Y22162D01*
X85319Y22162D01*
X85321Y22161D01*
X85326Y22162D01*
X85475Y22158D01*
X85940Y22178D01*
X86033Y22193D01*
X86128Y22199D01*
X86189Y22220D01*
X86253Y22230D01*
X86340Y22269D01*
X86430Y22298D01*
X86485Y22333D01*
X86544Y22360D01*
X86618Y22418D01*
X86698Y22469D01*
X86742Y22517D01*
X86793Y22557D01*
X86851Y22632D01*
X86915Y22702D01*
X86974Y22795D01*
X86986Y22810D01*
X86990Y22819D01*
X87001Y22838D01*
X93952Y35578D01*
X93995Y35687D01*
X94045Y35793D01*
X94053Y35834D01*
X94068Y35874D01*
X94083Y35990D01*
X94105Y36105D01*
X94102Y36147D01*
X94107Y36189D01*
X94092Y36306D01*
X94085Y36422D01*
X94072Y36463D01*
X94066Y36505D01*
X94023Y36614D01*
X93987Y36725D01*
X93964Y36761D01*
X93949Y36800D01*
X93879Y36895D01*
X93817Y36994D01*
X93786Y37023D01*
X93761Y37057D01*
X93670Y37131D01*
X93585Y37212D01*
X93548Y37232D01*
X93515Y37259D01*
X93409Y37309D01*
X93307Y37365D01*
X93266Y37376D01*
X93227Y37394D01*
X93112Y37415D01*
X92999Y37445D01*
X92935Y37449D01*
X92915Y37452D01*
X92895Y37451D01*
X92838Y37455D01*
X90428Y37455D01*
X88280Y38344D01*
X86637Y39988D01*
X85747Y42135D01*
X85747Y87990D01*
X86637Y90137D01*
X116584Y120085D01*
X116593Y120096D01*
X116604Y120105D01*
X116708Y120229D01*
X117082Y120735D01*
X117333Y120886D01*
X117391Y120932D01*
X117455Y120969D01*
X117576Y121076D01*
X117783Y121283D01*
X118364Y121524D01*
X118377Y121531D01*
X118391Y121535D01*
X118534Y121610D01*
X119073Y121934D01*
X119363Y121978D01*
X119434Y121998D01*
X119507Y122008D01*
X119659Y122061D01*
X119930Y122173D01*
X120560Y122173D01*
X120574Y122175D01*
X120588Y122173D01*
X120749Y122187D01*
X121371Y122281D01*
X121656Y122210D01*
X121729Y122201D01*
X121801Y122183D01*
X121962Y122173D01*
X122255Y122173D01*
X122836Y121932D01*
X122850Y121928D01*
X122863Y121921D01*
X123016Y121873D01*
X137503Y118279D01*
X137588Y118269D01*
X137671Y118249D01*
X137745Y118250D01*
X137819Y118242D01*
X137904Y118253D01*
X137989Y118255D01*
X138060Y118274D01*
X138134Y118284D01*
X138213Y118316D01*
X138295Y118339D01*
X138360Y118376D01*
X138429Y118404D01*
X138497Y118454D01*
X138571Y118496D01*
X138625Y118548D01*
X138685Y118592D01*
X138739Y118658D01*
X138800Y118718D01*
X138879Y118831D01*
X138886Y118839D01*
X138887Y118843D01*
X138892Y118850D01*
X153187Y142266D01*
X153226Y142354D01*
X153274Y142437D01*
X153291Y142498D01*
X153317Y142556D01*
X153334Y142651D01*
X153359Y142743D01*
X153361Y142807D01*
X153372Y142870D01*
X153364Y142965D01*
X153366Y143061D01*
X153351Y143123D01*
X153346Y143187D01*
X153337Y143213D01*
X153365Y143363D01*
X153364Y143366D01*
X153365Y143369D01*
X153354Y143518D01*
X153343Y143680D01*
X153341Y143684D01*
X153341Y143687D01*
X153339Y143692D01*
X153301Y143836D01*
X153055Y144572D01*
X152987Y144716D01*
X152921Y144854D01*
X152919Y144856D01*
X152918Y144859D01*
X152815Y144982D01*
X152763Y145044D01*
X152651Y145732D01*
X152645Y145753D01*
X152643Y145774D01*
X152602Y145930D01*
X152381Y146592D01*
X152408Y146668D01*
X152408Y146671D01*
X152409Y146674D01*
X152421Y146811D01*
X152433Y146873D01*
X152431Y146914D01*
X152437Y146984D01*
X152437Y146988D01*
X152437Y146991D01*
X152436Y146996D01*
X152421Y147144D01*
X152297Y147911D01*
X152254Y148057D01*
X152210Y148210D01*
X152208Y148213D01*
X152207Y148216D01*
X152127Y148351D01*
X152084Y148423D01*
X152084Y149120D01*
X152081Y149142D01*
X152083Y149163D01*
X152067Y149324D01*
X151955Y150013D01*
X151994Y150083D01*
X151995Y150086D01*
X151996Y150089D01*
X152035Y150241D01*
X152074Y150391D01*
X152074Y150395D01*
X152074Y150397D01*
X152074Y150403D01*
X152084Y150551D01*
X152084Y151328D01*
X152064Y151484D01*
X152046Y151637D01*
X152044Y151640D01*
X152044Y151643D01*
X151987Y151787D01*
X151956Y151868D01*
X152067Y152555D01*
X152068Y152577D01*
X152074Y152598D01*
X152084Y152759D01*
X152084Y153457D01*
X152133Y153520D01*
X152135Y153523D01*
X152137Y153526D01*
X152198Y153667D01*
X152261Y153811D01*
X152262Y153816D01*
X152263Y153817D01*
X152264Y153823D01*
X152297Y153968D01*
X152421Y154735D01*
X152427Y154886D01*
X152433Y155046D01*
X152433Y155049D01*
X152433Y155052D01*
X152399Y155205D01*
X152382Y155288D01*
X152602Y155949D01*
X152606Y155970D01*
X152615Y155990D01*
X152651Y156147D01*
X152737Y156676D01*
X152739Y156718D01*
X152748Y156759D01*
X152744Y156877D01*
X152748Y156994D01*
X152739Y157035D01*
X152738Y157077D01*
X152705Y157190D01*
X152680Y157305D01*
X152661Y157342D01*
X152650Y157382D01*
X152590Y157483D01*
X152537Y157589D01*
X152509Y157620D01*
X152488Y157656D01*
X152382Y157777D01*
X149622Y160537D01*
X149544Y160597D01*
X149472Y160665D01*
X149419Y160694D01*
X149371Y160731D01*
X149280Y160771D01*
X149193Y160819D01*
X149135Y160834D01*
X149079Y160858D01*
X148981Y160873D01*
X148886Y160898D01*
X148785Y160904D01*
X148765Y160908D01*
X148753Y160906D01*
X148725Y160908D01*
X128498Y160908D01*
X128360Y160891D01*
X128221Y160878D01*
X128202Y160871D01*
X128182Y160868D01*
X128053Y160817D01*
X127922Y160770D01*
X127905Y160759D01*
X127887Y160751D01*
X127774Y160670D01*
X127659Y160592D01*
X127646Y160576D01*
X127629Y160565D01*
X127540Y160457D01*
X127449Y160353D01*
X127439Y160335D01*
X127426Y160320D01*
X127367Y160194D01*
X127304Y160070D01*
X127299Y160050D01*
X127291Y160032D01*
X127265Y159896D01*
X127234Y159760D01*
X127235Y159739D01*
X127231Y159720D01*
X127240Y159581D01*
X127244Y159442D01*
X127250Y159422D01*
X127251Y159402D01*
X127294Y159270D01*
X127332Y159136D01*
X127343Y159119D01*
X127349Y159100D01*
X127423Y158982D01*
X127494Y158862D01*
X127512Y158841D01*
X127519Y158831D01*
X127534Y158817D01*
X127600Y158742D01*
X130049Y156293D01*
X130049Y148507D01*
X124543Y143001D01*
X116757Y143001D01*
X111251Y148507D01*
X111251Y156293D01*
X116757Y161799D01*
X120104Y161799D01*
X120242Y161816D01*
X120381Y161829D01*
X120400Y161836D01*
X120420Y161839D01*
X120549Y161890D01*
X120680Y161937D01*
X120697Y161948D01*
X120716Y161956D01*
X120828Y162037D01*
X120943Y162115D01*
X120957Y162131D01*
X120973Y162142D01*
X121062Y162250D01*
X121154Y162354D01*
X121163Y162372D01*
X121176Y162387D01*
X121235Y162513D01*
X121298Y162637D01*
X121303Y162657D01*
X121311Y162675D01*
X121337Y162811D01*
X121368Y162947D01*
X121367Y162968D01*
X121371Y162987D01*
X121362Y163126D01*
X121358Y163265D01*
X121353Y163285D01*
X121351Y163305D01*
X121309Y163437D01*
X121270Y163571D01*
X121260Y163588D01*
X121253Y163607D01*
X121179Y163725D01*
X121108Y163845D01*
X121090Y163866D01*
X121083Y163876D01*
X121068Y163890D01*
X121002Y163965D01*
X111858Y173110D01*
X111780Y173170D01*
X111707Y173238D01*
X111654Y173267D01*
X111607Y173304D01*
X111516Y173344D01*
X111429Y173392D01*
X111370Y173407D01*
X111315Y173431D01*
X111217Y173446D01*
X111121Y173471D01*
X111021Y173477D01*
X111001Y173481D01*
X110988Y173479D01*
X110960Y173481D01*
X86398Y173481D01*
X86280Y173466D01*
X86161Y173459D01*
X86123Y173446D01*
X86082Y173441D01*
X85972Y173398D01*
X85859Y173361D01*
X85824Y173339D01*
X85787Y173324D01*
X85691Y173255D01*
X85590Y173191D01*
X85562Y173161D01*
X85529Y173138D01*
X85453Y173046D01*
X85372Y172959D01*
X85352Y172924D01*
X85327Y172893D01*
X85276Y172785D01*
X85218Y172681D01*
X85208Y172641D01*
X85191Y172605D01*
X85169Y172488D01*
X85139Y172373D01*
X85135Y172313D01*
X85131Y172293D01*
X85133Y172272D01*
X85129Y172212D01*
X85129Y171358D01*
X85116Y171329D01*
X85097Y171211D01*
X85071Y171095D01*
X85072Y171055D01*
X85066Y171015D01*
X85077Y170896D01*
X85081Y170777D01*
X85092Y170738D01*
X85096Y170698D01*
X85136Y170586D01*
X85169Y170472D01*
X85190Y170437D01*
X85203Y170399D01*
X85270Y170300D01*
X85331Y170198D01*
X85371Y170153D01*
X85382Y170136D01*
X85397Y170122D01*
X85437Y170077D01*
X85677Y169837D01*
X86523Y167794D01*
X86523Y165581D01*
X85677Y163538D01*
X84112Y161973D01*
X82069Y161127D01*
X79856Y161127D01*
X77813Y161973D01*
X76248Y163538D01*
X75979Y164189D01*
X75964Y164214D01*
X75955Y164242D01*
X75886Y164352D01*
X75821Y164465D01*
X75801Y164486D01*
X75785Y164511D01*
X75690Y164600D01*
X75600Y164693D01*
X75575Y164709D01*
X75553Y164729D01*
X75439Y164792D01*
X75329Y164860D01*
X75300Y164868D01*
X75275Y164883D01*
X75149Y164915D01*
X75025Y164953D01*
X74995Y164955D01*
X74967Y164962D01*
X74806Y164972D01*
X73135Y164972D01*
X73017Y164957D01*
X72899Y164950D01*
X72860Y164937D01*
X72820Y164932D01*
X72709Y164889D01*
X72596Y164852D01*
X72562Y164830D01*
X72524Y164815D01*
X72428Y164746D01*
X72327Y164682D01*
X72300Y164652D01*
X72267Y164629D01*
X72191Y164537D01*
X72109Y164450D01*
X72090Y164415D01*
X72064Y164384D01*
X72013Y164276D01*
X71956Y164172D01*
X71946Y164132D01*
X71929Y164096D01*
X71906Y163979D01*
X71876Y163864D01*
X71873Y163804D01*
X71869Y163784D01*
X71870Y163763D01*
X71866Y163703D01*
X71866Y153076D01*
X70500Y151710D01*
X70427Y151616D01*
X70349Y151527D01*
X70330Y151491D01*
X70306Y151459D01*
X70258Y151349D01*
X70204Y151243D01*
X70195Y151204D01*
X70179Y151167D01*
X70161Y151049D01*
X70134Y150933D01*
X70136Y150893D01*
X70129Y150853D01*
X70141Y150734D01*
X70144Y150615D01*
X70155Y150576D01*
X70159Y150536D01*
X70199Y150424D01*
X70233Y150310D01*
X70253Y150275D01*
X70267Y150237D01*
X70334Y150138D01*
X70394Y150036D01*
X70434Y149991D01*
X70445Y149974D01*
X70461Y149960D01*
X70500Y149915D01*
X71866Y148549D01*
X71866Y136076D01*
X70824Y135034D01*
X59351Y135034D01*
X58583Y135802D01*
X58474Y135886D01*
X58366Y135975D01*
X58348Y135984D01*
X58332Y135996D01*
X58204Y136052D01*
X58078Y136111D01*
X58059Y136115D01*
X58040Y136123D01*
X57902Y136145D01*
X57766Y136171D01*
X57746Y136169D01*
X57726Y136173D01*
X57587Y136160D01*
X57449Y136151D01*
X57429Y136145D01*
X57409Y136143D01*
X57278Y136096D01*
X57146Y136053D01*
X57129Y136042D01*
X57110Y136035D01*
X56995Y135957D01*
X56877Y135883D01*
X56863Y135868D01*
X56847Y135857D01*
X56755Y135753D01*
X56659Y135651D01*
X56650Y135633D01*
X56636Y135618D01*
X56573Y135495D01*
X56506Y135373D01*
X56501Y135353D01*
X56492Y135335D01*
X56461Y135199D01*
X56426Y135065D01*
X56425Y135037D01*
X56422Y135025D01*
X56423Y135004D01*
X56416Y134904D01*
X56416Y129613D01*
X55374Y128571D01*
X43907Y128571D01*
X43789Y128556D01*
X43671Y128549D01*
X43632Y128536D01*
X43592Y128531D01*
X43481Y128488D01*
X43368Y128451D01*
X43334Y128429D01*
X43296Y128414D01*
X43200Y128345D01*
X43099Y128281D01*
X43072Y128251D01*
X43039Y128228D01*
X42963Y128136D01*
X42881Y128049D01*
X42862Y128014D01*
X42836Y127983D01*
X42785Y127875D01*
X42728Y127771D01*
X42718Y127731D01*
X42701Y127695D01*
X42678Y127578D01*
X42648Y127463D01*
X42645Y127403D01*
X42641Y127383D01*
X42642Y127362D01*
X42638Y127302D01*
X42638Y101346D01*
X42653Y101228D01*
X42661Y101109D01*
X42673Y101071D01*
X42678Y101030D01*
X42722Y100920D01*
X42759Y100807D01*
X42780Y100772D01*
X42795Y100735D01*
X42865Y100639D01*
X42929Y100538D01*
X42958Y100510D01*
X42982Y100477D01*
X43074Y100401D01*
X43160Y100320D01*
X43196Y100300D01*
X43227Y100275D01*
X43335Y100224D01*
X43439Y100166D01*
X43478Y100156D01*
X43515Y100139D01*
X43631Y100117D01*
X43747Y100087D01*
X43807Y100083D01*
X43827Y100079D01*
X43847Y100081D01*
X43907Y100077D01*
X58627Y100077D01*
X58745Y100092D01*
X58864Y100099D01*
X58902Y100112D01*
X58943Y100117D01*
X59053Y100160D01*
X59166Y100197D01*
X59201Y100219D01*
X59238Y100234D01*
X59334Y100303D01*
X59435Y100367D01*
X59463Y100397D01*
X59496Y100420D01*
X59572Y100512D01*
X59653Y100599D01*
X59673Y100634D01*
X59698Y100665D01*
X59749Y100773D01*
X59807Y100877D01*
X59817Y100917D01*
X59834Y100953D01*
X59856Y101070D01*
X59886Y101185D01*
X59890Y101245D01*
X59894Y101265D01*
X59892Y101286D01*
X59896Y101346D01*
X59896Y105687D01*
X60938Y106729D01*
X81937Y106729D01*
X82979Y105687D01*
X82979Y93213D01*
X81937Y92171D01*
X66748Y92171D01*
X66650Y92159D01*
X66551Y92156D01*
X66493Y92139D01*
X66433Y92131D01*
X66340Y92095D01*
X66245Y92067D01*
X66193Y92037D01*
X66137Y92014D01*
X66057Y91956D01*
X65971Y91906D01*
X65896Y91840D01*
X65879Y91828D01*
X65872Y91818D01*
X65851Y91800D01*
X65209Y91158D01*
X63435Y90423D01*
X44196Y90423D01*
X44078Y90408D01*
X43959Y90401D01*
X43921Y90388D01*
X43880Y90383D01*
X43770Y90340D01*
X43657Y90303D01*
X43622Y90281D01*
X43585Y90266D01*
X43489Y90197D01*
X43388Y90133D01*
X43360Y90103D01*
X43327Y90080D01*
X43251Y89988D01*
X43170Y89901D01*
X43150Y89866D01*
X43125Y89835D01*
X43074Y89727D01*
X43016Y89623D01*
X43006Y89583D01*
X42989Y89547D01*
X42967Y89430D01*
X42937Y89315D01*
X42933Y89255D01*
X42929Y89235D01*
X42931Y89214D01*
X42927Y89154D01*
X42927Y88598D01*
X42942Y88480D01*
X42949Y88361D01*
X42962Y88323D01*
X42967Y88282D01*
X43010Y88172D01*
X43047Y88059D01*
X43069Y88024D01*
X43084Y87987D01*
X43153Y87891D01*
X43217Y87790D01*
X43247Y87762D01*
X43270Y87729D01*
X43362Y87653D01*
X43449Y87572D01*
X43484Y87552D01*
X43515Y87527D01*
X43623Y87476D01*
X43727Y87418D01*
X43767Y87408D01*
X43803Y87391D01*
X43920Y87369D01*
X44035Y87339D01*
X44095Y87335D01*
X44115Y87331D01*
X44136Y87333D01*
X44196Y87329D01*
X55374Y87329D01*
X56416Y86287D01*
X56416Y78813D01*
X55374Y77771D01*
X44831Y77771D01*
X44693Y77754D01*
X44555Y77741D01*
X44536Y77734D01*
X44516Y77731D01*
X44386Y77680D01*
X44256Y77633D01*
X44239Y77622D01*
X44220Y77614D01*
X44108Y77533D01*
X43993Y77455D01*
X43979Y77439D01*
X43963Y77428D01*
X43874Y77320D01*
X43782Y77216D01*
X43773Y77198D01*
X43760Y77183D01*
X43701Y77057D01*
X43638Y76933D01*
X43633Y76913D01*
X43625Y76895D01*
X43599Y76759D01*
X43568Y76623D01*
X43569Y76602D01*
X43565Y76583D01*
X43573Y76444D01*
X43578Y76305D01*
X43583Y76285D01*
X43585Y76265D01*
X43627Y76133D01*
X43666Y75999D01*
X43676Y75982D01*
X43683Y75963D01*
X43757Y75845D01*
X43828Y75725D01*
X43846Y75704D01*
X43853Y75694D01*
X43868Y75680D01*
X43934Y75604D01*
X44490Y75048D01*
X44568Y74988D01*
X44640Y74920D01*
X44694Y74891D01*
X44741Y74854D01*
X44832Y74814D01*
X44919Y74766D01*
X44978Y74751D01*
X45033Y74727D01*
X45131Y74712D01*
X45227Y74687D01*
X45327Y74681D01*
X45347Y74677D01*
X45360Y74679D01*
X45388Y74677D01*
X49658Y74677D01*
X49787Y74641D01*
X49796Y74641D01*
X49805Y74639D01*
X49966Y74629D01*
X55374Y74629D01*
X56416Y73587D01*
X56416Y66113D01*
X55374Y65071D01*
X49966Y65071D01*
X49957Y65070D01*
X49947Y65071D01*
X49798Y65050D01*
X49650Y65031D01*
X49642Y65028D01*
X49633Y65027D01*
X49622Y65023D01*
X41878Y65023D01*
X41748Y65087D01*
X40128Y65758D01*
X33720Y72167D01*
X32985Y73941D01*
X32985Y88509D01*
X33177Y88972D01*
X33179Y88981D01*
X33184Y88989D01*
X33221Y89134D01*
X33261Y89279D01*
X33261Y89288D01*
X33263Y89297D01*
X33273Y89458D01*
X33273Y93629D01*
X33272Y93639D01*
X33273Y93648D01*
X33252Y93797D01*
X33247Y93834D01*
X33244Y93882D01*
X33239Y93898D01*
X33233Y93945D01*
X33230Y93954D01*
X33229Y93963D01*
X33177Y94115D01*
X32985Y94578D01*
X32985Y142196D01*
X32972Y142294D01*
X32969Y142393D01*
X32953Y142451D01*
X32945Y142511D01*
X32908Y142603D01*
X32881Y142698D01*
X32850Y142751D01*
X32828Y142807D01*
X32770Y142887D01*
X32719Y142972D01*
X32653Y143048D01*
X32641Y143064D01*
X32632Y143072D01*
X32613Y143093D01*
X17399Y158307D01*
X16664Y160081D01*
X16664Y169907D01*
X16663Y169916D01*
X16664Y169925D01*
X16643Y170074D01*
X16624Y170222D01*
X16621Y170231D01*
X16620Y170240D01*
X16568Y170393D01*
X15930Y171931D01*
X15930Y174144D01*
X16777Y176187D01*
X18341Y177752D01*
X20385Y178598D01*
X22597Y178598D01*
X23517Y178217D01*
X23565Y178204D01*
X23610Y178183D01*
X23718Y178162D01*
X23824Y178133D01*
X23874Y178132D01*
X23923Y178123D01*
X24032Y178130D01*
X24142Y178128D01*
X24190Y178140D01*
X24240Y178143D01*
X24344Y178177D01*
X24451Y178202D01*
X24495Y178225D01*
X24542Y178241D01*
X24635Y178300D01*
X24732Y178351D01*
X24769Y178384D01*
X24811Y178411D01*
X24886Y178491D01*
X24968Y178565D01*
X24995Y178606D01*
X25029Y178643D01*
X25082Y178739D01*
X25142Y178831D01*
X25159Y178878D01*
X25183Y178921D01*
X25210Y179027D01*
X25246Y179131D01*
X25250Y179181D01*
X25262Y179229D01*
X25272Y179390D01*
X25272Y181694D01*
X25260Y181792D01*
X25257Y181891D01*
X25240Y181949D01*
X25232Y182009D01*
X25196Y182101D01*
X25168Y182196D01*
X25138Y182249D01*
X25115Y182305D01*
X25057Y182385D01*
X25007Y182470D01*
X24941Y182546D01*
X24929Y182562D01*
X24919Y182570D01*
X24901Y182591D01*
X13592Y193900D01*
X13514Y193960D01*
X13442Y194028D01*
X13389Y194057D01*
X13341Y194094D01*
X13250Y194134D01*
X13163Y194182D01*
X13105Y194197D01*
X13049Y194221D01*
X12951Y194236D01*
X12855Y194261D01*
X12755Y194267D01*
X12735Y194271D01*
X12723Y194269D01*
X12695Y194271D01*
X4876Y194271D01*
X3834Y195313D01*
X3834Y206787D01*
X4876Y207829D01*
X17349Y207829D01*
X18391Y206787D01*
X18391Y198968D01*
X18404Y198870D01*
X18407Y198771D01*
X18423Y198712D01*
X18431Y198652D01*
X18468Y198560D01*
X18495Y198465D01*
X18526Y198413D01*
X18548Y198357D01*
X18606Y198277D01*
X18657Y198191D01*
X18723Y198116D01*
X18735Y198099D01*
X18744Y198091D01*
X18763Y198070D01*
X20717Y196116D01*
X20827Y196031D01*
X20934Y195942D01*
X20952Y195934D01*
X20968Y195921D01*
X21096Y195866D01*
X21222Y195807D01*
X21241Y195803D01*
X21260Y195795D01*
X21398Y195773D01*
X21534Y195747D01*
X21554Y195748D01*
X21574Y195745D01*
X21713Y195758D01*
X21851Y195767D01*
X21871Y195773D01*
X21891Y195775D01*
X22022Y195822D01*
X22154Y195865D01*
X22171Y195876D01*
X22190Y195883D01*
X22305Y195961D01*
X22423Y196035D01*
X22437Y196050D01*
X22453Y196061D01*
X22545Y196165D01*
X22641Y196267D01*
X22650Y196284D01*
X22664Y196300D01*
X22727Y196424D01*
X22794Y196545D01*
X22799Y196565D01*
X22808Y196583D01*
X22839Y196719D01*
X22874Y196853D01*
X22875Y196881D01*
X22878Y196893D01*
X22877Y196914D01*
X22884Y197014D01*
X22884Y206787D01*
X23926Y207829D01*
X36345Y207829D01*
X36463Y207844D01*
X36582Y207851D01*
X36620Y207864D01*
X36661Y207869D01*
X36771Y207912D01*
X36884Y207949D01*
X36919Y207971D01*
X36956Y207986D01*
X37052Y208055D01*
X37153Y208119D01*
X37181Y208149D01*
X37214Y208172D01*
X37290Y208264D01*
X37371Y208351D01*
X37391Y208386D01*
X37416Y208417D01*
X37467Y208525D01*
X37525Y208629D01*
X37535Y208669D01*
X37552Y208705D01*
X37574Y208822D01*
X37604Y208937D01*
X37608Y208997D01*
X37612Y209017D01*
X37610Y209038D01*
X37614Y209098D01*
X37614Y210002D01*
X37599Y210120D01*
X37592Y210239D01*
X37579Y210277D01*
X37574Y210318D01*
X37531Y210428D01*
X37494Y210541D01*
X37472Y210576D01*
X37457Y210613D01*
X37388Y210709D01*
X37324Y210810D01*
X37294Y210838D01*
X37271Y210871D01*
X37179Y210947D01*
X37092Y211028D01*
X37057Y211048D01*
X37026Y211073D01*
X36918Y211124D01*
X36814Y211182D01*
X36774Y211192D01*
X36738Y211209D01*
X36621Y211231D01*
X36506Y211261D01*
X36446Y211265D01*
X36426Y211269D01*
X36405Y211267D01*
X36345Y211271D01*
X23926Y211271D01*
X22884Y212313D01*
X22884Y220132D01*
X22871Y220230D01*
X22868Y220329D01*
X22852Y220388D01*
X22844Y220448D01*
X22807Y220540D01*
X22780Y220635D01*
X22749Y220687D01*
X22727Y220743D01*
X22669Y220823D01*
X22618Y220909D01*
X22552Y220984D01*
X22540Y221001D01*
X22531Y221009D01*
X22512Y221030D01*
X20558Y222984D01*
X20448Y223069D01*
X20341Y223158D01*
X20323Y223166D01*
X20307Y223179D01*
X20179Y223234D01*
X20053Y223293D01*
X20034Y223297D01*
X20015Y223305D01*
X19877Y223327D01*
X19741Y223353D01*
X19721Y223352D01*
X19701Y223355D01*
X19562Y223342D01*
X19424Y223333D01*
X19404Y223327D01*
X19384Y223325D01*
X19253Y223278D01*
X19121Y223235D01*
X19104Y223224D01*
X19085Y223217D01*
X18970Y223139D01*
X18852Y223065D01*
X18838Y223050D01*
X18822Y223039D01*
X18730Y222935D01*
X18634Y222833D01*
X18625Y222816D01*
X18611Y222800D01*
X18548Y222676D01*
X18481Y222555D01*
X18476Y222535D01*
X18467Y222517D01*
X18436Y222381D01*
X18401Y222247D01*
X18400Y222219D01*
X18397Y222207D01*
X18398Y222186D01*
X18391Y222086D01*
X18391Y212313D01*
X17349Y211271D01*
X4876Y211271D01*
X3834Y212313D01*
X3834Y218495D01*
X3821Y218593D01*
X3818Y218692D01*
X3802Y218750D01*
X3794Y218810D01*
X3757Y218902D01*
X3730Y218997D01*
X3699Y219050D01*
X3677Y219106D01*
X3619Y219186D01*
X3568Y219271D01*
X3502Y219347D01*
X3490Y219363D01*
X3481Y219371D01*
X3462Y219392D01*
X-29836Y252690D01*
X-29859Y252708D01*
X-29879Y252731D01*
X-29985Y252806D01*
X-30087Y252885D01*
X-30114Y252897D01*
X-30139Y252914D01*
X-30260Y252960D01*
X-30379Y253012D01*
X-30408Y253016D01*
X-30436Y253027D01*
X-30565Y253041D01*
X-30693Y253061D01*
X-30723Y253059D01*
X-30752Y253062D01*
X-30880Y253044D01*
X-31010Y253032D01*
X-31038Y253022D01*
X-31067Y253017D01*
X-31219Y252965D01*
X-32955Y252246D01*
X-37045Y252246D01*
X-40822Y253811D01*
X-43714Y256703D01*
X-45279Y260480D01*
X-45279Y264570D01*
X-43714Y268347D01*
X-40822Y271239D01*
X-37045Y272804D01*
X-32955Y272804D01*
X-29178Y271239D01*
X-26286Y268347D01*
X-24721Y264570D01*
X-24721Y260480D01*
X-25440Y258744D01*
X-25448Y258716D01*
X-25462Y258690D01*
X-25490Y258563D01*
X-25524Y258438D01*
X-25525Y258408D01*
X-25531Y258379D01*
X-25527Y258249D01*
X-25529Y258120D01*
X-25523Y258091D01*
X-25522Y258061D01*
X-25486Y257937D01*
X-25455Y257810D01*
X-25441Y257784D01*
X-25433Y257756D01*
X-25367Y257644D01*
X-25307Y257529D01*
X-25287Y257507D01*
X-25272Y257482D01*
X-25165Y257361D01*
X6995Y225200D01*
X7074Y225140D01*
X7146Y225072D01*
X7199Y225043D01*
X7247Y225006D01*
X7338Y224966D01*
X7424Y224918D01*
X7483Y224903D01*
X7538Y224879D01*
X7636Y224864D01*
X7732Y224839D01*
X7832Y224833D01*
X7852Y224829D01*
X7865Y224831D01*
X7893Y224829D01*
X15649Y224829D01*
X15786Y224846D01*
X15925Y224859D01*
X15944Y224866D01*
X15964Y224869D01*
X16093Y224920D01*
X16224Y224967D01*
X16241Y224978D01*
X16260Y224986D01*
X16372Y225067D01*
X16488Y225145D01*
X16501Y225161D01*
X16517Y225172D01*
X16606Y225280D01*
X16698Y225384D01*
X16707Y225402D01*
X16720Y225417D01*
X16779Y225543D01*
X16843Y225667D01*
X16847Y225687D01*
X16856Y225705D01*
X16882Y225841D01*
X16912Y225977D01*
X16912Y225998D01*
X16915Y226017D01*
X16907Y226156D01*
X16903Y226295D01*
X16897Y226315D01*
X16896Y226335D01*
X16853Y226467D01*
X16814Y226601D01*
X16804Y226618D01*
X16798Y226637D01*
X16723Y226755D01*
X16653Y226875D01*
X16634Y226896D01*
X16628Y226906D01*
X16613Y226920D01*
X16546Y226995D01*
X-3303Y246844D01*
X-3303Y251919D01*
X-3306Y251949D01*
X-3304Y251978D01*
X-3326Y252106D01*
X-3343Y252235D01*
X-3353Y252262D01*
X-3358Y252291D01*
X-3412Y252410D01*
X-3460Y252531D01*
X-3477Y252554D01*
X-3489Y252581D01*
X-3570Y252683D01*
X-3646Y252788D01*
X-3669Y252807D01*
X-3688Y252830D01*
X-3791Y252908D01*
X-3891Y252991D01*
X-3918Y253003D01*
X-3942Y253021D01*
X-4086Y253092D01*
X-5822Y253811D01*
X-8714Y256703D01*
X-10279Y260480D01*
X-10279Y264570D01*
X-8714Y268347D01*
X-5822Y271239D01*
X-2045Y272804D01*
X2045Y272804D01*
X5822Y271239D01*
X8714Y268347D01*
X10279Y264570D01*
X10279Y260480D01*
X8714Y256703D01*
X5822Y253811D01*
X4086Y253092D01*
X4061Y253077D01*
X4033Y253068D01*
X3923Y252999D01*
X3810Y252934D01*
X3789Y252914D01*
X3764Y252898D01*
X3675Y252803D01*
X3582Y252713D01*
X3566Y252688D01*
X3546Y252666D01*
X3483Y252553D01*
X3415Y252442D01*
X3407Y252414D01*
X3392Y252388D01*
X3360Y252262D01*
X3322Y252138D01*
X3320Y252109D01*
X3313Y252080D01*
X3303Y251919D01*
X3303Y250106D01*
X3315Y250008D01*
X3318Y249909D01*
X3335Y249851D01*
X3343Y249791D01*
X3379Y249699D01*
X3407Y249604D01*
X3437Y249551D01*
X3460Y249495D01*
X3518Y249415D01*
X3568Y249330D01*
X3634Y249254D01*
X3646Y249238D01*
X3656Y249230D01*
X3674Y249209D01*
X27683Y225200D01*
X27761Y225140D01*
X27833Y225072D01*
X27886Y225043D01*
X27934Y225006D01*
X28025Y224966D01*
X28112Y224918D01*
X28170Y224903D01*
X28226Y224879D01*
X28324Y224864D01*
X28420Y224839D01*
X28520Y224833D01*
X28540Y224829D01*
X28552Y224831D01*
X28580Y224829D01*
X36345Y224829D01*
X36463Y224844D01*
X36582Y224851D01*
X36620Y224864D01*
X36661Y224869D01*
X36771Y224912D01*
X36884Y224949D01*
X36919Y224971D01*
X36956Y224986D01*
X37052Y225055D01*
X37153Y225119D01*
X37181Y225149D01*
X37214Y225172D01*
X37290Y225264D01*
X37371Y225351D01*
X37391Y225386D01*
X37416Y225417D01*
X37467Y225525D01*
X37525Y225629D01*
X37535Y225669D01*
X37552Y225705D01*
X37574Y225822D01*
X37604Y225937D01*
X37608Y225997D01*
X37612Y226017D01*
X37610Y226038D01*
X37614Y226098D01*
X37614Y235528D01*
X40218Y238132D01*
X59955Y257869D01*
X59973Y257892D01*
X59995Y257911D01*
X60070Y258018D01*
X60150Y258120D01*
X60162Y258147D01*
X60179Y258172D01*
X60225Y258293D01*
X60276Y258412D01*
X60281Y258441D01*
X60291Y258469D01*
X60306Y258598D01*
X60326Y258726D01*
X60323Y258756D01*
X60326Y258785D01*
X60308Y258913D01*
X60296Y259043D01*
X60286Y259071D01*
X60282Y259100D01*
X60230Y259252D01*
X59721Y260480D01*
X59721Y264570D01*
X61286Y268347D01*
X64178Y271239D01*
X67955Y272804D01*
X72045Y272804D01*
X75822Y271239D01*
X78714Y268347D01*
X80279Y264570D01*
X80279Y260480D01*
X78714Y256703D01*
X75822Y253811D01*
X72045Y252246D01*
X67955Y252246D01*
X66727Y252755D01*
X66699Y252763D01*
X66672Y252776D01*
X66546Y252805D01*
X66420Y252839D01*
X66391Y252839D01*
X66362Y252846D01*
X66232Y252842D01*
X66102Y252844D01*
X66074Y252837D01*
X66044Y252836D01*
X65920Y252800D01*
X65793Y252770D01*
X65767Y252756D01*
X65739Y252748D01*
X65627Y252682D01*
X65512Y252621D01*
X65490Y252601D01*
X65465Y252586D01*
X65344Y252480D01*
X45607Y232743D01*
X45547Y232665D01*
X45479Y232593D01*
X45450Y232540D01*
X45413Y232492D01*
X45373Y232401D01*
X45325Y232314D01*
X45310Y232256D01*
X45286Y232200D01*
X45271Y232102D01*
X45246Y232007D01*
X45240Y231906D01*
X45236Y231886D01*
X45238Y231874D01*
X45236Y231846D01*
X45236Y194236D01*
X45242Y194186D01*
X45240Y194137D01*
X45262Y194029D01*
X45276Y193920D01*
X45294Y193874D01*
X45304Y193825D01*
X45352Y193727D01*
X45393Y193625D01*
X45422Y193584D01*
X45444Y193540D01*
X45515Y193456D01*
X45579Y193367D01*
X45618Y193335D01*
X45650Y193298D01*
X45740Y193235D01*
X45824Y193164D01*
X45869Y193143D01*
X45910Y193115D01*
X46013Y193076D01*
X46112Y193029D01*
X46161Y193020D01*
X46207Y193002D01*
X46317Y192990D01*
X46424Y192969D01*
X46474Y192972D01*
X46523Y192967D01*
X46632Y192982D01*
X46742Y192989D01*
X46789Y193004D01*
X46838Y193011D01*
X46991Y193063D01*
X47911Y193444D01*
X50123Y193444D01*
X52167Y192598D01*
X53731Y191033D01*
X54578Y188990D01*
X54578Y188956D01*
X54590Y188858D01*
X54593Y188759D01*
X54610Y188701D01*
X54618Y188641D01*
X54654Y188549D01*
X54682Y188453D01*
X54712Y188401D01*
X54735Y188345D01*
X54793Y188265D01*
X54843Y188180D01*
X54909Y188104D01*
X54921Y188088D01*
X54931Y188080D01*
X54949Y188059D01*
X57558Y185450D01*
X57636Y185390D01*
X57708Y185322D01*
X57761Y185293D01*
X57809Y185256D01*
X57900Y185216D01*
X57987Y185168D01*
X58045Y185153D01*
X58101Y185129D01*
X58199Y185114D01*
X58295Y185089D01*
X58395Y185083D01*
X58415Y185079D01*
X58427Y185081D01*
X58455Y185079D01*
X67087Y185079D01*
X68129Y184037D01*
X68129Y173605D01*
X68141Y173507D01*
X68144Y173408D01*
X68150Y173388D01*
X68151Y173371D01*
X68163Y173334D01*
X68169Y173290D01*
X68205Y173198D01*
X68233Y173103D01*
X68245Y173082D01*
X68249Y173068D01*
X68268Y173038D01*
X68286Y172994D01*
X68344Y172914D01*
X68394Y172829D01*
X68418Y172801D01*
X68419Y172800D01*
X68422Y172797D01*
X68460Y172753D01*
X68472Y172737D01*
X68482Y172729D01*
X68500Y172708D01*
X69259Y171949D01*
X69337Y171889D01*
X69409Y171821D01*
X69462Y171792D01*
X69510Y171755D01*
X69601Y171715D01*
X69688Y171667D01*
X69746Y171652D01*
X69802Y171628D01*
X69900Y171613D01*
X69996Y171588D01*
X70096Y171582D01*
X70116Y171578D01*
X70128Y171580D01*
X70156Y171578D01*
X70302Y171578D01*
X70420Y171593D01*
X70539Y171600D01*
X70577Y171613D01*
X70618Y171618D01*
X70728Y171661D01*
X70841Y171698D01*
X70876Y171720D01*
X70913Y171735D01*
X71009Y171804D01*
X71110Y171868D01*
X71138Y171898D01*
X71171Y171921D01*
X71247Y172013D01*
X71328Y172100D01*
X71348Y172135D01*
X71373Y172166D01*
X71424Y172274D01*
X71482Y172378D01*
X71492Y172418D01*
X71509Y172454D01*
X71531Y172571D01*
X71561Y172686D01*
X71565Y172746D01*
X71569Y172766D01*
X71567Y172787D01*
X71571Y172847D01*
X71571Y184037D01*
X72613Y185079D01*
X84087Y185079D01*
X85129Y184037D01*
X85129Y183388D01*
X85144Y183270D01*
X85151Y183151D01*
X85164Y183113D01*
X85169Y183072D01*
X85212Y182962D01*
X85249Y182849D01*
X85271Y182814D01*
X85286Y182777D01*
X85355Y182681D01*
X85419Y182580D01*
X85449Y182552D01*
X85472Y182519D01*
X85564Y182443D01*
X85651Y182362D01*
X85686Y182342D01*
X85717Y182317D01*
X85825Y182266D01*
X85929Y182208D01*
X85969Y182198D01*
X86005Y182181D01*
X86122Y182159D01*
X86237Y182129D01*
X86297Y182125D01*
X86317Y182121D01*
X86338Y182123D01*
X86398Y182119D01*
X115064Y182119D01*
X116244Y180939D01*
X116283Y180908D01*
X116317Y180872D01*
X116408Y180811D01*
X116495Y180744D01*
X116541Y180724D01*
X116582Y180697D01*
X116686Y180661D01*
X116787Y180617D01*
X116836Y180610D01*
X116883Y180594D01*
X116992Y180585D01*
X117101Y180568D01*
X117151Y180572D01*
X117200Y180568D01*
X117308Y180587D01*
X117418Y180597D01*
X117464Y180614D01*
X117513Y180623D01*
X117614Y180668D01*
X117717Y180705D01*
X117758Y180733D01*
X117803Y180753D01*
X117889Y180822D01*
X117980Y180884D01*
X118013Y180921D01*
X118052Y180952D01*
X118118Y181040D01*
X118191Y181122D01*
X118213Y181166D01*
X118243Y181206D01*
X118314Y181351D01*
X118872Y182697D01*
X120515Y184341D01*
X122663Y185230D01*
X128545Y185230D01*
X128682Y185248D01*
X128821Y185261D01*
X128840Y185268D01*
X128861Y185270D01*
X128989Y185321D01*
X129121Y185368D01*
X129137Y185380D01*
X129156Y185387D01*
X129269Y185469D01*
X129384Y185547D01*
X129397Y185562D01*
X129414Y185574D01*
X129502Y185681D01*
X129594Y185785D01*
X129603Y185803D01*
X129616Y185819D01*
X129676Y185945D01*
X129739Y186069D01*
X129743Y186088D01*
X129752Y186107D01*
X129778Y186243D01*
X129808Y186379D01*
X129808Y186399D01*
X129812Y186419D01*
X129803Y186557D01*
X129799Y186697D01*
X129793Y186716D01*
X129792Y186736D01*
X129749Y186868D01*
X129710Y187002D01*
X129700Y187020D01*
X129694Y187039D01*
X129619Y187157D01*
X129549Y187276D01*
X129530Y187297D01*
X129524Y187308D01*
X129509Y187322D01*
X129442Y187397D01*
X127902Y188938D01*
X127055Y190981D01*
X127055Y193194D01*
X127790Y194967D01*
X127803Y195015D01*
X127824Y195060D01*
X127845Y195168D01*
X127874Y195274D01*
X127875Y195324D01*
X127884Y195373D01*
X127877Y195482D01*
X127879Y195592D01*
X127867Y195641D01*
X127864Y195690D01*
X127831Y195794D01*
X127805Y195901D01*
X127782Y195945D01*
X127766Y195993D01*
X127708Y196085D01*
X127656Y196183D01*
X127623Y196219D01*
X127596Y196261D01*
X127516Y196337D01*
X127442Y196418D01*
X127401Y196445D01*
X127365Y196479D01*
X127268Y196532D01*
X127183Y196588D01*
X127083Y196665D01*
X126962Y196759D01*
X126958Y196761D01*
X126955Y196763D01*
X126814Y196823D01*
X126670Y196886D01*
X126666Y196886D01*
X126662Y196888D01*
X126505Y196922D01*
X124821Y197176D01*
X124817Y197176D01*
X124813Y197177D01*
X124658Y197180D01*
X124503Y197184D01*
X124499Y197183D01*
X124495Y197183D01*
X124345Y197148D01*
X124284Y197133D01*
X123589Y197348D01*
X123574Y197351D01*
X123561Y197356D01*
X123404Y197390D01*
X122688Y197498D01*
X122647Y197542D01*
X122644Y197544D01*
X122641Y197547D01*
X122508Y197628D01*
X122377Y197710D01*
X122373Y197712D01*
X122370Y197714D01*
X122219Y197771D01*
X120592Y198273D01*
X120588Y198274D01*
X120585Y198276D01*
X120434Y198301D01*
X120279Y198328D01*
X120275Y198328D01*
X120271Y198329D01*
X120119Y198316D01*
X120055Y198311D01*
X119399Y198627D01*
X119386Y198632D01*
X119373Y198639D01*
X119223Y198696D01*
X118531Y198910D01*
X118497Y198959D01*
X118494Y198962D01*
X118491Y198965D01*
X118375Y199063D01*
X118255Y199166D01*
X118252Y199168D01*
X118248Y199170D01*
X118108Y199249D01*
X116574Y199989D01*
X116570Y199990D01*
X116567Y199992D01*
X116419Y200040D01*
X116273Y200090D01*
X116269Y200090D01*
X116265Y200091D01*
X116110Y200101D01*
X116048Y200106D01*
X115447Y200516D01*
X115435Y200523D01*
X115423Y200532D01*
X115283Y200611D01*
X114631Y200925D01*
X114604Y200979D01*
X114602Y200982D01*
X114600Y200986D01*
X114546Y201047D01*
X114531Y201070D01*
X114500Y201100D01*
X114497Y201103D01*
X114396Y201219D01*
X114393Y201222D01*
X114390Y201225D01*
X114263Y201324D01*
X112857Y202283D01*
X112853Y202285D01*
X112850Y202288D01*
X112711Y202358D01*
X112574Y202428D01*
X112570Y202429D01*
X112566Y202431D01*
X112415Y202464D01*
X112354Y202478D01*
X111821Y202973D01*
X111809Y202981D01*
X111800Y202992D01*
X111673Y203091D01*
X111075Y203499D01*
X111057Y203556D01*
X111054Y203560D01*
X111053Y203564D01*
X110970Y203693D01*
X110887Y203825D01*
X110884Y203828D01*
X110881Y203831D01*
X110771Y203948D01*
X109523Y205107D01*
X109520Y205109D01*
X109517Y205112D01*
X109390Y205202D01*
X109265Y205292D01*
X109261Y205294D01*
X109257Y205296D01*
X109111Y205352D01*
X109055Y205374D01*
X108601Y205943D01*
X108591Y205953D01*
X108583Y205965D01*
X108472Y206082D01*
X107942Y206574D01*
X107932Y206634D01*
X107931Y206637D01*
X107930Y206641D01*
X107866Y206784D01*
X107804Y206925D01*
X107802Y206928D01*
X107800Y206932D01*
X107708Y207064D01*
X106647Y208395D01*
X106644Y208398D01*
X106642Y208402D01*
X106529Y208510D01*
X106419Y208617D01*
X106416Y208619D01*
X106413Y208622D01*
X106277Y208699D01*
X106224Y208729D01*
X105860Y209360D01*
X105852Y209371D01*
X105846Y209384D01*
X105753Y209516D01*
X105303Y210082D01*
X105302Y210142D01*
X105301Y210146D01*
X105301Y210150D01*
X105259Y210300D01*
X105219Y210449D01*
X105217Y210453D01*
X105216Y210457D01*
X105144Y210601D01*
X104293Y212076D01*
X104291Y212079D01*
X104289Y212083D01*
X104195Y212206D01*
X104101Y212329D01*
X104098Y212332D01*
X104095Y212335D01*
X103972Y212432D01*
X103925Y212469D01*
X103659Y213147D01*
X103652Y213159D01*
X103648Y213173D01*
X103577Y213318D01*
X103215Y213944D01*
X103223Y214004D01*
X103223Y214008D01*
X103224Y214012D01*
X103205Y214167D01*
X103187Y214320D01*
X103186Y214324D01*
X103185Y214328D01*
X103136Y214481D01*
X102514Y216066D01*
X102512Y216070D01*
X102511Y216074D01*
X102437Y216209D01*
X102362Y216345D01*
X102359Y216348D01*
X102357Y216352D01*
X102252Y216463D01*
X102209Y216510D01*
X102047Y217219D01*
X102042Y217233D01*
X102040Y217247D01*
X101991Y217401D01*
X101727Y218074D01*
X101744Y218132D01*
X101744Y218136D01*
X101745Y218140D01*
X101749Y218292D01*
X101755Y218450D01*
X101754Y218454D01*
X101754Y218458D01*
X101728Y218617D01*
X101350Y220277D01*
X101349Y220281D01*
X101348Y220285D01*
X101295Y220429D01*
X101241Y220576D01*
X101239Y220579D01*
X101237Y220583D01*
X101150Y220708D01*
X101114Y220761D01*
X101060Y221487D01*
X101057Y221501D01*
X101057Y221516D01*
X101032Y221675D01*
X100871Y222380D01*
X100896Y222435D01*
X100897Y222439D01*
X100899Y222442D01*
X100926Y222594D01*
X100954Y222747D01*
X100954Y222751D01*
X100955Y222755D01*
X100953Y222916D01*
X100826Y224614D01*
X100826Y224618D01*
X100826Y224623D01*
X100795Y224771D01*
X100763Y224926D01*
X100761Y224930D01*
X100761Y224934D01*
X100693Y225071D01*
X100665Y225129D01*
X100720Y225854D01*
X100719Y225868D01*
X100722Y225883D01*
X100720Y226044D01*
X100666Y226765D01*
X100699Y226815D01*
X100700Y226819D01*
X100703Y226823D01*
X100752Y226966D01*
X100803Y227116D01*
X100804Y227120D01*
X100805Y227124D01*
X100827Y227283D01*
X100955Y228981D01*
X100955Y228985D01*
X100956Y228989D01*
X100947Y229142D01*
X100939Y229299D01*
X100938Y229303D01*
X100938Y229307D01*
X100891Y229454D01*
X100872Y229514D01*
X101034Y230223D01*
X101036Y230238D01*
X101040Y230251D01*
X101063Y230411D01*
X101117Y231132D01*
X101157Y231177D01*
X101159Y231180D01*
X101162Y231183D01*
X101233Y231322D01*
X101305Y231458D01*
X101306Y231462D01*
X101308Y231466D01*
X101354Y231620D01*
X101733Y233280D01*
X101734Y233284D01*
X101735Y233288D01*
X101749Y233439D01*
X101765Y233597D01*
X101764Y233601D01*
X101764Y233605D01*
X101740Y233757D01*
X101731Y233819D01*
X101997Y234496D01*
X102000Y234510D01*
X102007Y234523D01*
X102053Y234678D01*
X102214Y235383D01*
X102260Y235421D01*
X102263Y235424D01*
X102266Y235427D01*
X102356Y235551D01*
X102448Y235677D01*
X102450Y235681D01*
X102452Y235685D01*
X102521Y235830D01*
X103143Y237415D01*
X103144Y237419D01*
X103146Y237423D01*
X103182Y237568D01*
X103222Y237723D01*
X103222Y237728D01*
X103223Y237732D01*
X103221Y237884D01*
X103221Y237948D01*
X103585Y238578D01*
X103591Y238592D01*
X103599Y238603D01*
X103667Y238749D01*
X103932Y239423D01*
X103984Y239454D01*
X103986Y239457D01*
X103990Y239459D01*
X104098Y239568D01*
X104208Y239679D01*
X104210Y239683D01*
X104213Y239686D01*
X104302Y239820D01*
X105154Y241294D01*
X105156Y241298D01*
X105158Y241301D01*
X105217Y241443D01*
X105277Y241587D01*
X105278Y241591D01*
X105279Y241595D01*
X105301Y241744D01*
X105310Y241810D01*
X105764Y242378D01*
X105772Y242391D01*
X105782Y242401D01*
X105871Y242535D01*
X106233Y243162D01*
X106289Y243184D01*
X106292Y243187D01*
X106296Y243188D01*
X106419Y243281D01*
X106544Y243374D01*
X106547Y243377D01*
X106550Y243379D01*
X106658Y243499D01*
X107720Y244829D01*
X107722Y244833D01*
X107725Y244836D01*
X107805Y244968D01*
X107886Y245101D01*
X107887Y245105D01*
X107889Y245108D01*
X107933Y245256D01*
X107952Y245316D01*
X108485Y245811D01*
X108494Y245822D01*
X108506Y245831D01*
X108614Y245950D01*
X109066Y246516D01*
X109124Y246530D01*
X109128Y246532D01*
X109132Y246533D01*
X109268Y246606D01*
X109405Y246679D01*
X109408Y246682D01*
X109411Y246684D01*
X109536Y246785D01*
X110785Y247943D01*
X110787Y247946D01*
X110791Y247949D01*
X110889Y248068D01*
X110989Y248187D01*
X110991Y248191D01*
X110993Y248194D01*
X111058Y248331D01*
X111086Y248390D01*
X111687Y248799D01*
X111698Y248809D01*
X111711Y248816D01*
X111836Y248918D01*
X112366Y249410D01*
X112426Y249415D01*
X112430Y249416D01*
X112434Y249417D01*
X112582Y249470D01*
X112726Y249521D01*
X112730Y249523D01*
X112733Y249525D01*
X112872Y249607D01*
X113779Y250224D01*
X113833Y250272D01*
X113893Y250312D01*
X113951Y250377D01*
X114017Y250435D01*
X114057Y250494D01*
X114106Y250548D01*
X114146Y250626D01*
X114195Y250698D01*
X114220Y250766D01*
X114253Y250830D01*
X114273Y250915D01*
X114303Y250997D01*
X114310Y251069D01*
X114326Y251139D01*
X114324Y251227D01*
X114333Y251314D01*
X114321Y251385D01*
X114320Y251457D01*
X114296Y251542D01*
X114283Y251628D01*
X114254Y251694D01*
X114235Y251764D01*
X114163Y251908D01*
X86658Y299550D01*
X86594Y299634D01*
X86537Y299724D01*
X86498Y299761D01*
X86465Y299803D01*
X86383Y299869D01*
X86306Y299942D01*
X86258Y299968D01*
X86216Y300001D01*
X86120Y300044D01*
X86027Y300095D01*
X85975Y300109D01*
X85926Y300130D01*
X85821Y300148D01*
X85719Y300175D01*
X85634Y300180D01*
X85612Y300184D01*
X85597Y300182D01*
X85558Y300185D01*
X-85304Y300185D01*
X-85409Y300172D01*
X-85515Y300167D01*
X-85567Y300152D01*
X-85620Y300145D01*
X-85718Y300106D01*
X-85819Y300076D01*
X-85866Y300048D01*
X-85916Y300028D01*
X-86001Y299966D01*
X-86092Y299911D01*
X-86129Y299873D01*
X-86173Y299841D01*
X-86240Y299760D01*
X-86314Y299684D01*
X-86362Y299613D01*
X-86376Y299596D01*
X-86382Y299582D01*
X-86404Y299550D01*
X-113909Y251908D01*
X-113937Y251841D01*
X-113974Y251780D01*
X-113998Y251696D01*
X-114032Y251615D01*
X-114043Y251543D01*
X-114063Y251474D01*
X-114066Y251387D01*
X-114079Y251300D01*
X-114071Y251228D01*
X-114074Y251156D01*
X-114055Y251071D01*
X-114046Y250984D01*
X-114021Y250916D01*
X-114005Y250846D01*
X-113965Y250768D01*
X-113935Y250686D01*
X-113894Y250627D01*
X-113861Y250562D01*
X-113804Y250496D01*
X-113754Y250424D01*
X-113699Y250377D01*
X-113652Y250323D01*
X-113525Y250224D01*
X-112618Y249607D01*
X-112614Y249605D01*
X-112611Y249602D01*
X-112471Y249532D01*
X-112335Y249462D01*
X-112331Y249461D01*
X-112327Y249459D01*
X-112173Y249425D01*
X-112115Y249413D01*
X-111582Y248918D01*
X-111570Y248909D01*
X-111560Y248898D01*
X-111433Y248799D01*
X-110835Y248392D01*
X-110817Y248335D01*
X-110815Y248332D01*
X-110813Y248328D01*
X-110730Y248198D01*
X-110647Y248066D01*
X-110644Y248063D01*
X-110642Y248060D01*
X-110531Y247943D01*
X-109282Y246785D01*
X-109279Y246783D01*
X-109276Y246780D01*
X-109150Y246691D01*
X-109024Y246600D01*
X-109020Y246599D01*
X-109017Y246596D01*
X-108872Y246541D01*
X-108814Y246519D01*
X-108360Y245950D01*
X-108350Y245940D01*
X-108342Y245928D01*
X-108231Y245811D01*
X-107700Y245319D01*
X-107691Y245260D01*
X-107689Y245256D01*
X-107688Y245252D01*
X-107626Y245112D01*
X-107563Y244968D01*
X-107560Y244965D01*
X-107558Y244961D01*
X-107466Y244829D01*
X-106404Y243499D01*
X-106401Y243496D01*
X-106399Y243492D01*
X-106287Y243384D01*
X-106176Y243277D01*
X-106173Y243275D01*
X-106170Y243272D01*
X-106034Y243196D01*
X-105981Y243165D01*
X-105617Y242535D01*
X-105608Y242523D01*
X-105602Y242510D01*
X-105510Y242378D01*
X-105059Y241813D01*
X-105058Y241753D01*
X-105057Y241749D01*
X-105057Y241744D01*
X-105015Y241596D01*
X-104975Y241446D01*
X-104973Y241442D01*
X-104971Y241438D01*
X-104900Y241294D01*
X-104048Y239820D01*
X-104046Y239816D01*
X-104044Y239813D01*
X-103949Y239689D01*
X-103856Y239566D01*
X-103853Y239564D01*
X-103850Y239560D01*
X-103727Y239464D01*
X-103679Y239427D01*
X-103413Y238749D01*
X-103406Y238737D01*
X-103403Y238723D01*
X-103331Y238578D01*
X-102969Y237952D01*
X-102977Y237892D01*
X-102977Y237888D01*
X-102977Y237884D01*
X-102958Y237728D01*
X-102940Y237576D01*
X-102939Y237573D01*
X-102939Y237568D01*
X-102889Y237415D01*
X-102267Y235830D01*
X-102265Y235827D01*
X-102264Y235823D01*
X-102189Y235688D01*
X-102114Y235551D01*
X-102111Y235548D01*
X-102109Y235545D01*
X-102001Y235430D01*
X-101961Y235387D01*
X-101799Y234678D01*
X-101794Y234664D01*
X-101792Y234650D01*
X-101743Y234496D01*
X-101478Y233823D01*
X-101495Y233765D01*
X-101495Y233761D01*
X-101496Y233757D01*
X-101500Y233603D01*
X-101506Y233447D01*
X-101505Y233443D01*
X-101505Y233439D01*
X-101479Y233280D01*
X-101100Y231620D01*
X-101098Y231616D01*
X-101098Y231612D01*
X-101044Y231469D01*
X-100991Y231322D01*
X-100988Y231318D01*
X-100987Y231314D01*
X-100898Y231187D01*
X-100863Y231136D01*
X-100809Y230411D01*
X-100806Y230396D01*
X-100806Y230382D01*
X-100780Y230223D01*
X-100619Y229518D01*
X-100644Y229463D01*
X-100645Y229459D01*
X-100647Y229455D01*
X-100674Y229305D01*
X-100703Y229150D01*
X-100702Y229146D01*
X-100703Y229142D01*
X-100701Y228981D01*
X-100573Y227283D01*
X-100573Y227279D01*
X-100573Y227275D01*
X-100540Y227120D01*
X-100510Y226972D01*
X-100508Y226968D01*
X-100507Y226964D01*
X-100439Y226825D01*
X-100412Y226769D01*
X-100466Y226044D01*
X-100465Y226029D01*
X-100468Y226015D01*
X-100466Y225854D01*
X-100411Y225132D01*
X-100445Y225082D01*
X-100446Y225078D01*
X-100448Y225075D01*
X-100499Y224926D01*
X-100549Y224782D01*
X-100549Y224778D01*
X-100550Y224774D01*
X-100572Y224614D01*
X-100699Y222916D01*
X-100699Y222912D01*
X-100700Y222908D01*
X-100691Y222753D01*
X-100683Y222599D01*
X-100682Y222595D01*
X-100681Y222591D01*
X-100635Y222444D01*
X-100616Y222384D01*
X-100778Y221675D01*
X-100779Y221660D01*
X-100784Y221646D01*
X-100806Y221487D01*
X-100860Y220765D01*
X-100900Y220721D01*
X-100902Y220717D01*
X-100905Y220714D01*
X-100976Y220576D01*
X-101048Y220439D01*
X-101049Y220435D01*
X-101050Y220431D01*
X-101096Y220277D01*
X-101474Y218617D01*
X-101475Y218613D01*
X-101476Y218609D01*
X-101491Y218454D01*
X-101506Y218300D01*
X-101505Y218296D01*
X-101505Y218292D01*
X-101481Y218139D01*
X-101472Y218078D01*
X-101737Y217401D01*
X-101741Y217387D01*
X-101747Y217374D01*
X-101793Y217219D01*
X-101954Y216514D01*
X-102000Y216476D01*
X-102003Y216472D01*
X-102006Y216470D01*
X-102095Y216346D01*
X-102188Y216219D01*
X-102190Y216215D01*
X-102192Y216212D01*
X-102260Y216066D01*
X-102882Y214481D01*
X-102883Y214477D01*
X-102885Y214474D01*
X-102922Y214321D01*
X-102960Y214173D01*
X-102960Y214169D01*
X-102961Y214165D01*
X-102959Y214009D01*
X-102959Y213948D01*
X-103323Y213318D01*
X-103329Y213304D01*
X-103337Y213292D01*
X-103405Y213147D01*
X-103669Y212473D01*
X-103721Y212442D01*
X-103724Y212439D01*
X-103727Y212437D01*
X-103835Y212327D01*
X-103945Y212216D01*
X-103947Y212213D01*
X-103950Y212210D01*
X-104039Y212076D01*
X-104691Y210946D01*
X-104742Y210824D01*
X-104798Y210705D01*
X-104804Y210678D01*
X-104814Y210653D01*
X-104833Y210522D01*
X-104858Y210392D01*
X-104857Y210365D01*
X-104860Y210338D01*
X-104847Y210207D01*
X-104838Y210075D01*
X-104830Y210049D01*
X-104827Y210022D01*
X-104781Y209898D01*
X-104740Y209773D01*
X-104726Y209750D01*
X-104716Y209724D01*
X-104641Y209616D01*
X-104570Y209504D01*
X-104550Y209485D01*
X-104535Y209463D01*
X-104435Y209377D01*
X-104339Y209286D01*
X-104315Y209273D01*
X-104294Y209255D01*
X-104176Y209196D01*
X-104060Y209132D01*
X-104034Y209126D01*
X-104009Y209114D01*
X-103880Y209086D01*
X-103752Y209053D01*
X-103714Y209051D01*
X-103698Y209047D01*
X-103676Y209048D01*
X-103617Y209044D01*
X-101465Y208153D01*
X-99822Y206510D01*
X-98932Y204362D01*
X-98932Y202936D01*
X-98931Y202927D01*
X-98932Y202918D01*
X-98911Y202769D01*
X-98892Y202621D01*
X-98889Y202612D01*
X-98888Y202603D01*
X-98836Y202450D01*
X-98553Y201767D01*
X-98553Y191470D01*
X-99442Y189323D01*
X-106723Y182041D01*
X-108871Y181152D01*
X-119168Y181152D01*
X-121315Y182041D01*
X-124129Y184855D01*
X-124207Y184916D01*
X-124279Y184984D01*
X-124332Y185013D01*
X-124380Y185050D01*
X-124471Y185089D01*
X-124558Y185137D01*
X-124617Y185152D01*
X-124672Y185176D01*
X-124770Y185192D01*
X-124866Y185217D01*
X-124966Y185223D01*
X-124986Y185226D01*
X-124999Y185225D01*
X-125027Y185227D01*
X-131337Y185227D01*
X-133485Y186116D01*
X-135128Y187760D01*
X-136018Y189907D01*
X-136018Y192232D01*
X-135128Y194379D01*
X-134603Y194905D01*
X-134536Y194991D01*
X-134462Y195072D01*
X-134439Y195116D01*
X-134408Y195156D01*
X-134364Y195256D01*
X-134313Y195352D01*
X-134301Y195402D01*
X-134281Y195448D01*
X-134264Y195556D01*
X-134239Y195662D01*
X-134239Y195712D01*
X-134231Y195762D01*
X-134242Y195871D01*
X-134243Y195980D01*
X-134256Y196028D01*
X-134261Y196079D01*
X-134298Y196181D01*
X-134327Y196286D01*
X-134352Y196331D01*
X-134369Y196378D01*
X-134430Y196468D01*
X-134484Y196563D01*
X-134519Y196599D01*
X-134547Y196641D01*
X-134629Y196713D01*
X-134705Y196792D01*
X-134748Y196818D01*
X-134786Y196852D01*
X-134883Y196901D01*
X-134976Y196958D01*
X-135050Y196986D01*
X-135069Y196996D01*
X-135086Y197000D01*
X-135126Y197015D01*
X-136193Y197344D01*
X-136207Y197346D01*
X-136220Y197352D01*
X-136378Y197386D01*
X-137093Y197494D01*
X-137135Y197537D01*
X-137138Y197539D01*
X-137141Y197542D01*
X-137274Y197624D01*
X-137405Y197705D01*
X-137409Y197707D01*
X-137412Y197709D01*
X-137563Y197766D01*
X-139190Y198267D01*
X-139194Y198268D01*
X-139198Y198270D01*
X-139349Y198295D01*
X-139503Y198322D01*
X-139507Y198322D01*
X-139511Y198322D01*
X-139666Y198309D01*
X-139727Y198305D01*
X-140383Y198620D01*
X-140397Y198625D01*
X-140409Y198632D01*
X-140560Y198689D01*
X-141251Y198902D01*
X-141286Y198952D01*
X-141289Y198954D01*
X-141291Y198958D01*
X-141409Y199057D01*
X-141527Y199158D01*
X-141531Y199160D01*
X-141534Y199163D01*
X-141675Y199242D01*
X-142680Y199725D01*
X-142748Y199748D01*
X-142812Y199780D01*
X-142898Y199798D01*
X-142982Y199826D01*
X-143053Y199831D01*
X-143123Y199846D01*
X-143211Y199843D01*
X-143299Y199849D01*
X-143369Y199836D01*
X-143441Y199833D01*
X-143525Y199808D01*
X-143612Y199792D01*
X-143677Y199762D01*
X-143746Y199742D01*
X-143821Y199696D01*
X-143901Y199659D01*
X-143956Y199614D01*
X-144018Y199577D01*
X-144079Y199514D01*
X-144148Y199459D01*
X-144190Y199401D01*
X-144241Y199350D01*
X-144330Y199216D01*
X-161203Y169990D01*
X-161229Y169927D01*
X-161264Y169869D01*
X-161291Y169782D01*
X-161326Y169697D01*
X-161336Y169630D01*
X-161356Y169565D01*
X-161359Y169473D01*
X-161373Y169383D01*
X-161365Y169315D01*
X-161368Y169247D01*
X-161349Y169157D01*
X-161339Y169066D01*
X-161316Y169002D01*
X-161301Y168936D01*
X-161260Y168854D01*
X-161229Y168768D01*
X-161190Y168712D01*
X-161159Y168651D01*
X-161099Y168582D01*
X-161047Y168507D01*
X-160996Y168462D01*
X-160951Y168411D01*
X-160825Y168311D01*
X-160697Y168223D01*
X-160560Y168152D01*
X-160421Y168079D01*
X-160418Y168078D01*
X-160415Y168077D01*
X-160264Y168042D01*
X-160180Y168022D01*
X-159678Y167540D01*
X-159660Y167527D01*
X-159646Y167510D01*
X-159519Y167410D01*
X-158945Y167014D01*
X-158921Y166937D01*
X-158919Y166935D01*
X-158918Y166931D01*
X-158835Y166798D01*
X-158754Y166667D01*
X-158751Y166664D01*
X-158750Y166662D01*
X-158746Y166658D01*
X-158645Y166548D01*
X-158085Y166010D01*
X-157960Y165917D01*
X-157836Y165824D01*
X-157833Y165822D01*
X-157830Y165820D01*
X-157684Y165761D01*
X-157607Y165729D01*
X-157189Y165172D01*
X-157173Y165156D01*
X-157162Y165137D01*
X-157053Y165019D01*
X-156550Y164535D01*
X-156539Y164456D01*
X-156537Y164453D01*
X-156537Y164450D01*
X-156476Y164305D01*
X-156417Y164162D01*
X-156415Y164158D01*
X-156414Y164156D01*
X-156410Y164152D01*
X-156329Y164027D01*
X-155862Y163407D01*
X-155754Y163295D01*
X-155646Y163182D01*
X-155643Y163181D01*
X-155641Y163178D01*
X-155508Y163097D01*
X-155435Y163052D01*
X-155112Y162435D01*
X-155099Y162417D01*
X-155091Y162397D01*
X-155002Y162262D01*
X-154583Y161704D01*
X-154585Y161624D01*
X-154584Y161621D01*
X-154584Y161618D01*
X-154548Y161466D01*
X-154512Y161315D01*
X-154510Y161311D01*
X-154510Y161309D01*
X-154507Y161304D01*
X-154446Y161168D01*
X-154086Y160480D01*
X-153995Y160350D01*
X-153908Y160224D01*
X-153906Y160222D01*
X-153904Y160219D01*
X-153785Y160117D01*
X-153721Y160062D01*
X-153501Y159401D01*
X-153491Y159381D01*
X-153486Y159360D01*
X-153420Y159213D01*
X-153096Y158595D01*
X-153111Y158516D01*
X-153110Y158513D01*
X-153111Y158510D01*
X-153099Y158355D01*
X-153089Y158199D01*
X-153087Y158195D01*
X-153087Y158192D01*
X-153085Y158187D01*
X-153047Y158043D01*
X-152801Y157307D01*
X-152732Y157162D01*
X-152667Y157025D01*
X-152665Y157023D01*
X-152664Y157020D01*
X-152561Y156897D01*
X-152509Y156835D01*
X-152397Y156147D01*
X-152391Y156126D01*
X-152389Y156105D01*
X-152348Y155949D01*
X-152127Y155287D01*
X-152154Y155211D01*
X-152154Y155208D01*
X-152155Y155205D01*
X-152169Y155046D01*
X-152183Y154895D01*
X-152183Y154891D01*
X-152183Y154888D01*
X-152182Y154883D01*
X-152167Y154735D01*
X-152043Y153968D01*
X-151998Y153817D01*
X-151956Y153669D01*
X-151954Y153666D01*
X-151953Y153663D01*
X-151873Y153528D01*
X-151830Y153456D01*
X-151830Y152759D01*
X-151827Y152737D01*
X-151829Y152716D01*
X-151813Y152555D01*
X-151701Y151866D01*
X-151740Y151796D01*
X-151741Y151793D01*
X-151742Y151790D01*
X-151782Y151634D01*
X-151820Y151488D01*
X-151820Y151484D01*
X-151820Y151482D01*
X-151820Y151476D01*
X-151830Y151328D01*
X-151830Y150551D01*
X-151809Y150391D01*
X-151792Y150242D01*
X-151790Y150239D01*
X-151790Y150236D01*
X-151733Y150091D01*
X-151702Y150011D01*
X-151813Y149324D01*
X-151814Y149302D01*
X-151820Y149281D01*
X-151830Y149120D01*
X-151830Y148422D01*
X-151879Y148359D01*
X-151881Y148356D01*
X-151883Y148353D01*
X-151945Y148210D01*
X-152007Y148068D01*
X-152008Y148063D01*
X-152009Y148062D01*
X-152010Y148056D01*
X-152043Y147911D01*
X-152167Y147144D01*
X-152170Y147085D01*
X-152179Y147034D01*
X-152174Y146955D01*
X-152179Y146833D01*
X-152179Y146830D01*
X-152179Y146827D01*
X-152162Y146748D01*
X-152160Y146717D01*
X-152144Y146670D01*
X-152128Y146591D01*
X-152348Y145930D01*
X-152352Y145909D01*
X-152361Y145889D01*
X-152397Y145732D01*
X-152509Y145043D01*
X-152568Y144988D01*
X-152570Y144986D01*
X-152572Y144984D01*
X-152656Y144853D01*
X-152741Y144722D01*
X-152742Y144718D01*
X-152744Y144716D01*
X-152746Y144710D01*
X-152801Y144572D01*
X-153047Y143836D01*
X-153078Y143680D01*
X-153109Y143530D01*
X-153109Y143527D01*
X-153109Y143524D01*
X-153101Y143368D01*
X-153096Y143261D01*
X-153127Y143199D01*
X-153142Y143130D01*
X-153167Y143064D01*
X-153176Y142976D01*
X-153195Y142889D01*
X-153193Y142818D01*
X-153201Y142748D01*
X-153188Y142660D01*
X-153185Y142571D01*
X-153165Y142503D01*
X-153155Y142433D01*
X-153120Y142351D01*
X-153096Y142266D01*
X-153038Y142153D01*
X-153032Y142140D01*
X-153028Y142134D01*
X-153022Y142122D01*
X-140687Y121409D01*
X-140645Y121356D01*
X-140612Y121297D01*
X-140548Y121231D01*
X-140491Y121158D01*
X-140438Y121117D01*
X-140391Y121068D01*
X-140312Y121020D01*
X-140239Y120964D01*
X-140177Y120937D01*
X-140119Y120902D01*
X-139969Y120845D01*
X-103516Y109651D01*
X-103409Y109632D01*
X-103304Y109605D01*
X-103224Y109600D01*
X-103203Y109596D01*
X-103186Y109598D01*
X-103143Y109595D01*
X-103049Y109595D01*
X-102286Y109279D01*
X-102267Y109274D01*
X-102173Y109239D01*
X-101385Y108996D01*
X-101312Y108936D01*
X-101220Y108878D01*
X-101133Y108813D01*
X-101062Y108778D01*
X-101043Y108766D01*
X-101027Y108761D01*
X-100989Y108742D01*
X-100901Y108706D01*
X-100318Y108122D01*
X-100301Y108109D01*
X-100229Y108041D01*
X-99593Y107516D01*
X-99549Y107432D01*
X-99486Y107343D01*
X-99431Y107250D01*
X-99378Y107190D01*
X-99366Y107172D01*
X-99353Y107161D01*
X-99325Y107129D01*
X-91320Y99124D01*
X-90431Y96977D01*
X-90431Y91313D01*
X-90416Y91195D01*
X-90408Y91076D01*
X-90396Y91038D01*
X-90391Y90997D01*
X-90347Y90887D01*
X-90310Y90774D01*
X-90289Y90739D01*
X-90274Y90702D01*
X-90204Y90606D01*
X-90140Y90505D01*
X-90111Y90477D01*
X-90087Y90444D01*
X-89995Y90368D01*
X-89908Y90287D01*
X-89873Y90267D01*
X-89842Y90242D01*
X-89734Y90191D01*
X-89630Y90133D01*
X-89591Y90123D01*
X-89554Y90106D01*
X-89437Y90084D01*
X-89322Y90054D01*
X-89262Y90050D01*
X-89242Y90046D01*
X-89221Y90048D01*
X-89161Y90044D01*
X-85762Y90044D01*
X-85624Y90061D01*
X-85486Y90074D01*
X-85467Y90081D01*
X-85447Y90084D01*
X-85318Y90135D01*
X-85187Y90182D01*
X-85170Y90193D01*
X-85151Y90201D01*
X-85039Y90282D01*
X-84923Y90360D01*
X-84910Y90376D01*
X-84894Y90387D01*
X-84805Y90495D01*
X-84713Y90599D01*
X-84704Y90617D01*
X-84691Y90632D01*
X-84632Y90758D01*
X-84568Y90882D01*
X-84564Y90902D01*
X-84555Y90920D01*
X-84529Y91057D01*
X-84499Y91192D01*
X-84499Y91213D01*
X-84496Y91232D01*
X-84504Y91371D01*
X-84508Y91510D01*
X-84514Y91530D01*
X-84515Y91550D01*
X-84558Y91682D01*
X-84597Y91816D01*
X-84607Y91833D01*
X-84613Y91852D01*
X-84688Y91970D01*
X-84758Y92090D01*
X-84777Y92111D01*
X-84784Y92121D01*
X-84798Y92135D01*
X-84865Y92210D01*
X-85755Y93101D01*
X-87186Y96555D01*
X-87186Y100295D01*
X-85755Y103749D01*
X-83111Y106393D01*
X-81874Y106906D01*
X-81848Y106920D01*
X-81820Y106929D01*
X-81710Y106999D01*
X-81598Y107063D01*
X-81576Y107084D01*
X-81551Y107099D01*
X-81462Y107194D01*
X-81369Y107284D01*
X-81354Y107310D01*
X-81333Y107331D01*
X-81271Y107445D01*
X-81203Y107555D01*
X-81194Y107584D01*
X-81180Y107610D01*
X-81147Y107735D01*
X-81109Y107859D01*
X-81108Y107889D01*
X-81100Y107917D01*
X-81090Y108078D01*
X-81090Y114172D01*
X-81094Y114201D01*
X-81092Y114231D01*
X-81114Y114359D01*
X-81130Y114487D01*
X-81141Y114515D01*
X-81146Y114544D01*
X-81199Y114662D01*
X-81247Y114783D01*
X-81264Y114807D01*
X-81277Y114834D01*
X-81358Y114935D01*
X-81434Y115040D01*
X-81457Y115059D01*
X-81475Y115082D01*
X-81579Y115160D01*
X-81679Y115243D01*
X-81706Y115256D01*
X-81729Y115274D01*
X-81874Y115344D01*
X-83111Y115857D01*
X-85755Y118501D01*
X-87186Y121955D01*
X-87186Y125695D01*
X-85755Y129149D01*
X-83111Y131793D01*
X-79657Y133224D01*
X-75918Y133224D01*
X-72464Y131793D01*
X-69820Y129149D01*
X-68389Y125695D01*
X-68389Y121955D01*
X-69820Y118501D01*
X-72464Y115857D01*
X-73701Y115344D01*
X-73727Y115330D01*
X-73755Y115321D01*
X-73865Y115251D01*
X-73977Y115187D01*
X-73999Y115166D01*
X-74024Y115151D01*
X-74113Y115056D01*
X-74206Y114966D01*
X-74221Y114940D01*
X-74242Y114919D01*
X-74304Y114805D01*
X-74372Y114695D01*
X-74381Y114666D01*
X-74395Y114640D01*
X-74428Y114515D01*
X-74466Y114391D01*
X-74467Y114361D01*
X-74475Y114333D01*
X-74485Y114172D01*
X-74485Y108078D01*
X-74481Y108049D01*
X-74483Y108019D01*
X-74461Y107891D01*
X-74445Y107763D01*
X-74434Y107735D01*
X-74429Y107706D01*
X-74376Y107588D01*
X-74328Y107467D01*
X-74311Y107443D01*
X-74298Y107416D01*
X-74217Y107315D01*
X-74141Y107210D01*
X-74118Y107191D01*
X-74100Y107168D01*
X-73996Y107090D01*
X-73896Y107007D01*
X-73869Y106994D01*
X-73846Y106976D01*
X-73701Y106906D01*
X-72464Y106393D01*
X-69820Y103749D01*
X-68389Y100295D01*
X-68389Y96555D01*
X-69510Y93850D01*
X-69546Y93716D01*
X-69587Y93583D01*
X-69588Y93562D01*
X-69594Y93543D01*
X-69596Y93403D01*
X-69602Y93265D01*
X-69598Y93245D01*
X-69599Y93225D01*
X-69566Y93089D01*
X-69538Y92953D01*
X-69529Y92935D01*
X-69524Y92916D01*
X-69459Y92793D01*
X-69398Y92668D01*
X-69385Y92652D01*
X-69376Y92634D01*
X-69282Y92532D01*
X-69192Y92426D01*
X-69175Y92414D01*
X-69162Y92399D01*
X-69046Y92323D01*
X-68932Y92243D01*
X-68913Y92235D01*
X-68896Y92224D01*
X-68765Y92179D01*
X-68635Y92130D01*
X-68614Y92128D01*
X-68595Y92121D01*
X-68457Y92110D01*
X-68318Y92095D01*
X-68298Y92097D01*
X-68278Y92096D01*
X-68141Y92120D01*
X-68004Y92139D01*
X-67977Y92148D01*
X-67965Y92150D01*
X-67946Y92159D01*
X-67851Y92191D01*
X-67781Y92220D01*
X-65569Y92220D01*
X-63525Y91374D01*
X-61961Y89809D01*
X-61114Y87766D01*
X-61114Y85553D01*
X-61961Y83510D01*
X-63525Y81945D01*
X-65569Y81099D01*
X-67781Y81099D01*
X-68290Y81310D01*
X-68299Y81312D01*
X-68307Y81317D01*
X-68452Y81354D01*
X-68597Y81394D01*
X-68606Y81394D01*
X-68615Y81396D01*
X-68776Y81406D01*
X-69813Y81406D01*
X-69951Y81389D01*
X-70089Y81376D01*
X-70108Y81369D01*
X-70128Y81366D01*
X-70257Y81315D01*
X-70388Y81268D01*
X-70405Y81257D01*
X-70424Y81249D01*
X-70536Y81168D01*
X-70652Y81090D01*
X-70665Y81074D01*
X-70681Y81063D01*
X-70770Y80955D01*
X-70862Y80851D01*
X-70871Y80833D01*
X-70884Y80818D01*
X-70943Y80692D01*
X-71007Y80568D01*
X-71011Y80548D01*
X-71020Y80530D01*
X-71046Y80393D01*
X-71076Y80258D01*
X-71076Y80237D01*
X-71079Y80218D01*
X-71071Y80079D01*
X-71067Y79940D01*
X-71061Y79920D01*
X-71060Y79900D01*
X-71017Y79768D01*
X-70978Y79634D01*
X-70968Y79617D01*
X-70962Y79598D01*
X-70887Y79480D01*
X-70817Y79360D01*
X-70798Y79339D01*
X-70791Y79329D01*
X-70777Y79315D01*
X-70710Y79240D01*
X-69820Y78349D01*
X-68389Y74895D01*
X-68389Y71155D01*
X-69820Y67701D01*
X-72464Y65057D01*
X-75918Y63626D01*
X-79657Y63626D01*
X-83111Y65057D01*
X-85755Y67701D01*
X-87186Y71155D01*
X-87186Y74895D01*
X-85755Y78349D01*
X-84865Y79240D01*
X-84780Y79349D01*
X-84691Y79456D01*
X-84682Y79475D01*
X-84670Y79491D01*
X-84615Y79618D01*
X-84555Y79744D01*
X-84552Y79764D01*
X-84543Y79783D01*
X-84522Y79920D01*
X-84496Y80057D01*
X-84497Y80077D01*
X-84494Y80097D01*
X-84507Y80236D01*
X-84515Y80374D01*
X-84522Y80393D01*
X-84523Y80413D01*
X-84571Y80545D01*
X-84613Y80676D01*
X-84624Y80694D01*
X-84631Y80713D01*
X-84709Y80828D01*
X-84784Y80945D01*
X-84798Y80959D01*
X-84810Y80976D01*
X-84914Y81068D01*
X-85015Y81163D01*
X-85033Y81173D01*
X-85048Y81186D01*
X-85172Y81249D01*
X-85294Y81317D01*
X-85313Y81322D01*
X-85331Y81331D01*
X-85467Y81361D01*
X-85602Y81396D01*
X-85630Y81398D01*
X-85642Y81401D01*
X-85662Y81400D01*
X-85762Y81406D01*
X-89161Y81406D01*
X-89279Y81391D01*
X-89398Y81384D01*
X-89437Y81371D01*
X-89477Y81366D01*
X-89588Y81323D01*
X-89701Y81286D01*
X-89735Y81264D01*
X-89772Y81249D01*
X-89869Y81180D01*
X-89969Y81116D01*
X-89997Y81086D01*
X-90030Y81063D01*
X-90106Y80971D01*
X-90187Y80884D01*
X-90207Y80849D01*
X-90233Y80818D01*
X-90283Y80710D01*
X-90341Y80606D01*
X-90351Y80566D01*
X-90368Y80530D01*
X-90391Y80413D01*
X-90420Y80298D01*
X-90424Y80238D01*
X-90428Y80218D01*
X-90427Y80197D01*
X-90431Y80137D01*
X-90431Y56404D01*
X-90413Y56266D01*
X-90400Y56127D01*
X-90393Y56108D01*
X-90391Y56088D01*
X-90340Y55959D01*
X-90292Y55828D01*
X-90281Y55811D01*
X-90274Y55792D01*
X-90192Y55680D01*
X-90114Y55565D01*
X-90099Y55551D01*
X-90087Y55535D01*
X-89980Y55446D01*
X-89875Y55354D01*
X-89857Y55345D01*
X-89842Y55332D01*
X-89716Y55273D01*
X-89592Y55210D01*
X-89572Y55205D01*
X-89554Y55197D01*
X-89418Y55171D01*
X-89282Y55140D01*
X-89262Y55141D01*
X-89242Y55137D01*
X-89103Y55146D01*
X-88964Y55150D01*
X-88945Y55155D01*
X-88924Y55157D01*
X-88792Y55200D01*
X-88658Y55238D01*
X-88641Y55248D01*
X-88622Y55255D01*
X-88504Y55329D01*
X-88385Y55400D01*
X-88364Y55418D01*
X-88353Y55425D01*
X-88339Y55440D01*
X-88264Y55506D01*
X-87946Y55824D01*
X-87447Y56323D01*
X-85300Y57212D01*
X-82975Y57212D01*
X-80828Y56323D01*
X-79184Y54679D01*
X-78295Y52532D01*
X-78295Y50207D01*
X-78875Y48806D01*
X-78878Y48797D01*
X-78882Y48789D01*
X-78920Y48644D01*
X-78959Y48499D01*
X-78959Y48490D01*
X-78962Y48481D01*
X-78972Y48320D01*
X-78972Y28145D01*
X-79861Y25997D01*
X-81505Y24354D01*
X-82106Y24105D01*
X-82194Y24055D01*
X-82285Y24014D01*
X-82331Y23977D01*
X-82383Y23947D01*
X-82455Y23877D01*
X-82533Y23815D01*
X-82568Y23767D01*
X-82611Y23726D01*
X-82663Y23640D01*
X-82724Y23560D01*
X-82746Y23505D01*
X-82777Y23455D01*
X-82807Y23359D01*
X-82845Y23266D01*
X-82853Y23207D01*
X-82871Y23151D01*
X-82876Y23051D01*
X-82890Y22951D01*
X-82883Y22893D01*
X-82886Y22833D01*
X-82866Y22735D01*
X-82855Y22635D01*
X-82834Y22580D01*
X-82822Y22522D01*
X-82778Y22432D01*
X-82742Y22338D01*
X-82708Y22289D01*
X-82682Y22236D01*
X-82617Y22160D01*
X-82559Y22078D01*
X-82514Y22039D01*
X-82476Y21994D01*
X-82394Y21936D01*
X-82317Y21871D01*
X-82264Y21845D01*
X-82216Y21811D01*
X-82122Y21775D01*
X-82032Y21731D01*
X-81938Y21706D01*
X-81918Y21698D01*
X-81905Y21697D01*
X-81876Y21689D01*
X-81838Y21681D01*
X-81679Y21669D01*
X-81527Y21656D01*
X-81524Y21657D01*
X-81521Y21656D01*
X-81364Y21684D01*
X-81283Y21698D01*
X-80632Y21450D01*
X-80610Y21445D01*
X-80591Y21435D01*
X-80435Y21393D01*
X-79752Y21252D01*
X-79700Y21191D01*
X-79697Y21189D01*
X-79695Y21187D01*
X-79569Y21098D01*
X-79440Y21008D01*
X-79436Y21006D01*
X-79435Y21005D01*
X-79430Y21003D01*
X-79294Y20941D01*
X-78574Y20667D01*
X-78423Y20630D01*
X-78271Y20593D01*
X-78268Y20593D01*
X-78265Y20592D01*
X-78108Y20594D01*
X-78024Y20595D01*
X-77421Y20246D01*
X-77401Y20237D01*
X-77383Y20224D01*
X-77237Y20158D01*
X-76584Y19909D01*
X-76543Y19841D01*
X-76541Y19839D01*
X-76539Y19836D01*
X-76425Y19725D01*
X-76316Y19618D01*
X-76313Y19615D01*
X-76311Y19614D01*
X-76306Y19611D01*
X-76182Y19528D01*
X-75521Y19146D01*
X-75516Y19143D01*
X-75374Y19083D01*
X-75229Y19021D01*
X-75226Y19020D01*
X-75223Y19019D01*
X-75069Y18996D01*
X-74984Y18983D01*
X-74445Y18542D01*
X-74427Y18530D01*
X-74411Y18515D01*
X-74277Y18425D01*
X-73673Y18076D01*
X-73643Y18001D01*
X-73641Y17999D01*
X-73640Y17996D01*
X-73548Y17871D01*
X-73455Y17745D01*
X-73452Y17742D01*
X-73451Y17740D01*
X-73446Y17736D01*
X-73337Y17635D01*
X-72742Y17147D01*
X-72610Y17065D01*
X-72478Y16981D01*
X-72475Y16980D01*
X-72472Y16978D01*
X-72326Y16932D01*
X-72242Y16905D01*
X-71781Y16382D01*
X-71765Y16368D01*
X-71752Y16350D01*
X-71634Y16241D01*
X-71094Y15799D01*
X-71076Y15720D01*
X-71075Y15718D01*
X-71074Y15714D01*
X-71001Y15573D01*
X-70932Y15437D01*
X-70929Y15434D01*
X-70928Y15432D01*
X-70924Y15427D01*
X-70833Y15310D01*
X-70323Y14733D01*
X-70203Y14627D01*
X-70090Y14527D01*
X-70087Y14525D01*
X-70085Y14523D01*
X-69943Y14451D01*
X-69870Y14413D01*
X-69782Y14274D01*
X-69731Y14212D01*
X-69687Y14143D01*
X-69630Y14090D01*
X-69580Y14029D01*
X-69515Y13981D01*
X-69456Y13925D01*
X-69387Y13887D01*
X-69323Y13841D01*
X-69248Y13811D01*
X-69177Y13772D01*
X-69101Y13752D01*
X-69028Y13723D01*
X-68948Y13713D01*
X-68869Y13692D01*
X-68717Y13683D01*
X-68713Y13682D01*
X-68711Y13682D01*
X-68708Y13682D01*
X-45080Y13682D01*
X-44981Y13695D01*
G37*
G36*
X132068Y198507D02*
X132068Y198507D01*
X132111Y198506D01*
X136104Y199106D01*
X136134Y199117D01*
X136177Y199123D01*
X140036Y200312D01*
X140064Y200327D01*
X140105Y200339D01*
X143743Y202090D01*
X143765Y202106D01*
X143791Y202116D01*
X143844Y202166D01*
X143902Y202210D01*
X143915Y202233D01*
X143935Y202252D01*
X143965Y202319D01*
X144001Y202382D01*
X144004Y202409D01*
X144015Y202434D01*
X144016Y202507D01*
X144025Y202580D01*
X144017Y202606D01*
X144017Y202633D01*
X143981Y202732D01*
X143969Y202771D01*
X143963Y202778D01*
X143959Y202789D01*
X116959Y249589D01*
X116941Y249609D01*
X116930Y249634D01*
X116876Y249683D01*
X116828Y249738D01*
X116803Y249750D01*
X116783Y249768D01*
X116714Y249792D01*
X116648Y249824D01*
X116621Y249825D01*
X116596Y249834D01*
X116523Y249829D01*
X116450Y249833D01*
X116424Y249823D01*
X116397Y249822D01*
X116301Y249778D01*
X116263Y249763D01*
X116256Y249757D01*
X116246Y249752D01*
X112909Y247479D01*
X112887Y247456D01*
X112851Y247432D01*
X109890Y244687D01*
X109871Y244661D01*
X109839Y244632D01*
X107321Y241476D01*
X107306Y241448D01*
X107279Y241415D01*
X105259Y237918D01*
X105249Y237888D01*
X105226Y237851D01*
X103750Y234093D01*
X103745Y234062D01*
X103728Y234022D01*
X102828Y230086D01*
X102828Y230054D01*
X102817Y230012D01*
X102514Y225986D01*
X102517Y225962D01*
X102514Y225942D01*
X102516Y225933D01*
X102514Y225911D01*
X102815Y221885D01*
X102823Y221854D01*
X102826Y221811D01*
X103723Y217874D01*
X103736Y217845D01*
X103745Y217803D01*
X105219Y214044D01*
X105236Y214017D01*
X105251Y213976D01*
X107269Y210479D01*
X107290Y210455D01*
X107311Y210417D01*
X109827Y207260D01*
X109852Y207239D01*
X109878Y207205D01*
X112837Y204458D01*
X112864Y204441D01*
X112895Y204411D01*
X116231Y202136D01*
X116260Y202123D01*
X116295Y202098D01*
X119933Y200345D01*
X119963Y200338D01*
X120002Y200318D01*
X123860Y199127D01*
X123892Y199124D01*
X123933Y199110D01*
X127925Y198507D01*
X127957Y198509D01*
X127999Y198501D01*
X132037Y198500D01*
X132068Y198507D01*
G37*
G36*
X-127745Y198501D02*
X-127745Y198501D01*
X-127714Y198508D01*
X-127671Y198507D01*
X-123679Y199110D01*
X-123649Y199121D01*
X-123606Y199127D01*
X-119748Y200318D01*
X-119720Y200333D01*
X-119679Y200345D01*
X-116041Y202098D01*
X-116016Y202118D01*
X-115977Y202136D01*
X-112641Y204411D01*
X-112619Y204434D01*
X-112583Y204458D01*
X-109624Y207205D01*
X-109605Y207231D01*
X-109573Y207260D01*
X-107057Y210417D01*
X-107042Y210446D01*
X-107015Y210479D01*
X-104997Y213976D01*
X-104987Y214007D01*
X-104965Y214044D01*
X-103491Y217803D01*
X-103485Y217834D01*
X-103469Y217874D01*
X-102572Y221811D01*
X-102571Y221843D01*
X-102561Y221885D01*
X-102260Y225911D01*
X-102264Y225943D01*
X-102263Y225959D01*
X-102260Y225975D01*
X-102261Y225979D01*
X-102260Y225986D01*
X-102563Y230012D01*
X-102572Y230043D01*
X-102574Y230086D01*
X-103474Y234022D01*
X-103487Y234051D01*
X-103496Y234093D01*
X-104972Y237851D01*
X-104990Y237878D01*
X-105005Y237918D01*
X-107025Y241415D01*
X-107046Y241438D01*
X-107067Y241476D01*
X-109585Y244632D01*
X-109610Y244653D01*
X-109636Y244687D01*
X-112597Y247432D01*
X-112624Y247449D01*
X-112655Y247479D01*
X-115992Y249752D01*
X-116017Y249763D01*
X-116038Y249780D01*
X-116108Y249801D01*
X-116175Y249829D01*
X-116203Y249829D01*
X-116229Y249837D01*
X-116301Y249829D01*
X-116374Y249828D01*
X-116399Y249818D01*
X-116426Y249815D01*
X-116490Y249779D01*
X-116557Y249750D01*
X-116576Y249731D01*
X-116599Y249717D01*
X-116667Y249636D01*
X-116695Y249607D01*
X-116698Y249598D01*
X-116705Y249589D01*
X-143705Y202789D01*
X-143714Y202763D01*
X-143730Y202741D01*
X-143745Y202670D01*
X-143769Y202600D01*
X-143766Y202573D01*
X-143772Y202547D01*
X-143759Y202475D01*
X-143753Y202402D01*
X-143740Y202378D01*
X-143735Y202351D01*
X-143695Y202291D01*
X-143661Y202226D01*
X-143640Y202208D01*
X-143625Y202186D01*
X-143539Y202125D01*
X-143508Y202099D01*
X-143499Y202096D01*
X-143489Y202090D01*
X-139851Y200339D01*
X-139820Y200331D01*
X-139782Y200312D01*
X-135923Y199123D01*
X-135891Y199120D01*
X-135850Y199106D01*
X-131857Y198506D01*
X-131826Y198507D01*
X-131783Y198500D01*
X-127745Y198501D01*
G37*
G36*
X116555Y52050D02*
X116555Y52050D01*
X116628Y52051D01*
X116653Y52061D01*
X116680Y52064D01*
X116744Y52100D01*
X116811Y52129D01*
X116830Y52148D01*
X116853Y52162D01*
X116921Y52243D01*
X116949Y52272D01*
X116952Y52281D01*
X116959Y52290D01*
X143959Y99090D01*
X143968Y99116D01*
X143984Y99138D01*
X143999Y99209D01*
X144023Y99279D01*
X144020Y99306D01*
X144026Y99332D01*
X144013Y99404D01*
X144007Y99477D01*
X143994Y99501D01*
X143989Y99528D01*
X143949Y99589D01*
X143915Y99653D01*
X143894Y99671D01*
X143879Y99693D01*
X143793Y99754D01*
X143762Y99780D01*
X143753Y99783D01*
X143743Y99789D01*
X140105Y101540D01*
X140074Y101548D01*
X140036Y101567D01*
X136177Y102756D01*
X136145Y102759D01*
X136104Y102773D01*
X132111Y103373D01*
X132080Y103372D01*
X132037Y103379D01*
X127999Y103378D01*
X127968Y103371D01*
X127925Y103372D01*
X123933Y102769D01*
X123903Y102758D01*
X123860Y102752D01*
X120002Y101561D01*
X119974Y101546D01*
X119933Y101534D01*
X116295Y99781D01*
X116270Y99761D01*
X116231Y99743D01*
X112895Y97468D01*
X112873Y97445D01*
X112837Y97421D01*
X109878Y94674D01*
X109859Y94648D01*
X109827Y94619D01*
X107311Y91462D01*
X107296Y91433D01*
X107269Y91400D01*
X105251Y87903D01*
X105241Y87872D01*
X105219Y87835D01*
X103745Y84076D01*
X103739Y84045D01*
X103723Y84005D01*
X102826Y80068D01*
X102825Y80036D01*
X102815Y79994D01*
X102514Y75968D01*
X102518Y75936D01*
X102514Y75893D01*
X102817Y71867D01*
X102826Y71836D01*
X102828Y71793D01*
X103728Y67857D01*
X103741Y67828D01*
X103750Y67786D01*
X105226Y64028D01*
X105244Y64001D01*
X105259Y63961D01*
X107279Y60465D01*
X107300Y60441D01*
X107321Y60403D01*
X109839Y57247D01*
X109864Y57227D01*
X109890Y57192D01*
X112851Y54447D01*
X112878Y54430D01*
X112909Y54400D01*
X116246Y52127D01*
X116271Y52116D01*
X116292Y52099D01*
X116362Y52078D01*
X116429Y52050D01*
X116457Y52050D01*
X116483Y52042D01*
X116555Y52050D01*
G37*
G36*
X-116269Y52050D02*
X-116269Y52050D01*
X-116196Y52046D01*
X-116170Y52056D01*
X-116143Y52057D01*
X-116047Y52101D01*
X-116009Y52116D01*
X-116002Y52122D01*
X-115992Y52127D01*
X-112655Y54400D01*
X-112633Y54423D01*
X-112597Y54447D01*
X-109636Y57192D01*
X-109617Y57218D01*
X-109585Y57247D01*
X-107067Y60403D01*
X-107052Y60431D01*
X-107025Y60465D01*
X-105005Y63961D01*
X-104995Y63991D01*
X-104972Y64028D01*
X-103496Y67786D01*
X-103491Y67817D01*
X-103474Y67857D01*
X-102574Y71793D01*
X-102574Y71825D01*
X-102563Y71867D01*
X-102260Y75893D01*
X-102264Y75925D01*
X-102260Y75968D01*
X-102561Y79994D01*
X-102569Y80025D01*
X-102572Y80068D01*
X-103469Y84005D01*
X-103482Y84034D01*
X-103491Y84076D01*
X-104965Y87835D01*
X-104982Y87862D01*
X-104997Y87903D01*
X-107015Y91400D01*
X-107036Y91424D01*
X-107057Y91462D01*
X-109573Y94619D01*
X-109598Y94640D01*
X-109624Y94674D01*
X-112583Y97421D01*
X-112610Y97438D01*
X-112641Y97468D01*
X-115977Y99743D01*
X-116006Y99756D01*
X-116041Y99781D01*
X-119679Y101534D01*
X-119709Y101541D01*
X-119748Y101561D01*
X-123606Y102752D01*
X-123638Y102755D01*
X-123679Y102769D01*
X-127671Y103372D01*
X-127703Y103370D01*
X-127745Y103378D01*
X-131783Y103379D01*
X-131814Y103373D01*
X-131857Y103373D01*
X-135850Y102773D01*
X-135880Y102762D01*
X-135923Y102756D01*
X-139782Y101567D01*
X-139810Y101552D01*
X-139851Y101540D01*
X-143489Y99789D01*
X-143511Y99773D01*
X-143537Y99763D01*
X-143590Y99713D01*
X-143648Y99669D01*
X-143661Y99646D01*
X-143681Y99627D01*
X-143711Y99560D01*
X-143747Y99497D01*
X-143750Y99470D01*
X-143761Y99445D01*
X-143762Y99372D01*
X-143771Y99299D01*
X-143763Y99273D01*
X-143763Y99246D01*
X-143727Y99147D01*
X-143715Y99108D01*
X-143709Y99101D01*
X-143705Y99090D01*
X-116705Y52290D01*
X-116687Y52270D01*
X-116676Y52245D01*
X-116622Y52196D01*
X-116574Y52141D01*
X-116549Y52129D01*
X-116529Y52111D01*
X-116460Y52087D01*
X-116394Y52055D01*
X-116367Y52054D01*
X-116342Y52045D01*
X-116269Y52050D01*
G37*
G36*
X27154Y446D02*
X27154Y446D01*
X27181Y443D01*
X27250Y465D01*
X27322Y480D01*
X27344Y495D01*
X27370Y504D01*
X27426Y551D01*
X27486Y592D01*
X27500Y615D01*
X27521Y633D01*
X27554Y698D01*
X27593Y760D01*
X27597Y787D01*
X27609Y811D01*
X27619Y916D01*
X27626Y956D01*
X27624Y965D01*
X27625Y977D01*
X27323Y5001D01*
X27315Y5032D01*
X27312Y5075D01*
X26414Y9009D01*
X26401Y9038D01*
X26392Y9080D01*
X24918Y12837D01*
X24901Y12864D01*
X24886Y12904D01*
X22868Y16399D01*
X22847Y16423D01*
X22826Y16460D01*
X20310Y19615D01*
X20285Y19636D01*
X20259Y19670D01*
X17301Y22415D01*
X17274Y22431D01*
X17242Y22461D01*
X13908Y24735D01*
X13879Y24747D01*
X13844Y24772D01*
X10208Y26523D01*
X10177Y26531D01*
X10138Y26550D01*
X6282Y27740D01*
X6251Y27743D01*
X6209Y27756D01*
X2219Y28358D01*
X2187Y28356D01*
X2145Y28363D01*
X-1891Y28363D01*
X-1922Y28357D01*
X-1965Y28358D01*
X-5955Y27756D01*
X-5985Y27745D01*
X-6028Y27740D01*
X-9884Y26550D01*
X-9912Y26535D01*
X-9954Y26523D01*
X-13590Y24772D01*
X-13615Y24753D01*
X-13654Y24735D01*
X-16988Y22461D01*
X-17011Y22439D01*
X-17047Y22415D01*
X-20005Y19670D01*
X-20024Y19644D01*
X-20056Y19615D01*
X-22572Y16460D01*
X-22586Y16432D01*
X-22614Y16399D01*
X-24632Y12904D01*
X-24642Y12874D01*
X-24664Y12837D01*
X-26138Y9080D01*
X-26144Y9049D01*
X-26160Y9009D01*
X-27058Y5075D01*
X-27059Y5043D01*
X-27069Y5001D01*
X-27371Y977D01*
X-27367Y950D01*
X-27372Y923D01*
X-27355Y852D01*
X-27346Y780D01*
X-27332Y756D01*
X-27326Y730D01*
X-27283Y671D01*
X-27246Y608D01*
X-27224Y591D01*
X-27208Y569D01*
X-27145Y532D01*
X-27087Y488D01*
X-27060Y482D01*
X-27037Y468D01*
X-26933Y450D01*
X-26894Y441D01*
X-26884Y442D01*
X-26873Y440D01*
X27127Y440D01*
X27154Y446D01*
G37*
%LPC*%
G36*
X-70895Y159546D02*
X-70895Y159546D01*
X-74672Y161111D01*
X-77564Y164003D01*
X-79129Y167780D01*
X-79129Y171870D01*
X-77564Y175647D01*
X-74672Y178539D01*
X-70895Y180104D01*
X-66805Y180104D01*
X-65069Y179385D01*
X-65041Y179377D01*
X-65015Y179363D01*
X-64888Y179335D01*
X-64763Y179301D01*
X-64733Y179300D01*
X-64704Y179294D01*
X-64574Y179298D01*
X-64445Y179296D01*
X-64416Y179302D01*
X-64386Y179303D01*
X-64262Y179339D01*
X-64135Y179370D01*
X-64109Y179384D01*
X-64081Y179392D01*
X-63969Y179458D01*
X-63854Y179518D01*
X-63832Y179538D01*
X-63807Y179553D01*
X-63686Y179660D01*
X-62243Y181103D01*
X-32423Y181103D01*
X-32305Y181118D01*
X-32186Y181125D01*
X-32148Y181138D01*
X-32107Y181143D01*
X-31997Y181186D01*
X-31884Y181223D01*
X-31849Y181245D01*
X-31812Y181260D01*
X-31716Y181329D01*
X-31615Y181393D01*
X-31587Y181423D01*
X-31554Y181446D01*
X-31478Y181538D01*
X-31397Y181625D01*
X-31377Y181660D01*
X-31352Y181691D01*
X-31301Y181799D01*
X-31243Y181903D01*
X-31233Y181943D01*
X-31216Y181979D01*
X-31194Y182096D01*
X-31164Y182211D01*
X-31160Y182271D01*
X-31156Y182291D01*
X-31158Y182312D01*
X-31154Y182372D01*
X-31154Y184037D01*
X-30112Y185079D01*
X-18638Y185079D01*
X-17596Y184037D01*
X-17596Y171563D01*
X-18638Y170521D01*
X-30112Y170521D01*
X-31154Y171563D01*
X-31154Y173228D01*
X-31169Y173346D01*
X-31176Y173465D01*
X-31189Y173503D01*
X-31194Y173544D01*
X-31237Y173654D01*
X-31274Y173767D01*
X-31296Y173802D01*
X-31311Y173839D01*
X-31380Y173935D01*
X-31444Y174036D01*
X-31474Y174064D01*
X-31497Y174097D01*
X-31589Y174173D01*
X-31676Y174254D01*
X-31711Y174274D01*
X-31742Y174299D01*
X-31850Y174350D01*
X-31954Y174408D01*
X-31994Y174418D01*
X-32030Y174435D01*
X-32147Y174457D01*
X-32262Y174487D01*
X-32322Y174491D01*
X-32342Y174495D01*
X-32363Y174493D01*
X-32423Y174497D01*
X-57760Y174497D01*
X-57810Y174491D01*
X-57859Y174493D01*
X-57967Y174471D01*
X-58076Y174457D01*
X-58122Y174439D01*
X-58171Y174429D01*
X-58269Y174381D01*
X-58371Y174340D01*
X-58412Y174311D01*
X-58456Y174289D01*
X-58540Y174218D01*
X-58629Y174154D01*
X-58660Y174115D01*
X-58698Y174083D01*
X-58761Y173993D01*
X-58832Y173909D01*
X-58853Y173864D01*
X-58881Y173823D01*
X-58920Y173720D01*
X-58967Y173621D01*
X-58976Y173572D01*
X-58994Y173526D01*
X-59006Y173416D01*
X-59027Y173309D01*
X-59024Y173259D01*
X-59029Y173210D01*
X-59014Y173101D01*
X-59007Y172991D01*
X-58992Y172944D01*
X-58985Y172895D01*
X-58933Y172742D01*
X-58571Y171870D01*
X-58571Y167780D01*
X-60136Y164003D01*
X-63028Y161111D01*
X-66805Y159546D01*
X-70895Y159546D01*
G37*
%LPD*%
%LPC*%
G36*
X-30112Y187984D02*
X-30112Y187984D01*
X-31154Y189026D01*
X-31154Y196845D01*
X-31166Y196943D01*
X-31169Y197042D01*
X-31186Y197100D01*
X-31194Y197160D01*
X-31230Y197252D01*
X-31258Y197347D01*
X-31288Y197400D01*
X-31311Y197456D01*
X-31369Y197536D01*
X-31419Y197621D01*
X-31485Y197697D01*
X-31497Y197713D01*
X-31507Y197721D01*
X-31525Y197742D01*
X-34934Y201151D01*
X-35012Y201211D01*
X-35084Y201279D01*
X-35137Y201308D01*
X-35185Y201345D01*
X-35276Y201385D01*
X-35363Y201433D01*
X-35421Y201448D01*
X-35477Y201472D01*
X-35575Y201487D01*
X-35671Y201512D01*
X-35771Y201518D01*
X-35791Y201522D01*
X-35803Y201520D01*
X-35831Y201522D01*
X-58244Y201522D01*
X-58274Y201519D01*
X-58303Y201521D01*
X-58431Y201499D01*
X-58560Y201482D01*
X-58587Y201472D01*
X-58616Y201467D01*
X-58735Y201413D01*
X-58856Y201365D01*
X-58879Y201348D01*
X-58906Y201336D01*
X-59008Y201255D01*
X-59113Y201179D01*
X-59132Y201156D01*
X-59155Y201137D01*
X-59233Y201034D01*
X-59316Y200934D01*
X-59328Y200907D01*
X-59346Y200883D01*
X-59417Y200739D01*
X-60136Y199003D01*
X-63028Y196111D01*
X-66805Y194546D01*
X-70895Y194546D01*
X-74672Y196111D01*
X-77564Y199003D01*
X-79129Y202780D01*
X-79129Y206870D01*
X-77564Y210647D01*
X-74672Y213539D01*
X-70895Y215104D01*
X-66805Y215104D01*
X-63028Y213539D01*
X-60136Y210647D01*
X-59417Y208911D01*
X-59402Y208886D01*
X-59393Y208858D01*
X-59324Y208748D01*
X-59259Y208635D01*
X-59239Y208614D01*
X-59223Y208589D01*
X-59128Y208500D01*
X-59038Y208407D01*
X-59013Y208391D01*
X-58991Y208371D01*
X-58878Y208308D01*
X-58767Y208240D01*
X-58739Y208232D01*
X-58713Y208217D01*
X-58587Y208185D01*
X-58463Y208147D01*
X-58434Y208145D01*
X-58405Y208138D01*
X-58244Y208128D01*
X-32569Y208128D01*
X-27355Y202913D01*
X-27276Y202852D01*
X-27204Y202784D01*
X-27151Y202755D01*
X-27103Y202718D01*
X-27012Y202679D01*
X-26926Y202631D01*
X-26867Y202616D01*
X-26812Y202592D01*
X-26714Y202576D01*
X-26618Y202551D01*
X-26518Y202545D01*
X-26497Y202542D01*
X-26485Y202543D01*
X-26457Y202541D01*
X-18638Y202541D01*
X-17596Y201499D01*
X-17596Y189026D01*
X-18638Y187984D01*
X-30112Y187984D01*
G37*
%LPD*%
G36*
X163854Y133950D02*
X163854Y133950D01*
X163925Y133950D01*
X163952Y133961D01*
X163981Y133964D01*
X164043Y134000D01*
X164108Y134027D01*
X164129Y134048D01*
X164154Y134062D01*
X164217Y134139D01*
X164247Y134170D01*
X164251Y134180D01*
X164260Y134190D01*
X173760Y150690D01*
X173770Y150722D01*
X173779Y150735D01*
X173783Y150760D01*
X173784Y150763D01*
X173815Y150834D01*
X173815Y150857D01*
X173823Y150879D01*
X173817Y150956D01*
X173818Y151033D01*
X173808Y151057D01*
X173807Y151077D01*
X173786Y151117D01*
X173760Y151189D01*
X164260Y167689D01*
X164241Y167710D01*
X164228Y167737D01*
X164175Y167784D01*
X164128Y167838D01*
X164102Y167850D01*
X164081Y167870D01*
X164013Y167893D01*
X163949Y167924D01*
X163920Y167925D01*
X163893Y167934D01*
X163821Y167930D01*
X163750Y167933D01*
X163723Y167923D01*
X163694Y167921D01*
X163604Y167878D01*
X163564Y167864D01*
X163556Y167856D01*
X163543Y167850D01*
X161020Y166109D01*
X160996Y166084D01*
X160958Y166058D01*
X158746Y163934D01*
X158727Y163906D01*
X158693Y163874D01*
X156851Y161422D01*
X156837Y161392D01*
X156808Y161354D01*
X155383Y158639D01*
X155374Y158608D01*
X155358Y158583D01*
X155357Y158575D01*
X155352Y158566D01*
X154381Y155657D01*
X154377Y155623D01*
X154362Y155579D01*
X153870Y152553D01*
X153871Y152519D01*
X153863Y152473D01*
X153863Y149406D01*
X153864Y149403D01*
X153864Y149400D01*
X153870Y149374D01*
X153870Y149373D01*
X153870Y149326D01*
X154362Y146300D01*
X154374Y146268D01*
X154381Y146222D01*
X155352Y143313D01*
X155369Y143284D01*
X155383Y143240D01*
X156808Y140525D01*
X156830Y140498D01*
X156851Y140457D01*
X158693Y138005D01*
X158718Y137983D01*
X158746Y137945D01*
X160958Y135821D01*
X160986Y135803D01*
X161020Y135770D01*
X163543Y134029D01*
X163570Y134017D01*
X163592Y133999D01*
X163661Y133979D01*
X163726Y133951D01*
X163755Y133950D01*
X163783Y133942D01*
X163854Y133950D01*
G37*
G36*
X-163567Y133949D02*
X-163567Y133949D01*
X-163496Y133946D01*
X-163469Y133956D01*
X-163440Y133958D01*
X-163350Y134001D01*
X-163310Y134015D01*
X-163302Y134023D01*
X-163289Y134029D01*
X-160766Y135770D01*
X-160742Y135795D01*
X-160704Y135821D01*
X-158492Y137945D01*
X-158473Y137973D01*
X-158439Y138005D01*
X-156597Y140457D01*
X-156583Y140487D01*
X-156554Y140525D01*
X-155129Y143240D01*
X-155120Y143272D01*
X-155098Y143313D01*
X-154127Y146222D01*
X-154123Y146256D01*
X-154108Y146300D01*
X-153616Y149326D01*
X-153617Y149360D01*
X-153609Y149406D01*
X-153609Y152473D01*
X-153616Y152506D01*
X-153616Y152553D01*
X-154108Y155579D01*
X-154120Y155611D01*
X-154127Y155657D01*
X-155098Y158566D01*
X-155111Y158589D01*
X-155117Y158613D01*
X-155124Y158622D01*
X-155129Y158639D01*
X-156554Y161354D01*
X-156576Y161381D01*
X-156597Y161422D01*
X-158439Y163874D01*
X-158464Y163896D01*
X-158492Y163934D01*
X-160704Y166058D01*
X-160732Y166076D01*
X-160766Y166109D01*
X-163289Y167850D01*
X-163316Y167862D01*
X-163338Y167880D01*
X-163407Y167901D01*
X-163472Y167928D01*
X-163501Y167929D01*
X-163529Y167937D01*
X-163600Y167929D01*
X-163671Y167929D01*
X-163698Y167918D01*
X-163727Y167915D01*
X-163789Y167880D01*
X-163854Y167852D01*
X-163875Y167831D01*
X-163900Y167817D01*
X-163963Y167740D01*
X-163993Y167709D01*
X-163997Y167699D01*
X-164006Y167689D01*
X-173506Y151189D01*
X-173530Y151116D01*
X-173561Y151045D01*
X-173561Y151022D01*
X-173569Y151000D01*
X-173563Y150923D01*
X-173564Y150846D01*
X-173554Y150822D01*
X-173553Y150802D01*
X-173532Y150762D01*
X-173513Y150710D01*
X-173512Y150705D01*
X-173510Y150703D01*
X-173506Y150690D01*
X-164006Y134190D01*
X-163987Y134169D01*
X-163974Y134142D01*
X-163921Y134095D01*
X-163874Y134041D01*
X-163848Y134029D01*
X-163827Y134009D01*
X-163759Y133986D01*
X-163695Y133955D01*
X-163666Y133954D01*
X-163639Y133945D01*
X-163567Y133949D01*
G37*
G36*
X86803Y456D02*
X86803Y456D01*
X86881Y464D01*
X86900Y475D01*
X86922Y480D01*
X86986Y524D01*
X87054Y562D01*
X87070Y581D01*
X87086Y592D01*
X87110Y630D01*
X87160Y690D01*
X96660Y17190D01*
X96669Y17218D01*
X96685Y17241D01*
X96700Y17311D01*
X96723Y17379D01*
X96720Y17408D01*
X96726Y17436D01*
X96713Y17506D01*
X96707Y17577D01*
X96694Y17603D01*
X96688Y17631D01*
X96648Y17690D01*
X96615Y17754D01*
X96593Y17772D01*
X96577Y17796D01*
X96494Y17853D01*
X96462Y17880D01*
X96451Y17883D01*
X96441Y17891D01*
X93675Y19199D01*
X93642Y19207D01*
X93599Y19228D01*
X90659Y20075D01*
X90625Y20078D01*
X90581Y20091D01*
X87543Y20457D01*
X87509Y20454D01*
X87462Y20460D01*
X84405Y20333D01*
X84372Y20325D01*
X84325Y20323D01*
X81328Y19707D01*
X81297Y19694D01*
X81251Y19685D01*
X78391Y18597D01*
X78363Y18578D01*
X78319Y18562D01*
X75671Y17029D01*
X75645Y17006D01*
X75605Y16983D01*
X73237Y15045D01*
X73215Y15019D01*
X73179Y14989D01*
X71152Y12697D01*
X71136Y12667D01*
X71104Y12632D01*
X69472Y10044D01*
X69460Y10013D01*
X69435Y9973D01*
X68239Y7157D01*
X68232Y7123D01*
X68229Y7117D01*
X68225Y7110D01*
X68224Y7105D01*
X68213Y7080D01*
X67485Y4109D01*
X67483Y4075D01*
X67472Y4029D01*
X67229Y979D01*
X67233Y951D01*
X67228Y923D01*
X67245Y853D01*
X67253Y782D01*
X67268Y757D01*
X67274Y730D01*
X67317Y672D01*
X67353Y609D01*
X67375Y592D01*
X67392Y569D01*
X67454Y533D01*
X67511Y489D01*
X67539Y482D01*
X67563Y468D01*
X67663Y451D01*
X67704Y441D01*
X67714Y442D01*
X67727Y440D01*
X86727Y440D01*
X86803Y456D01*
G37*
G36*
X-67445Y446D02*
X-67445Y446D01*
X-67417Y443D01*
X-67349Y466D01*
X-67278Y480D01*
X-67255Y496D01*
X-67228Y505D01*
X-67173Y552D01*
X-67114Y592D01*
X-67099Y616D01*
X-67078Y635D01*
X-67046Y699D01*
X-67007Y760D01*
X-67002Y788D01*
X-66990Y813D01*
X-66981Y915D01*
X-66974Y956D01*
X-66976Y966D01*
X-66975Y979D01*
X-67218Y4029D01*
X-67227Y4062D01*
X-67231Y4109D01*
X-67959Y7080D01*
X-67974Y7111D01*
X-67985Y7157D01*
X-69181Y9973D01*
X-69200Y10001D01*
X-69218Y10044D01*
X-70850Y12632D01*
X-70874Y12657D01*
X-70898Y12697D01*
X-72925Y14989D01*
X-72952Y15010D01*
X-72983Y15045D01*
X-75351Y16983D01*
X-75381Y16999D01*
X-75417Y17029D01*
X-78065Y18562D01*
X-78097Y18573D01*
X-78137Y18597D01*
X-80997Y19685D01*
X-81030Y19691D01*
X-81074Y19707D01*
X-84071Y20323D01*
X-84105Y20323D01*
X-84151Y20333D01*
X-87208Y20460D01*
X-87242Y20454D01*
X-87289Y20457D01*
X-90327Y20091D01*
X-90359Y20081D01*
X-90405Y20075D01*
X-93345Y19228D01*
X-93375Y19212D01*
X-93421Y19199D01*
X-96187Y17891D01*
X-96209Y17874D01*
X-96236Y17864D01*
X-96288Y17815D01*
X-96346Y17772D01*
X-96360Y17747D01*
X-96381Y17727D01*
X-96410Y17662D01*
X-96446Y17600D01*
X-96449Y17572D01*
X-96461Y17545D01*
X-96462Y17473D01*
X-96471Y17403D01*
X-96463Y17375D01*
X-96464Y17346D01*
X-96428Y17252D01*
X-96417Y17211D01*
X-96410Y17203D01*
X-96406Y17190D01*
X-86906Y690D01*
X-86854Y632D01*
X-86808Y569D01*
X-86789Y558D01*
X-86774Y541D01*
X-86704Y508D01*
X-86637Y468D01*
X-86613Y464D01*
X-86595Y455D01*
X-86550Y453D01*
X-86473Y440D01*
X-67473Y440D01*
X-67445Y446D01*
G37*
%LPC*%
G36*
X-52379Y21427D02*
X-52379Y21427D01*
X-54422Y22273D01*
X-55987Y23838D01*
X-56833Y25881D01*
X-56833Y28094D01*
X-55987Y30137D01*
X-55532Y30592D01*
X-55447Y30702D01*
X-55358Y30809D01*
X-55350Y30827D01*
X-55337Y30843D01*
X-55282Y30971D01*
X-55223Y31097D01*
X-55219Y31116D01*
X-55211Y31135D01*
X-55189Y31273D01*
X-55163Y31409D01*
X-55164Y31429D01*
X-55161Y31449D01*
X-55174Y31588D01*
X-55183Y31726D01*
X-55189Y31746D01*
X-55191Y31766D01*
X-55238Y31897D01*
X-55281Y32029D01*
X-55291Y32046D01*
X-55298Y32065D01*
X-55376Y32180D01*
X-55451Y32298D01*
X-55466Y32312D01*
X-55477Y32328D01*
X-55581Y32420D01*
X-55682Y32516D01*
X-55700Y32525D01*
X-55715Y32539D01*
X-55839Y32602D01*
X-55961Y32669D01*
X-55980Y32674D01*
X-55999Y32683D01*
X-56134Y32714D01*
X-56269Y32749D01*
X-56297Y32750D01*
X-56309Y32753D01*
X-56329Y32752D01*
X-56430Y32759D01*
X-58712Y32759D01*
X-59754Y33801D01*
X-59754Y43274D01*
X-58712Y44316D01*
X-49238Y44316D01*
X-48196Y43274D01*
X-48196Y37955D01*
X-48184Y37857D01*
X-48181Y37758D01*
X-48164Y37700D01*
X-48156Y37640D01*
X-48120Y37548D01*
X-48092Y37452D01*
X-48062Y37400D01*
X-48039Y37344D01*
X-47981Y37264D01*
X-47970Y37245D01*
X-47970Y32075D01*
X-47957Y31976D01*
X-47954Y31877D01*
X-47938Y31819D01*
X-47930Y31759D01*
X-47893Y31667D01*
X-47866Y31572D01*
X-47835Y31520D01*
X-47813Y31463D01*
X-47755Y31383D01*
X-47704Y31298D01*
X-47638Y31223D01*
X-47626Y31206D01*
X-47617Y31198D01*
X-47598Y31177D01*
X-46558Y30137D01*
X-45712Y28094D01*
X-45712Y25881D01*
X-46558Y23838D01*
X-48123Y22273D01*
X-50166Y21427D01*
X-52379Y21427D01*
G37*
%LPD*%
%LPC*%
G36*
X-58712Y47759D02*
X-58712Y47759D01*
X-59754Y48801D01*
X-59754Y58274D01*
X-58712Y59316D01*
X-49514Y59316D01*
X-49504Y59317D01*
X-49495Y59316D01*
X-49347Y59337D01*
X-49198Y59356D01*
X-49189Y59360D01*
X-49180Y59361D01*
X-49028Y59413D01*
X-48731Y59536D01*
X-46519Y59536D01*
X-44475Y58689D01*
X-42911Y57125D01*
X-42064Y55081D01*
X-42064Y52869D01*
X-42911Y50825D01*
X-44475Y49261D01*
X-46519Y48414D01*
X-48057Y48414D01*
X-48155Y48402D01*
X-48254Y48399D01*
X-48313Y48382D01*
X-48373Y48374D01*
X-48465Y48338D01*
X-48560Y48310D01*
X-48612Y48280D01*
X-48668Y48257D01*
X-48748Y48199D01*
X-48834Y48149D01*
X-48909Y48083D01*
X-48926Y48071D01*
X-48933Y48061D01*
X-48955Y48042D01*
X-49238Y47759D01*
X-58712Y47759D01*
G37*
%LPD*%
%LPC*%
G36*
X-14099Y103171D02*
X-14099Y103171D01*
X-15141Y104213D01*
X-15141Y111687D01*
X-14099Y112729D01*
X-626Y112729D01*
X416Y111687D01*
X416Y104213D01*
X-626Y103171D01*
X-14099Y103171D01*
G37*
%LPD*%
D10*
X165327Y150940D03*
X82727Y7840D03*
X-82473Y7840D03*
X-165073Y150940D03*
X124027Y222440D03*
X124027Y79440D03*
X127Y7840D03*
X-123773Y79440D03*
X-123773Y222440D03*
D11*
X48638Y69850D03*
X48638Y82550D03*
X48638Y95250D03*
X48638Y107950D03*
X48638Y120650D03*
X48638Y133350D03*
X48638Y146050D03*
X48638Y158750D03*
X-7363Y158750D03*
X-7363Y146050D03*
X-7363Y133350D03*
X-7363Y120650D03*
X-7363Y107950D03*
X-7363Y95250D03*
X-7363Y82550D03*
X-7363Y69850D03*
D12*
X11113Y201050D03*
X11113Y218050D03*
D13*
X65088Y159313D03*
X65088Y142313D03*
X-23813Y159313D03*
X-23813Y142313D03*
D12*
X30163Y201050D03*
X30163Y218050D03*
D13*
X-7375Y195263D03*
X-24375Y195263D03*
D14*
X-70000Y262525D03*
X-35000Y262525D03*
X0Y262525D03*
X35000Y262525D03*
X70000Y262525D03*
X-68850Y169825D03*
X-68850Y204825D03*
D13*
X-7375Y177800D03*
X-24375Y177800D03*
D15*
X-53975Y38538D03*
X-53975Y53538D03*
D16*
X120650Y152400D03*
D13*
X61350Y177800D03*
X78350Y177800D03*
D17*
X-77788Y123825D03*
X-77788Y98425D03*
X-77788Y73025D03*
D13*
X76200Y99450D03*
X76200Y116450D03*
X66675Y99450D03*
X66675Y116450D03*
X-26988Y72463D03*
X-26988Y89463D03*
X-36513Y72463D03*
X-36513Y89463D03*
D18*
X46038Y23813D03*
X-84815Y29307D03*
D19*
X-84815Y50693D02*
X-84138Y51370D01*
X-84815Y50693D02*
X-84815Y29307D01*
D18*
X-84138Y51370D03*
X-130175Y191070D03*
X147638Y174625D03*
D19*
X142875Y179388D01*
X123825Y179388D01*
D18*
X123825Y179388D03*
D19*
X12700Y57150D02*
X46038Y23813D01*
X12700Y57150D02*
X12700Y58648D01*
D18*
X12700Y58648D03*
D20*
X-53538Y53975D02*
X-53975Y53538D01*
X-53538Y53975D02*
X-47625Y53975D01*
D18*
X-47625Y53975D03*
X-104775Y203200D03*
D19*
X-122081Y191070D02*
X-130175Y191070D01*
X-122081Y191070D02*
X-118006Y186995D01*
X-110033Y186995D01*
X-104395Y192632D01*
X-104395Y200605D01*
X-104775Y200985D01*
X-104775Y203200D01*
D21*
X-36513Y89463D02*
X-26988Y89463D01*
X-21200Y95250D02*
X-7363Y95250D01*
X-21200Y95250D02*
X-26988Y89463D01*
X-21200Y89463D02*
X-21200Y95250D01*
X-21200Y89463D02*
X-19050Y87313D01*
D18*
X-19050Y87313D03*
D19*
X-144304Y116064D02*
X-165073Y150940D01*
X-144304Y116064D02*
X-104211Y103752D01*
X-82473Y7840D02*
X-42134Y7840D01*
X19487Y35812D02*
X47460Y7840D01*
X-14161Y35812D02*
X-42134Y7840D01*
X-14161Y35812D02*
X19487Y35812D01*
D18*
X-66675Y86660D03*
D21*
X-9238Y67975D02*
X-7363Y69850D01*
X-9238Y67975D02*
X-14161Y63051D01*
X-14161Y35812D01*
D19*
X-82473Y7840D02*
X-88199Y13566D01*
X-96273Y27551D01*
X-96273Y85725D01*
X-96273Y95815D01*
X-104211Y103752D01*
D22*
X-96273Y85725D02*
X-67610Y85725D01*
X-66675Y86660D01*
D19*
X47460Y7840D02*
X82727Y7840D01*
X88772Y13884D01*
X104820Y43298D01*
X91590Y43298D01*
X141161Y111352D02*
X165327Y150940D01*
X141161Y111352D02*
X121093Y116330D01*
X91590Y86827D02*
X91590Y43298D01*
X91590Y86827D02*
X121093Y116330D01*
D22*
X125848Y165227D02*
X113275Y177800D01*
X78350Y177800D01*
X151040Y165227D02*
X165327Y150940D01*
X151040Y165227D02*
X125848Y165227D01*
D21*
X-26988Y72463D02*
X-36513Y72463D01*
X-26988Y72463D02*
X-22500Y67975D01*
X-9238Y67975D01*
D18*
X-107231Y51651D03*
D20*
X-107231Y62897D01*
X-123773Y79440D01*
D18*
X-114019Y196619D03*
D20*
X-123773Y206372D01*
X-123773Y222440D01*
D18*
X102134Y56616D03*
D20*
X124027Y78509D02*
X124027Y79440D01*
X124027Y78509D02*
X102134Y56616D01*
D18*
X33391Y7070D03*
D20*
X897Y7070D01*
X127Y7840D01*
D18*
X132616Y192088D03*
D20*
X132616Y213851D01*
X124027Y222440D01*
X0Y248213D02*
X0Y262525D01*
X0Y248213D02*
X30163Y218050D01*
X30163Y201050D02*
X34925Y196288D01*
X34925Y169288D01*
X45463Y158750D02*
X48638Y158750D01*
X45463Y158750D02*
X34925Y169288D01*
X48638Y158750D02*
X49200Y159313D01*
X65088Y159313D01*
X3175Y184713D02*
X-7375Y195263D01*
X3175Y184713D02*
X3175Y147638D01*
X1588Y146050D01*
X-7363Y146050D01*
X-20075Y146050D02*
X-23813Y142313D01*
X-20075Y146050D02*
X-7363Y146050D01*
X-7363Y82550D02*
X0Y82550D01*
X12700Y95250D02*
X12700Y127000D01*
D18*
X12700Y127000D03*
D20*
X12700Y95250D02*
X0Y82550D01*
D18*
X4763Y134938D03*
D20*
X4763Y128588D02*
X-3175Y120650D01*
X-7363Y120650D01*
X4763Y128588D02*
X4763Y134938D01*
X-7363Y136319D02*
X-7363Y133350D01*
X-7363Y136319D02*
X-7938Y136894D01*
D18*
X-7938Y136894D03*
D20*
X-7363Y177788D02*
X-7375Y177800D01*
X-7363Y177788D02*
X-7363Y158750D01*
X-23250Y158750D02*
X-23813Y159313D01*
X-23250Y158750D02*
X-7363Y158750D01*
X-60875Y177800D02*
X-68850Y169825D01*
X-60875Y177800D02*
X-24375Y177800D01*
X9475Y218050D02*
X-35000Y262525D01*
X9475Y218050D02*
X11113Y218050D01*
X11113Y201050D02*
X28575Y183588D01*
X28575Y162938D01*
X45463Y146050D01*
X48638Y146050D01*
X61350Y146050D02*
X65088Y142313D01*
X61350Y146050D02*
X48638Y146050D01*
X-33938Y204825D02*
X-68850Y204825D01*
X-33938Y204825D02*
X-24375Y195263D01*
D23*
X41425Y233950D02*
X70000Y262525D01*
D18*
X43126Y175490D03*
X21491Y173038D03*
D21*
X48638Y95250D02*
X62475Y95250D01*
X66675Y99450D01*
X76200Y99450D01*
X48638Y95250D02*
X38100Y95250D01*
X37812Y95539D02*
X37812Y144721D01*
X21491Y161041D02*
X21491Y173038D01*
X37812Y95539D02*
X38100Y95250D01*
X37812Y144721D02*
X21491Y161041D01*
D23*
X41425Y177191D02*
X43126Y175490D01*
X41425Y177191D02*
X41425Y233950D01*
D21*
X42863Y69850D02*
X48638Y69850D01*
X37812Y87549D02*
X38100Y87838D01*
X38100Y95250D01*
X37812Y74901D02*
X42863Y69850D01*
X37812Y74901D02*
X37812Y87549D01*
D18*
X52544Y170764D03*
X80963Y166688D03*
D20*
X79375Y168275D01*
X68263Y168275D01*
D18*
X49017Y187884D03*
D22*
X59159Y177379D02*
X52544Y170764D01*
X59953Y176585D02*
X61168Y177800D01*
X61350Y177800D01*
X59101Y177800D02*
X49017Y187884D01*
X59101Y177800D02*
X61168Y177800D01*
D20*
X59953Y176585D02*
X68263Y168275D01*
D23*
X59953Y176585D02*
X59159Y177379D01*
D18*
X69850Y188913D03*
X71438Y128588D03*
X58738Y196850D03*
X-51273Y26988D03*
D20*
X-51273Y35835D01*
X-53975Y38538D01*
X-77788Y98425D02*
X-77788Y123825D01*
M02*
