G04 EAGLE Gerber RS-274X export*
G75*
%MOMM*%
%FSLAX34Y34*%
%LPD*%
%INEAGLE Copper Layer 2*%
%IPPOS*%
%AMOC8*
5,1,8,0,0,1.08239X$1,22.5*%
G01*
%ADD10C,1.650000*%
%ADD11C,1.422400*%
%ADD12C,0.756400*%
%ADD13C,0.812800*%
%ADD14C,0.304800*%
%ADD15C,0.609600*%

G36*
X314201Y106013D02*
X314201Y106013D01*
X314274Y106020D01*
X314298Y106033D01*
X314325Y106038D01*
X314386Y106080D01*
X314451Y106115D01*
X314470Y106137D01*
X314491Y106151D01*
X314520Y106196D01*
X314568Y106252D01*
X321863Y118889D01*
X321865Y118893D01*
X321868Y118897D01*
X321897Y118989D01*
X321927Y119079D01*
X321927Y119084D01*
X321928Y119088D01*
X321919Y119184D01*
X321912Y119279D01*
X321910Y119283D01*
X321910Y119288D01*
X321865Y119372D01*
X321821Y119458D01*
X321818Y119461D01*
X321816Y119465D01*
X321742Y119525D01*
X321668Y119587D01*
X321664Y119588D01*
X321660Y119591D01*
X321489Y119646D01*
X320380Y119789D01*
X317926Y121197D01*
X316197Y123437D01*
X315457Y126168D01*
X315818Y128974D01*
X379344Y239716D01*
X381584Y241445D01*
X384315Y242185D01*
X387122Y241824D01*
X389576Y240416D01*
X390514Y239200D01*
X390517Y239198D01*
X390518Y239195D01*
X390593Y239132D01*
X390666Y239069D01*
X390669Y239068D01*
X390671Y239066D01*
X390765Y239036D01*
X390856Y239006D01*
X390860Y239007D01*
X390863Y239006D01*
X390959Y239015D01*
X391056Y239023D01*
X391059Y239024D01*
X391062Y239024D01*
X391147Y239070D01*
X391234Y239115D01*
X391236Y239117D01*
X391239Y239119D01*
X391355Y239257D01*
X398826Y252196D01*
X398849Y252266D01*
X398880Y252334D01*
X398881Y252361D01*
X398890Y252386D01*
X398884Y252460D01*
X398887Y252534D01*
X398877Y252561D01*
X398875Y252586D01*
X398851Y252634D01*
X398826Y252704D01*
X391535Y265332D01*
X391533Y265334D01*
X391531Y265338D01*
X391466Y265410D01*
X391403Y265482D01*
X391399Y265484D01*
X391397Y265487D01*
X391310Y265527D01*
X391222Y265569D01*
X391218Y265569D01*
X391215Y265571D01*
X391119Y265575D01*
X391022Y265580D01*
X391018Y265578D01*
X391015Y265579D01*
X390925Y265545D01*
X390834Y265512D01*
X390831Y265509D01*
X390827Y265508D01*
X390694Y265387D01*
X389976Y264452D01*
X387526Y263037D01*
X384677Y262663D01*
X384624Y262672D01*
X384598Y262666D01*
X384571Y262667D01*
X384501Y262643D01*
X384429Y262626D01*
X384405Y262610D01*
X384381Y262602D01*
X384342Y262566D01*
X384281Y262524D01*
X358484Y236727D01*
X311368Y236727D01*
X311360Y236726D01*
X311352Y236727D01*
X311262Y236706D01*
X311171Y236688D01*
X311164Y236683D01*
X311157Y236681D01*
X311009Y236579D01*
X309939Y235509D01*
X309453Y235308D01*
X308229Y234801D01*
X307429Y234469D01*
X304711Y234469D01*
X302201Y235509D01*
X300279Y237431D01*
X299239Y239941D01*
X299239Y242659D01*
X300279Y245169D01*
X302201Y247091D01*
X303336Y247561D01*
X304561Y248068D01*
X304711Y248131D01*
X307429Y248131D01*
X309939Y247091D01*
X311009Y246021D01*
X311015Y246017D01*
X311020Y246011D01*
X311099Y245962D01*
X311176Y245910D01*
X311184Y245909D01*
X311190Y245905D01*
X311368Y245873D01*
X327625Y245873D01*
X327627Y245873D01*
X327628Y245873D01*
X327724Y245893D01*
X327822Y245912D01*
X327823Y245913D01*
X327824Y245913D01*
X327903Y245968D01*
X327988Y246025D01*
X327988Y246026D01*
X327989Y246027D01*
X328043Y246110D01*
X328097Y246193D01*
X328097Y246194D01*
X328098Y246195D01*
X328115Y246293D01*
X328132Y246390D01*
X328132Y246392D01*
X328132Y246393D01*
X328111Y246487D01*
X328089Y246586D01*
X328088Y246587D01*
X328088Y246588D01*
X328031Y246668D01*
X327973Y246749D01*
X327972Y246750D01*
X327971Y246751D01*
X327819Y246849D01*
X327601Y246939D01*
X325679Y248861D01*
X324639Y251371D01*
X324639Y254089D01*
X325679Y256599D01*
X327601Y258521D01*
X328083Y258721D01*
X329307Y259228D01*
X329308Y259228D01*
X330111Y259561D01*
X332829Y259561D01*
X335339Y258521D01*
X337261Y256599D01*
X338301Y254089D01*
X338301Y251371D01*
X337261Y248861D01*
X335339Y246939D01*
X335121Y246849D01*
X335120Y246848D01*
X335118Y246848D01*
X335037Y246792D01*
X334954Y246737D01*
X334954Y246736D01*
X334952Y246735D01*
X334899Y246652D01*
X334844Y246569D01*
X334844Y246568D01*
X334843Y246567D01*
X334825Y246467D01*
X334808Y246372D01*
X334808Y246371D01*
X334808Y246370D01*
X334830Y246269D01*
X334850Y246176D01*
X334851Y246175D01*
X334851Y246174D01*
X334910Y246091D01*
X334965Y246012D01*
X334966Y246012D01*
X334967Y246011D01*
X335052Y245958D01*
X335135Y245906D01*
X335136Y245905D01*
X335137Y245905D01*
X335315Y245873D01*
X354486Y245873D01*
X354494Y245874D01*
X354502Y245873D01*
X354591Y245894D01*
X354683Y245912D01*
X354689Y245917D01*
X354697Y245919D01*
X354845Y246021D01*
X377346Y268523D01*
X377368Y268556D01*
X377398Y268583D01*
X377423Y268639D01*
X377457Y268690D01*
X377465Y268729D01*
X377481Y268765D01*
X377483Y268826D01*
X377495Y268887D01*
X377487Y268926D01*
X377488Y268966D01*
X377464Y269032D01*
X377453Y269083D01*
X377438Y269105D01*
X377427Y269135D01*
X326833Y356790D01*
X326809Y356832D01*
X326760Y356888D01*
X326717Y356948D01*
X326694Y356962D01*
X326676Y356983D01*
X326609Y357015D01*
X326547Y357054D01*
X326518Y357059D01*
X326496Y357070D01*
X326442Y357073D01*
X326369Y357086D01*
X316272Y357086D01*
X316264Y357084D01*
X316257Y357086D01*
X316167Y357065D01*
X316076Y357046D01*
X316069Y357042D01*
X316061Y357040D01*
X315913Y356937D01*
X302004Y343028D01*
X301999Y343021D01*
X301993Y343017D01*
X301944Y342938D01*
X301893Y342861D01*
X301891Y342853D01*
X301887Y342847D01*
X301855Y342669D01*
X301855Y341157D01*
X300815Y338646D01*
X298894Y336725D01*
X297750Y336251D01*
X297749Y336251D01*
X296525Y335743D01*
X296383Y335685D01*
X293666Y335685D01*
X291155Y336725D01*
X289234Y338646D01*
X288194Y341157D01*
X288194Y343874D01*
X289234Y346385D01*
X291155Y348306D01*
X291632Y348504D01*
X292857Y349011D01*
X293666Y349346D01*
X295178Y349346D01*
X295186Y349348D01*
X295194Y349346D01*
X295284Y349367D01*
X295375Y349386D01*
X295381Y349390D01*
X295389Y349392D01*
X295537Y349495D01*
X312274Y366231D01*
X320505Y366231D01*
X320542Y366239D01*
X320579Y366237D01*
X320639Y366258D01*
X320702Y366271D01*
X320732Y366292D01*
X320767Y366305D01*
X320815Y366348D01*
X320867Y366384D01*
X320888Y366415D01*
X320915Y366440D01*
X320942Y366498D01*
X320977Y366552D01*
X320983Y366588D01*
X320999Y366622D01*
X321001Y366686D01*
X321012Y366749D01*
X321004Y366785D01*
X321005Y366823D01*
X320980Y366892D01*
X320969Y366945D01*
X320954Y366965D01*
X320944Y366992D01*
X306100Y392710D01*
X306053Y392764D01*
X306012Y392823D01*
X305987Y392838D01*
X305968Y392861D01*
X305903Y392892D01*
X305843Y392930D01*
X305814Y392935D01*
X305787Y392948D01*
X305716Y392952D01*
X305645Y392964D01*
X305617Y392957D01*
X305587Y392958D01*
X305520Y392934D01*
X305450Y392918D01*
X305424Y392900D01*
X305398Y392891D01*
X305360Y392856D01*
X305302Y392815D01*
X274949Y362462D01*
X274945Y362456D01*
X274939Y362451D01*
X274890Y362373D01*
X274838Y362296D01*
X274837Y362288D01*
X274833Y362281D01*
X274801Y362104D01*
X274801Y360591D01*
X273761Y358081D01*
X271839Y356159D01*
X271536Y356033D01*
X270311Y355526D01*
X269329Y355119D01*
X266611Y355119D01*
X264101Y356159D01*
X262157Y358103D01*
X262156Y358104D01*
X262155Y358105D01*
X262073Y358159D01*
X261990Y358214D01*
X261989Y358214D01*
X261988Y358215D01*
X261890Y358233D01*
X261844Y358242D01*
X261861Y358269D01*
X261915Y358354D01*
X261915Y358355D01*
X261916Y358356D01*
X261932Y358455D01*
X261949Y358551D01*
X261948Y358553D01*
X261949Y358554D01*
X261910Y358730D01*
X261139Y360591D01*
X261139Y363309D01*
X262179Y365819D01*
X264101Y367741D01*
X264194Y367779D01*
X265418Y368287D01*
X266611Y368781D01*
X268124Y368781D01*
X268132Y368782D01*
X268139Y368781D01*
X268229Y368802D01*
X268320Y368820D01*
X268327Y368825D01*
X268334Y368827D01*
X268482Y368929D01*
X301223Y401670D01*
X301265Y401733D01*
X301313Y401791D01*
X301320Y401816D01*
X301334Y401837D01*
X301348Y401911D01*
X301370Y401983D01*
X301367Y402011D01*
X301372Y402034D01*
X301370Y402042D01*
X301430Y402509D01*
X301426Y402563D01*
X301429Y402640D01*
X301373Y403065D01*
X301606Y403932D01*
X301608Y403964D01*
X301619Y404000D01*
X301732Y404890D01*
X301946Y405263D01*
X301963Y405315D01*
X301995Y405384D01*
X302106Y405798D01*
X302653Y406510D01*
X302667Y406539D01*
X302691Y406568D01*
X310595Y420400D01*
X310607Y420435D01*
X310626Y420465D01*
X310638Y420529D01*
X310658Y420591D01*
X310656Y420627D01*
X310662Y420662D01*
X310648Y420726D01*
X310643Y420790D01*
X310626Y420823D01*
X310618Y420858D01*
X310581Y420911D01*
X310551Y420969D01*
X310523Y420992D01*
X310502Y421021D01*
X310447Y421056D01*
X310397Y421097D01*
X310363Y421108D01*
X310332Y421127D01*
X310258Y421141D01*
X310206Y421157D01*
X310182Y421154D01*
X310155Y421159D01*
X309791Y421159D01*
X307281Y422199D01*
X305359Y424121D01*
X304319Y426631D01*
X304319Y429349D01*
X305359Y431859D01*
X307281Y433781D01*
X308363Y434229D01*
X309587Y434736D01*
X309588Y434736D01*
X309791Y434821D01*
X312509Y434821D01*
X315019Y433781D01*
X316598Y432202D01*
X316657Y432163D01*
X316712Y432117D01*
X316740Y432108D01*
X316765Y432091D01*
X316835Y432078D01*
X316903Y432057D01*
X316933Y432059D01*
X316962Y432054D01*
X317031Y432068D01*
X317102Y432075D01*
X317129Y432089D01*
X317158Y432095D01*
X317216Y432136D01*
X317279Y432170D01*
X317300Y432194D01*
X317322Y432210D01*
X317350Y432253D01*
X317396Y432307D01*
X317681Y432800D01*
X317681Y432801D01*
X317682Y432802D01*
X318413Y434082D01*
X318441Y434115D01*
X379361Y539456D01*
X381607Y541176D01*
X384341Y541907D01*
X387146Y541536D01*
X389596Y540119D01*
X390421Y539042D01*
X390424Y539039D01*
X390426Y539035D01*
X390500Y538973D01*
X390572Y538910D01*
X390576Y538908D01*
X390579Y538906D01*
X390672Y538877D01*
X390762Y538847D01*
X390766Y538847D01*
X390770Y538846D01*
X390867Y538855D01*
X390962Y538862D01*
X390966Y538864D01*
X390970Y538864D01*
X391056Y538910D01*
X391140Y538954D01*
X391143Y538957D01*
X391147Y538959D01*
X391263Y539097D01*
X398826Y552196D01*
X398849Y552266D01*
X398880Y552334D01*
X398881Y552361D01*
X398890Y552386D01*
X398884Y552460D01*
X398887Y552534D01*
X398877Y552561D01*
X398875Y552586D01*
X398851Y552634D01*
X398826Y552704D01*
X314568Y698648D01*
X314519Y698703D01*
X314476Y698763D01*
X314453Y698778D01*
X314435Y698798D01*
X314368Y698830D01*
X314306Y698869D01*
X314277Y698874D01*
X314255Y698885D01*
X314201Y698888D01*
X314128Y698901D01*
X145612Y698901D01*
X145539Y698887D01*
X145466Y698880D01*
X145442Y698867D01*
X145415Y698862D01*
X145354Y698820D01*
X145289Y698785D01*
X145270Y698763D01*
X145249Y698749D01*
X145220Y698704D01*
X145172Y698648D01*
X60914Y552704D01*
X60891Y552634D01*
X60860Y552566D01*
X60859Y552539D01*
X60850Y552514D01*
X60856Y552440D01*
X60853Y552366D01*
X60863Y552339D01*
X60865Y552314D01*
X60889Y552266D01*
X60914Y552196D01*
X69023Y538151D01*
X69026Y538148D01*
X69027Y538144D01*
X69092Y538073D01*
X69155Y538001D01*
X69159Y537999D01*
X69162Y537996D01*
X69248Y537956D01*
X69336Y537914D01*
X69340Y537913D01*
X69344Y537912D01*
X69439Y537908D01*
X69536Y537903D01*
X69540Y537904D01*
X69544Y537904D01*
X69634Y537938D01*
X69725Y537971D01*
X69728Y537974D01*
X69732Y537975D01*
X69865Y538096D01*
X71414Y540119D01*
X73864Y541536D01*
X76669Y541907D01*
X79403Y541176D01*
X81649Y539456D01*
X144026Y431596D01*
X144397Y428791D01*
X143666Y426057D01*
X141946Y423811D01*
X139496Y422395D01*
X136864Y422046D01*
X136860Y422045D01*
X136856Y422045D01*
X136766Y422012D01*
X136674Y421981D01*
X136671Y421978D01*
X136668Y421977D01*
X136597Y421912D01*
X136525Y421848D01*
X136523Y421844D01*
X136520Y421842D01*
X136480Y421754D01*
X136438Y421667D01*
X136438Y421663D01*
X136437Y421659D01*
X136433Y421562D01*
X136429Y421466D01*
X136430Y421463D01*
X136430Y421459D01*
X136491Y421290D01*
X145800Y405166D01*
X145828Y405134D01*
X145848Y405096D01*
X145899Y405053D01*
X145932Y405015D01*
X145959Y405002D01*
X145986Y404980D01*
X146317Y404788D01*
X146560Y403884D01*
X146584Y403835D01*
X146610Y403762D01*
X147078Y402951D01*
X146979Y402581D01*
X146976Y402539D01*
X146964Y402498D01*
X146970Y402432D01*
X146967Y402381D01*
X146976Y402353D01*
X146979Y402319D01*
X147078Y401949D01*
X146610Y401138D01*
X146593Y401086D01*
X146560Y401016D01*
X146317Y400112D01*
X145986Y399920D01*
X145954Y399892D01*
X145916Y399872D01*
X145873Y399821D01*
X145835Y399788D01*
X145822Y399761D01*
X145800Y399734D01*
X137323Y385052D01*
X137322Y385049D01*
X137321Y385047D01*
X137290Y384954D01*
X137259Y384862D01*
X137259Y384859D01*
X137259Y384857D01*
X137267Y384760D01*
X137274Y384662D01*
X137275Y384660D01*
X137275Y384657D01*
X137321Y384570D01*
X137365Y384483D01*
X137367Y384482D01*
X137368Y384479D01*
X137444Y384416D01*
X137518Y384354D01*
X137520Y384353D01*
X137523Y384351D01*
X137694Y384296D01*
X139523Y384046D01*
X141967Y382620D01*
X143679Y380367D01*
X144399Y377630D01*
X144016Y374827D01*
X79975Y265098D01*
X77722Y263386D01*
X74985Y262666D01*
X72182Y263049D01*
X69738Y264475D01*
X69047Y265384D01*
X69043Y265387D01*
X69041Y265392D01*
X68968Y265453D01*
X68897Y265516D01*
X68892Y265518D01*
X68888Y265521D01*
X68796Y265550D01*
X68707Y265580D01*
X68702Y265580D01*
X68697Y265581D01*
X68602Y265572D01*
X68507Y265565D01*
X68502Y265563D01*
X68497Y265563D01*
X68413Y265518D01*
X68328Y265474D01*
X68325Y265470D01*
X68320Y265468D01*
X68204Y265330D01*
X60914Y252704D01*
X60891Y252634D01*
X60860Y252566D01*
X60859Y252539D01*
X60850Y252514D01*
X60856Y252440D01*
X60853Y252366D01*
X60863Y252339D01*
X60865Y252314D01*
X60889Y252266D01*
X60914Y252196D01*
X68167Y239634D01*
X68169Y239631D01*
X68170Y239628D01*
X68233Y239559D01*
X68244Y239543D01*
X68250Y239539D01*
X68299Y239484D01*
X68303Y239482D01*
X68305Y239479D01*
X68392Y239439D01*
X68480Y239396D01*
X68483Y239396D01*
X68487Y239395D01*
X68583Y239391D01*
X68680Y239386D01*
X68683Y239387D01*
X68687Y239387D01*
X68778Y239421D01*
X68869Y239454D01*
X68871Y239456D01*
X68875Y239458D01*
X68978Y239551D01*
X68988Y239558D01*
X68991Y239563D01*
X69008Y239579D01*
X69213Y239845D01*
X71665Y241258D01*
X74471Y241626D01*
X77203Y240891D01*
X79447Y239167D01*
X142759Y129326D01*
X143126Y126520D01*
X142392Y123788D01*
X140668Y121544D01*
X138216Y120131D01*
X137987Y120101D01*
X137983Y120100D01*
X137979Y120100D01*
X137889Y120068D01*
X137798Y120036D01*
X137795Y120034D01*
X137791Y120032D01*
X137720Y119967D01*
X137648Y119903D01*
X137646Y119899D01*
X137643Y119897D01*
X137603Y119809D01*
X137561Y119722D01*
X137561Y119718D01*
X137559Y119714D01*
X137556Y119617D01*
X137552Y119522D01*
X137553Y119518D01*
X137553Y119514D01*
X137614Y119345D01*
X145172Y106252D01*
X145221Y106197D01*
X145264Y106137D01*
X145287Y106122D01*
X145305Y106102D01*
X145372Y106070D01*
X145434Y106031D01*
X145463Y106026D01*
X145485Y106015D01*
X145539Y106012D01*
X145612Y105999D01*
X314128Y105999D01*
X314201Y106013D01*
G37*
%LPC*%
G36*
X276771Y209069D02*
X276771Y209069D01*
X275092Y209765D01*
X275083Y209766D01*
X275076Y209771D01*
X274898Y209803D01*
X252787Y209803D01*
X250547Y210731D01*
X196761Y264517D01*
X195833Y266757D01*
X195833Y482768D01*
X195831Y482777D01*
X195833Y482786D01*
X195795Y482962D01*
X195099Y484641D01*
X195099Y487359D01*
X195795Y489038D01*
X195796Y489047D01*
X195801Y489054D01*
X195833Y489232D01*
X195833Y543503D01*
X196761Y545743D01*
X198548Y547530D01*
X210574Y559556D01*
X210579Y559564D01*
X210586Y559569D01*
X210684Y559720D01*
X211379Y561399D01*
X213301Y563321D01*
X213921Y563578D01*
X215146Y564085D01*
X215811Y564361D01*
X218529Y564361D01*
X220208Y563665D01*
X220217Y563664D01*
X220224Y563659D01*
X220402Y563627D01*
X228405Y563627D01*
X228412Y563628D01*
X228420Y563627D01*
X228510Y563648D01*
X228601Y563666D01*
X228608Y563671D01*
X228615Y563673D01*
X228763Y563775D01*
X239784Y574796D01*
X239789Y574804D01*
X239796Y574809D01*
X239894Y574960D01*
X240589Y576639D01*
X242511Y578561D01*
X243077Y578795D01*
X244190Y579256D01*
X244197Y579261D01*
X244206Y579263D01*
X244354Y579366D01*
X258625Y593637D01*
X258629Y593643D01*
X258635Y593648D01*
X258684Y593727D01*
X258736Y593804D01*
X258737Y593811D01*
X258741Y593818D01*
X258773Y593995D01*
X258773Y654437D01*
X258772Y654443D01*
X258773Y654450D01*
X258752Y654541D01*
X258734Y654633D01*
X258730Y654639D01*
X258728Y654645D01*
X258674Y654722D01*
X258621Y654799D01*
X258616Y654803D01*
X258612Y654808D01*
X258476Y654895D01*
X255291Y658080D01*
X253571Y662233D01*
X253571Y666727D01*
X255291Y670880D01*
X258470Y674059D01*
X258710Y674158D01*
X258711Y674158D01*
X259935Y674666D01*
X261160Y675173D01*
X262384Y675680D01*
X262623Y675779D01*
X267117Y675779D01*
X271270Y674059D01*
X274449Y670880D01*
X276169Y666727D01*
X276169Y662233D01*
X274449Y658080D01*
X271269Y654901D01*
X271268Y654900D01*
X271191Y654846D01*
X271114Y654794D01*
X271110Y654788D01*
X271105Y654784D01*
X271055Y654705D01*
X271003Y654626D01*
X271002Y654620D01*
X270999Y654614D01*
X270967Y654437D01*
X270967Y590047D01*
X270039Y587807D01*
X252976Y570744D01*
X252971Y570736D01*
X252964Y570731D01*
X252866Y570580D01*
X252171Y568901D01*
X250249Y566979D01*
X249194Y566542D01*
X248570Y566284D01*
X248563Y566279D01*
X248554Y566277D01*
X248406Y566174D01*
X236380Y554148D01*
X234593Y552361D01*
X234540Y552339D01*
X233315Y551832D01*
X232353Y551433D01*
X220402Y551433D01*
X220393Y551431D01*
X220384Y551433D01*
X220208Y551395D01*
X220039Y551325D01*
X220038Y551325D01*
X219360Y551044D01*
X219353Y551039D01*
X219344Y551037D01*
X219196Y550934D01*
X208175Y539913D01*
X208171Y539907D01*
X208165Y539902D01*
X208116Y539823D01*
X208064Y539746D01*
X208063Y539739D01*
X208059Y539732D01*
X208027Y539555D01*
X208027Y489232D01*
X208029Y489223D01*
X208027Y489214D01*
X208065Y489038D01*
X208761Y487359D01*
X208761Y484641D01*
X208065Y482962D01*
X208064Y482953D01*
X208059Y482946D01*
X208027Y482768D01*
X208027Y270705D01*
X208028Y270698D01*
X208027Y270690D01*
X208048Y270600D01*
X208066Y270509D01*
X208071Y270502D01*
X208073Y270495D01*
X208175Y270347D01*
X256377Y222145D01*
X256383Y222141D01*
X256388Y222135D01*
X256467Y222086D01*
X256544Y222034D01*
X256551Y222033D01*
X256558Y222029D01*
X256735Y221997D01*
X274898Y221997D01*
X274907Y221999D01*
X274916Y221997D01*
X275092Y222035D01*
X275095Y222036D01*
X275486Y222199D01*
X275487Y222199D01*
X276711Y222706D01*
X276771Y222731D01*
X279489Y222731D01*
X281168Y222035D01*
X281177Y222034D01*
X281184Y222029D01*
X281362Y221997D01*
X343478Y221997D01*
X343487Y221999D01*
X343496Y221997D01*
X343672Y222035D01*
X343675Y222036D01*
X344066Y222199D01*
X344067Y222199D01*
X345291Y222706D01*
X345351Y222731D01*
X348069Y222731D01*
X350579Y221691D01*
X352501Y219769D01*
X353541Y217259D01*
X353541Y214541D01*
X352501Y212031D01*
X350579Y210109D01*
X350184Y209945D01*
X348959Y209438D01*
X348069Y209069D01*
X345351Y209069D01*
X343672Y209765D01*
X343663Y209766D01*
X343656Y209771D01*
X343478Y209803D01*
X281362Y209803D01*
X281353Y209801D01*
X281344Y209803D01*
X281168Y209765D01*
X281165Y209764D01*
X280379Y209438D01*
X279489Y209069D01*
X276771Y209069D01*
G37*
%LPD*%
%LPC*%
G36*
X242481Y301779D02*
X242481Y301779D01*
X239971Y302819D01*
X238049Y304741D01*
X237009Y307251D01*
X237009Y309969D01*
X238049Y312479D01*
X239971Y314401D01*
X240254Y314518D01*
X241478Y315025D01*
X242481Y315441D01*
X245199Y315441D01*
X246796Y314779D01*
X246799Y314779D01*
X246801Y314777D01*
X246897Y314759D01*
X246993Y314740D01*
X246996Y314741D01*
X246998Y314740D01*
X247094Y314761D01*
X247189Y314781D01*
X247191Y314783D01*
X247194Y314783D01*
X247275Y314840D01*
X247354Y314895D01*
X247356Y314897D01*
X247358Y314898D01*
X247410Y314980D01*
X247463Y315063D01*
X247463Y315066D01*
X247465Y315068D01*
X247481Y315164D01*
X247497Y315261D01*
X247497Y315263D01*
X247497Y315266D01*
X247459Y315442D01*
X247169Y316141D01*
X247169Y318859D01*
X248209Y321369D01*
X250131Y323291D01*
X250994Y323649D01*
X252219Y324156D01*
X252641Y324331D01*
X255359Y324331D01*
X257869Y323291D01*
X259791Y321369D01*
X260831Y318859D01*
X260831Y318488D01*
X260832Y318483D01*
X260831Y318478D01*
X260852Y318384D01*
X260870Y318291D01*
X260873Y318287D01*
X260874Y318282D01*
X260930Y318204D01*
X260983Y318126D01*
X260987Y318123D01*
X260990Y318119D01*
X261072Y318068D01*
X261151Y318016D01*
X261156Y318016D01*
X261161Y318013D01*
X261338Y317981D01*
X263769Y317981D01*
X266279Y316941D01*
X268201Y315019D01*
X269241Y312509D01*
X269241Y309791D01*
X268201Y307281D01*
X266279Y305359D01*
X266157Y305308D01*
X264932Y304801D01*
X263769Y304319D01*
X261051Y304319D01*
X258541Y305359D01*
X256619Y307281D01*
X255579Y309791D01*
X255579Y310162D01*
X255578Y310167D01*
X255579Y310172D01*
X255558Y310265D01*
X255540Y310359D01*
X255537Y310363D01*
X255536Y310368D01*
X255480Y310446D01*
X255427Y310524D01*
X255423Y310527D01*
X255420Y310531D01*
X255338Y310582D01*
X255259Y310634D01*
X255254Y310634D01*
X255249Y310637D01*
X255072Y310669D01*
X252641Y310669D01*
X251044Y311331D01*
X251041Y311331D01*
X251039Y311333D01*
X250943Y311351D01*
X250847Y311370D01*
X250844Y311369D01*
X250842Y311370D01*
X250748Y311349D01*
X250651Y311329D01*
X250649Y311327D01*
X250646Y311327D01*
X250566Y311271D01*
X250486Y311216D01*
X250484Y311213D01*
X250482Y311212D01*
X250430Y311129D01*
X250377Y311047D01*
X250377Y311044D01*
X250375Y311042D01*
X250359Y310946D01*
X250343Y310849D01*
X250343Y310847D01*
X250343Y310844D01*
X250381Y310668D01*
X250671Y309969D01*
X250671Y307251D01*
X249631Y304741D01*
X247709Y302819D01*
X247596Y302772D01*
X246371Y302265D01*
X245199Y301779D01*
X242481Y301779D01*
G37*
%LPD*%
%LPC*%
G36*
X192623Y128131D02*
X192623Y128131D01*
X188470Y129851D01*
X185291Y133030D01*
X183571Y137183D01*
X183571Y141677D01*
X185291Y145830D01*
X188470Y149009D01*
X188822Y149155D01*
X190047Y149662D01*
X191271Y150169D01*
X192496Y150676D01*
X192623Y150729D01*
X197117Y150729D01*
X201270Y149009D01*
X204449Y145830D01*
X206169Y141677D01*
X206169Y137183D01*
X204449Y133030D01*
X201270Y129851D01*
X201146Y129800D01*
X199921Y129293D01*
X198697Y128785D01*
X197472Y128278D01*
X197117Y128131D01*
X192623Y128131D01*
G37*
%LPD*%
%LPC*%
G36*
X227623Y128131D02*
X227623Y128131D01*
X223470Y129851D01*
X220291Y133030D01*
X218571Y137183D01*
X218571Y141677D01*
X220291Y145830D01*
X223470Y149009D01*
X223822Y149155D01*
X225047Y149662D01*
X226271Y150169D01*
X227496Y150676D01*
X227623Y150729D01*
X232117Y150729D01*
X236270Y149009D01*
X239449Y145830D01*
X241169Y141677D01*
X241169Y137183D01*
X239449Y133030D01*
X236270Y129851D01*
X236146Y129800D01*
X234921Y129293D01*
X233697Y128785D01*
X232472Y128278D01*
X232117Y128131D01*
X227623Y128131D01*
G37*
%LPD*%
%LPC*%
G36*
X262623Y128131D02*
X262623Y128131D01*
X258470Y129851D01*
X255291Y133030D01*
X253571Y137183D01*
X253571Y141677D01*
X255291Y145830D01*
X258470Y149009D01*
X258822Y149155D01*
X260047Y149662D01*
X261271Y150169D01*
X262496Y150676D01*
X262623Y150729D01*
X267117Y150729D01*
X271270Y149009D01*
X274449Y145830D01*
X276169Y141677D01*
X276169Y137183D01*
X274449Y133030D01*
X271270Y129851D01*
X271146Y129800D01*
X269921Y129293D01*
X268697Y128785D01*
X267472Y128278D01*
X267117Y128131D01*
X262623Y128131D01*
G37*
%LPD*%
%LPC*%
G36*
X192623Y653181D02*
X192623Y653181D01*
X188470Y654901D01*
X185291Y658080D01*
X183571Y662233D01*
X183571Y666727D01*
X185291Y670880D01*
X188470Y674059D01*
X188710Y674158D01*
X188711Y674158D01*
X189935Y674666D01*
X191160Y675173D01*
X192384Y675680D01*
X192623Y675779D01*
X197117Y675779D01*
X201270Y674059D01*
X204449Y670880D01*
X206169Y666727D01*
X206169Y662233D01*
X204449Y658080D01*
X201270Y654901D01*
X201034Y654804D01*
X199810Y654296D01*
X199809Y654296D01*
X198585Y653789D01*
X197360Y653282D01*
X197117Y653181D01*
X192623Y653181D01*
G37*
%LPD*%
%LPC*%
G36*
X227623Y653181D02*
X227623Y653181D01*
X223470Y654901D01*
X220291Y658080D01*
X218571Y662233D01*
X218571Y666727D01*
X220291Y670880D01*
X223470Y674059D01*
X223710Y674158D01*
X223711Y674158D01*
X224935Y674666D01*
X226160Y675173D01*
X227384Y675680D01*
X227623Y675779D01*
X232117Y675779D01*
X236270Y674059D01*
X239449Y670880D01*
X241169Y666727D01*
X241169Y662233D01*
X239449Y658080D01*
X236270Y654901D01*
X236034Y654804D01*
X234810Y654296D01*
X234809Y654296D01*
X233585Y653789D01*
X232360Y653282D01*
X232117Y653181D01*
X227623Y653181D01*
G37*
%LPD*%
%LPC*%
G36*
X297623Y653181D02*
X297623Y653181D01*
X293470Y654901D01*
X290291Y658080D01*
X288571Y662233D01*
X288571Y666727D01*
X290291Y670880D01*
X293470Y674059D01*
X293710Y674158D01*
X293711Y674158D01*
X294935Y674666D01*
X296160Y675173D01*
X297384Y675680D01*
X297623Y675779D01*
X302117Y675779D01*
X306270Y674059D01*
X309449Y670880D01*
X311169Y666727D01*
X311169Y662233D01*
X309449Y658080D01*
X306270Y654901D01*
X306034Y654804D01*
X304810Y654296D01*
X304809Y654296D01*
X303585Y653789D01*
X302360Y653282D01*
X302117Y653181D01*
X297623Y653181D01*
G37*
%LPD*%
%LPC*%
G36*
X111009Y541019D02*
X111009Y541019D01*
X107274Y542566D01*
X104416Y545424D01*
X102869Y549159D01*
X102869Y553201D01*
X104416Y556936D01*
X107274Y559794D01*
X107837Y560027D01*
X107838Y560027D01*
X109062Y560534D01*
X110287Y561042D01*
X111009Y561341D01*
X115051Y561341D01*
X118786Y559794D01*
X121644Y556936D01*
X123191Y553201D01*
X123191Y549159D01*
X121644Y545424D01*
X118786Y542566D01*
X117888Y542194D01*
X117887Y542194D01*
X116663Y541687D01*
X115438Y541180D01*
X115051Y541019D01*
X111009Y541019D01*
G37*
%LPD*%
%LPC*%
G36*
X111009Y566419D02*
X111009Y566419D01*
X107274Y567966D01*
X104416Y570824D01*
X102869Y574559D01*
X102869Y578601D01*
X104416Y582336D01*
X107274Y585194D01*
X107747Y585390D01*
X108971Y585897D01*
X108972Y585897D01*
X110196Y586404D01*
X111009Y586741D01*
X115051Y586741D01*
X118786Y585194D01*
X121644Y582336D01*
X123191Y578601D01*
X123191Y574559D01*
X121644Y570824D01*
X118786Y567966D01*
X117797Y567557D01*
X116572Y567049D01*
X115348Y566542D01*
X115051Y566419D01*
X111009Y566419D01*
G37*
%LPD*%
%LPC*%
G36*
X345959Y565149D02*
X345959Y565149D01*
X342224Y566696D01*
X339366Y569554D01*
X337819Y573289D01*
X337819Y577331D01*
X339366Y581066D01*
X342224Y583924D01*
X343314Y584375D01*
X344538Y584882D01*
X345763Y585390D01*
X345959Y585471D01*
X350001Y585471D01*
X353736Y583924D01*
X356594Y581066D01*
X358141Y577331D01*
X358141Y573289D01*
X356594Y569554D01*
X353736Y566696D01*
X353364Y566542D01*
X352139Y566035D01*
X350915Y565528D01*
X350001Y565149D01*
X345959Y565149D01*
G37*
%LPD*%
%LPC*%
G36*
X345959Y539749D02*
X345959Y539749D01*
X342224Y541296D01*
X339366Y544154D01*
X337819Y547889D01*
X337819Y551931D01*
X339366Y555666D01*
X342224Y558524D01*
X343404Y559013D01*
X344629Y559520D01*
X345853Y560027D01*
X345854Y560027D01*
X345959Y560071D01*
X350001Y560071D01*
X353736Y558524D01*
X356594Y555666D01*
X358141Y551931D01*
X358141Y547889D01*
X356594Y544154D01*
X353736Y541296D01*
X353454Y541180D01*
X352230Y540672D01*
X351005Y540165D01*
X350001Y539749D01*
X345959Y539749D01*
G37*
%LPD*%
%LPC*%
G36*
X234861Y356389D02*
X234861Y356389D01*
X232351Y357429D01*
X230429Y359351D01*
X229389Y361861D01*
X229389Y364579D01*
X230321Y366829D01*
X230322Y366834D01*
X230325Y366838D01*
X230342Y366932D01*
X230360Y367025D01*
X230359Y367031D01*
X230360Y367036D01*
X230338Y367128D01*
X230319Y367222D01*
X230316Y367226D01*
X230315Y367231D01*
X230260Y367308D01*
X230206Y367387D01*
X230201Y367390D01*
X230198Y367394D01*
X230047Y367491D01*
X229811Y367589D01*
X227889Y369511D01*
X226849Y372021D01*
X226849Y374739D01*
X227889Y377249D01*
X229811Y379171D01*
X230475Y379446D01*
X231700Y379953D01*
X232321Y380211D01*
X235039Y380211D01*
X237549Y379171D01*
X239471Y377249D01*
X240511Y374739D01*
X240511Y372021D01*
X239579Y369771D01*
X239578Y369766D01*
X239575Y369762D01*
X239558Y369668D01*
X239540Y369575D01*
X239541Y369569D01*
X239540Y369564D01*
X239562Y369472D01*
X239581Y369378D01*
X239584Y369374D01*
X239585Y369369D01*
X239640Y369292D01*
X239694Y369213D01*
X239699Y369210D01*
X239702Y369206D01*
X239853Y369109D01*
X240089Y369011D01*
X242011Y367089D01*
X243051Y364579D01*
X243051Y361861D01*
X242011Y359351D01*
X240089Y357429D01*
X239169Y357048D01*
X237944Y356541D01*
X237579Y356389D01*
X234861Y356389D01*
G37*
%LPD*%
%LPC*%
G36*
X149771Y231929D02*
X149771Y231929D01*
X147261Y232969D01*
X145339Y234891D01*
X144299Y237401D01*
X144299Y240119D01*
X145339Y242629D01*
X147261Y244551D01*
X147683Y244726D01*
X147687Y244729D01*
X147692Y244730D01*
X147771Y244785D01*
X147849Y244837D01*
X147852Y244842D01*
X147856Y244845D01*
X147907Y244925D01*
X147959Y245005D01*
X147960Y245010D01*
X147963Y245015D01*
X147979Y245109D01*
X147996Y245202D01*
X147995Y245207D01*
X147996Y245212D01*
X147957Y245388D01*
X147501Y246489D01*
X147501Y249207D01*
X148541Y251717D01*
X150463Y253639D01*
X150485Y253648D01*
X151710Y254155D01*
X152934Y254663D01*
X152935Y254663D01*
X152973Y254679D01*
X155691Y254679D01*
X158201Y253639D01*
X160123Y251717D01*
X161163Y249207D01*
X161163Y246489D01*
X160123Y243979D01*
X158201Y242057D01*
X157827Y241902D01*
X157779Y241882D01*
X157775Y241879D01*
X157770Y241878D01*
X157691Y241823D01*
X157613Y241771D01*
X157610Y241766D01*
X157606Y241763D01*
X157555Y241683D01*
X157503Y241603D01*
X157502Y241598D01*
X157499Y241593D01*
X157484Y241499D01*
X157466Y241406D01*
X157467Y241401D01*
X157466Y241396D01*
X157505Y241220D01*
X157961Y240119D01*
X157961Y237401D01*
X156921Y234891D01*
X154999Y232969D01*
X154523Y232772D01*
X154522Y232772D01*
X153298Y232264D01*
X152489Y231929D01*
X149771Y231929D01*
G37*
%LPD*%
%LPC*%
G36*
X253911Y347499D02*
X253911Y347499D01*
X251401Y348539D01*
X249479Y350461D01*
X248439Y352971D01*
X248439Y355689D01*
X249479Y358199D01*
X251401Y360121D01*
X251521Y360171D01*
X252745Y360678D01*
X252746Y360678D01*
X253911Y361161D01*
X256629Y361161D01*
X259139Y360121D01*
X261083Y358177D01*
X261084Y358176D01*
X261085Y358175D01*
X261168Y358121D01*
X261250Y358066D01*
X261251Y358066D01*
X261252Y358065D01*
X261350Y358047D01*
X261396Y358038D01*
X261379Y358011D01*
X261325Y357926D01*
X261325Y357925D01*
X261324Y357924D01*
X261308Y357825D01*
X261291Y357729D01*
X261292Y357727D01*
X261291Y357726D01*
X261330Y357550D01*
X262101Y355689D01*
X262101Y352971D01*
X261061Y350461D01*
X259139Y348539D01*
X258863Y348425D01*
X257638Y347917D01*
X256629Y347499D01*
X253911Y347499D01*
G37*
%LPD*%
%LPC*%
G36*
X147231Y544349D02*
X147231Y544349D01*
X144721Y545389D01*
X142799Y547311D01*
X141759Y549821D01*
X141759Y552539D01*
X142799Y555049D01*
X144721Y556971D01*
X144751Y556984D01*
X144752Y556984D01*
X145976Y557491D01*
X147201Y557998D01*
X147231Y558011D01*
X149949Y558011D01*
X152459Y556971D01*
X154381Y555049D01*
X155421Y552539D01*
X155421Y549821D01*
X154381Y547311D01*
X152459Y545389D01*
X152094Y545238D01*
X152093Y545238D01*
X150869Y544730D01*
X149949Y544349D01*
X147231Y544349D01*
G37*
%LPD*%
%LPC*%
G36*
X323761Y491009D02*
X323761Y491009D01*
X321251Y492049D01*
X319329Y493971D01*
X318289Y496481D01*
X318289Y499199D01*
X319329Y501709D01*
X321251Y503631D01*
X321472Y503722D01*
X322696Y504230D01*
X323761Y504671D01*
X326479Y504671D01*
X328989Y503631D01*
X330911Y501709D01*
X331951Y499199D01*
X331951Y496481D01*
X330911Y493971D01*
X328989Y492049D01*
X328814Y491976D01*
X328813Y491976D01*
X327589Y491469D01*
X326479Y491009D01*
X323761Y491009D01*
G37*
%LPD*%
%LPC*%
G36*
X298361Y480849D02*
X298361Y480849D01*
X295851Y481889D01*
X293929Y483811D01*
X292889Y486321D01*
X292889Y489039D01*
X293929Y491549D01*
X295851Y493471D01*
X296108Y493577D01*
X297332Y494085D01*
X297333Y494085D01*
X298361Y494511D01*
X301079Y494511D01*
X303589Y493471D01*
X305511Y491549D01*
X306551Y489039D01*
X306551Y486321D01*
X305511Y483811D01*
X303589Y481889D01*
X303450Y481831D01*
X302225Y481324D01*
X301079Y480849D01*
X298361Y480849D01*
G37*
%LPD*%
%LPC*%
G36*
X138341Y463069D02*
X138341Y463069D01*
X135831Y464109D01*
X133909Y466031D01*
X132869Y468541D01*
X132869Y471259D01*
X133909Y473769D01*
X135831Y475691D01*
X136151Y475824D01*
X137376Y476331D01*
X138341Y476731D01*
X141059Y476731D01*
X143569Y475691D01*
X145491Y473769D01*
X146531Y471259D01*
X146531Y468541D01*
X145491Y466031D01*
X143569Y464109D01*
X143493Y464078D01*
X142269Y463570D01*
X142268Y463570D01*
X141059Y463069D01*
X138341Y463069D01*
G37*
%LPD*%
%LPC*%
G36*
X341541Y289079D02*
X341541Y289079D01*
X339031Y290119D01*
X337109Y292041D01*
X336069Y294551D01*
X336069Y297269D01*
X337109Y299779D01*
X339031Y301701D01*
X339359Y301837D01*
X340584Y302344D01*
X341541Y302741D01*
X344259Y302741D01*
X346769Y301701D01*
X348691Y299779D01*
X349731Y297269D01*
X349731Y294551D01*
X348691Y292041D01*
X346769Y290119D01*
X346701Y290091D01*
X345476Y289584D01*
X344259Y289079D01*
X341541Y289079D01*
G37*
%LPD*%
%LPC*%
G36*
X245021Y447829D02*
X245021Y447829D01*
X242511Y448869D01*
X240589Y450791D01*
X239549Y453301D01*
X239549Y456019D01*
X240589Y458529D01*
X242511Y460451D01*
X242885Y460606D01*
X242886Y460606D01*
X244110Y461113D01*
X245021Y461491D01*
X247739Y461491D01*
X250249Y460451D01*
X252171Y458529D01*
X253211Y456019D01*
X253211Y453301D01*
X252171Y450791D01*
X250249Y448869D01*
X250228Y448860D01*
X250227Y448860D01*
X249003Y448353D01*
X247778Y447846D01*
X247739Y447829D01*
X245021Y447829D01*
G37*
%LPD*%
%LPC*%
G36*
X177711Y430049D02*
X177711Y430049D01*
X175201Y431089D01*
X173279Y433011D01*
X172239Y435521D01*
X172239Y438239D01*
X173279Y440749D01*
X175201Y442671D01*
X175639Y442852D01*
X176863Y443360D01*
X176864Y443360D01*
X177711Y443711D01*
X180429Y443711D01*
X182939Y442671D01*
X184861Y440749D01*
X185901Y438239D01*
X185901Y435521D01*
X184861Y433011D01*
X182939Y431089D01*
X181756Y430599D01*
X180532Y430092D01*
X180429Y430049D01*
X177711Y430049D01*
G37*
%LPD*%
%LPC*%
G36*
X233591Y578639D02*
X233591Y578639D01*
X231081Y579679D01*
X229159Y581601D01*
X228119Y584111D01*
X228119Y586829D01*
X229159Y589339D01*
X231081Y591261D01*
X231601Y591477D01*
X231602Y591477D01*
X232826Y591984D01*
X233591Y592301D01*
X236309Y592301D01*
X238819Y591261D01*
X240741Y589339D01*
X241781Y586829D01*
X241781Y584111D01*
X240741Y581601D01*
X238819Y579679D01*
X237719Y579223D01*
X236494Y578716D01*
X236309Y578639D01*
X233591Y578639D01*
G37*
%LPD*%
%LPC*%
G36*
X364401Y262409D02*
X364401Y262409D01*
X361891Y263449D01*
X359969Y265371D01*
X358929Y267881D01*
X358929Y270599D01*
X359969Y273109D01*
X361891Y275031D01*
X362926Y275460D01*
X362927Y275460D01*
X364151Y275967D01*
X364401Y276071D01*
X367119Y276071D01*
X369629Y275031D01*
X371551Y273109D01*
X372591Y270599D01*
X372591Y267881D01*
X371551Y265371D01*
X369629Y263449D01*
X369044Y263207D01*
X367819Y262699D01*
X367119Y262409D01*
X364401Y262409D01*
G37*
%LPD*%
%LPC*%
G36*
X233591Y270029D02*
X233591Y270029D01*
X231081Y271069D01*
X229159Y272991D01*
X228119Y275501D01*
X228119Y278219D01*
X229159Y280729D01*
X231081Y282651D01*
X232089Y283069D01*
X233314Y283576D01*
X233591Y283691D01*
X236309Y283691D01*
X238819Y282651D01*
X240741Y280729D01*
X241781Y278219D01*
X241781Y275501D01*
X240741Y272991D01*
X238819Y271069D01*
X238207Y270815D01*
X236982Y270308D01*
X236309Y270029D01*
X233591Y270029D01*
G37*
%LPD*%
%LPC*%
G36*
X233591Y471959D02*
X233591Y471959D01*
X231081Y472999D01*
X229159Y474921D01*
X228119Y477431D01*
X228119Y480149D01*
X229159Y482659D01*
X231081Y484581D01*
X231982Y484954D01*
X233206Y485461D01*
X233207Y485461D01*
X233591Y485621D01*
X236309Y485621D01*
X238819Y484581D01*
X240741Y482659D01*
X241781Y480149D01*
X241781Y477431D01*
X240741Y474921D01*
X238819Y472999D01*
X238099Y472701D01*
X236875Y472194D01*
X236874Y472194D01*
X236309Y471959D01*
X233591Y471959D01*
G37*
%LPD*%
%LPC*%
G36*
X235416Y410589D02*
X235416Y410589D01*
X232906Y411629D01*
X230984Y413551D01*
X229944Y416061D01*
X229944Y418779D01*
X230984Y421289D01*
X232906Y423211D01*
X233789Y423577D01*
X235014Y424084D01*
X235416Y424251D01*
X238134Y424251D01*
X240644Y423211D01*
X242566Y421289D01*
X243606Y418779D01*
X243606Y416061D01*
X242566Y413551D01*
X240644Y411629D01*
X239907Y411324D01*
X238682Y410816D01*
X238134Y410589D01*
X235416Y410589D01*
G37*
%LPD*%
%LPC*%
G36*
X134305Y266219D02*
X134305Y266219D01*
X131795Y267259D01*
X129873Y269181D01*
X128833Y271691D01*
X128833Y274409D01*
X129873Y276919D01*
X131795Y278841D01*
X132204Y279011D01*
X132205Y279011D01*
X133429Y279518D01*
X134305Y279881D01*
X137023Y279881D01*
X139533Y278841D01*
X141455Y276919D01*
X142495Y274409D01*
X142495Y271691D01*
X141455Y269181D01*
X139533Y267259D01*
X138322Y266757D01*
X137097Y266250D01*
X137023Y266219D01*
X134305Y266219D01*
G37*
%LPD*%
%LPC*%
G36*
X177711Y373045D02*
X177711Y373045D01*
X175201Y374085D01*
X173279Y376007D01*
X172239Y378517D01*
X172239Y381235D01*
X173279Y383745D01*
X175201Y385667D01*
X176102Y386040D01*
X177327Y386548D01*
X177711Y386707D01*
X180429Y386707D01*
X182939Y385667D01*
X184861Y383745D01*
X185901Y381235D01*
X185901Y378517D01*
X184861Y376007D01*
X182939Y374085D01*
X182220Y373787D01*
X180995Y373280D01*
X180429Y373045D01*
X177711Y373045D01*
G37*
%LPD*%
%LPC*%
G36*
X283121Y116359D02*
X283121Y116359D01*
X280611Y117399D01*
X278689Y119321D01*
X277649Y121831D01*
X277649Y124549D01*
X278689Y127059D01*
X280611Y128981D01*
X281555Y129372D01*
X282779Y129879D01*
X283121Y130021D01*
X285839Y130021D01*
X288349Y128981D01*
X290271Y127059D01*
X291311Y124549D01*
X291311Y121831D01*
X290271Y119321D01*
X288349Y117399D01*
X287672Y117119D01*
X286448Y116611D01*
X286447Y116611D01*
X285839Y116359D01*
X283121Y116359D01*
G37*
%LPD*%
%LPC*%
G36*
X218351Y409729D02*
X218351Y409729D01*
X215841Y410769D01*
X213919Y412691D01*
X212879Y415201D01*
X212879Y417919D01*
X213919Y420429D01*
X215841Y422351D01*
X216351Y422562D01*
X217576Y423070D01*
X218351Y423391D01*
X221069Y423391D01*
X223579Y422351D01*
X225501Y420429D01*
X226541Y417919D01*
X226541Y415201D01*
X225501Y412691D01*
X223579Y410769D01*
X222469Y410309D01*
X221244Y409802D01*
X221069Y409729D01*
X218351Y409729D01*
G37*
%LPD*%
%LPC*%
G36*
X184553Y281951D02*
X184553Y281951D01*
X182042Y282991D01*
X180121Y284912D01*
X179081Y287423D01*
X179081Y290140D01*
X180121Y292651D01*
X182042Y294572D01*
X182436Y294735D01*
X183660Y295243D01*
X184553Y295612D01*
X187270Y295612D01*
X189781Y294572D01*
X191702Y292651D01*
X192742Y290140D01*
X192742Y287423D01*
X191702Y284912D01*
X189781Y282991D01*
X189778Y282989D01*
X188553Y282482D01*
X187329Y281975D01*
X187328Y281975D01*
X187270Y281951D01*
X184553Y281951D01*
G37*
%LPD*%
%LPC*%
G36*
X295821Y427509D02*
X295821Y427509D01*
X293311Y428549D01*
X291389Y430471D01*
X290349Y432981D01*
X290349Y435699D01*
X291389Y438209D01*
X293311Y440131D01*
X293758Y440316D01*
X294982Y440823D01*
X294983Y440823D01*
X295821Y441171D01*
X298539Y441171D01*
X301049Y440131D01*
X302971Y438209D01*
X304011Y435699D01*
X304011Y432981D01*
X302971Y430471D01*
X301049Y428549D01*
X299875Y428063D01*
X298651Y427556D01*
X298539Y427509D01*
X295821Y427509D01*
G37*
%LPD*%
%LPC*%
G36*
X135801Y610389D02*
X135801Y610389D01*
X133291Y611429D01*
X131369Y613351D01*
X130329Y615861D01*
X130329Y618579D01*
X131369Y621089D01*
X133291Y623011D01*
X134311Y623433D01*
X135535Y623941D01*
X135801Y624051D01*
X138519Y624051D01*
X141029Y623011D01*
X142951Y621089D01*
X143991Y618579D01*
X143991Y615861D01*
X142951Y613351D01*
X141029Y611429D01*
X140428Y611180D01*
X139204Y610673D01*
X139203Y610673D01*
X138519Y610389D01*
X135801Y610389D01*
G37*
%LPD*%
%LPC*%
G36*
X325031Y610389D02*
X325031Y610389D01*
X322521Y611429D01*
X320599Y613351D01*
X319559Y615861D01*
X319559Y618579D01*
X320599Y621089D01*
X322521Y623011D01*
X323541Y623433D01*
X324765Y623941D01*
X325031Y624051D01*
X327749Y624051D01*
X330259Y623011D01*
X332181Y621089D01*
X333221Y618579D01*
X333221Y615861D01*
X332181Y613351D01*
X330259Y611429D01*
X329658Y611180D01*
X328434Y610673D01*
X328433Y610673D01*
X327749Y610389D01*
X325031Y610389D01*
G37*
%LPD*%
%LPC*%
G36*
X116751Y291619D02*
X116751Y291619D01*
X114241Y292659D01*
X112319Y294581D01*
X111279Y297091D01*
X111279Y299809D01*
X112319Y302319D01*
X114241Y304241D01*
X114560Y304373D01*
X115785Y304880D01*
X116751Y305281D01*
X119469Y305281D01*
X121979Y304241D01*
X123901Y302319D01*
X124941Y299809D01*
X124941Y297091D01*
X123901Y294581D01*
X121979Y292659D01*
X121902Y292627D01*
X120677Y292120D01*
X119469Y291619D01*
X116751Y291619D01*
G37*
%LPD*%
%LPC*%
G36*
X159931Y117629D02*
X159931Y117629D01*
X157421Y118669D01*
X155499Y120591D01*
X154459Y123101D01*
X154459Y125819D01*
X155499Y128329D01*
X157421Y130251D01*
X157748Y130386D01*
X158972Y130894D01*
X158973Y130894D01*
X159931Y131291D01*
X162649Y131291D01*
X165159Y130251D01*
X167081Y128329D01*
X168121Y125819D01*
X168121Y123101D01*
X167081Y120591D01*
X165159Y118669D01*
X165090Y118640D01*
X163865Y118133D01*
X162649Y117629D01*
X159931Y117629D01*
G37*
%LPD*%
%LPC*%
G36*
X243751Y394489D02*
X243751Y394489D01*
X241241Y395529D01*
X239319Y397451D01*
X238279Y399961D01*
X238279Y402679D01*
X239319Y405189D01*
X241241Y407111D01*
X241806Y407345D01*
X243030Y407852D01*
X243751Y408151D01*
X246469Y408151D01*
X248979Y407111D01*
X250901Y405189D01*
X251941Y402679D01*
X251941Y399961D01*
X250901Y397451D01*
X248979Y395529D01*
X247923Y395092D01*
X246698Y394584D01*
X246469Y394489D01*
X243751Y394489D01*
G37*
%LPD*%
%LPC*%
G36*
X309937Y268089D02*
X309937Y268089D01*
X307427Y269129D01*
X305505Y271051D01*
X304465Y273561D01*
X304465Y276279D01*
X305505Y278789D01*
X307427Y280711D01*
X308220Y281040D01*
X309445Y281547D01*
X309937Y281751D01*
X312655Y281751D01*
X315165Y280711D01*
X317087Y278789D01*
X318127Y276279D01*
X318127Y273561D01*
X317087Y271051D01*
X315165Y269129D01*
X314338Y268786D01*
X313113Y268279D01*
X312655Y268089D01*
X309937Y268089D01*
G37*
%LPD*%
%LPC*%
G36*
X159931Y495835D02*
X159931Y495835D01*
X157421Y496875D01*
X155499Y498797D01*
X154459Y501307D01*
X154459Y504025D01*
X155499Y506535D01*
X157421Y508457D01*
X158237Y508795D01*
X159461Y509302D01*
X159931Y509497D01*
X162649Y509497D01*
X165159Y508457D01*
X167081Y506535D01*
X168121Y504025D01*
X168121Y501307D01*
X167081Y498797D01*
X165159Y496875D01*
X164354Y496542D01*
X163130Y496034D01*
X163129Y496034D01*
X162649Y495835D01*
X159931Y495835D01*
G37*
%LPD*%
%LPC*%
G36*
X153581Y259869D02*
X153581Y259869D01*
X151071Y260909D01*
X149149Y262831D01*
X148109Y265341D01*
X148109Y268059D01*
X149149Y270569D01*
X151071Y272491D01*
X152115Y272924D01*
X152116Y272924D01*
X153340Y273431D01*
X153581Y273531D01*
X156299Y273531D01*
X158809Y272491D01*
X160731Y270569D01*
X161771Y268059D01*
X161771Y265341D01*
X160731Y262831D01*
X158809Y260909D01*
X158233Y260670D01*
X157008Y260163D01*
X156299Y259869D01*
X153581Y259869D01*
G37*
%LPD*%
%LPC*%
G36*
X156248Y430176D02*
X156248Y430176D01*
X153738Y431216D01*
X151816Y433138D01*
X150776Y435648D01*
X150776Y438366D01*
X151816Y440876D01*
X153738Y442798D01*
X153869Y442852D01*
X155094Y443360D01*
X156248Y443838D01*
X158966Y443838D01*
X161476Y442798D01*
X163398Y440876D01*
X164438Y438366D01*
X164438Y435648D01*
X163398Y433138D01*
X161476Y431216D01*
X161211Y431106D01*
X159987Y430599D01*
X158966Y430176D01*
X156248Y430176D01*
G37*
%LPD*%
%LPC*%
G36*
X158661Y452909D02*
X158661Y452909D01*
X156151Y453949D01*
X154229Y455871D01*
X153189Y458381D01*
X153189Y461099D01*
X154229Y463609D01*
X156151Y465531D01*
X156507Y465679D01*
X156508Y465679D01*
X157732Y466186D01*
X158661Y466571D01*
X161379Y466571D01*
X163889Y465531D01*
X165811Y463609D01*
X166851Y461099D01*
X166851Y458381D01*
X165811Y455871D01*
X163889Y453949D01*
X163849Y453933D01*
X162625Y453425D01*
X161400Y452918D01*
X161379Y452909D01*
X158661Y452909D01*
G37*
%LPD*%
%LPC*%
G36*
X118021Y250979D02*
X118021Y250979D01*
X115511Y252019D01*
X113589Y253941D01*
X112549Y256451D01*
X112549Y259169D01*
X113589Y261679D01*
X115511Y263601D01*
X115975Y263793D01*
X117199Y264300D01*
X117200Y264300D01*
X118021Y264641D01*
X120739Y264641D01*
X123249Y263601D01*
X125171Y261679D01*
X126211Y259169D01*
X126211Y256451D01*
X125171Y253941D01*
X123249Y252019D01*
X122092Y251540D01*
X120868Y251033D01*
X120739Y250979D01*
X118021Y250979D01*
G37*
%LPD*%
%LPC*%
G36*
X177711Y398299D02*
X177711Y398299D01*
X175201Y399339D01*
X173279Y401261D01*
X172239Y403771D01*
X172239Y406489D01*
X173279Y408999D01*
X175201Y410921D01*
X176364Y411403D01*
X177589Y411910D01*
X177711Y411961D01*
X180429Y411961D01*
X182939Y410921D01*
X184861Y408999D01*
X185901Y406489D01*
X185901Y403771D01*
X184861Y401261D01*
X182939Y399339D01*
X182482Y399150D01*
X181257Y398642D01*
X180429Y398299D01*
X177711Y398299D01*
G37*
%LPD*%
%LPC*%
G36*
X250101Y550699D02*
X250101Y550699D01*
X247591Y551739D01*
X245669Y553661D01*
X244629Y556171D01*
X244629Y558889D01*
X245669Y561399D01*
X247591Y563321D01*
X248211Y563578D01*
X249436Y564085D01*
X250101Y564361D01*
X252819Y564361D01*
X255329Y563321D01*
X257251Y561399D01*
X258291Y558889D01*
X258291Y556171D01*
X257251Y553661D01*
X255329Y551739D01*
X254329Y551325D01*
X254328Y551325D01*
X253104Y550817D01*
X252819Y550699D01*
X250101Y550699D01*
G37*
%LPD*%
%LPC*%
G36*
X246291Y587529D02*
X246291Y587529D01*
X243781Y588569D01*
X241859Y590491D01*
X240819Y593001D01*
X240819Y595719D01*
X241859Y598229D01*
X243781Y600151D01*
X244882Y600607D01*
X246107Y601114D01*
X246291Y601191D01*
X249009Y601191D01*
X251519Y600151D01*
X253441Y598229D01*
X254481Y595719D01*
X254481Y593001D01*
X253441Y590491D01*
X251519Y588569D01*
X251000Y588354D01*
X250999Y588354D01*
X249775Y587847D01*
X249009Y587529D01*
X246291Y587529D01*
G37*
%LPD*%
%LPC*%
G36*
X161658Y312753D02*
X161658Y312753D01*
X159147Y313793D01*
X157225Y315714D01*
X156186Y318225D01*
X156186Y320942D01*
X157225Y323453D01*
X159147Y325375D01*
X159879Y325678D01*
X161103Y326185D01*
X161658Y326414D01*
X164375Y326414D01*
X166886Y325375D01*
X168807Y323453D01*
X169847Y320942D01*
X169847Y318225D01*
X168807Y315714D01*
X166886Y313793D01*
X165996Y313424D01*
X164772Y312917D01*
X164771Y312917D01*
X164375Y312753D01*
X161658Y312753D01*
G37*
%LPD*%
%LPC*%
G36*
X227241Y285269D02*
X227241Y285269D01*
X224731Y286309D01*
X222809Y288231D01*
X221769Y290741D01*
X221769Y293459D01*
X222809Y295969D01*
X224731Y297891D01*
X225685Y298286D01*
X226909Y298793D01*
X226910Y298793D01*
X227241Y298931D01*
X229959Y298931D01*
X232469Y297891D01*
X234391Y295969D01*
X235431Y293459D01*
X235431Y290741D01*
X234391Y288231D01*
X232469Y286309D01*
X231802Y286033D01*
X230578Y285526D01*
X229959Y285269D01*
X227241Y285269D01*
G37*
%LPD*%
%LPC*%
G36*
X102781Y276379D02*
X102781Y276379D01*
X100271Y277419D01*
X98349Y279341D01*
X97309Y281851D01*
X97309Y284569D01*
X98349Y287079D01*
X100271Y289001D01*
X100644Y289156D01*
X101869Y289663D01*
X102781Y290041D01*
X105499Y290041D01*
X108009Y289001D01*
X109931Y287079D01*
X110971Y284569D01*
X110971Y281851D01*
X109931Y279341D01*
X108009Y277419D01*
X107986Y277410D01*
X106762Y276902D01*
X105537Y276395D01*
X105499Y276379D01*
X102781Y276379D01*
G37*
%LPD*%
%LPC*%
G36*
X161201Y372899D02*
X161201Y372899D01*
X158691Y373939D01*
X156769Y375861D01*
X155729Y378371D01*
X155729Y381089D01*
X156769Y383599D01*
X158691Y385521D01*
X158720Y385533D01*
X159945Y386040D01*
X161169Y386548D01*
X161170Y386548D01*
X161201Y386561D01*
X163919Y386561D01*
X166429Y385521D01*
X168351Y383599D01*
X169391Y381089D01*
X169391Y378371D01*
X168351Y375861D01*
X166429Y373939D01*
X166062Y373787D01*
X164838Y373280D01*
X163919Y372899D01*
X161201Y372899D01*
G37*
%LPD*%
%LPC*%
G36*
X321221Y172239D02*
X321221Y172239D01*
X318711Y173279D01*
X316789Y175201D01*
X315749Y177711D01*
X315749Y180429D01*
X316789Y182939D01*
X318711Y184861D01*
X319455Y185169D01*
X319456Y185169D01*
X320680Y185677D01*
X321221Y185901D01*
X323939Y185901D01*
X326449Y184861D01*
X328371Y182939D01*
X329411Y180429D01*
X329411Y177711D01*
X328371Y175201D01*
X326449Y173279D01*
X325573Y172916D01*
X324348Y172409D01*
X323939Y172239D01*
X321221Y172239D01*
G37*
%LPD*%
%LPC*%
G36*
X135801Y162079D02*
X135801Y162079D01*
X133291Y163119D01*
X131369Y165041D01*
X130329Y167551D01*
X130329Y170269D01*
X131369Y172779D01*
X133291Y174701D01*
X134072Y175024D01*
X135296Y175532D01*
X135801Y175741D01*
X138519Y175741D01*
X141029Y174701D01*
X142951Y172779D01*
X143991Y170269D01*
X143991Y167551D01*
X142951Y165041D01*
X141029Y163119D01*
X140189Y162771D01*
X138965Y162264D01*
X138964Y162264D01*
X138519Y162079D01*
X135801Y162079D01*
G37*
%LPD*%
D10*
X159870Y664480D03*
X194870Y664480D03*
X229870Y664480D03*
X264870Y664480D03*
X299870Y664480D03*
X264870Y139430D03*
X229870Y139430D03*
X194870Y139430D03*
D11*
X347980Y575310D03*
X347980Y549910D03*
X347980Y524510D03*
X113030Y576580D03*
X113030Y551180D03*
X113030Y525780D03*
D12*
X228600Y292100D03*
X234950Y276860D03*
X104140Y283210D03*
X255270Y354330D03*
X161290Y124460D03*
X284480Y123190D03*
X331470Y252730D03*
X311150Y427990D03*
X234950Y585470D03*
X148590Y551180D03*
X247650Y594360D03*
X325120Y497840D03*
X160020Y459740D03*
X76200Y534670D03*
D13*
X137160Y429260D01*
D12*
X137160Y429260D03*
X384810Y534670D03*
D13*
X323850Y429260D01*
D12*
X323850Y429260D03*
X74545Y269905D03*
D13*
X137160Y377190D01*
D12*
X137160Y377190D03*
X385195Y269905D03*
D13*
X332235Y361659D01*
X308610Y402590D01*
X323850Y429260D01*
D12*
X73991Y234390D03*
D13*
X135890Y127000D01*
D12*
X135890Y127000D03*
X185912Y288782D03*
X163016Y319584D03*
X267970Y361950D03*
D14*
X308610Y402590D01*
D12*
X306070Y241300D03*
D14*
X356590Y241300D01*
X385195Y269905D01*
D12*
X322692Y126662D03*
D13*
X384810Y234950D01*
D12*
X384810Y234950D03*
X295025Y342515D03*
D14*
X314168Y361659D01*
X332235Y361659D01*
D12*
X161290Y502666D03*
X311296Y274920D03*
X365760Y269240D03*
X179070Y405130D03*
X179070Y436880D03*
X157607Y437007D03*
X135890Y251460D03*
X238760Y262230D03*
X369570Y232410D03*
X176530Y685800D03*
X212090Y685800D03*
X247650Y685800D03*
X281940Y685800D03*
X204470Y617220D03*
X214630Y635000D03*
X233680Y615950D03*
X128270Y510540D03*
X325120Y513080D03*
X181610Y162560D03*
X203200Y162560D03*
X246380Y162560D03*
X275590Y160020D03*
X212090Y125730D03*
X246380Y124460D03*
X256540Y365760D03*
X179070Y363220D03*
X245110Y401320D03*
X299720Y487680D03*
X251460Y557530D03*
X243840Y308610D03*
X119380Y257810D03*
X246380Y572770D03*
D15*
X231140Y557530D01*
X217170Y557530D01*
D12*
X217170Y557530D03*
D15*
X201930Y542290D01*
X201930Y486000D01*
D12*
X201930Y486000D03*
D15*
X201930Y267970D01*
X254000Y215900D01*
X278130Y215900D01*
D12*
X278130Y215900D03*
D15*
X346710Y215900D01*
D12*
X346710Y215900D03*
D15*
X246380Y572770D02*
X264870Y591260D01*
X264870Y664480D01*
D12*
X234950Y478790D03*
X219710Y416560D03*
X236220Y363220D03*
X246380Y454660D03*
X233680Y373380D03*
X236775Y417420D03*
X162560Y379730D03*
X179070Y379876D03*
X154940Y266700D03*
X154332Y247848D03*
X151130Y238760D03*
X342900Y295910D03*
X322580Y179070D03*
X262410Y311150D03*
X254000Y317500D03*
X297180Y434340D03*
X139700Y469900D03*
X137160Y168910D03*
X137160Y617220D03*
X326390Y617220D03*
X118110Y298450D03*
X135664Y273050D03*
M02*
