G04 EAGLE Gerber RS-274X export*
G75*
%MOMM*%
%FSLAX34Y34*%
%LPD*%
%INBottom Copper*%
%IPPOS*%
%AMOC8*
5,1,8,0,0,1.08239X$1,22.5*%
G01*
%ADD10R,1.000000X1.100000*%
%ADD11R,1.300000X1.500000*%
%ADD12R,1.399997X0.400000*%
%ADD13R,1.100000X1.000000*%
%ADD14R,1.500000X1.300000*%
%ADD15C,0.499997*%
%ADD16C,1.700000*%
%ADD17C,1.422400*%
%ADD18C,1.000000*%
%ADD19C,0.300000*%
%ADD20C,0.756400*%
%ADD21C,0.304800*%
%ADD22C,0.254000*%
%ADD23C,1.270000*%
%ADD24C,0.406400*%
%ADD25C,0.609600*%

G36*
X318300Y276707D02*
X318300Y276707D01*
X318304Y276706D01*
X318398Y276728D01*
X318492Y276748D01*
X318496Y276751D01*
X318499Y276752D01*
X318647Y276854D01*
X322939Y281146D01*
X322943Y281152D01*
X322949Y281157D01*
X322998Y281235D01*
X323050Y281312D01*
X323051Y281319D01*
X323052Y281320D01*
X323052Y281321D01*
X323055Y281327D01*
X323087Y281504D01*
X323087Y305236D01*
X323086Y305244D01*
X323087Y305251D01*
X323066Y305341D01*
X323048Y305432D01*
X323043Y305439D01*
X323041Y305446D01*
X322939Y305594D01*
X322105Y306429D01*
X322104Y306429D01*
X319277Y309256D01*
X319277Y348416D01*
X319276Y348424D01*
X319277Y348431D01*
X319256Y348521D01*
X319238Y348612D01*
X319233Y348619D01*
X319231Y348627D01*
X319129Y348775D01*
X280194Y387709D01*
X277367Y390536D01*
X277367Y574664D01*
X280194Y577491D01*
X280195Y577491D01*
X319411Y616707D01*
X319415Y616714D01*
X319421Y616719D01*
X319470Y616797D01*
X319522Y616874D01*
X319523Y616882D01*
X319527Y616889D01*
X319559Y617066D01*
X319559Y618579D01*
X320599Y621089D01*
X322521Y623011D01*
X323541Y623433D01*
X324765Y623941D01*
X325031Y624051D01*
X327749Y624051D01*
X328546Y623720D01*
X328608Y623708D01*
X328668Y623687D01*
X328706Y623689D01*
X328743Y623682D01*
X328805Y623695D01*
X328868Y623698D01*
X328902Y623715D01*
X328939Y623722D01*
X328991Y623758D01*
X329048Y623786D01*
X329076Y623816D01*
X329104Y623836D01*
X329129Y623875D01*
X329170Y623919D01*
X329341Y624191D01*
X329366Y624257D01*
X329399Y624320D01*
X329402Y624352D01*
X329412Y624379D01*
X329410Y624430D01*
X329417Y624499D01*
X329315Y625864D01*
X329296Y625932D01*
X329286Y626001D01*
X329269Y626030D01*
X329261Y626057D01*
X329229Y626097D01*
X329194Y626157D01*
X329106Y626259D01*
X329193Y627422D01*
X329191Y627443D01*
X329194Y627462D01*
X329191Y627476D01*
X329193Y627498D01*
X329107Y628660D01*
X329195Y628763D01*
X329230Y628825D01*
X329271Y628882D01*
X329279Y628913D01*
X329293Y628938D01*
X329299Y628989D01*
X329316Y629056D01*
X329419Y630420D01*
X329410Y630490D01*
X329410Y630561D01*
X329398Y630592D01*
X329394Y630619D01*
X329369Y630664D01*
X329354Y630701D01*
X329343Y630728D01*
X329271Y630843D01*
X329531Y631979D01*
X329532Y632014D01*
X329542Y632054D01*
X329630Y633217D01*
X329732Y633305D01*
X329776Y633361D01*
X329825Y633411D01*
X329838Y633441D01*
X329855Y633463D01*
X329869Y633513D01*
X329896Y633577D01*
X330201Y634911D01*
X330203Y634981D01*
X330213Y635051D01*
X330205Y635083D01*
X330206Y635111D01*
X330187Y635159D01*
X330171Y635227D01*
X330117Y635351D01*
X330544Y636436D01*
X330550Y636470D01*
X330566Y636508D01*
X330826Y637645D01*
X330940Y637717D01*
X330992Y637765D01*
X331048Y637808D01*
X331065Y637835D01*
X331086Y637855D01*
X331106Y637902D01*
X331143Y637961D01*
X331643Y639234D01*
X331655Y639304D01*
X331676Y639372D01*
X331673Y639404D01*
X331678Y639432D01*
X331667Y639482D01*
X331661Y639551D01*
X331626Y639682D01*
X332209Y640691D01*
X332220Y640724D01*
X332242Y640760D01*
X332669Y641845D01*
X332793Y641899D01*
X332850Y641939D01*
X332913Y641973D01*
X332934Y641998D01*
X332957Y642014D01*
X332984Y642057D01*
X333029Y642110D01*
X333714Y643295D01*
X333736Y643362D01*
X333766Y643426D01*
X333769Y643458D01*
X333778Y643485D01*
X333774Y643536D01*
X333778Y643605D01*
X333763Y643740D01*
X334491Y644651D01*
X334506Y644682D01*
X334533Y644714D01*
X335117Y645723D01*
X335247Y645758D01*
X335310Y645790D01*
X335377Y645813D01*
X335402Y645835D01*
X335427Y645847D01*
X335461Y645886D01*
X335513Y645932D01*
X336366Y647001D01*
X336398Y647064D01*
X336438Y647123D01*
X336445Y647155D01*
X336458Y647180D01*
X336462Y647231D01*
X336477Y647299D01*
X336482Y647434D01*
X337337Y648227D01*
X337357Y648255D01*
X337388Y648282D01*
X338116Y649194D01*
X338250Y649209D01*
X338317Y649230D01*
X338386Y649244D01*
X338414Y649261D01*
X338441Y649270D01*
X338480Y649304D01*
X338538Y649341D01*
X339542Y650271D01*
X339583Y650329D01*
X339631Y650381D01*
X339642Y650411D01*
X339659Y650434D01*
X339670Y650484D01*
X339695Y650549D01*
X339720Y650682D01*
X340684Y651338D01*
X340708Y651363D01*
X340743Y651385D01*
X341170Y651781D01*
X341199Y651821D01*
X341235Y651854D01*
X341257Y651901D01*
X341287Y651944D01*
X341298Y651992D01*
X341319Y652037D01*
X341320Y652088D01*
X341332Y652139D01*
X341323Y652188D01*
X341325Y652237D01*
X341305Y652291D01*
X341298Y652336D01*
X341279Y652366D01*
X341264Y652406D01*
X314568Y698648D01*
X314519Y698703D01*
X314476Y698763D01*
X314453Y698778D01*
X314435Y698798D01*
X314368Y698830D01*
X314306Y698869D01*
X314277Y698874D01*
X314255Y698885D01*
X314201Y698888D01*
X314128Y698901D01*
X145612Y698901D01*
X145539Y698887D01*
X145466Y698880D01*
X145442Y698867D01*
X145415Y698862D01*
X145354Y698820D01*
X145289Y698785D01*
X145270Y698763D01*
X145249Y698749D01*
X145220Y698704D01*
X145172Y698648D01*
X118476Y652406D01*
X118460Y652360D01*
X118435Y652317D01*
X118428Y652266D01*
X118412Y652217D01*
X118416Y652167D01*
X118409Y652118D01*
X118423Y652068D01*
X118427Y652017D01*
X118449Y651973D01*
X118462Y651925D01*
X118497Y651879D01*
X118518Y651838D01*
X118545Y651815D01*
X118570Y651781D01*
X118997Y651385D01*
X119027Y651367D01*
X119056Y651338D01*
X120020Y650682D01*
X120045Y650549D01*
X120071Y650483D01*
X120090Y650415D01*
X120110Y650389D01*
X120120Y650363D01*
X120157Y650327D01*
X120198Y650271D01*
X121202Y649341D01*
X121262Y649304D01*
X121317Y649260D01*
X121349Y649251D01*
X121373Y649236D01*
X121424Y649229D01*
X121490Y649209D01*
X121624Y649194D01*
X122352Y648282D01*
X122378Y648260D01*
X122403Y648227D01*
X123258Y647434D01*
X123263Y647299D01*
X123280Y647230D01*
X123288Y647160D01*
X123304Y647131D01*
X123310Y647104D01*
X123341Y647062D01*
X123374Y647002D01*
X124227Y645932D01*
X124281Y645887D01*
X124330Y645835D01*
X124359Y645821D01*
X124381Y645803D01*
X124430Y645788D01*
X124493Y645758D01*
X124623Y645723D01*
X125207Y644714D01*
X125230Y644688D01*
X125249Y644651D01*
X125977Y643740D01*
X125962Y643605D01*
X125968Y643535D01*
X125965Y643465D01*
X125977Y643434D01*
X125979Y643406D01*
X126003Y643360D01*
X126026Y643295D01*
X126711Y642110D01*
X126758Y642057D01*
X126798Y641999D01*
X126825Y641981D01*
X126844Y641960D01*
X126890Y641937D01*
X126947Y641899D01*
X127071Y641845D01*
X127498Y640760D01*
X127517Y640730D01*
X127531Y640691D01*
X128114Y639682D01*
X128079Y639551D01*
X128075Y639481D01*
X128062Y639411D01*
X128068Y639379D01*
X128067Y639351D01*
X128083Y639302D01*
X128097Y639234D01*
X128597Y637961D01*
X128635Y637902D01*
X128666Y637838D01*
X128691Y637816D01*
X128706Y637792D01*
X128748Y637763D01*
X128800Y637717D01*
X128914Y637645D01*
X129174Y636508D01*
X129188Y636477D01*
X129196Y636436D01*
X129623Y635351D01*
X129569Y635227D01*
X129554Y635157D01*
X129531Y635091D01*
X129532Y635058D01*
X129526Y635031D01*
X129536Y634980D01*
X129539Y634911D01*
X129844Y633577D01*
X129873Y633513D01*
X129894Y633445D01*
X129915Y633420D01*
X129926Y633394D01*
X129964Y633359D01*
X130008Y633305D01*
X130110Y633217D01*
X130198Y632054D01*
X130207Y632021D01*
X130209Y631979D01*
X130469Y630843D01*
X130397Y630728D01*
X130382Y630688D01*
X130378Y630682D01*
X130377Y630675D01*
X130372Y630662D01*
X130339Y630600D01*
X130336Y630567D01*
X130326Y630541D01*
X130328Y630489D01*
X130321Y630420D01*
X130424Y629056D01*
X130443Y628988D01*
X130454Y628918D01*
X130470Y628890D01*
X130478Y628863D01*
X130510Y628823D01*
X130545Y628763D01*
X130633Y628660D01*
X130547Y627498D01*
X130550Y627467D01*
X130546Y627441D01*
X130548Y627433D01*
X130547Y627422D01*
X130634Y626259D01*
X130546Y626157D01*
X130511Y626095D01*
X130470Y626038D01*
X130461Y626006D01*
X130448Y625982D01*
X130442Y625931D01*
X130425Y625864D01*
X130323Y624499D01*
X130332Y624429D01*
X130332Y624358D01*
X130344Y624328D01*
X130348Y624300D01*
X130373Y624255D01*
X130399Y624191D01*
X130471Y624077D01*
X130212Y622940D01*
X130211Y622905D01*
X130201Y622865D01*
X130114Y621702D01*
X130012Y621614D01*
X129968Y621558D01*
X129919Y621508D01*
X129906Y621478D01*
X129889Y621456D01*
X129875Y621406D01*
X129848Y621342D01*
X129544Y620008D01*
X129542Y619938D01*
X129532Y619868D01*
X129540Y619836D01*
X129539Y619808D01*
X129558Y619760D01*
X129574Y619692D01*
X129628Y619569D01*
X129388Y618957D01*
X129372Y618863D01*
X129353Y618770D01*
X129354Y618765D01*
X129353Y618760D01*
X129375Y618667D01*
X129394Y618573D01*
X129397Y618569D01*
X129398Y618565D01*
X129454Y618486D01*
X129507Y618408D01*
X129511Y618406D01*
X129514Y618402D01*
X129595Y618352D01*
X129676Y618300D01*
X129681Y618299D01*
X129685Y618296D01*
X129779Y618282D01*
X129873Y618265D01*
X129878Y618266D01*
X129883Y618266D01*
X129975Y618288D01*
X130069Y618310D01*
X130073Y618313D01*
X130078Y618314D01*
X130154Y618371D01*
X130232Y618427D01*
X130234Y618431D01*
X130238Y618434D01*
X130283Y618507D01*
X130329Y618578D01*
X131369Y621089D01*
X133291Y623011D01*
X134311Y623433D01*
X135535Y623941D01*
X135801Y624051D01*
X138519Y624051D01*
X141029Y623011D01*
X142951Y621089D01*
X143991Y618579D01*
X143991Y617066D01*
X143992Y617058D01*
X143991Y617051D01*
X144012Y616961D01*
X144030Y616870D01*
X144035Y616863D01*
X144037Y616856D01*
X144139Y616708D01*
X270003Y490844D01*
X270003Y389454D01*
X270004Y389446D01*
X270003Y389439D01*
X270024Y389349D01*
X270042Y389258D01*
X270047Y389251D01*
X270049Y389244D01*
X270151Y389096D01*
X289053Y370194D01*
X289053Y347428D01*
X289053Y347426D01*
X289053Y347423D01*
X289073Y347328D01*
X289092Y347232D01*
X289094Y347230D01*
X289094Y347227D01*
X289150Y347146D01*
X289205Y347066D01*
X289207Y347065D01*
X289209Y347062D01*
X289292Y347009D01*
X289373Y346957D01*
X289376Y346956D01*
X289378Y346955D01*
X289474Y346939D01*
X289570Y346921D01*
X289573Y346922D01*
X289575Y346921D01*
X289670Y346943D01*
X289766Y346965D01*
X289768Y346966D01*
X289771Y346967D01*
X289919Y347070D01*
X291155Y348306D01*
X291632Y348504D01*
X292857Y349011D01*
X293666Y349346D01*
X296383Y349346D01*
X298894Y348306D01*
X300815Y346385D01*
X301855Y343874D01*
X301855Y341157D01*
X300815Y338646D01*
X299492Y337323D01*
X299487Y337316D01*
X299481Y337311D01*
X299432Y337233D01*
X299381Y337156D01*
X299379Y337148D01*
X299375Y337141D01*
X299343Y336964D01*
X299343Y334070D01*
X299344Y334065D01*
X299343Y334059D01*
X299364Y333966D01*
X299383Y333873D01*
X299386Y333869D01*
X299387Y333864D01*
X299442Y333786D01*
X299496Y333707D01*
X299500Y333705D01*
X299503Y333700D01*
X299584Y333650D01*
X299664Y333598D01*
X299669Y333597D01*
X299673Y333594D01*
X299851Y333562D01*
X301552Y333562D01*
X303337Y331777D01*
X303337Y319251D01*
X301552Y317465D01*
X298140Y317465D01*
X298133Y317463D01*
X298125Y317465D01*
X298035Y317444D01*
X297944Y317425D01*
X297937Y317421D01*
X297930Y317419D01*
X297782Y317316D01*
X297621Y317156D01*
X297112Y317156D01*
X297105Y317154D01*
X297097Y317155D01*
X297007Y317134D01*
X296916Y317116D01*
X296909Y317112D01*
X296902Y317110D01*
X296754Y317007D01*
X295679Y315932D01*
X295676Y315927D01*
X295671Y315924D01*
X295620Y315844D01*
X295568Y315765D01*
X295567Y315760D01*
X295564Y315755D01*
X295548Y315661D01*
X295530Y315568D01*
X295531Y315563D01*
X295530Y315558D01*
X295552Y315465D01*
X295572Y315372D01*
X295575Y315367D01*
X295576Y315362D01*
X295679Y315214D01*
X295919Y314974D01*
X295919Y311040D01*
X295919Y311037D01*
X295919Y311035D01*
X295939Y310940D01*
X295958Y310843D01*
X295960Y310841D01*
X295960Y310839D01*
X296016Y310758D01*
X296071Y310677D01*
X296073Y310676D01*
X296075Y310674D01*
X296158Y310621D01*
X296239Y310568D01*
X296242Y310568D01*
X296244Y310566D01*
X296340Y310550D01*
X296436Y310533D01*
X296439Y310533D01*
X296441Y310533D01*
X296536Y310555D01*
X296632Y310576D01*
X296634Y310578D01*
X296637Y310578D01*
X296785Y310681D01*
X298282Y312179D01*
X314808Y312179D01*
X316594Y310393D01*
X316594Y303867D01*
X314808Y302081D01*
X302049Y302081D01*
X302041Y302080D01*
X302034Y302081D01*
X301944Y302060D01*
X301853Y302042D01*
X301846Y302037D01*
X301838Y302036D01*
X301690Y301933D01*
X300377Y300620D01*
X300373Y300613D01*
X300367Y300609D01*
X300318Y300530D01*
X300266Y300453D01*
X300265Y300445D01*
X300261Y300438D01*
X300229Y300261D01*
X300229Y294121D01*
X298746Y292638D01*
X298743Y292634D01*
X298739Y292631D01*
X298688Y292551D01*
X298635Y292471D01*
X298634Y292466D01*
X298631Y292462D01*
X298615Y292368D01*
X298597Y292274D01*
X298598Y292269D01*
X298598Y292264D01*
X298619Y292172D01*
X298639Y292078D01*
X298642Y292074D01*
X298643Y292069D01*
X298746Y291921D01*
X302339Y288328D01*
X302346Y288323D01*
X302350Y288317D01*
X302429Y288268D01*
X302506Y288217D01*
X302514Y288215D01*
X302521Y288211D01*
X302698Y288179D01*
X314808Y288179D01*
X316594Y286393D01*
X316594Y279834D01*
X316549Y279767D01*
X316548Y279761D01*
X316545Y279757D01*
X316529Y279663D01*
X316511Y279570D01*
X316513Y279565D01*
X316512Y279559D01*
X316533Y279466D01*
X316553Y279374D01*
X316556Y279369D01*
X316557Y279364D01*
X316660Y279216D01*
X317087Y278789D01*
X317820Y277019D01*
X317822Y277016D01*
X317823Y277012D01*
X317879Y276932D01*
X317932Y276852D01*
X317935Y276850D01*
X317937Y276847D01*
X318019Y276795D01*
X318099Y276742D01*
X318103Y276742D01*
X318107Y276740D01*
X318202Y276723D01*
X318297Y276706D01*
X318300Y276707D01*
G37*
G36*
X162298Y101956D02*
X162298Y101956D01*
X162326Y101954D01*
X162394Y101976D01*
X162465Y101990D01*
X162488Y102006D01*
X162515Y102015D01*
X162570Y102062D01*
X162629Y102103D01*
X162644Y102127D01*
X162666Y102145D01*
X162697Y102210D01*
X162736Y102270D01*
X162741Y102298D01*
X162753Y102324D01*
X162762Y102425D01*
X162769Y102467D01*
X162767Y102477D01*
X162768Y102490D01*
X162525Y105540D01*
X162516Y105572D01*
X162512Y105619D01*
X162419Y105999D01*
X297321Y105999D01*
X297228Y105619D01*
X297226Y105585D01*
X297215Y105540D01*
X296972Y102490D01*
X296976Y102461D01*
X296971Y102433D01*
X296988Y102364D01*
X296996Y102292D01*
X297011Y102268D01*
X297017Y102240D01*
X297060Y102182D01*
X297096Y102120D01*
X297118Y102103D01*
X297135Y102080D01*
X297197Y102043D01*
X297254Y102000D01*
X297282Y101993D01*
X297306Y101978D01*
X297406Y101962D01*
X297447Y101951D01*
X297457Y101953D01*
X297470Y101951D01*
X316470Y101951D01*
X316546Y101966D01*
X316624Y101975D01*
X316643Y101986D01*
X316665Y101990D01*
X316729Y102034D01*
X316797Y102073D01*
X316813Y102092D01*
X316829Y102103D01*
X316853Y102141D01*
X316903Y102201D01*
X326403Y118701D01*
X326412Y118728D01*
X326428Y118752D01*
X326443Y118822D01*
X326466Y118890D01*
X326463Y118918D01*
X326469Y118946D01*
X326456Y119017D01*
X326450Y119088D01*
X326437Y119113D01*
X326431Y119141D01*
X326391Y119201D01*
X326358Y119264D01*
X326336Y119282D01*
X326320Y119306D01*
X326237Y119364D01*
X326205Y119391D01*
X326194Y119394D01*
X326184Y119401D01*
X323418Y120710D01*
X323385Y120718D01*
X323342Y120738D01*
X320402Y121586D01*
X320368Y121589D01*
X320324Y121602D01*
X317787Y121907D01*
X316901Y122793D01*
X315861Y125303D01*
X315861Y128021D01*
X316901Y130531D01*
X318823Y132453D01*
X319956Y132923D01*
X321181Y133430D01*
X321333Y133493D01*
X324051Y133493D01*
X326561Y132453D01*
X328080Y130934D01*
X328140Y130895D01*
X328194Y130849D01*
X328222Y130840D01*
X328247Y130823D01*
X328317Y130810D01*
X328385Y130789D01*
X328415Y130791D01*
X328444Y130786D01*
X328514Y130801D01*
X328585Y130807D01*
X328611Y130821D01*
X328640Y130827D01*
X328699Y130868D01*
X328762Y130902D01*
X328782Y130926D01*
X328805Y130942D01*
X328833Y130986D01*
X328878Y131039D01*
X341264Y152493D01*
X341280Y152540D01*
X341305Y152583D01*
X341311Y152634D01*
X341328Y152683D01*
X341324Y152733D01*
X341331Y152782D01*
X341317Y152832D01*
X341313Y152883D01*
X341291Y152927D01*
X341278Y152975D01*
X341243Y153021D01*
X341222Y153062D01*
X341195Y153085D01*
X341170Y153119D01*
X340743Y153515D01*
X340714Y153533D01*
X340684Y153562D01*
X339720Y154218D01*
X339695Y154351D01*
X339669Y154417D01*
X339650Y154485D01*
X339630Y154511D01*
X339620Y154537D01*
X339583Y154573D01*
X339542Y154629D01*
X338538Y155559D01*
X338478Y155596D01*
X338423Y155640D01*
X338391Y155649D01*
X338367Y155664D01*
X338316Y155671D01*
X338250Y155691D01*
X338116Y155706D01*
X337388Y156618D01*
X337362Y156640D01*
X337337Y156673D01*
X336482Y157466D01*
X336477Y157601D01*
X336460Y157670D01*
X336452Y157740D01*
X336436Y157769D01*
X336430Y157796D01*
X336399Y157838D01*
X336366Y157898D01*
X335513Y158968D01*
X335459Y159013D01*
X335410Y159065D01*
X335381Y159079D01*
X335359Y159097D01*
X335310Y159112D01*
X335247Y159142D01*
X335117Y159177D01*
X334533Y160186D01*
X334510Y160212D01*
X334491Y160249D01*
X333763Y161160D01*
X333778Y161295D01*
X333772Y161365D01*
X333775Y161435D01*
X333763Y161466D01*
X333761Y161494D01*
X333737Y161540D01*
X333714Y161605D01*
X333029Y162790D01*
X332982Y162843D01*
X332942Y162901D01*
X332915Y162919D01*
X332896Y162940D01*
X332850Y162963D01*
X332793Y163001D01*
X332669Y163055D01*
X332242Y164140D01*
X332223Y164170D01*
X332209Y164209D01*
X331548Y165354D01*
X331499Y165409D01*
X331456Y165469D01*
X331433Y165484D01*
X331415Y165504D01*
X331349Y165536D01*
X331286Y165575D01*
X331257Y165580D01*
X331235Y165591D01*
X331181Y165594D01*
X331108Y165607D01*
X280887Y165607D01*
X280885Y165607D01*
X280882Y165607D01*
X280787Y165587D01*
X280691Y165568D01*
X280689Y165566D01*
X280686Y165566D01*
X280606Y165510D01*
X280525Y165455D01*
X280524Y165453D01*
X280522Y165451D01*
X280468Y165368D01*
X280416Y165287D01*
X280415Y165284D01*
X280414Y165282D01*
X280398Y165186D01*
X280380Y165090D01*
X280381Y165087D01*
X280380Y165085D01*
X280402Y164990D01*
X280424Y164894D01*
X280425Y164892D01*
X280426Y164889D01*
X280529Y164741D01*
X281381Y163889D01*
X282421Y161379D01*
X282421Y158661D01*
X281381Y156151D01*
X279459Y154229D01*
X279263Y154148D01*
X278039Y153641D01*
X278038Y153641D01*
X276949Y153189D01*
X274231Y153189D01*
X271721Y154229D01*
X269799Y156151D01*
X268759Y158661D01*
X268759Y161379D01*
X269799Y163889D01*
X270651Y164741D01*
X270653Y164744D01*
X270655Y164745D01*
X270707Y164825D01*
X270762Y164908D01*
X270763Y164911D01*
X270764Y164913D01*
X270781Y165009D01*
X270800Y165105D01*
X270799Y165108D01*
X270800Y165110D01*
X270778Y165207D01*
X270758Y165301D01*
X270757Y165303D01*
X270756Y165306D01*
X270700Y165386D01*
X270644Y165466D01*
X270642Y165467D01*
X270640Y165469D01*
X270557Y165521D01*
X270475Y165573D01*
X270472Y165574D01*
X270470Y165575D01*
X270293Y165607D01*
X269886Y165607D01*
X242797Y192696D01*
X242797Y209034D01*
X242796Y209039D01*
X242797Y209044D01*
X242776Y209137D01*
X242758Y209231D01*
X242755Y209235D01*
X242754Y209240D01*
X242698Y209318D01*
X242645Y209396D01*
X242641Y209399D01*
X242638Y209403D01*
X242556Y209454D01*
X242477Y209506D01*
X242472Y209506D01*
X242467Y209509D01*
X242290Y209541D01*
X240486Y209541D01*
X240229Y209798D01*
X240224Y209801D01*
X240221Y209806D01*
X240141Y209857D01*
X240062Y209909D01*
X240057Y209910D01*
X240052Y209913D01*
X239958Y209929D01*
X239865Y209947D01*
X239860Y209946D01*
X239854Y209947D01*
X239763Y209925D01*
X239669Y209905D01*
X239664Y209902D01*
X239659Y209901D01*
X239511Y209798D01*
X239254Y209541D01*
X235486Y209541D01*
X235229Y209798D01*
X235224Y209801D01*
X235221Y209806D01*
X235141Y209857D01*
X235062Y209909D01*
X235057Y209910D01*
X235052Y209913D01*
X234958Y209929D01*
X234865Y209947D01*
X234860Y209946D01*
X234854Y209947D01*
X234763Y209925D01*
X234669Y209905D01*
X234664Y209902D01*
X234659Y209901D01*
X234511Y209798D01*
X234254Y209541D01*
X230486Y209541D01*
X230229Y209798D01*
X230224Y209801D01*
X230221Y209806D01*
X230141Y209857D01*
X230062Y209909D01*
X230057Y209910D01*
X230052Y209913D01*
X229958Y209929D01*
X229865Y209947D01*
X229860Y209946D01*
X229854Y209947D01*
X229763Y209925D01*
X229669Y209905D01*
X229664Y209902D01*
X229659Y209901D01*
X229511Y209798D01*
X229254Y209541D01*
X225486Y209541D01*
X225229Y209798D01*
X225224Y209801D01*
X225221Y209806D01*
X225141Y209857D01*
X225062Y209909D01*
X225057Y209910D01*
X225052Y209913D01*
X224958Y209929D01*
X224865Y209947D01*
X224860Y209946D01*
X224855Y209947D01*
X224762Y209925D01*
X224669Y209905D01*
X224665Y209902D01*
X224659Y209901D01*
X224511Y209798D01*
X224254Y209541D01*
X220486Y209541D01*
X220229Y209798D01*
X220224Y209801D01*
X220221Y209806D01*
X220141Y209857D01*
X220062Y209909D01*
X220057Y209910D01*
X220052Y209913D01*
X219958Y209929D01*
X219865Y209947D01*
X219860Y209946D01*
X219854Y209947D01*
X219763Y209925D01*
X219669Y209905D01*
X219664Y209902D01*
X219659Y209901D01*
X219511Y209798D01*
X219254Y209541D01*
X215486Y209541D01*
X215229Y209798D01*
X215224Y209801D01*
X215221Y209806D01*
X215141Y209857D01*
X215062Y209909D01*
X215057Y209910D01*
X215052Y209913D01*
X214958Y209929D01*
X214865Y209947D01*
X214860Y209946D01*
X214854Y209947D01*
X214763Y209925D01*
X214669Y209905D01*
X214664Y209902D01*
X214659Y209901D01*
X214511Y209798D01*
X214254Y209541D01*
X212450Y209541D01*
X212445Y209540D01*
X212440Y209541D01*
X212347Y209520D01*
X212253Y209502D01*
X212249Y209499D01*
X212244Y209498D01*
X212166Y209442D01*
X212088Y209389D01*
X212085Y209385D01*
X212081Y209382D01*
X212030Y209300D01*
X211978Y209221D01*
X211978Y209216D01*
X211975Y209211D01*
X211943Y209034D01*
X211943Y197856D01*
X183865Y169779D01*
X183863Y169775D01*
X183860Y169773D01*
X183808Y169692D01*
X183754Y169612D01*
X183754Y169608D01*
X183751Y169604D01*
X183735Y169509D01*
X183717Y169415D01*
X183718Y169411D01*
X183717Y169407D01*
X183738Y169312D01*
X183758Y169219D01*
X183761Y169215D01*
X183761Y169211D01*
X183818Y169132D01*
X183873Y169054D01*
X183876Y169052D01*
X183878Y169049D01*
X184030Y168951D01*
X185479Y168351D01*
X187401Y166429D01*
X188441Y163919D01*
X188441Y161201D01*
X187401Y158691D01*
X185479Y156769D01*
X185274Y156684D01*
X184049Y156177D01*
X182969Y155729D01*
X180251Y155729D01*
X177741Y156769D01*
X175819Y158691D01*
X174779Y161201D01*
X174779Y163830D01*
X174779Y163833D01*
X174779Y163836D01*
X174779Y163838D01*
X174779Y163840D01*
X174758Y163933D01*
X174740Y164027D01*
X174737Y164031D01*
X174736Y164036D01*
X174680Y164114D01*
X174627Y164192D01*
X174623Y164195D01*
X174620Y164199D01*
X174538Y164250D01*
X174459Y164302D01*
X174454Y164302D01*
X174449Y164305D01*
X174272Y164337D01*
X142458Y164337D01*
X142450Y164336D01*
X142442Y164337D01*
X142352Y164316D01*
X142261Y164298D01*
X142254Y164293D01*
X142247Y164291D01*
X142099Y164189D01*
X141029Y163119D01*
X140189Y162771D01*
X138965Y162264D01*
X138964Y162264D01*
X138519Y162079D01*
X135801Y162079D01*
X133291Y163119D01*
X131369Y165041D01*
X130329Y167551D01*
X130329Y168670D01*
X130328Y168675D01*
X130329Y168681D01*
X130308Y168774D01*
X130290Y168866D01*
X130286Y168871D01*
X130285Y168877D01*
X130230Y168954D01*
X130177Y169032D01*
X130172Y169035D01*
X130168Y169040D01*
X130087Y169090D01*
X130009Y169141D01*
X130003Y169142D01*
X129998Y169145D01*
X129905Y169160D01*
X129812Y169177D01*
X129806Y169175D01*
X129800Y169176D01*
X129709Y169154D01*
X129616Y169133D01*
X129611Y169130D01*
X129605Y169128D01*
X129530Y169072D01*
X129453Y169017D01*
X129449Y169012D01*
X129444Y169008D01*
X129350Y168855D01*
X129196Y168464D01*
X129190Y168430D01*
X129174Y168392D01*
X128914Y167255D01*
X128800Y167183D01*
X128748Y167135D01*
X128692Y167092D01*
X128675Y167065D01*
X128654Y167045D01*
X128634Y166998D01*
X128597Y166939D01*
X128097Y165666D01*
X128085Y165596D01*
X128064Y165528D01*
X128067Y165496D01*
X128062Y165468D01*
X128073Y165418D01*
X128079Y165349D01*
X128114Y165218D01*
X127531Y164209D01*
X127520Y164176D01*
X127498Y164140D01*
X127071Y163055D01*
X126947Y163001D01*
X126890Y162961D01*
X126827Y162927D01*
X126806Y162902D01*
X126783Y162886D01*
X126756Y162843D01*
X126711Y162790D01*
X126026Y161605D01*
X126004Y161538D01*
X125974Y161474D01*
X125971Y161442D01*
X125962Y161415D01*
X125966Y161364D01*
X125962Y161295D01*
X125977Y161160D01*
X125249Y160249D01*
X125234Y160218D01*
X125207Y160186D01*
X124623Y159177D01*
X124493Y159142D01*
X124430Y159110D01*
X124363Y159087D01*
X124338Y159065D01*
X124313Y159053D01*
X124279Y159014D01*
X124227Y158968D01*
X123374Y157898D01*
X123342Y157836D01*
X123302Y157777D01*
X123295Y157745D01*
X123282Y157720D01*
X123278Y157669D01*
X123263Y157601D01*
X123258Y157466D01*
X122403Y156673D01*
X122383Y156645D01*
X122352Y156618D01*
X121624Y155706D01*
X121490Y155691D01*
X121423Y155670D01*
X121354Y155656D01*
X121326Y155639D01*
X121299Y155630D01*
X121260Y155596D01*
X121202Y155559D01*
X120198Y154629D01*
X120157Y154571D01*
X120109Y154519D01*
X120098Y154489D01*
X120081Y154466D01*
X120070Y154416D01*
X120045Y154351D01*
X120020Y154218D01*
X119056Y153562D01*
X119032Y153537D01*
X118997Y153515D01*
X118570Y153119D01*
X118541Y153079D01*
X118505Y153046D01*
X118483Y152998D01*
X118453Y152956D01*
X118442Y152908D01*
X118421Y152863D01*
X118420Y152812D01*
X118408Y152761D01*
X118417Y152712D01*
X118415Y152663D01*
X118435Y152609D01*
X118442Y152564D01*
X118462Y152534D01*
X118476Y152493D01*
X130315Y131988D01*
X130362Y131934D01*
X130403Y131875D01*
X130428Y131860D01*
X130447Y131837D01*
X130511Y131806D01*
X130572Y131768D01*
X130601Y131763D01*
X130628Y131750D01*
X130699Y131746D01*
X130769Y131734D01*
X130798Y131741D01*
X130828Y131739D01*
X130895Y131764D01*
X130965Y131780D01*
X130991Y131798D01*
X131016Y131807D01*
X131055Y131842D01*
X131113Y131883D01*
X132021Y132791D01*
X132339Y132923D01*
X133563Y133430D01*
X134531Y133831D01*
X137249Y133831D01*
X139759Y132791D01*
X141681Y130869D01*
X142721Y128359D01*
X142721Y125641D01*
X141681Y123131D01*
X140253Y121702D01*
X139416Y121602D01*
X139384Y121591D01*
X139338Y121586D01*
X136398Y120738D01*
X136368Y120722D01*
X136323Y120710D01*
X133557Y119401D01*
X133534Y119384D01*
X133507Y119374D01*
X133455Y119325D01*
X133397Y119282D01*
X133383Y119257D01*
X133362Y119238D01*
X133333Y119172D01*
X133297Y119110D01*
X133294Y119082D01*
X133282Y119056D01*
X133281Y118984D01*
X133272Y118913D01*
X133280Y118886D01*
X133280Y118857D01*
X133315Y118762D01*
X133326Y118722D01*
X133333Y118713D01*
X133337Y118701D01*
X142837Y102201D01*
X142889Y102143D01*
X142935Y102080D01*
X142954Y102069D01*
X142969Y102052D01*
X143039Y102018D01*
X143106Y101978D01*
X143131Y101974D01*
X143148Y101966D01*
X143193Y101964D01*
X143270Y101951D01*
X162270Y101951D01*
X162298Y101956D01*
G37*
G36*
X215910Y466418D02*
X215910Y466418D01*
X215916Y466417D01*
X216008Y466439D01*
X216101Y466459D01*
X216106Y466462D01*
X216111Y466463D01*
X216259Y466565D01*
X217964Y468271D01*
X227971Y478278D01*
X227975Y478284D01*
X227981Y478289D01*
X228030Y478367D01*
X228082Y478444D01*
X228083Y478452D01*
X228087Y478459D01*
X228119Y478636D01*
X228119Y480149D01*
X229159Y482659D01*
X231081Y484581D01*
X231982Y484954D01*
X233206Y485461D01*
X233207Y485461D01*
X233591Y485621D01*
X236309Y485621D01*
X236554Y485519D01*
X236555Y485519D01*
X236556Y485518D01*
X236652Y485500D01*
X236751Y485481D01*
X236752Y485481D01*
X236753Y485481D01*
X236849Y485501D01*
X236947Y485521D01*
X236948Y485522D01*
X236949Y485522D01*
X237031Y485579D01*
X237112Y485635D01*
X237113Y485636D01*
X237114Y485636D01*
X237168Y485722D01*
X237220Y485803D01*
X237221Y485804D01*
X237221Y485806D01*
X237238Y485904D01*
X237255Y486001D01*
X237255Y486002D01*
X237255Y486003D01*
X237233Y486099D01*
X237211Y486196D01*
X237210Y486197D01*
X237209Y486198D01*
X237107Y486346D01*
X119849Y603604D01*
X119800Y603637D01*
X119757Y603677D01*
X119717Y603692D01*
X119682Y603715D01*
X119624Y603726D01*
X119569Y603747D01*
X119527Y603745D01*
X119485Y603753D01*
X119428Y603741D01*
X119369Y603738D01*
X119326Y603719D01*
X119289Y603711D01*
X119253Y603687D01*
X119204Y603665D01*
X119072Y603574D01*
X119047Y603549D01*
X119012Y603527D01*
X118158Y602733D01*
X118023Y602738D01*
X117953Y602727D01*
X117882Y602724D01*
X117852Y602711D01*
X117825Y602706D01*
X117781Y602679D01*
X117718Y602651D01*
X116587Y601879D01*
X116538Y601829D01*
X116483Y601785D01*
X116467Y601756D01*
X116447Y601736D01*
X116429Y601688D01*
X116395Y601628D01*
X116350Y601500D01*
X115300Y600994D01*
X115272Y600973D01*
X115234Y600956D01*
X114271Y600299D01*
X114138Y600324D01*
X114067Y600323D01*
X113997Y600331D01*
X113965Y600322D01*
X113937Y600321D01*
X113890Y600301D01*
X113823Y600282D01*
X112591Y599688D01*
X112535Y599646D01*
X112474Y599610D01*
X112453Y599584D01*
X112431Y599567D01*
X112405Y599523D01*
X112362Y599468D01*
X112299Y599349D01*
X111185Y599005D01*
X111155Y598988D01*
X111115Y598977D01*
X110064Y598471D01*
X109937Y598515D01*
X109867Y598525D01*
X109798Y598543D01*
X109766Y598539D01*
X109738Y598543D01*
X109688Y598529D01*
X109620Y598521D01*
X108312Y598117D01*
X108250Y598084D01*
X108185Y598057D01*
X108161Y598035D01*
X108136Y598022D01*
X108104Y597981D01*
X108054Y597934D01*
X107973Y597825D01*
X106820Y597651D01*
X106788Y597639D01*
X106747Y597634D01*
X105633Y597290D01*
X105513Y597353D01*
X105445Y597373D01*
X105380Y597401D01*
X105348Y597402D01*
X105321Y597410D01*
X105269Y597404D01*
X105200Y597406D01*
X103847Y597202D01*
X103781Y597177D01*
X103712Y597161D01*
X103685Y597143D01*
X103659Y597133D01*
X103621Y597098D01*
X103564Y597059D01*
X103469Y596963D01*
X102303Y596963D01*
X102268Y596956D01*
X102227Y596957D01*
X101074Y596783D01*
X100965Y596863D01*
X100901Y596893D01*
X100841Y596930D01*
X100809Y596936D01*
X100784Y596948D01*
X100732Y596950D01*
X100664Y596962D01*
X99296Y596962D01*
X99226Y596948D01*
X99156Y596942D01*
X99127Y596928D01*
X99099Y596922D01*
X99056Y596893D01*
X98994Y596862D01*
X98886Y596782D01*
X97733Y596955D01*
X97698Y596954D01*
X97657Y596961D01*
X96491Y596961D01*
X96395Y597056D01*
X96336Y597095D01*
X96283Y597141D01*
X96252Y597152D01*
X96228Y597167D01*
X96178Y597177D01*
X96112Y597199D01*
X94759Y597403D01*
X94689Y597399D01*
X94618Y597404D01*
X94587Y597394D01*
X94559Y597393D01*
X94512Y597370D01*
X94446Y597349D01*
X94327Y597286D01*
X93213Y597630D01*
X93178Y597633D01*
X93139Y597646D01*
X91986Y597820D01*
X91905Y597929D01*
X91853Y597976D01*
X91807Y598029D01*
X91778Y598044D01*
X91757Y598063D01*
X91708Y598080D01*
X91647Y598112D01*
X90339Y598515D01*
X90269Y598522D01*
X90200Y598537D01*
X90167Y598532D01*
X90139Y598535D01*
X90090Y598520D01*
X90022Y598509D01*
X89894Y598464D01*
X88844Y598970D01*
X88810Y598978D01*
X88773Y598997D01*
X88198Y599174D01*
X88149Y599179D01*
X88102Y599194D01*
X88051Y599189D01*
X87999Y599194D01*
X87952Y599180D01*
X87903Y599175D01*
X87857Y599151D01*
X87807Y599136D01*
X87770Y599104D01*
X87726Y599081D01*
X87689Y599037D01*
X87653Y599007D01*
X87637Y598976D01*
X87610Y598943D01*
X69333Y567286D01*
X69039Y567568D01*
X69011Y567586D01*
X68977Y567619D01*
X66454Y569361D01*
X66427Y569372D01*
X66405Y569391D01*
X66336Y569411D01*
X66271Y569439D01*
X66242Y569439D01*
X66214Y569447D01*
X66143Y569439D01*
X66072Y569440D01*
X66045Y569428D01*
X66016Y569425D01*
X65954Y569390D01*
X65889Y569362D01*
X65868Y569342D01*
X65843Y569327D01*
X65780Y569250D01*
X65750Y569220D01*
X65746Y569210D01*
X65737Y569199D01*
X56237Y552699D01*
X56213Y552626D01*
X56182Y552556D01*
X56182Y552532D01*
X56174Y552510D01*
X56181Y552434D01*
X56180Y552357D01*
X56189Y552333D01*
X56190Y552312D01*
X56211Y552273D01*
X56230Y552221D01*
X56231Y552215D01*
X56233Y552213D01*
X56237Y552201D01*
X65737Y535701D01*
X65756Y535679D01*
X65769Y535653D01*
X65822Y535605D01*
X65869Y535552D01*
X65895Y535539D01*
X65917Y535520D01*
X65984Y535497D01*
X66048Y535466D01*
X66077Y535465D01*
X66104Y535455D01*
X66176Y535460D01*
X66247Y535457D01*
X66274Y535467D01*
X66303Y535469D01*
X66393Y535511D01*
X66433Y535526D01*
X66441Y535533D01*
X66454Y535539D01*
X68977Y537281D01*
X69001Y537305D01*
X69039Y537332D01*
X69369Y537649D01*
X69418Y537625D01*
X69477Y537587D01*
X69507Y537582D01*
X69535Y537568D01*
X69605Y537565D01*
X69674Y537553D01*
X69704Y537559D01*
X69735Y537558D01*
X69801Y537581D01*
X69870Y537597D01*
X69895Y537615D01*
X69924Y537626D01*
X69976Y537673D01*
X70033Y537714D01*
X70051Y537742D01*
X70072Y537761D01*
X70093Y537808D01*
X70130Y537866D01*
X70409Y538539D01*
X72331Y540461D01*
X73033Y540752D01*
X74257Y541259D01*
X74841Y541501D01*
X77559Y541501D01*
X80069Y540461D01*
X81991Y538539D01*
X83031Y536029D01*
X83031Y533311D01*
X81991Y530801D01*
X80069Y528879D01*
X79150Y528498D01*
X77925Y527991D01*
X77559Y527839D01*
X75855Y527839D01*
X75818Y527832D01*
X75781Y527834D01*
X75721Y527812D01*
X75658Y527800D01*
X75627Y527779D01*
X75592Y527766D01*
X75545Y527723D01*
X75493Y527687D01*
X75472Y527656D01*
X75445Y527630D01*
X75418Y527572D01*
X75383Y527519D01*
X75377Y527482D01*
X75361Y527448D01*
X75359Y527384D01*
X75348Y527322D01*
X75356Y527285D01*
X75355Y527248D01*
X75380Y527178D01*
X75391Y527126D01*
X75406Y527106D01*
X75416Y527078D01*
X87610Y505957D01*
X87642Y505920D01*
X87667Y505877D01*
X87689Y505860D01*
X87697Y505850D01*
X87714Y505839D01*
X87742Y505806D01*
X87787Y505785D01*
X87826Y505755D01*
X87866Y505744D01*
X87867Y505744D01*
X87871Y505743D01*
X87876Y505742D01*
X87923Y505719D01*
X87972Y505716D01*
X88020Y505704D01*
X88077Y505711D01*
X88123Y505709D01*
X88156Y505721D01*
X88198Y505726D01*
X88773Y505903D01*
X88804Y505919D01*
X88844Y505930D01*
X89894Y506436D01*
X90022Y506391D01*
X90092Y506381D01*
X90160Y506363D01*
X90193Y506367D01*
X90220Y506364D01*
X90270Y506377D01*
X90339Y506385D01*
X91647Y506788D01*
X91709Y506822D01*
X91774Y506848D01*
X91798Y506870D01*
X91823Y506884D01*
X91855Y506924D01*
X91905Y506971D01*
X91986Y507080D01*
X93139Y507254D01*
X93171Y507266D01*
X93213Y507271D01*
X94327Y507614D01*
X94446Y507551D01*
X94514Y507531D01*
X94579Y507503D01*
X94612Y507502D01*
X94639Y507494D01*
X94690Y507499D01*
X94759Y507497D01*
X96112Y507701D01*
X96179Y507725D01*
X96247Y507741D01*
X96274Y507760D01*
X96301Y507769D01*
X96339Y507804D01*
X96395Y507844D01*
X96491Y507939D01*
X97657Y507939D01*
X97691Y507946D01*
X97733Y507945D01*
X98886Y508118D01*
X98994Y508038D01*
X99058Y508008D01*
X99118Y507970D01*
X99151Y507965D01*
X99176Y507953D01*
X99228Y507951D01*
X99296Y507938D01*
X100664Y507938D01*
X100733Y507952D01*
X100803Y507957D01*
X100833Y507972D01*
X100860Y507977D01*
X100903Y508006D01*
X100965Y508037D01*
X101074Y508117D01*
X102227Y507943D01*
X102262Y507945D01*
X102303Y507937D01*
X103469Y507937D01*
X103564Y507841D01*
X103623Y507802D01*
X103677Y507757D01*
X103708Y507746D01*
X103731Y507730D01*
X103782Y507721D01*
X103847Y507698D01*
X105200Y507494D01*
X105271Y507497D01*
X105341Y507493D01*
X105372Y507502D01*
X105400Y507504D01*
X105447Y507526D01*
X105513Y507547D01*
X105632Y507610D01*
X106747Y507266D01*
X106781Y507263D01*
X106820Y507249D01*
X107973Y507075D01*
X108054Y506966D01*
X108106Y506919D01*
X108152Y506866D01*
X108181Y506850D01*
X108202Y506832D01*
X108251Y506814D01*
X108312Y506783D01*
X109620Y506379D01*
X109690Y506372D01*
X109759Y506356D01*
X109791Y506362D01*
X109819Y506359D01*
X109868Y506374D01*
X109937Y506385D01*
X110064Y506429D01*
X111115Y505923D01*
X111148Y505914D01*
X111185Y505895D01*
X112299Y505551D01*
X112362Y505432D01*
X112407Y505377D01*
X112445Y505317D01*
X112472Y505298D01*
X112489Y505277D01*
X112535Y505252D01*
X112591Y505212D01*
X113823Y504618D01*
X113892Y504600D01*
X113958Y504575D01*
X113990Y504575D01*
X114018Y504568D01*
X114069Y504576D01*
X114138Y504576D01*
X114271Y504601D01*
X115234Y503944D01*
X115266Y503931D01*
X115300Y503906D01*
X116350Y503400D01*
X116395Y503272D01*
X116431Y503212D01*
X116459Y503147D01*
X116482Y503124D01*
X116497Y503100D01*
X116538Y503069D01*
X116588Y503021D01*
X117718Y502249D01*
X117783Y502222D01*
X117844Y502187D01*
X117877Y502182D01*
X117902Y502171D01*
X117954Y502171D01*
X118023Y502162D01*
X118158Y502167D01*
X119012Y501373D01*
X119042Y501355D01*
X119072Y501326D01*
X120035Y500669D01*
X120060Y500536D01*
X120083Y500480D01*
X120093Y500433D01*
X120099Y500425D01*
X120105Y500402D01*
X120125Y500376D01*
X120135Y500350D01*
X120172Y500314D01*
X120213Y500258D01*
X121216Y499327D01*
X121276Y499291D01*
X121331Y499247D01*
X121363Y499237D01*
X121387Y499223D01*
X121438Y499215D01*
X121504Y499195D01*
X121638Y499180D01*
X122365Y498268D01*
X122387Y498249D01*
X122393Y498241D01*
X122397Y498239D01*
X122417Y498212D01*
X123271Y497419D01*
X123276Y497284D01*
X123293Y497215D01*
X123301Y497145D01*
X123316Y497116D01*
X123323Y497089D01*
X123354Y497047D01*
X123386Y496987D01*
X124239Y495916D01*
X124293Y495871D01*
X124341Y495819D01*
X124371Y495805D01*
X124393Y495787D01*
X124442Y495772D01*
X124504Y495743D01*
X124635Y495708D01*
X125218Y494698D01*
X125241Y494672D01*
X125260Y494635D01*
X125987Y493723D01*
X125972Y493589D01*
X125975Y493557D01*
X125969Y493527D01*
X125977Y493493D01*
X125976Y493448D01*
X125987Y493417D01*
X125989Y493389D01*
X126008Y493352D01*
X126013Y493332D01*
X126022Y493319D01*
X126037Y493278D01*
X126720Y492093D01*
X126767Y492040D01*
X126807Y491982D01*
X126834Y491964D01*
X126853Y491943D01*
X126899Y491920D01*
X126957Y491882D01*
X127081Y491827D01*
X127506Y490742D01*
X127525Y490713D01*
X127539Y490674D01*
X128122Y489664D01*
X128087Y489533D01*
X128082Y489463D01*
X128070Y489393D01*
X128076Y489361D01*
X128074Y489333D01*
X128091Y489284D01*
X128104Y489216D01*
X128604Y487943D01*
X128642Y487883D01*
X128673Y487820D01*
X128697Y487798D01*
X128713Y487774D01*
X128755Y487745D01*
X128806Y487698D01*
X128921Y487626D01*
X129180Y486489D01*
X129194Y486458D01*
X129202Y486417D01*
X129426Y485845D01*
X129433Y485835D01*
X129435Y485824D01*
X129487Y485751D01*
X129535Y485676D01*
X129545Y485670D01*
X129551Y485661D01*
X129627Y485614D01*
X129700Y485563D01*
X129712Y485561D01*
X129721Y485555D01*
X129883Y485526D01*
X129897Y485523D01*
X129898Y485523D01*
X129899Y485523D01*
X182426Y485523D01*
X182428Y485523D01*
X182431Y485523D01*
X182526Y485543D01*
X182622Y485562D01*
X182625Y485564D01*
X182627Y485564D01*
X182708Y485620D01*
X182788Y485675D01*
X182790Y485677D01*
X182792Y485679D01*
X182845Y485762D01*
X182897Y485843D01*
X182898Y485846D01*
X182899Y485848D01*
X182916Y485944D01*
X182933Y486040D01*
X182932Y486043D01*
X182933Y486045D01*
X182911Y486139D01*
X182889Y486236D01*
X182888Y486238D01*
X182887Y486241D01*
X182785Y486389D01*
X171228Y497945D01*
X171222Y497949D01*
X171217Y497955D01*
X171139Y498004D01*
X171062Y498056D01*
X171054Y498057D01*
X171047Y498061D01*
X170870Y498093D01*
X166588Y498093D01*
X166580Y498092D01*
X166572Y498093D01*
X166482Y498072D01*
X166391Y498054D01*
X166384Y498049D01*
X166377Y498047D01*
X166229Y497945D01*
X165159Y496875D01*
X164354Y496542D01*
X163130Y496034D01*
X163129Y496034D01*
X162649Y495835D01*
X160956Y495835D01*
X160951Y495834D01*
X160946Y495835D01*
X160853Y495814D01*
X160759Y495796D01*
X160755Y495793D01*
X160750Y495792D01*
X160672Y495736D01*
X160594Y495683D01*
X160591Y495679D01*
X160586Y495676D01*
X160536Y495594D01*
X160484Y495515D01*
X160483Y495510D01*
X160481Y495505D01*
X160449Y495328D01*
X160449Y494868D01*
X157198Y491617D01*
X147602Y491617D01*
X144351Y494868D01*
X144351Y510464D01*
X145674Y511787D01*
X145675Y511789D01*
X145677Y511791D01*
X145729Y511871D01*
X145785Y511954D01*
X145785Y511956D01*
X145787Y511959D01*
X145804Y512054D01*
X145822Y512151D01*
X145822Y512153D01*
X145822Y512156D01*
X145801Y512252D01*
X145781Y512347D01*
X145779Y512349D01*
X145779Y512351D01*
X145722Y512431D01*
X145666Y512511D01*
X145664Y512513D01*
X145663Y512515D01*
X145579Y512567D01*
X145497Y512619D01*
X145495Y512619D01*
X145492Y512621D01*
X145315Y512653D01*
X144677Y512653D01*
X142891Y514439D01*
X142891Y526964D01*
X144677Y528750D01*
X158203Y528750D01*
X159989Y526964D01*
X159989Y514439D01*
X158590Y513040D01*
X158587Y513036D01*
X158583Y513033D01*
X158532Y512952D01*
X158479Y512873D01*
X158478Y512868D01*
X158475Y512864D01*
X158459Y512770D01*
X158442Y512676D01*
X158443Y512671D01*
X158442Y512666D01*
X158463Y512573D01*
X158483Y512480D01*
X158486Y512476D01*
X158487Y512471D01*
X158590Y512323D01*
X160449Y510464D01*
X160449Y510004D01*
X160450Y509999D01*
X160449Y509994D01*
X160470Y509901D01*
X160488Y509807D01*
X160491Y509803D01*
X160492Y509798D01*
X160548Y509720D01*
X160601Y509642D01*
X160605Y509639D01*
X160608Y509635D01*
X160690Y509584D01*
X160769Y509532D01*
X160774Y509532D01*
X160779Y509529D01*
X160956Y509497D01*
X162649Y509497D01*
X165159Y508457D01*
X166229Y507387D01*
X166235Y507383D01*
X166240Y507377D01*
X166319Y507328D01*
X166396Y507276D01*
X166404Y507275D01*
X166410Y507271D01*
X166588Y507239D01*
X174868Y507239D01*
X194460Y487647D01*
X194463Y487645D01*
X194465Y487642D01*
X194546Y487590D01*
X194627Y487536D01*
X194630Y487535D01*
X194634Y487533D01*
X194729Y487517D01*
X194823Y487499D01*
X194827Y487499D01*
X194831Y487499D01*
X194926Y487520D01*
X195020Y487540D01*
X195023Y487542D01*
X195027Y487543D01*
X195105Y487600D01*
X195184Y487655D01*
X195186Y487658D01*
X195190Y487660D01*
X195287Y487812D01*
X196139Y489869D01*
X198061Y491791D01*
X198700Y492056D01*
X199924Y492563D01*
X199925Y492563D01*
X200571Y492831D01*
X203289Y492831D01*
X205799Y491791D01*
X207721Y489869D01*
X208761Y487359D01*
X208761Y484641D01*
X207721Y482131D01*
X205799Y480209D01*
X204817Y479802D01*
X203742Y479357D01*
X203738Y479355D01*
X203735Y479354D01*
X203655Y479299D01*
X203575Y479245D01*
X203573Y479242D01*
X203570Y479240D01*
X203518Y479158D01*
X203465Y479078D01*
X203465Y479074D01*
X203462Y479070D01*
X203446Y478976D01*
X203429Y478881D01*
X203430Y478877D01*
X203429Y478873D01*
X203451Y478779D01*
X203471Y478685D01*
X203474Y478681D01*
X203474Y478678D01*
X203577Y478530D01*
X215541Y466565D01*
X215546Y466563D01*
X215549Y466558D01*
X215629Y466507D01*
X215708Y466455D01*
X215713Y466454D01*
X215718Y466451D01*
X215812Y466435D01*
X215905Y466417D01*
X215910Y466418D01*
G37*
G36*
X293384Y440198D02*
X293384Y440198D01*
X293388Y440197D01*
X293564Y440236D01*
X293758Y440316D01*
X294982Y440823D01*
X294983Y440823D01*
X295821Y441171D01*
X297334Y441171D01*
X297342Y441172D01*
X297349Y441171D01*
X297439Y441192D01*
X297530Y441210D01*
X297537Y441215D01*
X297544Y441217D01*
X297692Y441319D01*
X329288Y472915D01*
X329324Y472969D01*
X329367Y473017D01*
X329379Y473052D01*
X329399Y473082D01*
X329411Y473146D01*
X329433Y473207D01*
X329431Y473246D01*
X329437Y473279D01*
X329427Y473326D01*
X329424Y473387D01*
X329271Y474057D01*
X329343Y474172D01*
X329368Y474238D01*
X329401Y474300D01*
X329404Y474333D01*
X329414Y474359D01*
X329412Y474411D01*
X329419Y474480D01*
X329316Y475844D01*
X329297Y475912D01*
X329286Y475982D01*
X329270Y476010D01*
X329262Y476037D01*
X329230Y476077D01*
X329195Y476137D01*
X329107Y476240D01*
X329193Y477402D01*
X329189Y477437D01*
X329193Y477478D01*
X329106Y478641D01*
X329194Y478743D01*
X329229Y478805D01*
X329270Y478862D01*
X329279Y478894D01*
X329292Y478918D01*
X329298Y478969D01*
X329315Y479036D01*
X329417Y480401D01*
X329408Y480471D01*
X329408Y480542D01*
X329396Y480572D01*
X329392Y480600D01*
X329367Y480645D01*
X329341Y480709D01*
X329269Y480823D01*
X329528Y481960D01*
X329529Y481995D01*
X329539Y482035D01*
X329626Y483198D01*
X329728Y483286D01*
X329772Y483342D01*
X329821Y483392D01*
X329834Y483422D01*
X329851Y483444D01*
X329865Y483494D01*
X329892Y483558D01*
X330196Y484892D01*
X330198Y484962D01*
X330208Y485032D01*
X330200Y485064D01*
X330201Y485092D01*
X330182Y485140D01*
X330166Y485208D01*
X330112Y485331D01*
X330538Y486417D01*
X330544Y486451D01*
X330560Y486489D01*
X330819Y487626D01*
X330934Y487698D01*
X330985Y487747D01*
X331042Y487789D01*
X331059Y487817D01*
X331079Y487836D01*
X331100Y487884D01*
X331136Y487943D01*
X331636Y489216D01*
X331648Y489286D01*
X331668Y489353D01*
X331665Y489386D01*
X331670Y489414D01*
X331659Y489464D01*
X331653Y489533D01*
X331618Y489664D01*
X332201Y490674D01*
X332212Y490707D01*
X332234Y490742D01*
X332659Y491827D01*
X332783Y491882D01*
X332841Y491922D01*
X332903Y491955D01*
X332925Y491980D01*
X332948Y491997D01*
X332975Y492040D01*
X333020Y492093D01*
X333703Y493278D01*
X333720Y493328D01*
X333735Y493351D01*
X333739Y493372D01*
X333756Y493409D01*
X333758Y493442D01*
X333767Y493468D01*
X333764Y493512D01*
X333771Y493548D01*
X333767Y493566D01*
X333768Y493589D01*
X333753Y493723D01*
X334480Y494635D01*
X334496Y494666D01*
X334522Y494698D01*
X335105Y495708D01*
X335236Y495743D01*
X335299Y495774D01*
X335365Y495798D01*
X335390Y495819D01*
X335415Y495832D01*
X335449Y495871D01*
X335501Y495916D01*
X336354Y496987D01*
X336386Y497049D01*
X336425Y497108D01*
X336432Y497140D01*
X336445Y497165D01*
X336449Y497216D01*
X336464Y497284D01*
X336469Y497419D01*
X337323Y498212D01*
X337344Y498241D01*
X337357Y498252D01*
X337361Y498255D01*
X337363Y498257D01*
X337375Y498268D01*
X338102Y499180D01*
X338236Y499195D01*
X338303Y499217D01*
X338373Y499230D01*
X338400Y499248D01*
X338427Y499256D01*
X338466Y499290D01*
X338524Y499327D01*
X339527Y500258D01*
X339545Y500284D01*
X339546Y500284D01*
X339549Y500289D01*
X339568Y500316D01*
X339616Y500368D01*
X339628Y500398D01*
X339644Y500421D01*
X339649Y500443D01*
X339655Y500452D01*
X339661Y500486D01*
X339680Y500536D01*
X339705Y500669D01*
X340668Y501326D01*
X340693Y501351D01*
X340728Y501373D01*
X341582Y502167D01*
X341717Y502162D01*
X341787Y502173D01*
X341858Y502176D01*
X341888Y502189D01*
X341915Y502194D01*
X341959Y502221D01*
X342022Y502249D01*
X343152Y503021D01*
X343202Y503071D01*
X343257Y503115D01*
X343273Y503144D01*
X343292Y503164D01*
X343311Y503212D01*
X343345Y503272D01*
X343390Y503400D01*
X344440Y503906D01*
X344468Y503927D01*
X344506Y503944D01*
X345469Y504601D01*
X345602Y504576D01*
X345673Y504577D01*
X345743Y504569D01*
X345775Y504578D01*
X345803Y504579D01*
X345850Y504599D01*
X345917Y504618D01*
X347149Y505212D01*
X347205Y505254D01*
X347266Y505290D01*
X347287Y505316D01*
X347309Y505333D01*
X347335Y505377D01*
X347378Y505432D01*
X347441Y505551D01*
X348555Y505895D01*
X348585Y505912D01*
X348625Y505923D01*
X349676Y506429D01*
X349803Y506385D01*
X349873Y506375D01*
X349942Y506357D01*
X349974Y506361D01*
X350002Y506357D01*
X350052Y506371D01*
X350120Y506379D01*
X351428Y506783D01*
X351490Y506816D01*
X351555Y506843D01*
X351579Y506865D01*
X351604Y506878D01*
X351636Y506919D01*
X351686Y506966D01*
X351767Y507075D01*
X352920Y507249D01*
X352952Y507261D01*
X352993Y507266D01*
X354108Y507610D01*
X354227Y507547D01*
X354295Y507527D01*
X354360Y507499D01*
X354393Y507498D01*
X354419Y507490D01*
X354471Y507496D01*
X354540Y507494D01*
X355893Y507698D01*
X355959Y507723D01*
X356028Y507739D01*
X356055Y507757D01*
X356081Y507767D01*
X356119Y507802D01*
X356176Y507841D01*
X356271Y507937D01*
X357437Y507937D01*
X357472Y507944D01*
X357513Y507943D01*
X358666Y508117D01*
X358775Y508037D01*
X358839Y508007D01*
X358899Y507970D01*
X358931Y507964D01*
X358956Y507952D01*
X359008Y507950D01*
X359076Y507938D01*
X360444Y507938D01*
X360514Y507952D01*
X360584Y507958D01*
X360613Y507972D01*
X360641Y507978D01*
X360684Y508007D01*
X360746Y508038D01*
X360854Y508118D01*
X362007Y507945D01*
X362042Y507946D01*
X362083Y507939D01*
X363249Y507939D01*
X363345Y507844D01*
X363404Y507805D01*
X363457Y507759D01*
X363488Y507748D01*
X363512Y507733D01*
X363562Y507723D01*
X363628Y507701D01*
X364981Y507497D01*
X365051Y507501D01*
X365122Y507496D01*
X365153Y507506D01*
X365181Y507507D01*
X365228Y507530D01*
X365294Y507551D01*
X365413Y507614D01*
X366527Y507271D01*
X366562Y507267D01*
X366601Y507254D01*
X367754Y507080D01*
X367835Y506971D01*
X367887Y506924D01*
X367933Y506871D01*
X367962Y506856D01*
X367983Y506837D01*
X368032Y506820D01*
X368093Y506788D01*
X369401Y506385D01*
X369471Y506378D01*
X369540Y506363D01*
X369573Y506368D01*
X369601Y506365D01*
X369650Y506380D01*
X369718Y506391D01*
X369846Y506436D01*
X370896Y505930D01*
X370930Y505922D01*
X370967Y505903D01*
X371542Y505726D01*
X371591Y505721D01*
X371638Y505706D01*
X371689Y505711D01*
X371741Y505706D01*
X371788Y505720D01*
X371837Y505725D01*
X371883Y505749D01*
X371886Y505750D01*
X371892Y505751D01*
X371894Y505753D01*
X371933Y505764D01*
X371970Y505796D01*
X372014Y505819D01*
X372043Y505854D01*
X372058Y505864D01*
X372066Y505875D01*
X372087Y505893D01*
X372103Y505924D01*
X372130Y505957D01*
X384324Y527078D01*
X384336Y527114D01*
X384357Y527145D01*
X384368Y527208D01*
X384388Y527268D01*
X384386Y527306D01*
X384392Y527342D01*
X384378Y527405D01*
X384374Y527468D01*
X384357Y527501D01*
X384349Y527538D01*
X384312Y527590D01*
X384283Y527647D01*
X384254Y527671D01*
X384233Y527701D01*
X384178Y527735D01*
X384130Y527776D01*
X384094Y527788D01*
X384062Y527807D01*
X383990Y527820D01*
X383939Y527836D01*
X383914Y527834D01*
X383885Y527839D01*
X383451Y527839D01*
X380941Y528879D01*
X379019Y530801D01*
X377979Y533311D01*
X377979Y536029D01*
X379019Y538539D01*
X380941Y540461D01*
X381643Y540752D01*
X382867Y541259D01*
X383451Y541501D01*
X386169Y541501D01*
X387295Y541034D01*
X388436Y539516D01*
X388461Y539493D01*
X388489Y539456D01*
X390701Y537332D01*
X390729Y537314D01*
X390763Y537281D01*
X393286Y535539D01*
X393313Y535528D01*
X393335Y535509D01*
X393404Y535489D01*
X393469Y535461D01*
X393498Y535461D01*
X393526Y535453D01*
X393597Y535461D01*
X393668Y535461D01*
X393695Y535472D01*
X393724Y535475D01*
X393786Y535510D01*
X393851Y535538D01*
X393872Y535558D01*
X393897Y535573D01*
X393960Y535650D01*
X393990Y535680D01*
X393994Y535690D01*
X394003Y535701D01*
X403503Y552201D01*
X403513Y552233D01*
X403522Y552246D01*
X403526Y552270D01*
X403527Y552274D01*
X403558Y552344D01*
X403558Y552368D01*
X403566Y552390D01*
X403560Y552466D01*
X403561Y552543D01*
X403551Y552567D01*
X403550Y552588D01*
X403529Y552627D01*
X403503Y552699D01*
X394003Y569199D01*
X393984Y569221D01*
X393971Y569247D01*
X393918Y569295D01*
X393871Y569348D01*
X393845Y569361D01*
X393824Y569380D01*
X393756Y569403D01*
X393692Y569434D01*
X393663Y569436D01*
X393636Y569445D01*
X393564Y569440D01*
X393493Y569443D01*
X393466Y569433D01*
X393437Y569431D01*
X393347Y569389D01*
X393307Y569374D01*
X393299Y569367D01*
X393286Y569361D01*
X390763Y567619D01*
X390739Y567595D01*
X390701Y567568D01*
X390407Y567286D01*
X372130Y598943D01*
X372098Y598980D01*
X372073Y599023D01*
X372032Y599055D01*
X371998Y599094D01*
X371953Y599115D01*
X371914Y599145D01*
X371864Y599158D01*
X371817Y599181D01*
X371768Y599184D01*
X371720Y599196D01*
X371663Y599189D01*
X371617Y599191D01*
X371584Y599179D01*
X371542Y599174D01*
X370967Y598997D01*
X370936Y598981D01*
X370896Y598970D01*
X369846Y598464D01*
X369718Y598509D01*
X369648Y598519D01*
X369580Y598537D01*
X369547Y598533D01*
X369520Y598536D01*
X369470Y598523D01*
X369401Y598515D01*
X368093Y598112D01*
X368031Y598078D01*
X367966Y598052D01*
X367942Y598030D01*
X367917Y598016D01*
X367885Y597976D01*
X367835Y597929D01*
X367754Y597820D01*
X366601Y597646D01*
X366569Y597634D01*
X366527Y597629D01*
X365413Y597286D01*
X365294Y597349D01*
X365226Y597369D01*
X365161Y597397D01*
X365128Y597398D01*
X365101Y597406D01*
X365050Y597401D01*
X364981Y597403D01*
X363628Y597199D01*
X363561Y597175D01*
X363493Y597159D01*
X363466Y597140D01*
X363439Y597131D01*
X363401Y597096D01*
X363345Y597056D01*
X363249Y596961D01*
X362083Y596961D01*
X362049Y596954D01*
X362007Y596955D01*
X360854Y596782D01*
X360746Y596862D01*
X360682Y596892D01*
X360622Y596930D01*
X360589Y596935D01*
X360564Y596947D01*
X360512Y596949D01*
X360444Y596962D01*
X359076Y596962D01*
X359007Y596948D01*
X358937Y596943D01*
X358907Y596928D01*
X358880Y596923D01*
X358837Y596894D01*
X358775Y596863D01*
X358666Y596783D01*
X357513Y596957D01*
X357478Y596955D01*
X357437Y596963D01*
X356271Y596963D01*
X356176Y597059D01*
X356117Y597098D01*
X356063Y597143D01*
X356032Y597154D01*
X356009Y597170D01*
X355958Y597179D01*
X355893Y597202D01*
X354540Y597406D01*
X354469Y597403D01*
X354399Y597407D01*
X354368Y597398D01*
X354340Y597396D01*
X354293Y597374D01*
X354227Y597353D01*
X354108Y597290D01*
X352993Y597634D01*
X352959Y597637D01*
X352920Y597651D01*
X351767Y597825D01*
X351686Y597934D01*
X351634Y597981D01*
X351588Y598034D01*
X351559Y598050D01*
X351538Y598068D01*
X351489Y598086D01*
X351428Y598117D01*
X350120Y598521D01*
X350050Y598528D01*
X349981Y598544D01*
X349949Y598538D01*
X349921Y598541D01*
X349872Y598526D01*
X349803Y598515D01*
X349676Y598471D01*
X348625Y598977D01*
X348592Y598986D01*
X348555Y599005D01*
X347441Y599349D01*
X347377Y599468D01*
X347333Y599523D01*
X347295Y599583D01*
X347268Y599602D01*
X347251Y599623D01*
X347205Y599648D01*
X347149Y599688D01*
X345917Y600282D01*
X345848Y600300D01*
X345782Y600325D01*
X345750Y600325D01*
X345722Y600332D01*
X345671Y600324D01*
X345602Y600324D01*
X345469Y600299D01*
X344506Y600956D01*
X344474Y600969D01*
X344440Y600994D01*
X343390Y601500D01*
X343345Y601628D01*
X343309Y601688D01*
X343281Y601753D01*
X343258Y601776D01*
X343243Y601800D01*
X343202Y601831D01*
X343152Y601879D01*
X342022Y602651D01*
X341957Y602678D01*
X341896Y602713D01*
X341863Y602718D01*
X341838Y602729D01*
X341786Y602729D01*
X341717Y602738D01*
X341582Y602733D01*
X340728Y603527D01*
X340698Y603545D01*
X340668Y603574D01*
X340536Y603665D01*
X340482Y603688D01*
X340432Y603719D01*
X340390Y603726D01*
X340351Y603743D01*
X340292Y603743D01*
X340234Y603753D01*
X340193Y603743D01*
X340151Y603743D01*
X340097Y603720D01*
X340039Y603707D01*
X340001Y603681D01*
X339966Y603666D01*
X339935Y603635D01*
X339891Y603604D01*
X293011Y556724D01*
X293007Y556718D01*
X293001Y556713D01*
X292952Y556635D01*
X292900Y556558D01*
X292899Y556550D01*
X292895Y556543D01*
X292863Y556366D01*
X292863Y491525D01*
X292863Y491523D01*
X292863Y491522D01*
X292883Y491426D01*
X292902Y491328D01*
X292903Y491327D01*
X292903Y491326D01*
X292958Y491246D01*
X293015Y491162D01*
X293016Y491162D01*
X293017Y491161D01*
X293100Y491107D01*
X293183Y491053D01*
X293184Y491053D01*
X293185Y491052D01*
X293283Y491035D01*
X293380Y491018D01*
X293382Y491018D01*
X293383Y491018D01*
X293477Y491039D01*
X293576Y491061D01*
X293577Y491062D01*
X293578Y491062D01*
X293658Y491119D01*
X293739Y491177D01*
X293740Y491178D01*
X293741Y491179D01*
X293839Y491331D01*
X293929Y491549D01*
X295851Y493471D01*
X296108Y493577D01*
X297332Y494085D01*
X297333Y494085D01*
X298361Y494511D01*
X301079Y494511D01*
X303589Y493471D01*
X305511Y491549D01*
X306551Y489039D01*
X306551Y486321D01*
X305511Y483811D01*
X303589Y481889D01*
X303450Y481831D01*
X302225Y481324D01*
X301079Y480849D01*
X298361Y480849D01*
X295851Y481889D01*
X293929Y483811D01*
X293839Y484029D01*
X293838Y484030D01*
X293838Y484032D01*
X293782Y484113D01*
X293727Y484196D01*
X293726Y484196D01*
X293725Y484198D01*
X293642Y484251D01*
X293559Y484306D01*
X293558Y484306D01*
X293557Y484307D01*
X293458Y484325D01*
X293362Y484342D01*
X293361Y484342D01*
X293360Y484342D01*
X293259Y484320D01*
X293166Y484300D01*
X293165Y484299D01*
X293164Y484299D01*
X293081Y484240D01*
X293002Y484185D01*
X293002Y484184D01*
X293001Y484183D01*
X292948Y484098D01*
X292896Y484015D01*
X292895Y484014D01*
X292895Y484013D01*
X292863Y483835D01*
X292863Y440704D01*
X292864Y440701D01*
X292863Y440697D01*
X292883Y440603D01*
X292902Y440508D01*
X292905Y440505D01*
X292905Y440501D01*
X292961Y440422D01*
X293015Y440342D01*
X293018Y440340D01*
X293021Y440337D01*
X293103Y440285D01*
X293183Y440233D01*
X293187Y440232D01*
X293190Y440230D01*
X293286Y440214D01*
X293380Y440197D01*
X293384Y440198D01*
G37*
G36*
X176314Y185524D02*
X176314Y185524D01*
X176321Y185523D01*
X176411Y185544D01*
X176502Y185562D01*
X176509Y185567D01*
X176516Y185569D01*
X176664Y185671D01*
X197649Y206656D01*
X197653Y206662D01*
X197659Y206667D01*
X197708Y206745D01*
X197760Y206822D01*
X197761Y206830D01*
X197765Y206837D01*
X197797Y207014D01*
X197797Y211860D01*
X197797Y211862D01*
X197797Y211865D01*
X197777Y211960D01*
X197758Y212056D01*
X197756Y212058D01*
X197756Y212061D01*
X197700Y212142D01*
X197645Y212222D01*
X197643Y212224D01*
X197641Y212226D01*
X197558Y212279D01*
X197477Y212331D01*
X197474Y212332D01*
X197472Y212333D01*
X197376Y212350D01*
X197280Y212367D01*
X197277Y212366D01*
X197275Y212367D01*
X197181Y212345D01*
X197084Y212323D01*
X197082Y212322D01*
X197079Y212321D01*
X196931Y212218D01*
X194254Y209541D01*
X190486Y209541D01*
X187821Y212206D01*
X187821Y214010D01*
X187820Y214015D01*
X187821Y214020D01*
X187800Y214113D01*
X187782Y214207D01*
X187779Y214211D01*
X187778Y214216D01*
X187722Y214294D01*
X187669Y214372D01*
X187665Y214375D01*
X187662Y214379D01*
X187580Y214430D01*
X187501Y214482D01*
X187496Y214482D01*
X187491Y214485D01*
X187314Y214517D01*
X175333Y214517D01*
X175328Y214516D01*
X175323Y214517D01*
X175230Y214496D01*
X175136Y214478D01*
X175132Y214475D01*
X175127Y214474D01*
X175049Y214418D01*
X174971Y214365D01*
X174968Y214361D01*
X174963Y214358D01*
X174913Y214276D01*
X174861Y214197D01*
X174860Y214192D01*
X174858Y214187D01*
X174826Y214010D01*
X174826Y211679D01*
X173040Y209893D01*
X155514Y209893D01*
X153728Y211679D01*
X153728Y227204D01*
X155514Y228990D01*
X173040Y228990D01*
X174826Y227204D01*
X174826Y224170D01*
X174827Y224165D01*
X174826Y224160D01*
X174847Y224067D01*
X174865Y223973D01*
X174868Y223969D01*
X174869Y223964D01*
X174925Y223886D01*
X174978Y223808D01*
X174982Y223805D01*
X174985Y223801D01*
X175067Y223750D01*
X175146Y223698D01*
X175151Y223698D01*
X175156Y223695D01*
X175333Y223663D01*
X187290Y223663D01*
X187295Y223664D01*
X187300Y223663D01*
X187393Y223684D01*
X187487Y223702D01*
X187491Y223705D01*
X187496Y223706D01*
X187574Y223762D01*
X187652Y223815D01*
X187655Y223819D01*
X187659Y223822D01*
X187710Y223904D01*
X187762Y223983D01*
X187762Y223988D01*
X187765Y223993D01*
X187797Y224170D01*
X187797Y231094D01*
X192129Y235426D01*
X192133Y235432D01*
X192139Y235437D01*
X192188Y235515D01*
X192240Y235592D01*
X192241Y235600D01*
X192245Y235607D01*
X192277Y235784D01*
X192277Y275739D01*
X192276Y275747D01*
X192277Y275754D01*
X192256Y275844D01*
X192238Y275935D01*
X192233Y275942D01*
X192231Y275949D01*
X192129Y276097D01*
X186424Y281802D01*
X186417Y281807D01*
X186413Y281813D01*
X186334Y281862D01*
X186257Y281913D01*
X186249Y281915D01*
X186243Y281919D01*
X186065Y281951D01*
X184553Y281951D01*
X183620Y282337D01*
X183616Y282338D01*
X183613Y282340D01*
X183518Y282357D01*
X183423Y282376D01*
X183420Y282375D01*
X183416Y282376D01*
X183321Y282354D01*
X183227Y282335D01*
X183224Y282333D01*
X183220Y282332D01*
X183141Y282276D01*
X183062Y282222D01*
X183060Y282218D01*
X183057Y282216D01*
X183006Y282134D01*
X182953Y282053D01*
X182953Y282049D01*
X182951Y282046D01*
X182919Y281868D01*
X182919Y281206D01*
X182662Y280949D01*
X182659Y280944D01*
X182654Y280941D01*
X182603Y280861D01*
X182551Y280782D01*
X182550Y280777D01*
X182547Y280772D01*
X182531Y280678D01*
X182513Y280585D01*
X182514Y280580D01*
X182513Y280575D01*
X182535Y280482D01*
X182555Y280389D01*
X182558Y280385D01*
X182559Y280379D01*
X182662Y280231D01*
X182919Y279974D01*
X182919Y276206D01*
X182662Y275949D01*
X182659Y275944D01*
X182654Y275941D01*
X182603Y275861D01*
X182551Y275782D01*
X182550Y275777D01*
X182547Y275772D01*
X182531Y275678D01*
X182513Y275585D01*
X182514Y275580D01*
X182513Y275575D01*
X182535Y275482D01*
X182555Y275389D01*
X182558Y275385D01*
X182559Y275379D01*
X182662Y275231D01*
X182919Y274974D01*
X182919Y271206D01*
X182662Y270949D01*
X182659Y270944D01*
X182654Y270941D01*
X182603Y270861D01*
X182551Y270782D01*
X182550Y270777D01*
X182547Y270772D01*
X182531Y270678D01*
X182513Y270585D01*
X182514Y270580D01*
X182513Y270575D01*
X182535Y270482D01*
X182555Y270389D01*
X182558Y270385D01*
X182559Y270379D01*
X182662Y270231D01*
X182919Y269974D01*
X182919Y266206D01*
X182662Y265949D01*
X182659Y265944D01*
X182654Y265941D01*
X182603Y265861D01*
X182551Y265782D01*
X182550Y265777D01*
X182547Y265772D01*
X182531Y265678D01*
X182513Y265585D01*
X182514Y265580D01*
X182513Y265575D01*
X182535Y265481D01*
X182555Y265389D01*
X182558Y265385D01*
X182559Y265379D01*
X182662Y265231D01*
X182919Y264974D01*
X182919Y261206D01*
X182662Y260949D01*
X182659Y260944D01*
X182654Y260941D01*
X182603Y260861D01*
X182551Y260782D01*
X182550Y260777D01*
X182547Y260772D01*
X182531Y260678D01*
X182513Y260585D01*
X182514Y260580D01*
X182513Y260575D01*
X182535Y260482D01*
X182555Y260389D01*
X182558Y260385D01*
X182559Y260379D01*
X182662Y260231D01*
X182919Y259974D01*
X182919Y256206D01*
X182662Y255949D01*
X182659Y255944D01*
X182654Y255941D01*
X182603Y255861D01*
X182551Y255782D01*
X182550Y255777D01*
X182547Y255772D01*
X182531Y255678D01*
X182513Y255585D01*
X182514Y255580D01*
X182513Y255575D01*
X182535Y255482D01*
X182555Y255389D01*
X182558Y255385D01*
X182559Y255379D01*
X182662Y255231D01*
X182919Y254974D01*
X182919Y251206D01*
X182662Y250949D01*
X182659Y250944D01*
X182654Y250941D01*
X182603Y250861D01*
X182551Y250782D01*
X182550Y250777D01*
X182547Y250772D01*
X182531Y250678D01*
X182513Y250585D01*
X182514Y250580D01*
X182513Y250575D01*
X182535Y250482D01*
X182555Y250389D01*
X182558Y250385D01*
X182559Y250379D01*
X182662Y250231D01*
X182919Y249974D01*
X182919Y246206D01*
X182662Y245949D01*
X182659Y245944D01*
X182654Y245941D01*
X182603Y245861D01*
X182551Y245782D01*
X182550Y245777D01*
X182547Y245772D01*
X182531Y245678D01*
X182513Y245585D01*
X182514Y245580D01*
X182513Y245575D01*
X182535Y245482D01*
X182555Y245389D01*
X182558Y245385D01*
X182559Y245379D01*
X182662Y245231D01*
X182919Y244974D01*
X182919Y241206D01*
X182662Y240949D01*
X182659Y240944D01*
X182654Y240941D01*
X182603Y240861D01*
X182551Y240782D01*
X182550Y240777D01*
X182547Y240772D01*
X182531Y240678D01*
X182513Y240585D01*
X182514Y240580D01*
X182513Y240575D01*
X182535Y240482D01*
X182555Y240389D01*
X182558Y240385D01*
X182559Y240379D01*
X182662Y240231D01*
X182919Y239974D01*
X182919Y236206D01*
X180254Y233541D01*
X166486Y233541D01*
X166404Y233623D01*
X166398Y233627D01*
X166393Y233633D01*
X166315Y233682D01*
X166237Y233734D01*
X166230Y233735D01*
X166223Y233739D01*
X166046Y233771D01*
X156012Y233771D01*
X156004Y233770D01*
X155996Y233771D01*
X155906Y233750D01*
X155815Y233732D01*
X155808Y233727D01*
X155801Y233725D01*
X155653Y233623D01*
X154999Y232969D01*
X154523Y232772D01*
X154522Y232772D01*
X153298Y232264D01*
X152489Y231929D01*
X149771Y231929D01*
X147261Y232969D01*
X146035Y234195D01*
X146032Y234197D01*
X146031Y234199D01*
X145951Y234251D01*
X145868Y234306D01*
X145865Y234307D01*
X145863Y234308D01*
X145767Y234325D01*
X145671Y234344D01*
X145668Y234343D01*
X145666Y234344D01*
X145569Y234322D01*
X145475Y234302D01*
X145473Y234301D01*
X145470Y234300D01*
X145390Y234244D01*
X145310Y234188D01*
X145309Y234186D01*
X145307Y234184D01*
X145254Y234100D01*
X145203Y234019D01*
X145202Y234016D01*
X145201Y234014D01*
X145169Y233837D01*
X145169Y222717D01*
X143383Y220931D01*
X125857Y220931D01*
X124071Y222717D01*
X124071Y238243D01*
X125857Y240029D01*
X128016Y240029D01*
X128021Y240030D01*
X128026Y240029D01*
X128119Y240050D01*
X128213Y240068D01*
X128217Y240071D01*
X128222Y240072D01*
X128300Y240128D01*
X128378Y240181D01*
X128381Y240185D01*
X128385Y240188D01*
X128436Y240270D01*
X128488Y240349D01*
X128488Y240354D01*
X128491Y240359D01*
X128523Y240536D01*
X128523Y251403D01*
X129021Y252603D01*
X129022Y252612D01*
X129027Y252620D01*
X129059Y252798D01*
X129059Y252819D01*
X130099Y255329D01*
X132021Y257251D01*
X133120Y257706D01*
X134344Y258213D01*
X134345Y258213D01*
X134531Y258291D01*
X137249Y258291D01*
X139759Y257251D01*
X141681Y255329D01*
X142721Y252819D01*
X142721Y250101D01*
X141681Y247591D01*
X140865Y246775D01*
X140861Y246769D01*
X140855Y246764D01*
X140806Y246685D01*
X140754Y246608D01*
X140753Y246600D01*
X140749Y246594D01*
X140717Y246416D01*
X140717Y240536D01*
X140718Y240531D01*
X140717Y240526D01*
X140738Y240433D01*
X140756Y240339D01*
X140759Y240335D01*
X140760Y240330D01*
X140816Y240252D01*
X140869Y240174D01*
X140873Y240171D01*
X140876Y240167D01*
X140958Y240116D01*
X141037Y240064D01*
X141042Y240064D01*
X141047Y240061D01*
X141224Y240029D01*
X143383Y240029D01*
X143468Y239944D01*
X143471Y239942D01*
X143473Y239938D01*
X143555Y239886D01*
X143635Y239833D01*
X143638Y239832D01*
X143642Y239830D01*
X143738Y239813D01*
X143831Y239795D01*
X143835Y239796D01*
X143839Y239795D01*
X143934Y239817D01*
X144028Y239837D01*
X144031Y239839D01*
X144035Y239840D01*
X144113Y239896D01*
X144192Y239951D01*
X144194Y239955D01*
X144198Y239957D01*
X144295Y240108D01*
X145339Y242629D01*
X147261Y244551D01*
X147683Y244726D01*
X147687Y244729D01*
X147692Y244730D01*
X147771Y244785D01*
X147849Y244837D01*
X147852Y244842D01*
X147856Y244845D01*
X147907Y244925D01*
X147959Y245005D01*
X147960Y245010D01*
X147963Y245015D01*
X147979Y245109D01*
X147996Y245202D01*
X147995Y245207D01*
X147996Y245212D01*
X147957Y245388D01*
X147501Y246489D01*
X147501Y249207D01*
X148541Y251717D01*
X150463Y253639D01*
X150485Y253648D01*
X151710Y254155D01*
X152456Y254464D01*
X152459Y254467D01*
X152463Y254467D01*
X152543Y254523D01*
X152622Y254576D01*
X152625Y254580D01*
X152628Y254582D01*
X152680Y254663D01*
X152733Y254744D01*
X152733Y254748D01*
X152735Y254751D01*
X152752Y254846D01*
X152769Y254941D01*
X152768Y254945D01*
X152769Y254949D01*
X152747Y255042D01*
X152727Y255137D01*
X152724Y255140D01*
X152723Y255144D01*
X152621Y255292D01*
X150621Y257291D01*
X150621Y261148D01*
X150620Y261156D01*
X150621Y261164D01*
X150600Y261254D01*
X150582Y261345D01*
X150577Y261352D01*
X150575Y261359D01*
X150473Y261507D01*
X149149Y262831D01*
X148109Y265341D01*
X148109Y268059D01*
X149149Y270569D01*
X151071Y272491D01*
X151806Y272795D01*
X151807Y272796D01*
X151808Y272796D01*
X151889Y272851D01*
X151972Y272907D01*
X151973Y272908D01*
X151974Y272909D01*
X152026Y272989D01*
X152082Y273075D01*
X152083Y273076D01*
X152083Y273077D01*
X152101Y273174D01*
X152119Y273272D01*
X152119Y273273D01*
X152119Y273274D01*
X152097Y273374D01*
X152076Y273468D01*
X152076Y273469D01*
X152075Y273470D01*
X152018Y273550D01*
X151961Y273632D01*
X151960Y273632D01*
X151959Y273633D01*
X151877Y273685D01*
X151792Y273738D01*
X151790Y273739D01*
X151789Y273739D01*
X151612Y273771D01*
X143002Y273771D01*
X142997Y273770D01*
X142992Y273771D01*
X142899Y273750D01*
X142805Y273732D01*
X142801Y273729D01*
X142796Y273728D01*
X142718Y273672D01*
X142640Y273619D01*
X142637Y273615D01*
X142633Y273612D01*
X142582Y273530D01*
X142530Y273451D01*
X142530Y273446D01*
X142527Y273441D01*
X142495Y273264D01*
X142495Y271691D01*
X141455Y269181D01*
X139533Y267259D01*
X138322Y266757D01*
X137097Y266250D01*
X137023Y266219D01*
X134305Y266219D01*
X131795Y267259D01*
X129873Y269181D01*
X128833Y271691D01*
X128833Y274409D01*
X129873Y276919D01*
X131165Y278211D01*
X131168Y278215D01*
X131172Y278218D01*
X131223Y278299D01*
X131276Y278378D01*
X131277Y278383D01*
X131280Y278388D01*
X131296Y278481D01*
X131313Y278575D01*
X131312Y278580D01*
X131313Y278585D01*
X131292Y278678D01*
X131272Y278771D01*
X131269Y278775D01*
X131268Y278780D01*
X131165Y278928D01*
X118622Y291471D01*
X118616Y291475D01*
X118611Y291481D01*
X118533Y291530D01*
X118456Y291582D01*
X118448Y291583D01*
X118441Y291587D01*
X118264Y291619D01*
X116751Y291619D01*
X114241Y292659D01*
X112319Y294581D01*
X111279Y297091D01*
X111279Y298249D01*
X111278Y298253D01*
X111279Y298257D01*
X111276Y298271D01*
X111278Y298285D01*
X111256Y298364D01*
X111240Y298445D01*
X111236Y298450D01*
X111236Y298452D01*
X111229Y298462D01*
X111224Y298478D01*
X111173Y298543D01*
X111127Y298611D01*
X111120Y298616D01*
X111113Y298620D01*
X111112Y298621D01*
X111100Y298635D01*
X111028Y298675D01*
X110959Y298720D01*
X110941Y298723D01*
X110925Y298732D01*
X110843Y298741D01*
X110762Y298756D01*
X110744Y298752D01*
X110725Y298754D01*
X110615Y298723D01*
X110611Y298722D01*
X110571Y298714D01*
X110569Y298713D01*
X110566Y298712D01*
X110560Y298708D01*
X110552Y298706D01*
X110064Y298471D01*
X109937Y298515D01*
X109867Y298525D01*
X109798Y298543D01*
X109766Y298539D01*
X109738Y298543D01*
X109688Y298529D01*
X109620Y298521D01*
X108312Y298117D01*
X108250Y298084D01*
X108185Y298057D01*
X108161Y298035D01*
X108136Y298022D01*
X108104Y297981D01*
X108054Y297934D01*
X107973Y297825D01*
X106820Y297651D01*
X106788Y297639D01*
X106747Y297634D01*
X105632Y297290D01*
X105513Y297353D01*
X105445Y297373D01*
X105380Y297401D01*
X105348Y297402D01*
X105321Y297410D01*
X105269Y297404D01*
X105200Y297406D01*
X103847Y297202D01*
X103781Y297177D01*
X103712Y297161D01*
X103685Y297143D01*
X103659Y297133D01*
X103621Y297098D01*
X103564Y297059D01*
X103469Y296963D01*
X102303Y296963D01*
X102268Y296956D01*
X102227Y296957D01*
X101074Y296783D01*
X100965Y296863D01*
X100901Y296893D01*
X100841Y296930D01*
X100809Y296936D01*
X100784Y296948D01*
X100732Y296950D01*
X100664Y296962D01*
X99296Y296962D01*
X99226Y296948D01*
X99156Y296942D01*
X99127Y296928D01*
X99099Y296922D01*
X99056Y296893D01*
X98994Y296862D01*
X98886Y296782D01*
X97733Y296955D01*
X97698Y296954D01*
X97657Y296961D01*
X96491Y296961D01*
X96395Y297056D01*
X96336Y297095D01*
X96283Y297141D01*
X96252Y297152D01*
X96228Y297167D01*
X96178Y297177D01*
X96112Y297199D01*
X94759Y297403D01*
X94689Y297399D01*
X94618Y297404D01*
X94587Y297394D01*
X94559Y297393D01*
X94512Y297370D01*
X94446Y297349D01*
X94327Y297286D01*
X93213Y297629D01*
X93178Y297633D01*
X93139Y297646D01*
X91986Y297820D01*
X91905Y297929D01*
X91853Y297976D01*
X91807Y298029D01*
X91778Y298044D01*
X91757Y298063D01*
X91708Y298080D01*
X91647Y298112D01*
X90339Y298515D01*
X90269Y298522D01*
X90200Y298537D01*
X90167Y298532D01*
X90139Y298535D01*
X90090Y298520D01*
X90022Y298509D01*
X89894Y298464D01*
X88844Y298970D01*
X88810Y298978D01*
X88773Y298997D01*
X88198Y299174D01*
X88149Y299179D01*
X88102Y299194D01*
X88051Y299189D01*
X87999Y299194D01*
X87952Y299180D01*
X87903Y299175D01*
X87857Y299151D01*
X87807Y299136D01*
X87770Y299104D01*
X87726Y299081D01*
X87689Y299037D01*
X87653Y299007D01*
X87637Y298976D01*
X87610Y298943D01*
X75228Y277497D01*
X75216Y277461D01*
X75196Y277430D01*
X75184Y277367D01*
X75164Y277307D01*
X75167Y277269D01*
X75160Y277233D01*
X75174Y277170D01*
X75179Y277107D01*
X75195Y277073D01*
X75204Y277037D01*
X75241Y276985D01*
X75270Y276928D01*
X75298Y276904D01*
X75320Y276873D01*
X75374Y276840D01*
X75423Y276799D01*
X75458Y276787D01*
X75490Y276768D01*
X75563Y276755D01*
X75614Y276738D01*
X75639Y276741D01*
X75667Y276736D01*
X75904Y276736D01*
X78414Y275696D01*
X80336Y273774D01*
X81376Y271264D01*
X81376Y268546D01*
X80336Y266036D01*
X78414Y264114D01*
X77448Y263714D01*
X76223Y263207D01*
X75904Y263074D01*
X73186Y263074D01*
X72974Y263162D01*
X71304Y265384D01*
X71279Y265407D01*
X71251Y265444D01*
X69039Y267568D01*
X69011Y267586D01*
X68977Y267619D01*
X66454Y269361D01*
X66427Y269372D01*
X66405Y269391D01*
X66336Y269411D01*
X66271Y269439D01*
X66242Y269439D01*
X66214Y269447D01*
X66143Y269439D01*
X66072Y269440D01*
X66045Y269428D01*
X66016Y269425D01*
X65954Y269390D01*
X65889Y269362D01*
X65868Y269342D01*
X65843Y269327D01*
X65780Y269250D01*
X65750Y269220D01*
X65746Y269210D01*
X65737Y269199D01*
X56237Y252699D01*
X56213Y252626D01*
X56182Y252556D01*
X56182Y252532D01*
X56174Y252510D01*
X56181Y252434D01*
X56180Y252357D01*
X56189Y252333D01*
X56190Y252312D01*
X56211Y252273D01*
X56230Y252221D01*
X56231Y252215D01*
X56233Y252213D01*
X56237Y252201D01*
X65737Y235701D01*
X65756Y235679D01*
X65769Y235653D01*
X65822Y235605D01*
X65869Y235552D01*
X65895Y235539D01*
X65917Y235520D01*
X65984Y235497D01*
X66048Y235466D01*
X66077Y235465D01*
X66104Y235455D01*
X66176Y235460D01*
X66247Y235457D01*
X66274Y235467D01*
X66303Y235469D01*
X66393Y235511D01*
X66433Y235526D01*
X66441Y235533D01*
X66454Y235539D01*
X68977Y237281D01*
X69001Y237305D01*
X69039Y237332D01*
X71251Y239456D01*
X71270Y239484D01*
X71304Y239516D01*
X72563Y241192D01*
X72632Y241220D01*
X75350Y241220D01*
X77860Y240180D01*
X79782Y238259D01*
X80822Y235748D01*
X80822Y233031D01*
X79782Y230520D01*
X77860Y228599D01*
X76913Y228206D01*
X75713Y227709D01*
X75681Y227688D01*
X75645Y227675D01*
X75599Y227633D01*
X75547Y227598D01*
X75526Y227565D01*
X75497Y227539D01*
X75471Y227482D01*
X75437Y227430D01*
X75430Y227392D01*
X75414Y227357D01*
X75412Y227295D01*
X75400Y227233D01*
X75408Y227195D01*
X75407Y227157D01*
X75432Y227089D01*
X75443Y227037D01*
X75449Y227029D01*
X75449Y227026D01*
X75460Y227011D01*
X75468Y226987D01*
X87610Y205957D01*
X87642Y205920D01*
X87667Y205877D01*
X87708Y205845D01*
X87742Y205806D01*
X87787Y205785D01*
X87826Y205755D01*
X87876Y205742D01*
X87923Y205719D01*
X87972Y205716D01*
X88020Y205704D01*
X88077Y205711D01*
X88123Y205709D01*
X88156Y205721D01*
X88198Y205726D01*
X88773Y205903D01*
X88804Y205919D01*
X88844Y205930D01*
X89894Y206436D01*
X90022Y206391D01*
X90092Y206381D01*
X90160Y206363D01*
X90193Y206367D01*
X90220Y206364D01*
X90270Y206377D01*
X90339Y206385D01*
X91647Y206788D01*
X91709Y206822D01*
X91774Y206848D01*
X91798Y206870D01*
X91823Y206884D01*
X91855Y206924D01*
X91905Y206971D01*
X91986Y207080D01*
X93139Y207254D01*
X93171Y207265D01*
X93213Y207270D01*
X94327Y207614D01*
X94446Y207551D01*
X94514Y207531D01*
X94579Y207503D01*
X94612Y207502D01*
X94639Y207494D01*
X94690Y207499D01*
X94759Y207497D01*
X96112Y207701D01*
X96179Y207725D01*
X96247Y207741D01*
X96274Y207760D01*
X96301Y207769D01*
X96338Y207804D01*
X96395Y207844D01*
X96491Y207939D01*
X97657Y207939D01*
X97691Y207946D01*
X97733Y207945D01*
X98886Y208118D01*
X98994Y208038D01*
X99058Y208008D01*
X99118Y207970D01*
X99151Y207965D01*
X99176Y207953D01*
X99228Y207951D01*
X99296Y207938D01*
X100664Y207938D01*
X100733Y207952D01*
X100803Y207957D01*
X100833Y207972D01*
X100860Y207977D01*
X100903Y208006D01*
X100965Y208037D01*
X101074Y208117D01*
X102227Y207943D01*
X102262Y207945D01*
X102303Y207937D01*
X103469Y207937D01*
X103564Y207841D01*
X103623Y207802D01*
X103677Y207757D01*
X103708Y207746D01*
X103731Y207730D01*
X103782Y207721D01*
X103847Y207698D01*
X105200Y207494D01*
X105271Y207497D01*
X105341Y207493D01*
X105372Y207502D01*
X105400Y207504D01*
X105447Y207526D01*
X105513Y207547D01*
X105633Y207610D01*
X106747Y207266D01*
X106781Y207263D01*
X106820Y207249D01*
X107973Y207075D01*
X108054Y206966D01*
X108106Y206919D01*
X108152Y206866D01*
X108181Y206850D01*
X108202Y206832D01*
X108251Y206814D01*
X108312Y206783D01*
X109620Y206379D01*
X109690Y206372D01*
X109759Y206356D01*
X109791Y206362D01*
X109819Y206359D01*
X109868Y206374D01*
X109937Y206385D01*
X110064Y206429D01*
X111115Y205923D01*
X111148Y205914D01*
X111185Y205895D01*
X112299Y205551D01*
X112362Y205432D01*
X112407Y205377D01*
X112445Y205317D01*
X112472Y205298D01*
X112489Y205277D01*
X112535Y205252D01*
X112591Y205212D01*
X113823Y204618D01*
X113892Y204600D01*
X113958Y204575D01*
X113990Y204575D01*
X114018Y204568D01*
X114069Y204576D01*
X114138Y204576D01*
X114271Y204601D01*
X115234Y203944D01*
X115266Y203931D01*
X115300Y203906D01*
X116350Y203400D01*
X116395Y203272D01*
X116430Y203212D01*
X116459Y203147D01*
X116482Y203124D01*
X116497Y203100D01*
X116538Y203069D01*
X116587Y203021D01*
X117718Y202249D01*
X117783Y202222D01*
X117844Y202187D01*
X117877Y202182D01*
X117902Y202171D01*
X117954Y202171D01*
X118023Y202162D01*
X118158Y202167D01*
X119012Y201373D01*
X119042Y201355D01*
X119072Y201326D01*
X120035Y200669D01*
X120060Y200536D01*
X120086Y200471D01*
X120105Y200402D01*
X120125Y200376D01*
X120135Y200350D01*
X120172Y200314D01*
X120213Y200258D01*
X121216Y199327D01*
X121276Y199291D01*
X121331Y199247D01*
X121363Y199237D01*
X121387Y199223D01*
X121438Y199215D01*
X121504Y199195D01*
X121638Y199180D01*
X122365Y198268D01*
X122392Y198246D01*
X122417Y198212D01*
X123271Y197419D01*
X123276Y197284D01*
X123293Y197215D01*
X123301Y197145D01*
X123314Y197120D01*
X123319Y197098D01*
X123322Y197095D01*
X123323Y197089D01*
X123354Y197047D01*
X123386Y196987D01*
X124239Y195916D01*
X124293Y195871D01*
X124341Y195819D01*
X124371Y195805D01*
X124393Y195787D01*
X124442Y195772D01*
X124504Y195743D01*
X124635Y195708D01*
X125218Y194698D01*
X125241Y194672D01*
X125260Y194635D01*
X125987Y193723D01*
X125972Y193589D01*
X125978Y193518D01*
X125976Y193448D01*
X125987Y193417D01*
X125989Y193389D01*
X126013Y193343D01*
X126037Y193278D01*
X126720Y192093D01*
X126767Y192040D01*
X126807Y191982D01*
X126834Y191964D01*
X126853Y191943D01*
X126899Y191920D01*
X126957Y191882D01*
X127081Y191827D01*
X127506Y190742D01*
X127525Y190713D01*
X127539Y190674D01*
X128122Y189664D01*
X128087Y189533D01*
X128082Y189463D01*
X128070Y189393D01*
X128076Y189361D01*
X128074Y189333D01*
X128091Y189284D01*
X128104Y189216D01*
X128604Y187943D01*
X128642Y187883D01*
X128673Y187820D01*
X128697Y187798D01*
X128713Y187774D01*
X128755Y187745D01*
X128806Y187698D01*
X128921Y187626D01*
X129180Y186489D01*
X129194Y186458D01*
X129202Y186417D01*
X129426Y185845D01*
X129433Y185835D01*
X129435Y185824D01*
X129487Y185751D01*
X129535Y185676D01*
X129545Y185670D01*
X129551Y185661D01*
X129627Y185614D01*
X129700Y185563D01*
X129712Y185561D01*
X129721Y185555D01*
X129883Y185526D01*
X129897Y185523D01*
X129898Y185523D01*
X129899Y185523D01*
X176306Y185523D01*
X176314Y185524D01*
G37*
G36*
X262463Y225814D02*
X262463Y225814D01*
X262465Y225813D01*
X262559Y225835D01*
X262656Y225857D01*
X262658Y225858D01*
X262661Y225859D01*
X262809Y225962D01*
X265486Y228639D01*
X269254Y228639D01*
X269494Y228399D01*
X269499Y228396D01*
X269502Y228391D01*
X269582Y228340D01*
X269661Y228288D01*
X269666Y228287D01*
X269671Y228284D01*
X269765Y228268D01*
X269858Y228250D01*
X269863Y228251D01*
X269869Y228250D01*
X269961Y228272D01*
X270054Y228292D01*
X270059Y228295D01*
X270064Y228296D01*
X270212Y228399D01*
X274366Y232553D01*
X279250Y232553D01*
X279252Y232553D01*
X279255Y232553D01*
X279350Y232573D01*
X279446Y232592D01*
X279448Y232594D01*
X279451Y232594D01*
X279532Y232650D01*
X279612Y232705D01*
X279614Y232707D01*
X279616Y232709D01*
X279669Y232792D01*
X279721Y232873D01*
X279722Y232876D01*
X279723Y232878D01*
X279740Y232974D01*
X279757Y233070D01*
X279756Y233073D01*
X279757Y233075D01*
X279735Y233169D01*
X279713Y233266D01*
X279712Y233268D01*
X279711Y233271D01*
X279608Y233419D01*
X276821Y236206D01*
X276821Y238010D01*
X276820Y238015D01*
X276821Y238020D01*
X276800Y238113D01*
X276782Y238207D01*
X276779Y238211D01*
X276778Y238216D01*
X276722Y238294D01*
X276669Y238372D01*
X276665Y238375D01*
X276662Y238379D01*
X276580Y238430D01*
X276501Y238482D01*
X276496Y238482D01*
X276491Y238485D01*
X276314Y238517D01*
X264286Y238517D01*
X249427Y253376D01*
X249427Y303313D01*
X249427Y303315D01*
X249427Y303318D01*
X249407Y303413D01*
X249388Y303509D01*
X249386Y303511D01*
X249386Y303514D01*
X249330Y303594D01*
X249275Y303675D01*
X249273Y303676D01*
X249271Y303678D01*
X249188Y303732D01*
X249107Y303784D01*
X249104Y303785D01*
X249102Y303786D01*
X249006Y303802D01*
X248910Y303820D01*
X248907Y303819D01*
X248905Y303820D01*
X248810Y303798D01*
X248714Y303776D01*
X248712Y303775D01*
X248709Y303774D01*
X248561Y303671D01*
X247709Y302819D01*
X247596Y302772D01*
X246371Y302265D01*
X245199Y301779D01*
X242481Y301779D01*
X239971Y302819D01*
X238049Y304741D01*
X237009Y307251D01*
X237009Y309969D01*
X238049Y312479D01*
X239971Y314401D01*
X240254Y314518D01*
X241478Y315025D01*
X242481Y315441D01*
X245199Y315441D01*
X246796Y314779D01*
X246799Y314779D01*
X246801Y314777D01*
X246897Y314759D01*
X246993Y314740D01*
X246996Y314741D01*
X246998Y314740D01*
X247094Y314761D01*
X247189Y314781D01*
X247191Y314782D01*
X247194Y314783D01*
X247275Y314840D01*
X247355Y314894D01*
X247356Y314897D01*
X247358Y314898D01*
X247410Y314980D01*
X247463Y315063D01*
X247463Y315066D01*
X247465Y315068D01*
X247481Y315164D01*
X247497Y315261D01*
X247497Y315263D01*
X247497Y315266D01*
X247459Y315442D01*
X247169Y316141D01*
X247169Y318859D01*
X248209Y321369D01*
X248515Y321675D01*
X248517Y321678D01*
X248519Y321679D01*
X248572Y321760D01*
X248626Y321842D01*
X248627Y321845D01*
X248628Y321847D01*
X248645Y321943D01*
X248664Y322039D01*
X248663Y322042D01*
X248664Y322044D01*
X248642Y322141D01*
X248622Y322235D01*
X248621Y322237D01*
X248620Y322240D01*
X248563Y322321D01*
X248508Y322400D01*
X248506Y322401D01*
X248504Y322403D01*
X248420Y322456D01*
X248339Y322507D01*
X248336Y322508D01*
X248334Y322509D01*
X248157Y322541D01*
X245486Y322541D01*
X245229Y322798D01*
X245224Y322801D01*
X245221Y322806D01*
X245141Y322857D01*
X245062Y322909D01*
X245057Y322910D01*
X245052Y322913D01*
X244958Y322929D01*
X244865Y322947D01*
X244860Y322946D01*
X244855Y322947D01*
X244762Y322925D01*
X244669Y322905D01*
X244665Y322902D01*
X244659Y322901D01*
X244511Y322798D01*
X244254Y322541D01*
X240486Y322541D01*
X240229Y322798D01*
X240224Y322801D01*
X240221Y322806D01*
X240141Y322857D01*
X240062Y322909D01*
X240057Y322910D01*
X240052Y322913D01*
X239958Y322929D01*
X239865Y322947D01*
X239860Y322946D01*
X239855Y322947D01*
X239762Y322925D01*
X239669Y322905D01*
X239665Y322902D01*
X239659Y322901D01*
X239511Y322798D01*
X239254Y322541D01*
X235486Y322541D01*
X235229Y322798D01*
X235224Y322801D01*
X235221Y322806D01*
X235141Y322857D01*
X235062Y322909D01*
X235057Y322910D01*
X235052Y322913D01*
X234958Y322929D01*
X234865Y322947D01*
X234860Y322946D01*
X234855Y322947D01*
X234762Y322925D01*
X234669Y322905D01*
X234665Y322902D01*
X234659Y322901D01*
X234511Y322798D01*
X234254Y322541D01*
X230486Y322541D01*
X230229Y322798D01*
X230224Y322801D01*
X230221Y322806D01*
X230141Y322857D01*
X230062Y322909D01*
X230057Y322910D01*
X230052Y322913D01*
X229958Y322929D01*
X229865Y322947D01*
X229860Y322946D01*
X229855Y322947D01*
X229762Y322925D01*
X229669Y322905D01*
X229665Y322902D01*
X229659Y322901D01*
X229511Y322798D01*
X229254Y322541D01*
X225486Y322541D01*
X225229Y322798D01*
X225224Y322801D01*
X225221Y322806D01*
X225141Y322857D01*
X225062Y322909D01*
X225057Y322910D01*
X225052Y322913D01*
X224958Y322929D01*
X224865Y322947D01*
X224860Y322946D01*
X224855Y322947D01*
X224762Y322925D01*
X224669Y322905D01*
X224665Y322902D01*
X224659Y322901D01*
X224511Y322798D01*
X224254Y322541D01*
X220486Y322541D01*
X220229Y322798D01*
X220224Y322801D01*
X220221Y322806D01*
X220141Y322857D01*
X220062Y322909D01*
X220057Y322910D01*
X220052Y322913D01*
X219958Y322929D01*
X219865Y322947D01*
X219860Y322946D01*
X219855Y322947D01*
X219762Y322925D01*
X219669Y322905D01*
X219665Y322902D01*
X219659Y322901D01*
X219511Y322798D01*
X219254Y322541D01*
X215486Y322541D01*
X215229Y322798D01*
X215224Y322801D01*
X215221Y322806D01*
X215141Y322857D01*
X215062Y322909D01*
X215057Y322910D01*
X215052Y322913D01*
X214958Y322929D01*
X214865Y322947D01*
X214860Y322946D01*
X214855Y322947D01*
X214762Y322925D01*
X214669Y322905D01*
X214665Y322902D01*
X214659Y322901D01*
X214511Y322798D01*
X214254Y322541D01*
X210486Y322541D01*
X210229Y322798D01*
X210224Y322801D01*
X210221Y322806D01*
X210141Y322857D01*
X210062Y322909D01*
X210057Y322910D01*
X210052Y322913D01*
X209958Y322929D01*
X209865Y322947D01*
X209860Y322946D01*
X209855Y322947D01*
X209762Y322925D01*
X209669Y322905D01*
X209665Y322902D01*
X209659Y322901D01*
X209511Y322798D01*
X209254Y322541D01*
X205486Y322541D01*
X205229Y322798D01*
X205224Y322801D01*
X205221Y322806D01*
X205141Y322857D01*
X205062Y322909D01*
X205057Y322910D01*
X205052Y322913D01*
X204958Y322929D01*
X204865Y322947D01*
X204860Y322946D01*
X204855Y322947D01*
X204762Y322925D01*
X204669Y322905D01*
X204665Y322902D01*
X204659Y322901D01*
X204511Y322798D01*
X204254Y322541D01*
X200486Y322541D01*
X200229Y322798D01*
X200224Y322801D01*
X200221Y322806D01*
X200141Y322857D01*
X200062Y322909D01*
X200057Y322910D01*
X200052Y322913D01*
X199958Y322929D01*
X199865Y322947D01*
X199860Y322946D01*
X199855Y322947D01*
X199762Y322925D01*
X199669Y322905D01*
X199665Y322902D01*
X199659Y322901D01*
X199511Y322798D01*
X199254Y322541D01*
X196601Y322541D01*
X196598Y322541D01*
X196596Y322541D01*
X196501Y322521D01*
X196404Y322502D01*
X196402Y322500D01*
X196400Y322500D01*
X196319Y322444D01*
X196239Y322389D01*
X196237Y322387D01*
X196235Y322385D01*
X196182Y322302D01*
X196129Y322221D01*
X196129Y322218D01*
X196127Y322216D01*
X196111Y322119D01*
X196094Y322024D01*
X196094Y322021D01*
X196094Y322019D01*
X196116Y321924D01*
X196137Y321828D01*
X196139Y321826D01*
X196139Y321823D01*
X196242Y321675D01*
X197359Y320559D01*
X197359Y305551D01*
X194680Y302873D01*
X193257Y301450D01*
X190579Y298771D01*
X180694Y298771D01*
X180687Y298770D01*
X180679Y298771D01*
X180589Y298750D01*
X180498Y298732D01*
X180491Y298727D01*
X180484Y298725D01*
X180336Y298623D01*
X180254Y298541D01*
X166486Y298541D01*
X163821Y301206D01*
X163821Y304974D01*
X166578Y307731D01*
X166581Y307736D01*
X166586Y307739D01*
X166637Y307819D01*
X166689Y307898D01*
X166690Y307903D01*
X166693Y307908D01*
X166709Y308002D01*
X166727Y308095D01*
X166726Y308100D01*
X166727Y308105D01*
X166705Y308198D01*
X166685Y308291D01*
X166682Y308296D01*
X166681Y308301D01*
X166578Y308449D01*
X163821Y311206D01*
X163821Y312102D01*
X163820Y312110D01*
X163821Y312117D01*
X163800Y312207D01*
X163782Y312298D01*
X163777Y312305D01*
X163775Y312312D01*
X163673Y312460D01*
X163529Y312604D01*
X163522Y312609D01*
X163518Y312615D01*
X163439Y312664D01*
X163362Y312715D01*
X163354Y312717D01*
X163347Y312721D01*
X163170Y312753D01*
X161658Y312753D01*
X159147Y313793D01*
X157225Y315714D01*
X156186Y318225D01*
X156186Y320942D01*
X156312Y321246D01*
X156313Y321253D01*
X156316Y321258D01*
X156332Y321351D01*
X156350Y321443D01*
X156349Y321450D01*
X156350Y321456D01*
X156329Y321548D01*
X156310Y321639D01*
X156306Y321645D01*
X156304Y321651D01*
X156202Y321799D01*
X154468Y323533D01*
X154468Y336059D01*
X156253Y337845D01*
X157428Y337845D01*
X157433Y337846D01*
X157439Y337845D01*
X157532Y337866D01*
X157625Y337884D01*
X157629Y337887D01*
X157634Y337889D01*
X157712Y337944D01*
X157791Y337997D01*
X157793Y338001D01*
X157798Y338005D01*
X157848Y338086D01*
X157900Y338165D01*
X157901Y338170D01*
X157904Y338175D01*
X157936Y338352D01*
X157936Y341251D01*
X157935Y341257D01*
X157935Y341262D01*
X157915Y341355D01*
X157896Y341448D01*
X157893Y341452D01*
X157892Y341457D01*
X157837Y341535D01*
X157783Y341614D01*
X157779Y341617D01*
X157776Y341621D01*
X157695Y341671D01*
X157615Y341723D01*
X157610Y341724D01*
X157606Y341727D01*
X157428Y341759D01*
X156079Y341759D01*
X154293Y343545D01*
X154293Y357741D01*
X154292Y357749D01*
X154293Y357757D01*
X154272Y357847D01*
X154254Y357938D01*
X154249Y357944D01*
X154247Y357952D01*
X154145Y358100D01*
X141139Y371106D01*
X141134Y371109D01*
X141130Y371115D01*
X141050Y371165D01*
X140972Y371217D01*
X140966Y371218D01*
X140960Y371221D01*
X140867Y371237D01*
X140775Y371254D01*
X140769Y371253D01*
X140762Y371254D01*
X140586Y371216D01*
X139447Y370744D01*
X138519Y370359D01*
X135801Y370359D01*
X133291Y371399D01*
X131318Y373372D01*
X131258Y373412D01*
X131203Y373458D01*
X131175Y373467D01*
X131151Y373483D01*
X131080Y373497D01*
X131012Y373518D01*
X130983Y373515D01*
X130954Y373521D01*
X130884Y373506D01*
X130813Y373499D01*
X130787Y373485D01*
X130758Y373479D01*
X130699Y373439D01*
X130636Y373405D01*
X130615Y373381D01*
X130593Y373365D01*
X130565Y373321D01*
X130520Y373267D01*
X118476Y352407D01*
X118460Y352360D01*
X118435Y352317D01*
X118429Y352266D01*
X118412Y352217D01*
X118416Y352167D01*
X118409Y352118D01*
X118423Y352068D01*
X118427Y352017D01*
X118449Y351973D01*
X118462Y351925D01*
X118497Y351879D01*
X118518Y351838D01*
X118545Y351815D01*
X118570Y351781D01*
X118997Y351385D01*
X119026Y351367D01*
X119056Y351338D01*
X120020Y350682D01*
X120045Y350549D01*
X120071Y350483D01*
X120090Y350415D01*
X120110Y350389D01*
X120120Y350363D01*
X120157Y350327D01*
X120198Y350271D01*
X121202Y349341D01*
X121262Y349304D01*
X121317Y349260D01*
X121349Y349251D01*
X121373Y349236D01*
X121424Y349229D01*
X121490Y349209D01*
X121624Y349194D01*
X122352Y348282D01*
X122378Y348260D01*
X122403Y348227D01*
X123258Y347434D01*
X123263Y347299D01*
X123280Y347230D01*
X123288Y347160D01*
X123304Y347131D01*
X123310Y347104D01*
X123341Y347062D01*
X123374Y347001D01*
X124227Y345932D01*
X124281Y345887D01*
X124330Y345835D01*
X124359Y345821D01*
X124381Y345803D01*
X124430Y345788D01*
X124493Y345758D01*
X124623Y345723D01*
X125207Y344714D01*
X125230Y344688D01*
X125249Y344651D01*
X125977Y343740D01*
X125962Y343605D01*
X125968Y343535D01*
X125965Y343465D01*
X125977Y343434D01*
X125979Y343406D01*
X126003Y343360D01*
X126026Y343295D01*
X126711Y342110D01*
X126758Y342057D01*
X126798Y341999D01*
X126825Y341981D01*
X126844Y341960D01*
X126890Y341937D01*
X126947Y341899D01*
X127071Y341845D01*
X127498Y340760D01*
X127517Y340730D01*
X127531Y340691D01*
X128114Y339682D01*
X128079Y339551D01*
X128075Y339481D01*
X128062Y339411D01*
X128068Y339379D01*
X128067Y339351D01*
X128083Y339302D01*
X128097Y339234D01*
X128597Y337961D01*
X128635Y337902D01*
X128666Y337838D01*
X128691Y337816D01*
X128706Y337792D01*
X128748Y337763D01*
X128800Y337717D01*
X128914Y337645D01*
X129174Y336508D01*
X129188Y336477D01*
X129196Y336436D01*
X129623Y335351D01*
X129569Y335227D01*
X129554Y335157D01*
X129531Y335091D01*
X129532Y335058D01*
X129526Y335031D01*
X129536Y334980D01*
X129539Y334911D01*
X129844Y333577D01*
X129873Y333513D01*
X129894Y333445D01*
X129915Y333420D01*
X129926Y333394D01*
X129964Y333359D01*
X130008Y333305D01*
X130110Y333217D01*
X130198Y332054D01*
X130207Y332021D01*
X130209Y331979D01*
X130469Y330843D01*
X130397Y330728D01*
X130372Y330662D01*
X130339Y330600D01*
X130336Y330567D01*
X130326Y330541D01*
X130328Y330489D01*
X130321Y330420D01*
X130424Y329056D01*
X130443Y328988D01*
X130454Y328918D01*
X130470Y328890D01*
X130478Y328863D01*
X130510Y328823D01*
X130545Y328763D01*
X130633Y328660D01*
X130547Y327498D01*
X130551Y327463D01*
X130547Y327422D01*
X130634Y326259D01*
X130546Y326157D01*
X130511Y326095D01*
X130470Y326038D01*
X130461Y326006D01*
X130448Y325982D01*
X130442Y325931D01*
X130425Y325864D01*
X130323Y324499D01*
X130332Y324429D01*
X130332Y324358D01*
X130344Y324328D01*
X130348Y324300D01*
X130373Y324255D01*
X130399Y324191D01*
X130471Y324077D01*
X130212Y322940D01*
X130211Y322905D01*
X130201Y322865D01*
X130114Y321702D01*
X130012Y321614D01*
X129968Y321558D01*
X129919Y321508D01*
X129906Y321478D01*
X129889Y321456D01*
X129875Y321406D01*
X129848Y321342D01*
X129544Y320008D01*
X129542Y319938D01*
X129532Y319868D01*
X129540Y319836D01*
X129539Y319808D01*
X129558Y319760D01*
X129574Y319692D01*
X129628Y319569D01*
X129202Y318483D01*
X129196Y318449D01*
X129180Y318411D01*
X128921Y317274D01*
X128806Y317202D01*
X128755Y317153D01*
X128698Y317111D01*
X128681Y317083D01*
X128661Y317064D01*
X128640Y317016D01*
X128604Y316957D01*
X128104Y315684D01*
X128092Y315614D01*
X128072Y315547D01*
X128075Y315514D01*
X128070Y315486D01*
X128081Y315436D01*
X128087Y315367D01*
X128122Y315236D01*
X127539Y314226D01*
X127528Y314193D01*
X127507Y314159D01*
X127506Y314158D01*
X127081Y313073D01*
X126957Y313018D01*
X126899Y312978D01*
X126837Y312945D01*
X126815Y312920D01*
X126792Y312903D01*
X126765Y312860D01*
X126720Y312807D01*
X126037Y311622D01*
X126014Y311555D01*
X125984Y311491D01*
X125982Y311458D01*
X125973Y311432D01*
X125976Y311380D01*
X125972Y311311D01*
X125987Y311177D01*
X125925Y311099D01*
X125890Y311030D01*
X125848Y310965D01*
X125844Y310941D01*
X125833Y310920D01*
X125827Y310843D01*
X125815Y310767D01*
X125820Y310744D01*
X125818Y310721D01*
X125843Y310647D01*
X125860Y310572D01*
X125874Y310551D01*
X125881Y310530D01*
X125918Y310489D01*
X125963Y310424D01*
X143576Y292811D01*
X143580Y292808D01*
X143583Y292805D01*
X143585Y292803D01*
X143587Y292801D01*
X143665Y292752D01*
X143742Y292700D01*
X143750Y292699D01*
X143757Y292695D01*
X143934Y292663D01*
X175365Y292663D01*
X175498Y292639D01*
X179898Y292639D01*
X179906Y292640D01*
X179914Y292639D01*
X180004Y292660D01*
X180095Y292678D01*
X180102Y292683D01*
X180109Y292685D01*
X180257Y292787D01*
X182042Y294572D01*
X182436Y294735D01*
X183660Y295243D01*
X184553Y295612D01*
X187270Y295612D01*
X189781Y294572D01*
X191702Y292651D01*
X192742Y290140D01*
X192742Y288628D01*
X192744Y288620D01*
X192742Y288612D01*
X192763Y288522D01*
X192782Y288431D01*
X192786Y288425D01*
X192788Y288417D01*
X192891Y288269D01*
X201423Y279737D01*
X201423Y238760D01*
X201424Y238755D01*
X201423Y238750D01*
X201444Y238657D01*
X201462Y238563D01*
X201465Y238559D01*
X201466Y238554D01*
X201522Y238476D01*
X201575Y238398D01*
X201579Y238395D01*
X201582Y238391D01*
X201664Y238340D01*
X201743Y238288D01*
X201748Y238288D01*
X201753Y238285D01*
X201930Y238253D01*
X254624Y238253D01*
X261943Y230934D01*
X261943Y226320D01*
X261943Y226318D01*
X261943Y226315D01*
X261963Y226220D01*
X261982Y226124D01*
X261984Y226122D01*
X261984Y226119D01*
X262040Y226038D01*
X262095Y225958D01*
X262097Y225956D01*
X262099Y225954D01*
X262182Y225901D01*
X262263Y225849D01*
X262266Y225848D01*
X262268Y225847D01*
X262364Y225830D01*
X262460Y225813D01*
X262463Y225814D01*
G37*
G36*
X329160Y182085D02*
X329160Y182085D01*
X329242Y182097D01*
X329257Y182107D01*
X329274Y182110D01*
X329342Y182158D01*
X329413Y182201D01*
X329424Y182215D01*
X329438Y182225D01*
X329483Y182296D01*
X329532Y182363D01*
X329536Y182381D01*
X329545Y182395D01*
X329554Y182451D01*
X329577Y182537D01*
X329626Y183198D01*
X329728Y183286D01*
X329772Y183342D01*
X329821Y183392D01*
X329834Y183422D01*
X329851Y183444D01*
X329865Y183494D01*
X329892Y183558D01*
X330196Y184892D01*
X330198Y184962D01*
X330208Y185032D01*
X330200Y185064D01*
X330201Y185092D01*
X330182Y185140D01*
X330166Y185208D01*
X330112Y185331D01*
X330538Y186417D01*
X330544Y186451D01*
X330560Y186489D01*
X330819Y187626D01*
X330934Y187698D01*
X330985Y187747D01*
X331042Y187789D01*
X331059Y187817D01*
X331079Y187836D01*
X331100Y187884D01*
X331136Y187943D01*
X331636Y189216D01*
X331648Y189286D01*
X331668Y189354D01*
X331666Y189386D01*
X331670Y189414D01*
X331659Y189464D01*
X331653Y189533D01*
X331618Y189664D01*
X332201Y190674D01*
X332212Y190707D01*
X332234Y190742D01*
X332659Y191827D01*
X332783Y191882D01*
X332841Y191922D01*
X332903Y191955D01*
X332925Y191980D01*
X332947Y191996D01*
X332975Y192040D01*
X333020Y192093D01*
X333703Y193278D01*
X333726Y193345D01*
X333756Y193409D01*
X333758Y193442D01*
X333767Y193468D01*
X333764Y193520D01*
X333768Y193589D01*
X333753Y193723D01*
X334480Y194635D01*
X334496Y194666D01*
X334522Y194698D01*
X335105Y195708D01*
X335236Y195743D01*
X335299Y195774D01*
X335365Y195798D01*
X335390Y195819D01*
X335415Y195832D01*
X335449Y195871D01*
X335501Y195916D01*
X336354Y196987D01*
X336386Y197049D01*
X336425Y197108D01*
X336427Y197114D01*
X336429Y197117D01*
X336433Y197141D01*
X336445Y197165D01*
X336449Y197216D01*
X336464Y197284D01*
X336469Y197419D01*
X337323Y198212D01*
X337344Y198241D01*
X337375Y198268D01*
X338102Y199180D01*
X338236Y199195D01*
X338303Y199217D01*
X338373Y199230D01*
X338400Y199248D01*
X338427Y199256D01*
X338466Y199290D01*
X338524Y199327D01*
X339527Y200258D01*
X339568Y200316D01*
X339616Y200368D01*
X339628Y200398D01*
X339644Y200421D01*
X339656Y200471D01*
X339680Y200536D01*
X339705Y200669D01*
X340668Y201326D01*
X340693Y201351D01*
X340728Y201373D01*
X341582Y202167D01*
X341717Y202162D01*
X341787Y202173D01*
X341858Y202176D01*
X341888Y202189D01*
X341915Y202194D01*
X341959Y202221D01*
X342022Y202249D01*
X343152Y203021D01*
X343202Y203071D01*
X343257Y203115D01*
X343273Y203144D01*
X343292Y203164D01*
X343311Y203212D01*
X343345Y203272D01*
X343390Y203400D01*
X344440Y203906D01*
X344468Y203927D01*
X344506Y203944D01*
X345469Y204601D01*
X345602Y204576D01*
X345673Y204577D01*
X345743Y204569D01*
X345775Y204578D01*
X345803Y204579D01*
X345850Y204599D01*
X345917Y204618D01*
X347149Y205212D01*
X347205Y205254D01*
X347266Y205290D01*
X347287Y205316D01*
X347309Y205333D01*
X347335Y205377D01*
X347378Y205432D01*
X347441Y205551D01*
X348555Y205895D01*
X348585Y205912D01*
X348625Y205923D01*
X349676Y206429D01*
X349803Y206385D01*
X349873Y206375D01*
X349942Y206357D01*
X349974Y206361D01*
X350002Y206357D01*
X350052Y206371D01*
X350120Y206379D01*
X351428Y206783D01*
X351490Y206816D01*
X351555Y206843D01*
X351579Y206865D01*
X351604Y206878D01*
X351636Y206919D01*
X351686Y206966D01*
X351767Y207075D01*
X352920Y207249D01*
X352952Y207261D01*
X352993Y207266D01*
X354107Y207610D01*
X354227Y207547D01*
X354295Y207527D01*
X354360Y207499D01*
X354392Y207498D01*
X354419Y207490D01*
X354471Y207496D01*
X354540Y207494D01*
X355893Y207698D01*
X355959Y207723D01*
X356028Y207739D01*
X356055Y207757D01*
X356081Y207767D01*
X356119Y207802D01*
X356176Y207841D01*
X356271Y207937D01*
X357437Y207937D01*
X357472Y207944D01*
X357513Y207943D01*
X358666Y208117D01*
X358775Y208037D01*
X358839Y208007D01*
X358899Y207970D01*
X358931Y207964D01*
X358956Y207952D01*
X359008Y207950D01*
X359076Y207938D01*
X360444Y207938D01*
X360514Y207952D01*
X360584Y207958D01*
X360613Y207972D01*
X360641Y207978D01*
X360684Y208007D01*
X360746Y208038D01*
X360854Y208118D01*
X362007Y207945D01*
X362042Y207946D01*
X362083Y207939D01*
X363249Y207939D01*
X363345Y207844D01*
X363404Y207805D01*
X363457Y207759D01*
X363488Y207748D01*
X363512Y207733D01*
X363562Y207723D01*
X363628Y207701D01*
X364981Y207497D01*
X365051Y207501D01*
X365122Y207496D01*
X365153Y207506D01*
X365181Y207507D01*
X365228Y207530D01*
X365294Y207551D01*
X365413Y207614D01*
X366527Y207270D01*
X366562Y207267D01*
X366601Y207254D01*
X367754Y207080D01*
X367835Y206971D01*
X367887Y206924D01*
X367933Y206871D01*
X367962Y206856D01*
X367983Y206837D01*
X368032Y206820D01*
X368093Y206788D01*
X369401Y206385D01*
X369471Y206378D01*
X369540Y206363D01*
X369573Y206368D01*
X369601Y206365D01*
X369650Y206380D01*
X369718Y206391D01*
X369846Y206436D01*
X370896Y205930D01*
X370930Y205922D01*
X370967Y205903D01*
X371542Y205726D01*
X371591Y205721D01*
X371638Y205706D01*
X371689Y205711D01*
X371741Y205706D01*
X371788Y205720D01*
X371837Y205725D01*
X371883Y205749D01*
X371933Y205764D01*
X371970Y205796D01*
X372014Y205819D01*
X372051Y205863D01*
X372087Y205893D01*
X372103Y205924D01*
X372130Y205957D01*
X384486Y227358D01*
X384498Y227394D01*
X384518Y227425D01*
X384530Y227488D01*
X384550Y227548D01*
X384547Y227586D01*
X384554Y227622D01*
X384540Y227685D01*
X384535Y227748D01*
X384518Y227781D01*
X384510Y227818D01*
X384473Y227870D01*
X384444Y227927D01*
X384416Y227951D01*
X384394Y227981D01*
X384340Y228015D01*
X384291Y228056D01*
X384256Y228068D01*
X384224Y228087D01*
X384151Y228100D01*
X384100Y228116D01*
X384075Y228114D01*
X384047Y228119D01*
X383451Y228119D01*
X380941Y229159D01*
X379019Y231081D01*
X377979Y233591D01*
X377979Y236309D01*
X379019Y238819D01*
X380941Y240741D01*
X381486Y240967D01*
X382711Y241474D01*
X383451Y241781D01*
X386169Y241781D01*
X386990Y241441D01*
X388436Y239516D01*
X388461Y239493D01*
X388489Y239456D01*
X390701Y237332D01*
X390729Y237314D01*
X390763Y237281D01*
X393286Y235539D01*
X393313Y235528D01*
X393335Y235509D01*
X393404Y235489D01*
X393469Y235461D01*
X393498Y235461D01*
X393526Y235453D01*
X393597Y235461D01*
X393668Y235461D01*
X393695Y235472D01*
X393724Y235475D01*
X393786Y235510D01*
X393851Y235538D01*
X393872Y235558D01*
X393897Y235573D01*
X393960Y235650D01*
X393990Y235680D01*
X393994Y235690D01*
X394003Y235701D01*
X403503Y252201D01*
X403513Y252233D01*
X403522Y252246D01*
X403526Y252270D01*
X403527Y252274D01*
X403558Y252344D01*
X403558Y252368D01*
X403566Y252390D01*
X403560Y252466D01*
X403561Y252543D01*
X403551Y252567D01*
X403550Y252588D01*
X403529Y252627D01*
X403503Y252699D01*
X394003Y269199D01*
X393984Y269221D01*
X393971Y269247D01*
X393918Y269295D01*
X393871Y269348D01*
X393845Y269361D01*
X393824Y269380D01*
X393756Y269403D01*
X393692Y269434D01*
X393663Y269436D01*
X393636Y269445D01*
X393564Y269440D01*
X393493Y269443D01*
X393466Y269433D01*
X393437Y269431D01*
X393347Y269389D01*
X393307Y269374D01*
X393299Y269367D01*
X393286Y269361D01*
X390763Y267619D01*
X390739Y267595D01*
X390701Y267568D01*
X388489Y265444D01*
X388470Y265416D01*
X388436Y265384D01*
X386766Y263162D01*
X386554Y263074D01*
X383836Y263074D01*
X381326Y264114D01*
X379404Y266036D01*
X378364Y268546D01*
X378364Y271264D01*
X379404Y273774D01*
X381326Y275696D01*
X381981Y275967D01*
X383205Y276474D01*
X383206Y276474D01*
X383836Y276736D01*
X384073Y276736D01*
X384109Y276743D01*
X384147Y276741D01*
X384207Y276763D01*
X384269Y276775D01*
X384300Y276796D01*
X384335Y276809D01*
X384382Y276852D01*
X384435Y276888D01*
X384455Y276919D01*
X384483Y276944D01*
X384510Y277003D01*
X384544Y277056D01*
X384551Y277093D01*
X384567Y277127D01*
X384569Y277190D01*
X384580Y277253D01*
X384572Y277290D01*
X384573Y277327D01*
X384548Y277397D01*
X384536Y277449D01*
X384522Y277469D01*
X384512Y277497D01*
X372130Y298943D01*
X372098Y298980D01*
X372073Y299023D01*
X372032Y299055D01*
X371998Y299094D01*
X371953Y299115D01*
X371914Y299145D01*
X371864Y299158D01*
X371817Y299181D01*
X371768Y299184D01*
X371720Y299196D01*
X371663Y299189D01*
X371617Y299191D01*
X371584Y299179D01*
X371542Y299174D01*
X370967Y298997D01*
X370936Y298981D01*
X370896Y298970D01*
X369846Y298464D01*
X369718Y298509D01*
X369648Y298519D01*
X369580Y298537D01*
X369547Y298533D01*
X369520Y298536D01*
X369470Y298523D01*
X369401Y298515D01*
X368093Y298112D01*
X368031Y298078D01*
X367966Y298052D01*
X367942Y298030D01*
X367917Y298016D01*
X367885Y297976D01*
X367835Y297929D01*
X367754Y297820D01*
X366601Y297646D01*
X366569Y297634D01*
X366527Y297629D01*
X365413Y297286D01*
X365294Y297349D01*
X365226Y297369D01*
X365161Y297397D01*
X365128Y297398D01*
X365101Y297406D01*
X365050Y297401D01*
X364981Y297403D01*
X363628Y297199D01*
X363561Y297175D01*
X363493Y297159D01*
X363466Y297140D01*
X363439Y297131D01*
X363402Y297096D01*
X363345Y297056D01*
X363249Y296961D01*
X362083Y296961D01*
X362049Y296954D01*
X362007Y296955D01*
X360854Y296782D01*
X360746Y296862D01*
X360682Y296892D01*
X360622Y296930D01*
X360589Y296935D01*
X360564Y296947D01*
X360512Y296949D01*
X360444Y296962D01*
X359076Y296962D01*
X359007Y296948D01*
X358937Y296943D01*
X358907Y296928D01*
X358880Y296923D01*
X358837Y296894D01*
X358775Y296863D01*
X358666Y296783D01*
X357513Y296957D01*
X357478Y296955D01*
X357437Y296963D01*
X356310Y296963D01*
X356305Y296962D01*
X356300Y296963D01*
X356207Y296942D01*
X356114Y296923D01*
X356109Y296920D01*
X356104Y296919D01*
X356026Y296864D01*
X355948Y296811D01*
X355945Y296806D01*
X355941Y296803D01*
X355890Y296722D01*
X355839Y296643D01*
X355838Y296638D01*
X355835Y296633D01*
X355803Y296456D01*
X355803Y290939D01*
X355803Y290936D01*
X355803Y290934D01*
X355823Y290839D01*
X355842Y290743D01*
X355844Y290740D01*
X355844Y290738D01*
X355900Y290658D01*
X355955Y290577D01*
X355957Y290575D01*
X355959Y290573D01*
X356042Y290520D01*
X356123Y290468D01*
X356126Y290467D01*
X356128Y290466D01*
X356224Y290449D01*
X356320Y290432D01*
X356323Y290432D01*
X356325Y290432D01*
X356418Y290454D01*
X356516Y290475D01*
X356518Y290477D01*
X356521Y290478D01*
X356669Y290580D01*
X356948Y290860D01*
X366545Y290860D01*
X369796Y287610D01*
X369796Y278081D01*
X369797Y278073D01*
X369796Y278065D01*
X369817Y277975D01*
X369835Y277884D01*
X369840Y277877D01*
X369841Y277870D01*
X369876Y277821D01*
X369876Y275252D01*
X369877Y275244D01*
X369876Y275237D01*
X369897Y275147D01*
X369915Y275056D01*
X369920Y275049D01*
X369921Y275041D01*
X370024Y274893D01*
X370079Y274839D01*
X370079Y274792D01*
X370080Y274784D01*
X370079Y274776D01*
X370100Y274686D01*
X370118Y274595D01*
X370123Y274588D01*
X370125Y274581D01*
X370227Y274433D01*
X371551Y273109D01*
X372591Y270599D01*
X372591Y269570D01*
X372592Y269563D01*
X372591Y269555D01*
X372612Y269465D01*
X372630Y269374D01*
X372635Y269367D01*
X372637Y269360D01*
X372739Y269212D01*
X373519Y268432D01*
X373519Y254907D01*
X371733Y253121D01*
X359207Y253121D01*
X357421Y254907D01*
X357421Y268256D01*
X357420Y268261D01*
X357421Y268266D01*
X357400Y268359D01*
X357382Y268452D01*
X357379Y268456D01*
X357377Y268462D01*
X357322Y268539D01*
X357269Y268618D01*
X357265Y268621D01*
X357261Y268625D01*
X357180Y268676D01*
X357101Y268727D01*
X357096Y268728D01*
X357091Y268731D01*
X356956Y268755D01*
X356669Y269043D01*
X356666Y269044D01*
X356665Y269046D01*
X356584Y269099D01*
X356502Y269154D01*
X356499Y269154D01*
X356497Y269155D01*
X356401Y269173D01*
X356305Y269191D01*
X356302Y269191D01*
X356300Y269191D01*
X356203Y269170D01*
X356109Y269150D01*
X356107Y269148D01*
X356104Y269148D01*
X356024Y269091D01*
X355944Y269035D01*
X355943Y269033D01*
X355941Y269032D01*
X355889Y268948D01*
X355837Y268866D01*
X355836Y268864D01*
X355835Y268861D01*
X355803Y268684D01*
X355803Y249006D01*
X330204Y223407D01*
X280405Y223407D01*
X280404Y223407D01*
X280403Y223407D01*
X280307Y223388D01*
X280209Y223368D01*
X280208Y223367D01*
X280207Y223367D01*
X280126Y223311D01*
X280043Y223255D01*
X280042Y223254D01*
X280041Y223253D01*
X279986Y223168D01*
X279934Y223087D01*
X279934Y223086D01*
X279933Y223085D01*
X279916Y222986D01*
X279898Y222890D01*
X279899Y222888D01*
X279898Y222887D01*
X279920Y222791D01*
X279942Y222694D01*
X279943Y222693D01*
X279943Y222692D01*
X280001Y222611D01*
X280058Y222531D01*
X280059Y222530D01*
X280060Y222529D01*
X280211Y222431D01*
X281999Y221691D01*
X283921Y219769D01*
X284961Y217259D01*
X284961Y214541D01*
X283921Y212031D01*
X281999Y210109D01*
X281604Y209945D01*
X280379Y209438D01*
X279489Y209069D01*
X276771Y209069D01*
X274261Y210109D01*
X272400Y211970D01*
X272396Y211973D01*
X272393Y211977D01*
X272312Y212028D01*
X272233Y212081D01*
X272228Y212082D01*
X272224Y212085D01*
X272130Y212101D01*
X272036Y212118D01*
X272031Y212117D01*
X272026Y212118D01*
X271933Y212097D01*
X271840Y212077D01*
X271836Y212074D01*
X271831Y212073D01*
X271683Y211970D01*
X269254Y209541D01*
X265486Y209541D01*
X262809Y212218D01*
X262806Y212220D01*
X262805Y212222D01*
X262724Y212275D01*
X262642Y212329D01*
X262639Y212330D01*
X262637Y212331D01*
X262541Y212349D01*
X262445Y212367D01*
X262442Y212366D01*
X262440Y212367D01*
X262343Y212345D01*
X262249Y212325D01*
X262247Y212324D01*
X262244Y212323D01*
X262164Y212267D01*
X262084Y212211D01*
X262083Y212209D01*
X262081Y212207D01*
X262029Y212125D01*
X261977Y212042D01*
X261976Y212039D01*
X261975Y212037D01*
X261943Y211860D01*
X261943Y205744D01*
X261944Y205736D01*
X261943Y205729D01*
X261964Y205639D01*
X261982Y205548D01*
X261987Y205541D01*
X261989Y205534D01*
X262091Y205386D01*
X265752Y201725D01*
X265758Y201721D01*
X265763Y201714D01*
X265842Y201665D01*
X265919Y201614D01*
X265926Y201613D01*
X265933Y201609D01*
X266110Y201577D01*
X285317Y201577D01*
X285322Y201578D01*
X285327Y201577D01*
X285420Y201597D01*
X285513Y201616D01*
X285518Y201619D01*
X285523Y201620D01*
X285601Y201675D01*
X285679Y201729D01*
X285682Y201733D01*
X285686Y201736D01*
X285737Y201818D01*
X285788Y201897D01*
X285789Y201902D01*
X285792Y201906D01*
X285824Y202084D01*
X285824Y203767D01*
X287610Y205553D01*
X300136Y205553D01*
X301922Y203767D01*
X301922Y203235D01*
X301923Y203230D01*
X301922Y203225D01*
X301942Y203132D01*
X301961Y203039D01*
X301964Y203034D01*
X301965Y203029D01*
X302021Y202951D01*
X302074Y202873D01*
X302078Y202870D01*
X302081Y202866D01*
X302163Y202815D01*
X302242Y202764D01*
X302247Y202763D01*
X302252Y202760D01*
X302429Y202728D01*
X307902Y202728D01*
X307907Y202729D01*
X307912Y202728D01*
X308005Y202749D01*
X308098Y202767D01*
X308103Y202770D01*
X308108Y202772D01*
X308186Y202827D01*
X308264Y202880D01*
X308267Y202885D01*
X308271Y202888D01*
X308322Y202969D01*
X308373Y203048D01*
X308374Y203053D01*
X308377Y203058D01*
X308409Y203235D01*
X308409Y205410D01*
X310195Y207196D01*
X327721Y207196D01*
X329507Y205410D01*
X329507Y189884D01*
X327721Y188098D01*
X310195Y188098D01*
X308409Y189884D01*
X308409Y192059D01*
X308408Y192064D01*
X308409Y192069D01*
X308388Y192163D01*
X308370Y192256D01*
X308367Y192260D01*
X308365Y192265D01*
X308310Y192343D01*
X308257Y192421D01*
X308253Y192424D01*
X308249Y192429D01*
X308168Y192479D01*
X308089Y192531D01*
X308084Y192532D01*
X308079Y192534D01*
X307902Y192566D01*
X302429Y192566D01*
X302424Y192565D01*
X302419Y192566D01*
X302325Y192546D01*
X302232Y192527D01*
X302228Y192524D01*
X302223Y192523D01*
X302145Y192468D01*
X302067Y192414D01*
X302064Y192410D01*
X302059Y192407D01*
X302009Y192325D01*
X301957Y192246D01*
X301956Y192241D01*
X301954Y192236D01*
X301922Y192059D01*
X301922Y190241D01*
X300136Y188455D01*
X287610Y188455D01*
X285824Y190241D01*
X285824Y191924D01*
X285823Y191929D01*
X285824Y191934D01*
X285803Y192027D01*
X285785Y192120D01*
X285782Y192125D01*
X285780Y192130D01*
X285725Y192208D01*
X285672Y192286D01*
X285668Y192289D01*
X285664Y192293D01*
X285583Y192344D01*
X285504Y192395D01*
X285499Y192396D01*
X285494Y192399D01*
X285317Y192431D01*
X266110Y192431D01*
X266108Y192431D01*
X266105Y192431D01*
X266010Y192411D01*
X265914Y192391D01*
X265912Y192390D01*
X265909Y192389D01*
X265828Y192333D01*
X265748Y192279D01*
X265747Y192277D01*
X265744Y192275D01*
X265691Y192191D01*
X265639Y192111D01*
X265638Y192108D01*
X265637Y192106D01*
X265621Y192009D01*
X265603Y191913D01*
X265604Y191911D01*
X265603Y191908D01*
X265625Y191815D01*
X265647Y191718D01*
X265648Y191716D01*
X265649Y191713D01*
X265752Y191565D01*
X273526Y183791D01*
X273532Y183787D01*
X273537Y183781D01*
X273615Y183732D01*
X273692Y183680D01*
X273700Y183679D01*
X273707Y183675D01*
X273884Y183643D01*
X317282Y183643D01*
X317290Y183644D01*
X317298Y183643D01*
X317388Y183664D01*
X317479Y183682D01*
X317486Y183687D01*
X317493Y183689D01*
X317641Y183791D01*
X318711Y184861D01*
X319455Y185169D01*
X319456Y185169D01*
X320680Y185677D01*
X321221Y185901D01*
X323939Y185901D01*
X326449Y184861D01*
X328371Y182939D01*
X328602Y182381D01*
X328648Y182312D01*
X328690Y182240D01*
X328704Y182229D01*
X328714Y182214D01*
X328783Y182169D01*
X328849Y182119D01*
X328867Y182114D01*
X328881Y182104D01*
X328963Y182089D01*
X329043Y182068D01*
X329061Y182071D01*
X329079Y182068D01*
X329160Y182085D01*
G37*
G36*
X171737Y362857D02*
X171737Y362857D01*
X171742Y362856D01*
X171835Y362877D01*
X171929Y362896D01*
X171933Y362899D01*
X171938Y362900D01*
X172016Y362955D01*
X172094Y363008D01*
X172097Y363013D01*
X172101Y363016D01*
X172152Y363097D01*
X172204Y363176D01*
X172204Y363182D01*
X172207Y363186D01*
X172239Y363363D01*
X172239Y364579D01*
X173279Y367089D01*
X175201Y369011D01*
X175901Y369301D01*
X175902Y369301D01*
X177126Y369808D01*
X177711Y370051D01*
X180429Y370051D01*
X181670Y369537D01*
X181674Y369536D01*
X181677Y369534D01*
X181772Y369517D01*
X181867Y369498D01*
X181870Y369499D01*
X181874Y369498D01*
X181969Y369519D01*
X182063Y369539D01*
X182066Y369541D01*
X182070Y369542D01*
X182149Y369598D01*
X182228Y369652D01*
X182230Y369655D01*
X182233Y369658D01*
X182284Y369740D01*
X182337Y369821D01*
X182337Y369825D01*
X182339Y369828D01*
X182371Y370005D01*
X182371Y373091D01*
X182370Y373095D01*
X182371Y373098D01*
X182351Y373192D01*
X182332Y373287D01*
X182329Y373291D01*
X182329Y373294D01*
X182273Y373373D01*
X182219Y373453D01*
X182216Y373455D01*
X182213Y373458D01*
X182131Y373510D01*
X182051Y373562D01*
X182047Y373563D01*
X182044Y373565D01*
X181948Y373581D01*
X181854Y373598D01*
X181850Y373597D01*
X181846Y373598D01*
X181670Y373559D01*
X180995Y373280D01*
X180429Y373045D01*
X177711Y373045D01*
X175201Y374085D01*
X174131Y375155D01*
X174125Y375159D01*
X174120Y375165D01*
X174041Y375214D01*
X173964Y375266D01*
X173956Y375267D01*
X173950Y375271D01*
X173772Y375303D01*
X168004Y375303D01*
X167996Y375302D01*
X167988Y375303D01*
X167898Y375282D01*
X167807Y375264D01*
X167800Y375259D01*
X167793Y375257D01*
X167645Y375155D01*
X166429Y373939D01*
X166062Y373787D01*
X164838Y373280D01*
X163919Y372899D01*
X161201Y372899D01*
X158691Y373939D01*
X156769Y375861D01*
X155729Y378371D01*
X155729Y381089D01*
X156769Y383599D01*
X158691Y385521D01*
X158720Y385533D01*
X159945Y386040D01*
X161169Y386548D01*
X161170Y386548D01*
X161201Y386561D01*
X163919Y386561D01*
X166429Y385521D01*
X167353Y384597D01*
X167359Y384593D01*
X167364Y384587D01*
X167443Y384538D01*
X167520Y384486D01*
X167528Y384485D01*
X167534Y384481D01*
X167712Y384449D01*
X173772Y384449D01*
X173780Y384450D01*
X173788Y384449D01*
X173878Y384470D01*
X173969Y384488D01*
X173976Y384493D01*
X173983Y384495D01*
X174131Y384597D01*
X175201Y385667D01*
X176102Y386040D01*
X177327Y386548D01*
X177711Y386707D01*
X180429Y386707D01*
X181670Y386193D01*
X181674Y386192D01*
X181677Y386190D01*
X181772Y386173D01*
X181867Y386154D01*
X181870Y386155D01*
X181874Y386154D01*
X181969Y386175D01*
X182063Y386195D01*
X182066Y386197D01*
X182070Y386198D01*
X182149Y386254D01*
X182228Y386308D01*
X182230Y386311D01*
X182233Y386314D01*
X182284Y386396D01*
X182337Y386477D01*
X182337Y386481D01*
X182339Y386484D01*
X182371Y386661D01*
X182371Y395511D01*
X182370Y395519D01*
X182371Y395526D01*
X182350Y395616D01*
X182332Y395708D01*
X182327Y395714D01*
X182325Y395722D01*
X182223Y395870D01*
X179942Y398151D01*
X179935Y398155D01*
X179931Y398161D01*
X179852Y398210D01*
X179775Y398262D01*
X179767Y398263D01*
X179760Y398267D01*
X179583Y398299D01*
X177711Y398299D01*
X175201Y399339D01*
X173279Y401261D01*
X172239Y403771D01*
X172239Y406489D01*
X173279Y408999D01*
X175201Y410921D01*
X176186Y411329D01*
X176189Y411331D01*
X176193Y411332D01*
X176272Y411387D01*
X176352Y411441D01*
X176354Y411444D01*
X176358Y411446D01*
X176409Y411527D01*
X176462Y411608D01*
X176463Y411612D01*
X176465Y411615D01*
X176481Y411710D01*
X176499Y411805D01*
X176498Y411809D01*
X176499Y411813D01*
X176477Y411907D01*
X176456Y412001D01*
X176454Y412004D01*
X176453Y412008D01*
X176350Y412156D01*
X158479Y430028D01*
X158472Y430032D01*
X158468Y430038D01*
X158389Y430087D01*
X158312Y430139D01*
X158304Y430140D01*
X158297Y430144D01*
X158120Y430176D01*
X156248Y430176D01*
X153738Y431216D01*
X151816Y433138D01*
X150974Y435170D01*
X150971Y435176D01*
X150969Y435182D01*
X150915Y435259D01*
X150863Y435337D01*
X150857Y435340D01*
X150853Y435346D01*
X150773Y435395D01*
X150695Y435447D01*
X150689Y435448D01*
X150683Y435451D01*
X150506Y435483D01*
X143284Y435483D01*
X140033Y438734D01*
X140033Y454330D01*
X143284Y457581D01*
X152880Y457581D01*
X156131Y454330D01*
X156131Y444801D01*
X156132Y444793D01*
X156131Y444785D01*
X156152Y444696D01*
X156170Y444604D01*
X156175Y444598D01*
X156177Y444590D01*
X156279Y444442D01*
X156735Y443986D01*
X156742Y443982D01*
X156746Y443976D01*
X156825Y443927D01*
X156902Y443875D01*
X156910Y443874D01*
X156917Y443870D01*
X157094Y443838D01*
X158966Y443838D01*
X161476Y442798D01*
X163398Y440876D01*
X164438Y438366D01*
X164438Y436494D01*
X164439Y436486D01*
X164438Y436478D01*
X164459Y436389D01*
X164477Y436297D01*
X164482Y436291D01*
X164484Y436283D01*
X164586Y436135D01*
X194071Y406650D01*
X194074Y406649D01*
X194075Y406647D01*
X194156Y406594D01*
X194238Y406539D01*
X194241Y406539D01*
X194243Y406537D01*
X194339Y406520D01*
X194435Y406502D01*
X194438Y406502D01*
X194440Y406502D01*
X194537Y406523D01*
X194631Y406543D01*
X194633Y406545D01*
X194636Y406545D01*
X194716Y406602D01*
X194796Y406658D01*
X194797Y406660D01*
X194799Y406661D01*
X194851Y406744D01*
X194903Y406827D01*
X194904Y406829D01*
X194905Y406832D01*
X194937Y407009D01*
X194937Y444816D01*
X194936Y444824D01*
X194937Y444831D01*
X194916Y444921D01*
X194898Y445012D01*
X194893Y445019D01*
X194891Y445027D01*
X194789Y445175D01*
X174784Y465179D01*
X174778Y465183D01*
X174773Y465189D01*
X174695Y465238D01*
X174618Y465290D01*
X174610Y465291D01*
X174603Y465295D01*
X174426Y465327D01*
X144998Y465327D01*
X144990Y465326D01*
X144982Y465327D01*
X144892Y465306D01*
X144801Y465288D01*
X144794Y465283D01*
X144787Y465281D01*
X144639Y465179D01*
X143569Y464109D01*
X143493Y464078D01*
X142269Y463570D01*
X142268Y463570D01*
X141059Y463069D01*
X138341Y463069D01*
X135831Y464109D01*
X133909Y466031D01*
X132869Y468541D01*
X132869Y471259D01*
X133909Y473769D01*
X135651Y475511D01*
X135653Y475514D01*
X135655Y475515D01*
X135707Y475596D01*
X135762Y475678D01*
X135763Y475681D01*
X135764Y475683D01*
X135781Y475779D01*
X135800Y475875D01*
X135799Y475878D01*
X135800Y475880D01*
X135778Y475977D01*
X135758Y476071D01*
X135757Y476073D01*
X135756Y476076D01*
X135700Y476156D01*
X135644Y476236D01*
X135642Y476237D01*
X135640Y476239D01*
X135557Y476291D01*
X135475Y476343D01*
X135472Y476344D01*
X135470Y476345D01*
X135293Y476377D01*
X130984Y476377D01*
X130958Y476372D01*
X130931Y476374D01*
X130861Y476352D01*
X130788Y476338D01*
X130766Y476323D01*
X130740Y476315D01*
X130669Y476257D01*
X130622Y476225D01*
X130614Y476212D01*
X130600Y476201D01*
X130545Y476137D01*
X130510Y476075D01*
X130469Y476018D01*
X130461Y475987D01*
X130447Y475962D01*
X130441Y475911D01*
X130424Y475844D01*
X130321Y474480D01*
X130330Y474410D01*
X130330Y474339D01*
X130342Y474308D01*
X130346Y474281D01*
X130371Y474236D01*
X130397Y474172D01*
X130469Y474057D01*
X130209Y472921D01*
X130208Y472886D01*
X130198Y472846D01*
X130110Y471683D01*
X130008Y471595D01*
X129997Y471581D01*
X129986Y471574D01*
X129962Y471537D01*
X129915Y471489D01*
X129902Y471459D01*
X129885Y471437D01*
X129871Y471387D01*
X129844Y471323D01*
X129539Y469989D01*
X129537Y469919D01*
X129527Y469849D01*
X129535Y469817D01*
X129534Y469789D01*
X129553Y469741D01*
X129569Y469673D01*
X129623Y469549D01*
X129196Y468464D01*
X129190Y468430D01*
X129174Y468392D01*
X128914Y467255D01*
X128800Y467183D01*
X128748Y467135D01*
X128692Y467092D01*
X128675Y467065D01*
X128654Y467045D01*
X128634Y466998D01*
X128597Y466939D01*
X128097Y465666D01*
X128085Y465596D01*
X128064Y465528D01*
X128067Y465496D01*
X128062Y465468D01*
X128073Y465418D01*
X128079Y465349D01*
X128114Y465218D01*
X127531Y464209D01*
X127520Y464176D01*
X127498Y464140D01*
X127071Y463055D01*
X126947Y463001D01*
X126890Y462961D01*
X126827Y462927D01*
X126806Y462902D01*
X126783Y462886D01*
X126756Y462843D01*
X126711Y462790D01*
X126026Y461605D01*
X126004Y461538D01*
X125973Y461474D01*
X125971Y461442D01*
X125962Y461415D01*
X125966Y461364D01*
X125962Y461295D01*
X125977Y461160D01*
X125249Y460249D01*
X125233Y460218D01*
X125207Y460186D01*
X124623Y459177D01*
X124493Y459142D01*
X124430Y459110D01*
X124363Y459087D01*
X124338Y459065D01*
X124313Y459053D01*
X124279Y459014D01*
X124227Y458968D01*
X123374Y457899D01*
X123342Y457836D01*
X123302Y457777D01*
X123295Y457745D01*
X123282Y457720D01*
X123278Y457669D01*
X123263Y457601D01*
X123258Y457466D01*
X122403Y456673D01*
X122383Y456645D01*
X122352Y456618D01*
X121624Y455706D01*
X121490Y455691D01*
X121423Y455670D01*
X121354Y455656D01*
X121326Y455639D01*
X121299Y455630D01*
X121260Y455596D01*
X121202Y455559D01*
X120198Y454629D01*
X120157Y454571D01*
X120109Y454519D01*
X120098Y454489D01*
X120081Y454466D01*
X120070Y454416D01*
X120045Y454351D01*
X120020Y454218D01*
X119056Y453562D01*
X119032Y453537D01*
X118997Y453515D01*
X118570Y453119D01*
X118541Y453079D01*
X118505Y453046D01*
X118483Y452999D01*
X118453Y452956D01*
X118442Y452908D01*
X118421Y452863D01*
X118420Y452812D01*
X118408Y452761D01*
X118417Y452712D01*
X118415Y452663D01*
X118435Y452609D01*
X118442Y452564D01*
X118461Y452534D01*
X118476Y452494D01*
X130139Y432292D01*
X130185Y432239D01*
X130225Y432181D01*
X130251Y432165D01*
X130272Y432141D01*
X130335Y432111D01*
X130394Y432073D01*
X130424Y432068D01*
X130452Y432054D01*
X130522Y432050D01*
X130591Y432038D01*
X130621Y432045D01*
X130652Y432044D01*
X130718Y432067D01*
X130787Y432083D01*
X130812Y432101D01*
X130841Y432111D01*
X130892Y432159D01*
X130950Y432200D01*
X130967Y432228D01*
X130988Y432247D01*
X131010Y432294D01*
X131047Y432351D01*
X131369Y433129D01*
X133291Y435051D01*
X133756Y435244D01*
X134981Y435751D01*
X135801Y436091D01*
X138519Y436091D01*
X141029Y435051D01*
X142951Y433129D01*
X143991Y430619D01*
X143991Y427901D01*
X143155Y425884D01*
X143149Y425850D01*
X143133Y425819D01*
X143129Y425753D01*
X143117Y425687D01*
X143124Y425654D01*
X143122Y425619D01*
X143144Y425556D01*
X143157Y425491D01*
X143177Y425463D01*
X143188Y425430D01*
X143233Y425381D01*
X143271Y425326D01*
X143300Y425307D01*
X143323Y425282D01*
X143383Y425253D01*
X143439Y425217D01*
X143473Y425212D01*
X143505Y425197D01*
X143517Y425196D01*
X143677Y425071D01*
X143737Y425040D01*
X143793Y425002D01*
X143828Y424994D01*
X143856Y424980D01*
X143905Y424977D01*
X143969Y424963D01*
X144411Y424944D01*
X144478Y424955D01*
X144545Y424957D01*
X144578Y424971D01*
X144609Y424976D01*
X144651Y425002D01*
X144711Y425028D01*
X144845Y425116D01*
X145964Y424887D01*
X146002Y424886D01*
X146045Y424877D01*
X147187Y424829D01*
X147296Y424711D01*
X147309Y424701D01*
X147317Y424690D01*
X147358Y424664D01*
X147400Y424624D01*
X147434Y424611D01*
X147458Y424593D01*
X147482Y424587D01*
X147488Y424584D01*
X147513Y424579D01*
X147567Y424557D01*
X148000Y424468D01*
X148068Y424468D01*
X148135Y424459D01*
X148170Y424468D01*
X148201Y424468D01*
X148247Y424487D01*
X148310Y424502D01*
X148457Y424568D01*
X149525Y424162D01*
X149562Y424156D01*
X149603Y424139D01*
X150722Y423909D01*
X150811Y423775D01*
X150859Y423727D01*
X150900Y423673D01*
X150931Y423654D01*
X150952Y423633D01*
X150998Y423614D01*
X151054Y423580D01*
X151467Y423423D01*
X151534Y423412D01*
X151599Y423392D01*
X151635Y423395D01*
X151665Y423390D01*
X151714Y423401D01*
X151779Y423407D01*
X151934Y423448D01*
X152923Y422876D01*
X152958Y422864D01*
X152997Y422841D01*
X154064Y422434D01*
X154130Y422287D01*
X154170Y422232D01*
X154202Y422172D01*
X154229Y422149D01*
X154247Y422124D01*
X154289Y422098D01*
X154339Y422056D01*
X154722Y421834D01*
X154786Y421813D01*
X154847Y421783D01*
X154883Y421780D01*
X154912Y421770D01*
X154961Y421774D01*
X155026Y421769D01*
X155186Y421785D01*
X156071Y421061D01*
X156103Y421043D01*
X156138Y421014D01*
X157126Y420442D01*
X157168Y420286D01*
X157198Y420226D01*
X157220Y420162D01*
X157243Y420134D01*
X157257Y420107D01*
X157294Y420074D01*
X157337Y420025D01*
X157679Y419744D01*
X157739Y419713D01*
X157794Y419674D01*
X157829Y419665D01*
X157856Y419651D01*
X157906Y419646D01*
X157969Y419631D01*
X158130Y419621D01*
X158886Y418765D01*
X158916Y418742D01*
X158945Y418708D01*
X159829Y417984D01*
X159845Y417824D01*
X159865Y417759D01*
X159876Y417693D01*
X159895Y417662D01*
X159904Y417633D01*
X159936Y417594D01*
X159970Y417539D01*
X160263Y417207D01*
X160317Y417166D01*
X160365Y417119D01*
X160398Y417105D01*
X160423Y417086D01*
X160471Y417074D01*
X160531Y417049D01*
X160688Y417013D01*
X161297Y416047D01*
X161323Y416020D01*
X161346Y415981D01*
X162103Y415125D01*
X162093Y414964D01*
X162102Y414897D01*
X162103Y414830D01*
X162116Y414796D01*
X162120Y414766D01*
X162144Y414727D01*
X162148Y414708D01*
X162157Y414695D01*
X162170Y414663D01*
X162406Y414289D01*
X162453Y414240D01*
X162493Y414185D01*
X162523Y414166D01*
X162545Y414144D01*
X162590Y414124D01*
X162645Y414089D01*
X162795Y414029D01*
X163241Y412977D01*
X163262Y412946D01*
X163279Y412905D01*
X163889Y411938D01*
X163853Y411781D01*
X163851Y411713D01*
X163841Y411647D01*
X163849Y411611D01*
X163848Y411581D01*
X163866Y411534D01*
X163881Y411471D01*
X164054Y411064D01*
X164092Y411008D01*
X164122Y410948D01*
X164149Y410924D01*
X164167Y410898D01*
X164209Y410871D01*
X164258Y410828D01*
X164395Y410745D01*
X164667Y409635D01*
X164683Y409602D01*
X164693Y409558D01*
X165140Y408506D01*
X165079Y408357D01*
X165067Y408290D01*
X165046Y408226D01*
X165048Y408190D01*
X165043Y408160D01*
X165053Y408111D01*
X165057Y408046D01*
X165162Y407617D01*
X165191Y407555D01*
X165212Y407491D01*
X165235Y407463D01*
X165248Y407435D01*
X165284Y407402D01*
X165326Y407351D01*
X165448Y407247D01*
X165539Y406108D01*
X165549Y406072D01*
X165552Y406027D01*
X165824Y404918D01*
X165741Y404780D01*
X165718Y404716D01*
X165687Y404656D01*
X165683Y404620D01*
X165673Y404591D01*
X165675Y404542D01*
X165669Y404477D01*
X165689Y404221D01*
X165713Y404138D01*
X165731Y404056D01*
X165733Y404054D01*
X165733Y404051D01*
X165741Y404040D01*
X165744Y404028D01*
X165779Y403985D01*
X165819Y403928D01*
X165819Y402611D01*
X165822Y402592D01*
X165820Y402571D01*
X165925Y401257D01*
X165897Y401208D01*
X165851Y401133D01*
X165848Y401120D01*
X165843Y401110D01*
X165837Y401055D01*
X165824Y400985D01*
X164893Y400055D01*
X164892Y400053D01*
X164890Y400051D01*
X164881Y400037D01*
X164866Y400025D01*
X164011Y399022D01*
X163956Y399007D01*
X163871Y398987D01*
X163860Y398979D01*
X163848Y398976D01*
X163805Y398941D01*
X163748Y398901D01*
X162431Y398901D01*
X162419Y398899D01*
X162512Y399281D01*
X162514Y399315D01*
X162525Y399360D01*
X162768Y402410D01*
X162764Y402439D01*
X162769Y402467D01*
X162767Y402477D01*
X162768Y402490D01*
X162525Y405540D01*
X162516Y405572D01*
X162512Y405619D01*
X161784Y408591D01*
X161769Y408622D01*
X161758Y408667D01*
X160562Y411484D01*
X160543Y411512D01*
X160525Y411555D01*
X158893Y414143D01*
X158869Y414167D01*
X158845Y414207D01*
X156818Y416500D01*
X156791Y416520D01*
X156760Y416556D01*
X154393Y418494D01*
X154362Y418510D01*
X154326Y418539D01*
X151678Y420073D01*
X151646Y420083D01*
X151606Y420107D01*
X148746Y421196D01*
X148713Y421201D01*
X148669Y421218D01*
X145672Y421834D01*
X145638Y421834D01*
X145592Y421843D01*
X142535Y421970D01*
X142501Y421965D01*
X142454Y421967D01*
X139416Y421602D01*
X139384Y421591D01*
X139338Y421586D01*
X136398Y420738D01*
X136368Y420722D01*
X136323Y420710D01*
X133557Y419401D01*
X133534Y419384D01*
X133507Y419374D01*
X133455Y419325D01*
X133397Y419282D01*
X133383Y419257D01*
X133362Y419238D01*
X133333Y419172D01*
X133297Y419110D01*
X133294Y419082D01*
X133282Y419056D01*
X133281Y418984D01*
X133272Y418913D01*
X133280Y418886D01*
X133280Y418857D01*
X133315Y418762D01*
X133326Y418722D01*
X133333Y418713D01*
X133337Y418701D01*
X142694Y402450D01*
X133337Y386199D01*
X133328Y386172D01*
X133312Y386148D01*
X133297Y386078D01*
X133274Y386010D01*
X133277Y385982D01*
X133271Y385954D01*
X133285Y385884D01*
X133290Y385812D01*
X133303Y385787D01*
X133309Y385759D01*
X133349Y385699D01*
X133382Y385636D01*
X133404Y385618D01*
X133420Y385594D01*
X133503Y385536D01*
X133535Y385509D01*
X133546Y385506D01*
X133557Y385499D01*
X136323Y384190D01*
X136356Y384182D01*
X136398Y384162D01*
X139338Y383314D01*
X139372Y383311D01*
X139416Y383298D01*
X140610Y383155D01*
X141029Y382981D01*
X141591Y382419D01*
X141597Y382415D01*
X141602Y382409D01*
X141681Y382360D01*
X141758Y382308D01*
X141766Y382307D01*
X141772Y382303D01*
X141950Y382271D01*
X144345Y382271D01*
X163611Y363005D01*
X163617Y363000D01*
X163622Y362994D01*
X163700Y362945D01*
X163778Y362894D01*
X163785Y362892D01*
X163792Y362888D01*
X163969Y362856D01*
X171732Y362856D01*
X171737Y362857D01*
G37*
G36*
X361811Y300017D02*
X361811Y300017D01*
X361854Y300016D01*
X365847Y300617D01*
X365877Y300628D01*
X365920Y300633D01*
X369779Y301822D01*
X369807Y301837D01*
X369848Y301849D01*
X373486Y303600D01*
X373508Y303617D01*
X373534Y303626D01*
X373587Y303676D01*
X373645Y303720D01*
X373658Y303744D01*
X373678Y303763D01*
X373708Y303829D01*
X373744Y303893D01*
X373747Y303920D01*
X373758Y303945D01*
X373759Y304018D01*
X373768Y304090D01*
X373760Y304116D01*
X373760Y304144D01*
X373724Y304242D01*
X373712Y304281D01*
X373706Y304289D01*
X373702Y304300D01*
X346702Y351100D01*
X346684Y351120D01*
X346673Y351145D01*
X346619Y351194D01*
X346571Y351249D01*
X346546Y351260D01*
X346526Y351279D01*
X346457Y351303D01*
X346391Y351334D01*
X346364Y351336D01*
X346339Y351345D01*
X346266Y351340D01*
X346193Y351343D01*
X346167Y351334D01*
X346140Y351332D01*
X346044Y351288D01*
X346006Y351274D01*
X345999Y351267D01*
X345989Y351263D01*
X342652Y348989D01*
X342630Y348966D01*
X342594Y348943D01*
X339633Y346197D01*
X339614Y346171D01*
X339582Y346143D01*
X337064Y342987D01*
X337049Y342958D01*
X337022Y342925D01*
X335002Y339429D01*
X334992Y339399D01*
X334969Y339362D01*
X333493Y335604D01*
X333488Y335572D01*
X333471Y335532D01*
X332571Y331596D01*
X332571Y331564D01*
X332560Y331522D01*
X332257Y327496D01*
X332260Y327473D01*
X332257Y327453D01*
X332259Y327443D01*
X332257Y327422D01*
X332558Y323395D01*
X332566Y323364D01*
X332569Y323321D01*
X333466Y319385D01*
X333479Y319356D01*
X333488Y319313D01*
X334962Y315554D01*
X334979Y315527D01*
X334994Y315487D01*
X337012Y311990D01*
X337033Y311966D01*
X337054Y311928D01*
X339570Y308770D01*
X339595Y308750D01*
X339621Y308716D01*
X342580Y305968D01*
X342607Y305952D01*
X342638Y305922D01*
X345974Y303646D01*
X346003Y303634D01*
X346038Y303609D01*
X349676Y301856D01*
X349706Y301848D01*
X349745Y301829D01*
X353603Y300637D01*
X353635Y300634D01*
X353676Y300621D01*
X357668Y300018D01*
X357700Y300019D01*
X357742Y300012D01*
X361780Y300011D01*
X361811Y300017D01*
G37*
G36*
X361811Y600017D02*
X361811Y600017D01*
X361854Y600016D01*
X365847Y600617D01*
X365877Y600628D01*
X365920Y600633D01*
X369779Y601822D01*
X369807Y601837D01*
X369848Y601849D01*
X373486Y603600D01*
X373508Y603617D01*
X373534Y603626D01*
X373587Y603676D01*
X373645Y603720D01*
X373658Y603744D01*
X373678Y603763D01*
X373708Y603829D01*
X373744Y603893D01*
X373747Y603920D01*
X373758Y603945D01*
X373759Y604018D01*
X373768Y604090D01*
X373760Y604116D01*
X373760Y604144D01*
X373724Y604242D01*
X373712Y604281D01*
X373706Y604289D01*
X373702Y604300D01*
X346702Y651100D01*
X346684Y651120D01*
X346673Y651145D01*
X346619Y651194D01*
X346571Y651249D01*
X346546Y651260D01*
X346526Y651279D01*
X346457Y651303D01*
X346391Y651334D01*
X346364Y651336D01*
X346339Y651345D01*
X346266Y651340D01*
X346193Y651343D01*
X346167Y651334D01*
X346140Y651332D01*
X346044Y651288D01*
X346006Y651274D01*
X345999Y651267D01*
X345989Y651263D01*
X342652Y648989D01*
X342630Y648966D01*
X342594Y648943D01*
X339633Y646197D01*
X339614Y646171D01*
X339582Y646143D01*
X337064Y642987D01*
X337049Y642958D01*
X337022Y642925D01*
X335002Y639429D01*
X334992Y639399D01*
X334969Y639362D01*
X333493Y635604D01*
X333488Y635572D01*
X333471Y635532D01*
X332571Y631596D01*
X332571Y631564D01*
X332560Y631522D01*
X332257Y627496D01*
X332260Y627473D01*
X332257Y627453D01*
X332259Y627443D01*
X332257Y627422D01*
X332558Y623395D01*
X332566Y623364D01*
X332569Y623321D01*
X333466Y619385D01*
X333479Y619356D01*
X333488Y619313D01*
X334962Y615554D01*
X334979Y615527D01*
X334994Y615487D01*
X337012Y611990D01*
X337033Y611966D01*
X337054Y611928D01*
X339570Y608770D01*
X339595Y608750D01*
X339621Y608716D01*
X342580Y605968D01*
X342607Y605952D01*
X342638Y605922D01*
X345974Y603646D01*
X346003Y603634D01*
X346038Y603609D01*
X349676Y601856D01*
X349706Y601848D01*
X349745Y601829D01*
X353603Y600637D01*
X353635Y600634D01*
X353676Y600621D01*
X357668Y600018D01*
X357700Y600019D01*
X357742Y600012D01*
X361780Y600011D01*
X361811Y600017D01*
G37*
G36*
X101998Y300012D02*
X101998Y300012D01*
X102029Y300018D01*
X102072Y300018D01*
X106064Y300621D01*
X106094Y300632D01*
X106137Y300637D01*
X109995Y301829D01*
X110023Y301844D01*
X110065Y301856D01*
X113702Y303609D01*
X113727Y303628D01*
X113766Y303646D01*
X117102Y305922D01*
X117124Y305945D01*
X117160Y305968D01*
X120119Y308716D01*
X120138Y308741D01*
X120170Y308770D01*
X122686Y311928D01*
X122701Y311956D01*
X122728Y311990D01*
X124746Y315487D01*
X124756Y315517D01*
X124778Y315554D01*
X126252Y319313D01*
X126258Y319345D01*
X126274Y319385D01*
X127171Y323321D01*
X127172Y323353D01*
X127182Y323395D01*
X127483Y327422D01*
X127479Y327453D01*
X127480Y327469D01*
X127483Y327486D01*
X127482Y327490D01*
X127483Y327496D01*
X127180Y331522D01*
X127171Y331553D01*
X127169Y331596D01*
X126269Y335532D01*
X126256Y335561D01*
X126247Y335604D01*
X124771Y339362D01*
X124753Y339389D01*
X124738Y339429D01*
X122718Y342925D01*
X122697Y342949D01*
X122676Y342987D01*
X120158Y346143D01*
X120133Y346163D01*
X120107Y346197D01*
X117146Y348943D01*
X117119Y348959D01*
X117088Y348989D01*
X113751Y351263D01*
X113726Y351273D01*
X113705Y351290D01*
X113635Y351311D01*
X113568Y351340D01*
X113540Y351340D01*
X113514Y351347D01*
X113442Y351339D01*
X113369Y351339D01*
X113344Y351328D01*
X113317Y351325D01*
X113253Y351289D01*
X113186Y351261D01*
X113167Y351241D01*
X113144Y351228D01*
X113077Y351147D01*
X113048Y351117D01*
X113045Y351108D01*
X113038Y351100D01*
X86038Y304300D01*
X86029Y304274D01*
X86013Y304251D01*
X85998Y304180D01*
X85974Y304111D01*
X85977Y304084D01*
X85971Y304057D01*
X85984Y303986D01*
X85990Y303913D01*
X86003Y303888D01*
X86008Y303862D01*
X86048Y303801D01*
X86082Y303736D01*
X86103Y303719D01*
X86118Y303696D01*
X86204Y303635D01*
X86235Y303610D01*
X86244Y303607D01*
X86254Y303600D01*
X89892Y301849D01*
X89923Y301842D01*
X89961Y301822D01*
X93820Y300633D01*
X93852Y300630D01*
X93893Y300617D01*
X97886Y300016D01*
X97917Y300018D01*
X97960Y300011D01*
X101998Y300012D01*
G37*
G36*
X101998Y600012D02*
X101998Y600012D01*
X102029Y600018D01*
X102072Y600018D01*
X106064Y600621D01*
X106094Y600632D01*
X106137Y600637D01*
X109995Y601829D01*
X110023Y601844D01*
X110065Y601856D01*
X113702Y603609D01*
X113727Y603628D01*
X113766Y603646D01*
X117102Y605922D01*
X117124Y605945D01*
X117160Y605968D01*
X120119Y608716D01*
X120138Y608741D01*
X120170Y608770D01*
X122686Y611928D01*
X122701Y611956D01*
X122728Y611990D01*
X124746Y615487D01*
X124756Y615517D01*
X124778Y615554D01*
X126252Y619313D01*
X126258Y619345D01*
X126274Y619385D01*
X127171Y623321D01*
X127172Y623353D01*
X127182Y623395D01*
X127483Y627422D01*
X127479Y627453D01*
X127480Y627469D01*
X127483Y627486D01*
X127482Y627490D01*
X127483Y627496D01*
X127180Y631522D01*
X127171Y631553D01*
X127169Y631596D01*
X126269Y635532D01*
X126256Y635561D01*
X126247Y635604D01*
X124771Y639362D01*
X124753Y639389D01*
X124738Y639429D01*
X122718Y642925D01*
X122697Y642949D01*
X122676Y642987D01*
X120158Y646143D01*
X120133Y646163D01*
X120107Y646197D01*
X117146Y648943D01*
X117119Y648959D01*
X117088Y648989D01*
X113751Y651263D01*
X113726Y651273D01*
X113705Y651290D01*
X113635Y651311D01*
X113568Y651340D01*
X113540Y651340D01*
X113514Y651347D01*
X113442Y651339D01*
X113369Y651339D01*
X113344Y651328D01*
X113317Y651325D01*
X113253Y651289D01*
X113186Y651261D01*
X113167Y651241D01*
X113144Y651228D01*
X113077Y651147D01*
X113048Y651117D01*
X113045Y651108D01*
X113038Y651100D01*
X86038Y604300D01*
X86029Y604274D01*
X86013Y604251D01*
X85998Y604180D01*
X85974Y604111D01*
X85977Y604084D01*
X85971Y604057D01*
X85984Y603986D01*
X85990Y603913D01*
X86003Y603888D01*
X86008Y603862D01*
X86048Y603801D01*
X86082Y603736D01*
X86103Y603719D01*
X86118Y603696D01*
X86204Y603635D01*
X86235Y603610D01*
X86244Y603607D01*
X86254Y603600D01*
X89892Y601849D01*
X89923Y601842D01*
X89961Y601822D01*
X93820Y600633D01*
X93852Y600630D01*
X93893Y600617D01*
X97886Y600016D01*
X97917Y600018D01*
X97960Y600011D01*
X101998Y600012D01*
G37*
G36*
X346298Y453561D02*
X346298Y453561D01*
X346371Y453561D01*
X346396Y453572D01*
X346423Y453575D01*
X346487Y453611D01*
X346554Y453639D01*
X346573Y453659D01*
X346596Y453672D01*
X346664Y453753D01*
X346692Y453783D01*
X346695Y453792D01*
X346702Y453801D01*
X373702Y500601D01*
X373711Y500626D01*
X373727Y500649D01*
X373742Y500720D01*
X373766Y500789D01*
X373763Y500816D01*
X373769Y500843D01*
X373756Y500914D01*
X373750Y500987D01*
X373737Y501012D01*
X373732Y501038D01*
X373692Y501099D01*
X373658Y501164D01*
X373637Y501181D01*
X373622Y501204D01*
X373536Y501265D01*
X373505Y501290D01*
X373496Y501293D01*
X373486Y501300D01*
X369848Y503051D01*
X369817Y503058D01*
X369779Y503078D01*
X365920Y504267D01*
X365888Y504270D01*
X365847Y504283D01*
X361854Y504884D01*
X361823Y504882D01*
X361780Y504889D01*
X357742Y504888D01*
X357711Y504882D01*
X357668Y504882D01*
X353676Y504279D01*
X353646Y504268D01*
X353603Y504263D01*
X349745Y503071D01*
X349717Y503056D01*
X349676Y503044D01*
X346038Y501291D01*
X346013Y501272D01*
X345974Y501254D01*
X342638Y498978D01*
X342616Y498955D01*
X342580Y498932D01*
X339621Y496184D01*
X339602Y496159D01*
X339570Y496130D01*
X337054Y492972D01*
X337039Y492944D01*
X337012Y492910D01*
X334994Y489413D01*
X334984Y489383D01*
X334962Y489346D01*
X333488Y485587D01*
X333482Y485555D01*
X333466Y485515D01*
X332569Y481579D01*
X332568Y481547D01*
X332558Y481505D01*
X332257Y477479D01*
X332261Y477447D01*
X332257Y477404D01*
X332560Y473378D01*
X332569Y473347D01*
X332571Y473304D01*
X333471Y469368D01*
X333484Y469339D01*
X333493Y469296D01*
X334969Y465538D01*
X334987Y465511D01*
X335002Y465471D01*
X337022Y461975D01*
X337043Y461951D01*
X337064Y461913D01*
X339582Y458757D01*
X339607Y458737D01*
X339633Y458703D01*
X342594Y455957D01*
X342621Y455941D01*
X342652Y455911D01*
X345989Y453637D01*
X346014Y453627D01*
X346035Y453610D01*
X346105Y453589D01*
X346172Y453560D01*
X346200Y453561D01*
X346226Y453553D01*
X346298Y453561D01*
G37*
G36*
X346298Y153561D02*
X346298Y153561D01*
X346371Y153561D01*
X346396Y153572D01*
X346423Y153575D01*
X346487Y153611D01*
X346554Y153639D01*
X346573Y153659D01*
X346596Y153672D01*
X346664Y153753D01*
X346692Y153783D01*
X346695Y153792D01*
X346702Y153801D01*
X373702Y200601D01*
X373711Y200626D01*
X373727Y200649D01*
X373742Y200720D01*
X373766Y200789D01*
X373763Y200816D01*
X373769Y200843D01*
X373756Y200914D01*
X373750Y200987D01*
X373737Y201012D01*
X373732Y201038D01*
X373692Y201099D01*
X373658Y201164D01*
X373637Y201181D01*
X373622Y201204D01*
X373536Y201265D01*
X373505Y201290D01*
X373496Y201293D01*
X373486Y201300D01*
X369848Y203051D01*
X369817Y203058D01*
X369779Y203078D01*
X365920Y204267D01*
X365888Y204270D01*
X365847Y204283D01*
X361854Y204884D01*
X361823Y204882D01*
X361780Y204889D01*
X357742Y204888D01*
X357711Y204882D01*
X357668Y204882D01*
X353676Y204279D01*
X353646Y204268D01*
X353603Y204263D01*
X349745Y203071D01*
X349717Y203056D01*
X349676Y203044D01*
X346038Y201291D01*
X346013Y201272D01*
X345974Y201254D01*
X342638Y198978D01*
X342616Y198955D01*
X342580Y198932D01*
X339621Y196184D01*
X339602Y196159D01*
X339570Y196130D01*
X337054Y192972D01*
X337039Y192944D01*
X337012Y192910D01*
X334994Y189413D01*
X334984Y189383D01*
X334962Y189346D01*
X333488Y185587D01*
X333482Y185555D01*
X333466Y185515D01*
X332569Y181579D01*
X332568Y181547D01*
X332558Y181505D01*
X332257Y177479D01*
X332261Y177447D01*
X332257Y177404D01*
X332560Y173378D01*
X332569Y173347D01*
X332571Y173304D01*
X333471Y169368D01*
X333484Y169339D01*
X333493Y169296D01*
X334969Y165538D01*
X334987Y165511D01*
X335002Y165471D01*
X337022Y161975D01*
X337043Y161951D01*
X337064Y161913D01*
X339582Y158757D01*
X339607Y158737D01*
X339633Y158703D01*
X342594Y155957D01*
X342621Y155941D01*
X342652Y155911D01*
X345989Y153637D01*
X346014Y153627D01*
X346035Y153610D01*
X346105Y153589D01*
X346172Y153560D01*
X346200Y153561D01*
X346226Y153553D01*
X346298Y153561D01*
G37*
G36*
X113474Y453560D02*
X113474Y453560D01*
X113547Y453557D01*
X113573Y453566D01*
X113600Y453568D01*
X113696Y453612D01*
X113734Y453626D01*
X113741Y453633D01*
X113751Y453637D01*
X117088Y455911D01*
X117110Y455934D01*
X117146Y455957D01*
X120107Y458703D01*
X120126Y458729D01*
X120158Y458757D01*
X122676Y461913D01*
X122691Y461942D01*
X122718Y461975D01*
X124738Y465471D01*
X124748Y465501D01*
X124771Y465538D01*
X126247Y469296D01*
X126252Y469328D01*
X126269Y469368D01*
X127169Y473304D01*
X127169Y473336D01*
X127180Y473378D01*
X127483Y477404D01*
X127479Y477435D01*
X127483Y477479D01*
X127182Y481505D01*
X127174Y481536D01*
X127171Y481579D01*
X126274Y485515D01*
X126261Y485544D01*
X126252Y485587D01*
X124778Y489346D01*
X124761Y489373D01*
X124746Y489413D01*
X122728Y492910D01*
X122707Y492934D01*
X122686Y492972D01*
X120170Y496130D01*
X120145Y496150D01*
X120119Y496184D01*
X117160Y498932D01*
X117133Y498948D01*
X117102Y498978D01*
X113766Y501254D01*
X113737Y501266D01*
X113702Y501291D01*
X110065Y503044D01*
X110034Y503052D01*
X109995Y503071D01*
X106137Y504263D01*
X106105Y504266D01*
X106064Y504279D01*
X102072Y504882D01*
X102040Y504881D01*
X101998Y504888D01*
X97960Y504889D01*
X97929Y504883D01*
X97886Y504884D01*
X93893Y504283D01*
X93863Y504272D01*
X93820Y504267D01*
X89961Y503078D01*
X89933Y503063D01*
X89892Y503051D01*
X86254Y501300D01*
X86232Y501283D01*
X86206Y501274D01*
X86153Y501224D01*
X86095Y501180D01*
X86082Y501156D01*
X86062Y501137D01*
X86032Y501071D01*
X85996Y501007D01*
X85993Y500980D01*
X85982Y500955D01*
X85981Y500882D01*
X85972Y500810D01*
X85980Y500784D01*
X85980Y500756D01*
X86016Y500658D01*
X86028Y500619D01*
X86034Y500611D01*
X86038Y500601D01*
X113038Y453801D01*
X113056Y453780D01*
X113067Y453755D01*
X113121Y453706D01*
X113169Y453652D01*
X113194Y453640D01*
X113214Y453621D01*
X113283Y453597D01*
X113349Y453566D01*
X113376Y453565D01*
X113401Y453555D01*
X113474Y453560D01*
G37*
G36*
X113474Y153560D02*
X113474Y153560D01*
X113547Y153557D01*
X113573Y153566D01*
X113600Y153568D01*
X113696Y153612D01*
X113734Y153626D01*
X113741Y153633D01*
X113751Y153637D01*
X117088Y155911D01*
X117110Y155934D01*
X117146Y155957D01*
X120107Y158703D01*
X120126Y158729D01*
X120158Y158757D01*
X122676Y161913D01*
X122691Y161942D01*
X122718Y161975D01*
X124738Y165471D01*
X124748Y165501D01*
X124771Y165538D01*
X126247Y169296D01*
X126252Y169328D01*
X126269Y169368D01*
X127169Y173304D01*
X127169Y173336D01*
X127180Y173378D01*
X127483Y177404D01*
X127479Y177435D01*
X127483Y177479D01*
X127182Y181505D01*
X127174Y181536D01*
X127171Y181579D01*
X126274Y185515D01*
X126261Y185544D01*
X126252Y185587D01*
X124778Y189346D01*
X124761Y189373D01*
X124746Y189413D01*
X122728Y192910D01*
X122707Y192934D01*
X122686Y192972D01*
X120170Y196130D01*
X120145Y196150D01*
X120119Y196184D01*
X117160Y198932D01*
X117133Y198948D01*
X117102Y198978D01*
X113766Y201254D01*
X113737Y201266D01*
X113702Y201291D01*
X110065Y203044D01*
X110034Y203052D01*
X109995Y203071D01*
X106137Y204263D01*
X106105Y204266D01*
X106064Y204279D01*
X102072Y204882D01*
X102040Y204881D01*
X101998Y204888D01*
X97960Y204889D01*
X97929Y204883D01*
X97886Y204884D01*
X93893Y204283D01*
X93863Y204272D01*
X93820Y204267D01*
X89961Y203078D01*
X89933Y203063D01*
X89892Y203051D01*
X86254Y201300D01*
X86232Y201283D01*
X86206Y201274D01*
X86153Y201224D01*
X86095Y201180D01*
X86082Y201156D01*
X86062Y201137D01*
X86032Y201071D01*
X85996Y201007D01*
X85993Y200980D01*
X85982Y200955D01*
X85981Y200882D01*
X85972Y200810D01*
X85980Y200784D01*
X85980Y200756D01*
X86016Y200658D01*
X86028Y200619D01*
X86034Y200611D01*
X86038Y200601D01*
X113038Y153801D01*
X113056Y153780D01*
X113067Y153755D01*
X113121Y153706D01*
X113169Y153652D01*
X113194Y153640D01*
X113214Y153621D01*
X113283Y153597D01*
X113349Y153566D01*
X113376Y153565D01*
X113401Y153555D01*
X113474Y153560D01*
G37*
G36*
X334051Y344362D02*
X334051Y344362D01*
X334082Y344360D01*
X334148Y344383D01*
X334216Y344398D01*
X334241Y344417D01*
X334271Y344427D01*
X334334Y344482D01*
X334379Y344514D01*
X334390Y344531D01*
X334406Y344546D01*
X334491Y344651D01*
X334506Y344682D01*
X334533Y344714D01*
X335117Y345723D01*
X335247Y345758D01*
X335310Y345790D01*
X335377Y345813D01*
X335402Y345835D01*
X335427Y345847D01*
X335461Y345886D01*
X335513Y345932D01*
X336366Y347001D01*
X336398Y347064D01*
X336438Y347123D01*
X336445Y347155D01*
X336458Y347180D01*
X336462Y347231D01*
X336477Y347299D01*
X336482Y347434D01*
X337337Y348227D01*
X337357Y348255D01*
X337388Y348282D01*
X338116Y349194D01*
X338250Y349209D01*
X338317Y349230D01*
X338386Y349244D01*
X338414Y349261D01*
X338441Y349270D01*
X338480Y349304D01*
X338538Y349341D01*
X339542Y350271D01*
X339583Y350329D01*
X339631Y350381D01*
X339642Y350411D01*
X339659Y350434D01*
X339670Y350484D01*
X339695Y350549D01*
X339720Y350682D01*
X340684Y351338D01*
X340708Y351363D01*
X340743Y351385D01*
X341170Y351781D01*
X341199Y351821D01*
X341235Y351854D01*
X341257Y351902D01*
X341287Y351944D01*
X341298Y351992D01*
X341319Y352037D01*
X341320Y352088D01*
X341332Y352139D01*
X341323Y352187D01*
X341325Y352237D01*
X341305Y352291D01*
X341298Y352336D01*
X341279Y352366D01*
X341264Y352406D01*
X322989Y384060D01*
X323342Y384162D01*
X323372Y384178D01*
X323418Y384190D01*
X326184Y385499D01*
X326206Y385516D01*
X326233Y385526D01*
X326285Y385575D01*
X326343Y385618D01*
X326357Y385643D01*
X326378Y385662D01*
X326407Y385728D01*
X326443Y385790D01*
X326446Y385818D01*
X326458Y385844D01*
X326459Y385916D01*
X326468Y385987D01*
X326460Y386014D01*
X326461Y386043D01*
X326425Y386138D01*
X326414Y386178D01*
X326407Y386187D01*
X326403Y386199D01*
X317046Y402450D01*
X326403Y418701D01*
X326412Y418728D01*
X326428Y418752D01*
X326443Y418822D01*
X326466Y418890D01*
X326463Y418918D01*
X326469Y418946D01*
X326456Y419017D01*
X326450Y419088D01*
X326437Y419113D01*
X326431Y419141D01*
X326391Y419201D01*
X326358Y419264D01*
X326336Y419282D01*
X326320Y419306D01*
X326237Y419364D01*
X326205Y419391D01*
X326194Y419394D01*
X326184Y419401D01*
X323418Y420710D01*
X323385Y420718D01*
X323342Y420738D01*
X320402Y421586D01*
X320368Y421589D01*
X320324Y421602D01*
X317286Y421967D01*
X317252Y421964D01*
X317205Y421970D01*
X314148Y421843D01*
X314115Y421835D01*
X314068Y421834D01*
X311071Y421218D01*
X311040Y421205D01*
X310994Y421196D01*
X308134Y420107D01*
X308106Y420089D01*
X308062Y420073D01*
X305414Y418539D01*
X305388Y418517D01*
X305348Y418494D01*
X302980Y416556D01*
X302958Y416529D01*
X302922Y416500D01*
X300895Y414207D01*
X300879Y414178D01*
X300847Y414143D01*
X299215Y411555D01*
X299203Y411523D01*
X299178Y411484D01*
X297982Y408667D01*
X297975Y408634D01*
X297972Y408627D01*
X297968Y408621D01*
X297967Y408615D01*
X297956Y408591D01*
X297228Y405619D01*
X297226Y405585D01*
X297215Y405540D01*
X296972Y402490D01*
X296976Y402461D01*
X296971Y402433D01*
X296973Y402423D01*
X296972Y402410D01*
X297215Y399360D01*
X297224Y399328D01*
X297228Y399281D01*
X297321Y398899D01*
X297309Y398901D01*
X295991Y398901D01*
X295944Y398933D01*
X295873Y398985D01*
X295860Y398988D01*
X295850Y398995D01*
X295796Y399005D01*
X295728Y399023D01*
X294874Y400025D01*
X294859Y400037D01*
X294847Y400055D01*
X293915Y400986D01*
X293904Y401042D01*
X293891Y401129D01*
X293884Y401140D01*
X293882Y401152D01*
X293851Y401198D01*
X293800Y401284D01*
X293756Y401336D01*
X293738Y401350D01*
X293725Y401370D01*
X293660Y401412D01*
X293599Y401460D01*
X293576Y401466D01*
X293557Y401479D01*
X293480Y401493D01*
X293405Y401513D01*
X293382Y401510D01*
X293360Y401514D01*
X293284Y401497D01*
X293207Y401487D01*
X293187Y401476D01*
X293164Y401471D01*
X293100Y401426D01*
X293033Y401387D01*
X293019Y401368D01*
X293001Y401355D01*
X292959Y401289D01*
X292913Y401227D01*
X292907Y401204D01*
X292895Y401185D01*
X292877Y401086D01*
X292863Y401032D01*
X292865Y401020D01*
X292863Y401007D01*
X292863Y398344D01*
X292864Y398336D01*
X292863Y398329D01*
X292884Y398239D01*
X292902Y398148D01*
X292907Y398141D01*
X292909Y398134D01*
X293011Y397986D01*
X333503Y357494D01*
X333503Y344862D01*
X333509Y344831D01*
X333507Y344800D01*
X333529Y344734D01*
X333542Y344666D01*
X333560Y344640D01*
X333570Y344610D01*
X333616Y344558D01*
X333655Y344500D01*
X333681Y344483D01*
X333702Y344459D01*
X333765Y344428D01*
X333823Y344391D01*
X333854Y344385D01*
X333882Y344371D01*
X333952Y344367D01*
X334020Y344355D01*
X334051Y344362D01*
G37*
G36*
X293459Y401567D02*
X293459Y401567D01*
X293539Y401579D01*
X293556Y401589D01*
X293576Y401594D01*
X293642Y401640D01*
X293711Y401681D01*
X293723Y401698D01*
X293739Y401710D01*
X293782Y401778D01*
X293830Y401843D01*
X293835Y401864D01*
X293845Y401880D01*
X293858Y401949D01*
X293876Y402017D01*
X293920Y402571D01*
X293917Y402590D01*
X293921Y402611D01*
X293921Y403928D01*
X293950Y403972D01*
X293953Y403976D01*
X294005Y404047D01*
X294008Y404060D01*
X294015Y404069D01*
X294015Y404073D01*
X294017Y404075D01*
X294027Y404129D01*
X294051Y404221D01*
X294071Y404477D01*
X294063Y404544D01*
X294064Y404612D01*
X294051Y404646D01*
X294047Y404676D01*
X294023Y404719D01*
X293999Y404780D01*
X293916Y404918D01*
X294188Y406027D01*
X294190Y406064D01*
X294201Y406108D01*
X294292Y407247D01*
X294414Y407351D01*
X294456Y407405D01*
X294504Y407452D01*
X294519Y407485D01*
X294538Y407509D01*
X294551Y407557D01*
X294578Y407617D01*
X294683Y408046D01*
X294686Y408114D01*
X294697Y408180D01*
X294690Y408216D01*
X294691Y408246D01*
X294674Y408293D01*
X294661Y408357D01*
X294600Y408506D01*
X295047Y409558D01*
X295054Y409594D01*
X295073Y409635D01*
X295345Y410745D01*
X295482Y410828D01*
X295532Y410874D01*
X295588Y410913D01*
X295608Y410943D01*
X295630Y410964D01*
X295651Y411009D01*
X295686Y411064D01*
X295859Y411471D01*
X295873Y411537D01*
X295895Y411601D01*
X295893Y411637D01*
X295900Y411667D01*
X295890Y411716D01*
X295887Y411781D01*
X295851Y411938D01*
X296461Y412905D01*
X296474Y412939D01*
X296499Y412977D01*
X296945Y414029D01*
X297095Y414089D01*
X297151Y414126D01*
X297212Y414156D01*
X297237Y414182D01*
X297262Y414199D01*
X297290Y414240D01*
X297334Y414289D01*
X297570Y414663D01*
X297586Y414705D01*
X297600Y414727D01*
X297603Y414743D01*
X297626Y414786D01*
X297630Y414821D01*
X297641Y414850D01*
X297639Y414900D01*
X297647Y414964D01*
X297637Y415125D01*
X298394Y415981D01*
X298412Y416013D01*
X298443Y416047D01*
X299052Y417013D01*
X299209Y417049D01*
X299271Y417076D01*
X299336Y417096D01*
X299364Y417118D01*
X299392Y417131D01*
X299426Y417167D01*
X299477Y417207D01*
X299770Y417539D01*
X299804Y417597D01*
X299845Y417651D01*
X299855Y417686D01*
X299871Y417712D01*
X299877Y417761D01*
X299895Y417824D01*
X299911Y417984D01*
X300795Y418708D01*
X300818Y418737D01*
X300854Y418765D01*
X301610Y419621D01*
X301771Y419631D01*
X301836Y419648D01*
X301904Y419657D01*
X301935Y419674D01*
X301965Y419682D01*
X302004Y419713D01*
X302061Y419744D01*
X302403Y420025D01*
X302446Y420077D01*
X302495Y420123D01*
X302511Y420156D01*
X302530Y420180D01*
X302544Y420227D01*
X302572Y420286D01*
X302614Y420442D01*
X303602Y421014D01*
X303630Y421039D01*
X303669Y421061D01*
X304554Y421785D01*
X304714Y421769D01*
X304781Y421775D01*
X304849Y421773D01*
X304883Y421785D01*
X304913Y421788D01*
X304957Y421812D01*
X305018Y421834D01*
X305401Y422056D01*
X305452Y422101D01*
X305508Y422138D01*
X305528Y422168D01*
X305551Y422189D01*
X305573Y422233D01*
X305610Y422287D01*
X305676Y422434D01*
X306743Y422841D01*
X306775Y422860D01*
X306817Y422876D01*
X307806Y423448D01*
X307961Y423407D01*
X308029Y423402D01*
X308096Y423389D01*
X308131Y423396D01*
X308162Y423394D01*
X308209Y423411D01*
X308273Y423423D01*
X308686Y423580D01*
X308743Y423616D01*
X308805Y423644D01*
X308830Y423671D01*
X308855Y423687D01*
X308884Y423728D01*
X308929Y423775D01*
X309018Y423909D01*
X310137Y424139D01*
X310171Y424154D01*
X310215Y424162D01*
X311283Y424568D01*
X311430Y424502D01*
X311496Y424487D01*
X311560Y424464D01*
X311596Y424465D01*
X311625Y424458D01*
X311674Y424467D01*
X311740Y424468D01*
X312173Y424557D01*
X312235Y424584D01*
X312237Y424584D01*
X312272Y424591D01*
X312278Y424596D01*
X312300Y424602D01*
X312329Y424624D01*
X312357Y424636D01*
X312392Y424671D01*
X312415Y424689D01*
X312437Y424704D01*
X312440Y424707D01*
X312444Y424711D01*
X312553Y424829D01*
X313695Y424877D01*
X313731Y424885D01*
X313776Y424887D01*
X314895Y425116D01*
X315029Y425028D01*
X315092Y425002D01*
X315151Y424969D01*
X315187Y424964D01*
X315215Y424953D01*
X315265Y424953D01*
X315329Y424944D01*
X315771Y424963D01*
X315837Y424979D01*
X315904Y424986D01*
X315936Y425003D01*
X315966Y425011D01*
X316006Y425040D01*
X316063Y425071D01*
X316190Y425170D01*
X317324Y425034D01*
X317362Y425037D01*
X317406Y425031D01*
X317469Y425033D01*
X317560Y425056D01*
X317652Y425076D01*
X317657Y425079D01*
X317664Y425081D01*
X317739Y425137D01*
X317816Y425191D01*
X317820Y425196D01*
X317825Y425200D01*
X317873Y425281D01*
X317923Y425360D01*
X317924Y425367D01*
X317927Y425373D01*
X317940Y425465D01*
X317955Y425558D01*
X317954Y425565D01*
X317955Y425571D01*
X317942Y425617D01*
X317917Y425734D01*
X317019Y427901D01*
X317019Y430619D01*
X318059Y433129D01*
X319981Y435051D01*
X320446Y435244D01*
X321671Y435751D01*
X322491Y436091D01*
X325209Y436091D01*
X327719Y435051D01*
X329455Y433315D01*
X329457Y433314D01*
X329458Y433313D01*
X329473Y433303D01*
X329514Y433276D01*
X329569Y433230D01*
X329597Y433221D01*
X329622Y433205D01*
X329692Y433191D01*
X329760Y433170D01*
X329789Y433172D01*
X329818Y433167D01*
X329888Y433182D01*
X329960Y433188D01*
X329986Y433202D01*
X330015Y433209D01*
X330073Y433249D01*
X330136Y433283D01*
X330157Y433307D01*
X330179Y433323D01*
X330207Y433367D01*
X330253Y433421D01*
X341264Y452493D01*
X341280Y452540D01*
X341305Y452583D01*
X341311Y452634D01*
X341328Y452683D01*
X341324Y452733D01*
X341331Y452782D01*
X341317Y452832D01*
X341313Y452883D01*
X341291Y452927D01*
X341278Y452975D01*
X341243Y453021D01*
X341222Y453062D01*
X341195Y453085D01*
X341170Y453119D01*
X340743Y453515D01*
X340713Y453533D01*
X340684Y453562D01*
X339720Y454218D01*
X339695Y454351D01*
X339669Y454417D01*
X339650Y454485D01*
X339630Y454511D01*
X339620Y454537D01*
X339583Y454573D01*
X339542Y454629D01*
X338538Y455559D01*
X338478Y455596D01*
X338423Y455640D01*
X338391Y455649D01*
X338367Y455664D01*
X338316Y455671D01*
X338250Y455691D01*
X338116Y455706D01*
X337388Y456618D01*
X337362Y456640D01*
X337337Y456673D01*
X336482Y457466D01*
X336477Y457601D01*
X336460Y457670D01*
X336452Y457740D01*
X336436Y457769D01*
X336430Y457796D01*
X336399Y457838D01*
X336366Y457898D01*
X335513Y458968D01*
X335459Y459013D01*
X335410Y459065D01*
X335381Y459079D01*
X335359Y459097D01*
X335310Y459112D01*
X335247Y459142D01*
X335117Y459177D01*
X334533Y460186D01*
X334510Y460212D01*
X334491Y460249D01*
X333763Y461160D01*
X333778Y461295D01*
X333772Y461365D01*
X333775Y461435D01*
X333763Y461466D01*
X333761Y461494D01*
X333737Y461540D01*
X333714Y461605D01*
X333029Y462790D01*
X332982Y462843D01*
X332942Y462901D01*
X332915Y462919D01*
X332896Y462940D01*
X332850Y462963D01*
X332793Y463001D01*
X332772Y463010D01*
X332761Y463012D01*
X332751Y463019D01*
X332725Y463023D01*
X332716Y463027D01*
X332692Y463029D01*
X332663Y463034D01*
X332576Y463052D01*
X332565Y463050D01*
X332554Y463052D01*
X332467Y463032D01*
X332379Y463015D01*
X332370Y463009D01*
X332359Y463007D01*
X332223Y462912D01*
X332212Y462905D01*
X332211Y462904D01*
X304159Y434852D01*
X304155Y434846D01*
X304149Y434841D01*
X304100Y434763D01*
X304048Y434686D01*
X304047Y434678D01*
X304043Y434671D01*
X304011Y434494D01*
X304011Y432981D01*
X302971Y430471D01*
X301049Y428549D01*
X299875Y428063D01*
X298651Y427556D01*
X298539Y427509D01*
X295821Y427509D01*
X293564Y428444D01*
X293560Y428445D01*
X293557Y428447D01*
X293462Y428464D01*
X293367Y428483D01*
X293364Y428482D01*
X293360Y428483D01*
X293265Y428462D01*
X293171Y428442D01*
X293168Y428440D01*
X293164Y428439D01*
X293085Y428383D01*
X293006Y428329D01*
X293004Y428325D01*
X293001Y428323D01*
X292949Y428240D01*
X292897Y428160D01*
X292897Y428156D01*
X292895Y428153D01*
X292863Y427976D01*
X292863Y402057D01*
X292879Y401978D01*
X292888Y401898D01*
X292898Y401881D01*
X292902Y401861D01*
X292948Y401794D01*
X292987Y401724D01*
X293004Y401712D01*
X293015Y401695D01*
X293082Y401651D01*
X293146Y401602D01*
X293166Y401597D01*
X293183Y401586D01*
X293262Y401571D01*
X293340Y401551D01*
X293360Y401554D01*
X293380Y401550D01*
X293459Y401567D01*
G37*
%LPC*%
G36*
X126911Y503709D02*
X126911Y503709D01*
X124401Y504749D01*
X122479Y506671D01*
X121439Y509181D01*
X121439Y511899D01*
X122479Y514409D01*
X122965Y514895D01*
X122966Y514896D01*
X122967Y514897D01*
X123020Y514979D01*
X123076Y515062D01*
X123076Y515063D01*
X123077Y515065D01*
X123095Y515159D01*
X123114Y515259D01*
X123113Y515260D01*
X123114Y515262D01*
X123092Y515359D01*
X123072Y515455D01*
X123071Y515456D01*
X123071Y515457D01*
X123016Y515536D01*
X122958Y515620D01*
X122957Y515620D01*
X122956Y515622D01*
X122872Y515674D01*
X122789Y515727D01*
X122787Y515727D01*
X122786Y515728D01*
X122685Y515745D01*
X122591Y515761D01*
X122590Y515761D01*
X122588Y515761D01*
X122412Y515722D01*
X122163Y515619D01*
X103897Y515619D01*
X100162Y517166D01*
X97304Y520024D01*
X95757Y523759D01*
X95757Y527801D01*
X97304Y531536D01*
X100162Y534394D01*
X100816Y534665D01*
X102041Y535172D01*
X103265Y535679D01*
X103897Y535941D01*
X122163Y535941D01*
X125898Y534394D01*
X128756Y531536D01*
X130303Y527801D01*
X130303Y523759D01*
X128756Y520024D01*
X126968Y518237D01*
X126967Y518234D01*
X126964Y518233D01*
X126912Y518152D01*
X126857Y518070D01*
X126857Y518067D01*
X126855Y518065D01*
X126838Y517969D01*
X126820Y517873D01*
X126820Y517870D01*
X126820Y517868D01*
X126841Y517771D01*
X126861Y517677D01*
X126863Y517675D01*
X126863Y517672D01*
X126920Y517592D01*
X126975Y517512D01*
X126978Y517511D01*
X126979Y517509D01*
X127062Y517457D01*
X127145Y517405D01*
X127147Y517404D01*
X127149Y517403D01*
X127327Y517371D01*
X129629Y517371D01*
X132139Y516331D01*
X134061Y514409D01*
X135101Y511899D01*
X135101Y509181D01*
X134061Y506671D01*
X132139Y504749D01*
X131918Y504658D01*
X130694Y504150D01*
X129629Y503709D01*
X126911Y503709D01*
G37*
%LPD*%
%LPC*%
G36*
X103897Y541019D02*
X103897Y541019D01*
X100162Y542566D01*
X97304Y545424D01*
X95757Y549159D01*
X95757Y553201D01*
X97304Y556936D01*
X100162Y559794D01*
X100725Y560027D01*
X100726Y560027D01*
X101950Y560534D01*
X103175Y561042D01*
X103897Y561341D01*
X122163Y561341D01*
X125898Y559794D01*
X128756Y556936D01*
X130303Y553201D01*
X130303Y549159D01*
X128756Y545424D01*
X125898Y542566D01*
X125000Y542194D01*
X124999Y542194D01*
X123775Y541687D01*
X122550Y541180D01*
X122163Y541019D01*
X103897Y541019D01*
G37*
%LPD*%
%LPC*%
G36*
X103897Y566419D02*
X103897Y566419D01*
X100162Y567966D01*
X97304Y570824D01*
X95757Y574559D01*
X95757Y578601D01*
X97304Y582336D01*
X100162Y585194D01*
X100635Y585390D01*
X101859Y585897D01*
X101860Y585897D01*
X103084Y586404D01*
X103897Y586741D01*
X122163Y586741D01*
X125898Y585194D01*
X128756Y582336D01*
X130303Y578601D01*
X130303Y574559D01*
X128756Y570824D01*
X125898Y567966D01*
X124909Y567557D01*
X123684Y567049D01*
X122460Y566542D01*
X122163Y566419D01*
X103897Y566419D01*
G37*
%LPD*%
%LPC*%
G36*
X338847Y565149D02*
X338847Y565149D01*
X335112Y566696D01*
X332254Y569554D01*
X330707Y573289D01*
X330707Y577331D01*
X332254Y581066D01*
X335112Y583924D01*
X336202Y584375D01*
X337426Y584882D01*
X338651Y585390D01*
X338847Y585471D01*
X357113Y585471D01*
X360848Y583924D01*
X363706Y581066D01*
X365253Y577331D01*
X365253Y573289D01*
X363706Y569554D01*
X360848Y566696D01*
X360476Y566542D01*
X359251Y566035D01*
X358027Y565528D01*
X357113Y565149D01*
X338847Y565149D01*
G37*
%LPD*%
%LPC*%
G36*
X338847Y514349D02*
X338847Y514349D01*
X335112Y515896D01*
X332254Y518754D01*
X330707Y522489D01*
X330707Y526531D01*
X332254Y530266D01*
X335112Y533124D01*
X335158Y533143D01*
X336383Y533650D01*
X337607Y534157D01*
X337608Y534157D01*
X338832Y534665D01*
X338847Y534671D01*
X357113Y534671D01*
X360848Y533124D01*
X363706Y530266D01*
X365253Y526531D01*
X365253Y522489D01*
X363706Y518754D01*
X360848Y515896D01*
X360657Y515817D01*
X359432Y515310D01*
X358208Y514803D01*
X357113Y514349D01*
X338847Y514349D01*
G37*
%LPD*%
%LPC*%
G36*
X338847Y539749D02*
X338847Y539749D01*
X335112Y541296D01*
X332254Y544154D01*
X330707Y547889D01*
X330707Y551931D01*
X332254Y555666D01*
X335112Y558524D01*
X336292Y559013D01*
X337517Y559520D01*
X338741Y560027D01*
X338742Y560027D01*
X338847Y560071D01*
X357113Y560071D01*
X360848Y558524D01*
X363706Y555666D01*
X365253Y551931D01*
X365253Y547889D01*
X363706Y544154D01*
X360848Y541296D01*
X360566Y541180D01*
X359342Y540672D01*
X358117Y540165D01*
X357113Y539749D01*
X338847Y539749D01*
G37*
%LPD*%
G36*
X186799Y307410D02*
X186799Y307410D01*
X186807Y307409D01*
X186896Y307430D01*
X186988Y307448D01*
X186994Y307453D01*
X187002Y307455D01*
X187150Y307557D01*
X188573Y308980D01*
X188577Y308987D01*
X188583Y308991D01*
X188632Y309070D01*
X188684Y309147D01*
X188685Y309155D01*
X188689Y309162D01*
X188721Y309339D01*
X188721Y316771D01*
X188720Y316779D01*
X188721Y316786D01*
X188700Y316876D01*
X188682Y316968D01*
X188677Y316974D01*
X188675Y316982D01*
X188573Y317130D01*
X185050Y320653D01*
X182371Y323331D01*
X182371Y356435D01*
X182370Y356439D01*
X182371Y356442D01*
X182351Y356536D01*
X182332Y356631D01*
X182329Y356635D01*
X182329Y356638D01*
X182273Y356717D01*
X182219Y356797D01*
X182216Y356799D01*
X182213Y356802D01*
X182131Y356854D01*
X182051Y356906D01*
X182047Y356907D01*
X182044Y356909D01*
X181948Y356925D01*
X181854Y356942D01*
X181850Y356941D01*
X181846Y356942D01*
X181670Y356903D01*
X180794Y356541D01*
X180429Y356389D01*
X177711Y356389D01*
X175201Y357429D01*
X174257Y358373D01*
X174254Y358375D01*
X174253Y358377D01*
X174173Y358429D01*
X174090Y358484D01*
X174087Y358485D01*
X174085Y358486D01*
X173989Y358503D01*
X173893Y358522D01*
X173890Y358521D01*
X173888Y358522D01*
X173791Y358500D01*
X173697Y358480D01*
X173695Y358479D01*
X173692Y358478D01*
X173612Y358422D01*
X173532Y358366D01*
X173531Y358364D01*
X173529Y358362D01*
X173477Y358279D01*
X173425Y358197D01*
X173424Y358194D01*
X173423Y358192D01*
X173391Y358015D01*
X173391Y343545D01*
X171605Y341759D01*
X168604Y341759D01*
X168599Y341758D01*
X168594Y341759D01*
X168501Y341738D01*
X168408Y341719D01*
X168403Y341716D01*
X168398Y341715D01*
X168321Y341660D01*
X168242Y341606D01*
X168239Y341602D01*
X168235Y341599D01*
X168184Y341518D01*
X168133Y341438D01*
X168132Y341433D01*
X168129Y341429D01*
X168097Y341251D01*
X168097Y338352D01*
X168098Y338347D01*
X168097Y338342D01*
X168118Y338249D01*
X168137Y338156D01*
X168140Y338151D01*
X168141Y338146D01*
X168196Y338068D01*
X168249Y337990D01*
X168254Y337987D01*
X168257Y337983D01*
X168338Y337932D01*
X168417Y337881D01*
X168422Y337880D01*
X168427Y337877D01*
X168604Y337845D01*
X169779Y337845D01*
X171565Y336059D01*
X171565Y323533D01*
X169831Y321799D01*
X169827Y321794D01*
X169822Y321790D01*
X169772Y321711D01*
X169720Y321632D01*
X169719Y321626D01*
X169715Y321620D01*
X169700Y321528D01*
X169683Y321435D01*
X169684Y321429D01*
X169683Y321423D01*
X169721Y321246D01*
X169847Y320942D01*
X169847Y319430D01*
X169849Y319422D01*
X169847Y319414D01*
X169868Y319325D01*
X169887Y319233D01*
X169891Y319227D01*
X169893Y319219D01*
X169996Y319071D01*
X171256Y317811D01*
X171262Y317807D01*
X171267Y317801D01*
X171345Y317752D01*
X171422Y317700D01*
X171430Y317699D01*
X171437Y317695D01*
X171614Y317663D01*
X175365Y317663D01*
X175498Y317639D01*
X180254Y317639D01*
X182919Y314974D01*
X182919Y311206D01*
X180162Y308449D01*
X180159Y308444D01*
X180154Y308441D01*
X180103Y308361D01*
X180051Y308282D01*
X180050Y308277D01*
X180047Y308272D01*
X180031Y308178D01*
X180013Y308085D01*
X180014Y308080D01*
X180013Y308075D01*
X180035Y307982D01*
X180055Y307889D01*
X180058Y307884D01*
X180059Y307879D01*
X180162Y307731D01*
X180336Y307557D01*
X180342Y307553D01*
X180347Y307547D01*
X180425Y307498D01*
X180503Y307446D01*
X180510Y307445D01*
X180517Y307441D01*
X180694Y307409D01*
X186791Y307409D01*
X186799Y307410D01*
G37*
G36*
X322354Y238854D02*
X322354Y238854D01*
X322361Y238853D01*
X322451Y238874D01*
X322542Y238892D01*
X322549Y238897D01*
X322557Y238899D01*
X322705Y239001D01*
X338179Y254475D01*
X338183Y254482D01*
X338189Y254487D01*
X338238Y254565D01*
X338290Y254642D01*
X338291Y254650D01*
X338295Y254657D01*
X338327Y254834D01*
X338327Y272216D01*
X338327Y272218D01*
X338327Y272221D01*
X338307Y272316D01*
X338288Y272412D01*
X338286Y272415D01*
X338286Y272417D01*
X338230Y272498D01*
X338175Y272578D01*
X338173Y272580D01*
X338171Y272582D01*
X338088Y272635D01*
X338007Y272687D01*
X338004Y272688D01*
X338002Y272689D01*
X337906Y272706D01*
X337810Y272723D01*
X337807Y272722D01*
X337805Y272723D01*
X337711Y272701D01*
X337614Y272679D01*
X337612Y272678D01*
X337609Y272677D01*
X337461Y272575D01*
X323404Y258517D01*
X304524Y258517D01*
X304521Y258517D01*
X304518Y258517D01*
X304423Y258497D01*
X304327Y258478D01*
X304325Y258476D01*
X304322Y258476D01*
X304242Y258420D01*
X304161Y258365D01*
X304160Y258363D01*
X304158Y258361D01*
X304105Y258278D01*
X304052Y258197D01*
X304052Y258194D01*
X304050Y258192D01*
X304034Y258097D01*
X304017Y258000D01*
X304017Y257997D01*
X304017Y257994D01*
X304039Y257900D01*
X304060Y257804D01*
X304062Y257802D01*
X304062Y257799D01*
X304165Y257651D01*
X304265Y257552D01*
X304271Y257547D01*
X304276Y257541D01*
X304354Y257492D01*
X304432Y257441D01*
X304439Y257439D01*
X304446Y257435D01*
X304623Y257403D01*
X312758Y257403D01*
X314544Y255617D01*
X314544Y243092D01*
X313049Y241597D01*
X313045Y241590D01*
X313039Y241586D01*
X312990Y241507D01*
X312938Y241430D01*
X312937Y241422D01*
X312933Y241416D01*
X312901Y241238D01*
X312901Y239941D01*
X312740Y239554D01*
X312740Y239550D01*
X312737Y239547D01*
X312720Y239452D01*
X312702Y239357D01*
X312703Y239354D01*
X312702Y239350D01*
X312723Y239255D01*
X312742Y239161D01*
X312745Y239158D01*
X312745Y239154D01*
X312801Y239075D01*
X312856Y238996D01*
X312859Y238994D01*
X312861Y238991D01*
X312944Y238939D01*
X313024Y238888D01*
X313028Y238887D01*
X313032Y238885D01*
X313209Y238853D01*
X322346Y238853D01*
X322354Y238854D01*
G37*
%LPC*%
G36*
X262573Y127881D02*
X262573Y127881D01*
X258328Y129639D01*
X255079Y132888D01*
X253321Y137133D01*
X253321Y141727D01*
X255079Y145972D01*
X258328Y149221D01*
X259393Y149662D01*
X259394Y149662D01*
X260618Y150169D01*
X261843Y150676D01*
X262573Y150979D01*
X267167Y150979D01*
X271412Y149221D01*
X274661Y145972D01*
X276419Y141727D01*
X276419Y137133D01*
X274661Y132888D01*
X271412Y129639D01*
X270575Y129293D01*
X270574Y129293D01*
X269350Y128785D01*
X268125Y128278D01*
X267167Y127881D01*
X262573Y127881D01*
G37*
%LPD*%
%LPC*%
G36*
X227573Y127881D02*
X227573Y127881D01*
X223328Y129639D01*
X220079Y132888D01*
X218321Y137133D01*
X218321Y141727D01*
X220079Y145972D01*
X223328Y149221D01*
X224393Y149662D01*
X224394Y149662D01*
X225618Y150169D01*
X226843Y150676D01*
X227573Y150979D01*
X232167Y150979D01*
X236412Y149221D01*
X239661Y145972D01*
X241419Y141727D01*
X241419Y137133D01*
X239661Y132888D01*
X236412Y129639D01*
X235575Y129293D01*
X235574Y129293D01*
X234350Y128785D01*
X233125Y128278D01*
X232167Y127881D01*
X227573Y127881D01*
G37*
%LPD*%
%LPC*%
G36*
X192573Y127881D02*
X192573Y127881D01*
X188328Y129639D01*
X185079Y132888D01*
X183321Y137133D01*
X183321Y141727D01*
X185079Y145972D01*
X188328Y149221D01*
X189393Y149662D01*
X189394Y149662D01*
X190618Y150169D01*
X191843Y150676D01*
X192573Y150979D01*
X197167Y150979D01*
X201412Y149221D01*
X204661Y145972D01*
X206419Y141727D01*
X206419Y137133D01*
X204661Y132888D01*
X201412Y129639D01*
X200575Y129293D01*
X200574Y129293D01*
X199350Y128785D01*
X198125Y128278D01*
X197167Y127881D01*
X192573Y127881D01*
G37*
%LPD*%
%LPC*%
G36*
X262573Y652931D02*
X262573Y652931D01*
X258328Y654689D01*
X255079Y657938D01*
X253321Y662183D01*
X253321Y666777D01*
X255079Y671022D01*
X258328Y674271D01*
X259282Y674666D01*
X260506Y675173D01*
X260507Y675173D01*
X261731Y675680D01*
X262573Y676029D01*
X267167Y676029D01*
X271412Y674271D01*
X274661Y671022D01*
X276419Y666777D01*
X276419Y662183D01*
X274661Y657938D01*
X271412Y654689D01*
X270463Y654296D01*
X269238Y653789D01*
X268014Y653282D01*
X267167Y652931D01*
X262573Y652931D01*
G37*
%LPD*%
%LPC*%
G36*
X297573Y652931D02*
X297573Y652931D01*
X293328Y654689D01*
X290079Y657938D01*
X288321Y662183D01*
X288321Y666777D01*
X290079Y671022D01*
X293328Y674271D01*
X294282Y674666D01*
X295506Y675173D01*
X295507Y675173D01*
X296731Y675680D01*
X297573Y676029D01*
X302167Y676029D01*
X306412Y674271D01*
X309661Y671022D01*
X311419Y666777D01*
X311419Y662183D01*
X309661Y657938D01*
X306412Y654689D01*
X305463Y654296D01*
X304238Y653789D01*
X303014Y653282D01*
X302167Y652931D01*
X297573Y652931D01*
G37*
%LPD*%
%LPC*%
G36*
X157573Y652931D02*
X157573Y652931D01*
X153328Y654689D01*
X150079Y657938D01*
X148321Y662183D01*
X148321Y666777D01*
X150079Y671022D01*
X153328Y674271D01*
X154282Y674666D01*
X155506Y675173D01*
X155507Y675173D01*
X156731Y675680D01*
X157573Y676029D01*
X162167Y676029D01*
X166412Y674271D01*
X169661Y671022D01*
X171419Y666777D01*
X171419Y662183D01*
X169661Y657938D01*
X166412Y654689D01*
X165463Y654296D01*
X164238Y653789D01*
X163014Y653282D01*
X162167Y652931D01*
X157573Y652931D01*
G37*
%LPD*%
%LPC*%
G36*
X192573Y652931D02*
X192573Y652931D01*
X188328Y654689D01*
X185079Y657938D01*
X183321Y662183D01*
X183321Y666777D01*
X185079Y671022D01*
X188328Y674271D01*
X189282Y674666D01*
X190506Y675173D01*
X190507Y675173D01*
X191731Y675680D01*
X192573Y676029D01*
X197167Y676029D01*
X201412Y674271D01*
X204661Y671022D01*
X206419Y666777D01*
X206419Y662183D01*
X204661Y657938D01*
X201412Y654689D01*
X200463Y654296D01*
X199238Y653789D01*
X198014Y653282D01*
X197167Y652931D01*
X192573Y652931D01*
G37*
%LPD*%
%LPC*%
G36*
X227573Y652931D02*
X227573Y652931D01*
X223328Y654689D01*
X220079Y657938D01*
X218321Y662183D01*
X218321Y666777D01*
X220079Y671022D01*
X223328Y674271D01*
X224282Y674666D01*
X225506Y675173D01*
X225507Y675173D01*
X226731Y675680D01*
X227573Y676029D01*
X232167Y676029D01*
X236412Y674271D01*
X239661Y671022D01*
X241419Y666777D01*
X241419Y662183D01*
X239661Y657938D01*
X236412Y654689D01*
X235463Y654296D01*
X234238Y653789D01*
X233014Y653282D01*
X232167Y652931D01*
X227573Y652931D01*
G37*
%LPD*%
%LPC*%
G36*
X177711Y430049D02*
X177711Y430049D01*
X175201Y431089D01*
X173279Y433011D01*
X172385Y435170D01*
X172381Y435176D01*
X172380Y435182D01*
X172325Y435259D01*
X172273Y435337D01*
X172267Y435340D01*
X172264Y435346D01*
X172184Y435395D01*
X172105Y435447D01*
X172099Y435448D01*
X172093Y435451D01*
X171916Y435483D01*
X168684Y435483D01*
X165433Y438734D01*
X165433Y454330D01*
X168684Y457581D01*
X178280Y457581D01*
X181531Y454330D01*
X181531Y444801D01*
X181532Y444793D01*
X181531Y444786D01*
X181552Y444696D01*
X181570Y444605D01*
X181575Y444598D01*
X181577Y444590D01*
X181679Y444442D01*
X183389Y442733D01*
X183389Y442432D01*
X183390Y442424D01*
X183389Y442416D01*
X183410Y442326D01*
X183428Y442235D01*
X183433Y442228D01*
X183435Y442221D01*
X183537Y442073D01*
X184861Y440749D01*
X185901Y438239D01*
X185901Y435521D01*
X184861Y433011D01*
X182939Y431089D01*
X181756Y430599D01*
X180532Y430092D01*
X180429Y430049D01*
X177711Y430049D01*
G37*
%LPD*%
G36*
X262298Y338814D02*
X262298Y338814D01*
X262300Y338813D01*
X262397Y338835D01*
X262491Y338855D01*
X262493Y338856D01*
X262496Y338857D01*
X262576Y338913D01*
X262656Y338969D01*
X262657Y338971D01*
X262659Y338973D01*
X262711Y339055D01*
X262763Y339138D01*
X262764Y339141D01*
X262765Y339143D01*
X262797Y339320D01*
X262797Y343192D01*
X262796Y343197D01*
X262797Y343202D01*
X262769Y344737D01*
X262769Y344738D01*
X262748Y344831D01*
X262726Y344933D01*
X262725Y344933D01*
X262667Y345015D01*
X262610Y345096D01*
X262609Y345097D01*
X262525Y345149D01*
X262440Y345202D01*
X262439Y345203D01*
X262262Y345235D01*
X260421Y345235D01*
X258635Y347021D01*
X258635Y358475D01*
X258634Y358479D01*
X258635Y358483D01*
X258615Y358577D01*
X258595Y358672D01*
X258593Y358675D01*
X258592Y358679D01*
X258537Y358758D01*
X258483Y358837D01*
X258479Y358840D01*
X258477Y358843D01*
X258395Y358895D01*
X258315Y358947D01*
X258311Y358947D01*
X258307Y358949D01*
X258212Y358965D01*
X258117Y358982D01*
X258114Y358981D01*
X258110Y358982D01*
X257934Y358944D01*
X257899Y358929D01*
X255181Y358929D01*
X252671Y359969D01*
X250749Y361891D01*
X249709Y364401D01*
X249709Y367119D01*
X250749Y369629D01*
X252671Y371551D01*
X253362Y371837D01*
X254587Y372345D01*
X255181Y372591D01*
X257899Y372591D01*
X260409Y371551D01*
X262331Y369629D01*
X263112Y367744D01*
X263114Y367741D01*
X263115Y367737D01*
X263170Y367657D01*
X263224Y367577D01*
X263227Y367575D01*
X263229Y367572D01*
X263311Y367520D01*
X263391Y367467D01*
X263395Y367467D01*
X263398Y367464D01*
X263493Y367448D01*
X263588Y367431D01*
X263592Y367432D01*
X263596Y367431D01*
X263689Y367453D01*
X263784Y367473D01*
X263787Y367476D01*
X263791Y367477D01*
X263939Y367579D01*
X264101Y367741D01*
X264194Y367779D01*
X265418Y368287D01*
X266448Y368713D01*
X266451Y368715D01*
X266455Y368716D01*
X266535Y368772D01*
X266615Y368825D01*
X266617Y368828D01*
X266620Y368830D01*
X266672Y368912D01*
X266725Y368992D01*
X266725Y368996D01*
X266727Y369000D01*
X266744Y369095D01*
X266761Y369190D01*
X266760Y369193D01*
X266761Y369197D01*
X266739Y369291D01*
X266719Y369385D01*
X266716Y369389D01*
X266715Y369392D01*
X266613Y369540D01*
X258169Y377985D01*
X258166Y377986D01*
X258165Y377988D01*
X258163Y377990D01*
X258161Y377992D01*
X258083Y378041D01*
X258002Y378095D01*
X257999Y378096D01*
X257997Y378097D01*
X257994Y378098D01*
X257992Y378099D01*
X257901Y378115D01*
X257805Y378133D01*
X257802Y378133D01*
X257800Y378133D01*
X257797Y378132D01*
X257795Y378133D01*
X257707Y378112D01*
X257703Y378112D01*
X257609Y378091D01*
X257607Y378090D01*
X257604Y378089D01*
X257602Y378088D01*
X257599Y378087D01*
X257451Y377984D01*
X243199Y363732D01*
X243195Y363726D01*
X243189Y363721D01*
X243140Y363643D01*
X243088Y363566D01*
X243087Y363558D01*
X243083Y363551D01*
X243051Y363374D01*
X243051Y361861D01*
X242011Y359351D01*
X240089Y357429D01*
X239169Y357048D01*
X238640Y356829D01*
X238637Y356827D01*
X238633Y356826D01*
X238553Y356770D01*
X238473Y356717D01*
X238471Y356714D01*
X238468Y356711D01*
X238416Y356630D01*
X238363Y356550D01*
X238363Y356546D01*
X238361Y356542D01*
X238344Y356447D01*
X238327Y356352D01*
X238328Y356349D01*
X238327Y356345D01*
X238349Y356251D01*
X238369Y356157D01*
X238372Y356153D01*
X238373Y356149D01*
X238475Y356001D01*
X251943Y342534D01*
X251943Y342146D01*
X251944Y342141D01*
X251943Y342136D01*
X251964Y342043D01*
X251982Y341949D01*
X251985Y341945D01*
X251986Y341940D01*
X252042Y341862D01*
X252095Y341784D01*
X252099Y341781D01*
X252102Y341777D01*
X252184Y341726D01*
X252263Y341674D01*
X252268Y341674D01*
X252273Y341671D01*
X252450Y341639D01*
X254254Y341639D01*
X254511Y341382D01*
X254516Y341379D01*
X254519Y341374D01*
X254599Y341323D01*
X254678Y341271D01*
X254683Y341270D01*
X254688Y341267D01*
X254782Y341251D01*
X254875Y341233D01*
X254880Y341234D01*
X254886Y341233D01*
X254977Y341255D01*
X255071Y341275D01*
X255076Y341278D01*
X255081Y341279D01*
X255229Y341382D01*
X255486Y341639D01*
X259254Y341639D01*
X261931Y338962D01*
X261934Y338960D01*
X261935Y338958D01*
X262016Y338905D01*
X262098Y338851D01*
X262101Y338850D01*
X262103Y338849D01*
X262199Y338831D01*
X262295Y338813D01*
X262298Y338814D01*
G37*
%LPC*%
G36*
X323761Y506249D02*
X323761Y506249D01*
X321251Y507289D01*
X319329Y509211D01*
X318289Y511721D01*
X318289Y514439D01*
X319329Y516949D01*
X321251Y518871D01*
X321417Y518940D01*
X322642Y519447D01*
X323761Y519911D01*
X326479Y519911D01*
X328989Y518871D01*
X330911Y516949D01*
X331951Y514439D01*
X331951Y511721D01*
X330911Y509211D01*
X328989Y507289D01*
X328759Y507194D01*
X327535Y506687D01*
X326479Y506249D01*
X323761Y506249D01*
G37*
%LPD*%
%LPC*%
G36*
X345351Y209069D02*
X345351Y209069D01*
X342841Y210109D01*
X340919Y212031D01*
X339879Y214541D01*
X339879Y217259D01*
X340919Y219769D01*
X342841Y221691D01*
X342842Y221691D01*
X344066Y222199D01*
X344067Y222199D01*
X345291Y222706D01*
X345351Y222731D01*
X348069Y222731D01*
X350579Y221691D01*
X352501Y219769D01*
X353541Y217259D01*
X353541Y214541D01*
X352501Y212031D01*
X350579Y210109D01*
X350184Y209945D01*
X348959Y209438D01*
X348069Y209069D01*
X345351Y209069D01*
G37*
%LPD*%
%LPC*%
G36*
X213271Y628169D02*
X213271Y628169D01*
X210761Y629209D01*
X208839Y631131D01*
X207799Y633641D01*
X207799Y636359D01*
X208839Y638869D01*
X210761Y640791D01*
X211717Y641187D01*
X212942Y641694D01*
X213271Y641831D01*
X215989Y641831D01*
X218499Y640791D01*
X220421Y638869D01*
X221461Y636359D01*
X221461Y633641D01*
X220421Y631131D01*
X218499Y629209D01*
X217835Y628934D01*
X216610Y628427D01*
X215989Y628169D01*
X213271Y628169D01*
G37*
%LPD*%
%LPC*%
G36*
X203111Y610389D02*
X203111Y610389D01*
X200601Y611429D01*
X198679Y613351D01*
X197639Y615861D01*
X197639Y618579D01*
X198679Y621089D01*
X200601Y623011D01*
X201621Y623433D01*
X202845Y623941D01*
X203111Y624051D01*
X205829Y624051D01*
X208339Y623011D01*
X210261Y621089D01*
X211301Y618579D01*
X211301Y615861D01*
X210261Y613351D01*
X208339Y611429D01*
X207738Y611180D01*
X206514Y610673D01*
X206513Y610673D01*
X205829Y610389D01*
X203111Y610389D01*
G37*
%LPD*%
%LPC*%
G36*
X245021Y155729D02*
X245021Y155729D01*
X242511Y156769D01*
X240589Y158691D01*
X239549Y161201D01*
X239549Y163919D01*
X240589Y166429D01*
X242511Y168351D01*
X242702Y168430D01*
X243927Y168937D01*
X245021Y169391D01*
X247739Y169391D01*
X250249Y168351D01*
X252171Y166429D01*
X253211Y163919D01*
X253211Y161201D01*
X252171Y158691D01*
X250249Y156769D01*
X250044Y156684D01*
X248819Y156177D01*
X247739Y155729D01*
X245021Y155729D01*
G37*
%LPD*%
%LPC*%
G36*
X201841Y155729D02*
X201841Y155729D01*
X199331Y156769D01*
X197409Y158691D01*
X196369Y161201D01*
X196369Y163919D01*
X197409Y166429D01*
X199331Y168351D01*
X199522Y168430D01*
X200747Y168937D01*
X201841Y169391D01*
X204559Y169391D01*
X207069Y168351D01*
X208991Y166429D01*
X210031Y163919D01*
X210031Y161201D01*
X208991Y158691D01*
X207069Y156769D01*
X206864Y156684D01*
X205639Y156177D01*
X204559Y155729D01*
X201841Y155729D01*
G37*
%LPD*%
%LPC*%
G36*
X245021Y117629D02*
X245021Y117629D01*
X242511Y118669D01*
X240589Y120591D01*
X239549Y123101D01*
X239549Y125819D01*
X240589Y128329D01*
X242511Y130251D01*
X242838Y130386D01*
X244062Y130894D01*
X244063Y130894D01*
X245021Y131291D01*
X247739Y131291D01*
X250249Y130251D01*
X252171Y128329D01*
X253211Y125819D01*
X253211Y123101D01*
X252171Y120591D01*
X250249Y118669D01*
X250180Y118640D01*
X248955Y118133D01*
X247739Y117629D01*
X245021Y117629D01*
G37*
%LPD*%
%LPC*%
G36*
X237401Y255399D02*
X237401Y255399D01*
X234891Y256439D01*
X232969Y258361D01*
X231929Y260871D01*
X231929Y263589D01*
X232969Y266099D01*
X234891Y268021D01*
X235705Y268358D01*
X235706Y268358D01*
X236930Y268866D01*
X237401Y269061D01*
X240119Y269061D01*
X242629Y268021D01*
X244551Y266099D01*
X245591Y263589D01*
X245591Y260871D01*
X244551Y258361D01*
X242629Y256439D01*
X241823Y256105D01*
X240598Y255598D01*
X240119Y255399D01*
X237401Y255399D01*
G37*
%LPD*%
%LPC*%
G36*
X245021Y565939D02*
X245021Y565939D01*
X242511Y566979D01*
X240589Y568901D01*
X239549Y571411D01*
X239549Y574129D01*
X240589Y576639D01*
X242511Y578561D01*
X243077Y578795D01*
X244301Y579303D01*
X244302Y579303D01*
X245021Y579601D01*
X247739Y579601D01*
X250249Y578561D01*
X252171Y576639D01*
X253211Y574129D01*
X253211Y571411D01*
X252171Y568901D01*
X250249Y566979D01*
X249194Y566542D01*
X247970Y566035D01*
X247739Y565939D01*
X245021Y565939D01*
G37*
%LPD*%
%LPC*%
G36*
X210731Y118899D02*
X210731Y118899D01*
X208221Y119939D01*
X206299Y121861D01*
X205259Y124371D01*
X205259Y127089D01*
X206299Y129599D01*
X208221Y131521D01*
X209156Y131908D01*
X210380Y132415D01*
X210731Y132561D01*
X213449Y132561D01*
X215959Y131521D01*
X217881Y129599D01*
X218921Y127089D01*
X218921Y124371D01*
X217881Y121861D01*
X215959Y119939D01*
X215273Y119655D01*
X214048Y119148D01*
X213449Y118899D01*
X210731Y118899D01*
G37*
%LPD*%
%LPC*%
G36*
X118021Y250979D02*
X118021Y250979D01*
X115511Y252019D01*
X113589Y253941D01*
X112549Y256451D01*
X112549Y259169D01*
X113589Y261679D01*
X115511Y263601D01*
X115975Y263793D01*
X117199Y264300D01*
X117200Y264300D01*
X118021Y264641D01*
X120739Y264641D01*
X123249Y263601D01*
X125171Y261679D01*
X126211Y259169D01*
X126211Y256451D01*
X125171Y253941D01*
X123249Y252019D01*
X122092Y251540D01*
X120868Y251033D01*
X120739Y250979D01*
X118021Y250979D01*
G37*
%LPD*%
%LPC*%
G36*
X232321Y609119D02*
X232321Y609119D01*
X229811Y610159D01*
X227889Y612081D01*
X226849Y614591D01*
X226849Y617309D01*
X227889Y619819D01*
X229811Y621741D01*
X230223Y621912D01*
X231447Y622419D01*
X231448Y622419D01*
X232321Y622781D01*
X235039Y622781D01*
X237549Y621741D01*
X239471Y619819D01*
X240511Y617309D01*
X240511Y614591D01*
X239471Y612081D01*
X237549Y610159D01*
X236340Y609658D01*
X235116Y609151D01*
X235039Y609119D01*
X232321Y609119D01*
G37*
%LPD*%
%LPC*%
G36*
X250101Y550699D02*
X250101Y550699D01*
X247591Y551739D01*
X245669Y553661D01*
X244629Y556171D01*
X244629Y558889D01*
X245669Y561399D01*
X247591Y563321D01*
X248211Y563578D01*
X249436Y564085D01*
X250101Y564361D01*
X252819Y564361D01*
X255329Y563321D01*
X257251Y561399D01*
X258291Y558889D01*
X258291Y556171D01*
X257251Y553661D01*
X255329Y551739D01*
X254329Y551325D01*
X254328Y551325D01*
X253104Y550817D01*
X252819Y550699D01*
X250101Y550699D01*
G37*
%LPD*%
%LPC*%
G36*
X215811Y550699D02*
X215811Y550699D01*
X213301Y551739D01*
X211379Y553661D01*
X210339Y556171D01*
X210339Y558889D01*
X211379Y561399D01*
X213301Y563321D01*
X213921Y563578D01*
X215146Y564085D01*
X215811Y564361D01*
X218529Y564361D01*
X221039Y563321D01*
X222961Y561399D01*
X224001Y558889D01*
X224001Y556171D01*
X222961Y553661D01*
X221039Y551739D01*
X220039Y551325D01*
X220038Y551325D01*
X218814Y550817D01*
X218529Y550699D01*
X215811Y550699D01*
G37*
%LPD*%
%LPC*%
G36*
X368211Y225579D02*
X368211Y225579D01*
X365701Y226619D01*
X363779Y228541D01*
X362739Y231051D01*
X362739Y233769D01*
X363779Y236279D01*
X365701Y238201D01*
X366255Y238431D01*
X367480Y238938D01*
X368211Y239241D01*
X370929Y239241D01*
X373439Y238201D01*
X375361Y236279D01*
X376401Y233769D01*
X376401Y231051D01*
X375361Y228541D01*
X373439Y226619D01*
X372373Y226177D01*
X371148Y225670D01*
X370929Y225579D01*
X368211Y225579D01*
G37*
%LPD*%
%LPC*%
G36*
X246291Y678969D02*
X246291Y678969D01*
X243781Y680009D01*
X241859Y681931D01*
X240819Y684441D01*
X240819Y687159D01*
X241859Y689669D01*
X243781Y691591D01*
X244556Y691912D01*
X245781Y692419D01*
X246291Y692631D01*
X249009Y692631D01*
X251519Y691591D01*
X253441Y689669D01*
X254481Y687159D01*
X254481Y684441D01*
X253441Y681931D01*
X251519Y680009D01*
X250674Y679659D01*
X249449Y679152D01*
X249009Y678969D01*
X246291Y678969D01*
G37*
%LPD*%
%LPC*%
G36*
X210731Y678969D02*
X210731Y678969D01*
X208221Y680009D01*
X206299Y681931D01*
X205259Y684441D01*
X205259Y687159D01*
X206299Y689669D01*
X208221Y691591D01*
X208996Y691912D01*
X210221Y692419D01*
X210731Y692631D01*
X213449Y692631D01*
X215959Y691591D01*
X217881Y689669D01*
X218921Y687159D01*
X218921Y684441D01*
X217881Y681931D01*
X215959Y680009D01*
X215114Y679659D01*
X213889Y679152D01*
X213449Y678969D01*
X210731Y678969D01*
G37*
%LPD*%
%LPC*%
G36*
X280581Y678969D02*
X280581Y678969D01*
X278071Y680009D01*
X276149Y681931D01*
X275109Y684441D01*
X275109Y687159D01*
X276149Y689669D01*
X278071Y691591D01*
X278846Y691912D01*
X280071Y692419D01*
X280581Y692631D01*
X283299Y692631D01*
X285809Y691591D01*
X287731Y689669D01*
X288771Y687159D01*
X288771Y684441D01*
X287731Y681931D01*
X285809Y680009D01*
X284964Y679659D01*
X283739Y679152D01*
X283299Y678969D01*
X280581Y678969D01*
G37*
%LPD*%
%LPC*%
G36*
X175171Y678969D02*
X175171Y678969D01*
X172661Y680009D01*
X170739Y681931D01*
X169699Y684441D01*
X169699Y687159D01*
X170739Y689669D01*
X172661Y691591D01*
X173436Y691912D01*
X174661Y692419D01*
X175171Y692631D01*
X177889Y692631D01*
X180399Y691591D01*
X182321Y689669D01*
X183361Y687159D01*
X183361Y684441D01*
X182321Y681931D01*
X180399Y680009D01*
X179554Y679659D01*
X178329Y679152D01*
X177889Y678969D01*
X175171Y678969D01*
G37*
%LPD*%
D10*
X365470Y261669D03*
X365470Y244669D03*
D11*
X163842Y352307D03*
X144842Y352307D03*
D12*
X306545Y307130D03*
X306545Y295130D03*
X306545Y283130D03*
D13*
X151440Y537702D03*
X151440Y520702D03*
D14*
X318958Y197647D03*
X318958Y216647D03*
X164277Y219441D03*
X164277Y200441D03*
D13*
X163016Y329796D03*
X146016Y329796D03*
D10*
X293873Y197004D03*
X293873Y214004D03*
D13*
X305995Y249354D03*
X322995Y249354D03*
X267184Y353284D03*
X250184Y353284D03*
X294789Y325514D03*
X311789Y325514D03*
D15*
X175982Y441032D02*
X175982Y452032D01*
X175982Y441032D02*
X170982Y441032D01*
X170982Y452032D01*
X175982Y452032D01*
X175982Y445782D02*
X170982Y445782D01*
X170982Y450532D02*
X175982Y450532D01*
X145582Y452032D02*
X145582Y441032D01*
X145582Y452032D02*
X150582Y452032D01*
X150582Y441032D01*
X145582Y441032D01*
X145582Y445782D02*
X150582Y445782D01*
X150582Y450532D02*
X145582Y450532D01*
X149900Y497166D02*
X149900Y508166D01*
X154900Y508166D01*
X154900Y497166D01*
X149900Y497166D01*
X149900Y501916D02*
X154900Y501916D01*
X154900Y506666D02*
X149900Y506666D01*
X359247Y285312D02*
X359247Y274312D01*
X359247Y285312D02*
X364247Y285312D01*
X364247Y274312D01*
X359247Y274312D01*
X359247Y279062D02*
X364247Y279062D01*
X364247Y283812D02*
X359247Y283812D01*
D16*
X159870Y664480D03*
X194870Y664480D03*
X229870Y664480D03*
X264870Y664480D03*
X299870Y664480D03*
X264870Y139430D03*
X229870Y139430D03*
X194870Y139430D03*
D17*
X340868Y575310D02*
X355092Y575310D01*
X355092Y549910D02*
X340868Y549910D01*
X340868Y524510D02*
X355092Y524510D01*
X120142Y576580D02*
X105918Y576580D01*
X105918Y551180D02*
X120142Y551180D01*
X120142Y525780D02*
X105918Y525780D01*
D14*
X134620Y211480D03*
X134620Y230480D03*
D18*
X395070Y552450D03*
X307390Y401730D03*
X152350Y401730D03*
X64670Y552450D03*
X353770Y623950D03*
X353770Y480950D03*
X105970Y480950D03*
X105970Y623950D03*
X395070Y252450D03*
X312470Y109350D03*
X147270Y109350D03*
X64670Y252450D03*
X353770Y323950D03*
X353770Y180950D03*
X105970Y180950D03*
X105970Y323950D03*
D19*
X267370Y327090D02*
X267370Y337090D01*
X262370Y337090D02*
X262370Y327090D01*
X257370Y327090D02*
X257370Y337090D01*
X252370Y337090D02*
X252370Y327090D01*
X247370Y327090D02*
X247370Y337090D01*
X242370Y337090D02*
X242370Y327090D01*
X237370Y327090D02*
X237370Y337090D01*
X232370Y337090D02*
X232370Y327090D01*
X227370Y327090D02*
X227370Y337090D01*
X222370Y337090D02*
X222370Y327090D01*
X217370Y327090D02*
X217370Y337090D01*
X212370Y337090D02*
X212370Y327090D01*
X207370Y327090D02*
X207370Y337090D01*
X202370Y337090D02*
X202370Y327090D01*
X197370Y327090D02*
X197370Y337090D01*
X192370Y337090D02*
X192370Y327090D01*
X178370Y313090D02*
X168370Y313090D01*
X168370Y308090D02*
X178370Y308090D01*
X178370Y303090D02*
X168370Y303090D01*
X168370Y298090D02*
X178370Y298090D01*
X178370Y293090D02*
X168370Y293090D01*
X168370Y288090D02*
X178370Y288090D01*
X178370Y283090D02*
X168370Y283090D01*
X168370Y278090D02*
X178370Y278090D01*
X178370Y273090D02*
X168370Y273090D01*
X168370Y268090D02*
X178370Y268090D01*
X178370Y263090D02*
X168370Y263090D01*
X168370Y258090D02*
X178370Y258090D01*
X178370Y253090D02*
X168370Y253090D01*
X168370Y248090D02*
X178370Y248090D01*
X178370Y243090D02*
X168370Y243090D01*
X168370Y238090D02*
X178370Y238090D01*
X192370Y224090D02*
X192370Y214090D01*
X197370Y214090D02*
X197370Y224090D01*
X202370Y224090D02*
X202370Y214090D01*
X207370Y214090D02*
X207370Y224090D01*
X212370Y224090D02*
X212370Y214090D01*
X217370Y214090D02*
X217370Y224090D01*
X222370Y224090D02*
X222370Y214090D01*
X227370Y214090D02*
X227370Y224090D01*
X232370Y224090D02*
X232370Y214090D01*
X237370Y214090D02*
X237370Y224090D01*
X242370Y224090D02*
X242370Y214090D01*
X247370Y214090D02*
X247370Y224090D01*
X252370Y224090D02*
X252370Y214090D01*
X257370Y214090D02*
X257370Y224090D01*
X262370Y224090D02*
X262370Y214090D01*
X267370Y214090D02*
X267370Y224090D01*
X281370Y238090D02*
X291370Y238090D01*
X291370Y243090D02*
X281370Y243090D01*
X281370Y248090D02*
X291370Y248090D01*
X291370Y253090D02*
X281370Y253090D01*
X281370Y258090D02*
X291370Y258090D01*
X291370Y263090D02*
X281370Y263090D01*
X281370Y268090D02*
X291370Y268090D01*
X291370Y273090D02*
X281370Y273090D01*
X281370Y278090D02*
X291370Y278090D01*
X291370Y283090D02*
X281370Y283090D01*
X281370Y288090D02*
X291370Y288090D01*
X291370Y293090D02*
X281370Y293090D01*
X281370Y298090D02*
X291370Y298090D01*
X291370Y303090D02*
X281370Y303090D01*
X281370Y308090D02*
X291370Y308090D01*
X291370Y313090D02*
X281370Y313090D01*
D20*
X228600Y292100D03*
X234950Y276860D03*
X104140Y283210D03*
D21*
X197370Y219090D02*
X197370Y208800D01*
X191770Y203200D01*
X173370Y308090D02*
X160020Y308090D01*
X160020Y308610D01*
D22*
X173370Y308090D02*
X182360Y308090D01*
X184150Y309880D01*
X262370Y332090D02*
X262370Y340880D01*
X257810Y345440D01*
X262370Y219090D02*
X262370Y211340D01*
X262372Y211231D01*
X262378Y211122D01*
X262388Y211013D01*
X262401Y210905D01*
X262419Y210797D01*
X262440Y210690D01*
X262465Y210583D01*
X262494Y210478D01*
X262527Y210374D01*
X262563Y210271D01*
X262603Y210169D01*
X262647Y210069D01*
X262694Y209970D01*
X262744Y209873D01*
X262798Y209779D01*
X262856Y209686D01*
X262916Y209595D01*
X262980Y209506D01*
X263047Y209420D01*
X263117Y209336D01*
X263190Y209255D01*
X263266Y209176D01*
X263345Y209100D01*
X263426Y209027D01*
X263510Y208957D01*
X263596Y208890D01*
X263685Y208826D01*
X263776Y208766D01*
X263869Y208708D01*
X263963Y208654D01*
X264060Y208604D01*
X264159Y208557D01*
X264259Y208513D01*
X264361Y208473D01*
X264464Y208437D01*
X264568Y208404D01*
X264673Y208375D01*
X264780Y208350D01*
X264887Y208329D01*
X264995Y208311D01*
X265103Y208298D01*
X265212Y208288D01*
X265321Y208282D01*
X265430Y208280D01*
X262370Y219090D02*
X262370Y226810D01*
X262372Y226919D01*
X262378Y227028D01*
X262388Y227137D01*
X262401Y227245D01*
X262419Y227353D01*
X262440Y227460D01*
X262465Y227567D01*
X262494Y227672D01*
X262527Y227776D01*
X262563Y227879D01*
X262603Y227981D01*
X262647Y228081D01*
X262694Y228180D01*
X262744Y228277D01*
X262798Y228371D01*
X262856Y228464D01*
X262916Y228555D01*
X262980Y228644D01*
X263047Y228730D01*
X263117Y228814D01*
X263190Y228895D01*
X263266Y228974D01*
X263345Y229050D01*
X263426Y229123D01*
X263510Y229193D01*
X263596Y229260D01*
X263685Y229324D01*
X263776Y229384D01*
X263869Y229442D01*
X263963Y229496D01*
X264060Y229546D01*
X264159Y229593D01*
X264259Y229637D01*
X264361Y229677D01*
X264464Y229713D01*
X264568Y229746D01*
X264673Y229775D01*
X264780Y229800D01*
X264887Y229821D01*
X264995Y229839D01*
X265103Y229852D01*
X265212Y229862D01*
X265321Y229868D01*
X265430Y229870D01*
D20*
X255270Y354330D03*
X161290Y124460D03*
X284480Y123190D03*
X331470Y252730D03*
D22*
X313410Y258090D02*
X286370Y258090D01*
X313410Y258090D02*
X313555Y258088D01*
X313700Y258082D01*
X313845Y258072D01*
X313990Y258059D01*
X314134Y258041D01*
X314277Y258019D01*
X314420Y257994D01*
X314562Y257965D01*
X314704Y257932D01*
X314844Y257895D01*
X314983Y257854D01*
X315121Y257809D01*
X315258Y257761D01*
X315394Y257709D01*
X315528Y257654D01*
X315661Y257595D01*
X315792Y257532D01*
X315921Y257466D01*
X316048Y257396D01*
X316173Y257323D01*
X316297Y257246D01*
X316418Y257166D01*
X316537Y257083D01*
X316654Y256997D01*
X316768Y256908D01*
X316880Y256815D01*
X316989Y256720D01*
X317096Y256621D01*
X317200Y256520D01*
X317301Y256416D01*
X317400Y256309D01*
X317495Y256200D01*
X317588Y256088D01*
X317677Y255974D01*
X317763Y255857D01*
X317846Y255738D01*
X317926Y255617D01*
X318003Y255493D01*
X318076Y255368D01*
X318146Y255241D01*
X318212Y255112D01*
X318275Y254981D01*
X318334Y254848D01*
X318389Y254714D01*
X318441Y254578D01*
X318489Y254441D01*
X318534Y254303D01*
X318575Y254164D01*
X318612Y254024D01*
X318645Y253882D01*
X318674Y253740D01*
X318699Y253597D01*
X318721Y253454D01*
X318739Y253310D01*
X318752Y253165D01*
X318762Y253020D01*
X318768Y252875D01*
X318770Y252730D01*
D20*
X311150Y427990D03*
D23*
X307390Y424230D02*
X307390Y401730D01*
X307390Y424230D02*
X311150Y427990D01*
D20*
X234950Y585470D03*
X148590Y551180D03*
X247650Y594360D03*
X325120Y497840D03*
X160020Y459740D03*
X76200Y534670D03*
X137160Y429260D03*
X384810Y534670D03*
X323850Y429260D03*
X74545Y269905D03*
X137160Y377190D03*
X385195Y269905D03*
X73991Y234390D03*
X135890Y127000D03*
D21*
X169510Y313090D02*
X173370Y313090D01*
X169510Y313090D02*
X163016Y319584D01*
X163016Y329796D01*
D24*
X163016Y351482D01*
X163842Y352307D01*
D21*
X267370Y343240D02*
X267370Y332090D01*
X267370Y343240D02*
X267184Y353284D01*
X295516Y322236D02*
X286370Y313090D01*
X192370Y219090D02*
X168815Y219090D01*
X164277Y219441D01*
X286370Y253090D02*
X302260Y253090D01*
X305995Y249354D01*
X257370Y219090D02*
X257370Y203640D01*
X264006Y197004D02*
X293873Y197004D01*
X264006Y197004D02*
X257370Y203640D01*
D24*
X293873Y197004D02*
X294516Y197647D01*
X318958Y197647D01*
X163842Y352307D02*
X163842Y355588D01*
X142240Y377190D02*
X137160Y377190D01*
X142240Y377190D02*
X163842Y355588D01*
D21*
X257370Y229040D02*
X257370Y219090D01*
X192370Y219090D02*
X192370Y229200D01*
X252730Y233680D02*
X257370Y229040D01*
X252730Y233680D02*
X196850Y233680D01*
X192370Y229200D01*
X196850Y233680D02*
X196850Y277843D01*
X185912Y288782D01*
D20*
X185912Y288782D03*
X163016Y319584D03*
D21*
X267184Y353284D02*
X267184Y361164D01*
X267970Y361950D01*
D20*
X267970Y361950D03*
D21*
X305995Y249354D02*
X305995Y241375D01*
X306070Y241300D01*
D20*
X306070Y241300D03*
X322692Y126662D03*
X384810Y234950D03*
X295025Y342515D03*
D22*
X295025Y325750D02*
X294789Y325514D01*
X295025Y325750D02*
X295025Y342515D01*
D24*
X294789Y325514D02*
X294789Y322964D01*
X295516Y322236D01*
D21*
X293090Y293090D02*
X286370Y293090D01*
D22*
X300780Y307130D02*
X306545Y307130D01*
X300780Y307130D02*
X295910Y302260D01*
X295910Y295910D02*
X293090Y293090D01*
X295910Y295910D02*
X295910Y302260D01*
D21*
X296110Y288090D02*
X286370Y288090D01*
X301070Y283130D02*
X306545Y283130D01*
X301070Y283130D02*
X296110Y288090D01*
X247370Y332090D02*
X247370Y340640D01*
X172974Y502666D02*
X161290Y502666D01*
X152400Y502666D01*
X212090Y375920D02*
X247370Y340640D01*
X212090Y375920D02*
X212090Y463550D01*
X172974Y502666D01*
D20*
X161290Y502666D03*
D21*
X152400Y519741D02*
X151440Y520702D01*
X152400Y519741D02*
X152400Y502666D01*
D22*
X286370Y283090D02*
X293490Y283090D01*
X301660Y274920D02*
X311296Y274920D01*
D20*
X311296Y274920D03*
D22*
X301660Y274920D02*
X293490Y283090D01*
X365760Y273050D02*
X365760Y269240D01*
X365760Y273050D02*
X365557Y273253D01*
X365557Y276002D02*
X361747Y279812D01*
X365557Y276002D02*
X365557Y273253D01*
D20*
X365760Y269240D03*
D22*
X365470Y276088D02*
X365470Y261669D01*
X365470Y276088D02*
X361747Y279812D01*
X186690Y325120D02*
X186690Y397510D01*
X179070Y405130D01*
D20*
X179070Y405130D03*
D22*
X179070Y440944D02*
X173482Y446532D01*
X179070Y440944D02*
X179070Y436880D01*
D20*
X179070Y436880D03*
D22*
X193040Y307340D02*
X188790Y303090D01*
X193040Y307340D02*
X193040Y318770D01*
X186690Y325120D01*
X188790Y303090D02*
X173370Y303090D01*
X192370Y332090D02*
X192370Y402244D01*
X157607Y437007D01*
X148082Y446532D01*
D20*
X157607Y437007D03*
X135890Y251460D03*
X238760Y262230D03*
X369570Y232410D03*
D25*
X134620Y230480D02*
X134620Y250190D01*
X135890Y251460D01*
D20*
X176530Y685800D03*
X212090Y685800D03*
X247650Y685800D03*
X281940Y685800D03*
X204470Y617220D03*
X214630Y635000D03*
X233680Y615950D03*
X128270Y510540D03*
X325120Y513080D03*
X181610Y162560D03*
X203200Y162560D03*
X246380Y162560D03*
X275590Y160020D03*
X212090Y125730D03*
X246380Y124460D03*
X256540Y365760D03*
X179070Y363220D03*
X245110Y401320D03*
X299720Y487680D03*
X251460Y557530D03*
X243840Y308610D03*
X119380Y257810D03*
X246380Y572770D03*
X217170Y557530D03*
X201930Y486000D03*
X278130Y215900D03*
X346710Y215900D03*
X234950Y478790D03*
D21*
X219710Y463550D01*
X219710Y416560D01*
D20*
X219710Y416560D03*
X236220Y363220D03*
D21*
X252730Y448310D02*
X246380Y454660D01*
X252730Y448310D02*
X252730Y379730D01*
X236220Y363220D01*
D20*
X246380Y454660D03*
X233680Y373380D03*
D21*
X237490Y416705D02*
X236775Y417420D01*
X237490Y416705D02*
X237490Y377190D01*
X233680Y373380D01*
D20*
X236775Y417420D03*
X162560Y379730D03*
X179070Y379876D03*
D21*
X162706Y379876D01*
X162560Y379730D01*
D20*
X154940Y266700D03*
D22*
X154940Y259080D02*
X165930Y248090D01*
X154940Y259080D02*
X154940Y266700D01*
X165930Y248090D02*
X173370Y248090D01*
X173370Y243090D02*
X159090Y243090D01*
X154332Y247848D01*
D20*
X154332Y247848D03*
X151130Y238760D03*
D22*
X151800Y238090D01*
X173370Y238090D01*
D21*
X296530Y234280D02*
X324450Y234280D01*
X296530Y234280D02*
X292720Y238090D01*
X286370Y238090D01*
X342900Y252730D02*
X342900Y295910D01*
D20*
X342900Y295910D03*
D21*
X342900Y252730D02*
X324450Y234280D01*
X252370Y219090D02*
X252370Y198480D01*
X271780Y179070D01*
X322580Y179070D01*
D20*
X322580Y179070D03*
D21*
X328310Y227980D02*
X276260Y227980D01*
X267370Y219090D01*
X351230Y321410D02*
X353770Y323950D01*
X351230Y321410D02*
X351230Y250900D01*
X328310Y227980D01*
X247370Y219090D02*
X247370Y194590D01*
X271780Y170180D01*
X343000Y170180D01*
X353770Y180950D01*
X286370Y248090D02*
X270070Y248090D01*
X262410Y255750D02*
X262410Y311150D01*
D20*
X262410Y311150D03*
D21*
X262410Y255750D02*
X270070Y248090D01*
X266180Y243090D02*
X286370Y243090D01*
X254000Y255270D02*
X254000Y317500D01*
D20*
X254000Y317500D03*
D21*
X254000Y255270D02*
X266180Y243090D01*
D20*
X297180Y434340D03*
D21*
X334010Y471170D02*
X343990Y471170D01*
X334010Y471170D02*
X297180Y434340D01*
X343990Y471170D02*
X353770Y480950D01*
X286370Y273090D02*
X274280Y273090D01*
X269240Y278130D01*
X269240Y320040D01*
X276860Y327660D02*
X276860Y365760D01*
X259080Y383540D01*
X259080Y470840D02*
X105970Y623950D01*
X276860Y327660D02*
X269240Y320040D01*
X259080Y383540D02*
X259080Y470840D01*
X199510Y446920D02*
X199510Y367650D01*
X222370Y344790D02*
X222370Y332090D01*
X222370Y344790D02*
X199510Y367650D01*
X199510Y446920D02*
X176530Y469900D01*
X139700Y469900D01*
D20*
X139700Y469900D03*
D21*
X205780Y458430D02*
X205780Y371460D01*
X227370Y349870D02*
X227370Y332090D01*
X227370Y349870D02*
X205780Y371460D01*
X183260Y480950D02*
X105970Y480950D01*
X183260Y480950D02*
X205780Y458430D01*
X207370Y219090D02*
X207370Y199750D01*
X176530Y168910D01*
X137160Y168910D01*
D20*
X137160Y168910D03*
D21*
X202370Y204910D02*
X202370Y219090D01*
X178410Y180950D02*
X105970Y180950D01*
X178410Y180950D02*
X202370Y204910D01*
X286370Y263090D02*
X321510Y263090D01*
X328930Y313690D02*
X328930Y355600D01*
X288290Y396240D01*
X288290Y558470D01*
X353770Y623950D01*
X328930Y313690D02*
X334010Y308610D01*
X334010Y275590D01*
X321510Y263090D01*
X286370Y278090D02*
X276900Y278090D01*
X274320Y280670D01*
X274320Y314960D01*
X284480Y325120D01*
X284480Y368300D01*
X265430Y387350D01*
X265430Y488950D01*
D20*
X137160Y617220D03*
D21*
X265430Y488950D01*
X286370Y268090D02*
X316350Y268090D01*
X323850Y311150D02*
X323850Y350520D01*
X281940Y572770D02*
X326390Y617220D01*
D20*
X326390Y617220D03*
D21*
X281940Y392430D02*
X323850Y350520D01*
X281940Y392430D02*
X281940Y572770D01*
X323850Y311150D02*
X327660Y307340D01*
X327660Y279400D01*
X316350Y268090D01*
X173370Y283090D02*
X133470Y283090D01*
X118110Y298450D01*
D20*
X118110Y298450D03*
D21*
X141830Y288090D02*
X173370Y288090D01*
X141830Y288090D02*
X105970Y323950D01*
D22*
X140704Y278090D02*
X173370Y278090D01*
X140704Y278090D02*
X135664Y273050D01*
D20*
X135664Y273050D03*
M02*
