G04 EAGLE Gerber RS-274X export*
G75*
%MOMM*%
%FSLAX34Y34*%
%LPD*%
%INSilkscreen Bottom*%
%IPPOS*%
%AMOC8*
5,1,8,0,0,1.08239X$1,22.5*%
G01*
%ADD10C,0.101600*%
%ADD11C,0.152400*%
%ADD12C,0.076200*%
%ADD13C,0.254000*%
%ADD14C,0.406400*%

G36*
X-38543Y79606D02*
X-38543Y79606D01*
X-38540Y79605D01*
X-38497Y79625D01*
X-38454Y79644D01*
X-38453Y79646D01*
X-38451Y79647D01*
X-38418Y79732D01*
X-38418Y83542D01*
X-38419Y83544D01*
X-38418Y83546D01*
X-38438Y83589D01*
X-38457Y83632D01*
X-38459Y83633D01*
X-38460Y83635D01*
X-38545Y83668D01*
X-41085Y83668D01*
X-41087Y83667D01*
X-41089Y83668D01*
X-41132Y83648D01*
X-41175Y83629D01*
X-41176Y83627D01*
X-41178Y83626D01*
X-41211Y83542D01*
X-41211Y79732D01*
X-41210Y79730D01*
X-41211Y79727D01*
X-41191Y79684D01*
X-41172Y79641D01*
X-41170Y79640D01*
X-41169Y79638D01*
X-41085Y79605D01*
X-38545Y79605D01*
X-38543Y79606D01*
G37*
G36*
X44262Y64603D02*
X44262Y64603D01*
X44264Y64602D01*
X44307Y64622D01*
X44350Y64641D01*
X44351Y64643D01*
X44353Y64644D01*
X44386Y64729D01*
X44386Y68539D01*
X44385Y68541D01*
X44386Y68543D01*
X44366Y68586D01*
X44347Y68629D01*
X44345Y68630D01*
X44344Y68632D01*
X44260Y68665D01*
X41720Y68665D01*
X41718Y68664D01*
X41715Y68665D01*
X41672Y68645D01*
X41629Y68626D01*
X41628Y68624D01*
X41626Y68623D01*
X41593Y68539D01*
X41593Y64729D01*
X41594Y64727D01*
X41593Y64724D01*
X41613Y64681D01*
X41632Y64638D01*
X41634Y64637D01*
X41635Y64635D01*
X41720Y64602D01*
X44260Y64602D01*
X44262Y64603D01*
G37*
G36*
X-4008Y41340D02*
X-4008Y41340D01*
X-4005Y41339D01*
X-3962Y41359D01*
X-3919Y41378D01*
X-3918Y41380D01*
X-3916Y41381D01*
X-3883Y41466D01*
X-3883Y44006D01*
X-3884Y44008D01*
X-3883Y44010D01*
X-3903Y44053D01*
X-3922Y44096D01*
X-3924Y44097D01*
X-3925Y44099D01*
X-4010Y44132D01*
X-7820Y44132D01*
X-7822Y44131D01*
X-7824Y44132D01*
X-7867Y44112D01*
X-7910Y44093D01*
X-7911Y44091D01*
X-7913Y44090D01*
X-7946Y44006D01*
X-7946Y41466D01*
X-7945Y41464D01*
X-7946Y41461D01*
X-7926Y41418D01*
X-7907Y41375D01*
X-7905Y41374D01*
X-7904Y41372D01*
X-7820Y41339D01*
X-4010Y41339D01*
X-4008Y41340D01*
G37*
D10*
X146699Y139919D02*
X146699Y141866D01*
X140208Y141866D01*
X140208Y137971D01*
X140210Y137872D01*
X140216Y137772D01*
X140225Y137673D01*
X140238Y137575D01*
X140255Y137477D01*
X140276Y137379D01*
X140301Y137283D01*
X140329Y137188D01*
X140361Y137094D01*
X140396Y137001D01*
X140435Y136909D01*
X140478Y136819D01*
X140523Y136731D01*
X140573Y136644D01*
X140625Y136560D01*
X140681Y136477D01*
X140739Y136397D01*
X140801Y136319D01*
X140866Y136244D01*
X140934Y136171D01*
X141004Y136101D01*
X141077Y136033D01*
X141152Y135968D01*
X141230Y135906D01*
X141310Y135848D01*
X141393Y135792D01*
X141477Y135740D01*
X141564Y135690D01*
X141652Y135645D01*
X141742Y135602D01*
X141834Y135563D01*
X141927Y135528D01*
X142021Y135496D01*
X142116Y135468D01*
X142212Y135443D01*
X142310Y135422D01*
X142408Y135405D01*
X142506Y135392D01*
X142605Y135383D01*
X142705Y135377D01*
X142804Y135375D01*
X149296Y135375D01*
X149395Y135377D01*
X149495Y135383D01*
X149594Y135392D01*
X149692Y135405D01*
X149790Y135422D01*
X149888Y135443D01*
X149984Y135468D01*
X150079Y135496D01*
X150173Y135528D01*
X150266Y135563D01*
X150358Y135602D01*
X150448Y135645D01*
X150536Y135690D01*
X150623Y135740D01*
X150707Y135792D01*
X150790Y135848D01*
X150870Y135906D01*
X150948Y135968D01*
X151023Y136033D01*
X151096Y136101D01*
X151166Y136171D01*
X151234Y136244D01*
X151299Y136319D01*
X151361Y136397D01*
X151419Y136477D01*
X151475Y136560D01*
X151527Y136644D01*
X151577Y136731D01*
X151622Y136819D01*
X151665Y136909D01*
X151704Y137001D01*
X151739Y137093D01*
X151771Y137188D01*
X151799Y137283D01*
X151824Y137379D01*
X151845Y137477D01*
X151862Y137575D01*
X151875Y137673D01*
X151884Y137772D01*
X151890Y137872D01*
X151892Y137971D01*
X151892Y141866D01*
X151892Y147567D02*
X140208Y147567D01*
X140208Y154058D02*
X151892Y147567D01*
X151892Y154058D02*
X140208Y154058D01*
X140208Y159759D02*
X151892Y159759D01*
X151892Y163004D01*
X151890Y163117D01*
X151884Y163230D01*
X151874Y163343D01*
X151860Y163456D01*
X151843Y163568D01*
X151821Y163679D01*
X151796Y163789D01*
X151766Y163899D01*
X151733Y164007D01*
X151696Y164114D01*
X151656Y164220D01*
X151611Y164324D01*
X151563Y164427D01*
X151512Y164528D01*
X151457Y164627D01*
X151399Y164724D01*
X151337Y164819D01*
X151272Y164912D01*
X151204Y165002D01*
X151133Y165090D01*
X151058Y165176D01*
X150981Y165259D01*
X150901Y165339D01*
X150818Y165416D01*
X150732Y165491D01*
X150644Y165562D01*
X150554Y165630D01*
X150461Y165695D01*
X150366Y165757D01*
X150269Y165815D01*
X150170Y165870D01*
X150069Y165921D01*
X149966Y165969D01*
X149862Y166014D01*
X149756Y166054D01*
X149649Y166091D01*
X149541Y166124D01*
X149431Y166154D01*
X149321Y166179D01*
X149210Y166201D01*
X149098Y166218D01*
X148985Y166232D01*
X148872Y166242D01*
X148759Y166248D01*
X148646Y166250D01*
X143454Y166250D01*
X143341Y166248D01*
X143228Y166242D01*
X143115Y166232D01*
X143002Y166218D01*
X142890Y166201D01*
X142779Y166179D01*
X142669Y166154D01*
X142559Y166124D01*
X142451Y166091D01*
X142344Y166054D01*
X142238Y166014D01*
X142134Y165969D01*
X142031Y165921D01*
X141930Y165870D01*
X141831Y165815D01*
X141734Y165757D01*
X141639Y165695D01*
X141546Y165630D01*
X141456Y165562D01*
X141368Y165491D01*
X141282Y165416D01*
X141199Y165339D01*
X141119Y165259D01*
X141042Y165176D01*
X140967Y165090D01*
X140896Y165002D01*
X140828Y164912D01*
X140763Y164819D01*
X140701Y164724D01*
X140643Y164627D01*
X140588Y164528D01*
X140537Y164427D01*
X140489Y164324D01*
X140444Y164220D01*
X140404Y164114D01*
X140367Y164007D01*
X140334Y163899D01*
X140304Y163789D01*
X140279Y163679D01*
X140257Y163568D01*
X140240Y163456D01*
X140226Y163343D01*
X140216Y163230D01*
X140210Y163117D01*
X140208Y163004D01*
X140208Y159759D01*
X81576Y32180D02*
X79981Y31063D01*
X83704Y25746D01*
X86895Y27980D01*
X86894Y27980D02*
X86974Y28039D01*
X87052Y28101D01*
X87128Y28165D01*
X87201Y28233D01*
X87272Y28303D01*
X87339Y28376D01*
X87404Y28451D01*
X87466Y28529D01*
X87525Y28609D01*
X87581Y28691D01*
X87634Y28776D01*
X87683Y28862D01*
X87729Y28950D01*
X87772Y29040D01*
X87811Y29131D01*
X87846Y29224D01*
X87878Y29318D01*
X87907Y29414D01*
X87931Y29510D01*
X87952Y29607D01*
X87970Y29705D01*
X87983Y29804D01*
X87993Y29903D01*
X87999Y30002D01*
X88001Y30101D01*
X87999Y30201D01*
X87994Y30300D01*
X87984Y30399D01*
X87971Y30498D01*
X87955Y30596D01*
X87934Y30693D01*
X87910Y30790D01*
X87882Y30885D01*
X87850Y30979D01*
X87815Y31072D01*
X87776Y31164D01*
X87734Y31254D01*
X87688Y31342D01*
X87639Y31429D01*
X87587Y31513D01*
X87532Y31596D01*
X83809Y36913D01*
X83750Y36993D01*
X83688Y37071D01*
X83624Y37147D01*
X83556Y37220D01*
X83486Y37291D01*
X83413Y37358D01*
X83338Y37423D01*
X83260Y37485D01*
X83180Y37544D01*
X83098Y37600D01*
X83013Y37653D01*
X82927Y37702D01*
X82839Y37748D01*
X82749Y37791D01*
X82658Y37830D01*
X82565Y37865D01*
X82471Y37897D01*
X82375Y37926D01*
X82279Y37950D01*
X82182Y37971D01*
X82084Y37989D01*
X81985Y38002D01*
X81886Y38012D01*
X81787Y38018D01*
X81688Y38020D01*
X81588Y38018D01*
X81489Y38013D01*
X81390Y38004D01*
X81291Y37990D01*
X81193Y37974D01*
X81096Y37953D01*
X80999Y37929D01*
X80904Y37901D01*
X80810Y37869D01*
X80717Y37834D01*
X80625Y37795D01*
X80535Y37753D01*
X80447Y37707D01*
X80360Y37658D01*
X80276Y37606D01*
X80193Y37551D01*
X77003Y35317D01*
X72333Y32047D02*
X79034Y22476D01*
X73717Y18753D02*
X72333Y32047D01*
X67016Y28324D02*
X73717Y18753D01*
X69047Y15483D02*
X62346Y25054D01*
X59687Y23192D01*
X59687Y23193D02*
X59596Y23126D01*
X59506Y23057D01*
X59419Y22984D01*
X59335Y22908D01*
X59254Y22829D01*
X59175Y22748D01*
X59099Y22664D01*
X59026Y22577D01*
X58957Y22488D01*
X58890Y22396D01*
X58827Y22302D01*
X58767Y22206D01*
X58710Y22108D01*
X58657Y22008D01*
X58607Y21906D01*
X58561Y21802D01*
X58519Y21697D01*
X58480Y21591D01*
X58445Y21483D01*
X58414Y21374D01*
X58386Y21264D01*
X58363Y21153D01*
X58343Y21042D01*
X58327Y20930D01*
X58315Y20817D01*
X58307Y20704D01*
X58303Y20591D01*
X58303Y20477D01*
X58307Y20364D01*
X58315Y20251D01*
X58327Y20138D01*
X58343Y20026D01*
X58363Y19915D01*
X58386Y19804D01*
X58414Y19694D01*
X58445Y19585D01*
X58480Y19477D01*
X58519Y19371D01*
X58561Y19266D01*
X58607Y19162D01*
X58657Y19060D01*
X58710Y18960D01*
X58767Y18862D01*
X58827Y18766D01*
X58890Y18672D01*
X61869Y14418D01*
X61868Y14418D02*
X61935Y14327D01*
X62004Y14237D01*
X62077Y14150D01*
X62153Y14066D01*
X62232Y13985D01*
X62313Y13906D01*
X62397Y13830D01*
X62484Y13757D01*
X62574Y13688D01*
X62665Y13621D01*
X62759Y13558D01*
X62855Y13498D01*
X62953Y13441D01*
X63053Y13388D01*
X63155Y13338D01*
X63259Y13292D01*
X63364Y13250D01*
X63470Y13211D01*
X63578Y13176D01*
X63687Y13145D01*
X63797Y13117D01*
X63908Y13094D01*
X64019Y13074D01*
X64131Y13058D01*
X64244Y13046D01*
X64357Y13038D01*
X64470Y13034D01*
X64584Y13034D01*
X64697Y13038D01*
X64810Y13046D01*
X64923Y13058D01*
X65035Y13074D01*
X65146Y13094D01*
X65257Y13117D01*
X65367Y13145D01*
X65476Y13176D01*
X65584Y13211D01*
X65690Y13250D01*
X65795Y13292D01*
X65899Y13338D01*
X66001Y13388D01*
X66101Y13441D01*
X66199Y13498D01*
X66295Y13558D01*
X66389Y13621D01*
X69047Y15483D01*
X-63729Y19683D02*
X-65324Y20800D01*
X-69047Y15483D01*
X-65857Y13249D01*
X-65774Y13194D01*
X-65690Y13142D01*
X-65603Y13093D01*
X-65515Y13047D01*
X-65425Y13005D01*
X-65333Y12966D01*
X-65240Y12931D01*
X-65146Y12899D01*
X-65051Y12871D01*
X-64954Y12847D01*
X-64857Y12826D01*
X-64759Y12810D01*
X-64660Y12797D01*
X-64561Y12787D01*
X-64462Y12782D01*
X-64362Y12780D01*
X-64263Y12782D01*
X-64164Y12788D01*
X-64065Y12798D01*
X-63966Y12811D01*
X-63868Y12829D01*
X-63771Y12850D01*
X-63675Y12874D01*
X-63579Y12903D01*
X-63485Y12935D01*
X-63392Y12970D01*
X-63301Y13009D01*
X-63211Y13052D01*
X-63123Y13098D01*
X-63037Y13147D01*
X-62952Y13200D01*
X-62870Y13256D01*
X-62790Y13315D01*
X-62712Y13377D01*
X-62637Y13442D01*
X-62564Y13509D01*
X-62494Y13580D01*
X-62426Y13653D01*
X-62362Y13729D01*
X-62300Y13807D01*
X-62241Y13887D01*
X-58518Y19204D01*
X-58463Y19287D01*
X-58411Y19371D01*
X-58362Y19458D01*
X-58316Y19546D01*
X-58274Y19636D01*
X-58235Y19728D01*
X-58200Y19821D01*
X-58168Y19915D01*
X-58140Y20010D01*
X-58116Y20107D01*
X-58095Y20204D01*
X-58079Y20302D01*
X-58066Y20401D01*
X-58056Y20500D01*
X-58051Y20599D01*
X-58049Y20699D01*
X-58051Y20798D01*
X-58057Y20897D01*
X-58067Y20996D01*
X-58080Y21095D01*
X-58098Y21193D01*
X-58119Y21290D01*
X-58143Y21386D01*
X-58172Y21482D01*
X-58204Y21576D01*
X-58239Y21669D01*
X-58278Y21760D01*
X-58321Y21850D01*
X-58367Y21938D01*
X-58416Y22024D01*
X-58469Y22109D01*
X-58525Y22191D01*
X-58584Y22271D01*
X-58646Y22349D01*
X-58711Y22424D01*
X-58778Y22497D01*
X-58849Y22567D01*
X-58922Y22635D01*
X-58998Y22699D01*
X-59076Y22761D01*
X-59156Y22820D01*
X-59155Y22820D02*
X-62346Y25054D01*
X-67016Y28324D02*
X-73717Y18753D01*
X-79035Y22476D02*
X-67016Y28324D01*
X-72333Y32047D02*
X-79035Y22476D01*
X-83704Y25746D02*
X-77003Y35317D01*
X-79661Y37178D01*
X-79661Y37179D02*
X-79755Y37242D01*
X-79851Y37302D01*
X-79949Y37359D01*
X-80049Y37412D01*
X-80151Y37462D01*
X-80255Y37508D01*
X-80360Y37550D01*
X-80466Y37589D01*
X-80574Y37624D01*
X-80683Y37655D01*
X-80793Y37683D01*
X-80904Y37706D01*
X-81015Y37726D01*
X-81127Y37742D01*
X-81240Y37754D01*
X-81353Y37762D01*
X-81466Y37766D01*
X-81580Y37766D01*
X-81693Y37762D01*
X-81806Y37754D01*
X-81919Y37742D01*
X-82031Y37726D01*
X-82142Y37706D01*
X-82253Y37683D01*
X-82363Y37655D01*
X-82472Y37624D01*
X-82580Y37589D01*
X-82686Y37550D01*
X-82791Y37508D01*
X-82895Y37462D01*
X-82997Y37412D01*
X-83097Y37359D01*
X-83195Y37302D01*
X-83291Y37242D01*
X-83385Y37179D01*
X-83476Y37112D01*
X-83566Y37043D01*
X-83653Y36970D01*
X-83737Y36894D01*
X-83818Y36815D01*
X-83897Y36734D01*
X-83973Y36650D01*
X-84046Y36563D01*
X-84115Y36474D01*
X-84182Y36382D01*
X-84182Y36381D02*
X-87160Y32128D01*
X-87161Y32128D02*
X-87224Y32034D01*
X-87284Y31938D01*
X-87341Y31840D01*
X-87394Y31740D01*
X-87444Y31638D01*
X-87490Y31534D01*
X-87532Y31429D01*
X-87571Y31323D01*
X-87606Y31215D01*
X-87637Y31106D01*
X-87665Y30996D01*
X-87688Y30885D01*
X-87708Y30774D01*
X-87724Y30662D01*
X-87736Y30549D01*
X-87744Y30436D01*
X-87748Y30323D01*
X-87748Y30209D01*
X-87744Y30096D01*
X-87736Y29983D01*
X-87724Y29870D01*
X-87708Y29758D01*
X-87688Y29647D01*
X-87665Y29536D01*
X-87637Y29426D01*
X-87606Y29317D01*
X-87571Y29209D01*
X-87532Y29103D01*
X-87490Y28998D01*
X-87444Y28894D01*
X-87394Y28792D01*
X-87341Y28692D01*
X-87284Y28594D01*
X-87224Y28498D01*
X-87161Y28404D01*
X-87094Y28312D01*
X-87025Y28223D01*
X-86952Y28136D01*
X-86876Y28052D01*
X-86797Y27971D01*
X-86716Y27892D01*
X-86632Y27816D01*
X-86545Y27743D01*
X-86455Y27674D01*
X-86364Y27607D01*
X-86363Y27607D02*
X-83704Y25746D01*
X-143813Y139919D02*
X-143813Y141866D01*
X-150305Y141866D01*
X-150305Y137971D01*
X-150304Y137971D02*
X-150302Y137872D01*
X-150296Y137772D01*
X-150287Y137673D01*
X-150274Y137575D01*
X-150257Y137477D01*
X-150236Y137379D01*
X-150211Y137283D01*
X-150183Y137188D01*
X-150151Y137094D01*
X-150116Y137001D01*
X-150077Y136909D01*
X-150034Y136819D01*
X-149989Y136731D01*
X-149939Y136644D01*
X-149887Y136560D01*
X-149831Y136477D01*
X-149773Y136397D01*
X-149711Y136319D01*
X-149646Y136244D01*
X-149578Y136171D01*
X-149508Y136101D01*
X-149435Y136033D01*
X-149360Y135968D01*
X-149282Y135906D01*
X-149202Y135848D01*
X-149119Y135792D01*
X-149035Y135740D01*
X-148948Y135690D01*
X-148860Y135645D01*
X-148770Y135602D01*
X-148678Y135563D01*
X-148585Y135528D01*
X-148491Y135496D01*
X-148396Y135468D01*
X-148300Y135443D01*
X-148202Y135422D01*
X-148104Y135405D01*
X-148006Y135392D01*
X-147907Y135383D01*
X-147807Y135377D01*
X-147708Y135375D01*
X-141217Y135375D01*
X-141118Y135377D01*
X-141018Y135383D01*
X-140919Y135392D01*
X-140821Y135405D01*
X-140723Y135423D01*
X-140625Y135443D01*
X-140529Y135468D01*
X-140433Y135496D01*
X-140339Y135528D01*
X-140246Y135563D01*
X-140155Y135602D01*
X-140065Y135645D01*
X-139976Y135690D01*
X-139890Y135740D01*
X-139805Y135792D01*
X-139723Y135848D01*
X-139643Y135907D01*
X-139565Y135968D01*
X-139489Y136033D01*
X-139416Y136101D01*
X-139346Y136171D01*
X-139278Y136244D01*
X-139213Y136320D01*
X-139152Y136398D01*
X-139093Y136478D01*
X-139037Y136560D01*
X-138985Y136645D01*
X-138936Y136731D01*
X-138890Y136820D01*
X-138847Y136910D01*
X-138808Y137001D01*
X-138773Y137094D01*
X-138741Y137188D01*
X-138713Y137284D01*
X-138688Y137380D01*
X-138668Y137478D01*
X-138650Y137576D01*
X-138637Y137674D01*
X-138628Y137773D01*
X-138622Y137872D01*
X-138620Y137972D01*
X-138621Y137971D02*
X-138621Y141866D01*
X-138621Y147567D02*
X-150305Y147567D01*
X-150305Y154058D02*
X-138621Y147567D01*
X-138621Y154058D02*
X-150305Y154058D01*
X-150305Y159759D02*
X-138621Y159759D01*
X-138621Y163004D01*
X-138620Y163004D02*
X-138622Y163117D01*
X-138628Y163230D01*
X-138638Y163343D01*
X-138652Y163456D01*
X-138669Y163568D01*
X-138691Y163679D01*
X-138716Y163789D01*
X-138746Y163899D01*
X-138779Y164007D01*
X-138816Y164114D01*
X-138856Y164220D01*
X-138901Y164324D01*
X-138949Y164427D01*
X-139000Y164528D01*
X-139055Y164627D01*
X-139113Y164724D01*
X-139175Y164819D01*
X-139240Y164912D01*
X-139308Y165002D01*
X-139379Y165090D01*
X-139454Y165176D01*
X-139531Y165259D01*
X-139611Y165339D01*
X-139694Y165416D01*
X-139780Y165491D01*
X-139868Y165562D01*
X-139958Y165630D01*
X-140051Y165695D01*
X-140146Y165757D01*
X-140243Y165815D01*
X-140342Y165870D01*
X-140443Y165921D01*
X-140546Y165969D01*
X-140650Y166014D01*
X-140756Y166054D01*
X-140863Y166091D01*
X-140971Y166124D01*
X-141081Y166154D01*
X-141191Y166179D01*
X-141302Y166201D01*
X-141414Y166218D01*
X-141527Y166232D01*
X-141640Y166242D01*
X-141753Y166248D01*
X-141866Y166250D01*
X-147059Y166250D01*
X-147059Y166251D02*
X-147172Y166249D01*
X-147285Y166243D01*
X-147398Y166233D01*
X-147511Y166219D01*
X-147623Y166202D01*
X-147734Y166180D01*
X-147844Y166155D01*
X-147954Y166125D01*
X-148062Y166092D01*
X-148169Y166055D01*
X-148275Y166015D01*
X-148379Y165970D01*
X-148482Y165922D01*
X-148583Y165871D01*
X-148682Y165816D01*
X-148779Y165758D01*
X-148874Y165696D01*
X-148967Y165631D01*
X-149057Y165563D01*
X-149145Y165492D01*
X-149231Y165417D01*
X-149314Y165340D01*
X-149394Y165260D01*
X-149471Y165177D01*
X-149546Y165091D01*
X-149617Y165003D01*
X-149685Y164913D01*
X-149750Y164820D01*
X-149812Y164725D01*
X-149870Y164628D01*
X-149925Y164529D01*
X-149976Y164428D01*
X-150024Y164325D01*
X-150069Y164221D01*
X-150109Y164115D01*
X-150146Y164008D01*
X-150179Y163900D01*
X-150209Y163790D01*
X-150234Y163680D01*
X-150256Y163569D01*
X-150273Y163457D01*
X-150287Y163344D01*
X-150297Y163231D01*
X-150303Y163118D01*
X-150305Y163005D01*
X-150305Y163004D02*
X-150305Y159759D01*
D11*
X108186Y200660D02*
X108186Y218440D01*
X103248Y218440D01*
X103108Y218438D01*
X102969Y218432D01*
X102829Y218422D01*
X102690Y218408D01*
X102551Y218391D01*
X102413Y218369D01*
X102276Y218343D01*
X102139Y218314D01*
X102003Y218281D01*
X101869Y218244D01*
X101735Y218203D01*
X101603Y218158D01*
X101471Y218109D01*
X101342Y218057D01*
X101214Y218002D01*
X101087Y217942D01*
X100962Y217879D01*
X100839Y217813D01*
X100718Y217743D01*
X100599Y217670D01*
X100482Y217593D01*
X100368Y217513D01*
X100255Y217430D01*
X100145Y217344D01*
X100038Y217254D01*
X99933Y217162D01*
X99831Y217067D01*
X99731Y216969D01*
X99634Y216868D01*
X99540Y216764D01*
X99450Y216658D01*
X99362Y216549D01*
X99277Y216438D01*
X99196Y216324D01*
X99117Y216209D01*
X99042Y216091D01*
X98971Y215971D01*
X98903Y215848D01*
X98838Y215725D01*
X98777Y215599D01*
X98719Y215471D01*
X98665Y215343D01*
X98615Y215212D01*
X98568Y215080D01*
X98525Y214947D01*
X98486Y214813D01*
X98451Y214678D01*
X98420Y214542D01*
X98392Y214404D01*
X98369Y214267D01*
X98349Y214128D01*
X98333Y213989D01*
X98321Y213850D01*
X98313Y213711D01*
X98309Y213571D01*
X98309Y213431D01*
X98313Y213291D01*
X98321Y213152D01*
X98333Y213013D01*
X98349Y212874D01*
X98369Y212735D01*
X98392Y212598D01*
X98420Y212460D01*
X98451Y212324D01*
X98486Y212189D01*
X98525Y212055D01*
X98568Y211922D01*
X98615Y211790D01*
X98665Y211659D01*
X98719Y211531D01*
X98777Y211403D01*
X98838Y211277D01*
X98903Y211154D01*
X98971Y211031D01*
X99042Y210911D01*
X99117Y210793D01*
X99196Y210678D01*
X99277Y210564D01*
X99362Y210453D01*
X99450Y210344D01*
X99540Y210238D01*
X99634Y210134D01*
X99731Y210033D01*
X99831Y209935D01*
X99933Y209840D01*
X100038Y209748D01*
X100145Y209658D01*
X100255Y209572D01*
X100368Y209489D01*
X100482Y209409D01*
X100599Y209332D01*
X100718Y209259D01*
X100839Y209189D01*
X100962Y209123D01*
X101087Y209060D01*
X101214Y209000D01*
X101342Y208945D01*
X101471Y208893D01*
X101603Y208844D01*
X101735Y208799D01*
X101869Y208758D01*
X102003Y208721D01*
X102139Y208688D01*
X102276Y208659D01*
X102413Y208633D01*
X102551Y208611D01*
X102690Y208594D01*
X102829Y208580D01*
X102969Y208570D01*
X103108Y208564D01*
X103248Y208562D01*
X108186Y208562D01*
X92191Y214489D02*
X87252Y218440D01*
X87252Y200660D01*
X82314Y200660D02*
X92191Y200660D01*
X109168Y107453D02*
X121740Y94880D01*
X109168Y107453D02*
X105676Y103960D01*
X105578Y103860D01*
X105484Y103757D01*
X105392Y103652D01*
X105303Y103544D01*
X105218Y103433D01*
X105136Y103320D01*
X105057Y103205D01*
X104981Y103087D01*
X104908Y102968D01*
X104839Y102846D01*
X104774Y102723D01*
X104712Y102597D01*
X104653Y102470D01*
X104598Y102342D01*
X104547Y102212D01*
X104500Y102080D01*
X104456Y101948D01*
X104416Y101814D01*
X104380Y101679D01*
X104347Y101543D01*
X104319Y101406D01*
X104294Y101268D01*
X104274Y101130D01*
X104257Y100991D01*
X104244Y100852D01*
X104235Y100713D01*
X104230Y100573D01*
X104229Y100433D01*
X104232Y100293D01*
X104239Y100154D01*
X104250Y100014D01*
X104265Y99875D01*
X104283Y99737D01*
X104306Y99599D01*
X104333Y99462D01*
X104363Y99325D01*
X104397Y99190D01*
X104435Y99055D01*
X104477Y98922D01*
X104523Y98790D01*
X104572Y98659D01*
X104625Y98530D01*
X104682Y98402D01*
X104742Y98276D01*
X104806Y98151D01*
X104873Y98029D01*
X104944Y97908D01*
X105018Y97790D01*
X105096Y97673D01*
X105176Y97559D01*
X105260Y97447D01*
X105347Y97338D01*
X105437Y97231D01*
X105531Y97127D01*
X105627Y97025D01*
X105725Y96927D01*
X105827Y96831D01*
X105931Y96737D01*
X106038Y96647D01*
X106147Y96560D01*
X106259Y96476D01*
X106373Y96396D01*
X106490Y96318D01*
X106608Y96244D01*
X106729Y96173D01*
X106851Y96106D01*
X106976Y96042D01*
X107102Y95982D01*
X107230Y95925D01*
X107359Y95872D01*
X107490Y95823D01*
X107622Y95777D01*
X107755Y95735D01*
X107890Y95697D01*
X108025Y95663D01*
X108162Y95633D01*
X108299Y95606D01*
X108437Y95583D01*
X108575Y95565D01*
X108714Y95550D01*
X108854Y95539D01*
X108993Y95532D01*
X109133Y95529D01*
X109273Y95530D01*
X109413Y95535D01*
X109552Y95544D01*
X109691Y95557D01*
X109830Y95574D01*
X109968Y95594D01*
X110106Y95619D01*
X110243Y95647D01*
X110379Y95680D01*
X110514Y95716D01*
X110648Y95756D01*
X110780Y95800D01*
X110912Y95847D01*
X111042Y95898D01*
X111170Y95953D01*
X111297Y96012D01*
X111423Y96074D01*
X111546Y96139D01*
X111668Y96208D01*
X111787Y96281D01*
X111905Y96357D01*
X112020Y96436D01*
X112133Y96518D01*
X112244Y96603D01*
X112352Y96692D01*
X112457Y96784D01*
X112560Y96878D01*
X112660Y96976D01*
X116153Y100468D01*
X94016Y92301D02*
X93924Y92207D01*
X93835Y92109D01*
X93749Y92010D01*
X93666Y91907D01*
X93586Y91803D01*
X93509Y91696D01*
X93436Y91586D01*
X93366Y91475D01*
X93299Y91361D01*
X93235Y91246D01*
X93175Y91129D01*
X93118Y91010D01*
X93065Y90889D01*
X93016Y90767D01*
X92970Y90644D01*
X92928Y90519D01*
X92889Y90393D01*
X92854Y90266D01*
X92823Y90138D01*
X92796Y90009D01*
X92773Y89879D01*
X92753Y89749D01*
X92738Y89618D01*
X92726Y89487D01*
X92718Y89356D01*
X92714Y89224D01*
X92714Y89092D01*
X92718Y88960D01*
X92726Y88829D01*
X92738Y88698D01*
X92753Y88567D01*
X92773Y88437D01*
X92796Y88307D01*
X92823Y88178D01*
X92854Y88050D01*
X92889Y87923D01*
X92928Y87797D01*
X92970Y87672D01*
X93016Y87549D01*
X93065Y87427D01*
X93118Y87306D01*
X93175Y87187D01*
X93235Y87070D01*
X93299Y86955D01*
X93366Y86841D01*
X93436Y86730D01*
X93509Y86620D01*
X93586Y86513D01*
X93666Y86409D01*
X93749Y86306D01*
X93835Y86207D01*
X93924Y86109D01*
X94016Y86015D01*
X94016Y92301D02*
X94123Y92406D01*
X94233Y92507D01*
X94345Y92606D01*
X94460Y92702D01*
X94578Y92794D01*
X94698Y92884D01*
X94820Y92970D01*
X94944Y93053D01*
X95071Y93133D01*
X95200Y93209D01*
X95330Y93283D01*
X95462Y93352D01*
X95597Y93418D01*
X95733Y93481D01*
X95870Y93540D01*
X96009Y93595D01*
X96149Y93647D01*
X96291Y93695D01*
X96434Y93739D01*
X96578Y93780D01*
X96723Y93817D01*
X96869Y93850D01*
X97016Y93879D01*
X97163Y93904D01*
X97311Y93926D01*
X97460Y93943D01*
X97609Y93957D01*
X97758Y93966D01*
X97908Y93972D01*
X98057Y93974D01*
X98207Y93972D01*
X98357Y93966D01*
X98506Y93956D01*
X98655Y93942D01*
X98803Y93925D01*
X98952Y93903D01*
X99099Y93878D01*
X99246Y93848D01*
X99392Y93815D01*
X99537Y93778D01*
X99681Y93737D01*
X99823Y93693D01*
X99965Y93645D01*
X100105Y93593D01*
X100244Y93537D01*
X100382Y93478D01*
X100518Y93415D01*
X100652Y93349D01*
X97508Y84618D02*
X97375Y84617D01*
X97242Y84619D01*
X97109Y84625D01*
X96976Y84635D01*
X96843Y84649D01*
X96711Y84666D01*
X96579Y84687D01*
X96448Y84711D01*
X96318Y84739D01*
X96188Y84771D01*
X96060Y84807D01*
X95932Y84846D01*
X95806Y84888D01*
X95681Y84934D01*
X95557Y84984D01*
X95435Y85037D01*
X95314Y85093D01*
X95195Y85153D01*
X95077Y85216D01*
X94962Y85282D01*
X94848Y85351D01*
X94736Y85424D01*
X94626Y85500D01*
X94519Y85578D01*
X94414Y85660D01*
X94311Y85745D01*
X94210Y85832D01*
X94112Y85922D01*
X94016Y86015D01*
X97509Y84618D02*
X110430Y83570D01*
X103446Y76586D01*
X89810Y72728D02*
X85619Y76919D01*
X89810Y72728D02*
X90508Y67140D01*
X89810Y72728D02*
X95397Y72029D01*
X89810Y72728D02*
X84571Y70283D01*
X89810Y72728D02*
X92254Y77966D01*
X12936Y37465D02*
X12936Y19685D01*
X12936Y37465D02*
X7998Y37465D01*
X7858Y37463D01*
X7719Y37457D01*
X7579Y37447D01*
X7440Y37433D01*
X7301Y37416D01*
X7163Y37394D01*
X7026Y37368D01*
X6889Y37339D01*
X6753Y37306D01*
X6619Y37269D01*
X6485Y37228D01*
X6353Y37183D01*
X6221Y37134D01*
X6092Y37082D01*
X5964Y37027D01*
X5837Y36967D01*
X5712Y36904D01*
X5589Y36838D01*
X5468Y36768D01*
X5349Y36695D01*
X5232Y36618D01*
X5118Y36538D01*
X5005Y36455D01*
X4895Y36369D01*
X4788Y36279D01*
X4683Y36187D01*
X4581Y36092D01*
X4481Y35994D01*
X4384Y35893D01*
X4290Y35789D01*
X4200Y35683D01*
X4112Y35574D01*
X4027Y35463D01*
X3946Y35349D01*
X3867Y35234D01*
X3792Y35116D01*
X3721Y34995D01*
X3653Y34873D01*
X3588Y34750D01*
X3527Y34624D01*
X3469Y34496D01*
X3415Y34368D01*
X3365Y34237D01*
X3318Y34105D01*
X3275Y33972D01*
X3236Y33838D01*
X3201Y33703D01*
X3170Y33567D01*
X3142Y33429D01*
X3119Y33292D01*
X3099Y33153D01*
X3083Y33014D01*
X3071Y32875D01*
X3063Y32736D01*
X3059Y32596D01*
X3059Y32456D01*
X3063Y32316D01*
X3071Y32177D01*
X3083Y32038D01*
X3099Y31899D01*
X3119Y31760D01*
X3142Y31623D01*
X3170Y31485D01*
X3201Y31349D01*
X3236Y31214D01*
X3275Y31080D01*
X3318Y30947D01*
X3365Y30815D01*
X3415Y30684D01*
X3469Y30556D01*
X3527Y30428D01*
X3588Y30302D01*
X3653Y30179D01*
X3721Y30056D01*
X3792Y29936D01*
X3867Y29818D01*
X3946Y29703D01*
X4027Y29589D01*
X4112Y29478D01*
X4200Y29369D01*
X4290Y29263D01*
X4384Y29159D01*
X4481Y29058D01*
X4581Y28960D01*
X4683Y28865D01*
X4788Y28773D01*
X4895Y28683D01*
X5005Y28597D01*
X5118Y28514D01*
X5232Y28434D01*
X5349Y28357D01*
X5468Y28284D01*
X5589Y28214D01*
X5712Y28148D01*
X5837Y28085D01*
X5964Y28025D01*
X6092Y27970D01*
X6221Y27918D01*
X6353Y27869D01*
X6485Y27824D01*
X6619Y27783D01*
X6753Y27746D01*
X6889Y27713D01*
X7026Y27684D01*
X7163Y27658D01*
X7301Y27636D01*
X7440Y27619D01*
X7579Y27605D01*
X7719Y27595D01*
X7858Y27589D01*
X7998Y27587D01*
X12936Y27587D01*
X-3059Y19685D02*
X-7998Y19685D01*
X-8138Y19687D01*
X-8277Y19693D01*
X-8417Y19703D01*
X-8556Y19717D01*
X-8695Y19734D01*
X-8833Y19756D01*
X-8970Y19782D01*
X-9107Y19811D01*
X-9243Y19844D01*
X-9377Y19881D01*
X-9511Y19922D01*
X-9643Y19967D01*
X-9775Y20016D01*
X-9904Y20068D01*
X-10032Y20123D01*
X-10159Y20183D01*
X-10284Y20246D01*
X-10407Y20312D01*
X-10528Y20382D01*
X-10647Y20455D01*
X-10764Y20532D01*
X-10878Y20612D01*
X-10991Y20695D01*
X-11101Y20781D01*
X-11208Y20871D01*
X-11313Y20963D01*
X-11415Y21058D01*
X-11515Y21156D01*
X-11612Y21257D01*
X-11706Y21361D01*
X-11796Y21467D01*
X-11884Y21576D01*
X-11969Y21687D01*
X-12050Y21801D01*
X-12129Y21916D01*
X-12204Y22034D01*
X-12275Y22154D01*
X-12343Y22277D01*
X-12408Y22400D01*
X-12469Y22526D01*
X-12527Y22654D01*
X-12581Y22782D01*
X-12631Y22913D01*
X-12678Y23045D01*
X-12721Y23178D01*
X-12760Y23312D01*
X-12795Y23447D01*
X-12826Y23583D01*
X-12854Y23721D01*
X-12877Y23858D01*
X-12897Y23997D01*
X-12913Y24136D01*
X-12925Y24275D01*
X-12933Y24414D01*
X-12937Y24554D01*
X-12937Y24694D01*
X-12933Y24834D01*
X-12925Y24973D01*
X-12913Y25112D01*
X-12897Y25251D01*
X-12877Y25390D01*
X-12854Y25527D01*
X-12826Y25665D01*
X-12795Y25801D01*
X-12760Y25936D01*
X-12721Y26070D01*
X-12678Y26203D01*
X-12631Y26335D01*
X-12581Y26466D01*
X-12527Y26594D01*
X-12469Y26722D01*
X-12408Y26848D01*
X-12343Y26971D01*
X-12275Y27093D01*
X-12204Y27214D01*
X-12129Y27332D01*
X-12050Y27447D01*
X-11969Y27561D01*
X-11884Y27672D01*
X-11796Y27781D01*
X-11706Y27887D01*
X-11612Y27991D01*
X-11515Y28092D01*
X-11415Y28190D01*
X-11313Y28285D01*
X-11208Y28377D01*
X-11101Y28467D01*
X-10991Y28553D01*
X-10878Y28636D01*
X-10764Y28716D01*
X-10647Y28793D01*
X-10528Y28866D01*
X-10407Y28936D01*
X-10284Y29002D01*
X-10159Y29065D01*
X-10032Y29125D01*
X-9904Y29180D01*
X-9775Y29232D01*
X-9643Y29281D01*
X-9511Y29326D01*
X-9377Y29367D01*
X-9243Y29404D01*
X-9107Y29437D01*
X-8970Y29466D01*
X-8833Y29492D01*
X-8695Y29514D01*
X-8556Y29531D01*
X-8417Y29545D01*
X-8277Y29555D01*
X-8138Y29561D01*
X-7998Y29563D01*
X-8985Y37465D02*
X-3059Y37465D01*
X-8985Y37465D02*
X-9109Y37463D01*
X-9233Y37457D01*
X-9357Y37447D01*
X-9480Y37434D01*
X-9603Y37416D01*
X-9725Y37395D01*
X-9847Y37370D01*
X-9968Y37341D01*
X-10087Y37308D01*
X-10206Y37272D01*
X-10323Y37231D01*
X-10439Y37188D01*
X-10554Y37140D01*
X-10667Y37089D01*
X-10779Y37034D01*
X-10888Y36976D01*
X-10996Y36915D01*
X-11102Y36850D01*
X-11206Y36782D01*
X-11307Y36710D01*
X-11407Y36636D01*
X-11503Y36558D01*
X-11598Y36478D01*
X-11690Y36394D01*
X-11779Y36308D01*
X-11865Y36219D01*
X-11949Y36127D01*
X-12029Y36032D01*
X-12107Y35936D01*
X-12181Y35836D01*
X-12253Y35735D01*
X-12321Y35631D01*
X-12386Y35525D01*
X-12447Y35417D01*
X-12505Y35308D01*
X-12560Y35196D01*
X-12611Y35083D01*
X-12659Y34968D01*
X-12702Y34852D01*
X-12743Y34735D01*
X-12779Y34616D01*
X-12812Y34497D01*
X-12841Y34376D01*
X-12866Y34254D01*
X-12887Y34132D01*
X-12905Y34009D01*
X-12918Y33886D01*
X-12928Y33762D01*
X-12934Y33638D01*
X-12936Y33514D01*
X-12934Y33390D01*
X-12928Y33266D01*
X-12918Y33142D01*
X-12905Y33019D01*
X-12887Y32896D01*
X-12866Y32774D01*
X-12841Y32652D01*
X-12812Y32531D01*
X-12779Y32412D01*
X-12743Y32293D01*
X-12702Y32176D01*
X-12659Y32060D01*
X-12611Y31945D01*
X-12560Y31832D01*
X-12505Y31720D01*
X-12447Y31611D01*
X-12386Y31503D01*
X-12321Y31397D01*
X-12253Y31293D01*
X-12181Y31192D01*
X-12107Y31092D01*
X-12029Y30996D01*
X-11949Y30901D01*
X-11865Y30809D01*
X-11779Y30720D01*
X-11690Y30634D01*
X-11598Y30550D01*
X-11503Y30470D01*
X-11407Y30392D01*
X-11307Y30318D01*
X-11206Y30246D01*
X-11102Y30178D01*
X-10996Y30113D01*
X-10888Y30052D01*
X-10779Y29994D01*
X-10667Y29939D01*
X-10554Y29888D01*
X-10439Y29840D01*
X-10323Y29797D01*
X-10206Y29756D01*
X-10087Y29720D01*
X-9968Y29687D01*
X-9847Y29658D01*
X-9725Y29633D01*
X-9603Y29612D01*
X-9480Y29594D01*
X-9357Y29581D01*
X-9233Y29571D01*
X-9109Y29565D01*
X-8985Y29563D01*
X-5034Y29563D01*
X-95691Y90801D02*
X-108264Y78229D01*
X-95691Y90801D02*
X-99184Y94294D01*
X-99184Y94293D02*
X-99284Y94391D01*
X-99387Y94485D01*
X-99492Y94577D01*
X-99600Y94666D01*
X-99711Y94751D01*
X-99824Y94833D01*
X-99939Y94912D01*
X-100057Y94988D01*
X-100176Y95061D01*
X-100298Y95130D01*
X-100421Y95195D01*
X-100547Y95257D01*
X-100674Y95316D01*
X-100802Y95371D01*
X-100932Y95422D01*
X-101064Y95469D01*
X-101196Y95513D01*
X-101330Y95553D01*
X-101465Y95589D01*
X-101601Y95622D01*
X-101738Y95650D01*
X-101876Y95675D01*
X-102014Y95695D01*
X-102153Y95712D01*
X-102292Y95725D01*
X-102431Y95734D01*
X-102571Y95739D01*
X-102711Y95740D01*
X-102851Y95737D01*
X-102990Y95730D01*
X-103130Y95719D01*
X-103269Y95704D01*
X-103407Y95686D01*
X-103545Y95663D01*
X-103682Y95636D01*
X-103819Y95606D01*
X-103954Y95572D01*
X-104089Y95534D01*
X-104222Y95492D01*
X-104354Y95446D01*
X-104485Y95397D01*
X-104614Y95344D01*
X-104742Y95287D01*
X-104868Y95227D01*
X-104993Y95163D01*
X-105115Y95096D01*
X-105236Y95025D01*
X-105354Y94951D01*
X-105471Y94873D01*
X-105585Y94793D01*
X-105697Y94709D01*
X-105806Y94622D01*
X-105913Y94532D01*
X-106017Y94438D01*
X-106119Y94342D01*
X-106217Y94244D01*
X-106313Y94142D01*
X-106407Y94038D01*
X-106497Y93931D01*
X-106584Y93822D01*
X-106668Y93710D01*
X-106748Y93596D01*
X-106826Y93479D01*
X-106900Y93361D01*
X-106971Y93240D01*
X-107038Y93118D01*
X-107102Y92993D01*
X-107162Y92867D01*
X-107219Y92739D01*
X-107272Y92610D01*
X-107321Y92479D01*
X-107367Y92347D01*
X-107409Y92214D01*
X-107447Y92079D01*
X-107481Y91944D01*
X-107511Y91807D01*
X-107538Y91670D01*
X-107561Y91532D01*
X-107579Y91394D01*
X-107594Y91255D01*
X-107605Y91115D01*
X-107612Y90976D01*
X-107615Y90836D01*
X-107614Y90696D01*
X-107609Y90556D01*
X-107600Y90417D01*
X-107587Y90278D01*
X-107570Y90139D01*
X-107550Y90001D01*
X-107525Y89863D01*
X-107497Y89726D01*
X-107464Y89590D01*
X-107428Y89455D01*
X-107388Y89321D01*
X-107344Y89189D01*
X-107297Y89057D01*
X-107246Y88927D01*
X-107191Y88799D01*
X-107132Y88672D01*
X-107070Y88546D01*
X-107005Y88423D01*
X-106936Y88301D01*
X-106863Y88182D01*
X-106787Y88064D01*
X-106708Y87949D01*
X-106626Y87836D01*
X-106541Y87725D01*
X-106452Y87617D01*
X-106360Y87512D01*
X-106266Y87409D01*
X-106168Y87309D01*
X-102676Y83817D01*
X-116780Y92333D02*
X-109796Y104905D01*
X-116780Y92333D02*
X-123765Y99318D01*
X-118876Y100016D02*
X-124463Y94428D01*
X-85489Y199073D02*
X-85489Y216853D01*
X-90428Y216853D01*
X-90568Y216851D01*
X-90707Y216845D01*
X-90847Y216835D01*
X-90986Y216821D01*
X-91125Y216804D01*
X-91263Y216782D01*
X-91400Y216756D01*
X-91537Y216727D01*
X-91673Y216694D01*
X-91807Y216657D01*
X-91941Y216616D01*
X-92073Y216571D01*
X-92205Y216522D01*
X-92334Y216470D01*
X-92462Y216415D01*
X-92589Y216355D01*
X-92714Y216292D01*
X-92837Y216226D01*
X-92958Y216156D01*
X-93077Y216083D01*
X-93194Y216006D01*
X-93308Y215926D01*
X-93421Y215843D01*
X-93531Y215757D01*
X-93638Y215667D01*
X-93743Y215575D01*
X-93845Y215480D01*
X-93945Y215382D01*
X-94042Y215281D01*
X-94136Y215177D01*
X-94226Y215071D01*
X-94314Y214962D01*
X-94399Y214851D01*
X-94480Y214737D01*
X-94559Y214622D01*
X-94634Y214504D01*
X-94705Y214384D01*
X-94773Y214261D01*
X-94838Y214138D01*
X-94899Y214012D01*
X-94957Y213884D01*
X-95011Y213756D01*
X-95061Y213625D01*
X-95108Y213493D01*
X-95151Y213360D01*
X-95190Y213226D01*
X-95225Y213091D01*
X-95256Y212955D01*
X-95284Y212817D01*
X-95307Y212680D01*
X-95327Y212541D01*
X-95343Y212402D01*
X-95355Y212263D01*
X-95363Y212124D01*
X-95367Y211984D01*
X-95367Y211844D01*
X-95363Y211704D01*
X-95355Y211565D01*
X-95343Y211426D01*
X-95327Y211287D01*
X-95307Y211148D01*
X-95284Y211011D01*
X-95256Y210873D01*
X-95225Y210737D01*
X-95190Y210602D01*
X-95151Y210468D01*
X-95108Y210335D01*
X-95061Y210203D01*
X-95011Y210072D01*
X-94957Y209944D01*
X-94899Y209816D01*
X-94838Y209690D01*
X-94773Y209567D01*
X-94705Y209444D01*
X-94634Y209324D01*
X-94559Y209206D01*
X-94480Y209091D01*
X-94399Y208977D01*
X-94314Y208866D01*
X-94226Y208757D01*
X-94136Y208651D01*
X-94042Y208547D01*
X-93945Y208446D01*
X-93845Y208348D01*
X-93743Y208253D01*
X-93638Y208161D01*
X-93531Y208071D01*
X-93421Y207985D01*
X-93308Y207902D01*
X-93194Y207822D01*
X-93077Y207745D01*
X-92958Y207672D01*
X-92837Y207602D01*
X-92714Y207536D01*
X-92589Y207473D01*
X-92462Y207413D01*
X-92334Y207358D01*
X-92205Y207306D01*
X-92073Y207257D01*
X-91941Y207212D01*
X-91807Y207171D01*
X-91673Y207134D01*
X-91537Y207101D01*
X-91400Y207072D01*
X-91263Y207046D01*
X-91125Y207024D01*
X-90986Y207007D01*
X-90847Y206993D01*
X-90707Y206983D01*
X-90568Y206977D01*
X-90428Y206975D01*
X-85489Y206975D01*
X-101484Y199073D02*
X-107410Y199073D01*
X-107534Y199075D01*
X-107658Y199081D01*
X-107782Y199091D01*
X-107905Y199104D01*
X-108028Y199122D01*
X-108150Y199143D01*
X-108272Y199168D01*
X-108393Y199197D01*
X-108512Y199230D01*
X-108631Y199266D01*
X-108748Y199307D01*
X-108864Y199350D01*
X-108979Y199398D01*
X-109092Y199449D01*
X-109204Y199504D01*
X-109313Y199562D01*
X-109421Y199623D01*
X-109527Y199688D01*
X-109631Y199756D01*
X-109732Y199828D01*
X-109832Y199902D01*
X-109928Y199980D01*
X-110023Y200060D01*
X-110115Y200144D01*
X-110204Y200230D01*
X-110290Y200319D01*
X-110374Y200411D01*
X-110454Y200506D01*
X-110532Y200602D01*
X-110606Y200702D01*
X-110678Y200803D01*
X-110746Y200907D01*
X-110811Y201013D01*
X-110872Y201121D01*
X-110930Y201230D01*
X-110985Y201342D01*
X-111036Y201455D01*
X-111084Y201570D01*
X-111127Y201686D01*
X-111168Y201803D01*
X-111204Y201922D01*
X-111237Y202041D01*
X-111266Y202162D01*
X-111291Y202284D01*
X-111312Y202406D01*
X-111330Y202529D01*
X-111343Y202652D01*
X-111353Y202776D01*
X-111359Y202900D01*
X-111361Y203024D01*
X-111361Y204999D01*
X-111359Y205123D01*
X-111353Y205247D01*
X-111343Y205371D01*
X-111330Y205494D01*
X-111312Y205617D01*
X-111291Y205739D01*
X-111266Y205861D01*
X-111237Y205982D01*
X-111204Y206101D01*
X-111168Y206220D01*
X-111127Y206337D01*
X-111084Y206453D01*
X-111036Y206568D01*
X-110985Y206681D01*
X-110930Y206793D01*
X-110872Y206902D01*
X-110811Y207010D01*
X-110746Y207116D01*
X-110678Y207220D01*
X-110606Y207321D01*
X-110532Y207421D01*
X-110454Y207517D01*
X-110374Y207612D01*
X-110290Y207704D01*
X-110204Y207793D01*
X-110115Y207879D01*
X-110023Y207963D01*
X-109928Y208043D01*
X-109832Y208121D01*
X-109732Y208195D01*
X-109631Y208267D01*
X-109527Y208335D01*
X-109421Y208400D01*
X-109313Y208461D01*
X-109204Y208519D01*
X-109092Y208574D01*
X-108979Y208625D01*
X-108864Y208673D01*
X-108748Y208716D01*
X-108631Y208757D01*
X-108512Y208793D01*
X-108393Y208826D01*
X-108272Y208855D01*
X-108150Y208880D01*
X-108028Y208901D01*
X-107905Y208919D01*
X-107782Y208932D01*
X-107658Y208942D01*
X-107534Y208948D01*
X-107410Y208950D01*
X-101484Y208950D01*
X-101484Y216853D01*
X-111361Y216853D01*
X6098Y276860D02*
X6098Y294640D01*
X6098Y286738D02*
X-3779Y286738D01*
X-3779Y294640D02*
X-3779Y276860D01*
X-21088Y290195D02*
X-21086Y290327D01*
X-21080Y290458D01*
X-21070Y290590D01*
X-21057Y290721D01*
X-21039Y290851D01*
X-21018Y290981D01*
X-20993Y291111D01*
X-20964Y291239D01*
X-20931Y291367D01*
X-20894Y291493D01*
X-20854Y291619D01*
X-20810Y291743D01*
X-20762Y291866D01*
X-20711Y291987D01*
X-20656Y292107D01*
X-20598Y292225D01*
X-20536Y292341D01*
X-20470Y292455D01*
X-20402Y292568D01*
X-20330Y292678D01*
X-20255Y292786D01*
X-20176Y292892D01*
X-20095Y292996D01*
X-20010Y293097D01*
X-19923Y293195D01*
X-19832Y293291D01*
X-19739Y293384D01*
X-19643Y293475D01*
X-19545Y293562D01*
X-19444Y293647D01*
X-19340Y293728D01*
X-19234Y293807D01*
X-19126Y293882D01*
X-19016Y293954D01*
X-18903Y294022D01*
X-18789Y294088D01*
X-18673Y294150D01*
X-18555Y294208D01*
X-18435Y294263D01*
X-18314Y294314D01*
X-18191Y294362D01*
X-18067Y294406D01*
X-17941Y294446D01*
X-17815Y294483D01*
X-17687Y294516D01*
X-17559Y294545D01*
X-17429Y294570D01*
X-17299Y294591D01*
X-17169Y294609D01*
X-17038Y294622D01*
X-16906Y294632D01*
X-16775Y294638D01*
X-16643Y294640D01*
X-16493Y294638D01*
X-16344Y294632D01*
X-16195Y294622D01*
X-16046Y294609D01*
X-15897Y294591D01*
X-15749Y294570D01*
X-15601Y294544D01*
X-15455Y294515D01*
X-15309Y294482D01*
X-15164Y294445D01*
X-15020Y294404D01*
X-14877Y294360D01*
X-14735Y294312D01*
X-14595Y294260D01*
X-14456Y294205D01*
X-14318Y294146D01*
X-14183Y294083D01*
X-14048Y294017D01*
X-13916Y293947D01*
X-13786Y293874D01*
X-13657Y293797D01*
X-13530Y293717D01*
X-13406Y293634D01*
X-13284Y293548D01*
X-13164Y293458D01*
X-13047Y293365D01*
X-12932Y293270D01*
X-12819Y293171D01*
X-12709Y293069D01*
X-12602Y292965D01*
X-12498Y292858D01*
X-12396Y292748D01*
X-12298Y292635D01*
X-12202Y292520D01*
X-12110Y292402D01*
X-12020Y292282D01*
X-11934Y292160D01*
X-11851Y292036D01*
X-11771Y291909D01*
X-11695Y291781D01*
X-11622Y291650D01*
X-11552Y291517D01*
X-11486Y291383D01*
X-11424Y291247D01*
X-11365Y291110D01*
X-11309Y290971D01*
X-11258Y290830D01*
X-11210Y290689D01*
X-19606Y286738D02*
X-19702Y286831D01*
X-19794Y286927D01*
X-19884Y287026D01*
X-19971Y287127D01*
X-20056Y287230D01*
X-20137Y287335D01*
X-20215Y287443D01*
X-20290Y287553D01*
X-20363Y287665D01*
X-20432Y287779D01*
X-20498Y287895D01*
X-20560Y288013D01*
X-20619Y288132D01*
X-20675Y288253D01*
X-20728Y288376D01*
X-20777Y288500D01*
X-20822Y288625D01*
X-20865Y288752D01*
X-20903Y288879D01*
X-20938Y289008D01*
X-20969Y289137D01*
X-20997Y289268D01*
X-21021Y289399D01*
X-21042Y289531D01*
X-21058Y289663D01*
X-21071Y289796D01*
X-21081Y289929D01*
X-21086Y290062D01*
X-21088Y290195D01*
X-19607Y286738D02*
X-11210Y276860D01*
X-21088Y276860D01*
X-27961Y286738D02*
X-33888Y286738D01*
X-34012Y286736D01*
X-34136Y286730D01*
X-34260Y286720D01*
X-34383Y286707D01*
X-34506Y286689D01*
X-34628Y286668D01*
X-34750Y286643D01*
X-34871Y286614D01*
X-34990Y286581D01*
X-35109Y286545D01*
X-35226Y286504D01*
X-35342Y286461D01*
X-35457Y286413D01*
X-35570Y286362D01*
X-35682Y286307D01*
X-35791Y286249D01*
X-35899Y286188D01*
X-36005Y286123D01*
X-36109Y286055D01*
X-36210Y285983D01*
X-36310Y285909D01*
X-36406Y285831D01*
X-36501Y285751D01*
X-36593Y285667D01*
X-36682Y285581D01*
X-36768Y285492D01*
X-36852Y285400D01*
X-36932Y285305D01*
X-37010Y285209D01*
X-37084Y285109D01*
X-37156Y285008D01*
X-37224Y284904D01*
X-37289Y284798D01*
X-37350Y284690D01*
X-37408Y284581D01*
X-37463Y284469D01*
X-37514Y284356D01*
X-37562Y284241D01*
X-37605Y284125D01*
X-37646Y284008D01*
X-37682Y283889D01*
X-37715Y283770D01*
X-37744Y283649D01*
X-37769Y283527D01*
X-37790Y283405D01*
X-37808Y283282D01*
X-37821Y283159D01*
X-37831Y283035D01*
X-37837Y282911D01*
X-37839Y282787D01*
X-37839Y281799D01*
X-37837Y281659D01*
X-37831Y281520D01*
X-37821Y281380D01*
X-37807Y281241D01*
X-37790Y281102D01*
X-37768Y280964D01*
X-37742Y280827D01*
X-37713Y280690D01*
X-37680Y280554D01*
X-37643Y280420D01*
X-37602Y280286D01*
X-37557Y280154D01*
X-37508Y280022D01*
X-37456Y279893D01*
X-37401Y279765D01*
X-37341Y279638D01*
X-37278Y279513D01*
X-37212Y279390D01*
X-37142Y279269D01*
X-37069Y279150D01*
X-36992Y279033D01*
X-36912Y278919D01*
X-36829Y278806D01*
X-36743Y278696D01*
X-36653Y278589D01*
X-36561Y278484D01*
X-36466Y278382D01*
X-36368Y278282D01*
X-36267Y278185D01*
X-36163Y278091D01*
X-36057Y278001D01*
X-35948Y277913D01*
X-35837Y277828D01*
X-35723Y277747D01*
X-35608Y277668D01*
X-35490Y277593D01*
X-35369Y277522D01*
X-35247Y277454D01*
X-35124Y277389D01*
X-34998Y277328D01*
X-34870Y277270D01*
X-34742Y277216D01*
X-34611Y277166D01*
X-34479Y277119D01*
X-34346Y277076D01*
X-34212Y277037D01*
X-34077Y277002D01*
X-33941Y276971D01*
X-33803Y276943D01*
X-33666Y276920D01*
X-33527Y276900D01*
X-33388Y276884D01*
X-33249Y276872D01*
X-33110Y276864D01*
X-32970Y276860D01*
X-32830Y276860D01*
X-32690Y276864D01*
X-32551Y276872D01*
X-32412Y276884D01*
X-32273Y276900D01*
X-32134Y276920D01*
X-31997Y276943D01*
X-31859Y276971D01*
X-31723Y277002D01*
X-31588Y277037D01*
X-31454Y277076D01*
X-31321Y277119D01*
X-31189Y277166D01*
X-31058Y277216D01*
X-30930Y277270D01*
X-30802Y277328D01*
X-30676Y277389D01*
X-30553Y277454D01*
X-30430Y277522D01*
X-30310Y277593D01*
X-30192Y277668D01*
X-30077Y277747D01*
X-29963Y277828D01*
X-29852Y277913D01*
X-29743Y278001D01*
X-29637Y278091D01*
X-29533Y278185D01*
X-29432Y278282D01*
X-29334Y278382D01*
X-29239Y278484D01*
X-29147Y278589D01*
X-29057Y278696D01*
X-28971Y278806D01*
X-28888Y278919D01*
X-28808Y279033D01*
X-28731Y279150D01*
X-28658Y279269D01*
X-28588Y279390D01*
X-28522Y279513D01*
X-28459Y279638D01*
X-28399Y279765D01*
X-28344Y279893D01*
X-28292Y280022D01*
X-28243Y280154D01*
X-28198Y280286D01*
X-28157Y280420D01*
X-28120Y280554D01*
X-28087Y280690D01*
X-28058Y280827D01*
X-28032Y280964D01*
X-28010Y281102D01*
X-27993Y281241D01*
X-27979Y281380D01*
X-27969Y281520D01*
X-27963Y281659D01*
X-27961Y281799D01*
X-27961Y286738D01*
X-27963Y286932D01*
X-27971Y287126D01*
X-27982Y287319D01*
X-27999Y287513D01*
X-28020Y287705D01*
X-28047Y287897D01*
X-28077Y288089D01*
X-28113Y288280D01*
X-28153Y288469D01*
X-28198Y288658D01*
X-28247Y288846D01*
X-28301Y289032D01*
X-28360Y289217D01*
X-28423Y289400D01*
X-28490Y289582D01*
X-28563Y289762D01*
X-28639Y289940D01*
X-28720Y290117D01*
X-28805Y290291D01*
X-28894Y290463D01*
X-28988Y290633D01*
X-29085Y290800D01*
X-29187Y290966D01*
X-29293Y291128D01*
X-29402Y291288D01*
X-29516Y291445D01*
X-29633Y291600D01*
X-29755Y291751D01*
X-29880Y291899D01*
X-30008Y292045D01*
X-30140Y292187D01*
X-30275Y292326D01*
X-30414Y292461D01*
X-30556Y292593D01*
X-30702Y292721D01*
X-30850Y292846D01*
X-31001Y292968D01*
X-31156Y293085D01*
X-31313Y293199D01*
X-31473Y293308D01*
X-31635Y293414D01*
X-31801Y293516D01*
X-31968Y293613D01*
X-32138Y293707D01*
X-32310Y293796D01*
X-32484Y293881D01*
X-32661Y293962D01*
X-32839Y294038D01*
X-33019Y294111D01*
X-33201Y294178D01*
X-33384Y294241D01*
X-33569Y294300D01*
X-33755Y294354D01*
X-33943Y294403D01*
X-34132Y294448D01*
X-34321Y294488D01*
X-34512Y294524D01*
X-34704Y294554D01*
X-34896Y294581D01*
X-35088Y294602D01*
X-35282Y294619D01*
X-35475Y294630D01*
X-35669Y294638D01*
X-35863Y294640D01*
X-45355Y294640D02*
X-45355Y276860D01*
X-45355Y294640D02*
X-50294Y294640D01*
X-50434Y294638D01*
X-50573Y294632D01*
X-50713Y294622D01*
X-50852Y294608D01*
X-50991Y294591D01*
X-51129Y294569D01*
X-51266Y294543D01*
X-51403Y294514D01*
X-51539Y294481D01*
X-51673Y294444D01*
X-51807Y294403D01*
X-51939Y294358D01*
X-52071Y294309D01*
X-52200Y294257D01*
X-52328Y294202D01*
X-52455Y294142D01*
X-52580Y294079D01*
X-52703Y294013D01*
X-52824Y293943D01*
X-52943Y293870D01*
X-53060Y293793D01*
X-53174Y293713D01*
X-53287Y293630D01*
X-53397Y293544D01*
X-53504Y293454D01*
X-53609Y293362D01*
X-53711Y293267D01*
X-53811Y293169D01*
X-53908Y293068D01*
X-54002Y292964D01*
X-54092Y292858D01*
X-54180Y292749D01*
X-54265Y292638D01*
X-54346Y292524D01*
X-54425Y292409D01*
X-54500Y292291D01*
X-54571Y292171D01*
X-54639Y292048D01*
X-54704Y291925D01*
X-54765Y291799D01*
X-54823Y291671D01*
X-54877Y291543D01*
X-54927Y291412D01*
X-54974Y291280D01*
X-55017Y291147D01*
X-55056Y291013D01*
X-55091Y290878D01*
X-55122Y290742D01*
X-55150Y290604D01*
X-55173Y290467D01*
X-55193Y290328D01*
X-55209Y290189D01*
X-55221Y290050D01*
X-55229Y289911D01*
X-55233Y289771D01*
X-55233Y289631D01*
X-55229Y289491D01*
X-55221Y289352D01*
X-55209Y289213D01*
X-55193Y289074D01*
X-55173Y288935D01*
X-55150Y288798D01*
X-55122Y288660D01*
X-55091Y288524D01*
X-55056Y288389D01*
X-55017Y288255D01*
X-54974Y288122D01*
X-54927Y287990D01*
X-54877Y287859D01*
X-54823Y287731D01*
X-54765Y287603D01*
X-54704Y287477D01*
X-54639Y287354D01*
X-54571Y287232D01*
X-54500Y287111D01*
X-54425Y286993D01*
X-54346Y286878D01*
X-54265Y286764D01*
X-54180Y286653D01*
X-54092Y286544D01*
X-54002Y286438D01*
X-53908Y286334D01*
X-53811Y286233D01*
X-53711Y286135D01*
X-53609Y286040D01*
X-53504Y285948D01*
X-53397Y285858D01*
X-53287Y285772D01*
X-53174Y285689D01*
X-53060Y285609D01*
X-52943Y285532D01*
X-52824Y285459D01*
X-52703Y285389D01*
X-52580Y285323D01*
X-52455Y285260D01*
X-52328Y285200D01*
X-52200Y285145D01*
X-52071Y285093D01*
X-51939Y285044D01*
X-51807Y284999D01*
X-51673Y284958D01*
X-51539Y284921D01*
X-51403Y284888D01*
X-51266Y284859D01*
X-51129Y284833D01*
X-50991Y284811D01*
X-50852Y284794D01*
X-50713Y284780D01*
X-50573Y284770D01*
X-50434Y284764D01*
X-50294Y284762D01*
X-45355Y284762D01*
X-51282Y284762D02*
X-55233Y276860D01*
X-62020Y285750D02*
X-62024Y286100D01*
X-62037Y286449D01*
X-62058Y286798D01*
X-62087Y287147D01*
X-62124Y287495D01*
X-62170Y287842D01*
X-62224Y288187D01*
X-62286Y288531D01*
X-62357Y288874D01*
X-62436Y289215D01*
X-62522Y289554D01*
X-62617Y289890D01*
X-62720Y290225D01*
X-62831Y290556D01*
X-62949Y290886D01*
X-63076Y291212D01*
X-63210Y291535D01*
X-63352Y291854D01*
X-63502Y292171D01*
X-63502Y292170D02*
X-63542Y292283D01*
X-63586Y292393D01*
X-63634Y292503D01*
X-63685Y292611D01*
X-63740Y292716D01*
X-63798Y292821D01*
X-63860Y292923D01*
X-63925Y293023D01*
X-63993Y293121D01*
X-64064Y293217D01*
X-64139Y293310D01*
X-64216Y293401D01*
X-64296Y293489D01*
X-64380Y293574D01*
X-64465Y293657D01*
X-64554Y293737D01*
X-64645Y293814D01*
X-64739Y293888D01*
X-64835Y293959D01*
X-64933Y294027D01*
X-65033Y294091D01*
X-65136Y294153D01*
X-65240Y294210D01*
X-65346Y294265D01*
X-65454Y294316D01*
X-65564Y294363D01*
X-65675Y294407D01*
X-65787Y294447D01*
X-65901Y294483D01*
X-66015Y294516D01*
X-66131Y294545D01*
X-66248Y294570D01*
X-66365Y294591D01*
X-66483Y294609D01*
X-66602Y294622D01*
X-66721Y294632D01*
X-66840Y294638D01*
X-66959Y294640D01*
X-67078Y294638D01*
X-67197Y294632D01*
X-67316Y294622D01*
X-67435Y294609D01*
X-67553Y294591D01*
X-67670Y294570D01*
X-67787Y294545D01*
X-67903Y294516D01*
X-68017Y294483D01*
X-68131Y294447D01*
X-68243Y294407D01*
X-68354Y294363D01*
X-68464Y294316D01*
X-68572Y294265D01*
X-68678Y294210D01*
X-68782Y294153D01*
X-68885Y294091D01*
X-68985Y294027D01*
X-69083Y293959D01*
X-69179Y293888D01*
X-69273Y293814D01*
X-69364Y293737D01*
X-69453Y293657D01*
X-69539Y293574D01*
X-69622Y293489D01*
X-69702Y293401D01*
X-69779Y293310D01*
X-69854Y293217D01*
X-69925Y293121D01*
X-69993Y293023D01*
X-70058Y292923D01*
X-70120Y292821D01*
X-70178Y292716D01*
X-70233Y292610D01*
X-70284Y292503D01*
X-70332Y292393D01*
X-70376Y292283D01*
X-70416Y292170D01*
X-70416Y292171D02*
X-70566Y291854D01*
X-70708Y291535D01*
X-70842Y291212D01*
X-70969Y290886D01*
X-71087Y290556D01*
X-71198Y290225D01*
X-71301Y289890D01*
X-71396Y289554D01*
X-71482Y289215D01*
X-71561Y288874D01*
X-71632Y288531D01*
X-71694Y288187D01*
X-71748Y287842D01*
X-71794Y287495D01*
X-71831Y287147D01*
X-71860Y286798D01*
X-71881Y286449D01*
X-71894Y286100D01*
X-71898Y285750D01*
X-62020Y285750D02*
X-62024Y285400D01*
X-62037Y285051D01*
X-62058Y284702D01*
X-62087Y284353D01*
X-62124Y284005D01*
X-62170Y283658D01*
X-62224Y283313D01*
X-62286Y282969D01*
X-62357Y282626D01*
X-62436Y282285D01*
X-62522Y281946D01*
X-62617Y281610D01*
X-62720Y281275D01*
X-62831Y280944D01*
X-62949Y280615D01*
X-63076Y280288D01*
X-63210Y279965D01*
X-63352Y279646D01*
X-63502Y279330D01*
X-63542Y279217D01*
X-63586Y279107D01*
X-63634Y278997D01*
X-63685Y278889D01*
X-63740Y278783D01*
X-63798Y278679D01*
X-63860Y278577D01*
X-63925Y278477D01*
X-63993Y278379D01*
X-64064Y278283D01*
X-64139Y278190D01*
X-64216Y278099D01*
X-64296Y278011D01*
X-64380Y277926D01*
X-64465Y277843D01*
X-64554Y277763D01*
X-64645Y277686D01*
X-64739Y277612D01*
X-64835Y277541D01*
X-64933Y277473D01*
X-65033Y277409D01*
X-65136Y277347D01*
X-65240Y277289D01*
X-65346Y277235D01*
X-65454Y277184D01*
X-65564Y277137D01*
X-65675Y277093D01*
X-65787Y277053D01*
X-65901Y277017D01*
X-66015Y276984D01*
X-66131Y276955D01*
X-66248Y276930D01*
X-66365Y276909D01*
X-66483Y276891D01*
X-66602Y276878D01*
X-66721Y276868D01*
X-66840Y276862D01*
X-66959Y276860D01*
X-70416Y279330D02*
X-70566Y279646D01*
X-70708Y279965D01*
X-70842Y280288D01*
X-70969Y280615D01*
X-71087Y280944D01*
X-71198Y281275D01*
X-71301Y281610D01*
X-71396Y281946D01*
X-71482Y282285D01*
X-71561Y282626D01*
X-71632Y282969D01*
X-71694Y283313D01*
X-71748Y283658D01*
X-71794Y284005D01*
X-71831Y284353D01*
X-71860Y284702D01*
X-71881Y285051D01*
X-71894Y285400D01*
X-71898Y285750D01*
X-70416Y279330D02*
X-70376Y279217D01*
X-70332Y279107D01*
X-70284Y278997D01*
X-70233Y278890D01*
X-70178Y278784D01*
X-70120Y278679D01*
X-70058Y278577D01*
X-69993Y278477D01*
X-69925Y278379D01*
X-69854Y278283D01*
X-69779Y278190D01*
X-69702Y278099D01*
X-69622Y278011D01*
X-69539Y277926D01*
X-69453Y277843D01*
X-69364Y277763D01*
X-69273Y277686D01*
X-69179Y277612D01*
X-69083Y277541D01*
X-68985Y277473D01*
X-68885Y277409D01*
X-68782Y277347D01*
X-68678Y277290D01*
X-68572Y277235D01*
X-68464Y277184D01*
X-68354Y277137D01*
X-68243Y277093D01*
X-68131Y277053D01*
X-68017Y277017D01*
X-67903Y276984D01*
X-67787Y276955D01*
X-67670Y276930D01*
X-67553Y276909D01*
X-67435Y276891D01*
X-67316Y276878D01*
X-67197Y276868D01*
X-67078Y276862D01*
X-66959Y276860D01*
X-63008Y280811D02*
X-70910Y290689D01*
X-78771Y290689D02*
X-83709Y294640D01*
X-83709Y276860D01*
X-78771Y276860D02*
X-88648Y276860D01*
D12*
X-57989Y242182D02*
X-57987Y242093D01*
X-57981Y242005D01*
X-57972Y241917D01*
X-57959Y241829D01*
X-57942Y241742D01*
X-57922Y241656D01*
X-57897Y241571D01*
X-57870Y241486D01*
X-57838Y241403D01*
X-57804Y241322D01*
X-57765Y241242D01*
X-57724Y241164D01*
X-57679Y241087D01*
X-57631Y241013D01*
X-57580Y240940D01*
X-57526Y240870D01*
X-57468Y240803D01*
X-57408Y240737D01*
X-57346Y240675D01*
X-57280Y240615D01*
X-57213Y240557D01*
X-57143Y240503D01*
X-57070Y240452D01*
X-56996Y240404D01*
X-56919Y240359D01*
X-56841Y240318D01*
X-56761Y240279D01*
X-56680Y240245D01*
X-56597Y240213D01*
X-56512Y240186D01*
X-56427Y240161D01*
X-56341Y240141D01*
X-56254Y240124D01*
X-56166Y240111D01*
X-56078Y240102D01*
X-55990Y240096D01*
X-55901Y240094D01*
X-55901Y240093D02*
X-55772Y240095D01*
X-55643Y240101D01*
X-55514Y240110D01*
X-55386Y240123D01*
X-55258Y240140D01*
X-55131Y240161D01*
X-55004Y240185D01*
X-54878Y240213D01*
X-54753Y240245D01*
X-54629Y240280D01*
X-54506Y240319D01*
X-54384Y240362D01*
X-54264Y240408D01*
X-54145Y240458D01*
X-54027Y240511D01*
X-53911Y240567D01*
X-53797Y240627D01*
X-53684Y240690D01*
X-53574Y240757D01*
X-53465Y240826D01*
X-53359Y240899D01*
X-53254Y240975D01*
X-53152Y241054D01*
X-53053Y241136D01*
X-52955Y241220D01*
X-52860Y241308D01*
X-52768Y241398D01*
X-53030Y247403D02*
X-53032Y247492D01*
X-53038Y247580D01*
X-53047Y247668D01*
X-53060Y247756D01*
X-53077Y247843D01*
X-53097Y247929D01*
X-53122Y248014D01*
X-53149Y248099D01*
X-53181Y248182D01*
X-53215Y248263D01*
X-53254Y248343D01*
X-53295Y248421D01*
X-53340Y248498D01*
X-53388Y248572D01*
X-53439Y248645D01*
X-53493Y248715D01*
X-53551Y248782D01*
X-53611Y248848D01*
X-53673Y248910D01*
X-53739Y248970D01*
X-53806Y249028D01*
X-53876Y249082D01*
X-53949Y249133D01*
X-54023Y249181D01*
X-54100Y249226D01*
X-54178Y249267D01*
X-54258Y249306D01*
X-54339Y249340D01*
X-54422Y249372D01*
X-54507Y249399D01*
X-54592Y249424D01*
X-54678Y249444D01*
X-54765Y249461D01*
X-54853Y249474D01*
X-54941Y249483D01*
X-55029Y249489D01*
X-55118Y249491D01*
X-55118Y249492D02*
X-55238Y249490D01*
X-55358Y249485D01*
X-55478Y249475D01*
X-55597Y249463D01*
X-55716Y249446D01*
X-55834Y249426D01*
X-55952Y249402D01*
X-56068Y249375D01*
X-56184Y249344D01*
X-56299Y249310D01*
X-56413Y249272D01*
X-56526Y249230D01*
X-56637Y249185D01*
X-56747Y249137D01*
X-56855Y249086D01*
X-56962Y249031D01*
X-57067Y248973D01*
X-57170Y248911D01*
X-57271Y248847D01*
X-57371Y248779D01*
X-57468Y248709D01*
X-54074Y245576D02*
X-53996Y245624D01*
X-53920Y245676D01*
X-53847Y245730D01*
X-53776Y245788D01*
X-53707Y245849D01*
X-53641Y245913D01*
X-53578Y245980D01*
X-53518Y246049D01*
X-53461Y246121D01*
X-53407Y246195D01*
X-53357Y246272D01*
X-53309Y246351D01*
X-53266Y246431D01*
X-53225Y246514D01*
X-53189Y246598D01*
X-53156Y246683D01*
X-53127Y246770D01*
X-53101Y246859D01*
X-53079Y246948D01*
X-53062Y247038D01*
X-53048Y247128D01*
X-53038Y247220D01*
X-53032Y247311D01*
X-53030Y247403D01*
X-56946Y244009D02*
X-57024Y243961D01*
X-57100Y243909D01*
X-57173Y243855D01*
X-57244Y243797D01*
X-57313Y243736D01*
X-57379Y243672D01*
X-57442Y243605D01*
X-57502Y243536D01*
X-57559Y243464D01*
X-57613Y243390D01*
X-57663Y243313D01*
X-57711Y243234D01*
X-57754Y243154D01*
X-57795Y243071D01*
X-57831Y242987D01*
X-57864Y242902D01*
X-57893Y242815D01*
X-57919Y242726D01*
X-57941Y242637D01*
X-57958Y242547D01*
X-57972Y242457D01*
X-57982Y242365D01*
X-57988Y242274D01*
X-57990Y242182D01*
X-56945Y244009D02*
X-54074Y245576D01*
X-61912Y249492D02*
X-61912Y240094D01*
X-61912Y245315D02*
X-67134Y245315D01*
X-67134Y249492D02*
X-67134Y240094D01*
X-72143Y240094D02*
X-72143Y249492D01*
X-71099Y240094D02*
X-73187Y240094D01*
X-73187Y249492D02*
X-71099Y249492D01*
X-77170Y240094D02*
X-81347Y240094D01*
X-77170Y240094D02*
X-77170Y249492D01*
X-81347Y249492D01*
X-80303Y245315D02*
X-77170Y245315D01*
X-85095Y249492D02*
X-85095Y240094D01*
X-89272Y240094D01*
X-93002Y240094D02*
X-93002Y249492D01*
X-95612Y249492D01*
X-95712Y249490D01*
X-95812Y249484D01*
X-95911Y249475D01*
X-96011Y249461D01*
X-96109Y249444D01*
X-96207Y249423D01*
X-96304Y249399D01*
X-96400Y249370D01*
X-96495Y249338D01*
X-96588Y249303D01*
X-96680Y249264D01*
X-96771Y249221D01*
X-96859Y249175D01*
X-96946Y249125D01*
X-97031Y249073D01*
X-97114Y249017D01*
X-97195Y248958D01*
X-97273Y248895D01*
X-97349Y248830D01*
X-97423Y248762D01*
X-97493Y248692D01*
X-97561Y248618D01*
X-97626Y248542D01*
X-97689Y248464D01*
X-97748Y248383D01*
X-97804Y248300D01*
X-97856Y248215D01*
X-97906Y248128D01*
X-97952Y248040D01*
X-97995Y247949D01*
X-98034Y247857D01*
X-98069Y247764D01*
X-98101Y247669D01*
X-98130Y247573D01*
X-98154Y247476D01*
X-98175Y247378D01*
X-98192Y247280D01*
X-98206Y247180D01*
X-98215Y247081D01*
X-98221Y246981D01*
X-98223Y246881D01*
X-98223Y242704D01*
X-98224Y242704D02*
X-98222Y242604D01*
X-98216Y242504D01*
X-98207Y242405D01*
X-98193Y242305D01*
X-98176Y242207D01*
X-98155Y242109D01*
X-98131Y242012D01*
X-98102Y241916D01*
X-98070Y241821D01*
X-98035Y241728D01*
X-97996Y241636D01*
X-97953Y241545D01*
X-97907Y241457D01*
X-97857Y241370D01*
X-97805Y241285D01*
X-97749Y241202D01*
X-97690Y241121D01*
X-97627Y241043D01*
X-97562Y240967D01*
X-97494Y240893D01*
X-97424Y240823D01*
X-97350Y240755D01*
X-97274Y240690D01*
X-97196Y240627D01*
X-97115Y240568D01*
X-97032Y240512D01*
X-96947Y240460D01*
X-96860Y240410D01*
X-96772Y240364D01*
X-96681Y240321D01*
X-96589Y240282D01*
X-96496Y240247D01*
X-96401Y240215D01*
X-96305Y240186D01*
X-96208Y240162D01*
X-96110Y240141D01*
X-96012Y240124D01*
X-95912Y240110D01*
X-95813Y240101D01*
X-95713Y240095D01*
X-95613Y240093D01*
X-95612Y240094D02*
X-93002Y240094D01*
X64834Y238690D02*
X64834Y235557D01*
X64834Y238690D02*
X64836Y238779D01*
X64842Y238867D01*
X64851Y238955D01*
X64864Y239043D01*
X64881Y239130D01*
X64901Y239216D01*
X64926Y239301D01*
X64953Y239386D01*
X64985Y239469D01*
X65019Y239550D01*
X65058Y239630D01*
X65099Y239708D01*
X65144Y239785D01*
X65192Y239859D01*
X65243Y239932D01*
X65297Y240002D01*
X65355Y240069D01*
X65415Y240135D01*
X65477Y240197D01*
X65543Y240257D01*
X65610Y240315D01*
X65680Y240369D01*
X65753Y240420D01*
X65827Y240468D01*
X65904Y240513D01*
X65982Y240554D01*
X66062Y240593D01*
X66143Y240627D01*
X66226Y240659D01*
X66311Y240686D01*
X66396Y240711D01*
X66482Y240731D01*
X66569Y240748D01*
X66657Y240761D01*
X66745Y240770D01*
X66833Y240776D01*
X66922Y240778D01*
X67966Y240778D01*
X68055Y240776D01*
X68143Y240770D01*
X68231Y240761D01*
X68319Y240748D01*
X68406Y240731D01*
X68492Y240711D01*
X68577Y240686D01*
X68662Y240659D01*
X68745Y240627D01*
X68826Y240593D01*
X68906Y240554D01*
X68984Y240513D01*
X69061Y240468D01*
X69135Y240420D01*
X69208Y240369D01*
X69278Y240315D01*
X69345Y240257D01*
X69411Y240197D01*
X69473Y240135D01*
X69533Y240069D01*
X69591Y240002D01*
X69645Y239932D01*
X69696Y239859D01*
X69744Y239785D01*
X69789Y239708D01*
X69830Y239630D01*
X69869Y239550D01*
X69903Y239469D01*
X69935Y239386D01*
X69962Y239301D01*
X69987Y239216D01*
X70007Y239130D01*
X70024Y239043D01*
X70037Y238955D01*
X70046Y238867D01*
X70052Y238779D01*
X70054Y238690D01*
X70055Y238690D02*
X70055Y235557D01*
X74232Y235557D01*
X74232Y240778D01*
X74232Y244179D02*
X64834Y247311D01*
X74232Y250444D01*
X36717Y230937D02*
X36717Y229370D01*
X36717Y230937D02*
X31496Y230937D01*
X31496Y227804D01*
X31498Y227715D01*
X31504Y227627D01*
X31513Y227539D01*
X31526Y227451D01*
X31543Y227364D01*
X31563Y227278D01*
X31588Y227193D01*
X31615Y227108D01*
X31647Y227025D01*
X31681Y226944D01*
X31720Y226864D01*
X31761Y226786D01*
X31806Y226709D01*
X31854Y226635D01*
X31905Y226562D01*
X31959Y226492D01*
X32017Y226425D01*
X32077Y226359D01*
X32139Y226297D01*
X32205Y226237D01*
X32272Y226179D01*
X32342Y226125D01*
X32415Y226074D01*
X32489Y226026D01*
X32566Y225981D01*
X32644Y225940D01*
X32724Y225901D01*
X32805Y225867D01*
X32888Y225835D01*
X32973Y225808D01*
X33058Y225783D01*
X33144Y225763D01*
X33231Y225746D01*
X33319Y225733D01*
X33407Y225724D01*
X33495Y225718D01*
X33584Y225716D01*
X38806Y225716D01*
X38897Y225718D01*
X38988Y225724D01*
X39079Y225734D01*
X39169Y225748D01*
X39258Y225765D01*
X39346Y225787D01*
X39434Y225813D01*
X39520Y225842D01*
X39605Y225875D01*
X39688Y225912D01*
X39770Y225952D01*
X39850Y225996D01*
X39928Y226043D01*
X40004Y226094D01*
X40077Y226147D01*
X40148Y226204D01*
X40217Y226265D01*
X40282Y226328D01*
X40345Y226393D01*
X40405Y226462D01*
X40463Y226533D01*
X40516Y226606D01*
X40567Y226682D01*
X40614Y226760D01*
X40658Y226840D01*
X40698Y226922D01*
X40735Y227005D01*
X40768Y227090D01*
X40797Y227176D01*
X40823Y227264D01*
X40845Y227352D01*
X40862Y227441D01*
X40876Y227531D01*
X40886Y227622D01*
X40892Y227713D01*
X40894Y227804D01*
X40894Y230937D01*
X40894Y235469D02*
X31496Y235469D01*
X31496Y240690D02*
X40894Y235469D01*
X40894Y240690D02*
X31496Y240690D01*
X31496Y245223D02*
X40894Y245223D01*
X40894Y247833D01*
X40892Y247933D01*
X40886Y248033D01*
X40877Y248132D01*
X40863Y248232D01*
X40846Y248330D01*
X40825Y248428D01*
X40801Y248525D01*
X40772Y248621D01*
X40740Y248716D01*
X40705Y248809D01*
X40666Y248901D01*
X40623Y248992D01*
X40577Y249080D01*
X40527Y249167D01*
X40475Y249252D01*
X40419Y249335D01*
X40360Y249416D01*
X40297Y249494D01*
X40232Y249570D01*
X40164Y249644D01*
X40094Y249714D01*
X40020Y249782D01*
X39944Y249847D01*
X39866Y249910D01*
X39785Y249969D01*
X39702Y250025D01*
X39617Y250077D01*
X39530Y250127D01*
X39442Y250173D01*
X39351Y250216D01*
X39259Y250255D01*
X39166Y250290D01*
X39071Y250322D01*
X38975Y250351D01*
X38878Y250375D01*
X38780Y250396D01*
X38682Y250413D01*
X38582Y250427D01*
X38483Y250436D01*
X38383Y250442D01*
X38283Y250444D01*
X34107Y250444D01*
X34007Y250442D01*
X33907Y250436D01*
X33808Y250427D01*
X33708Y250413D01*
X33610Y250396D01*
X33512Y250375D01*
X33415Y250351D01*
X33319Y250322D01*
X33224Y250290D01*
X33131Y250255D01*
X33039Y250216D01*
X32948Y250173D01*
X32860Y250127D01*
X32773Y250077D01*
X32688Y250025D01*
X32605Y249969D01*
X32524Y249910D01*
X32446Y249847D01*
X32370Y249782D01*
X32296Y249714D01*
X32226Y249644D01*
X32158Y249570D01*
X32093Y249494D01*
X32030Y249416D01*
X31971Y249335D01*
X31915Y249252D01*
X31863Y249167D01*
X31813Y249080D01*
X31767Y248992D01*
X31724Y248901D01*
X31685Y248809D01*
X31650Y248716D01*
X31618Y248621D01*
X31589Y248525D01*
X31565Y248428D01*
X31544Y248330D01*
X31527Y248232D01*
X31513Y248132D01*
X31504Y248033D01*
X31498Y247933D01*
X31496Y247833D01*
X31496Y245223D01*
X6604Y222088D02*
X-2794Y222088D01*
X-2794Y221044D02*
X-2794Y223132D01*
X6604Y223132D02*
X6604Y221044D01*
X6604Y227097D02*
X-2794Y227097D01*
X-2794Y232318D02*
X6604Y227097D01*
X6604Y232318D02*
X-2794Y232318D01*
X-2794Y236024D02*
X6604Y239156D01*
X-2794Y242289D01*
X-445Y241506D02*
X-445Y236807D01*
X861Y245777D02*
X861Y252043D01*
X-29909Y220500D02*
X-39307Y220500D01*
X-39307Y219456D02*
X-39307Y221544D01*
X-29909Y221544D02*
X-29909Y219456D01*
X-29909Y225510D02*
X-39307Y225510D01*
X-39307Y230731D02*
X-29909Y225510D01*
X-29909Y230731D02*
X-39307Y230731D01*
X-39307Y234436D02*
X-29909Y237569D01*
X-39307Y240702D01*
X-36957Y239918D02*
X-36957Y235219D01*
X-35652Y244190D02*
X-35652Y250455D01*
X-38784Y247323D02*
X-32519Y247323D01*
X-25227Y209169D02*
X-25227Y199771D01*
X-26271Y199771D02*
X-24182Y199771D01*
X-24182Y209169D02*
X-26271Y209169D01*
X-30236Y209169D02*
X-30236Y199771D01*
X-35457Y199771D02*
X-30236Y209169D01*
X-35457Y209169D02*
X-35457Y199771D01*
X-40121Y204992D02*
X-42731Y204992D01*
X-42731Y204993D02*
X-42832Y204991D01*
X-42933Y204985D01*
X-43034Y204975D01*
X-43134Y204962D01*
X-43234Y204944D01*
X-43333Y204923D01*
X-43431Y204897D01*
X-43528Y204868D01*
X-43624Y204836D01*
X-43718Y204799D01*
X-43811Y204759D01*
X-43903Y204715D01*
X-43992Y204668D01*
X-44080Y204617D01*
X-44166Y204563D01*
X-44249Y204506D01*
X-44331Y204446D01*
X-44409Y204382D01*
X-44486Y204316D01*
X-44559Y204246D01*
X-44630Y204174D01*
X-44698Y204099D01*
X-44763Y204021D01*
X-44825Y203941D01*
X-44884Y203859D01*
X-44940Y203774D01*
X-44992Y203688D01*
X-45041Y203599D01*
X-45087Y203508D01*
X-45128Y203416D01*
X-45167Y203322D01*
X-45201Y203227D01*
X-45232Y203131D01*
X-45259Y203033D01*
X-45283Y202935D01*
X-45302Y202835D01*
X-45318Y202735D01*
X-45330Y202635D01*
X-45338Y202534D01*
X-45342Y202433D01*
X-45342Y202331D01*
X-45338Y202230D01*
X-45330Y202129D01*
X-45318Y202029D01*
X-45302Y201929D01*
X-45283Y201829D01*
X-45259Y201731D01*
X-45232Y201633D01*
X-45201Y201537D01*
X-45167Y201442D01*
X-45128Y201348D01*
X-45087Y201256D01*
X-45041Y201165D01*
X-44992Y201077D01*
X-44940Y200990D01*
X-44884Y200905D01*
X-44825Y200823D01*
X-44763Y200743D01*
X-44698Y200665D01*
X-44630Y200590D01*
X-44559Y200518D01*
X-44486Y200448D01*
X-44409Y200382D01*
X-44331Y200318D01*
X-44249Y200258D01*
X-44166Y200201D01*
X-44080Y200147D01*
X-43992Y200096D01*
X-43903Y200049D01*
X-43811Y200005D01*
X-43718Y199965D01*
X-43624Y199928D01*
X-43528Y199896D01*
X-43431Y199867D01*
X-43333Y199841D01*
X-43234Y199820D01*
X-43134Y199802D01*
X-43034Y199789D01*
X-42933Y199779D01*
X-42832Y199773D01*
X-42731Y199771D01*
X-40121Y199771D01*
X-40121Y209169D01*
X-42731Y209169D01*
X-42821Y209167D01*
X-42910Y209161D01*
X-43000Y209152D01*
X-43089Y209138D01*
X-43177Y209121D01*
X-43264Y209100D01*
X-43351Y209075D01*
X-43436Y209046D01*
X-43520Y209014D01*
X-43602Y208979D01*
X-43683Y208939D01*
X-43762Y208897D01*
X-43839Y208851D01*
X-43914Y208801D01*
X-43987Y208749D01*
X-44058Y208693D01*
X-44126Y208635D01*
X-44191Y208573D01*
X-44254Y208509D01*
X-44314Y208442D01*
X-44371Y208373D01*
X-44425Y208301D01*
X-44476Y208227D01*
X-44524Y208151D01*
X-44568Y208073D01*
X-44609Y207993D01*
X-44647Y207911D01*
X-44681Y207828D01*
X-44711Y207743D01*
X-44738Y207657D01*
X-44761Y207571D01*
X-44780Y207483D01*
X-44795Y207394D01*
X-44807Y207305D01*
X-44815Y207216D01*
X-44819Y207126D01*
X-44819Y207036D01*
X-44815Y206946D01*
X-44807Y206857D01*
X-44795Y206768D01*
X-44780Y206679D01*
X-44761Y206591D01*
X-44738Y206505D01*
X-44711Y206419D01*
X-44681Y206334D01*
X-44647Y206251D01*
X-44609Y206169D01*
X-44568Y206089D01*
X-44524Y206011D01*
X-44476Y205935D01*
X-44425Y205861D01*
X-44371Y205789D01*
X-44314Y205720D01*
X-44254Y205653D01*
X-44191Y205589D01*
X-44126Y205527D01*
X-44058Y205469D01*
X-43987Y205413D01*
X-43914Y205361D01*
X-43839Y205311D01*
X-43762Y205265D01*
X-43683Y205223D01*
X-43602Y205183D01*
X-43520Y205148D01*
X-43436Y205116D01*
X-43351Y205087D01*
X-43264Y205062D01*
X-43177Y205041D01*
X-43089Y205024D01*
X-43000Y205010D01*
X-42910Y205001D01*
X-42821Y204995D01*
X-42731Y204993D01*
X-48916Y203426D02*
X-55182Y203426D01*
X-52049Y200293D02*
X-52049Y206558D01*
X-25227Y174244D02*
X-25227Y164846D01*
X-26271Y164846D02*
X-24182Y164846D01*
X-24182Y174244D02*
X-26271Y174244D01*
X-30236Y174244D02*
X-30236Y164846D01*
X-35457Y164846D02*
X-30236Y174244D01*
X-35457Y174244D02*
X-35457Y164846D01*
X-40121Y170067D02*
X-42731Y170067D01*
X-42731Y170068D02*
X-42832Y170066D01*
X-42933Y170060D01*
X-43034Y170050D01*
X-43134Y170037D01*
X-43234Y170019D01*
X-43333Y169998D01*
X-43431Y169972D01*
X-43528Y169943D01*
X-43624Y169911D01*
X-43718Y169874D01*
X-43811Y169834D01*
X-43903Y169790D01*
X-43992Y169743D01*
X-44080Y169692D01*
X-44166Y169638D01*
X-44249Y169581D01*
X-44331Y169521D01*
X-44409Y169457D01*
X-44486Y169391D01*
X-44559Y169321D01*
X-44630Y169249D01*
X-44698Y169174D01*
X-44763Y169096D01*
X-44825Y169016D01*
X-44884Y168934D01*
X-44940Y168849D01*
X-44992Y168763D01*
X-45041Y168674D01*
X-45087Y168583D01*
X-45128Y168491D01*
X-45167Y168397D01*
X-45201Y168302D01*
X-45232Y168206D01*
X-45259Y168108D01*
X-45283Y168010D01*
X-45302Y167910D01*
X-45318Y167810D01*
X-45330Y167710D01*
X-45338Y167609D01*
X-45342Y167508D01*
X-45342Y167406D01*
X-45338Y167305D01*
X-45330Y167204D01*
X-45318Y167104D01*
X-45302Y167004D01*
X-45283Y166904D01*
X-45259Y166806D01*
X-45232Y166708D01*
X-45201Y166612D01*
X-45167Y166517D01*
X-45128Y166423D01*
X-45087Y166331D01*
X-45041Y166240D01*
X-44992Y166152D01*
X-44940Y166065D01*
X-44884Y165980D01*
X-44825Y165898D01*
X-44763Y165818D01*
X-44698Y165740D01*
X-44630Y165665D01*
X-44559Y165593D01*
X-44486Y165523D01*
X-44409Y165457D01*
X-44331Y165393D01*
X-44249Y165333D01*
X-44166Y165276D01*
X-44080Y165222D01*
X-43992Y165171D01*
X-43903Y165124D01*
X-43811Y165080D01*
X-43718Y165040D01*
X-43624Y165003D01*
X-43528Y164971D01*
X-43431Y164942D01*
X-43333Y164916D01*
X-43234Y164895D01*
X-43134Y164877D01*
X-43034Y164864D01*
X-42933Y164854D01*
X-42832Y164848D01*
X-42731Y164846D01*
X-40121Y164846D01*
X-40121Y174244D01*
X-42731Y174244D01*
X-42821Y174242D01*
X-42910Y174236D01*
X-43000Y174227D01*
X-43089Y174213D01*
X-43177Y174196D01*
X-43264Y174175D01*
X-43351Y174150D01*
X-43436Y174121D01*
X-43520Y174089D01*
X-43602Y174054D01*
X-43683Y174014D01*
X-43762Y173972D01*
X-43839Y173926D01*
X-43914Y173876D01*
X-43987Y173824D01*
X-44058Y173768D01*
X-44126Y173710D01*
X-44191Y173648D01*
X-44254Y173584D01*
X-44314Y173517D01*
X-44371Y173448D01*
X-44425Y173376D01*
X-44476Y173302D01*
X-44524Y173226D01*
X-44568Y173148D01*
X-44609Y173068D01*
X-44647Y172986D01*
X-44681Y172903D01*
X-44711Y172818D01*
X-44738Y172732D01*
X-44761Y172646D01*
X-44780Y172558D01*
X-44795Y172469D01*
X-44807Y172380D01*
X-44815Y172291D01*
X-44819Y172201D01*
X-44819Y172111D01*
X-44815Y172021D01*
X-44807Y171932D01*
X-44795Y171843D01*
X-44780Y171754D01*
X-44761Y171666D01*
X-44738Y171580D01*
X-44711Y171494D01*
X-44681Y171409D01*
X-44647Y171326D01*
X-44609Y171244D01*
X-44568Y171164D01*
X-44524Y171086D01*
X-44476Y171010D01*
X-44425Y170936D01*
X-44371Y170864D01*
X-44314Y170795D01*
X-44254Y170728D01*
X-44191Y170664D01*
X-44126Y170602D01*
X-44058Y170544D01*
X-43987Y170488D01*
X-43914Y170436D01*
X-43839Y170386D01*
X-43762Y170340D01*
X-43683Y170298D01*
X-43602Y170258D01*
X-43520Y170223D01*
X-43436Y170191D01*
X-43351Y170162D01*
X-43264Y170137D01*
X-43177Y170116D01*
X-43089Y170099D01*
X-43000Y170085D01*
X-42910Y170076D01*
X-42821Y170070D01*
X-42731Y170068D01*
X-48916Y168501D02*
X-55182Y168501D01*
D13*
X14288Y185611D02*
X14288Y192215D01*
D12*
X11494Y157325D02*
X11494Y155688D01*
X11493Y155688D02*
X11495Y155610D01*
X11500Y155532D01*
X11510Y155455D01*
X11523Y155378D01*
X11539Y155302D01*
X11559Y155227D01*
X11583Y155153D01*
X11610Y155080D01*
X11641Y155008D01*
X11675Y154938D01*
X11712Y154870D01*
X11753Y154803D01*
X11797Y154738D01*
X11843Y154676D01*
X11893Y154616D01*
X11945Y154558D01*
X12000Y154503D01*
X12058Y154451D01*
X12118Y154401D01*
X12180Y154355D01*
X12245Y154311D01*
X12311Y154270D01*
X12380Y154233D01*
X12450Y154199D01*
X12522Y154168D01*
X12595Y154141D01*
X12669Y154117D01*
X12744Y154097D01*
X12820Y154081D01*
X12897Y154068D01*
X12974Y154058D01*
X13052Y154053D01*
X13130Y154051D01*
X17223Y154051D01*
X17301Y154053D01*
X17379Y154058D01*
X17456Y154068D01*
X17533Y154081D01*
X17609Y154097D01*
X17684Y154117D01*
X17758Y154141D01*
X17831Y154168D01*
X17903Y154199D01*
X17973Y154233D01*
X18042Y154270D01*
X18108Y154311D01*
X18173Y154355D01*
X18235Y154401D01*
X18295Y154451D01*
X18353Y154503D01*
X18408Y154558D01*
X18460Y154616D01*
X18510Y154676D01*
X18556Y154738D01*
X18600Y154803D01*
X18641Y154870D01*
X18678Y154938D01*
X18712Y155008D01*
X18743Y155080D01*
X18770Y155153D01*
X18794Y155227D01*
X18814Y155302D01*
X18830Y155378D01*
X18843Y155455D01*
X18853Y155532D01*
X18858Y155610D01*
X18860Y155688D01*
X18860Y157325D01*
X17223Y160170D02*
X18860Y162216D01*
X11494Y162216D01*
X11494Y160170D02*
X11494Y164262D01*
X17223Y167485D02*
X18860Y169531D01*
X11494Y169531D01*
X11494Y167485D02*
X11494Y171578D01*
D13*
X47625Y193082D02*
X47625Y199686D01*
D12*
X48450Y163652D02*
X48450Y162015D01*
X48452Y161937D01*
X48457Y161859D01*
X48467Y161782D01*
X48480Y161705D01*
X48496Y161629D01*
X48516Y161554D01*
X48540Y161480D01*
X48567Y161407D01*
X48598Y161335D01*
X48632Y161265D01*
X48669Y161197D01*
X48710Y161130D01*
X48754Y161065D01*
X48800Y161003D01*
X48850Y160943D01*
X48902Y160885D01*
X48957Y160830D01*
X49015Y160778D01*
X49075Y160728D01*
X49137Y160682D01*
X49202Y160638D01*
X49269Y160597D01*
X49337Y160560D01*
X49407Y160526D01*
X49479Y160495D01*
X49552Y160468D01*
X49626Y160444D01*
X49701Y160424D01*
X49777Y160408D01*
X49854Y160395D01*
X49931Y160385D01*
X50009Y160380D01*
X50087Y160378D01*
X50087Y160379D02*
X54180Y160379D01*
X54180Y160378D02*
X54258Y160380D01*
X54336Y160385D01*
X54413Y160395D01*
X54490Y160408D01*
X54566Y160424D01*
X54641Y160444D01*
X54715Y160468D01*
X54788Y160495D01*
X54860Y160526D01*
X54930Y160560D01*
X54999Y160597D01*
X55065Y160638D01*
X55130Y160682D01*
X55192Y160728D01*
X55252Y160778D01*
X55310Y160830D01*
X55365Y160885D01*
X55417Y160943D01*
X55467Y161003D01*
X55513Y161065D01*
X55557Y161130D01*
X55598Y161197D01*
X55635Y161265D01*
X55669Y161335D01*
X55700Y161407D01*
X55727Y161480D01*
X55751Y161554D01*
X55771Y161629D01*
X55787Y161705D01*
X55800Y161782D01*
X55810Y161859D01*
X55815Y161937D01*
X55817Y162015D01*
X55816Y162015D02*
X55816Y163652D01*
X54180Y166498D02*
X55816Y168544D01*
X48450Y168544D01*
X48450Y166498D02*
X48450Y170590D01*
X53975Y177906D02*
X54060Y177904D01*
X54145Y177898D01*
X54229Y177888D01*
X54313Y177875D01*
X54397Y177857D01*
X54479Y177836D01*
X54560Y177811D01*
X54640Y177782D01*
X54719Y177749D01*
X54796Y177713D01*
X54871Y177673D01*
X54945Y177630D01*
X55016Y177584D01*
X55085Y177534D01*
X55152Y177481D01*
X55216Y177425D01*
X55277Y177366D01*
X55336Y177305D01*
X55392Y177241D01*
X55445Y177174D01*
X55495Y177105D01*
X55541Y177034D01*
X55584Y176960D01*
X55624Y176885D01*
X55660Y176808D01*
X55693Y176729D01*
X55722Y176649D01*
X55747Y176568D01*
X55768Y176486D01*
X55786Y176402D01*
X55799Y176318D01*
X55809Y176234D01*
X55815Y176149D01*
X55817Y176064D01*
X55815Y175968D01*
X55809Y175872D01*
X55799Y175777D01*
X55786Y175682D01*
X55768Y175587D01*
X55747Y175494D01*
X55722Y175401D01*
X55693Y175310D01*
X55661Y175219D01*
X55625Y175130D01*
X55585Y175043D01*
X55542Y174957D01*
X55496Y174873D01*
X55446Y174791D01*
X55392Y174711D01*
X55336Y174634D01*
X55276Y174559D01*
X55214Y174486D01*
X55148Y174416D01*
X55080Y174348D01*
X55009Y174283D01*
X54936Y174222D01*
X54860Y174163D01*
X54781Y174107D01*
X54701Y174055D01*
X54618Y174006D01*
X54534Y173960D01*
X54448Y173918D01*
X54360Y173880D01*
X54271Y173845D01*
X54180Y173813D01*
X52543Y177291D02*
X52602Y177351D01*
X52664Y177408D01*
X52728Y177463D01*
X52795Y177514D01*
X52864Y177563D01*
X52934Y177609D01*
X53007Y177652D01*
X53081Y177692D01*
X53157Y177728D01*
X53235Y177761D01*
X53314Y177791D01*
X53394Y177818D01*
X53475Y177841D01*
X53557Y177860D01*
X53639Y177876D01*
X53723Y177889D01*
X53807Y177898D01*
X53891Y177903D01*
X53975Y177905D01*
X52543Y177291D02*
X48450Y173813D01*
X48450Y177905D01*
D13*
X23813Y185611D02*
X23813Y192215D01*
D12*
X21654Y157007D02*
X21654Y155370D01*
X21653Y155370D02*
X21655Y155292D01*
X21660Y155214D01*
X21670Y155137D01*
X21683Y155060D01*
X21699Y154984D01*
X21719Y154909D01*
X21743Y154835D01*
X21770Y154762D01*
X21801Y154690D01*
X21835Y154620D01*
X21872Y154552D01*
X21913Y154485D01*
X21957Y154420D01*
X22003Y154358D01*
X22053Y154298D01*
X22105Y154240D01*
X22160Y154185D01*
X22218Y154133D01*
X22278Y154083D01*
X22340Y154037D01*
X22405Y153993D01*
X22471Y153952D01*
X22540Y153915D01*
X22610Y153881D01*
X22682Y153850D01*
X22755Y153823D01*
X22829Y153799D01*
X22904Y153779D01*
X22980Y153763D01*
X23057Y153750D01*
X23134Y153740D01*
X23212Y153735D01*
X23290Y153733D01*
X23290Y153734D02*
X27383Y153734D01*
X27383Y153733D02*
X27461Y153735D01*
X27539Y153740D01*
X27616Y153750D01*
X27693Y153763D01*
X27769Y153779D01*
X27844Y153799D01*
X27918Y153823D01*
X27991Y153850D01*
X28063Y153881D01*
X28133Y153915D01*
X28202Y153952D01*
X28268Y153993D01*
X28333Y154037D01*
X28395Y154083D01*
X28455Y154133D01*
X28513Y154185D01*
X28568Y154240D01*
X28620Y154298D01*
X28670Y154358D01*
X28716Y154420D01*
X28760Y154485D01*
X28801Y154552D01*
X28838Y154620D01*
X28872Y154690D01*
X28903Y154762D01*
X28930Y154835D01*
X28954Y154909D01*
X28974Y154984D01*
X28990Y155060D01*
X29003Y155137D01*
X29013Y155214D01*
X29018Y155292D01*
X29020Y155370D01*
X29020Y157007D01*
X27383Y159853D02*
X29020Y161899D01*
X21654Y161899D01*
X21654Y159853D02*
X21654Y163945D01*
X25337Y167168D02*
X25490Y167170D01*
X25643Y167176D01*
X25795Y167185D01*
X25948Y167199D01*
X26100Y167216D01*
X26251Y167237D01*
X26402Y167262D01*
X26552Y167291D01*
X26702Y167323D01*
X26850Y167360D01*
X26998Y167400D01*
X27145Y167443D01*
X27290Y167491D01*
X27434Y167542D01*
X27577Y167596D01*
X27719Y167655D01*
X27858Y167716D01*
X27997Y167782D01*
X27996Y167782D02*
X28066Y167808D01*
X28136Y167838D01*
X28203Y167871D01*
X28269Y167907D01*
X28333Y167946D01*
X28395Y167989D01*
X28454Y168035D01*
X28512Y168083D01*
X28566Y168134D01*
X28619Y168188D01*
X28668Y168245D01*
X28715Y168304D01*
X28758Y168365D01*
X28799Y168428D01*
X28836Y168493D01*
X28871Y168560D01*
X28901Y168629D01*
X28929Y168699D01*
X28952Y168770D01*
X28973Y168842D01*
X28989Y168915D01*
X29002Y168989D01*
X29012Y169064D01*
X29017Y169139D01*
X29019Y169214D01*
X29017Y169289D01*
X29012Y169364D01*
X29002Y169439D01*
X28989Y169513D01*
X28973Y169586D01*
X28952Y169658D01*
X28929Y169729D01*
X28901Y169799D01*
X28871Y169868D01*
X28836Y169935D01*
X28799Y170000D01*
X28758Y170063D01*
X28715Y170124D01*
X28668Y170183D01*
X28619Y170240D01*
X28566Y170294D01*
X28512Y170345D01*
X28454Y170394D01*
X28395Y170439D01*
X28333Y170482D01*
X28269Y170521D01*
X28203Y170558D01*
X28135Y170590D01*
X28066Y170620D01*
X27996Y170646D01*
X27997Y170646D02*
X27859Y170711D01*
X27719Y170773D01*
X27577Y170831D01*
X27434Y170886D01*
X27290Y170937D01*
X27145Y170985D01*
X26998Y171028D01*
X26851Y171068D01*
X26702Y171105D01*
X26552Y171137D01*
X26402Y171166D01*
X26251Y171191D01*
X26100Y171212D01*
X25948Y171229D01*
X25795Y171243D01*
X25643Y171252D01*
X25490Y171258D01*
X25337Y171260D01*
X25337Y167167D02*
X25184Y167169D01*
X25031Y167175D01*
X24878Y167184D01*
X24726Y167198D01*
X24574Y167215D01*
X24423Y167236D01*
X24272Y167261D01*
X24121Y167290D01*
X23972Y167322D01*
X23823Y167359D01*
X23676Y167399D01*
X23529Y167442D01*
X23384Y167490D01*
X23239Y167541D01*
X23097Y167596D01*
X22955Y167654D01*
X22815Y167716D01*
X22677Y167781D01*
X22677Y167782D02*
X22606Y167808D01*
X22537Y167838D01*
X22470Y167871D01*
X22404Y167907D01*
X22340Y167946D01*
X22278Y167989D01*
X22219Y168035D01*
X22161Y168083D01*
X22107Y168134D01*
X22054Y168188D01*
X22005Y168245D01*
X21958Y168304D01*
X21915Y168365D01*
X21874Y168428D01*
X21837Y168493D01*
X21802Y168560D01*
X21772Y168629D01*
X21744Y168699D01*
X21721Y168770D01*
X21700Y168842D01*
X21684Y168915D01*
X21671Y168989D01*
X21661Y169064D01*
X21656Y169139D01*
X21654Y169214D01*
X22677Y170646D02*
X22815Y170711D01*
X22955Y170773D01*
X23097Y170831D01*
X23240Y170886D01*
X23384Y170937D01*
X23529Y170985D01*
X23676Y171028D01*
X23824Y171068D01*
X23972Y171105D01*
X24122Y171137D01*
X24272Y171166D01*
X24423Y171191D01*
X24574Y171212D01*
X24726Y171229D01*
X24879Y171243D01*
X25031Y171252D01*
X25184Y171258D01*
X25337Y171260D01*
X22677Y170646D02*
X22607Y170620D01*
X22537Y170590D01*
X22470Y170558D01*
X22404Y170521D01*
X22340Y170482D01*
X22278Y170439D01*
X22219Y170393D01*
X22161Y170345D01*
X22107Y170294D01*
X22054Y170240D01*
X22005Y170183D01*
X21958Y170124D01*
X21915Y170063D01*
X21874Y170000D01*
X21837Y169935D01*
X21802Y169868D01*
X21772Y169799D01*
X21744Y169729D01*
X21721Y169658D01*
X21700Y169586D01*
X21684Y169513D01*
X21671Y169439D01*
X21661Y169364D01*
X21656Y169289D01*
X21654Y169214D01*
X23290Y167577D02*
X27383Y170851D01*
D13*
X50673Y276225D02*
X57277Y276225D01*
D12*
X61433Y285496D02*
X63070Y285496D01*
X63148Y285498D01*
X63226Y285503D01*
X63303Y285513D01*
X63380Y285526D01*
X63456Y285542D01*
X63531Y285562D01*
X63605Y285586D01*
X63678Y285613D01*
X63750Y285644D01*
X63820Y285678D01*
X63889Y285715D01*
X63955Y285756D01*
X64020Y285800D01*
X64082Y285846D01*
X64142Y285896D01*
X64200Y285948D01*
X64255Y286003D01*
X64307Y286061D01*
X64357Y286121D01*
X64403Y286183D01*
X64447Y286248D01*
X64488Y286315D01*
X64525Y286383D01*
X64559Y286453D01*
X64590Y286525D01*
X64617Y286598D01*
X64641Y286672D01*
X64661Y286747D01*
X64677Y286823D01*
X64690Y286900D01*
X64700Y286977D01*
X64705Y287055D01*
X64707Y287133D01*
X64707Y291225D01*
X64705Y291303D01*
X64700Y291381D01*
X64690Y291458D01*
X64677Y291535D01*
X64661Y291611D01*
X64641Y291686D01*
X64617Y291760D01*
X64590Y291833D01*
X64559Y291905D01*
X64525Y291975D01*
X64488Y292044D01*
X64447Y292110D01*
X64403Y292175D01*
X64357Y292237D01*
X64307Y292297D01*
X64255Y292355D01*
X64200Y292410D01*
X64142Y292462D01*
X64082Y292512D01*
X64020Y292558D01*
X63955Y292602D01*
X63889Y292643D01*
X63820Y292680D01*
X63750Y292714D01*
X63678Y292745D01*
X63605Y292772D01*
X63531Y292796D01*
X63456Y292816D01*
X63380Y292832D01*
X63303Y292845D01*
X63226Y292855D01*
X63148Y292860D01*
X63070Y292862D01*
X61433Y292862D01*
X58587Y291225D02*
X56541Y292862D01*
X56541Y285496D01*
X58587Y285496D02*
X54495Y285496D01*
X51272Y285496D02*
X49226Y285496D01*
X49137Y285498D01*
X49048Y285504D01*
X48959Y285514D01*
X48871Y285527D01*
X48783Y285544D01*
X48696Y285566D01*
X48611Y285591D01*
X48526Y285619D01*
X48443Y285652D01*
X48361Y285688D01*
X48281Y285727D01*
X48203Y285770D01*
X48127Y285816D01*
X48052Y285866D01*
X47980Y285919D01*
X47911Y285975D01*
X47844Y286034D01*
X47779Y286095D01*
X47718Y286160D01*
X47659Y286227D01*
X47603Y286296D01*
X47550Y286368D01*
X47500Y286443D01*
X47454Y286519D01*
X47411Y286597D01*
X47372Y286677D01*
X47336Y286759D01*
X47303Y286842D01*
X47275Y286927D01*
X47250Y287012D01*
X47228Y287099D01*
X47211Y287187D01*
X47198Y287275D01*
X47188Y287364D01*
X47182Y287453D01*
X47180Y287542D01*
X47182Y287631D01*
X47188Y287720D01*
X47198Y287809D01*
X47211Y287897D01*
X47228Y287985D01*
X47250Y288072D01*
X47275Y288157D01*
X47303Y288242D01*
X47336Y288325D01*
X47372Y288407D01*
X47411Y288487D01*
X47454Y288565D01*
X47500Y288641D01*
X47550Y288716D01*
X47603Y288788D01*
X47659Y288857D01*
X47718Y288924D01*
X47779Y288989D01*
X47844Y289050D01*
X47911Y289109D01*
X47980Y289165D01*
X48052Y289218D01*
X48127Y289268D01*
X48203Y289314D01*
X48281Y289357D01*
X48361Y289396D01*
X48443Y289432D01*
X48526Y289465D01*
X48611Y289493D01*
X48696Y289518D01*
X48783Y289540D01*
X48871Y289557D01*
X48959Y289570D01*
X49048Y289580D01*
X49137Y289586D01*
X49226Y289588D01*
X48817Y292862D02*
X51272Y292862D01*
X48817Y292862D02*
X48738Y292860D01*
X48659Y292854D01*
X48580Y292845D01*
X48502Y292832D01*
X48425Y292814D01*
X48349Y292794D01*
X48274Y292769D01*
X48200Y292741D01*
X48127Y292710D01*
X48056Y292674D01*
X47987Y292636D01*
X47920Y292594D01*
X47855Y292549D01*
X47792Y292501D01*
X47731Y292450D01*
X47674Y292396D01*
X47618Y292340D01*
X47566Y292281D01*
X47516Y292219D01*
X47470Y292155D01*
X47426Y292089D01*
X47386Y292021D01*
X47350Y291951D01*
X47316Y291879D01*
X47286Y291805D01*
X47260Y291731D01*
X47237Y291655D01*
X47219Y291578D01*
X47203Y291501D01*
X47192Y291422D01*
X47184Y291344D01*
X47180Y291265D01*
X47180Y291185D01*
X47184Y291106D01*
X47192Y291028D01*
X47203Y290949D01*
X47219Y290872D01*
X47237Y290795D01*
X47260Y290719D01*
X47286Y290645D01*
X47316Y290571D01*
X47350Y290499D01*
X47386Y290429D01*
X47426Y290361D01*
X47470Y290295D01*
X47516Y290231D01*
X47566Y290169D01*
X47618Y290110D01*
X47674Y290054D01*
X47731Y290000D01*
X47792Y289949D01*
X47855Y289901D01*
X47920Y289856D01*
X47987Y289814D01*
X48056Y289776D01*
X48127Y289740D01*
X48200Y289709D01*
X48274Y289681D01*
X48349Y289656D01*
X48425Y289636D01*
X48502Y289618D01*
X48580Y289605D01*
X48659Y289596D01*
X48738Y289590D01*
X48817Y289588D01*
X50454Y289588D01*
D11*
X78784Y192913D02*
X78786Y192966D01*
X78792Y193019D01*
X78802Y193071D01*
X78815Y193122D01*
X78832Y193172D01*
X78853Y193221D01*
X78878Y193268D01*
X78906Y193313D01*
X78937Y193356D01*
X78971Y193397D01*
X79009Y193435D01*
X79048Y193470D01*
X79091Y193502D01*
X79135Y193530D01*
X79182Y193556D01*
X79230Y193578D01*
X79280Y193596D01*
X79331Y193610D01*
X79383Y193621D01*
X79436Y193628D01*
X79489Y193631D01*
X79542Y193630D01*
X79595Y193625D01*
X79647Y193616D01*
X79698Y193604D01*
X79749Y193587D01*
X79798Y193567D01*
X79846Y193543D01*
X79891Y193516D01*
X79935Y193486D01*
X79976Y193452D01*
X80014Y193416D01*
X80050Y193377D01*
X80083Y193335D01*
X80112Y193291D01*
X80139Y193245D01*
X80161Y193197D01*
X80181Y193147D01*
X80196Y193097D01*
X80208Y193045D01*
X80216Y192992D01*
X80220Y192940D01*
X80220Y192886D01*
X80216Y192834D01*
X80208Y192781D01*
X80196Y192729D01*
X80181Y192679D01*
X80161Y192629D01*
X80139Y192581D01*
X80112Y192535D01*
X80083Y192491D01*
X80050Y192449D01*
X80014Y192410D01*
X79976Y192374D01*
X79935Y192340D01*
X79891Y192310D01*
X79846Y192283D01*
X79798Y192259D01*
X79749Y192239D01*
X79698Y192222D01*
X79647Y192210D01*
X79595Y192201D01*
X79542Y192196D01*
X79489Y192195D01*
X79436Y192198D01*
X79383Y192205D01*
X79331Y192216D01*
X79280Y192230D01*
X79230Y192248D01*
X79182Y192270D01*
X79135Y192296D01*
X79091Y192324D01*
X79048Y192356D01*
X79009Y192391D01*
X78971Y192429D01*
X78937Y192470D01*
X78906Y192513D01*
X78878Y192558D01*
X78853Y192605D01*
X78832Y192654D01*
X78815Y192704D01*
X78802Y192755D01*
X78792Y192807D01*
X78786Y192860D01*
X78784Y192913D01*
D12*
X75819Y167894D02*
X75819Y161107D01*
X75817Y161006D01*
X75811Y160905D01*
X75801Y160804D01*
X75788Y160704D01*
X75770Y160604D01*
X75749Y160505D01*
X75723Y160407D01*
X75694Y160310D01*
X75662Y160214D01*
X75625Y160120D01*
X75585Y160027D01*
X75541Y159935D01*
X75494Y159846D01*
X75443Y159758D01*
X75389Y159672D01*
X75332Y159589D01*
X75272Y159507D01*
X75208Y159429D01*
X75142Y159352D01*
X75072Y159279D01*
X75000Y159208D01*
X74925Y159140D01*
X74847Y159075D01*
X74767Y159013D01*
X74685Y158954D01*
X74600Y158898D01*
X74513Y158846D01*
X74425Y158797D01*
X74334Y158751D01*
X74242Y158710D01*
X74148Y158671D01*
X74053Y158637D01*
X73957Y158606D01*
X73859Y158579D01*
X73761Y158555D01*
X73661Y158536D01*
X73561Y158520D01*
X73461Y158508D01*
X73360Y158500D01*
X73259Y158496D01*
X73157Y158496D01*
X73056Y158500D01*
X72955Y158508D01*
X72855Y158520D01*
X72755Y158536D01*
X72655Y158555D01*
X72557Y158579D01*
X72459Y158606D01*
X72363Y158637D01*
X72268Y158671D01*
X72174Y158710D01*
X72082Y158751D01*
X71991Y158797D01*
X71903Y158846D01*
X71816Y158898D01*
X71731Y158954D01*
X71649Y159013D01*
X71569Y159075D01*
X71491Y159140D01*
X71416Y159208D01*
X71344Y159279D01*
X71274Y159352D01*
X71208Y159429D01*
X71144Y159507D01*
X71084Y159589D01*
X71027Y159672D01*
X70973Y159758D01*
X70922Y159846D01*
X70875Y159935D01*
X70831Y160027D01*
X70791Y160120D01*
X70754Y160214D01*
X70722Y160310D01*
X70693Y160407D01*
X70667Y160505D01*
X70646Y160604D01*
X70628Y160704D01*
X70615Y160804D01*
X70605Y160905D01*
X70599Y161006D01*
X70597Y161107D01*
X70598Y161107D02*
X70598Y167894D01*
X63499Y167895D02*
X63404Y167893D01*
X63310Y167887D01*
X63216Y167878D01*
X63122Y167865D01*
X63029Y167848D01*
X62937Y167827D01*
X62845Y167802D01*
X62755Y167774D01*
X62666Y167742D01*
X62578Y167707D01*
X62492Y167668D01*
X62407Y167626D01*
X62324Y167580D01*
X62243Y167531D01*
X62164Y167479D01*
X62087Y167424D01*
X62013Y167365D01*
X61941Y167304D01*
X61871Y167240D01*
X61804Y167173D01*
X61740Y167103D01*
X61679Y167031D01*
X61620Y166957D01*
X61565Y166880D01*
X61513Y166801D01*
X61464Y166720D01*
X61418Y166637D01*
X61376Y166552D01*
X61337Y166466D01*
X61302Y166378D01*
X61270Y166289D01*
X61242Y166199D01*
X61217Y166107D01*
X61196Y166015D01*
X61179Y165922D01*
X61166Y165828D01*
X61157Y165734D01*
X61151Y165640D01*
X61149Y165545D01*
X63499Y167894D02*
X63607Y167892D01*
X63716Y167886D01*
X63824Y167876D01*
X63931Y167863D01*
X64038Y167845D01*
X64145Y167824D01*
X64250Y167799D01*
X64355Y167770D01*
X64458Y167738D01*
X64560Y167701D01*
X64661Y167661D01*
X64760Y167618D01*
X64858Y167571D01*
X64954Y167520D01*
X65048Y167466D01*
X65140Y167409D01*
X65230Y167348D01*
X65318Y167284D01*
X65403Y167218D01*
X65486Y167148D01*
X65566Y167075D01*
X65644Y166999D01*
X65719Y166921D01*
X65791Y166840D01*
X65860Y166756D01*
X65926Y166670D01*
X65989Y166582D01*
X66048Y166491D01*
X66105Y166399D01*
X66158Y166304D01*
X66207Y166207D01*
X66253Y166109D01*
X66296Y166010D01*
X66335Y165908D01*
X66370Y165806D01*
X61932Y163717D02*
X61863Y163786D01*
X61797Y163857D01*
X61733Y163930D01*
X61672Y164006D01*
X61614Y164085D01*
X61560Y164165D01*
X61508Y164248D01*
X61460Y164332D01*
X61414Y164418D01*
X61373Y164506D01*
X61334Y164596D01*
X61299Y164687D01*
X61268Y164779D01*
X61240Y164872D01*
X61216Y164966D01*
X61196Y165061D01*
X61179Y165157D01*
X61166Y165254D01*
X61157Y165351D01*
X61151Y165448D01*
X61149Y165545D01*
X61932Y163717D02*
X66370Y158496D01*
X61149Y158496D01*
D13*
X38141Y193082D02*
X38141Y199686D01*
D12*
X32616Y163335D02*
X32616Y161698D01*
X32618Y161620D01*
X32623Y161542D01*
X32633Y161465D01*
X32646Y161388D01*
X32662Y161312D01*
X32682Y161237D01*
X32706Y161163D01*
X32733Y161090D01*
X32764Y161018D01*
X32798Y160948D01*
X32835Y160880D01*
X32876Y160813D01*
X32920Y160748D01*
X32966Y160686D01*
X33016Y160626D01*
X33068Y160568D01*
X33123Y160513D01*
X33181Y160461D01*
X33241Y160411D01*
X33303Y160365D01*
X33368Y160321D01*
X33435Y160280D01*
X33503Y160243D01*
X33573Y160209D01*
X33645Y160178D01*
X33718Y160151D01*
X33792Y160127D01*
X33867Y160107D01*
X33943Y160091D01*
X34020Y160078D01*
X34097Y160068D01*
X34175Y160063D01*
X34253Y160061D01*
X38345Y160061D01*
X38423Y160063D01*
X38501Y160068D01*
X38578Y160078D01*
X38655Y160091D01*
X38731Y160107D01*
X38806Y160127D01*
X38880Y160151D01*
X38953Y160178D01*
X39025Y160209D01*
X39095Y160243D01*
X39164Y160280D01*
X39230Y160321D01*
X39295Y160365D01*
X39357Y160411D01*
X39417Y160461D01*
X39475Y160513D01*
X39530Y160568D01*
X39582Y160626D01*
X39632Y160686D01*
X39678Y160748D01*
X39722Y160813D01*
X39763Y160880D01*
X39800Y160948D01*
X39834Y161018D01*
X39865Y161090D01*
X39892Y161163D01*
X39916Y161237D01*
X39936Y161312D01*
X39952Y161388D01*
X39965Y161465D01*
X39975Y161542D01*
X39980Y161620D01*
X39982Y161698D01*
X39982Y163335D01*
X38345Y166180D02*
X39982Y168226D01*
X32616Y168226D01*
X32616Y166180D02*
X32616Y170272D01*
X39164Y173495D02*
X39982Y173495D01*
X39982Y177588D01*
X32616Y175541D01*
D13*
X92075Y177673D02*
X92075Y184277D01*
D12*
X101346Y174470D02*
X101346Y172833D01*
X101348Y172755D01*
X101353Y172677D01*
X101363Y172600D01*
X101376Y172523D01*
X101392Y172447D01*
X101412Y172372D01*
X101436Y172298D01*
X101463Y172225D01*
X101494Y172153D01*
X101528Y172083D01*
X101565Y172015D01*
X101606Y171948D01*
X101650Y171883D01*
X101696Y171821D01*
X101746Y171761D01*
X101798Y171703D01*
X101853Y171648D01*
X101911Y171596D01*
X101971Y171546D01*
X102033Y171500D01*
X102098Y171456D01*
X102165Y171415D01*
X102233Y171378D01*
X102303Y171344D01*
X102375Y171313D01*
X102448Y171286D01*
X102522Y171262D01*
X102597Y171242D01*
X102673Y171226D01*
X102750Y171213D01*
X102827Y171203D01*
X102905Y171198D01*
X102983Y171196D01*
X107075Y171196D01*
X107153Y171198D01*
X107231Y171203D01*
X107308Y171213D01*
X107385Y171226D01*
X107461Y171242D01*
X107536Y171262D01*
X107610Y171286D01*
X107683Y171313D01*
X107755Y171344D01*
X107825Y171378D01*
X107894Y171415D01*
X107960Y171456D01*
X108025Y171500D01*
X108087Y171546D01*
X108147Y171596D01*
X108205Y171648D01*
X108260Y171703D01*
X108312Y171761D01*
X108362Y171821D01*
X108408Y171883D01*
X108452Y171948D01*
X108493Y172015D01*
X108530Y172083D01*
X108564Y172153D01*
X108595Y172225D01*
X108622Y172298D01*
X108646Y172372D01*
X108666Y172447D01*
X108682Y172523D01*
X108695Y172600D01*
X108705Y172677D01*
X108710Y172755D01*
X108712Y172833D01*
X108712Y174470D01*
X107075Y177315D02*
X108712Y179361D01*
X101346Y179361D01*
X101346Y177315D02*
X101346Y181407D01*
X103392Y184630D02*
X103481Y184632D01*
X103570Y184638D01*
X103659Y184648D01*
X103747Y184661D01*
X103835Y184678D01*
X103922Y184700D01*
X104007Y184725D01*
X104092Y184753D01*
X104175Y184786D01*
X104257Y184822D01*
X104337Y184861D01*
X104415Y184904D01*
X104491Y184950D01*
X104566Y185000D01*
X104638Y185053D01*
X104707Y185109D01*
X104774Y185168D01*
X104839Y185229D01*
X104900Y185294D01*
X104959Y185361D01*
X105015Y185430D01*
X105068Y185502D01*
X105118Y185577D01*
X105164Y185653D01*
X105207Y185731D01*
X105246Y185811D01*
X105282Y185893D01*
X105315Y185976D01*
X105343Y186061D01*
X105368Y186146D01*
X105390Y186233D01*
X105407Y186321D01*
X105420Y186409D01*
X105430Y186498D01*
X105436Y186587D01*
X105438Y186676D01*
X105436Y186765D01*
X105430Y186854D01*
X105420Y186943D01*
X105407Y187031D01*
X105390Y187119D01*
X105368Y187206D01*
X105343Y187291D01*
X105315Y187376D01*
X105282Y187459D01*
X105246Y187541D01*
X105207Y187621D01*
X105164Y187699D01*
X105118Y187775D01*
X105068Y187850D01*
X105015Y187922D01*
X104959Y187991D01*
X104900Y188058D01*
X104839Y188123D01*
X104774Y188184D01*
X104707Y188243D01*
X104638Y188299D01*
X104566Y188352D01*
X104491Y188402D01*
X104415Y188448D01*
X104337Y188491D01*
X104257Y188530D01*
X104175Y188566D01*
X104092Y188599D01*
X104007Y188627D01*
X103922Y188652D01*
X103835Y188674D01*
X103747Y188691D01*
X103659Y188704D01*
X103570Y188714D01*
X103481Y188720D01*
X103392Y188722D01*
X103303Y188720D01*
X103214Y188714D01*
X103125Y188704D01*
X103037Y188691D01*
X102949Y188674D01*
X102862Y188652D01*
X102777Y188627D01*
X102692Y188599D01*
X102609Y188566D01*
X102527Y188530D01*
X102447Y188491D01*
X102369Y188448D01*
X102293Y188402D01*
X102218Y188352D01*
X102146Y188299D01*
X102077Y188243D01*
X102010Y188184D01*
X101945Y188123D01*
X101884Y188058D01*
X101825Y187991D01*
X101769Y187922D01*
X101716Y187850D01*
X101666Y187775D01*
X101620Y187699D01*
X101577Y187621D01*
X101538Y187541D01*
X101502Y187459D01*
X101469Y187376D01*
X101441Y187291D01*
X101416Y187206D01*
X101394Y187119D01*
X101377Y187031D01*
X101364Y186943D01*
X101354Y186854D01*
X101348Y186765D01*
X101346Y186676D01*
X101348Y186587D01*
X101354Y186498D01*
X101364Y186409D01*
X101377Y186321D01*
X101394Y186233D01*
X101416Y186146D01*
X101441Y186061D01*
X101469Y185976D01*
X101502Y185893D01*
X101538Y185811D01*
X101577Y185731D01*
X101620Y185653D01*
X101666Y185577D01*
X101716Y185502D01*
X101769Y185430D01*
X101825Y185361D01*
X101884Y185294D01*
X101945Y185229D01*
X102010Y185168D01*
X102077Y185109D01*
X102146Y185053D01*
X102218Y185000D01*
X102293Y184950D01*
X102369Y184904D01*
X102447Y184861D01*
X102527Y184822D01*
X102609Y184786D01*
X102692Y184753D01*
X102777Y184725D01*
X102862Y184700D01*
X102949Y184678D01*
X103037Y184661D01*
X103125Y184648D01*
X103214Y184638D01*
X103303Y184632D01*
X103392Y184630D01*
X107075Y185039D02*
X107154Y185041D01*
X107233Y185047D01*
X107312Y185056D01*
X107390Y185069D01*
X107467Y185087D01*
X107543Y185107D01*
X107618Y185132D01*
X107692Y185160D01*
X107765Y185191D01*
X107836Y185227D01*
X107905Y185265D01*
X107972Y185307D01*
X108037Y185352D01*
X108100Y185400D01*
X108161Y185451D01*
X108218Y185505D01*
X108274Y185561D01*
X108326Y185620D01*
X108376Y185682D01*
X108422Y185746D01*
X108466Y185812D01*
X108506Y185880D01*
X108542Y185950D01*
X108576Y186022D01*
X108606Y186096D01*
X108632Y186170D01*
X108655Y186246D01*
X108673Y186323D01*
X108689Y186400D01*
X108700Y186479D01*
X108708Y186557D01*
X108712Y186636D01*
X108712Y186716D01*
X108708Y186795D01*
X108700Y186873D01*
X108689Y186952D01*
X108673Y187029D01*
X108655Y187106D01*
X108632Y187182D01*
X108606Y187256D01*
X108576Y187330D01*
X108542Y187402D01*
X108506Y187472D01*
X108466Y187540D01*
X108422Y187606D01*
X108376Y187670D01*
X108326Y187732D01*
X108274Y187791D01*
X108218Y187847D01*
X108161Y187901D01*
X108100Y187952D01*
X108037Y188000D01*
X107972Y188045D01*
X107905Y188087D01*
X107836Y188125D01*
X107765Y188161D01*
X107692Y188192D01*
X107618Y188220D01*
X107543Y188245D01*
X107467Y188265D01*
X107390Y188283D01*
X107312Y188296D01*
X107233Y188305D01*
X107154Y188311D01*
X107075Y188313D01*
X106996Y188311D01*
X106917Y188305D01*
X106838Y188296D01*
X106760Y188283D01*
X106683Y188265D01*
X106607Y188245D01*
X106532Y188220D01*
X106458Y188192D01*
X106385Y188161D01*
X106314Y188125D01*
X106245Y188087D01*
X106178Y188045D01*
X106113Y188000D01*
X106050Y187952D01*
X105989Y187901D01*
X105932Y187847D01*
X105876Y187791D01*
X105824Y187732D01*
X105774Y187670D01*
X105728Y187606D01*
X105684Y187540D01*
X105644Y187472D01*
X105608Y187402D01*
X105574Y187330D01*
X105544Y187256D01*
X105518Y187182D01*
X105495Y187106D01*
X105477Y187029D01*
X105461Y186952D01*
X105450Y186873D01*
X105442Y186795D01*
X105438Y186716D01*
X105438Y186636D01*
X105442Y186557D01*
X105450Y186479D01*
X105461Y186400D01*
X105477Y186323D01*
X105495Y186246D01*
X105518Y186170D01*
X105544Y186096D01*
X105574Y186022D01*
X105608Y185950D01*
X105644Y185880D01*
X105684Y185812D01*
X105728Y185746D01*
X105774Y185682D01*
X105824Y185620D01*
X105876Y185561D01*
X105932Y185505D01*
X105989Y185451D01*
X106050Y185400D01*
X106113Y185352D01*
X106178Y185307D01*
X106245Y185265D01*
X106314Y185227D01*
X106385Y185191D01*
X106458Y185160D01*
X106532Y185132D01*
X106607Y185107D01*
X106683Y185087D01*
X106760Y185069D01*
X106838Y185056D01*
X106917Y185047D01*
X106996Y185041D01*
X107075Y185039D01*
D13*
X72073Y92393D02*
X72073Y56833D01*
X72073Y92393D02*
X51753Y92393D01*
X51753Y56833D01*
X72073Y56833D01*
D12*
X61897Y52007D02*
X66808Y44641D01*
X61897Y44641D02*
X66808Y52007D01*
X59083Y50370D02*
X57037Y52007D01*
X57037Y44641D01*
X59083Y44641D02*
X54991Y44641D01*
D13*
X-104648Y120650D02*
X-110998Y120650D01*
D12*
X-104519Y128880D02*
X-104519Y136246D01*
X-106565Y136246D01*
X-106654Y136244D01*
X-106743Y136238D01*
X-106832Y136228D01*
X-106920Y136215D01*
X-107008Y136198D01*
X-107095Y136176D01*
X-107180Y136151D01*
X-107265Y136123D01*
X-107348Y136090D01*
X-107430Y136054D01*
X-107510Y136015D01*
X-107588Y135972D01*
X-107664Y135926D01*
X-107739Y135876D01*
X-107811Y135823D01*
X-107880Y135767D01*
X-107947Y135708D01*
X-108012Y135647D01*
X-108073Y135582D01*
X-108132Y135515D01*
X-108188Y135446D01*
X-108241Y135374D01*
X-108291Y135299D01*
X-108337Y135223D01*
X-108380Y135145D01*
X-108419Y135065D01*
X-108455Y134983D01*
X-108488Y134900D01*
X-108516Y134815D01*
X-108541Y134730D01*
X-108563Y134643D01*
X-108580Y134555D01*
X-108593Y134467D01*
X-108603Y134378D01*
X-108609Y134289D01*
X-108611Y134200D01*
X-108609Y134111D01*
X-108603Y134022D01*
X-108593Y133933D01*
X-108580Y133845D01*
X-108563Y133757D01*
X-108541Y133670D01*
X-108516Y133585D01*
X-108488Y133500D01*
X-108455Y133417D01*
X-108419Y133335D01*
X-108380Y133255D01*
X-108337Y133177D01*
X-108291Y133101D01*
X-108241Y133026D01*
X-108188Y132954D01*
X-108132Y132885D01*
X-108073Y132818D01*
X-108012Y132753D01*
X-107947Y132692D01*
X-107880Y132633D01*
X-107811Y132577D01*
X-107739Y132524D01*
X-107664Y132474D01*
X-107588Y132428D01*
X-107510Y132385D01*
X-107430Y132346D01*
X-107348Y132310D01*
X-107265Y132277D01*
X-107180Y132249D01*
X-107095Y132224D01*
X-107008Y132202D01*
X-106920Y132185D01*
X-106832Y132172D01*
X-106743Y132162D01*
X-106654Y132156D01*
X-106565Y132154D01*
X-106565Y132153D02*
X-104519Y132153D01*
X-106974Y132153D02*
X-108611Y128880D01*
X-111783Y128880D02*
X-113829Y128880D01*
X-113918Y128882D01*
X-114007Y128888D01*
X-114096Y128898D01*
X-114184Y128911D01*
X-114272Y128928D01*
X-114359Y128950D01*
X-114444Y128975D01*
X-114529Y129003D01*
X-114612Y129036D01*
X-114694Y129072D01*
X-114774Y129111D01*
X-114852Y129154D01*
X-114928Y129200D01*
X-115003Y129250D01*
X-115075Y129303D01*
X-115144Y129359D01*
X-115211Y129418D01*
X-115276Y129479D01*
X-115337Y129544D01*
X-115396Y129611D01*
X-115452Y129680D01*
X-115505Y129752D01*
X-115555Y129827D01*
X-115601Y129903D01*
X-115644Y129981D01*
X-115683Y130061D01*
X-115719Y130143D01*
X-115752Y130226D01*
X-115780Y130311D01*
X-115805Y130396D01*
X-115827Y130483D01*
X-115844Y130571D01*
X-115857Y130659D01*
X-115867Y130748D01*
X-115873Y130837D01*
X-115875Y130926D01*
X-115873Y131015D01*
X-115867Y131104D01*
X-115857Y131193D01*
X-115844Y131281D01*
X-115827Y131369D01*
X-115805Y131456D01*
X-115780Y131541D01*
X-115752Y131626D01*
X-115719Y131709D01*
X-115683Y131791D01*
X-115644Y131871D01*
X-115601Y131949D01*
X-115555Y132025D01*
X-115505Y132100D01*
X-115452Y132172D01*
X-115396Y132241D01*
X-115337Y132308D01*
X-115276Y132373D01*
X-115211Y132434D01*
X-115144Y132493D01*
X-115075Y132549D01*
X-115003Y132602D01*
X-114928Y132652D01*
X-114852Y132698D01*
X-114774Y132741D01*
X-114694Y132780D01*
X-114612Y132816D01*
X-114529Y132849D01*
X-114444Y132877D01*
X-114359Y132902D01*
X-114272Y132924D01*
X-114184Y132941D01*
X-114096Y132954D01*
X-114007Y132964D01*
X-113918Y132970D01*
X-113829Y132972D01*
X-114238Y136246D02*
X-111783Y136246D01*
X-114238Y136246D02*
X-114317Y136244D01*
X-114396Y136238D01*
X-114475Y136229D01*
X-114553Y136216D01*
X-114630Y136198D01*
X-114706Y136178D01*
X-114781Y136153D01*
X-114855Y136125D01*
X-114928Y136094D01*
X-114999Y136058D01*
X-115068Y136020D01*
X-115135Y135978D01*
X-115200Y135933D01*
X-115263Y135885D01*
X-115324Y135834D01*
X-115381Y135780D01*
X-115437Y135724D01*
X-115489Y135665D01*
X-115539Y135603D01*
X-115585Y135539D01*
X-115629Y135473D01*
X-115669Y135405D01*
X-115705Y135335D01*
X-115739Y135263D01*
X-115769Y135189D01*
X-115795Y135115D01*
X-115818Y135039D01*
X-115836Y134962D01*
X-115852Y134885D01*
X-115863Y134806D01*
X-115871Y134728D01*
X-115875Y134649D01*
X-115875Y134569D01*
X-115871Y134490D01*
X-115863Y134412D01*
X-115852Y134333D01*
X-115836Y134256D01*
X-115818Y134179D01*
X-115795Y134103D01*
X-115769Y134029D01*
X-115739Y133955D01*
X-115705Y133883D01*
X-115669Y133813D01*
X-115629Y133745D01*
X-115585Y133679D01*
X-115539Y133615D01*
X-115489Y133553D01*
X-115437Y133494D01*
X-115381Y133438D01*
X-115324Y133384D01*
X-115263Y133333D01*
X-115200Y133285D01*
X-115135Y133240D01*
X-115068Y133198D01*
X-114999Y133160D01*
X-114928Y133124D01*
X-114855Y133093D01*
X-114781Y133065D01*
X-114706Y133040D01*
X-114630Y133020D01*
X-114553Y133002D01*
X-114475Y132989D01*
X-114396Y132980D01*
X-114317Y132974D01*
X-114238Y132972D01*
X-112601Y132972D01*
D13*
X-41402Y26988D02*
X-35052Y26988D01*
D12*
X-32131Y35306D02*
X-32131Y42672D01*
X-34177Y42672D01*
X-34266Y42670D01*
X-34355Y42664D01*
X-34444Y42654D01*
X-34532Y42641D01*
X-34620Y42624D01*
X-34707Y42602D01*
X-34792Y42577D01*
X-34877Y42549D01*
X-34960Y42516D01*
X-35042Y42480D01*
X-35122Y42441D01*
X-35200Y42398D01*
X-35276Y42352D01*
X-35351Y42302D01*
X-35423Y42249D01*
X-35492Y42193D01*
X-35559Y42134D01*
X-35624Y42073D01*
X-35685Y42008D01*
X-35744Y41941D01*
X-35800Y41872D01*
X-35853Y41800D01*
X-35903Y41725D01*
X-35949Y41649D01*
X-35992Y41571D01*
X-36031Y41491D01*
X-36067Y41409D01*
X-36100Y41326D01*
X-36128Y41241D01*
X-36153Y41156D01*
X-36175Y41069D01*
X-36192Y40981D01*
X-36205Y40893D01*
X-36215Y40804D01*
X-36221Y40715D01*
X-36223Y40626D01*
X-36221Y40537D01*
X-36215Y40448D01*
X-36205Y40359D01*
X-36192Y40271D01*
X-36175Y40183D01*
X-36153Y40096D01*
X-36128Y40011D01*
X-36100Y39926D01*
X-36067Y39843D01*
X-36031Y39761D01*
X-35992Y39681D01*
X-35949Y39603D01*
X-35903Y39527D01*
X-35853Y39452D01*
X-35800Y39380D01*
X-35744Y39311D01*
X-35685Y39244D01*
X-35624Y39179D01*
X-35559Y39118D01*
X-35492Y39059D01*
X-35423Y39003D01*
X-35351Y38950D01*
X-35276Y38900D01*
X-35200Y38854D01*
X-35122Y38811D01*
X-35042Y38772D01*
X-34960Y38736D01*
X-34877Y38703D01*
X-34792Y38675D01*
X-34707Y38650D01*
X-34620Y38628D01*
X-34532Y38611D01*
X-34444Y38598D01*
X-34355Y38588D01*
X-34266Y38582D01*
X-34177Y38580D01*
X-32131Y38580D01*
X-34586Y38580D02*
X-36223Y35306D01*
X-43488Y40831D02*
X-43486Y40916D01*
X-43480Y41001D01*
X-43470Y41085D01*
X-43457Y41169D01*
X-43439Y41253D01*
X-43418Y41335D01*
X-43393Y41416D01*
X-43364Y41496D01*
X-43331Y41575D01*
X-43295Y41652D01*
X-43255Y41727D01*
X-43212Y41801D01*
X-43166Y41872D01*
X-43116Y41941D01*
X-43063Y42008D01*
X-43007Y42072D01*
X-42948Y42133D01*
X-42887Y42192D01*
X-42823Y42248D01*
X-42756Y42301D01*
X-42687Y42351D01*
X-42616Y42397D01*
X-42542Y42440D01*
X-42467Y42480D01*
X-42390Y42516D01*
X-42311Y42549D01*
X-42231Y42578D01*
X-42150Y42603D01*
X-42068Y42624D01*
X-41984Y42642D01*
X-41900Y42655D01*
X-41816Y42665D01*
X-41731Y42671D01*
X-41646Y42673D01*
X-41646Y42672D02*
X-41550Y42670D01*
X-41454Y42664D01*
X-41359Y42654D01*
X-41264Y42641D01*
X-41169Y42623D01*
X-41076Y42602D01*
X-40983Y42577D01*
X-40892Y42548D01*
X-40801Y42516D01*
X-40712Y42480D01*
X-40625Y42440D01*
X-40539Y42397D01*
X-40455Y42351D01*
X-40373Y42301D01*
X-40293Y42247D01*
X-40216Y42191D01*
X-40141Y42131D01*
X-40068Y42069D01*
X-39998Y42003D01*
X-39930Y41935D01*
X-39865Y41864D01*
X-39804Y41791D01*
X-39745Y41715D01*
X-39689Y41636D01*
X-39637Y41556D01*
X-39588Y41473D01*
X-39542Y41389D01*
X-39500Y41303D01*
X-39462Y41215D01*
X-39427Y41126D01*
X-39395Y41035D01*
X-42873Y39399D02*
X-42933Y39458D01*
X-42990Y39520D01*
X-43045Y39584D01*
X-43096Y39651D01*
X-43145Y39720D01*
X-43191Y39790D01*
X-43234Y39863D01*
X-43274Y39937D01*
X-43310Y40013D01*
X-43343Y40091D01*
X-43373Y40170D01*
X-43400Y40250D01*
X-43423Y40331D01*
X-43442Y40413D01*
X-43458Y40495D01*
X-43471Y40579D01*
X-43480Y40663D01*
X-43485Y40747D01*
X-43487Y40831D01*
X-42873Y39398D02*
X-39395Y35306D01*
X-43487Y35306D01*
D13*
X34925Y282702D02*
X34925Y289052D01*
D12*
X26695Y279413D02*
X19329Y279413D01*
X26695Y279413D02*
X26695Y281459D01*
X26693Y281548D01*
X26687Y281637D01*
X26677Y281726D01*
X26664Y281814D01*
X26647Y281902D01*
X26625Y281989D01*
X26600Y282074D01*
X26572Y282159D01*
X26539Y282242D01*
X26503Y282324D01*
X26464Y282404D01*
X26421Y282482D01*
X26375Y282558D01*
X26325Y282633D01*
X26272Y282705D01*
X26216Y282774D01*
X26157Y282841D01*
X26096Y282906D01*
X26031Y282967D01*
X25964Y283026D01*
X25895Y283082D01*
X25823Y283135D01*
X25748Y283185D01*
X25672Y283231D01*
X25594Y283274D01*
X25514Y283313D01*
X25432Y283349D01*
X25349Y283382D01*
X25264Y283410D01*
X25179Y283435D01*
X25092Y283457D01*
X25004Y283474D01*
X24916Y283487D01*
X24827Y283497D01*
X24738Y283503D01*
X24649Y283505D01*
X24560Y283503D01*
X24471Y283497D01*
X24382Y283487D01*
X24294Y283474D01*
X24206Y283457D01*
X24119Y283435D01*
X24034Y283410D01*
X23949Y283382D01*
X23866Y283349D01*
X23784Y283313D01*
X23704Y283274D01*
X23626Y283231D01*
X23550Y283185D01*
X23475Y283135D01*
X23403Y283082D01*
X23334Y283026D01*
X23267Y282967D01*
X23202Y282906D01*
X23141Y282841D01*
X23082Y282774D01*
X23026Y282705D01*
X22973Y282633D01*
X22923Y282558D01*
X22877Y282482D01*
X22834Y282404D01*
X22795Y282324D01*
X22759Y282242D01*
X22726Y282159D01*
X22698Y282074D01*
X22673Y281989D01*
X22651Y281902D01*
X22634Y281814D01*
X22621Y281726D01*
X22611Y281637D01*
X22605Y281548D01*
X22603Y281459D01*
X22603Y279413D01*
X22603Y281868D02*
X19329Y283505D01*
X25058Y286677D02*
X26695Y288723D01*
X19329Y288723D01*
X19329Y286677D02*
X19329Y290769D01*
D13*
X109411Y133350D02*
X116015Y133350D01*
D12*
X115457Y117856D02*
X113820Y117856D01*
X115457Y117856D02*
X115535Y117858D01*
X115613Y117863D01*
X115690Y117873D01*
X115767Y117886D01*
X115843Y117902D01*
X115918Y117922D01*
X115992Y117946D01*
X116065Y117973D01*
X116137Y118004D01*
X116207Y118038D01*
X116276Y118075D01*
X116342Y118116D01*
X116407Y118160D01*
X116469Y118206D01*
X116529Y118256D01*
X116587Y118308D01*
X116642Y118363D01*
X116694Y118421D01*
X116744Y118481D01*
X116790Y118543D01*
X116834Y118608D01*
X116875Y118675D01*
X116912Y118743D01*
X116946Y118813D01*
X116977Y118885D01*
X117004Y118958D01*
X117028Y119032D01*
X117048Y119107D01*
X117064Y119183D01*
X117077Y119260D01*
X117087Y119337D01*
X117092Y119415D01*
X117094Y119493D01*
X117094Y123585D01*
X117092Y123663D01*
X117087Y123741D01*
X117077Y123818D01*
X117064Y123895D01*
X117048Y123971D01*
X117028Y124046D01*
X117004Y124120D01*
X116977Y124193D01*
X116946Y124265D01*
X116912Y124335D01*
X116875Y124404D01*
X116834Y124470D01*
X116790Y124535D01*
X116744Y124597D01*
X116694Y124657D01*
X116642Y124715D01*
X116587Y124770D01*
X116529Y124822D01*
X116469Y124872D01*
X116407Y124918D01*
X116342Y124962D01*
X116276Y125003D01*
X116207Y125040D01*
X116137Y125074D01*
X116065Y125105D01*
X115992Y125132D01*
X115918Y125156D01*
X115843Y125176D01*
X115767Y125192D01*
X115690Y125205D01*
X115613Y125215D01*
X115535Y125220D01*
X115457Y125222D01*
X113820Y125222D01*
X110975Y123585D02*
X108929Y125222D01*
X108929Y117856D01*
X110975Y117856D02*
X106883Y117856D01*
D13*
X64748Y112753D02*
X58144Y112753D01*
D12*
X87954Y108372D02*
X89591Y108372D01*
X89669Y108374D01*
X89747Y108379D01*
X89824Y108389D01*
X89901Y108402D01*
X89977Y108418D01*
X90052Y108438D01*
X90126Y108462D01*
X90199Y108489D01*
X90271Y108520D01*
X90341Y108554D01*
X90410Y108591D01*
X90476Y108632D01*
X90541Y108676D01*
X90603Y108722D01*
X90663Y108772D01*
X90721Y108824D01*
X90776Y108879D01*
X90828Y108937D01*
X90878Y108997D01*
X90924Y109059D01*
X90968Y109124D01*
X91009Y109191D01*
X91046Y109259D01*
X91080Y109329D01*
X91111Y109401D01*
X91138Y109474D01*
X91162Y109548D01*
X91182Y109623D01*
X91198Y109699D01*
X91211Y109776D01*
X91221Y109853D01*
X91226Y109931D01*
X91228Y110009D01*
X91228Y114101D01*
X91226Y114179D01*
X91221Y114257D01*
X91211Y114334D01*
X91198Y114411D01*
X91182Y114487D01*
X91162Y114562D01*
X91138Y114636D01*
X91111Y114709D01*
X91080Y114781D01*
X91046Y114851D01*
X91009Y114920D01*
X90968Y114986D01*
X90924Y115051D01*
X90878Y115113D01*
X90828Y115173D01*
X90776Y115231D01*
X90721Y115286D01*
X90663Y115338D01*
X90603Y115388D01*
X90541Y115434D01*
X90476Y115478D01*
X90410Y115519D01*
X90341Y115556D01*
X90271Y115590D01*
X90199Y115621D01*
X90126Y115648D01*
X90052Y115672D01*
X89977Y115692D01*
X89901Y115708D01*
X89824Y115721D01*
X89747Y115731D01*
X89669Y115736D01*
X89591Y115738D01*
X87954Y115738D01*
X82858Y115738D02*
X82773Y115736D01*
X82688Y115730D01*
X82604Y115720D01*
X82520Y115707D01*
X82436Y115689D01*
X82354Y115668D01*
X82273Y115643D01*
X82193Y115614D01*
X82114Y115581D01*
X82037Y115545D01*
X81962Y115505D01*
X81888Y115462D01*
X81817Y115416D01*
X81748Y115366D01*
X81681Y115313D01*
X81617Y115257D01*
X81556Y115198D01*
X81497Y115137D01*
X81441Y115073D01*
X81388Y115006D01*
X81338Y114937D01*
X81292Y114866D01*
X81249Y114792D01*
X81209Y114717D01*
X81173Y114640D01*
X81140Y114561D01*
X81111Y114481D01*
X81086Y114400D01*
X81065Y114318D01*
X81047Y114234D01*
X81034Y114150D01*
X81024Y114066D01*
X81018Y113981D01*
X81016Y113896D01*
X82858Y115738D02*
X82954Y115736D01*
X83050Y115730D01*
X83145Y115720D01*
X83240Y115707D01*
X83335Y115689D01*
X83428Y115668D01*
X83521Y115643D01*
X83612Y115614D01*
X83703Y115582D01*
X83792Y115546D01*
X83879Y115506D01*
X83965Y115463D01*
X84049Y115417D01*
X84131Y115367D01*
X84211Y115313D01*
X84288Y115257D01*
X84363Y115197D01*
X84436Y115135D01*
X84506Y115069D01*
X84574Y115001D01*
X84639Y114930D01*
X84700Y114857D01*
X84759Y114781D01*
X84815Y114702D01*
X84867Y114622D01*
X84916Y114539D01*
X84962Y114455D01*
X85004Y114369D01*
X85042Y114281D01*
X85077Y114192D01*
X85109Y114101D01*
X81630Y112464D02*
X81570Y112523D01*
X81513Y112585D01*
X81458Y112649D01*
X81407Y112716D01*
X81358Y112785D01*
X81312Y112855D01*
X81269Y112928D01*
X81229Y113002D01*
X81193Y113078D01*
X81160Y113156D01*
X81130Y113235D01*
X81103Y113315D01*
X81080Y113396D01*
X81061Y113478D01*
X81045Y113560D01*
X81032Y113644D01*
X81023Y113728D01*
X81018Y113812D01*
X81016Y113896D01*
X81630Y112464D02*
X85109Y108372D01*
X81016Y108372D01*
D13*
X64748Y103188D02*
X58144Y103188D01*
D12*
X87954Y98806D02*
X89591Y98806D01*
X89669Y98808D01*
X89747Y98813D01*
X89824Y98823D01*
X89901Y98836D01*
X89977Y98852D01*
X90052Y98872D01*
X90126Y98896D01*
X90199Y98923D01*
X90271Y98954D01*
X90341Y98988D01*
X90410Y99025D01*
X90476Y99066D01*
X90541Y99110D01*
X90603Y99156D01*
X90663Y99206D01*
X90721Y99258D01*
X90776Y99313D01*
X90828Y99371D01*
X90878Y99431D01*
X90924Y99493D01*
X90968Y99558D01*
X91009Y99625D01*
X91046Y99693D01*
X91080Y99763D01*
X91111Y99835D01*
X91138Y99908D01*
X91162Y99982D01*
X91182Y100057D01*
X91198Y100133D01*
X91211Y100210D01*
X91221Y100287D01*
X91226Y100365D01*
X91228Y100443D01*
X91228Y104535D01*
X91226Y104613D01*
X91221Y104691D01*
X91211Y104768D01*
X91198Y104845D01*
X91182Y104921D01*
X91162Y104996D01*
X91138Y105070D01*
X91111Y105143D01*
X91080Y105215D01*
X91046Y105285D01*
X91009Y105354D01*
X90968Y105420D01*
X90924Y105485D01*
X90878Y105547D01*
X90828Y105607D01*
X90776Y105665D01*
X90721Y105720D01*
X90663Y105772D01*
X90603Y105822D01*
X90541Y105868D01*
X90476Y105912D01*
X90410Y105953D01*
X90341Y105990D01*
X90271Y106024D01*
X90199Y106055D01*
X90126Y106082D01*
X90052Y106106D01*
X89977Y106126D01*
X89901Y106142D01*
X89824Y106155D01*
X89747Y106165D01*
X89669Y106170D01*
X89591Y106172D01*
X87954Y106172D01*
X83472Y106172D02*
X85109Y100443D01*
X81016Y100443D01*
X82244Y102080D02*
X82244Y98806D01*
D13*
X-46038Y87440D02*
X-46038Y80836D01*
D12*
X-47435Y59356D02*
X-47435Y57720D01*
X-47433Y57642D01*
X-47428Y57564D01*
X-47418Y57487D01*
X-47405Y57410D01*
X-47389Y57334D01*
X-47369Y57259D01*
X-47345Y57185D01*
X-47318Y57112D01*
X-47287Y57040D01*
X-47253Y56970D01*
X-47216Y56902D01*
X-47175Y56835D01*
X-47131Y56770D01*
X-47085Y56708D01*
X-47035Y56648D01*
X-46983Y56590D01*
X-46928Y56535D01*
X-46870Y56483D01*
X-46810Y56433D01*
X-46748Y56387D01*
X-46683Y56343D01*
X-46617Y56302D01*
X-46548Y56265D01*
X-46478Y56231D01*
X-46406Y56200D01*
X-46333Y56173D01*
X-46259Y56149D01*
X-46184Y56129D01*
X-46108Y56113D01*
X-46031Y56100D01*
X-45954Y56090D01*
X-45876Y56085D01*
X-45798Y56083D01*
X-41705Y56083D01*
X-41625Y56085D01*
X-41545Y56091D01*
X-41465Y56101D01*
X-41386Y56114D01*
X-41307Y56132D01*
X-41230Y56153D01*
X-41154Y56179D01*
X-41079Y56208D01*
X-41005Y56240D01*
X-40933Y56276D01*
X-40863Y56316D01*
X-40796Y56359D01*
X-40730Y56405D01*
X-40667Y56455D01*
X-40606Y56507D01*
X-40547Y56562D01*
X-40492Y56621D01*
X-40440Y56681D01*
X-40390Y56745D01*
X-40344Y56810D01*
X-40301Y56878D01*
X-40261Y56948D01*
X-40225Y57020D01*
X-40193Y57094D01*
X-40164Y57168D01*
X-40139Y57245D01*
X-40117Y57322D01*
X-40099Y57401D01*
X-40086Y57480D01*
X-40076Y57559D01*
X-40070Y57640D01*
X-40068Y57720D01*
X-40069Y57720D02*
X-40069Y59356D01*
X-43342Y62202D02*
X-43342Y64657D01*
X-43344Y64735D01*
X-43349Y64813D01*
X-43359Y64890D01*
X-43372Y64967D01*
X-43388Y65043D01*
X-43408Y65118D01*
X-43432Y65192D01*
X-43459Y65265D01*
X-43490Y65337D01*
X-43524Y65407D01*
X-43561Y65476D01*
X-43602Y65542D01*
X-43646Y65607D01*
X-43692Y65669D01*
X-43742Y65729D01*
X-43794Y65787D01*
X-43849Y65842D01*
X-43907Y65894D01*
X-43967Y65944D01*
X-44029Y65990D01*
X-44094Y66034D01*
X-44161Y66075D01*
X-44229Y66112D01*
X-44299Y66146D01*
X-44371Y66177D01*
X-44444Y66204D01*
X-44518Y66228D01*
X-44593Y66248D01*
X-44669Y66264D01*
X-44746Y66277D01*
X-44823Y66287D01*
X-44901Y66292D01*
X-44979Y66294D01*
X-45388Y66294D01*
X-45477Y66292D01*
X-45566Y66286D01*
X-45655Y66276D01*
X-45743Y66263D01*
X-45831Y66246D01*
X-45918Y66224D01*
X-46003Y66199D01*
X-46088Y66171D01*
X-46171Y66138D01*
X-46253Y66102D01*
X-46333Y66063D01*
X-46411Y66020D01*
X-46487Y65974D01*
X-46562Y65924D01*
X-46634Y65871D01*
X-46703Y65815D01*
X-46770Y65756D01*
X-46835Y65695D01*
X-46896Y65630D01*
X-46955Y65563D01*
X-47011Y65494D01*
X-47064Y65422D01*
X-47114Y65347D01*
X-47160Y65271D01*
X-47203Y65193D01*
X-47242Y65113D01*
X-47278Y65031D01*
X-47311Y64948D01*
X-47339Y64863D01*
X-47364Y64778D01*
X-47386Y64691D01*
X-47403Y64603D01*
X-47416Y64515D01*
X-47426Y64426D01*
X-47432Y64337D01*
X-47434Y64248D01*
X-47432Y64159D01*
X-47426Y64070D01*
X-47416Y63981D01*
X-47403Y63893D01*
X-47386Y63805D01*
X-47364Y63718D01*
X-47339Y63633D01*
X-47311Y63548D01*
X-47278Y63465D01*
X-47242Y63383D01*
X-47203Y63303D01*
X-47160Y63225D01*
X-47114Y63149D01*
X-47064Y63074D01*
X-47011Y63002D01*
X-46955Y62933D01*
X-46896Y62866D01*
X-46835Y62801D01*
X-46770Y62740D01*
X-46703Y62681D01*
X-46634Y62625D01*
X-46562Y62572D01*
X-46487Y62522D01*
X-46411Y62476D01*
X-46333Y62433D01*
X-46253Y62394D01*
X-46171Y62358D01*
X-46088Y62325D01*
X-46003Y62297D01*
X-45918Y62272D01*
X-45831Y62250D01*
X-45743Y62233D01*
X-45655Y62220D01*
X-45566Y62210D01*
X-45477Y62204D01*
X-45388Y62202D01*
X-43342Y62202D01*
X-43228Y62204D01*
X-43114Y62210D01*
X-43000Y62220D01*
X-42886Y62234D01*
X-42773Y62252D01*
X-42661Y62274D01*
X-42550Y62299D01*
X-42440Y62329D01*
X-42330Y62362D01*
X-42222Y62399D01*
X-42116Y62440D01*
X-42010Y62485D01*
X-41907Y62533D01*
X-41805Y62585D01*
X-41705Y62641D01*
X-41607Y62699D01*
X-41511Y62762D01*
X-41418Y62827D01*
X-41326Y62896D01*
X-41238Y62968D01*
X-41151Y63043D01*
X-41068Y63121D01*
X-40987Y63202D01*
X-40909Y63285D01*
X-40834Y63371D01*
X-40762Y63460D01*
X-40693Y63552D01*
X-40628Y63645D01*
X-40566Y63741D01*
X-40507Y63839D01*
X-40451Y63939D01*
X-40399Y64041D01*
X-40351Y64144D01*
X-40306Y64249D01*
X-40265Y64356D01*
X-40228Y64464D01*
X-40195Y64574D01*
X-40165Y64684D01*
X-40140Y64795D01*
X-40118Y64907D01*
X-40100Y65020D01*
X-40086Y65134D01*
X-40076Y65248D01*
X-40070Y65362D01*
X-40068Y65476D01*
D11*
X41758Y128811D02*
X41758Y148940D01*
D13*
X58611Y138768D02*
X65215Y138768D01*
D12*
X90008Y135974D02*
X91645Y135974D01*
X91723Y135976D01*
X91801Y135981D01*
X91878Y135991D01*
X91955Y136004D01*
X92031Y136020D01*
X92106Y136040D01*
X92180Y136064D01*
X92253Y136091D01*
X92325Y136122D01*
X92395Y136156D01*
X92464Y136193D01*
X92530Y136234D01*
X92595Y136278D01*
X92657Y136324D01*
X92717Y136374D01*
X92775Y136426D01*
X92830Y136481D01*
X92882Y136539D01*
X92932Y136599D01*
X92978Y136661D01*
X93022Y136726D01*
X93063Y136793D01*
X93100Y136861D01*
X93134Y136931D01*
X93165Y137003D01*
X93192Y137076D01*
X93216Y137150D01*
X93236Y137225D01*
X93252Y137301D01*
X93265Y137378D01*
X93275Y137455D01*
X93280Y137533D01*
X93282Y137611D01*
X93282Y141703D01*
X93280Y141781D01*
X93275Y141859D01*
X93265Y141936D01*
X93252Y142013D01*
X93236Y142089D01*
X93216Y142164D01*
X93192Y142238D01*
X93165Y142311D01*
X93134Y142383D01*
X93100Y142453D01*
X93063Y142522D01*
X93022Y142588D01*
X92978Y142653D01*
X92932Y142715D01*
X92882Y142775D01*
X92830Y142833D01*
X92775Y142888D01*
X92717Y142940D01*
X92657Y142990D01*
X92595Y143036D01*
X92530Y143080D01*
X92464Y143121D01*
X92395Y143158D01*
X92325Y143192D01*
X92253Y143223D01*
X92180Y143250D01*
X92106Y143274D01*
X92031Y143294D01*
X91955Y143310D01*
X91878Y143323D01*
X91801Y143333D01*
X91723Y143338D01*
X91645Y143340D01*
X90008Y143340D01*
X87162Y135974D02*
X85116Y135974D01*
X85027Y135976D01*
X84938Y135982D01*
X84849Y135992D01*
X84761Y136005D01*
X84673Y136022D01*
X84586Y136044D01*
X84501Y136069D01*
X84416Y136097D01*
X84333Y136130D01*
X84251Y136166D01*
X84171Y136205D01*
X84093Y136248D01*
X84017Y136294D01*
X83942Y136344D01*
X83870Y136397D01*
X83801Y136453D01*
X83734Y136512D01*
X83669Y136573D01*
X83608Y136638D01*
X83549Y136705D01*
X83493Y136774D01*
X83440Y136846D01*
X83390Y136921D01*
X83344Y136997D01*
X83301Y137075D01*
X83262Y137155D01*
X83226Y137237D01*
X83193Y137320D01*
X83165Y137405D01*
X83140Y137490D01*
X83118Y137577D01*
X83101Y137665D01*
X83088Y137753D01*
X83078Y137842D01*
X83072Y137931D01*
X83070Y138020D01*
X83072Y138109D01*
X83078Y138198D01*
X83088Y138287D01*
X83101Y138375D01*
X83118Y138463D01*
X83140Y138550D01*
X83165Y138635D01*
X83193Y138720D01*
X83226Y138803D01*
X83262Y138885D01*
X83301Y138965D01*
X83344Y139043D01*
X83390Y139119D01*
X83440Y139194D01*
X83493Y139266D01*
X83549Y139335D01*
X83608Y139402D01*
X83669Y139467D01*
X83734Y139528D01*
X83801Y139587D01*
X83870Y139643D01*
X83942Y139696D01*
X84017Y139746D01*
X84093Y139792D01*
X84171Y139835D01*
X84251Y139874D01*
X84333Y139910D01*
X84416Y139943D01*
X84501Y139971D01*
X84586Y139996D01*
X84673Y140018D01*
X84761Y140035D01*
X84849Y140048D01*
X84938Y140058D01*
X85027Y140064D01*
X85116Y140066D01*
X84707Y143340D02*
X87162Y143340D01*
X84707Y143340D02*
X84628Y143338D01*
X84549Y143332D01*
X84470Y143323D01*
X84392Y143310D01*
X84315Y143292D01*
X84239Y143272D01*
X84164Y143247D01*
X84090Y143219D01*
X84017Y143188D01*
X83946Y143152D01*
X83877Y143114D01*
X83810Y143072D01*
X83745Y143027D01*
X83682Y142979D01*
X83621Y142928D01*
X83564Y142874D01*
X83508Y142818D01*
X83456Y142759D01*
X83406Y142697D01*
X83360Y142633D01*
X83316Y142567D01*
X83276Y142499D01*
X83240Y142429D01*
X83206Y142357D01*
X83176Y142283D01*
X83150Y142209D01*
X83127Y142133D01*
X83109Y142056D01*
X83093Y141979D01*
X83082Y141900D01*
X83074Y141822D01*
X83070Y141743D01*
X83070Y141663D01*
X83074Y141584D01*
X83082Y141506D01*
X83093Y141427D01*
X83109Y141350D01*
X83127Y141273D01*
X83150Y141197D01*
X83176Y141123D01*
X83206Y141049D01*
X83240Y140977D01*
X83276Y140907D01*
X83316Y140839D01*
X83360Y140773D01*
X83406Y140709D01*
X83456Y140647D01*
X83508Y140588D01*
X83564Y140532D01*
X83621Y140478D01*
X83682Y140427D01*
X83745Y140379D01*
X83810Y140334D01*
X83877Y140292D01*
X83946Y140254D01*
X84017Y140218D01*
X84090Y140187D01*
X84164Y140159D01*
X84239Y140134D01*
X84315Y140114D01*
X84392Y140096D01*
X84470Y140083D01*
X84549Y140074D01*
X84628Y140068D01*
X84707Y140066D01*
X86344Y140066D01*
D11*
X41758Y134714D02*
X41758Y114585D01*
D13*
X58611Y124541D02*
X65215Y124541D01*
D12*
X90008Y121747D02*
X91645Y121747D01*
X91723Y121749D01*
X91801Y121754D01*
X91878Y121764D01*
X91955Y121777D01*
X92031Y121793D01*
X92106Y121813D01*
X92180Y121837D01*
X92253Y121864D01*
X92325Y121895D01*
X92395Y121929D01*
X92464Y121966D01*
X92530Y122007D01*
X92595Y122051D01*
X92657Y122097D01*
X92717Y122147D01*
X92775Y122199D01*
X92830Y122254D01*
X92882Y122312D01*
X92932Y122372D01*
X92978Y122434D01*
X93022Y122499D01*
X93063Y122566D01*
X93100Y122634D01*
X93134Y122704D01*
X93165Y122776D01*
X93192Y122849D01*
X93216Y122923D01*
X93236Y122998D01*
X93252Y123074D01*
X93265Y123151D01*
X93275Y123228D01*
X93280Y123306D01*
X93282Y123384D01*
X93282Y127477D01*
X93280Y127555D01*
X93275Y127633D01*
X93265Y127710D01*
X93252Y127787D01*
X93236Y127863D01*
X93216Y127938D01*
X93192Y128012D01*
X93165Y128085D01*
X93134Y128157D01*
X93100Y128227D01*
X93063Y128296D01*
X93022Y128362D01*
X92978Y128427D01*
X92932Y128489D01*
X92882Y128549D01*
X92830Y128607D01*
X92775Y128662D01*
X92717Y128714D01*
X92657Y128764D01*
X92595Y128810D01*
X92530Y128854D01*
X92464Y128895D01*
X92395Y128932D01*
X92325Y128966D01*
X92253Y128997D01*
X92180Y129024D01*
X92106Y129048D01*
X92031Y129068D01*
X91955Y129084D01*
X91878Y129097D01*
X91801Y129107D01*
X91723Y129112D01*
X91645Y129114D01*
X91645Y129113D02*
X90008Y129113D01*
X87162Y121747D02*
X84707Y121747D01*
X84627Y121749D01*
X84547Y121755D01*
X84467Y121765D01*
X84388Y121778D01*
X84309Y121796D01*
X84232Y121817D01*
X84156Y121843D01*
X84081Y121872D01*
X84007Y121904D01*
X83935Y121940D01*
X83865Y121980D01*
X83798Y122023D01*
X83732Y122069D01*
X83669Y122119D01*
X83608Y122171D01*
X83549Y122226D01*
X83494Y122285D01*
X83442Y122345D01*
X83392Y122409D01*
X83346Y122474D01*
X83303Y122542D01*
X83263Y122612D01*
X83227Y122684D01*
X83195Y122758D01*
X83166Y122832D01*
X83141Y122909D01*
X83119Y122986D01*
X83101Y123065D01*
X83088Y123144D01*
X83078Y123223D01*
X83072Y123304D01*
X83070Y123384D01*
X83070Y124203D01*
X83072Y124281D01*
X83077Y124359D01*
X83087Y124436D01*
X83100Y124513D01*
X83116Y124589D01*
X83136Y124664D01*
X83160Y124738D01*
X83187Y124811D01*
X83218Y124883D01*
X83252Y124953D01*
X83289Y125022D01*
X83330Y125088D01*
X83374Y125153D01*
X83420Y125215D01*
X83470Y125275D01*
X83522Y125333D01*
X83577Y125388D01*
X83635Y125440D01*
X83695Y125490D01*
X83757Y125536D01*
X83822Y125580D01*
X83889Y125621D01*
X83957Y125658D01*
X84027Y125692D01*
X84099Y125723D01*
X84172Y125750D01*
X84246Y125774D01*
X84321Y125794D01*
X84397Y125810D01*
X84474Y125823D01*
X84551Y125833D01*
X84629Y125838D01*
X84707Y125840D01*
X87162Y125840D01*
X87162Y129113D01*
X83070Y129113D01*
D11*
X-46977Y104292D02*
X-67107Y104292D01*
D13*
X-57150Y87440D02*
X-57150Y80836D01*
D12*
X-63310Y57769D02*
X-63310Y56132D01*
X-63308Y56054D01*
X-63303Y55976D01*
X-63293Y55899D01*
X-63280Y55822D01*
X-63264Y55746D01*
X-63244Y55671D01*
X-63220Y55597D01*
X-63193Y55524D01*
X-63162Y55452D01*
X-63128Y55382D01*
X-63091Y55314D01*
X-63050Y55247D01*
X-63006Y55182D01*
X-62960Y55120D01*
X-62910Y55060D01*
X-62858Y55002D01*
X-62803Y54947D01*
X-62745Y54895D01*
X-62685Y54845D01*
X-62623Y54799D01*
X-62558Y54755D01*
X-62492Y54714D01*
X-62423Y54677D01*
X-62353Y54643D01*
X-62281Y54612D01*
X-62208Y54585D01*
X-62134Y54561D01*
X-62059Y54541D01*
X-61983Y54525D01*
X-61906Y54512D01*
X-61829Y54502D01*
X-61751Y54497D01*
X-61673Y54495D01*
X-57580Y54495D01*
X-57500Y54497D01*
X-57420Y54503D01*
X-57340Y54513D01*
X-57261Y54526D01*
X-57182Y54544D01*
X-57105Y54565D01*
X-57029Y54591D01*
X-56954Y54620D01*
X-56880Y54652D01*
X-56808Y54688D01*
X-56738Y54728D01*
X-56671Y54771D01*
X-56605Y54817D01*
X-56542Y54867D01*
X-56481Y54919D01*
X-56422Y54974D01*
X-56367Y55033D01*
X-56315Y55093D01*
X-56265Y55157D01*
X-56219Y55222D01*
X-56176Y55290D01*
X-56136Y55360D01*
X-56100Y55432D01*
X-56068Y55506D01*
X-56039Y55580D01*
X-56014Y55657D01*
X-55992Y55734D01*
X-55974Y55813D01*
X-55961Y55892D01*
X-55951Y55971D01*
X-55945Y56052D01*
X-55943Y56132D01*
X-55944Y56132D02*
X-55944Y57769D01*
X-55944Y60614D02*
X-56762Y60614D01*
X-55944Y60614D02*
X-55944Y64707D01*
X-63310Y62660D01*
D11*
X33438Y47308D02*
X38418Y47308D01*
X-35243Y47308D02*
X-35243Y52288D01*
X-35243Y120968D02*
X-30263Y120968D01*
X38418Y120968D02*
X38418Y115988D01*
X38418Y52288D02*
X38418Y47308D01*
X-30263Y47308D02*
X-35243Y47308D01*
X-35243Y115988D02*
X-35243Y120968D01*
X33438Y120968D02*
X38418Y120968D01*
D14*
X32266Y129096D02*
X32268Y129192D01*
X32274Y129288D01*
X32284Y129384D01*
X32298Y129479D01*
X32315Y129574D01*
X32337Y129667D01*
X32362Y129760D01*
X32391Y129852D01*
X32424Y129942D01*
X32461Y130031D01*
X32501Y130118D01*
X32545Y130204D01*
X32592Y130288D01*
X32643Y130370D01*
X32696Y130449D01*
X32754Y130526D01*
X32814Y130601D01*
X32877Y130674D01*
X32943Y130744D01*
X33013Y130810D01*
X33084Y130875D01*
X33159Y130936D01*
X33235Y130994D01*
X33314Y131048D01*
X33396Y131100D01*
X33479Y131148D01*
X33564Y131192D01*
X33651Y131234D01*
X33740Y131271D01*
X33830Y131305D01*
X33921Y131335D01*
X34013Y131361D01*
X34107Y131384D01*
X34201Y131402D01*
X34296Y131417D01*
X34392Y131428D01*
X34488Y131435D01*
X34584Y131438D01*
X34680Y131437D01*
X34776Y131432D01*
X34872Y131423D01*
X34967Y131410D01*
X35062Y131394D01*
X35156Y131373D01*
X35249Y131349D01*
X35341Y131320D01*
X35432Y131288D01*
X35521Y131253D01*
X35609Y131213D01*
X35695Y131171D01*
X35779Y131124D01*
X35861Y131074D01*
X35941Y131021D01*
X36019Y130965D01*
X36095Y130905D01*
X36168Y130843D01*
X36238Y130777D01*
X36306Y130709D01*
X36371Y130638D01*
X36433Y130564D01*
X36491Y130488D01*
X36547Y130410D01*
X36599Y130329D01*
X36648Y130246D01*
X36694Y130161D01*
X36736Y130075D01*
X36774Y129987D01*
X36809Y129897D01*
X36840Y129806D01*
X36867Y129714D01*
X36891Y129620D01*
X36910Y129526D01*
X36926Y129431D01*
X36938Y129336D01*
X36946Y129240D01*
X36950Y129144D01*
X36950Y129048D01*
X36946Y128952D01*
X36938Y128856D01*
X36926Y128761D01*
X36910Y128666D01*
X36891Y128572D01*
X36867Y128478D01*
X36840Y128386D01*
X36809Y128295D01*
X36774Y128205D01*
X36736Y128117D01*
X36694Y128031D01*
X36648Y127946D01*
X36599Y127863D01*
X36547Y127782D01*
X36491Y127704D01*
X36433Y127628D01*
X36371Y127554D01*
X36306Y127483D01*
X36238Y127415D01*
X36168Y127349D01*
X36095Y127287D01*
X36019Y127227D01*
X35941Y127171D01*
X35861Y127118D01*
X35779Y127068D01*
X35695Y127021D01*
X35609Y126979D01*
X35521Y126939D01*
X35432Y126904D01*
X35341Y126872D01*
X35249Y126843D01*
X35156Y126819D01*
X35062Y126798D01*
X34967Y126782D01*
X34872Y126769D01*
X34776Y126760D01*
X34680Y126755D01*
X34584Y126754D01*
X34488Y126757D01*
X34392Y126764D01*
X34296Y126775D01*
X34201Y126790D01*
X34107Y126808D01*
X34013Y126831D01*
X33921Y126857D01*
X33830Y126887D01*
X33740Y126921D01*
X33651Y126958D01*
X33564Y127000D01*
X33479Y127044D01*
X33396Y127092D01*
X33314Y127144D01*
X33235Y127198D01*
X33159Y127256D01*
X33084Y127317D01*
X33013Y127382D01*
X32943Y127448D01*
X32877Y127518D01*
X32814Y127591D01*
X32754Y127666D01*
X32696Y127743D01*
X32643Y127822D01*
X32592Y127904D01*
X32545Y127988D01*
X32501Y128074D01*
X32461Y128161D01*
X32424Y128250D01*
X32391Y128340D01*
X32362Y128432D01*
X32337Y128525D01*
X32315Y128618D01*
X32298Y128713D01*
X32284Y128808D01*
X32274Y128904D01*
X32268Y129000D01*
X32266Y129096D01*
D12*
X-4309Y130507D02*
X-4309Y139129D01*
X-4309Y130507D02*
X-4311Y130393D01*
X-4317Y130278D01*
X-4327Y130164D01*
X-4341Y130051D01*
X-4358Y129937D01*
X-4380Y129825D01*
X-4405Y129713D01*
X-4435Y129603D01*
X-4468Y129493D01*
X-4505Y129385D01*
X-4545Y129278D01*
X-4590Y129172D01*
X-4637Y129068D01*
X-4689Y128966D01*
X-4744Y128866D01*
X-4802Y128767D01*
X-4864Y128671D01*
X-4929Y128576D01*
X-4997Y128485D01*
X-5069Y128395D01*
X-5143Y128308D01*
X-5220Y128224D01*
X-5301Y128142D01*
X-5384Y128063D01*
X-5469Y127987D01*
X-5558Y127914D01*
X-5648Y127845D01*
X-5741Y127778D01*
X-5837Y127715D01*
X-5934Y127655D01*
X-6034Y127598D01*
X-6135Y127545D01*
X-6238Y127495D01*
X-6343Y127449D01*
X-6449Y127406D01*
X-6557Y127368D01*
X-6666Y127333D01*
X-6776Y127302D01*
X-6887Y127274D01*
X-6999Y127251D01*
X-7112Y127231D01*
X-7225Y127215D01*
X-7339Y127203D01*
X-7453Y127195D01*
X-7568Y127191D01*
X-7682Y127191D01*
X-7797Y127195D01*
X-7911Y127203D01*
X-8025Y127215D01*
X-8138Y127231D01*
X-8251Y127251D01*
X-8363Y127274D01*
X-8474Y127302D01*
X-8584Y127333D01*
X-8693Y127368D01*
X-8801Y127406D01*
X-8907Y127449D01*
X-9012Y127495D01*
X-9115Y127545D01*
X-9216Y127598D01*
X-9316Y127655D01*
X-9413Y127715D01*
X-9509Y127778D01*
X-9602Y127845D01*
X-9692Y127914D01*
X-9781Y127987D01*
X-9866Y128063D01*
X-9949Y128142D01*
X-10030Y128224D01*
X-10107Y128308D01*
X-10181Y128395D01*
X-10253Y128485D01*
X-10321Y128576D01*
X-10386Y128671D01*
X-10448Y128767D01*
X-10506Y128866D01*
X-10561Y128966D01*
X-10613Y129068D01*
X-10660Y129172D01*
X-10705Y129278D01*
X-10745Y129385D01*
X-10782Y129493D01*
X-10815Y129603D01*
X-10845Y129713D01*
X-10870Y129825D01*
X-10892Y129937D01*
X-10909Y130051D01*
X-10923Y130164D01*
X-10933Y130278D01*
X-10939Y130393D01*
X-10941Y130507D01*
X-10941Y139129D01*
X-16119Y136476D02*
X-19436Y139129D01*
X-19436Y127191D01*
X-22752Y127191D02*
X-16119Y127191D01*
M02*
