G04 EAGLE Gerber RS-274X export*
G75*
%MOMM*%
%FSLAX34Y34*%
%LPD*%
%INSilkscreen Top*%
%IPPOS*%
%AMOC8*
5,1,8,0,0,1.08239X$1,22.5*%
G01*
%ADD10C,0.152400*%
%ADD11C,0.101600*%
%ADD12R,0.014731X0.014731*%
%ADD13R,0.147319X0.014731*%
%ADD14R,0.265175X0.014731*%
%ADD15R,0.383031X0.014731*%
%ADD16R,0.515619X0.014731*%
%ADD17R,0.633475X0.014731*%
%ADD18R,0.751331X0.014731*%
%ADD19R,0.883919X0.014731*%
%ADD20R,1.001775X0.014731*%
%ADD21R,1.119631X0.014731*%
%ADD22R,1.134363X0.014731*%
%ADD23R,1.149094X0.014731*%
%ADD24R,1.163825X0.014731*%
%ADD25R,1.178556X0.014731*%
%ADD26R,1.193288X0.014731*%
%ADD27R,1.222756X0.014731*%
%ADD28R,1.237488X0.014731*%
%ADD29R,1.266950X0.014731*%
%ADD30R,1.281681X0.014731*%
%ADD31R,1.311144X0.014731*%
%ADD32R,1.325881X0.014731*%
%ADD33R,1.355344X0.014731*%
%ADD34R,1.370075X0.014731*%
%ADD35R,1.384806X0.014731*%
%ADD36R,1.399538X0.014731*%
%ADD37R,1.414275X0.014731*%
%ADD38R,1.443738X0.014731*%
%ADD39R,1.458469X0.014731*%
%ADD40R,1.487931X0.014731*%
%ADD41R,1.502663X0.014731*%
%ADD42R,1.517394X0.014731*%
%ADD43R,1.532125X0.014731*%
%ADD44R,1.546856X0.014731*%
%ADD45R,1.576319X0.014731*%
%ADD46R,1.605788X0.014731*%
%ADD47R,1.620519X0.014731*%
%ADD48R,1.649981X0.014731*%
%ADD49R,1.664713X0.014731*%
%ADD50R,1.694175X0.014731*%
%ADD51R,1.708913X0.014731*%
%ADD52R,1.738375X0.014731*%
%ADD53R,1.753106X0.014731*%
%ADD54R,1.767838X0.014731*%
%ADD55R,1.782569X0.014731*%
%ADD56R,1.797306X0.014731*%
%ADD57R,0.117856X0.014731*%
%ADD58R,1.826769X0.014731*%
%ADD59R,0.235713X0.014731*%
%ADD60R,0.353569X0.014731*%
%ADD61R,1.856231X0.014731*%
%ADD62R,0.486156X0.014731*%
%ADD63R,1.870963X0.014731*%
%ADD64R,0.604013X0.014731*%
%ADD65R,0.721869X0.014731*%
%ADD66R,1.885694X0.014731*%
%ADD67R,0.839719X0.014731*%
%ADD68R,0.972306X0.014731*%
%ADD69R,1.090169X0.014731*%
%ADD70R,1.208025X0.014731*%
%ADD71R,1.252219X0.014731*%
%ADD72R,1.296412X0.014731*%
%ADD73R,1.340612X0.014731*%
%ADD74R,1.826763X0.014731*%
%ADD75R,1.414269X0.014731*%
%ADD76R,1.812031X0.014731*%
%ADD77R,1.429000X0.014731*%
%ADD78R,1.458462X0.014731*%
%ADD79R,1.473200X0.014731*%
%ADD80R,1.723644X0.014731*%
%ADD81R,1.694181X0.014731*%
%ADD82R,1.679450X0.014731*%
%ADD83R,1.561594X0.014731*%
%ADD84R,1.576325X0.014731*%
%ADD85R,1.591056X0.014731*%
%ADD86R,1.635250X0.014731*%
%ADD87R,1.561588X0.014731*%
%ADD88R,1.443731X0.014731*%
%ADD89R,1.797300X0.014731*%
%ADD90R,1.841500X0.014731*%
%ADD91R,1.311150X0.014731*%
%ADD92R,1.296419X0.014731*%
%ADD93R,1.193294X0.014731*%
%ADD94R,0.957575X0.014731*%
%ADD95R,0.589281X0.014731*%
%ADD96R,0.471425X0.014731*%
%ADD97R,0.220975X0.014731*%
%ADD98R,1.812038X0.014731*%
%ADD99R,0.103119X0.014731*%
%ADD100R,0.029463X0.014731*%
%ADD101R,0.162050X0.014731*%
%ADD102R,0.397763X0.014731*%
%ADD103R,0.648206X0.014731*%
%ADD104R,1.679444X0.014731*%
%ADD105R,1.016506X0.014731*%
%ADD106R,1.104900X0.014731*%
%ADD107R,1.222750X0.014731*%
%ADD108R,1.429006X0.014731*%
%ADD109R,1.208019X0.014731*%
%ADD110R,0.987044X0.014731*%
%ADD111R,0.854456X0.014731*%
%ADD112R,0.618744X0.014731*%
%ADD113R,0.500888X0.014731*%
%ADD114R,0.368300X0.014731*%
%ADD115R,0.132587X0.014731*%
%ADD116R,1.664719X0.014731*%
%ADD117R,1.075438X0.014731*%
%ADD118R,0.942844X0.014731*%
%ADD119R,0.707131X0.014731*%
%ADD120R,0.456694X0.014731*%
%ADD121R,0.088388X0.014731*%
%ADD122C,0.203200*%
%ADD123C,0.254000*%
%ADD124C,0.076200*%
%ADD125C,0.127000*%

G36*
X-84015Y234448D02*
X-84015Y234448D01*
X-83981Y234445D01*
X-83917Y234464D01*
X-83850Y234474D01*
X-83821Y234492D01*
X-83789Y234501D01*
X-83737Y234544D01*
X-83679Y234579D01*
X-83657Y234608D01*
X-83633Y234628D01*
X-83610Y234671D01*
X-83571Y234723D01*
X-80396Y241073D01*
X-80391Y241095D01*
X-80378Y241113D01*
X-80364Y241191D01*
X-80344Y241267D01*
X-80347Y241289D01*
X-80343Y241310D01*
X-80360Y241387D01*
X-80370Y241465D01*
X-80382Y241484D01*
X-80386Y241506D01*
X-80432Y241570D01*
X-80472Y241638D01*
X-80490Y241651D01*
X-80502Y241669D01*
X-80569Y241711D01*
X-80632Y241758D01*
X-80654Y241764D01*
X-80673Y241775D01*
X-80774Y241794D01*
X-80827Y241807D01*
X-80838Y241805D01*
X-80850Y241807D01*
X-87200Y241807D01*
X-87222Y241803D01*
X-87244Y241805D01*
X-87319Y241783D01*
X-87397Y241768D01*
X-87415Y241755D01*
X-87436Y241749D01*
X-87497Y241699D01*
X-87562Y241655D01*
X-87574Y241636D01*
X-87592Y241623D01*
X-87629Y241553D01*
X-87672Y241487D01*
X-87675Y241465D01*
X-87686Y241446D01*
X-87693Y241367D01*
X-87707Y241290D01*
X-87702Y241268D01*
X-87704Y241246D01*
X-87675Y241147D01*
X-87664Y241094D01*
X-87657Y241085D01*
X-87654Y241073D01*
X-84479Y234723D01*
X-84437Y234670D01*
X-84403Y234612D01*
X-84376Y234592D01*
X-84355Y234565D01*
X-84297Y234532D01*
X-84243Y234492D01*
X-84210Y234484D01*
X-84181Y234467D01*
X-84114Y234460D01*
X-84048Y234443D01*
X-84015Y234448D01*
G37*
G36*
X-47593Y152123D02*
X-47593Y152123D01*
X-47571Y152121D01*
X-47472Y152150D01*
X-47419Y152161D01*
X-47410Y152168D01*
X-47398Y152171D01*
X-41048Y155346D01*
X-40995Y155388D01*
X-40937Y155422D01*
X-40917Y155449D01*
X-40890Y155470D01*
X-40857Y155528D01*
X-40817Y155582D01*
X-40809Y155615D01*
X-40792Y155645D01*
X-40785Y155712D01*
X-40768Y155777D01*
X-40773Y155810D01*
X-40770Y155844D01*
X-40789Y155909D01*
X-40799Y155975D01*
X-40817Y156004D01*
X-40826Y156036D01*
X-40869Y156088D01*
X-40904Y156146D01*
X-40933Y156168D01*
X-40953Y156192D01*
X-40996Y156215D01*
X-41048Y156254D01*
X-47398Y159429D01*
X-47420Y159434D01*
X-47438Y159447D01*
X-47516Y159461D01*
X-47592Y159481D01*
X-47614Y159478D01*
X-47635Y159482D01*
X-47712Y159465D01*
X-47790Y159455D01*
X-47809Y159443D01*
X-47831Y159439D01*
X-47895Y159393D01*
X-47963Y159353D01*
X-47976Y159335D01*
X-47994Y159323D01*
X-48036Y159256D01*
X-48083Y159193D01*
X-48089Y159171D01*
X-48100Y159152D01*
X-48119Y159051D01*
X-48132Y158998D01*
X-48130Y158987D01*
X-48132Y158975D01*
X-48132Y152625D01*
X-48128Y152603D01*
X-48130Y152581D01*
X-48108Y152506D01*
X-48093Y152429D01*
X-48080Y152410D01*
X-48074Y152389D01*
X-48024Y152328D01*
X-47980Y152263D01*
X-47961Y152251D01*
X-47948Y152233D01*
X-47878Y152196D01*
X-47812Y152153D01*
X-47790Y152150D01*
X-47771Y152139D01*
X-47692Y152132D01*
X-47615Y152118D01*
X-47593Y152123D01*
G37*
D10*
X-59563Y123352D02*
X-54624Y123352D01*
X-54484Y123350D01*
X-54345Y123344D01*
X-54205Y123334D01*
X-54066Y123320D01*
X-53927Y123303D01*
X-53789Y123281D01*
X-53652Y123255D01*
X-53515Y123226D01*
X-53379Y123193D01*
X-53245Y123156D01*
X-53111Y123115D01*
X-52979Y123070D01*
X-52847Y123021D01*
X-52718Y122969D01*
X-52590Y122914D01*
X-52463Y122854D01*
X-52338Y122791D01*
X-52215Y122725D01*
X-52094Y122655D01*
X-51975Y122582D01*
X-51858Y122505D01*
X-51744Y122425D01*
X-51631Y122342D01*
X-51521Y122256D01*
X-51414Y122166D01*
X-51309Y122074D01*
X-51207Y121979D01*
X-51107Y121881D01*
X-51010Y121780D01*
X-50916Y121676D01*
X-50826Y121570D01*
X-50738Y121461D01*
X-50653Y121350D01*
X-50572Y121236D01*
X-50493Y121121D01*
X-50418Y121003D01*
X-50347Y120883D01*
X-50279Y120760D01*
X-50214Y120637D01*
X-50153Y120511D01*
X-50095Y120383D01*
X-50041Y120255D01*
X-49991Y120124D01*
X-49944Y119992D01*
X-49901Y119859D01*
X-49862Y119725D01*
X-49827Y119590D01*
X-49796Y119454D01*
X-49768Y119316D01*
X-49745Y119179D01*
X-49725Y119040D01*
X-49709Y118901D01*
X-49697Y118762D01*
X-49689Y118623D01*
X-49685Y118483D01*
X-49685Y118343D01*
X-49689Y118203D01*
X-49697Y118064D01*
X-49709Y117925D01*
X-49725Y117786D01*
X-49745Y117647D01*
X-49768Y117510D01*
X-49796Y117372D01*
X-49827Y117236D01*
X-49862Y117101D01*
X-49901Y116967D01*
X-49944Y116834D01*
X-49991Y116702D01*
X-50041Y116571D01*
X-50095Y116443D01*
X-50153Y116315D01*
X-50214Y116189D01*
X-50279Y116066D01*
X-50347Y115944D01*
X-50418Y115823D01*
X-50493Y115705D01*
X-50572Y115590D01*
X-50653Y115476D01*
X-50738Y115365D01*
X-50826Y115256D01*
X-50916Y115150D01*
X-51010Y115046D01*
X-51107Y114945D01*
X-51207Y114847D01*
X-51309Y114752D01*
X-51414Y114660D01*
X-51521Y114570D01*
X-51631Y114484D01*
X-51744Y114401D01*
X-51858Y114321D01*
X-51975Y114244D01*
X-52094Y114171D01*
X-52215Y114101D01*
X-52338Y114035D01*
X-52463Y113972D01*
X-52590Y113912D01*
X-52718Y113857D01*
X-52847Y113805D01*
X-52979Y113756D01*
X-53111Y113711D01*
X-53245Y113670D01*
X-53379Y113633D01*
X-53515Y113600D01*
X-53652Y113571D01*
X-53789Y113545D01*
X-53927Y113523D01*
X-54066Y113506D01*
X-54205Y113492D01*
X-54345Y113482D01*
X-54484Y113476D01*
X-54624Y113474D01*
X-54624Y113475D02*
X-59563Y113475D01*
X-59563Y131255D01*
X-54624Y131255D01*
X-54624Y131254D02*
X-54500Y131252D01*
X-54376Y131246D01*
X-54252Y131236D01*
X-54129Y131223D01*
X-54006Y131205D01*
X-53884Y131184D01*
X-53762Y131159D01*
X-53641Y131130D01*
X-53522Y131097D01*
X-53403Y131061D01*
X-53286Y131020D01*
X-53170Y130977D01*
X-53055Y130929D01*
X-52942Y130878D01*
X-52830Y130823D01*
X-52721Y130765D01*
X-52613Y130704D01*
X-52507Y130639D01*
X-52403Y130571D01*
X-52302Y130499D01*
X-52202Y130425D01*
X-52106Y130347D01*
X-52011Y130267D01*
X-51919Y130183D01*
X-51830Y130097D01*
X-51744Y130008D01*
X-51660Y129916D01*
X-51580Y129821D01*
X-51502Y129725D01*
X-51428Y129625D01*
X-51356Y129524D01*
X-51288Y129420D01*
X-51223Y129314D01*
X-51162Y129206D01*
X-51104Y129097D01*
X-51049Y128985D01*
X-50998Y128872D01*
X-50950Y128757D01*
X-50907Y128641D01*
X-50866Y128524D01*
X-50830Y128405D01*
X-50797Y128286D01*
X-50768Y128165D01*
X-50743Y128043D01*
X-50722Y127921D01*
X-50704Y127798D01*
X-50691Y127675D01*
X-50681Y127551D01*
X-50675Y127427D01*
X-50673Y127303D01*
X-50675Y127179D01*
X-50681Y127055D01*
X-50691Y126931D01*
X-50704Y126808D01*
X-50722Y126685D01*
X-50743Y126563D01*
X-50768Y126441D01*
X-50797Y126320D01*
X-50830Y126201D01*
X-50866Y126082D01*
X-50907Y125965D01*
X-50950Y125849D01*
X-50998Y125734D01*
X-51049Y125621D01*
X-51104Y125509D01*
X-51162Y125400D01*
X-51223Y125292D01*
X-51288Y125186D01*
X-51356Y125082D01*
X-51428Y124981D01*
X-51502Y124881D01*
X-51580Y124785D01*
X-51660Y124690D01*
X-51744Y124598D01*
X-51830Y124509D01*
X-51919Y124423D01*
X-52011Y124339D01*
X-52106Y124259D01*
X-52202Y124181D01*
X-52302Y124107D01*
X-52403Y124035D01*
X-52507Y123967D01*
X-52613Y123902D01*
X-52721Y123841D01*
X-52830Y123783D01*
X-52942Y123728D01*
X-53055Y123677D01*
X-53170Y123629D01*
X-53286Y123586D01*
X-53403Y123545D01*
X-53522Y123509D01*
X-53641Y123476D01*
X-53762Y123447D01*
X-53884Y123422D01*
X-54006Y123401D01*
X-54129Y123383D01*
X-54252Y123370D01*
X-54376Y123360D01*
X-54500Y123354D01*
X-54624Y123352D01*
X-59563Y82042D02*
X-59563Y64262D01*
X-59563Y82042D02*
X-54624Y82042D01*
X-54485Y82040D01*
X-54347Y82034D01*
X-54209Y82025D01*
X-54071Y82011D01*
X-53934Y81994D01*
X-53797Y81972D01*
X-53660Y81947D01*
X-53525Y81918D01*
X-53390Y81885D01*
X-53257Y81849D01*
X-53124Y81809D01*
X-52993Y81765D01*
X-52863Y81717D01*
X-52734Y81666D01*
X-52607Y81611D01*
X-52481Y81553D01*
X-52357Y81491D01*
X-52235Y81426D01*
X-52115Y81357D01*
X-51996Y81285D01*
X-51880Y81210D01*
X-51766Y81131D01*
X-51654Y81049D01*
X-51545Y80964D01*
X-51437Y80877D01*
X-51333Y80786D01*
X-51231Y80692D01*
X-51132Y80595D01*
X-51035Y80496D01*
X-50941Y80394D01*
X-50850Y80290D01*
X-50763Y80182D01*
X-50678Y80073D01*
X-50596Y79961D01*
X-50517Y79847D01*
X-50442Y79731D01*
X-50370Y79612D01*
X-50301Y79492D01*
X-50236Y79370D01*
X-50174Y79246D01*
X-50116Y79120D01*
X-50061Y78993D01*
X-50010Y78864D01*
X-49962Y78734D01*
X-49918Y78603D01*
X-49878Y78470D01*
X-49842Y78337D01*
X-49809Y78202D01*
X-49780Y78067D01*
X-49755Y77930D01*
X-49733Y77793D01*
X-49716Y77656D01*
X-49702Y77518D01*
X-49693Y77380D01*
X-49687Y77242D01*
X-49685Y77103D01*
X-49685Y69201D01*
X-49687Y69062D01*
X-49693Y68924D01*
X-49702Y68786D01*
X-49716Y68648D01*
X-49733Y68511D01*
X-49755Y68374D01*
X-49780Y68237D01*
X-49809Y68102D01*
X-49842Y67967D01*
X-49878Y67834D01*
X-49918Y67701D01*
X-49962Y67570D01*
X-50010Y67440D01*
X-50061Y67311D01*
X-50116Y67184D01*
X-50174Y67058D01*
X-50236Y66934D01*
X-50301Y66812D01*
X-50370Y66692D01*
X-50442Y66573D01*
X-50517Y66457D01*
X-50596Y66343D01*
X-50678Y66231D01*
X-50763Y66122D01*
X-50850Y66014D01*
X-50941Y65910D01*
X-51035Y65808D01*
X-51132Y65709D01*
X-51231Y65612D01*
X-51333Y65518D01*
X-51437Y65427D01*
X-51545Y65340D01*
X-51654Y65255D01*
X-51766Y65173D01*
X-51880Y65094D01*
X-51996Y65019D01*
X-52115Y64947D01*
X-52235Y64878D01*
X-52357Y64813D01*
X-52481Y64751D01*
X-52607Y64693D01*
X-52734Y64638D01*
X-52863Y64587D01*
X-52993Y64539D01*
X-53124Y64495D01*
X-53257Y64455D01*
X-53390Y64419D01*
X-53525Y64386D01*
X-53660Y64357D01*
X-53797Y64332D01*
X-53934Y64310D01*
X-54071Y64293D01*
X-54209Y64279D01*
X-54347Y64270D01*
X-54485Y64264D01*
X-54624Y64262D01*
X-59563Y64262D01*
X-55612Y89662D02*
X-51661Y89662D01*
X-55612Y89662D02*
X-55736Y89664D01*
X-55860Y89670D01*
X-55984Y89680D01*
X-56107Y89693D01*
X-56230Y89711D01*
X-56352Y89732D01*
X-56474Y89757D01*
X-56595Y89786D01*
X-56714Y89819D01*
X-56833Y89855D01*
X-56950Y89896D01*
X-57066Y89939D01*
X-57181Y89987D01*
X-57294Y90038D01*
X-57406Y90093D01*
X-57515Y90151D01*
X-57623Y90212D01*
X-57729Y90277D01*
X-57833Y90345D01*
X-57934Y90417D01*
X-58034Y90491D01*
X-58130Y90569D01*
X-58225Y90649D01*
X-58317Y90733D01*
X-58406Y90819D01*
X-58492Y90908D01*
X-58576Y91000D01*
X-58656Y91095D01*
X-58734Y91191D01*
X-58808Y91291D01*
X-58880Y91392D01*
X-58948Y91496D01*
X-59013Y91602D01*
X-59074Y91710D01*
X-59132Y91819D01*
X-59187Y91931D01*
X-59238Y92044D01*
X-59286Y92159D01*
X-59329Y92275D01*
X-59370Y92392D01*
X-59406Y92511D01*
X-59439Y92630D01*
X-59468Y92751D01*
X-59493Y92873D01*
X-59514Y92995D01*
X-59532Y93118D01*
X-59545Y93241D01*
X-59555Y93365D01*
X-59561Y93489D01*
X-59563Y93613D01*
X-59563Y103491D01*
X-59561Y103615D01*
X-59555Y103739D01*
X-59545Y103863D01*
X-59532Y103986D01*
X-59514Y104109D01*
X-59493Y104231D01*
X-59468Y104353D01*
X-59439Y104474D01*
X-59406Y104593D01*
X-59370Y104712D01*
X-59329Y104829D01*
X-59286Y104945D01*
X-59238Y105060D01*
X-59187Y105173D01*
X-59132Y105285D01*
X-59074Y105394D01*
X-59013Y105502D01*
X-58948Y105608D01*
X-58880Y105712D01*
X-58808Y105813D01*
X-58734Y105913D01*
X-58656Y106009D01*
X-58576Y106104D01*
X-58492Y106196D01*
X-58406Y106285D01*
X-58317Y106371D01*
X-58225Y106455D01*
X-58130Y106535D01*
X-58034Y106613D01*
X-57934Y106687D01*
X-57833Y106759D01*
X-57729Y106827D01*
X-57623Y106892D01*
X-57515Y106953D01*
X-57406Y107011D01*
X-57294Y107066D01*
X-57181Y107117D01*
X-57067Y107165D01*
X-56950Y107208D01*
X-56833Y107249D01*
X-56714Y107285D01*
X-56595Y107318D01*
X-56474Y107347D01*
X-56352Y107372D01*
X-56230Y107393D01*
X-56107Y107411D01*
X-55984Y107424D01*
X-55860Y107434D01*
X-55736Y107440D01*
X-55612Y107442D01*
X-51661Y107442D01*
D11*
X151892Y136137D02*
X151892Y139383D01*
X151890Y139496D01*
X151884Y139609D01*
X151874Y139722D01*
X151860Y139835D01*
X151843Y139947D01*
X151821Y140058D01*
X151796Y140168D01*
X151766Y140278D01*
X151733Y140386D01*
X151696Y140493D01*
X151656Y140599D01*
X151611Y140703D01*
X151563Y140806D01*
X151512Y140907D01*
X151457Y141006D01*
X151399Y141103D01*
X151337Y141198D01*
X151272Y141291D01*
X151204Y141381D01*
X151133Y141469D01*
X151058Y141555D01*
X150981Y141638D01*
X150901Y141718D01*
X150818Y141795D01*
X150732Y141870D01*
X150644Y141941D01*
X150554Y142009D01*
X150461Y142074D01*
X150366Y142136D01*
X150269Y142194D01*
X150170Y142249D01*
X150069Y142300D01*
X149966Y142348D01*
X149862Y142393D01*
X149756Y142433D01*
X149649Y142470D01*
X149541Y142503D01*
X149431Y142533D01*
X149321Y142558D01*
X149210Y142580D01*
X149098Y142597D01*
X148985Y142611D01*
X148872Y142621D01*
X148759Y142627D01*
X148646Y142629D01*
X148533Y142627D01*
X148420Y142621D01*
X148307Y142611D01*
X148194Y142597D01*
X148082Y142580D01*
X147971Y142558D01*
X147861Y142533D01*
X147751Y142503D01*
X147643Y142470D01*
X147536Y142433D01*
X147430Y142393D01*
X147326Y142348D01*
X147223Y142300D01*
X147122Y142249D01*
X147023Y142194D01*
X146926Y142136D01*
X146831Y142074D01*
X146738Y142009D01*
X146648Y141941D01*
X146560Y141870D01*
X146474Y141795D01*
X146391Y141718D01*
X146311Y141638D01*
X146234Y141555D01*
X146159Y141469D01*
X146088Y141381D01*
X146020Y141291D01*
X145955Y141198D01*
X145893Y141103D01*
X145835Y141006D01*
X145780Y140907D01*
X145729Y140806D01*
X145681Y140703D01*
X145636Y140599D01*
X145596Y140493D01*
X145559Y140386D01*
X145526Y140278D01*
X145496Y140168D01*
X145471Y140058D01*
X145449Y139947D01*
X145432Y139835D01*
X145418Y139722D01*
X145408Y139609D01*
X145402Y139496D01*
X145400Y139383D01*
X140208Y140032D02*
X140208Y136137D01*
X140208Y140032D02*
X140210Y140133D01*
X140216Y140233D01*
X140226Y140333D01*
X140239Y140433D01*
X140257Y140532D01*
X140278Y140631D01*
X140303Y140728D01*
X140332Y140825D01*
X140365Y140920D01*
X140401Y141014D01*
X140441Y141106D01*
X140484Y141197D01*
X140531Y141286D01*
X140581Y141373D01*
X140635Y141459D01*
X140692Y141542D01*
X140752Y141622D01*
X140815Y141701D01*
X140882Y141777D01*
X140951Y141850D01*
X141023Y141920D01*
X141097Y141988D01*
X141174Y142053D01*
X141254Y142114D01*
X141336Y142173D01*
X141420Y142228D01*
X141506Y142280D01*
X141594Y142329D01*
X141684Y142374D01*
X141776Y142416D01*
X141869Y142454D01*
X141964Y142488D01*
X142059Y142519D01*
X142156Y142546D01*
X142254Y142569D01*
X142353Y142589D01*
X142453Y142604D01*
X142553Y142616D01*
X142653Y142624D01*
X142754Y142628D01*
X142854Y142628D01*
X142955Y142624D01*
X143055Y142616D01*
X143155Y142604D01*
X143255Y142589D01*
X143354Y142569D01*
X143452Y142546D01*
X143549Y142519D01*
X143644Y142488D01*
X143739Y142454D01*
X143832Y142416D01*
X143924Y142374D01*
X144014Y142329D01*
X144102Y142280D01*
X144188Y142228D01*
X144272Y142173D01*
X144354Y142114D01*
X144434Y142053D01*
X144511Y141988D01*
X144585Y141920D01*
X144657Y141850D01*
X144726Y141777D01*
X144793Y141701D01*
X144856Y141622D01*
X144916Y141542D01*
X144973Y141459D01*
X145027Y141373D01*
X145077Y141286D01*
X145124Y141197D01*
X145167Y141106D01*
X145207Y141014D01*
X145243Y140920D01*
X145276Y140825D01*
X145305Y140728D01*
X145330Y140631D01*
X145351Y140532D01*
X145369Y140433D01*
X145382Y140333D01*
X145392Y140233D01*
X145398Y140133D01*
X145400Y140032D01*
X145401Y140032D02*
X145401Y137435D01*
X140208Y146918D02*
X151892Y150813D01*
X140208Y154707D01*
X151892Y158997D02*
X151892Y162242D01*
X151890Y162355D01*
X151884Y162468D01*
X151874Y162581D01*
X151860Y162694D01*
X151843Y162806D01*
X151821Y162917D01*
X151796Y163027D01*
X151766Y163137D01*
X151733Y163245D01*
X151696Y163352D01*
X151656Y163458D01*
X151611Y163562D01*
X151563Y163665D01*
X151512Y163766D01*
X151457Y163865D01*
X151399Y163962D01*
X151337Y164057D01*
X151272Y164150D01*
X151204Y164240D01*
X151133Y164328D01*
X151058Y164414D01*
X150981Y164497D01*
X150901Y164577D01*
X150818Y164654D01*
X150732Y164729D01*
X150644Y164800D01*
X150554Y164868D01*
X150461Y164933D01*
X150366Y164995D01*
X150269Y165053D01*
X150170Y165108D01*
X150069Y165159D01*
X149966Y165207D01*
X149862Y165252D01*
X149756Y165292D01*
X149649Y165329D01*
X149541Y165362D01*
X149431Y165392D01*
X149321Y165417D01*
X149210Y165439D01*
X149098Y165456D01*
X148985Y165470D01*
X148872Y165480D01*
X148759Y165486D01*
X148646Y165488D01*
X148533Y165486D01*
X148420Y165480D01*
X148307Y165470D01*
X148194Y165456D01*
X148082Y165439D01*
X147971Y165417D01*
X147861Y165392D01*
X147751Y165362D01*
X147643Y165329D01*
X147536Y165292D01*
X147430Y165252D01*
X147326Y165207D01*
X147223Y165159D01*
X147122Y165108D01*
X147023Y165053D01*
X146926Y164995D01*
X146831Y164933D01*
X146738Y164868D01*
X146648Y164800D01*
X146560Y164729D01*
X146474Y164654D01*
X146391Y164577D01*
X146311Y164497D01*
X146234Y164414D01*
X146159Y164328D01*
X146088Y164240D01*
X146020Y164150D01*
X145955Y164057D01*
X145893Y163962D01*
X145835Y163865D01*
X145780Y163766D01*
X145729Y163665D01*
X145681Y163562D01*
X145636Y163458D01*
X145596Y163352D01*
X145559Y163245D01*
X145526Y163137D01*
X145496Y163027D01*
X145471Y162917D01*
X145449Y162806D01*
X145432Y162694D01*
X145418Y162581D01*
X145408Y162468D01*
X145402Y162355D01*
X145400Y162242D01*
X140208Y162892D02*
X140208Y158997D01*
X140208Y162892D02*
X140210Y162993D01*
X140216Y163093D01*
X140226Y163193D01*
X140239Y163293D01*
X140257Y163392D01*
X140278Y163491D01*
X140303Y163588D01*
X140332Y163685D01*
X140365Y163780D01*
X140401Y163874D01*
X140441Y163966D01*
X140484Y164057D01*
X140531Y164146D01*
X140581Y164233D01*
X140635Y164319D01*
X140692Y164402D01*
X140752Y164482D01*
X140815Y164561D01*
X140882Y164637D01*
X140951Y164710D01*
X141023Y164780D01*
X141097Y164848D01*
X141174Y164913D01*
X141254Y164974D01*
X141336Y165033D01*
X141420Y165088D01*
X141506Y165140D01*
X141594Y165189D01*
X141684Y165234D01*
X141776Y165276D01*
X141869Y165314D01*
X141964Y165348D01*
X142059Y165379D01*
X142156Y165406D01*
X142254Y165429D01*
X142353Y165449D01*
X142453Y165464D01*
X142553Y165476D01*
X142653Y165484D01*
X142754Y165488D01*
X142854Y165488D01*
X142955Y165484D01*
X143055Y165476D01*
X143155Y165464D01*
X143255Y165449D01*
X143354Y165429D01*
X143452Y165406D01*
X143549Y165379D01*
X143644Y165348D01*
X143739Y165314D01*
X143832Y165276D01*
X143924Y165234D01*
X144014Y165189D01*
X144102Y165140D01*
X144188Y165088D01*
X144272Y165033D01*
X144354Y164974D01*
X144434Y164913D01*
X144511Y164848D01*
X144585Y164780D01*
X144657Y164710D01*
X144726Y164637D01*
X144793Y164561D01*
X144856Y164482D01*
X144916Y164402D01*
X144973Y164319D01*
X145027Y164233D01*
X145077Y164146D01*
X145124Y164057D01*
X145167Y163966D01*
X145207Y163874D01*
X145243Y163780D01*
X145276Y163685D01*
X145305Y163588D01*
X145330Y163491D01*
X145351Y163392D01*
X145369Y163293D01*
X145382Y163193D01*
X145392Y163093D01*
X145398Y162993D01*
X145400Y162892D01*
X145401Y162892D02*
X145401Y160295D01*
X67013Y12471D02*
X64354Y10609D01*
X67013Y12471D02*
X67104Y12538D01*
X67194Y12607D01*
X67281Y12680D01*
X67365Y12756D01*
X67446Y12835D01*
X67525Y12916D01*
X67601Y13000D01*
X67674Y13087D01*
X67743Y13177D01*
X67810Y13268D01*
X67873Y13362D01*
X67933Y13458D01*
X67990Y13556D01*
X68043Y13656D01*
X68093Y13758D01*
X68139Y13862D01*
X68181Y13967D01*
X68220Y14073D01*
X68255Y14181D01*
X68286Y14290D01*
X68314Y14400D01*
X68337Y14511D01*
X68357Y14622D01*
X68373Y14734D01*
X68385Y14847D01*
X68393Y14960D01*
X68397Y15073D01*
X68397Y15187D01*
X68393Y15300D01*
X68385Y15413D01*
X68373Y15526D01*
X68357Y15638D01*
X68337Y15749D01*
X68314Y15860D01*
X68286Y15970D01*
X68255Y16079D01*
X68220Y16187D01*
X68181Y16293D01*
X68139Y16398D01*
X68093Y16502D01*
X68043Y16604D01*
X67990Y16704D01*
X67933Y16802D01*
X67873Y16898D01*
X67810Y16992D01*
X67743Y17083D01*
X67674Y17173D01*
X67601Y17260D01*
X67525Y17344D01*
X67446Y17425D01*
X67365Y17504D01*
X67281Y17580D01*
X67194Y17653D01*
X67105Y17722D01*
X67013Y17789D01*
X66919Y17852D01*
X66823Y17912D01*
X66725Y17969D01*
X66625Y18022D01*
X66523Y18072D01*
X66419Y18118D01*
X66314Y18160D01*
X66208Y18199D01*
X66100Y18234D01*
X65991Y18265D01*
X65881Y18293D01*
X65770Y18316D01*
X65659Y18336D01*
X65547Y18352D01*
X65434Y18364D01*
X65321Y18372D01*
X65208Y18376D01*
X65094Y18376D01*
X64981Y18372D01*
X64868Y18364D01*
X64755Y18352D01*
X64643Y18336D01*
X64532Y18316D01*
X64421Y18293D01*
X64311Y18265D01*
X64202Y18234D01*
X64094Y18199D01*
X63988Y18160D01*
X63883Y18118D01*
X63779Y18072D01*
X63677Y18022D01*
X63577Y17969D01*
X63479Y17912D01*
X63383Y17852D01*
X63289Y17789D01*
X60843Y22414D02*
X57653Y20180D01*
X60843Y22414D02*
X60927Y22470D01*
X61012Y22523D01*
X61100Y22572D01*
X61189Y22618D01*
X61281Y22661D01*
X61374Y22700D01*
X61468Y22735D01*
X61563Y22767D01*
X61660Y22795D01*
X61758Y22819D01*
X61856Y22839D01*
X61956Y22856D01*
X62056Y22868D01*
X62156Y22877D01*
X62257Y22882D01*
X62357Y22883D01*
X62458Y22880D01*
X62558Y22873D01*
X62658Y22862D01*
X62758Y22848D01*
X62857Y22829D01*
X62955Y22807D01*
X63052Y22781D01*
X63149Y22751D01*
X63244Y22718D01*
X63337Y22681D01*
X63429Y22640D01*
X63520Y22595D01*
X63608Y22548D01*
X63695Y22496D01*
X63779Y22442D01*
X63862Y22384D01*
X63942Y22323D01*
X64020Y22259D01*
X64095Y22192D01*
X64168Y22123D01*
X64237Y22050D01*
X64304Y21975D01*
X64368Y21897D01*
X64429Y21817D01*
X64487Y21734D01*
X64541Y21650D01*
X64593Y21563D01*
X64640Y21475D01*
X64685Y21384D01*
X64726Y21292D01*
X64763Y21198D01*
X64796Y21104D01*
X64826Y21007D01*
X64852Y20910D01*
X64874Y20812D01*
X64893Y20713D01*
X64907Y20613D01*
X64918Y20513D01*
X64925Y20413D01*
X64928Y20312D01*
X64927Y20212D01*
X64922Y20111D01*
X64913Y20011D01*
X64901Y19911D01*
X64884Y19811D01*
X64864Y19713D01*
X64840Y19615D01*
X64812Y19518D01*
X64780Y19423D01*
X64745Y19329D01*
X64706Y19236D01*
X64663Y19144D01*
X64617Y19055D01*
X64568Y18967D01*
X64515Y18882D01*
X64459Y18798D01*
X64399Y18717D01*
X64337Y18638D01*
X64271Y18561D01*
X64203Y18487D01*
X64132Y18416D01*
X64058Y18348D01*
X63981Y18282D01*
X63902Y18220D01*
X63821Y18160D01*
X63821Y18161D02*
X61695Y16671D01*
X66484Y26364D02*
X76376Y19027D01*
X72864Y30832D01*
X83080Y23721D02*
X85739Y25583D01*
X85739Y25582D02*
X85830Y25649D01*
X85920Y25718D01*
X86007Y25791D01*
X86091Y25867D01*
X86172Y25946D01*
X86251Y26027D01*
X86327Y26111D01*
X86400Y26198D01*
X86469Y26288D01*
X86536Y26379D01*
X86599Y26473D01*
X86659Y26569D01*
X86716Y26667D01*
X86769Y26767D01*
X86819Y26869D01*
X86865Y26973D01*
X86907Y27078D01*
X86946Y27184D01*
X86981Y27292D01*
X87012Y27401D01*
X87040Y27511D01*
X87063Y27622D01*
X87083Y27733D01*
X87099Y27845D01*
X87111Y27958D01*
X87119Y28071D01*
X87123Y28184D01*
X87123Y28298D01*
X87119Y28411D01*
X87111Y28524D01*
X87099Y28637D01*
X87083Y28749D01*
X87063Y28860D01*
X87040Y28971D01*
X87012Y29081D01*
X86981Y29190D01*
X86946Y29298D01*
X86907Y29404D01*
X86865Y29509D01*
X86819Y29613D01*
X86769Y29715D01*
X86716Y29815D01*
X86659Y29913D01*
X86599Y30009D01*
X86536Y30103D01*
X86469Y30194D01*
X86400Y30284D01*
X86327Y30371D01*
X86251Y30455D01*
X86172Y30536D01*
X86091Y30615D01*
X86007Y30691D01*
X85920Y30764D01*
X85831Y30833D01*
X85739Y30900D01*
X85645Y30963D01*
X85549Y31023D01*
X85451Y31080D01*
X85351Y31133D01*
X85249Y31183D01*
X85145Y31229D01*
X85040Y31271D01*
X84934Y31310D01*
X84826Y31345D01*
X84717Y31376D01*
X84607Y31404D01*
X84496Y31427D01*
X84385Y31447D01*
X84273Y31463D01*
X84160Y31475D01*
X84047Y31483D01*
X83934Y31487D01*
X83820Y31487D01*
X83707Y31483D01*
X83594Y31475D01*
X83481Y31463D01*
X83369Y31447D01*
X83258Y31427D01*
X83147Y31404D01*
X83037Y31376D01*
X82928Y31345D01*
X82820Y31310D01*
X82714Y31271D01*
X82609Y31229D01*
X82505Y31183D01*
X82403Y31133D01*
X82303Y31080D01*
X82205Y31023D01*
X82109Y30963D01*
X82015Y30900D01*
X79569Y35526D02*
X76378Y33292D01*
X79569Y35526D02*
X79653Y35582D01*
X79738Y35635D01*
X79826Y35684D01*
X79915Y35730D01*
X80007Y35773D01*
X80100Y35812D01*
X80194Y35847D01*
X80289Y35879D01*
X80386Y35907D01*
X80484Y35931D01*
X80582Y35951D01*
X80682Y35968D01*
X80782Y35980D01*
X80882Y35989D01*
X80983Y35994D01*
X81083Y35995D01*
X81184Y35992D01*
X81284Y35985D01*
X81384Y35974D01*
X81484Y35960D01*
X81583Y35941D01*
X81681Y35919D01*
X81778Y35893D01*
X81875Y35863D01*
X81970Y35830D01*
X82063Y35793D01*
X82155Y35752D01*
X82246Y35707D01*
X82334Y35660D01*
X82421Y35608D01*
X82505Y35554D01*
X82588Y35496D01*
X82668Y35435D01*
X82746Y35371D01*
X82821Y35304D01*
X82894Y35235D01*
X82963Y35162D01*
X83030Y35087D01*
X83094Y35009D01*
X83155Y34929D01*
X83213Y34846D01*
X83267Y34762D01*
X83319Y34675D01*
X83366Y34587D01*
X83411Y34496D01*
X83452Y34404D01*
X83489Y34310D01*
X83522Y34216D01*
X83552Y34119D01*
X83578Y34022D01*
X83600Y33924D01*
X83619Y33825D01*
X83633Y33725D01*
X83644Y33625D01*
X83651Y33525D01*
X83654Y33424D01*
X83653Y33324D01*
X83648Y33223D01*
X83639Y33123D01*
X83627Y33023D01*
X83610Y32923D01*
X83590Y32825D01*
X83566Y32727D01*
X83538Y32630D01*
X83506Y32535D01*
X83471Y32441D01*
X83432Y32348D01*
X83389Y32256D01*
X83343Y32167D01*
X83294Y32079D01*
X83241Y31994D01*
X83185Y31910D01*
X83125Y31829D01*
X83063Y31750D01*
X82997Y31673D01*
X82929Y31599D01*
X82858Y31528D01*
X82784Y31460D01*
X82707Y31394D01*
X82628Y31332D01*
X82547Y31272D01*
X80420Y29783D01*
X-84151Y25583D02*
X-86810Y27445D01*
X-84152Y25583D02*
X-84058Y25520D01*
X-83962Y25460D01*
X-83864Y25403D01*
X-83764Y25350D01*
X-83662Y25300D01*
X-83558Y25254D01*
X-83453Y25212D01*
X-83347Y25173D01*
X-83239Y25138D01*
X-83130Y25107D01*
X-83020Y25079D01*
X-82909Y25056D01*
X-82798Y25036D01*
X-82686Y25020D01*
X-82573Y25008D01*
X-82460Y25000D01*
X-82347Y24996D01*
X-82233Y24996D01*
X-82120Y25000D01*
X-82007Y25008D01*
X-81894Y25020D01*
X-81782Y25036D01*
X-81671Y25056D01*
X-81560Y25079D01*
X-81450Y25107D01*
X-81341Y25138D01*
X-81233Y25173D01*
X-81127Y25212D01*
X-81022Y25254D01*
X-80918Y25300D01*
X-80816Y25350D01*
X-80716Y25403D01*
X-80618Y25460D01*
X-80522Y25520D01*
X-80428Y25583D01*
X-80337Y25650D01*
X-80247Y25719D01*
X-80160Y25792D01*
X-80076Y25868D01*
X-79995Y25947D01*
X-79916Y26028D01*
X-79840Y26112D01*
X-79767Y26199D01*
X-79698Y26289D01*
X-79631Y26380D01*
X-79568Y26474D01*
X-79508Y26570D01*
X-79451Y26668D01*
X-79398Y26768D01*
X-79348Y26870D01*
X-79302Y26974D01*
X-79260Y27079D01*
X-79221Y27185D01*
X-79186Y27293D01*
X-79155Y27402D01*
X-79127Y27512D01*
X-79104Y27623D01*
X-79084Y27734D01*
X-79068Y27846D01*
X-79056Y27959D01*
X-79048Y28072D01*
X-79044Y28185D01*
X-79044Y28299D01*
X-79048Y28412D01*
X-79056Y28525D01*
X-79068Y28638D01*
X-79084Y28750D01*
X-79104Y28861D01*
X-79127Y28972D01*
X-79155Y29082D01*
X-79186Y29191D01*
X-79221Y29299D01*
X-79260Y29405D01*
X-79302Y29510D01*
X-79348Y29614D01*
X-79398Y29716D01*
X-79451Y29816D01*
X-79508Y29914D01*
X-79568Y30010D01*
X-79631Y30104D01*
X-79698Y30195D01*
X-79767Y30285D01*
X-79840Y30372D01*
X-79916Y30456D01*
X-79995Y30537D01*
X-80076Y30616D01*
X-80160Y30692D01*
X-80247Y30765D01*
X-80336Y30834D01*
X-80428Y30901D01*
X-76918Y34782D02*
X-80108Y37015D01*
X-76918Y34782D02*
X-76837Y34722D01*
X-76758Y34660D01*
X-76681Y34594D01*
X-76607Y34526D01*
X-76536Y34455D01*
X-76468Y34381D01*
X-76402Y34304D01*
X-76340Y34225D01*
X-76280Y34144D01*
X-76224Y34060D01*
X-76171Y33975D01*
X-76122Y33887D01*
X-76076Y33798D01*
X-76033Y33706D01*
X-75994Y33613D01*
X-75959Y33519D01*
X-75927Y33424D01*
X-75899Y33327D01*
X-75875Y33229D01*
X-75855Y33131D01*
X-75838Y33031D01*
X-75826Y32931D01*
X-75817Y32831D01*
X-75812Y32730D01*
X-75811Y32630D01*
X-75814Y32529D01*
X-75821Y32429D01*
X-75832Y32329D01*
X-75846Y32229D01*
X-75865Y32130D01*
X-75887Y32032D01*
X-75913Y31935D01*
X-75943Y31838D01*
X-75976Y31744D01*
X-76013Y31650D01*
X-76054Y31558D01*
X-76099Y31467D01*
X-76146Y31379D01*
X-76198Y31292D01*
X-76252Y31208D01*
X-76310Y31125D01*
X-76371Y31045D01*
X-76435Y30967D01*
X-76502Y30892D01*
X-76571Y30819D01*
X-76644Y30750D01*
X-76719Y30683D01*
X-76797Y30619D01*
X-76877Y30558D01*
X-76960Y30500D01*
X-77044Y30446D01*
X-77131Y30394D01*
X-77219Y30347D01*
X-77310Y30302D01*
X-77402Y30261D01*
X-77495Y30224D01*
X-77590Y30191D01*
X-77687Y30161D01*
X-77784Y30135D01*
X-77882Y30113D01*
X-77981Y30094D01*
X-78081Y30080D01*
X-78181Y30069D01*
X-78281Y30062D01*
X-78382Y30059D01*
X-78482Y30060D01*
X-78583Y30065D01*
X-78683Y30074D01*
X-78783Y30086D01*
X-78883Y30103D01*
X-78981Y30123D01*
X-79079Y30147D01*
X-79176Y30175D01*
X-79271Y30207D01*
X-79365Y30242D01*
X-79458Y30281D01*
X-79550Y30324D01*
X-79639Y30370D01*
X-79727Y30419D01*
X-79812Y30472D01*
X-79896Y30528D01*
X-82023Y32017D01*
X-71277Y30832D02*
X-74788Y19027D01*
X-64896Y26364D01*
X-68084Y14333D02*
X-65425Y12471D01*
X-65426Y12471D02*
X-65332Y12408D01*
X-65236Y12348D01*
X-65138Y12291D01*
X-65038Y12238D01*
X-64936Y12188D01*
X-64832Y12142D01*
X-64727Y12100D01*
X-64621Y12061D01*
X-64513Y12026D01*
X-64404Y11995D01*
X-64294Y11967D01*
X-64183Y11944D01*
X-64072Y11924D01*
X-63960Y11908D01*
X-63847Y11896D01*
X-63734Y11888D01*
X-63621Y11884D01*
X-63507Y11884D01*
X-63394Y11888D01*
X-63281Y11896D01*
X-63168Y11908D01*
X-63056Y11924D01*
X-62945Y11944D01*
X-62834Y11967D01*
X-62724Y11995D01*
X-62615Y12026D01*
X-62507Y12061D01*
X-62401Y12100D01*
X-62296Y12142D01*
X-62192Y12188D01*
X-62090Y12238D01*
X-61990Y12291D01*
X-61892Y12348D01*
X-61796Y12408D01*
X-61702Y12471D01*
X-61611Y12538D01*
X-61521Y12607D01*
X-61434Y12680D01*
X-61350Y12756D01*
X-61269Y12835D01*
X-61190Y12916D01*
X-61114Y13000D01*
X-61041Y13087D01*
X-60972Y13177D01*
X-60905Y13268D01*
X-60842Y13362D01*
X-60782Y13458D01*
X-60725Y13556D01*
X-60672Y13656D01*
X-60622Y13758D01*
X-60576Y13862D01*
X-60534Y13967D01*
X-60495Y14073D01*
X-60460Y14181D01*
X-60429Y14290D01*
X-60401Y14400D01*
X-60378Y14511D01*
X-60358Y14622D01*
X-60342Y14734D01*
X-60330Y14847D01*
X-60322Y14960D01*
X-60318Y15073D01*
X-60318Y15187D01*
X-60322Y15300D01*
X-60330Y15413D01*
X-60342Y15526D01*
X-60358Y15638D01*
X-60378Y15749D01*
X-60401Y15860D01*
X-60429Y15970D01*
X-60460Y16079D01*
X-60495Y16187D01*
X-60534Y16293D01*
X-60576Y16398D01*
X-60622Y16502D01*
X-60672Y16604D01*
X-60725Y16704D01*
X-60782Y16802D01*
X-60842Y16898D01*
X-60905Y16992D01*
X-60972Y17083D01*
X-61041Y17173D01*
X-61114Y17260D01*
X-61190Y17344D01*
X-61269Y17425D01*
X-61350Y17504D01*
X-61434Y17580D01*
X-61521Y17653D01*
X-61610Y17722D01*
X-61702Y17789D01*
X-58192Y21670D02*
X-61382Y23903D01*
X-58192Y21670D02*
X-58111Y21610D01*
X-58032Y21548D01*
X-57955Y21482D01*
X-57881Y21414D01*
X-57810Y21343D01*
X-57742Y21269D01*
X-57676Y21192D01*
X-57614Y21113D01*
X-57554Y21032D01*
X-57498Y20948D01*
X-57445Y20863D01*
X-57396Y20775D01*
X-57350Y20686D01*
X-57307Y20594D01*
X-57268Y20501D01*
X-57233Y20407D01*
X-57201Y20312D01*
X-57173Y20215D01*
X-57149Y20117D01*
X-57129Y20019D01*
X-57112Y19919D01*
X-57100Y19819D01*
X-57091Y19719D01*
X-57086Y19618D01*
X-57085Y19518D01*
X-57088Y19417D01*
X-57095Y19317D01*
X-57106Y19217D01*
X-57120Y19117D01*
X-57139Y19018D01*
X-57161Y18920D01*
X-57187Y18823D01*
X-57217Y18726D01*
X-57250Y18632D01*
X-57287Y18538D01*
X-57328Y18446D01*
X-57373Y18355D01*
X-57420Y18267D01*
X-57472Y18180D01*
X-57526Y18096D01*
X-57584Y18013D01*
X-57645Y17933D01*
X-57709Y17855D01*
X-57776Y17780D01*
X-57845Y17707D01*
X-57918Y17638D01*
X-57993Y17571D01*
X-58071Y17507D01*
X-58151Y17446D01*
X-58234Y17388D01*
X-58318Y17334D01*
X-58405Y17282D01*
X-58493Y17235D01*
X-58584Y17190D01*
X-58676Y17149D01*
X-58769Y17112D01*
X-58864Y17079D01*
X-58961Y17049D01*
X-59058Y17023D01*
X-59156Y17001D01*
X-59255Y16982D01*
X-59355Y16968D01*
X-59455Y16957D01*
X-59555Y16950D01*
X-59656Y16947D01*
X-59756Y16948D01*
X-59857Y16953D01*
X-59957Y16962D01*
X-60057Y16974D01*
X-60157Y16991D01*
X-60255Y17011D01*
X-60353Y17035D01*
X-60450Y17063D01*
X-60545Y17095D01*
X-60639Y17130D01*
X-60732Y17169D01*
X-60824Y17212D01*
X-60913Y17258D01*
X-61001Y17307D01*
X-61086Y17360D01*
X-61170Y17416D01*
X-63297Y18905D01*
X-138621Y136137D02*
X-138621Y139383D01*
X-138620Y139383D02*
X-138622Y139496D01*
X-138628Y139609D01*
X-138638Y139722D01*
X-138652Y139835D01*
X-138669Y139947D01*
X-138691Y140058D01*
X-138716Y140168D01*
X-138746Y140278D01*
X-138779Y140386D01*
X-138816Y140493D01*
X-138856Y140599D01*
X-138901Y140703D01*
X-138949Y140806D01*
X-139000Y140907D01*
X-139055Y141006D01*
X-139113Y141103D01*
X-139175Y141198D01*
X-139240Y141291D01*
X-139308Y141381D01*
X-139379Y141469D01*
X-139454Y141555D01*
X-139531Y141638D01*
X-139611Y141718D01*
X-139694Y141795D01*
X-139780Y141870D01*
X-139868Y141941D01*
X-139958Y142009D01*
X-140051Y142074D01*
X-140146Y142136D01*
X-140243Y142194D01*
X-140342Y142249D01*
X-140443Y142300D01*
X-140546Y142348D01*
X-140650Y142393D01*
X-140756Y142433D01*
X-140863Y142470D01*
X-140971Y142503D01*
X-141081Y142533D01*
X-141191Y142558D01*
X-141302Y142580D01*
X-141414Y142597D01*
X-141527Y142611D01*
X-141640Y142621D01*
X-141753Y142627D01*
X-141866Y142629D01*
X-141979Y142627D01*
X-142092Y142621D01*
X-142205Y142611D01*
X-142318Y142597D01*
X-142430Y142580D01*
X-142541Y142558D01*
X-142651Y142533D01*
X-142761Y142503D01*
X-142869Y142470D01*
X-142976Y142433D01*
X-143082Y142393D01*
X-143186Y142348D01*
X-143289Y142300D01*
X-143390Y142249D01*
X-143489Y142194D01*
X-143586Y142136D01*
X-143681Y142074D01*
X-143774Y142009D01*
X-143864Y141941D01*
X-143952Y141870D01*
X-144038Y141795D01*
X-144121Y141718D01*
X-144201Y141638D01*
X-144278Y141555D01*
X-144353Y141469D01*
X-144424Y141381D01*
X-144492Y141291D01*
X-144557Y141198D01*
X-144619Y141103D01*
X-144677Y141006D01*
X-144732Y140907D01*
X-144783Y140806D01*
X-144831Y140703D01*
X-144876Y140599D01*
X-144916Y140493D01*
X-144953Y140386D01*
X-144986Y140278D01*
X-145016Y140168D01*
X-145041Y140058D01*
X-145063Y139947D01*
X-145080Y139835D01*
X-145094Y139722D01*
X-145104Y139609D01*
X-145110Y139496D01*
X-145112Y139383D01*
X-150305Y140032D02*
X-150305Y136137D01*
X-150304Y140032D02*
X-150302Y140133D01*
X-150296Y140233D01*
X-150286Y140333D01*
X-150273Y140433D01*
X-150255Y140532D01*
X-150234Y140631D01*
X-150209Y140728D01*
X-150180Y140825D01*
X-150147Y140920D01*
X-150111Y141014D01*
X-150071Y141106D01*
X-150028Y141197D01*
X-149981Y141286D01*
X-149931Y141373D01*
X-149877Y141459D01*
X-149820Y141542D01*
X-149760Y141622D01*
X-149697Y141701D01*
X-149630Y141777D01*
X-149561Y141850D01*
X-149489Y141920D01*
X-149415Y141988D01*
X-149338Y142053D01*
X-149258Y142114D01*
X-149176Y142173D01*
X-149092Y142228D01*
X-149006Y142280D01*
X-148918Y142329D01*
X-148828Y142374D01*
X-148736Y142416D01*
X-148643Y142454D01*
X-148548Y142488D01*
X-148453Y142519D01*
X-148356Y142546D01*
X-148258Y142569D01*
X-148159Y142589D01*
X-148059Y142604D01*
X-147959Y142616D01*
X-147859Y142624D01*
X-147758Y142628D01*
X-147658Y142628D01*
X-147557Y142624D01*
X-147457Y142616D01*
X-147357Y142604D01*
X-147257Y142589D01*
X-147158Y142569D01*
X-147060Y142546D01*
X-146963Y142519D01*
X-146868Y142488D01*
X-146773Y142454D01*
X-146680Y142416D01*
X-146588Y142374D01*
X-146498Y142329D01*
X-146410Y142280D01*
X-146324Y142228D01*
X-146240Y142173D01*
X-146158Y142114D01*
X-146078Y142053D01*
X-146001Y141988D01*
X-145927Y141920D01*
X-145855Y141850D01*
X-145786Y141777D01*
X-145719Y141701D01*
X-145656Y141622D01*
X-145596Y141542D01*
X-145539Y141459D01*
X-145485Y141373D01*
X-145435Y141286D01*
X-145388Y141197D01*
X-145345Y141106D01*
X-145305Y141014D01*
X-145269Y140920D01*
X-145236Y140825D01*
X-145207Y140728D01*
X-145182Y140631D01*
X-145161Y140532D01*
X-145143Y140433D01*
X-145130Y140333D01*
X-145120Y140233D01*
X-145114Y140133D01*
X-145112Y140032D01*
X-145112Y137435D01*
X-150305Y146918D02*
X-138621Y150813D01*
X-150305Y154707D01*
X-138621Y158997D02*
X-138621Y162242D01*
X-138620Y162242D02*
X-138622Y162355D01*
X-138628Y162468D01*
X-138638Y162581D01*
X-138652Y162694D01*
X-138669Y162806D01*
X-138691Y162917D01*
X-138716Y163027D01*
X-138746Y163137D01*
X-138779Y163245D01*
X-138816Y163352D01*
X-138856Y163458D01*
X-138901Y163562D01*
X-138949Y163665D01*
X-139000Y163766D01*
X-139055Y163865D01*
X-139113Y163962D01*
X-139175Y164057D01*
X-139240Y164150D01*
X-139308Y164240D01*
X-139379Y164328D01*
X-139454Y164414D01*
X-139531Y164497D01*
X-139611Y164577D01*
X-139694Y164654D01*
X-139780Y164729D01*
X-139868Y164800D01*
X-139958Y164868D01*
X-140051Y164933D01*
X-140146Y164995D01*
X-140243Y165053D01*
X-140342Y165108D01*
X-140443Y165159D01*
X-140546Y165207D01*
X-140650Y165252D01*
X-140756Y165292D01*
X-140863Y165329D01*
X-140971Y165362D01*
X-141081Y165392D01*
X-141191Y165417D01*
X-141302Y165439D01*
X-141414Y165456D01*
X-141527Y165470D01*
X-141640Y165480D01*
X-141753Y165486D01*
X-141866Y165488D01*
X-141979Y165486D01*
X-142092Y165480D01*
X-142205Y165470D01*
X-142318Y165456D01*
X-142430Y165439D01*
X-142541Y165417D01*
X-142651Y165392D01*
X-142761Y165362D01*
X-142869Y165329D01*
X-142976Y165292D01*
X-143082Y165252D01*
X-143186Y165207D01*
X-143289Y165159D01*
X-143390Y165108D01*
X-143489Y165053D01*
X-143586Y164995D01*
X-143681Y164933D01*
X-143774Y164868D01*
X-143864Y164800D01*
X-143952Y164729D01*
X-144038Y164654D01*
X-144121Y164577D01*
X-144201Y164497D01*
X-144278Y164414D01*
X-144353Y164328D01*
X-144424Y164240D01*
X-144492Y164150D01*
X-144557Y164057D01*
X-144619Y163962D01*
X-144677Y163865D01*
X-144732Y163766D01*
X-144783Y163665D01*
X-144831Y163562D01*
X-144876Y163458D01*
X-144916Y163352D01*
X-144953Y163245D01*
X-144986Y163137D01*
X-145016Y163027D01*
X-145041Y162917D01*
X-145063Y162806D01*
X-145080Y162694D01*
X-145094Y162581D01*
X-145104Y162468D01*
X-145110Y162355D01*
X-145112Y162242D01*
X-150305Y162892D02*
X-150305Y158997D01*
X-150304Y162892D02*
X-150302Y162993D01*
X-150296Y163093D01*
X-150286Y163193D01*
X-150273Y163293D01*
X-150255Y163392D01*
X-150234Y163491D01*
X-150209Y163588D01*
X-150180Y163685D01*
X-150147Y163780D01*
X-150111Y163874D01*
X-150071Y163966D01*
X-150028Y164057D01*
X-149981Y164146D01*
X-149931Y164233D01*
X-149877Y164319D01*
X-149820Y164402D01*
X-149760Y164482D01*
X-149697Y164561D01*
X-149630Y164637D01*
X-149561Y164710D01*
X-149489Y164780D01*
X-149415Y164848D01*
X-149338Y164913D01*
X-149258Y164974D01*
X-149176Y165033D01*
X-149092Y165088D01*
X-149006Y165140D01*
X-148918Y165189D01*
X-148828Y165234D01*
X-148736Y165276D01*
X-148643Y165314D01*
X-148548Y165348D01*
X-148453Y165379D01*
X-148356Y165406D01*
X-148258Y165429D01*
X-148159Y165449D01*
X-148059Y165464D01*
X-147959Y165476D01*
X-147859Y165484D01*
X-147758Y165488D01*
X-147658Y165488D01*
X-147557Y165484D01*
X-147457Y165476D01*
X-147357Y165464D01*
X-147257Y165449D01*
X-147158Y165429D01*
X-147060Y165406D01*
X-146963Y165379D01*
X-146868Y165348D01*
X-146773Y165314D01*
X-146680Y165276D01*
X-146588Y165234D01*
X-146498Y165189D01*
X-146410Y165140D01*
X-146324Y165088D01*
X-146240Y165033D01*
X-146158Y164974D01*
X-146078Y164913D01*
X-146001Y164848D01*
X-145927Y164780D01*
X-145855Y164710D01*
X-145786Y164637D01*
X-145719Y164561D01*
X-145656Y164482D01*
X-145596Y164402D01*
X-145539Y164319D01*
X-145485Y164233D01*
X-145435Y164146D01*
X-145388Y164057D01*
X-145345Y163966D01*
X-145305Y163874D01*
X-145269Y163780D01*
X-145236Y163685D01*
X-145207Y163588D01*
X-145182Y163491D01*
X-145161Y163392D01*
X-145143Y163293D01*
X-145130Y163193D01*
X-145120Y163093D01*
X-145114Y162993D01*
X-145112Y162892D01*
X-145112Y160295D01*
D10*
X114064Y183198D02*
X114064Y200978D01*
X119003Y200978D01*
X119143Y200976D01*
X119282Y200970D01*
X119422Y200960D01*
X119561Y200946D01*
X119700Y200929D01*
X119838Y200907D01*
X119975Y200881D01*
X120112Y200852D01*
X120248Y200819D01*
X120382Y200782D01*
X120516Y200741D01*
X120648Y200696D01*
X120780Y200647D01*
X120909Y200595D01*
X121037Y200540D01*
X121164Y200480D01*
X121289Y200417D01*
X121412Y200351D01*
X121533Y200281D01*
X121652Y200208D01*
X121769Y200131D01*
X121883Y200051D01*
X121996Y199968D01*
X122106Y199882D01*
X122213Y199792D01*
X122318Y199700D01*
X122420Y199605D01*
X122520Y199507D01*
X122617Y199406D01*
X122711Y199302D01*
X122801Y199196D01*
X122889Y199087D01*
X122974Y198976D01*
X123055Y198862D01*
X123134Y198747D01*
X123209Y198629D01*
X123280Y198509D01*
X123348Y198386D01*
X123413Y198263D01*
X123474Y198137D01*
X123532Y198009D01*
X123586Y197881D01*
X123636Y197750D01*
X123683Y197618D01*
X123726Y197485D01*
X123765Y197351D01*
X123800Y197216D01*
X123831Y197080D01*
X123859Y196942D01*
X123882Y196805D01*
X123902Y196666D01*
X123918Y196527D01*
X123930Y196388D01*
X123938Y196249D01*
X123942Y196109D01*
X123942Y195969D01*
X123938Y195829D01*
X123930Y195690D01*
X123918Y195551D01*
X123902Y195412D01*
X123882Y195273D01*
X123859Y195136D01*
X123831Y194998D01*
X123800Y194862D01*
X123765Y194727D01*
X123726Y194593D01*
X123683Y194460D01*
X123636Y194328D01*
X123586Y194197D01*
X123532Y194069D01*
X123474Y193941D01*
X123413Y193815D01*
X123348Y193692D01*
X123280Y193570D01*
X123209Y193449D01*
X123134Y193331D01*
X123055Y193216D01*
X122974Y193102D01*
X122889Y192991D01*
X122801Y192882D01*
X122711Y192776D01*
X122617Y192672D01*
X122520Y192571D01*
X122420Y192473D01*
X122318Y192378D01*
X122213Y192286D01*
X122106Y192196D01*
X121996Y192110D01*
X121883Y192027D01*
X121769Y191947D01*
X121652Y191870D01*
X121533Y191797D01*
X121412Y191727D01*
X121289Y191661D01*
X121164Y191598D01*
X121037Y191538D01*
X120909Y191483D01*
X120780Y191431D01*
X120648Y191382D01*
X120516Y191337D01*
X120382Y191296D01*
X120248Y191259D01*
X120112Y191226D01*
X119975Y191197D01*
X119838Y191171D01*
X119700Y191149D01*
X119561Y191132D01*
X119422Y191118D01*
X119282Y191108D01*
X119143Y191102D01*
X119003Y191100D01*
X114064Y191100D01*
X130059Y197026D02*
X134998Y200978D01*
X134998Y183198D01*
X139936Y183198D02*
X130059Y183198D01*
X92572Y90857D02*
X105145Y78285D01*
X92572Y90857D02*
X96064Y94349D01*
X96065Y94349D02*
X96165Y94447D01*
X96268Y94541D01*
X96373Y94633D01*
X96481Y94722D01*
X96592Y94807D01*
X96705Y94889D01*
X96820Y94968D01*
X96938Y95044D01*
X97057Y95117D01*
X97179Y95186D01*
X97302Y95251D01*
X97428Y95313D01*
X97555Y95372D01*
X97683Y95427D01*
X97813Y95478D01*
X97945Y95525D01*
X98077Y95569D01*
X98211Y95609D01*
X98346Y95645D01*
X98482Y95678D01*
X98619Y95706D01*
X98757Y95731D01*
X98895Y95751D01*
X99034Y95768D01*
X99173Y95781D01*
X99312Y95790D01*
X99452Y95795D01*
X99592Y95796D01*
X99732Y95793D01*
X99871Y95786D01*
X100011Y95775D01*
X100150Y95760D01*
X100288Y95742D01*
X100426Y95719D01*
X100563Y95692D01*
X100700Y95662D01*
X100835Y95628D01*
X100970Y95590D01*
X101103Y95548D01*
X101235Y95502D01*
X101366Y95453D01*
X101495Y95400D01*
X101623Y95343D01*
X101749Y95283D01*
X101874Y95219D01*
X101996Y95152D01*
X102117Y95081D01*
X102235Y95007D01*
X102352Y94929D01*
X102466Y94849D01*
X102578Y94765D01*
X102687Y94678D01*
X102794Y94588D01*
X102898Y94494D01*
X103000Y94398D01*
X103098Y94300D01*
X103194Y94198D01*
X103288Y94094D01*
X103378Y93987D01*
X103465Y93878D01*
X103549Y93766D01*
X103629Y93652D01*
X103707Y93535D01*
X103781Y93417D01*
X103852Y93296D01*
X103919Y93174D01*
X103983Y93049D01*
X104043Y92923D01*
X104100Y92795D01*
X104153Y92666D01*
X104202Y92535D01*
X104248Y92403D01*
X104290Y92270D01*
X104328Y92135D01*
X104362Y92000D01*
X104392Y91863D01*
X104419Y91726D01*
X104442Y91588D01*
X104460Y91450D01*
X104475Y91311D01*
X104486Y91171D01*
X104493Y91032D01*
X104496Y90892D01*
X104495Y90752D01*
X104490Y90612D01*
X104481Y90473D01*
X104468Y90334D01*
X104451Y90195D01*
X104431Y90057D01*
X104406Y89919D01*
X104378Y89782D01*
X104345Y89646D01*
X104309Y89511D01*
X104269Y89377D01*
X104225Y89245D01*
X104178Y89113D01*
X104127Y88983D01*
X104072Y88855D01*
X104013Y88728D01*
X103951Y88602D01*
X103886Y88479D01*
X103817Y88357D01*
X103744Y88238D01*
X103668Y88120D01*
X103589Y88005D01*
X103507Y87892D01*
X103422Y87781D01*
X103333Y87673D01*
X103241Y87568D01*
X103147Y87465D01*
X103049Y87365D01*
X99557Y83872D01*
X107724Y106009D02*
X107818Y106101D01*
X107916Y106190D01*
X108015Y106276D01*
X108118Y106359D01*
X108222Y106439D01*
X108329Y106516D01*
X108439Y106589D01*
X108550Y106659D01*
X108664Y106726D01*
X108779Y106790D01*
X108896Y106850D01*
X109015Y106907D01*
X109136Y106960D01*
X109258Y107009D01*
X109381Y107055D01*
X109506Y107097D01*
X109632Y107136D01*
X109759Y107171D01*
X109887Y107202D01*
X110016Y107229D01*
X110146Y107252D01*
X110276Y107272D01*
X110407Y107287D01*
X110538Y107299D01*
X110669Y107307D01*
X110801Y107311D01*
X110933Y107311D01*
X111065Y107307D01*
X111196Y107299D01*
X111327Y107287D01*
X111458Y107272D01*
X111588Y107252D01*
X111718Y107229D01*
X111847Y107202D01*
X111975Y107171D01*
X112102Y107136D01*
X112228Y107097D01*
X112353Y107055D01*
X112476Y107009D01*
X112598Y106960D01*
X112719Y106907D01*
X112838Y106850D01*
X112955Y106790D01*
X113070Y106726D01*
X113184Y106659D01*
X113295Y106589D01*
X113405Y106516D01*
X113512Y106439D01*
X113616Y106359D01*
X113719Y106276D01*
X113818Y106190D01*
X113916Y106101D01*
X114010Y106009D01*
X107724Y106009D02*
X107619Y105902D01*
X107518Y105792D01*
X107419Y105680D01*
X107323Y105565D01*
X107231Y105447D01*
X107141Y105327D01*
X107055Y105205D01*
X106972Y105081D01*
X106892Y104954D01*
X106816Y104826D01*
X106742Y104695D01*
X106673Y104563D01*
X106607Y104428D01*
X106544Y104292D01*
X106485Y104155D01*
X106430Y104016D01*
X106378Y103876D01*
X106330Y103734D01*
X106286Y103591D01*
X106245Y103447D01*
X106208Y103302D01*
X106175Y103156D01*
X106146Y103009D01*
X106121Y102862D01*
X106099Y102714D01*
X106082Y102565D01*
X106068Y102416D01*
X106059Y102267D01*
X106053Y102117D01*
X106051Y101968D01*
X106053Y101818D01*
X106059Y101668D01*
X106069Y101519D01*
X106083Y101370D01*
X106100Y101222D01*
X106122Y101074D01*
X106147Y100926D01*
X106177Y100779D01*
X106210Y100633D01*
X106247Y100488D01*
X106288Y100344D01*
X106332Y100202D01*
X106380Y100060D01*
X106432Y99920D01*
X106488Y99781D01*
X106547Y99643D01*
X106610Y99507D01*
X106676Y99373D01*
X115407Y102517D02*
X115408Y102650D01*
X115406Y102783D01*
X115400Y102916D01*
X115390Y103049D01*
X115376Y103182D01*
X115359Y103314D01*
X115338Y103446D01*
X115314Y103577D01*
X115286Y103707D01*
X115254Y103837D01*
X115218Y103965D01*
X115179Y104093D01*
X115137Y104219D01*
X115091Y104344D01*
X115041Y104468D01*
X114988Y104590D01*
X114932Y104711D01*
X114872Y104830D01*
X114809Y104948D01*
X114743Y105063D01*
X114674Y105177D01*
X114601Y105289D01*
X114525Y105399D01*
X114447Y105506D01*
X114365Y105611D01*
X114280Y105714D01*
X114193Y105815D01*
X114103Y105913D01*
X114010Y106009D01*
X115407Y102516D02*
X116455Y89595D01*
X123439Y96579D01*
X127297Y110216D02*
X123106Y114406D01*
X127297Y110216D02*
X132885Y109517D01*
X127297Y110216D02*
X127995Y104628D01*
X127297Y110216D02*
X129742Y115454D01*
X127297Y110216D02*
X122058Y107771D01*
X-11349Y37465D02*
X-11349Y19685D01*
X-11349Y37465D02*
X-6410Y37465D01*
X-6270Y37463D01*
X-6131Y37457D01*
X-5991Y37447D01*
X-5852Y37433D01*
X-5713Y37416D01*
X-5575Y37394D01*
X-5438Y37368D01*
X-5301Y37339D01*
X-5165Y37306D01*
X-5031Y37269D01*
X-4897Y37228D01*
X-4765Y37183D01*
X-4633Y37134D01*
X-4504Y37082D01*
X-4376Y37027D01*
X-4249Y36967D01*
X-4124Y36904D01*
X-4001Y36838D01*
X-3880Y36768D01*
X-3761Y36695D01*
X-3644Y36618D01*
X-3530Y36538D01*
X-3417Y36455D01*
X-3307Y36369D01*
X-3200Y36279D01*
X-3095Y36187D01*
X-2993Y36092D01*
X-2893Y35994D01*
X-2796Y35893D01*
X-2702Y35789D01*
X-2612Y35683D01*
X-2524Y35574D01*
X-2439Y35463D01*
X-2358Y35349D01*
X-2279Y35234D01*
X-2204Y35116D01*
X-2133Y34996D01*
X-2065Y34873D01*
X-2000Y34750D01*
X-1939Y34624D01*
X-1881Y34496D01*
X-1827Y34368D01*
X-1777Y34237D01*
X-1730Y34105D01*
X-1687Y33972D01*
X-1648Y33838D01*
X-1613Y33703D01*
X-1582Y33567D01*
X-1554Y33429D01*
X-1531Y33292D01*
X-1511Y33153D01*
X-1495Y33014D01*
X-1483Y32875D01*
X-1475Y32736D01*
X-1471Y32596D01*
X-1471Y32456D01*
X-1475Y32316D01*
X-1483Y32177D01*
X-1495Y32038D01*
X-1511Y31899D01*
X-1531Y31760D01*
X-1554Y31623D01*
X-1582Y31485D01*
X-1613Y31349D01*
X-1648Y31214D01*
X-1687Y31080D01*
X-1730Y30947D01*
X-1777Y30815D01*
X-1827Y30684D01*
X-1881Y30556D01*
X-1939Y30428D01*
X-2000Y30302D01*
X-2065Y30179D01*
X-2133Y30057D01*
X-2204Y29936D01*
X-2279Y29818D01*
X-2358Y29703D01*
X-2439Y29589D01*
X-2524Y29478D01*
X-2612Y29369D01*
X-2702Y29263D01*
X-2796Y29159D01*
X-2893Y29058D01*
X-2993Y28960D01*
X-3095Y28865D01*
X-3200Y28773D01*
X-3307Y28683D01*
X-3417Y28597D01*
X-3530Y28514D01*
X-3644Y28434D01*
X-3761Y28357D01*
X-3880Y28284D01*
X-4001Y28214D01*
X-4124Y28148D01*
X-4249Y28085D01*
X-4376Y28025D01*
X-4504Y27970D01*
X-4633Y27918D01*
X-4765Y27869D01*
X-4897Y27824D01*
X-5031Y27783D01*
X-5165Y27746D01*
X-5301Y27713D01*
X-5438Y27684D01*
X-5575Y27658D01*
X-5713Y27636D01*
X-5852Y27619D01*
X-5991Y27605D01*
X-6131Y27595D01*
X-6270Y27589D01*
X-6410Y27587D01*
X-11349Y27587D01*
X4646Y19685D02*
X9585Y19685D01*
X9725Y19687D01*
X9864Y19693D01*
X10004Y19703D01*
X10143Y19717D01*
X10282Y19734D01*
X10420Y19756D01*
X10557Y19782D01*
X10694Y19811D01*
X10830Y19844D01*
X10964Y19881D01*
X11098Y19922D01*
X11230Y19967D01*
X11362Y20016D01*
X11491Y20068D01*
X11619Y20123D01*
X11746Y20183D01*
X11871Y20246D01*
X11994Y20312D01*
X12115Y20382D01*
X12234Y20455D01*
X12351Y20532D01*
X12465Y20612D01*
X12578Y20695D01*
X12688Y20781D01*
X12795Y20871D01*
X12900Y20963D01*
X13002Y21058D01*
X13102Y21156D01*
X13199Y21257D01*
X13293Y21361D01*
X13383Y21467D01*
X13471Y21576D01*
X13556Y21687D01*
X13637Y21801D01*
X13716Y21916D01*
X13791Y22034D01*
X13862Y22155D01*
X13930Y22277D01*
X13995Y22400D01*
X14056Y22526D01*
X14114Y22654D01*
X14168Y22782D01*
X14218Y22913D01*
X14265Y23045D01*
X14308Y23178D01*
X14347Y23312D01*
X14382Y23447D01*
X14413Y23583D01*
X14441Y23721D01*
X14464Y23858D01*
X14484Y23997D01*
X14500Y24136D01*
X14512Y24275D01*
X14520Y24414D01*
X14524Y24554D01*
X14524Y24694D01*
X14520Y24834D01*
X14512Y24973D01*
X14500Y25112D01*
X14484Y25251D01*
X14464Y25390D01*
X14441Y25527D01*
X14413Y25665D01*
X14382Y25801D01*
X14347Y25936D01*
X14308Y26070D01*
X14265Y26203D01*
X14218Y26335D01*
X14168Y26466D01*
X14114Y26594D01*
X14056Y26722D01*
X13995Y26848D01*
X13930Y26971D01*
X13862Y27094D01*
X13791Y27214D01*
X13716Y27332D01*
X13637Y27447D01*
X13556Y27561D01*
X13471Y27672D01*
X13383Y27781D01*
X13293Y27887D01*
X13199Y27991D01*
X13102Y28092D01*
X13002Y28190D01*
X12900Y28285D01*
X12795Y28377D01*
X12688Y28467D01*
X12578Y28553D01*
X12465Y28636D01*
X12351Y28716D01*
X12234Y28793D01*
X12115Y28866D01*
X11994Y28936D01*
X11871Y29002D01*
X11746Y29065D01*
X11619Y29125D01*
X11491Y29180D01*
X11362Y29232D01*
X11230Y29281D01*
X11098Y29326D01*
X10964Y29367D01*
X10830Y29404D01*
X10694Y29437D01*
X10557Y29466D01*
X10420Y29492D01*
X10282Y29514D01*
X10143Y29531D01*
X10004Y29545D01*
X9864Y29555D01*
X9725Y29561D01*
X9585Y29563D01*
X10573Y37465D02*
X4646Y37465D01*
X10573Y37465D02*
X10697Y37463D01*
X10821Y37457D01*
X10945Y37447D01*
X11068Y37434D01*
X11191Y37416D01*
X11313Y37395D01*
X11435Y37370D01*
X11556Y37341D01*
X11675Y37308D01*
X11794Y37272D01*
X11911Y37231D01*
X12027Y37188D01*
X12142Y37140D01*
X12255Y37089D01*
X12367Y37034D01*
X12476Y36976D01*
X12584Y36915D01*
X12690Y36850D01*
X12794Y36782D01*
X12895Y36710D01*
X12995Y36636D01*
X13091Y36558D01*
X13186Y36478D01*
X13278Y36394D01*
X13367Y36308D01*
X13453Y36219D01*
X13537Y36127D01*
X13617Y36032D01*
X13695Y35936D01*
X13769Y35836D01*
X13841Y35735D01*
X13909Y35631D01*
X13974Y35525D01*
X14035Y35417D01*
X14093Y35308D01*
X14148Y35196D01*
X14199Y35083D01*
X14247Y34968D01*
X14290Y34852D01*
X14331Y34735D01*
X14367Y34616D01*
X14400Y34497D01*
X14429Y34376D01*
X14454Y34254D01*
X14475Y34132D01*
X14493Y34009D01*
X14506Y33886D01*
X14516Y33762D01*
X14522Y33638D01*
X14524Y33514D01*
X14522Y33390D01*
X14516Y33266D01*
X14506Y33142D01*
X14493Y33019D01*
X14475Y32896D01*
X14454Y32774D01*
X14429Y32652D01*
X14400Y32531D01*
X14367Y32412D01*
X14331Y32293D01*
X14290Y32176D01*
X14247Y32060D01*
X14199Y31945D01*
X14148Y31832D01*
X14093Y31720D01*
X14035Y31611D01*
X13974Y31503D01*
X13909Y31397D01*
X13841Y31293D01*
X13769Y31192D01*
X13695Y31092D01*
X13617Y30996D01*
X13537Y30901D01*
X13453Y30809D01*
X13367Y30720D01*
X13278Y30634D01*
X13186Y30550D01*
X13091Y30470D01*
X12995Y30392D01*
X12895Y30318D01*
X12794Y30246D01*
X12690Y30178D01*
X12584Y30113D01*
X12476Y30052D01*
X12367Y29994D01*
X12255Y29939D01*
X12142Y29888D01*
X12027Y29840D01*
X11911Y29797D01*
X11794Y29756D01*
X11675Y29720D01*
X11556Y29687D01*
X11435Y29658D01*
X11313Y29633D01*
X11191Y29612D01*
X11068Y29594D01*
X10945Y29581D01*
X10821Y29571D01*
X10697Y29565D01*
X10573Y29563D01*
X6622Y29563D01*
X-110811Y107509D02*
X-123384Y94936D01*
X-110811Y107509D02*
X-107319Y104016D01*
X-107221Y103916D01*
X-107127Y103813D01*
X-107035Y103708D01*
X-106946Y103600D01*
X-106861Y103489D01*
X-106779Y103376D01*
X-106700Y103261D01*
X-106624Y103143D01*
X-106551Y103024D01*
X-106482Y102902D01*
X-106417Y102779D01*
X-106355Y102653D01*
X-106296Y102526D01*
X-106241Y102398D01*
X-106190Y102268D01*
X-106143Y102136D01*
X-106099Y102004D01*
X-106059Y101870D01*
X-106023Y101735D01*
X-105990Y101599D01*
X-105962Y101462D01*
X-105937Y101324D01*
X-105917Y101186D01*
X-105900Y101047D01*
X-105887Y100908D01*
X-105878Y100769D01*
X-105873Y100629D01*
X-105872Y100489D01*
X-105875Y100349D01*
X-105882Y100210D01*
X-105893Y100070D01*
X-105908Y99931D01*
X-105926Y99793D01*
X-105949Y99655D01*
X-105976Y99518D01*
X-106006Y99381D01*
X-106040Y99246D01*
X-106078Y99111D01*
X-106120Y98978D01*
X-106166Y98846D01*
X-106215Y98715D01*
X-106268Y98586D01*
X-106325Y98458D01*
X-106385Y98332D01*
X-106449Y98207D01*
X-106516Y98085D01*
X-106587Y97964D01*
X-106661Y97846D01*
X-106739Y97729D01*
X-106819Y97615D01*
X-106903Y97503D01*
X-106990Y97394D01*
X-107080Y97287D01*
X-107174Y97183D01*
X-107270Y97081D01*
X-107368Y96983D01*
X-107470Y96887D01*
X-107574Y96793D01*
X-107681Y96703D01*
X-107790Y96616D01*
X-107902Y96532D01*
X-108016Y96452D01*
X-108133Y96374D01*
X-108251Y96300D01*
X-108372Y96229D01*
X-108494Y96162D01*
X-108619Y96098D01*
X-108745Y96038D01*
X-108873Y95981D01*
X-109002Y95928D01*
X-109133Y95879D01*
X-109265Y95833D01*
X-109398Y95791D01*
X-109533Y95753D01*
X-109668Y95719D01*
X-109805Y95689D01*
X-109942Y95662D01*
X-110080Y95639D01*
X-110218Y95621D01*
X-110357Y95606D01*
X-110497Y95595D01*
X-110636Y95588D01*
X-110776Y95585D01*
X-110916Y95586D01*
X-111056Y95591D01*
X-111195Y95600D01*
X-111334Y95613D01*
X-111473Y95630D01*
X-111611Y95650D01*
X-111749Y95675D01*
X-111886Y95703D01*
X-112022Y95736D01*
X-112157Y95772D01*
X-112291Y95812D01*
X-112423Y95856D01*
X-112555Y95903D01*
X-112685Y95954D01*
X-112813Y96009D01*
X-112940Y96068D01*
X-113066Y96130D01*
X-113189Y96195D01*
X-113311Y96264D01*
X-113430Y96337D01*
X-113548Y96413D01*
X-113663Y96492D01*
X-113776Y96574D01*
X-113887Y96659D01*
X-113995Y96748D01*
X-114100Y96840D01*
X-114203Y96934D01*
X-114303Y97032D01*
X-114304Y97032D02*
X-117796Y100524D01*
X-109279Y86420D02*
X-96707Y93404D01*
X-109279Y86420D02*
X-102295Y79435D01*
X-101596Y84324D02*
X-107184Y78737D01*
X-138349Y184785D02*
X-138349Y202565D01*
X-133410Y202565D01*
X-133270Y202563D01*
X-133131Y202557D01*
X-132991Y202547D01*
X-132852Y202533D01*
X-132713Y202516D01*
X-132575Y202494D01*
X-132438Y202468D01*
X-132301Y202439D01*
X-132165Y202406D01*
X-132031Y202369D01*
X-131897Y202328D01*
X-131765Y202283D01*
X-131633Y202234D01*
X-131504Y202182D01*
X-131376Y202127D01*
X-131249Y202067D01*
X-131124Y202004D01*
X-131001Y201938D01*
X-130880Y201868D01*
X-130761Y201795D01*
X-130644Y201718D01*
X-130530Y201638D01*
X-130417Y201555D01*
X-130307Y201469D01*
X-130200Y201379D01*
X-130095Y201287D01*
X-129993Y201192D01*
X-129893Y201094D01*
X-129796Y200993D01*
X-129702Y200889D01*
X-129612Y200783D01*
X-129524Y200674D01*
X-129439Y200563D01*
X-129358Y200449D01*
X-129279Y200334D01*
X-129204Y200216D01*
X-129133Y200096D01*
X-129065Y199973D01*
X-129000Y199850D01*
X-128939Y199724D01*
X-128881Y199596D01*
X-128827Y199468D01*
X-128777Y199337D01*
X-128730Y199205D01*
X-128687Y199072D01*
X-128648Y198938D01*
X-128613Y198803D01*
X-128582Y198667D01*
X-128554Y198529D01*
X-128531Y198392D01*
X-128511Y198253D01*
X-128495Y198114D01*
X-128483Y197975D01*
X-128475Y197836D01*
X-128471Y197696D01*
X-128471Y197556D01*
X-128475Y197416D01*
X-128483Y197277D01*
X-128495Y197138D01*
X-128511Y196999D01*
X-128531Y196860D01*
X-128554Y196723D01*
X-128582Y196585D01*
X-128613Y196449D01*
X-128648Y196314D01*
X-128687Y196180D01*
X-128730Y196047D01*
X-128777Y195915D01*
X-128827Y195784D01*
X-128881Y195656D01*
X-128939Y195528D01*
X-129000Y195402D01*
X-129065Y195279D01*
X-129133Y195157D01*
X-129204Y195036D01*
X-129279Y194918D01*
X-129358Y194803D01*
X-129439Y194689D01*
X-129524Y194578D01*
X-129612Y194469D01*
X-129702Y194363D01*
X-129796Y194259D01*
X-129893Y194158D01*
X-129993Y194060D01*
X-130095Y193965D01*
X-130200Y193873D01*
X-130307Y193783D01*
X-130417Y193697D01*
X-130530Y193614D01*
X-130644Y193534D01*
X-130761Y193457D01*
X-130880Y193384D01*
X-131001Y193314D01*
X-131124Y193248D01*
X-131249Y193185D01*
X-131376Y193125D01*
X-131504Y193070D01*
X-131633Y193018D01*
X-131765Y192969D01*
X-131897Y192924D01*
X-132031Y192883D01*
X-132165Y192846D01*
X-132301Y192813D01*
X-132438Y192784D01*
X-132575Y192758D01*
X-132713Y192736D01*
X-132852Y192719D01*
X-132991Y192705D01*
X-133131Y192695D01*
X-133270Y192689D01*
X-133410Y192687D01*
X-138349Y192687D01*
X-122354Y184785D02*
X-116427Y184785D01*
X-116303Y184787D01*
X-116179Y184793D01*
X-116055Y184803D01*
X-115932Y184816D01*
X-115809Y184834D01*
X-115687Y184855D01*
X-115565Y184880D01*
X-115444Y184909D01*
X-115325Y184942D01*
X-115206Y184978D01*
X-115089Y185019D01*
X-114973Y185062D01*
X-114858Y185110D01*
X-114745Y185161D01*
X-114633Y185216D01*
X-114524Y185274D01*
X-114416Y185335D01*
X-114310Y185400D01*
X-114206Y185468D01*
X-114105Y185540D01*
X-114005Y185614D01*
X-113909Y185692D01*
X-113814Y185772D01*
X-113722Y185856D01*
X-113633Y185942D01*
X-113547Y186031D01*
X-113463Y186123D01*
X-113383Y186218D01*
X-113305Y186314D01*
X-113231Y186414D01*
X-113159Y186515D01*
X-113091Y186619D01*
X-113026Y186725D01*
X-112965Y186833D01*
X-112907Y186942D01*
X-112852Y187054D01*
X-112801Y187167D01*
X-112753Y187282D01*
X-112710Y187398D01*
X-112669Y187515D01*
X-112633Y187634D01*
X-112600Y187753D01*
X-112571Y187874D01*
X-112546Y187996D01*
X-112525Y188118D01*
X-112507Y188241D01*
X-112494Y188364D01*
X-112484Y188488D01*
X-112478Y188612D01*
X-112476Y188736D01*
X-112476Y190712D01*
X-112478Y190836D01*
X-112484Y190960D01*
X-112494Y191084D01*
X-112507Y191207D01*
X-112525Y191330D01*
X-112546Y191452D01*
X-112571Y191574D01*
X-112600Y191695D01*
X-112633Y191814D01*
X-112669Y191933D01*
X-112710Y192050D01*
X-112753Y192166D01*
X-112801Y192281D01*
X-112852Y192394D01*
X-112907Y192506D01*
X-112965Y192615D01*
X-113026Y192723D01*
X-113091Y192829D01*
X-113159Y192933D01*
X-113231Y193034D01*
X-113305Y193134D01*
X-113383Y193230D01*
X-113463Y193325D01*
X-113547Y193417D01*
X-113633Y193506D01*
X-113722Y193592D01*
X-113814Y193676D01*
X-113909Y193756D01*
X-114005Y193834D01*
X-114105Y193908D01*
X-114206Y193980D01*
X-114310Y194048D01*
X-114416Y194113D01*
X-114524Y194174D01*
X-114633Y194232D01*
X-114745Y194287D01*
X-114858Y194338D01*
X-114973Y194386D01*
X-115089Y194429D01*
X-115206Y194470D01*
X-115325Y194506D01*
X-115444Y194539D01*
X-115565Y194568D01*
X-115687Y194593D01*
X-115809Y194614D01*
X-115932Y194632D01*
X-116055Y194645D01*
X-116179Y194655D01*
X-116303Y194661D01*
X-116427Y194663D01*
X-122354Y194663D01*
X-122354Y202565D01*
X-112476Y202565D01*
D12*
X68692Y36101D03*
D13*
X68176Y36248D03*
D14*
X67587Y36396D03*
D15*
X67145Y36543D03*
D16*
X66629Y36690D03*
D17*
X66187Y36838D03*
D18*
X65598Y36985D03*
D19*
X65082Y37132D03*
D20*
X64640Y37280D03*
D21*
X64199Y37427D03*
D22*
X64125Y37574D03*
D23*
X64199Y37722D03*
D24*
X64272Y37869D03*
D25*
X64199Y38016D03*
D26*
X64272Y38164D03*
D27*
X64272Y38311D03*
D28*
X64346Y38458D03*
X64346Y38606D03*
D29*
X64346Y38753D03*
D30*
X64419Y38900D03*
D31*
X64419Y39047D03*
X64419Y39195D03*
D32*
X64493Y39342D03*
D33*
X64493Y39489D03*
D34*
X64567Y39637D03*
D35*
X64493Y39784D03*
D36*
X64567Y39931D03*
D37*
X64640Y40079D03*
D38*
X64640Y40226D03*
X64640Y40373D03*
D39*
X64714Y40521D03*
D40*
X64714Y40668D03*
D41*
X64788Y40815D03*
D42*
X64714Y40963D03*
D43*
X64788Y41110D03*
D44*
X64861Y41257D03*
D45*
X64861Y41405D03*
X64861Y41552D03*
D46*
X64861Y41699D03*
D47*
X64935Y41847D03*
X64935Y41994D03*
D48*
X64935Y42141D03*
D49*
X65009Y42289D03*
D50*
X65009Y42436D03*
X65009Y42583D03*
D51*
X65082Y42730D03*
D52*
X65082Y42878D03*
D53*
X65156Y43025D03*
D54*
X65082Y43172D03*
D55*
X65156Y43320D03*
D56*
X65230Y43467D03*
D57*
X85707Y43467D03*
D58*
X65230Y43614D03*
D59*
X85118Y43614D03*
D58*
X65230Y43762D03*
D60*
X84676Y43762D03*
D61*
X65230Y43909D03*
D62*
X84160Y43909D03*
D63*
X65303Y44056D03*
D64*
X83718Y44056D03*
D63*
X65303Y44204D03*
D65*
X83129Y44204D03*
D66*
X65230Y44351D03*
D67*
X82687Y44351D03*
D66*
X65230Y44498D03*
D68*
X82172Y44498D03*
D63*
X65156Y44646D03*
D69*
X81730Y44646D03*
D66*
X65082Y44793D03*
D21*
X81582Y44793D03*
D66*
X65082Y44940D03*
D23*
X81582Y44940D03*
D66*
X64935Y45088D03*
D24*
X81656Y45088D03*
D66*
X64935Y45235D03*
D25*
X81730Y45235D03*
D63*
X64861Y45382D03*
D26*
X81656Y45382D03*
D66*
X64788Y45530D03*
D70*
X81730Y45530D03*
D66*
X64788Y45677D03*
D28*
X81730Y45677D03*
D66*
X64640Y45824D03*
D71*
X81803Y45824D03*
D66*
X64640Y45972D03*
D71*
X81803Y45972D03*
D63*
X64567Y46119D03*
D30*
X81803Y46119D03*
D66*
X64493Y46266D03*
D72*
X81877Y46266D03*
D66*
X64493Y46413D03*
D32*
X81877Y46413D03*
D66*
X64346Y46561D03*
D32*
X81877Y46561D03*
D66*
X64346Y46708D03*
D73*
X81951Y46708D03*
D63*
X64272Y46855D03*
D34*
X81951Y46855D03*
D61*
X64346Y47003D03*
D35*
X82024Y47003D03*
D61*
X64346Y47150D03*
D36*
X81951Y47150D03*
D74*
X64346Y47297D03*
D75*
X82024Y47297D03*
D76*
X64419Y47445D03*
D77*
X82098Y47445D03*
D55*
X64419Y47592D03*
D78*
X82098Y47592D03*
D55*
X64419Y47739D03*
D78*
X82098Y47739D03*
D54*
X64493Y47887D03*
D79*
X82172Y47887D03*
D52*
X64493Y48034D03*
D41*
X82172Y48034D03*
D80*
X64567Y48181D03*
D41*
X82172Y48181D03*
D51*
X64493Y48329D03*
D43*
X82172Y48329D03*
D81*
X64567Y48476D03*
D44*
X82245Y48476D03*
D82*
X64640Y48623D03*
D83*
X82319Y48623D03*
D48*
X64640Y48771D03*
D84*
X82245Y48771D03*
D48*
X64640Y48918D03*
D85*
X82319Y48918D03*
D86*
X64714Y49065D03*
D47*
X82319Y49065D03*
D46*
X64714Y49213D03*
D86*
X82393Y49213D03*
D46*
X64714Y49360D03*
D86*
X82393Y49360D03*
D84*
X64714Y49507D03*
D49*
X82393Y49507D03*
D87*
X64788Y49655D03*
D82*
X82466Y49655D03*
D44*
X64861Y49802D03*
D51*
X82466Y49802D03*
D43*
X64788Y49949D03*
D51*
X82466Y49949D03*
D42*
X64861Y50096D03*
D80*
X82540Y50096D03*
D40*
X64861Y50244D03*
D53*
X82540Y50244D03*
D79*
X64935Y50391D03*
D54*
X82614Y50391D03*
D79*
X64935Y50538D03*
D55*
X82540Y50538D03*
D88*
X64935Y50686D03*
D89*
X82614Y50686D03*
D77*
X65009Y50833D03*
D76*
X82687Y50833D03*
D36*
X65009Y50980D03*
D90*
X82687Y50980D03*
D36*
X65009Y51128D03*
D90*
X82687Y51128D03*
D35*
X65082Y51275D03*
D63*
X82687Y51275D03*
D33*
X65082Y51422D03*
D66*
X82761Y51422D03*
D73*
X65156Y51570D03*
D63*
X82687Y51570D03*
D32*
X65082Y51717D03*
D66*
X82614Y51717D03*
D91*
X65156Y51864D03*
D66*
X82614Y51864D03*
D92*
X65230Y52012D03*
D63*
X82540Y52012D03*
D29*
X65230Y52159D03*
D66*
X82466Y52159D03*
D29*
X65230Y52306D03*
D66*
X82466Y52306D03*
D71*
X65303Y52454D03*
D66*
X82319Y52454D03*
D27*
X65303Y52601D03*
D66*
X82319Y52601D03*
D70*
X65377Y52748D03*
D63*
X82245Y52748D03*
D93*
X65303Y52896D03*
D66*
X82172Y52896D03*
D25*
X65377Y53043D03*
D66*
X82172Y53043D03*
D24*
X65451Y53190D03*
D66*
X82024Y53190D03*
D23*
X65377Y53338D03*
D66*
X82024Y53338D03*
D22*
X65451Y53485D03*
D63*
X81951Y53485D03*
D69*
X65377Y53632D03*
D66*
X81877Y53632D03*
D94*
X64861Y53779D03*
D66*
X81877Y53779D03*
D67*
X64272Y53927D03*
D66*
X81730Y53927D03*
D65*
X63830Y54074D03*
D66*
X81730Y54074D03*
D95*
X63315Y54221D03*
D61*
X81730Y54221D03*
D96*
X62873Y54369D03*
D90*
X81803Y54369D03*
D60*
X62283Y54516D03*
D90*
X81803Y54516D03*
D97*
X61768Y54663D03*
D98*
X81803Y54663D03*
D99*
X61326Y54811D03*
D56*
X81877Y54811D03*
D100*
X71123Y54958D03*
D55*
X81803Y54958D03*
D101*
X70607Y55105D03*
D54*
X81877Y55105D03*
D14*
X70091Y55253D03*
D53*
X81951Y55253D03*
D102*
X69576Y55400D03*
D80*
X81951Y55400D03*
D16*
X69134Y55547D03*
D80*
X81951Y55547D03*
D103*
X68618Y55695D03*
D81*
X81951Y55695D03*
D18*
X68103Y55842D03*
D104*
X82024Y55842D03*
D19*
X67587Y55989D03*
D49*
X82098Y55989D03*
D105*
X67071Y56137D03*
D48*
X82024Y56137D03*
D106*
X66629Y56284D03*
D86*
X82098Y56284D03*
D22*
X66629Y56431D03*
D47*
X82172Y56431D03*
D23*
X66703Y56579D03*
D85*
X82172Y56579D03*
D24*
X66777Y56726D03*
D85*
X82172Y56726D03*
D25*
X66703Y56873D03*
D87*
X82172Y56873D03*
D26*
X66777Y57021D03*
D44*
X82245Y57021D03*
D107*
X66777Y57168D03*
D43*
X82319Y57168D03*
D28*
X66850Y57315D03*
D42*
X82245Y57315D03*
D28*
X66850Y57462D03*
D41*
X82319Y57462D03*
D29*
X66850Y57610D03*
D79*
X82319Y57610D03*
D30*
X66924Y57757D03*
D39*
X82393Y57757D03*
D31*
X66924Y57904D03*
D39*
X82393Y57904D03*
D31*
X66924Y58052D03*
D108*
X82393Y58052D03*
D32*
X66998Y58199D03*
D75*
X82466Y58199D03*
D33*
X66998Y58346D03*
D35*
X82466Y58346D03*
D34*
X67071Y58494D03*
D35*
X82466Y58494D03*
X66998Y58641D03*
D34*
X82540Y58641D03*
D36*
X67071Y58788D03*
D73*
X82540Y58788D03*
D75*
X67145Y58936D03*
D73*
X82540Y58936D03*
D38*
X67145Y59083D03*
D91*
X82540Y59083D03*
D38*
X67145Y59230D03*
D72*
X82614Y59230D03*
D79*
X67145Y59378D03*
D30*
X82687Y59378D03*
D40*
X67219Y59525D03*
D29*
X82614Y59525D03*
D41*
X67292Y59672D03*
D71*
X82687Y59672D03*
D42*
X67219Y59820D03*
D27*
X82687Y59820D03*
D43*
X67292Y59967D03*
D109*
X82761Y59967D03*
D87*
X67292Y60114D03*
D109*
X82761Y60114D03*
D45*
X67366Y60262D03*
D25*
X82761Y60262D03*
D45*
X67366Y60409D03*
D24*
X82834Y60409D03*
D46*
X67366Y60556D03*
D23*
X82908Y60556D03*
D47*
X67440Y60704D03*
D22*
X82834Y60704D03*
D47*
X67440Y60851D03*
D106*
X82835Y60851D03*
D48*
X67440Y60998D03*
D110*
X82393Y60998D03*
D49*
X67513Y61145D03*
D111*
X81877Y61145D03*
D50*
X67513Y61293D03*
D18*
X81361Y61293D03*
D50*
X67513Y61440D03*
D112*
X80846Y61440D03*
D51*
X67587Y61587D03*
D113*
X80404Y61587D03*
D52*
X67587Y61735D03*
D114*
X79888Y61735D03*
D53*
X67661Y61882D03*
D14*
X79372Y61882D03*
D54*
X67587Y62029D03*
D115*
X78857Y62029D03*
D55*
X67661Y62177D03*
D12*
X78415Y62177D03*
D56*
X67734Y62324D03*
D58*
X67734Y62471D03*
X67734Y62619D03*
D61*
X67734Y62766D03*
D63*
X67808Y62913D03*
X67808Y63061D03*
D66*
X67734Y63208D03*
X67734Y63355D03*
X67587Y63503D03*
X67587Y63650D03*
D63*
X67513Y63797D03*
D66*
X67440Y63945D03*
X67440Y64092D03*
X67292Y64239D03*
X67292Y64387D03*
D63*
X67219Y64534D03*
D66*
X67145Y64681D03*
X67145Y64828D03*
D63*
X67071Y64976D03*
D66*
X66998Y65123D03*
X66998Y65270D03*
X66850Y65418D03*
X66850Y65565D03*
D63*
X66777Y65712D03*
D61*
X66850Y65860D03*
X66850Y66007D03*
D74*
X66850Y66154D03*
D76*
X66924Y66302D03*
D55*
X66924Y66449D03*
X66924Y66596D03*
D54*
X66998Y66744D03*
D52*
X66998Y66891D03*
D80*
X67071Y67038D03*
D51*
X66998Y67186D03*
D81*
X67071Y67333D03*
D82*
X67145Y67480D03*
D116*
X67071Y67628D03*
D48*
X67145Y67775D03*
D47*
X67145Y67922D03*
D46*
X67219Y68070D03*
X67219Y68217D03*
D84*
X67219Y68364D03*
D87*
X67292Y68511D03*
D43*
X67292Y68659D03*
X67292Y68806D03*
D42*
X67366Y68953D03*
D40*
X67366Y69101D03*
D79*
X67440Y69248D03*
X67440Y69395D03*
D88*
X67440Y69543D03*
D77*
X67513Y69690D03*
D36*
X67513Y69837D03*
X67513Y69985D03*
D35*
X67587Y70132D03*
D33*
X67587Y70279D03*
D73*
X67661Y70427D03*
D32*
X67587Y70574D03*
D91*
X67661Y70721D03*
D92*
X67734Y70869D03*
D29*
X67734Y71016D03*
X67734Y71163D03*
D28*
X67734Y71311D03*
D27*
X67808Y71458D03*
D70*
X67882Y71605D03*
D93*
X67808Y71753D03*
D25*
X67882Y71900D03*
D23*
X67882Y72047D03*
X67882Y72194D03*
D22*
X67955Y72342D03*
D117*
X67808Y72489D03*
D118*
X67292Y72636D03*
D67*
X66777Y72784D03*
D119*
X66261Y72931D03*
D95*
X65819Y73078D03*
D120*
X65303Y73226D03*
D60*
X64788Y73373D03*
D97*
X64272Y73520D03*
D121*
X63757Y73668D03*
D10*
X94425Y143637D02*
X94425Y161417D01*
X99363Y161417D01*
X99503Y161415D01*
X99642Y161409D01*
X99782Y161399D01*
X99921Y161385D01*
X100060Y161368D01*
X100198Y161346D01*
X100335Y161320D01*
X100472Y161291D01*
X100608Y161258D01*
X100742Y161221D01*
X100876Y161180D01*
X101008Y161135D01*
X101140Y161086D01*
X101269Y161034D01*
X101397Y160979D01*
X101524Y160919D01*
X101649Y160856D01*
X101772Y160790D01*
X101893Y160720D01*
X102012Y160647D01*
X102129Y160570D01*
X102243Y160490D01*
X102356Y160407D01*
X102466Y160321D01*
X102573Y160231D01*
X102678Y160139D01*
X102780Y160044D01*
X102880Y159946D01*
X102977Y159845D01*
X103071Y159741D01*
X103161Y159635D01*
X103249Y159526D01*
X103334Y159415D01*
X103415Y159301D01*
X103494Y159186D01*
X103569Y159068D01*
X103640Y158948D01*
X103708Y158825D01*
X103773Y158702D01*
X103834Y158576D01*
X103892Y158448D01*
X103946Y158320D01*
X103996Y158189D01*
X104043Y158057D01*
X104086Y157924D01*
X104125Y157790D01*
X104160Y157655D01*
X104191Y157519D01*
X104219Y157381D01*
X104242Y157244D01*
X104262Y157105D01*
X104278Y156966D01*
X104290Y156827D01*
X104298Y156688D01*
X104302Y156548D01*
X104302Y156408D01*
X104298Y156268D01*
X104290Y156129D01*
X104278Y155990D01*
X104262Y155851D01*
X104242Y155712D01*
X104219Y155575D01*
X104191Y155437D01*
X104160Y155301D01*
X104125Y155166D01*
X104086Y155032D01*
X104043Y154899D01*
X103996Y154767D01*
X103946Y154636D01*
X103892Y154508D01*
X103834Y154380D01*
X103773Y154254D01*
X103708Y154131D01*
X103640Y154009D01*
X103569Y153888D01*
X103494Y153770D01*
X103415Y153655D01*
X103334Y153541D01*
X103249Y153430D01*
X103161Y153321D01*
X103071Y153215D01*
X102977Y153111D01*
X102880Y153010D01*
X102780Y152912D01*
X102678Y152817D01*
X102573Y152725D01*
X102466Y152635D01*
X102356Y152549D01*
X102243Y152466D01*
X102129Y152386D01*
X102012Y152309D01*
X101893Y152236D01*
X101772Y152166D01*
X101649Y152100D01*
X101524Y152037D01*
X101397Y151977D01*
X101269Y151922D01*
X101140Y151870D01*
X101008Y151821D01*
X100876Y151776D01*
X100742Y151735D01*
X100608Y151698D01*
X100472Y151665D01*
X100335Y151636D01*
X100198Y151610D01*
X100060Y151588D01*
X99921Y151571D01*
X99782Y151557D01*
X99642Y151547D01*
X99503Y151541D01*
X99363Y151539D01*
X94425Y151539D01*
X100351Y151539D02*
X104302Y143637D01*
D122*
X1080Y161290D02*
X1080Y67310D01*
X40196Y161290D02*
X40194Y161412D01*
X40188Y161534D01*
X40178Y161656D01*
X40165Y161777D01*
X40147Y161898D01*
X40126Y162018D01*
X40100Y162138D01*
X40071Y162256D01*
X40039Y162374D01*
X40002Y162491D01*
X39962Y162606D01*
X39918Y162720D01*
X39870Y162832D01*
X39819Y162943D01*
X39764Y163052D01*
X39706Y163160D01*
X39644Y163265D01*
X39579Y163368D01*
X39511Y163470D01*
X39439Y163569D01*
X39365Y163665D01*
X39287Y163760D01*
X39206Y163851D01*
X39123Y163941D01*
X39037Y164027D01*
X38947Y164110D01*
X38856Y164191D01*
X38761Y164269D01*
X38665Y164343D01*
X38566Y164415D01*
X38464Y164483D01*
X38361Y164548D01*
X38256Y164610D01*
X38148Y164668D01*
X38039Y164723D01*
X37928Y164774D01*
X37816Y164822D01*
X37702Y164866D01*
X37587Y164906D01*
X37470Y164943D01*
X37352Y164975D01*
X37234Y165004D01*
X37114Y165030D01*
X36994Y165051D01*
X36873Y165069D01*
X36752Y165082D01*
X36630Y165092D01*
X36508Y165098D01*
X36386Y165100D01*
X1080Y67310D02*
X1082Y67188D01*
X1088Y67066D01*
X1098Y66944D01*
X1111Y66823D01*
X1129Y66702D01*
X1150Y66582D01*
X1176Y66462D01*
X1205Y66344D01*
X1237Y66226D01*
X1274Y66109D01*
X1314Y65994D01*
X1358Y65880D01*
X1406Y65768D01*
X1457Y65657D01*
X1512Y65548D01*
X1570Y65440D01*
X1632Y65335D01*
X1697Y65232D01*
X1765Y65130D01*
X1837Y65031D01*
X1911Y64935D01*
X1989Y64840D01*
X2070Y64749D01*
X2153Y64659D01*
X2239Y64573D01*
X2329Y64490D01*
X2420Y64409D01*
X2515Y64331D01*
X2611Y64257D01*
X2710Y64185D01*
X2812Y64117D01*
X2915Y64052D01*
X3020Y63990D01*
X3128Y63932D01*
X3237Y63877D01*
X3348Y63826D01*
X3460Y63778D01*
X3574Y63734D01*
X3689Y63694D01*
X3806Y63657D01*
X3924Y63625D01*
X4042Y63596D01*
X4162Y63570D01*
X4282Y63549D01*
X4403Y63531D01*
X4524Y63518D01*
X4646Y63508D01*
X4768Y63502D01*
X4890Y63500D01*
X1080Y161290D02*
X1082Y161412D01*
X1088Y161534D01*
X1098Y161656D01*
X1111Y161777D01*
X1129Y161898D01*
X1150Y162018D01*
X1176Y162138D01*
X1205Y162256D01*
X1237Y162374D01*
X1274Y162491D01*
X1314Y162606D01*
X1358Y162720D01*
X1406Y162832D01*
X1457Y162943D01*
X1512Y163052D01*
X1570Y163160D01*
X1632Y163265D01*
X1697Y163368D01*
X1765Y163470D01*
X1837Y163569D01*
X1911Y163665D01*
X1989Y163760D01*
X2070Y163851D01*
X2153Y163941D01*
X2239Y164027D01*
X2329Y164110D01*
X2420Y164191D01*
X2515Y164269D01*
X2611Y164343D01*
X2710Y164415D01*
X2812Y164483D01*
X2915Y164548D01*
X3020Y164610D01*
X3128Y164668D01*
X3237Y164723D01*
X3348Y164774D01*
X3460Y164822D01*
X3574Y164866D01*
X3689Y164906D01*
X3806Y164943D01*
X3924Y164975D01*
X4042Y165004D01*
X4162Y165030D01*
X4282Y165051D01*
X4403Y165069D01*
X4524Y165082D01*
X4646Y165092D01*
X4768Y165098D01*
X4890Y165100D01*
X40196Y67310D02*
X40194Y67188D01*
X40188Y67066D01*
X40178Y66944D01*
X40165Y66823D01*
X40147Y66702D01*
X40126Y66582D01*
X40100Y66462D01*
X40071Y66344D01*
X40039Y66226D01*
X40002Y66109D01*
X39962Y65994D01*
X39918Y65880D01*
X39870Y65768D01*
X39819Y65657D01*
X39764Y65548D01*
X39706Y65440D01*
X39644Y65335D01*
X39579Y65232D01*
X39511Y65130D01*
X39439Y65031D01*
X39365Y64935D01*
X39287Y64840D01*
X39206Y64749D01*
X39123Y64659D01*
X39037Y64573D01*
X38947Y64490D01*
X38856Y64409D01*
X38761Y64331D01*
X38665Y64257D01*
X38566Y64185D01*
X38464Y64117D01*
X38361Y64052D01*
X38256Y63990D01*
X38148Y63932D01*
X38039Y63877D01*
X37928Y63826D01*
X37816Y63778D01*
X37702Y63734D01*
X37587Y63694D01*
X37470Y63657D01*
X37352Y63625D01*
X37234Y63596D01*
X37114Y63570D01*
X36994Y63549D01*
X36873Y63531D01*
X36752Y63518D01*
X36630Y63508D01*
X36508Y63502D01*
X36386Y63500D01*
X40196Y67310D02*
X40196Y161290D01*
X36386Y165100D02*
X4890Y165100D01*
X4890Y63500D02*
X15558Y63500D01*
X25718Y63500D01*
X36386Y63500D01*
X25718Y63500D02*
X25716Y63641D01*
X25710Y63782D01*
X25700Y63923D01*
X25687Y64064D01*
X25669Y64204D01*
X25647Y64343D01*
X25622Y64482D01*
X25593Y64621D01*
X25560Y64758D01*
X25523Y64894D01*
X25482Y65029D01*
X25438Y65164D01*
X25390Y65296D01*
X25338Y65428D01*
X25283Y65558D01*
X25224Y65686D01*
X25161Y65813D01*
X25095Y65937D01*
X25026Y66060D01*
X24953Y66181D01*
X24877Y66300D01*
X24797Y66417D01*
X24714Y66531D01*
X24629Y66644D01*
X24540Y66753D01*
X24448Y66861D01*
X24353Y66965D01*
X24255Y67067D01*
X24154Y67166D01*
X24051Y67263D01*
X23945Y67356D01*
X23837Y67446D01*
X23726Y67534D01*
X23613Y67618D01*
X23497Y67699D01*
X23379Y67777D01*
X23259Y67852D01*
X23137Y67923D01*
X23013Y67991D01*
X22887Y68055D01*
X22760Y68116D01*
X22631Y68173D01*
X22500Y68226D01*
X22368Y68276D01*
X22235Y68323D01*
X22100Y68365D01*
X21964Y68404D01*
X21827Y68439D01*
X21690Y68470D01*
X21551Y68497D01*
X21412Y68521D01*
X21272Y68540D01*
X21132Y68556D01*
X20991Y68568D01*
X20850Y68576D01*
X20709Y68580D01*
X20567Y68580D01*
X20426Y68576D01*
X20285Y68568D01*
X20144Y68556D01*
X20004Y68540D01*
X19864Y68521D01*
X19725Y68497D01*
X19586Y68470D01*
X19449Y68439D01*
X19312Y68404D01*
X19176Y68365D01*
X19041Y68323D01*
X18908Y68276D01*
X18776Y68226D01*
X18645Y68173D01*
X18516Y68116D01*
X18389Y68055D01*
X18263Y67991D01*
X18139Y67923D01*
X18017Y67852D01*
X17897Y67777D01*
X17779Y67699D01*
X17663Y67618D01*
X17550Y67534D01*
X17439Y67446D01*
X17331Y67356D01*
X17225Y67263D01*
X17122Y67166D01*
X17021Y67067D01*
X16923Y66965D01*
X16828Y66861D01*
X16736Y66753D01*
X16647Y66644D01*
X16562Y66531D01*
X16479Y66417D01*
X16399Y66300D01*
X16323Y66181D01*
X16250Y66060D01*
X16181Y65937D01*
X16115Y65813D01*
X16052Y65686D01*
X15993Y65558D01*
X15938Y65428D01*
X15886Y65296D01*
X15838Y65164D01*
X15794Y65029D01*
X15753Y64894D01*
X15716Y64758D01*
X15683Y64621D01*
X15654Y64482D01*
X15629Y64343D01*
X15607Y64204D01*
X15589Y64064D01*
X15576Y63923D01*
X15566Y63782D01*
X15560Y63641D01*
X15558Y63500D01*
X36640Y63500D02*
X36640Y165100D01*
D11*
X13221Y57595D02*
X13221Y50991D01*
X13223Y50891D01*
X13229Y50792D01*
X13239Y50692D01*
X13252Y50594D01*
X13270Y50495D01*
X13291Y50398D01*
X13316Y50302D01*
X13345Y50206D01*
X13378Y50112D01*
X13414Y50019D01*
X13454Y49928D01*
X13498Y49838D01*
X13545Y49750D01*
X13595Y49664D01*
X13649Y49580D01*
X13706Y49498D01*
X13766Y49419D01*
X13830Y49341D01*
X13896Y49267D01*
X13965Y49195D01*
X14037Y49126D01*
X14111Y49060D01*
X14189Y48996D01*
X14268Y48936D01*
X14350Y48879D01*
X14434Y48825D01*
X14520Y48775D01*
X14608Y48728D01*
X14698Y48684D01*
X14789Y48644D01*
X14882Y48608D01*
X14976Y48575D01*
X15072Y48546D01*
X15168Y48521D01*
X15265Y48500D01*
X15364Y48482D01*
X15462Y48469D01*
X15562Y48459D01*
X15661Y48453D01*
X15761Y48451D01*
X15861Y48453D01*
X15960Y48459D01*
X16060Y48469D01*
X16158Y48482D01*
X16257Y48500D01*
X16354Y48521D01*
X16450Y48546D01*
X16546Y48575D01*
X16640Y48608D01*
X16733Y48644D01*
X16824Y48684D01*
X16914Y48728D01*
X17002Y48775D01*
X17088Y48825D01*
X17172Y48879D01*
X17254Y48936D01*
X17333Y48996D01*
X17411Y49060D01*
X17485Y49126D01*
X17557Y49195D01*
X17626Y49267D01*
X17692Y49341D01*
X17756Y49419D01*
X17816Y49498D01*
X17873Y49580D01*
X17927Y49664D01*
X17977Y49750D01*
X18024Y49838D01*
X18068Y49928D01*
X18108Y50019D01*
X18144Y50112D01*
X18177Y50206D01*
X18206Y50302D01*
X18231Y50398D01*
X18252Y50495D01*
X18270Y50594D01*
X18283Y50692D01*
X18293Y50792D01*
X18299Y50891D01*
X18301Y50991D01*
X18301Y57595D01*
X22670Y48451D02*
X25210Y48451D01*
X25310Y48453D01*
X25409Y48459D01*
X25509Y48469D01*
X25607Y48482D01*
X25706Y48500D01*
X25803Y48521D01*
X25899Y48546D01*
X25995Y48575D01*
X26089Y48608D01*
X26182Y48644D01*
X26273Y48684D01*
X26363Y48728D01*
X26451Y48775D01*
X26537Y48825D01*
X26621Y48879D01*
X26703Y48936D01*
X26782Y48996D01*
X26860Y49060D01*
X26934Y49126D01*
X27006Y49195D01*
X27075Y49267D01*
X27141Y49341D01*
X27205Y49419D01*
X27265Y49498D01*
X27322Y49580D01*
X27376Y49664D01*
X27426Y49750D01*
X27473Y49838D01*
X27517Y49928D01*
X27557Y50019D01*
X27593Y50112D01*
X27626Y50206D01*
X27655Y50302D01*
X27680Y50398D01*
X27701Y50495D01*
X27719Y50594D01*
X27732Y50692D01*
X27742Y50792D01*
X27748Y50891D01*
X27750Y50991D01*
X27748Y51091D01*
X27742Y51190D01*
X27732Y51290D01*
X27719Y51388D01*
X27701Y51487D01*
X27680Y51584D01*
X27655Y51680D01*
X27626Y51776D01*
X27593Y51870D01*
X27557Y51963D01*
X27517Y52054D01*
X27473Y52144D01*
X27426Y52232D01*
X27376Y52318D01*
X27322Y52402D01*
X27265Y52484D01*
X27205Y52563D01*
X27141Y52641D01*
X27075Y52715D01*
X27006Y52787D01*
X26934Y52856D01*
X26860Y52922D01*
X26782Y52986D01*
X26703Y53046D01*
X26621Y53103D01*
X26537Y53157D01*
X26451Y53207D01*
X26363Y53254D01*
X26273Y53298D01*
X26182Y53338D01*
X26089Y53374D01*
X25995Y53407D01*
X25899Y53436D01*
X25803Y53461D01*
X25706Y53482D01*
X25607Y53500D01*
X25509Y53513D01*
X25409Y53523D01*
X25310Y53529D01*
X25210Y53531D01*
X25718Y57595D02*
X22670Y57595D01*
X25718Y57595D02*
X25807Y57593D01*
X25895Y57587D01*
X25983Y57578D01*
X26071Y57564D01*
X26158Y57547D01*
X26244Y57526D01*
X26329Y57501D01*
X26413Y57472D01*
X26496Y57440D01*
X26577Y57405D01*
X26656Y57365D01*
X26734Y57323D01*
X26810Y57277D01*
X26884Y57228D01*
X26955Y57175D01*
X27024Y57120D01*
X27091Y57061D01*
X27155Y57000D01*
X27216Y56936D01*
X27275Y56869D01*
X27330Y56800D01*
X27383Y56729D01*
X27432Y56655D01*
X27478Y56579D01*
X27520Y56501D01*
X27560Y56422D01*
X27595Y56341D01*
X27627Y56258D01*
X27656Y56174D01*
X27681Y56089D01*
X27702Y56003D01*
X27719Y55916D01*
X27733Y55828D01*
X27742Y55740D01*
X27748Y55652D01*
X27750Y55563D01*
X27748Y55474D01*
X27742Y55386D01*
X27733Y55298D01*
X27719Y55210D01*
X27702Y55123D01*
X27681Y55037D01*
X27656Y54952D01*
X27627Y54868D01*
X27595Y54785D01*
X27560Y54704D01*
X27520Y54625D01*
X27478Y54547D01*
X27432Y54471D01*
X27383Y54397D01*
X27330Y54326D01*
X27275Y54257D01*
X27216Y54190D01*
X27155Y54126D01*
X27091Y54065D01*
X27024Y54006D01*
X26955Y53951D01*
X26884Y53898D01*
X26810Y53849D01*
X26734Y53803D01*
X26656Y53761D01*
X26577Y53721D01*
X26496Y53686D01*
X26413Y53654D01*
X26329Y53625D01*
X26244Y53600D01*
X26158Y53579D01*
X26071Y53562D01*
X25983Y53548D01*
X25895Y53539D01*
X25807Y53533D01*
X25718Y53531D01*
X23686Y53531D01*
D123*
X11113Y206502D02*
X11113Y212852D01*
D124*
X3307Y204285D02*
X-4059Y204285D01*
X-4059Y206331D01*
X-4057Y206420D01*
X-4051Y206509D01*
X-4041Y206598D01*
X-4028Y206686D01*
X-4011Y206774D01*
X-3989Y206861D01*
X-3964Y206946D01*
X-3936Y207031D01*
X-3903Y207114D01*
X-3867Y207196D01*
X-3828Y207276D01*
X-3785Y207354D01*
X-3739Y207430D01*
X-3689Y207505D01*
X-3636Y207577D01*
X-3580Y207646D01*
X-3521Y207713D01*
X-3460Y207778D01*
X-3395Y207839D01*
X-3328Y207898D01*
X-3259Y207954D01*
X-3187Y208007D01*
X-3112Y208057D01*
X-3036Y208103D01*
X-2958Y208146D01*
X-2878Y208185D01*
X-2796Y208221D01*
X-2713Y208254D01*
X-2628Y208282D01*
X-2543Y208307D01*
X-2456Y208329D01*
X-2368Y208346D01*
X-2280Y208359D01*
X-2191Y208369D01*
X-2102Y208375D01*
X-2013Y208377D01*
X-1924Y208375D01*
X-1835Y208369D01*
X-1746Y208359D01*
X-1658Y208346D01*
X-1570Y208329D01*
X-1483Y208307D01*
X-1398Y208282D01*
X-1313Y208254D01*
X-1230Y208221D01*
X-1148Y208185D01*
X-1068Y208146D01*
X-990Y208103D01*
X-914Y208057D01*
X-839Y208007D01*
X-767Y207954D01*
X-698Y207898D01*
X-631Y207839D01*
X-566Y207778D01*
X-505Y207713D01*
X-446Y207646D01*
X-390Y207577D01*
X-337Y207505D01*
X-287Y207430D01*
X-241Y207354D01*
X-198Y207276D01*
X-159Y207196D01*
X-123Y207114D01*
X-90Y207031D01*
X-62Y206946D01*
X-37Y206861D01*
X-15Y206774D01*
X2Y206686D01*
X15Y206598D01*
X25Y206509D01*
X31Y206420D01*
X33Y206331D01*
X33Y204285D01*
X33Y206740D02*
X3307Y208377D01*
X1670Y211549D02*
X-4059Y213185D01*
X1670Y211549D02*
X1670Y215641D01*
X33Y214413D02*
X3307Y214413D01*
D123*
X65088Y154115D02*
X65088Y147511D01*
D124*
X80899Y145260D02*
X80899Y143623D01*
X80897Y143545D01*
X80892Y143467D01*
X80882Y143390D01*
X80869Y143313D01*
X80853Y143237D01*
X80833Y143162D01*
X80809Y143088D01*
X80782Y143015D01*
X80751Y142943D01*
X80717Y142873D01*
X80680Y142805D01*
X80639Y142738D01*
X80595Y142673D01*
X80549Y142611D01*
X80499Y142551D01*
X80447Y142493D01*
X80392Y142438D01*
X80334Y142386D01*
X80274Y142336D01*
X80212Y142290D01*
X80147Y142246D01*
X80081Y142205D01*
X80012Y142168D01*
X79942Y142134D01*
X79870Y142103D01*
X79797Y142076D01*
X79723Y142052D01*
X79648Y142032D01*
X79572Y142016D01*
X79495Y142003D01*
X79418Y141993D01*
X79340Y141988D01*
X79262Y141986D01*
X75170Y141986D01*
X75090Y141988D01*
X75010Y141994D01*
X74930Y142004D01*
X74851Y142017D01*
X74772Y142035D01*
X74695Y142056D01*
X74619Y142082D01*
X74544Y142111D01*
X74470Y142143D01*
X74398Y142179D01*
X74328Y142219D01*
X74261Y142262D01*
X74195Y142308D01*
X74132Y142358D01*
X74071Y142410D01*
X74012Y142465D01*
X73957Y142524D01*
X73905Y142584D01*
X73855Y142648D01*
X73809Y142713D01*
X73766Y142781D01*
X73726Y142851D01*
X73690Y142923D01*
X73658Y142997D01*
X73629Y143071D01*
X73604Y143148D01*
X73582Y143225D01*
X73564Y143304D01*
X73551Y143383D01*
X73541Y143462D01*
X73535Y143543D01*
X73533Y143623D01*
X73533Y145260D01*
X75170Y148105D02*
X73533Y150151D01*
X80899Y150151D01*
X80899Y148105D02*
X80899Y152197D01*
X79262Y155420D02*
X73533Y157057D01*
X79262Y155420D02*
X79262Y159513D01*
X77625Y158285D02*
X80899Y158285D01*
D123*
X-23813Y154115D02*
X-23813Y147511D01*
D124*
X-19876Y120939D02*
X-19876Y119302D01*
X-19875Y119302D02*
X-19877Y119224D01*
X-19882Y119146D01*
X-19892Y119069D01*
X-19905Y118992D01*
X-19921Y118916D01*
X-19941Y118841D01*
X-19965Y118767D01*
X-19992Y118694D01*
X-20023Y118622D01*
X-20057Y118552D01*
X-20094Y118484D01*
X-20135Y118417D01*
X-20179Y118352D01*
X-20225Y118290D01*
X-20275Y118230D01*
X-20327Y118172D01*
X-20382Y118117D01*
X-20440Y118065D01*
X-20500Y118015D01*
X-20562Y117969D01*
X-20627Y117925D01*
X-20693Y117884D01*
X-20762Y117847D01*
X-20832Y117813D01*
X-20904Y117782D01*
X-20977Y117755D01*
X-21051Y117731D01*
X-21126Y117711D01*
X-21202Y117695D01*
X-21279Y117682D01*
X-21356Y117672D01*
X-21434Y117667D01*
X-21512Y117665D01*
X-25605Y117665D01*
X-25683Y117667D01*
X-25761Y117672D01*
X-25838Y117682D01*
X-25915Y117695D01*
X-25991Y117711D01*
X-26066Y117731D01*
X-26140Y117755D01*
X-26213Y117782D01*
X-26285Y117813D01*
X-26355Y117847D01*
X-26424Y117884D01*
X-26490Y117925D01*
X-26555Y117969D01*
X-26617Y118015D01*
X-26677Y118065D01*
X-26735Y118117D01*
X-26790Y118172D01*
X-26842Y118230D01*
X-26892Y118290D01*
X-26938Y118352D01*
X-26982Y118417D01*
X-27023Y118484D01*
X-27060Y118552D01*
X-27094Y118622D01*
X-27125Y118694D01*
X-27152Y118767D01*
X-27176Y118841D01*
X-27196Y118916D01*
X-27212Y118992D01*
X-27225Y119069D01*
X-27235Y119146D01*
X-27240Y119224D01*
X-27242Y119302D01*
X-27242Y120939D01*
X-25605Y123784D02*
X-27242Y125830D01*
X-19876Y125830D01*
X-19876Y123784D02*
X-19876Y127876D01*
X-19876Y131099D02*
X-19876Y133555D01*
X-19875Y133555D02*
X-19877Y133635D01*
X-19883Y133715D01*
X-19893Y133795D01*
X-19906Y133874D01*
X-19924Y133953D01*
X-19945Y134030D01*
X-19971Y134106D01*
X-20000Y134181D01*
X-20032Y134255D01*
X-20068Y134327D01*
X-20108Y134397D01*
X-20151Y134464D01*
X-20197Y134530D01*
X-20247Y134593D01*
X-20299Y134654D01*
X-20354Y134713D01*
X-20413Y134768D01*
X-20473Y134820D01*
X-20537Y134870D01*
X-20603Y134916D01*
X-20670Y134959D01*
X-20740Y134999D01*
X-20812Y135035D01*
X-20886Y135067D01*
X-20960Y135096D01*
X-21037Y135122D01*
X-21114Y135143D01*
X-21193Y135161D01*
X-21272Y135174D01*
X-21352Y135184D01*
X-21432Y135190D01*
X-21512Y135192D01*
X-22331Y135192D01*
X-22409Y135190D01*
X-22487Y135185D01*
X-22564Y135175D01*
X-22641Y135162D01*
X-22717Y135146D01*
X-22792Y135126D01*
X-22866Y135102D01*
X-22939Y135075D01*
X-23011Y135044D01*
X-23081Y135010D01*
X-23150Y134973D01*
X-23216Y134932D01*
X-23281Y134888D01*
X-23343Y134842D01*
X-23403Y134792D01*
X-23461Y134740D01*
X-23516Y134685D01*
X-23568Y134627D01*
X-23618Y134567D01*
X-23664Y134505D01*
X-23708Y134440D01*
X-23749Y134374D01*
X-23786Y134305D01*
X-23820Y134235D01*
X-23851Y134163D01*
X-23878Y134090D01*
X-23902Y134016D01*
X-23922Y133941D01*
X-23938Y133865D01*
X-23951Y133788D01*
X-23961Y133711D01*
X-23966Y133633D01*
X-23968Y133555D01*
X-23968Y131099D01*
X-27242Y131099D01*
X-27242Y135192D01*
D123*
X30163Y206502D02*
X30163Y212852D01*
D124*
X39439Y204285D02*
X46805Y204285D01*
X39439Y204285D02*
X39439Y206331D01*
X39441Y206420D01*
X39447Y206509D01*
X39457Y206598D01*
X39470Y206686D01*
X39487Y206774D01*
X39509Y206861D01*
X39534Y206946D01*
X39562Y207031D01*
X39595Y207114D01*
X39631Y207196D01*
X39670Y207276D01*
X39713Y207354D01*
X39759Y207430D01*
X39809Y207505D01*
X39862Y207577D01*
X39918Y207646D01*
X39977Y207713D01*
X40038Y207778D01*
X40103Y207839D01*
X40170Y207898D01*
X40239Y207954D01*
X40311Y208007D01*
X40386Y208057D01*
X40462Y208103D01*
X40540Y208146D01*
X40620Y208185D01*
X40702Y208221D01*
X40785Y208254D01*
X40870Y208282D01*
X40955Y208307D01*
X41042Y208329D01*
X41130Y208346D01*
X41218Y208359D01*
X41307Y208369D01*
X41396Y208375D01*
X41485Y208377D01*
X41574Y208375D01*
X41663Y208369D01*
X41752Y208359D01*
X41840Y208346D01*
X41928Y208329D01*
X42015Y208307D01*
X42100Y208282D01*
X42185Y208254D01*
X42268Y208221D01*
X42350Y208185D01*
X42430Y208146D01*
X42508Y208103D01*
X42584Y208057D01*
X42659Y208007D01*
X42731Y207954D01*
X42800Y207898D01*
X42867Y207839D01*
X42932Y207778D01*
X42993Y207713D01*
X43052Y207646D01*
X43108Y207577D01*
X43161Y207505D01*
X43211Y207430D01*
X43257Y207354D01*
X43300Y207276D01*
X43339Y207196D01*
X43375Y207114D01*
X43408Y207031D01*
X43436Y206946D01*
X43461Y206861D01*
X43483Y206774D01*
X43500Y206686D01*
X43513Y206598D01*
X43523Y206509D01*
X43529Y206420D01*
X43531Y206331D01*
X43531Y204285D01*
X43531Y206740D02*
X46805Y208377D01*
X46805Y211549D02*
X46805Y214004D01*
X46803Y214082D01*
X46798Y214160D01*
X46788Y214237D01*
X46775Y214314D01*
X46759Y214390D01*
X46739Y214465D01*
X46715Y214539D01*
X46688Y214612D01*
X46657Y214684D01*
X46623Y214754D01*
X46586Y214823D01*
X46545Y214889D01*
X46501Y214954D01*
X46455Y215016D01*
X46405Y215076D01*
X46353Y215134D01*
X46298Y215189D01*
X46240Y215241D01*
X46180Y215291D01*
X46118Y215337D01*
X46053Y215381D01*
X45987Y215422D01*
X45918Y215459D01*
X45848Y215493D01*
X45776Y215524D01*
X45703Y215551D01*
X45629Y215575D01*
X45554Y215595D01*
X45478Y215611D01*
X45401Y215624D01*
X45324Y215634D01*
X45246Y215639D01*
X45168Y215641D01*
X44349Y215641D01*
X44269Y215639D01*
X44189Y215633D01*
X44109Y215623D01*
X44030Y215610D01*
X43951Y215592D01*
X43874Y215571D01*
X43798Y215545D01*
X43723Y215516D01*
X43649Y215484D01*
X43577Y215448D01*
X43507Y215408D01*
X43440Y215365D01*
X43374Y215319D01*
X43311Y215269D01*
X43250Y215217D01*
X43191Y215162D01*
X43136Y215103D01*
X43084Y215043D01*
X43034Y214979D01*
X42988Y214913D01*
X42945Y214846D01*
X42905Y214776D01*
X42869Y214704D01*
X42837Y214630D01*
X42808Y214556D01*
X42782Y214479D01*
X42761Y214402D01*
X42743Y214323D01*
X42730Y214244D01*
X42720Y214164D01*
X42714Y214084D01*
X42712Y214004D01*
X42712Y211549D01*
X39439Y211549D01*
X39439Y215641D01*
D123*
X-12827Y195263D02*
X-19177Y195263D01*
D124*
X-21648Y203586D02*
X-21648Y210952D01*
X-19602Y210952D01*
X-19513Y210950D01*
X-19424Y210944D01*
X-19335Y210934D01*
X-19247Y210921D01*
X-19159Y210904D01*
X-19072Y210882D01*
X-18987Y210857D01*
X-18902Y210829D01*
X-18819Y210796D01*
X-18737Y210760D01*
X-18657Y210721D01*
X-18579Y210678D01*
X-18503Y210632D01*
X-18428Y210582D01*
X-18356Y210529D01*
X-18287Y210473D01*
X-18220Y210414D01*
X-18155Y210353D01*
X-18094Y210288D01*
X-18035Y210221D01*
X-17979Y210152D01*
X-17926Y210080D01*
X-17876Y210005D01*
X-17830Y209929D01*
X-17787Y209851D01*
X-17748Y209771D01*
X-17712Y209689D01*
X-17679Y209606D01*
X-17651Y209521D01*
X-17626Y209436D01*
X-17604Y209349D01*
X-17587Y209261D01*
X-17574Y209173D01*
X-17564Y209084D01*
X-17558Y208995D01*
X-17556Y208906D01*
X-17558Y208817D01*
X-17564Y208728D01*
X-17574Y208639D01*
X-17587Y208551D01*
X-17604Y208463D01*
X-17626Y208376D01*
X-17651Y208291D01*
X-17679Y208206D01*
X-17712Y208123D01*
X-17748Y208041D01*
X-17787Y207961D01*
X-17830Y207883D01*
X-17876Y207807D01*
X-17926Y207732D01*
X-17979Y207660D01*
X-18035Y207591D01*
X-18094Y207524D01*
X-18155Y207459D01*
X-18220Y207398D01*
X-18287Y207339D01*
X-18356Y207283D01*
X-18428Y207230D01*
X-18503Y207180D01*
X-18579Y207134D01*
X-18657Y207091D01*
X-18737Y207052D01*
X-18819Y207016D01*
X-18902Y206983D01*
X-18987Y206955D01*
X-19072Y206930D01*
X-19159Y206908D01*
X-19247Y206891D01*
X-19335Y206878D01*
X-19424Y206868D01*
X-19513Y206862D01*
X-19602Y206860D01*
X-21648Y206860D01*
X-19193Y206860D02*
X-17556Y203586D01*
X-14384Y207678D02*
X-11929Y207678D01*
X-11849Y207676D01*
X-11769Y207670D01*
X-11689Y207660D01*
X-11610Y207647D01*
X-11531Y207629D01*
X-11454Y207608D01*
X-11378Y207582D01*
X-11303Y207553D01*
X-11229Y207521D01*
X-11157Y207485D01*
X-11087Y207445D01*
X-11020Y207402D01*
X-10954Y207356D01*
X-10891Y207306D01*
X-10830Y207254D01*
X-10771Y207199D01*
X-10716Y207140D01*
X-10664Y207080D01*
X-10614Y207016D01*
X-10568Y206950D01*
X-10525Y206883D01*
X-10485Y206813D01*
X-10449Y206741D01*
X-10417Y206667D01*
X-10388Y206593D01*
X-10362Y206516D01*
X-10341Y206439D01*
X-10323Y206360D01*
X-10310Y206281D01*
X-10300Y206201D01*
X-10294Y206121D01*
X-10292Y206041D01*
X-10292Y205632D01*
X-10294Y205543D01*
X-10300Y205454D01*
X-10310Y205365D01*
X-10323Y205277D01*
X-10340Y205189D01*
X-10362Y205102D01*
X-10387Y205017D01*
X-10415Y204932D01*
X-10448Y204849D01*
X-10484Y204767D01*
X-10523Y204687D01*
X-10566Y204609D01*
X-10612Y204533D01*
X-10662Y204458D01*
X-10715Y204386D01*
X-10771Y204317D01*
X-10830Y204250D01*
X-10891Y204185D01*
X-10956Y204124D01*
X-11023Y204065D01*
X-11092Y204009D01*
X-11164Y203956D01*
X-11239Y203906D01*
X-11315Y203860D01*
X-11393Y203817D01*
X-11473Y203778D01*
X-11555Y203742D01*
X-11638Y203709D01*
X-11723Y203681D01*
X-11808Y203656D01*
X-11895Y203634D01*
X-11983Y203617D01*
X-12071Y203604D01*
X-12160Y203594D01*
X-12249Y203588D01*
X-12338Y203586D01*
X-12427Y203588D01*
X-12516Y203594D01*
X-12605Y203604D01*
X-12693Y203617D01*
X-12781Y203634D01*
X-12868Y203656D01*
X-12953Y203681D01*
X-13038Y203709D01*
X-13121Y203742D01*
X-13203Y203778D01*
X-13283Y203817D01*
X-13361Y203860D01*
X-13437Y203906D01*
X-13512Y203956D01*
X-13584Y204009D01*
X-13653Y204065D01*
X-13720Y204124D01*
X-13785Y204185D01*
X-13846Y204250D01*
X-13905Y204317D01*
X-13961Y204386D01*
X-14014Y204458D01*
X-14064Y204533D01*
X-14110Y204609D01*
X-14153Y204687D01*
X-14192Y204767D01*
X-14228Y204849D01*
X-14261Y204932D01*
X-14289Y205017D01*
X-14314Y205102D01*
X-14336Y205189D01*
X-14353Y205277D01*
X-14366Y205365D01*
X-14376Y205454D01*
X-14382Y205543D01*
X-14384Y205632D01*
X-14384Y207678D01*
X-14385Y207678D02*
X-14383Y207790D01*
X-14377Y207901D01*
X-14368Y208013D01*
X-14355Y208124D01*
X-14337Y208234D01*
X-14317Y208344D01*
X-14292Y208453D01*
X-14264Y208561D01*
X-14232Y208668D01*
X-14196Y208774D01*
X-14157Y208879D01*
X-14114Y208982D01*
X-14068Y209084D01*
X-14018Y209184D01*
X-13965Y209283D01*
X-13908Y209379D01*
X-13849Y209474D01*
X-13786Y209566D01*
X-13720Y209656D01*
X-13651Y209744D01*
X-13579Y209830D01*
X-13504Y209913D01*
X-13426Y209993D01*
X-13346Y210071D01*
X-13263Y210146D01*
X-13177Y210218D01*
X-13089Y210287D01*
X-12999Y210353D01*
X-12907Y210416D01*
X-12812Y210475D01*
X-12716Y210532D01*
X-12617Y210585D01*
X-12517Y210635D01*
X-12415Y210681D01*
X-12312Y210724D01*
X-12207Y210763D01*
X-12101Y210799D01*
X-11994Y210831D01*
X-11886Y210859D01*
X-11777Y210884D01*
X-11667Y210904D01*
X-11557Y210922D01*
X-11446Y210935D01*
X-11334Y210944D01*
X-11223Y210950D01*
X-11111Y210952D01*
D11*
X-84500Y262525D02*
X-84496Y262881D01*
X-84483Y263236D01*
X-84461Y263592D01*
X-84430Y263946D01*
X-84391Y264300D01*
X-84343Y264653D01*
X-84287Y265004D01*
X-84221Y265354D01*
X-84148Y265702D01*
X-84065Y266048D01*
X-83975Y266392D01*
X-83876Y266734D01*
X-83768Y267073D01*
X-83652Y267410D01*
X-83528Y267743D01*
X-83396Y268074D01*
X-83256Y268401D01*
X-83108Y268725D01*
X-82952Y269044D01*
X-82788Y269360D01*
X-82616Y269672D01*
X-82437Y269979D01*
X-82250Y270282D01*
X-82056Y270581D01*
X-81855Y270874D01*
X-81647Y271163D01*
X-81431Y271446D01*
X-81209Y271724D01*
X-80980Y271996D01*
X-80744Y272263D01*
X-80502Y272523D01*
X-80253Y272778D01*
X-79998Y273027D01*
X-79738Y273269D01*
X-79471Y273505D01*
X-79199Y273734D01*
X-78921Y273956D01*
X-78638Y274172D01*
X-78349Y274380D01*
X-78056Y274581D01*
X-77757Y274775D01*
X-77454Y274962D01*
X-77147Y275141D01*
X-76835Y275313D01*
X-76519Y275477D01*
X-76200Y275633D01*
X-75876Y275781D01*
X-75549Y275921D01*
X-75218Y276053D01*
X-74885Y276177D01*
X-74548Y276293D01*
X-74209Y276401D01*
X-73867Y276500D01*
X-73523Y276590D01*
X-73177Y276673D01*
X-72829Y276746D01*
X-72479Y276812D01*
X-72128Y276868D01*
X-71775Y276916D01*
X-71421Y276955D01*
X-71067Y276986D01*
X-70711Y277008D01*
X-70356Y277021D01*
X-70000Y277025D01*
X-69644Y277021D01*
X-69289Y277008D01*
X-68933Y276986D01*
X-68579Y276955D01*
X-68225Y276916D01*
X-67872Y276868D01*
X-67521Y276812D01*
X-67171Y276746D01*
X-66823Y276673D01*
X-66477Y276590D01*
X-66133Y276500D01*
X-65791Y276401D01*
X-65452Y276293D01*
X-65115Y276177D01*
X-64782Y276053D01*
X-64451Y275921D01*
X-64124Y275781D01*
X-63800Y275633D01*
X-63481Y275477D01*
X-63165Y275313D01*
X-62853Y275141D01*
X-62546Y274962D01*
X-62243Y274775D01*
X-61944Y274581D01*
X-61651Y274380D01*
X-61362Y274172D01*
X-61079Y273956D01*
X-60801Y273734D01*
X-60529Y273505D01*
X-60262Y273269D01*
X-60002Y273027D01*
X-59747Y272778D01*
X-59498Y272523D01*
X-59256Y272263D01*
X-59020Y271996D01*
X-58791Y271724D01*
X-58569Y271446D01*
X-58353Y271163D01*
X-58145Y270874D01*
X-57944Y270581D01*
X-57750Y270282D01*
X-57563Y269979D01*
X-57384Y269672D01*
X-57212Y269360D01*
X-57048Y269044D01*
X-56892Y268725D01*
X-56744Y268401D01*
X-56604Y268074D01*
X-56472Y267743D01*
X-56348Y267410D01*
X-56232Y267073D01*
X-56124Y266734D01*
X-56025Y266392D01*
X-55935Y266048D01*
X-55852Y265702D01*
X-55779Y265354D01*
X-55713Y265004D01*
X-55657Y264653D01*
X-55609Y264300D01*
X-55570Y263946D01*
X-55539Y263592D01*
X-55517Y263236D01*
X-55504Y262881D01*
X-55500Y262525D01*
X-55504Y262169D01*
X-55517Y261814D01*
X-55539Y261458D01*
X-55570Y261104D01*
X-55609Y260750D01*
X-55657Y260397D01*
X-55713Y260046D01*
X-55779Y259696D01*
X-55852Y259348D01*
X-55935Y259002D01*
X-56025Y258658D01*
X-56124Y258316D01*
X-56232Y257977D01*
X-56348Y257640D01*
X-56472Y257307D01*
X-56604Y256976D01*
X-56744Y256649D01*
X-56892Y256325D01*
X-57048Y256006D01*
X-57212Y255690D01*
X-57384Y255378D01*
X-57563Y255071D01*
X-57750Y254768D01*
X-57944Y254469D01*
X-58145Y254176D01*
X-58353Y253887D01*
X-58569Y253604D01*
X-58791Y253326D01*
X-59020Y253054D01*
X-59256Y252787D01*
X-59498Y252527D01*
X-59747Y252272D01*
X-60002Y252023D01*
X-60262Y251781D01*
X-60529Y251545D01*
X-60801Y251316D01*
X-61079Y251094D01*
X-61362Y250878D01*
X-61651Y250670D01*
X-61944Y250469D01*
X-62243Y250275D01*
X-62546Y250088D01*
X-62853Y249909D01*
X-63165Y249737D01*
X-63481Y249573D01*
X-63800Y249417D01*
X-64124Y249269D01*
X-64451Y249129D01*
X-64782Y248997D01*
X-65115Y248873D01*
X-65452Y248757D01*
X-65791Y248649D01*
X-66133Y248550D01*
X-66477Y248460D01*
X-66823Y248377D01*
X-67171Y248304D01*
X-67521Y248238D01*
X-67872Y248182D01*
X-68225Y248134D01*
X-68579Y248095D01*
X-68933Y248064D01*
X-69289Y248042D01*
X-69644Y248029D01*
X-70000Y248025D01*
X-70356Y248029D01*
X-70711Y248042D01*
X-71067Y248064D01*
X-71421Y248095D01*
X-71775Y248134D01*
X-72128Y248182D01*
X-72479Y248238D01*
X-72829Y248304D01*
X-73177Y248377D01*
X-73523Y248460D01*
X-73867Y248550D01*
X-74209Y248649D01*
X-74548Y248757D01*
X-74885Y248873D01*
X-75218Y248997D01*
X-75549Y249129D01*
X-75876Y249269D01*
X-76200Y249417D01*
X-76519Y249573D01*
X-76835Y249737D01*
X-77147Y249909D01*
X-77454Y250088D01*
X-77757Y250275D01*
X-78056Y250469D01*
X-78349Y250670D01*
X-78638Y250878D01*
X-78921Y251094D01*
X-79199Y251316D01*
X-79471Y251545D01*
X-79738Y251781D01*
X-79998Y252023D01*
X-80253Y252272D01*
X-80502Y252527D01*
X-80744Y252787D01*
X-80980Y253054D01*
X-81209Y253326D01*
X-81431Y253604D01*
X-81647Y253887D01*
X-81855Y254176D01*
X-82056Y254469D01*
X-82250Y254768D01*
X-82437Y255071D01*
X-82616Y255378D01*
X-82788Y255690D01*
X-82952Y256006D01*
X-83108Y256325D01*
X-83256Y256649D01*
X-83396Y256976D01*
X-83528Y257307D01*
X-83652Y257640D01*
X-83768Y257977D01*
X-83876Y258316D01*
X-83975Y258658D01*
X-84065Y259002D01*
X-84148Y259348D01*
X-84221Y259696D01*
X-84287Y260046D01*
X-84343Y260397D01*
X-84391Y260750D01*
X-84430Y261104D01*
X-84461Y261458D01*
X-84483Y261814D01*
X-84496Y262169D01*
X-84500Y262525D01*
X-49500Y262525D02*
X-49496Y262881D01*
X-49483Y263236D01*
X-49461Y263592D01*
X-49430Y263946D01*
X-49391Y264300D01*
X-49343Y264653D01*
X-49287Y265004D01*
X-49221Y265354D01*
X-49148Y265702D01*
X-49065Y266048D01*
X-48975Y266392D01*
X-48876Y266734D01*
X-48768Y267073D01*
X-48652Y267410D01*
X-48528Y267743D01*
X-48396Y268074D01*
X-48256Y268401D01*
X-48108Y268725D01*
X-47952Y269044D01*
X-47788Y269360D01*
X-47616Y269672D01*
X-47437Y269979D01*
X-47250Y270282D01*
X-47056Y270581D01*
X-46855Y270874D01*
X-46647Y271163D01*
X-46431Y271446D01*
X-46209Y271724D01*
X-45980Y271996D01*
X-45744Y272263D01*
X-45502Y272523D01*
X-45253Y272778D01*
X-44998Y273027D01*
X-44738Y273269D01*
X-44471Y273505D01*
X-44199Y273734D01*
X-43921Y273956D01*
X-43638Y274172D01*
X-43349Y274380D01*
X-43056Y274581D01*
X-42757Y274775D01*
X-42454Y274962D01*
X-42147Y275141D01*
X-41835Y275313D01*
X-41519Y275477D01*
X-41200Y275633D01*
X-40876Y275781D01*
X-40549Y275921D01*
X-40218Y276053D01*
X-39885Y276177D01*
X-39548Y276293D01*
X-39209Y276401D01*
X-38867Y276500D01*
X-38523Y276590D01*
X-38177Y276673D01*
X-37829Y276746D01*
X-37479Y276812D01*
X-37128Y276868D01*
X-36775Y276916D01*
X-36421Y276955D01*
X-36067Y276986D01*
X-35711Y277008D01*
X-35356Y277021D01*
X-35000Y277025D01*
X-34644Y277021D01*
X-34289Y277008D01*
X-33933Y276986D01*
X-33579Y276955D01*
X-33225Y276916D01*
X-32872Y276868D01*
X-32521Y276812D01*
X-32171Y276746D01*
X-31823Y276673D01*
X-31477Y276590D01*
X-31133Y276500D01*
X-30791Y276401D01*
X-30452Y276293D01*
X-30115Y276177D01*
X-29782Y276053D01*
X-29451Y275921D01*
X-29124Y275781D01*
X-28800Y275633D01*
X-28481Y275477D01*
X-28165Y275313D01*
X-27853Y275141D01*
X-27546Y274962D01*
X-27243Y274775D01*
X-26944Y274581D01*
X-26651Y274380D01*
X-26362Y274172D01*
X-26079Y273956D01*
X-25801Y273734D01*
X-25529Y273505D01*
X-25262Y273269D01*
X-25002Y273027D01*
X-24747Y272778D01*
X-24498Y272523D01*
X-24256Y272263D01*
X-24020Y271996D01*
X-23791Y271724D01*
X-23569Y271446D01*
X-23353Y271163D01*
X-23145Y270874D01*
X-22944Y270581D01*
X-22750Y270282D01*
X-22563Y269979D01*
X-22384Y269672D01*
X-22212Y269360D01*
X-22048Y269044D01*
X-21892Y268725D01*
X-21744Y268401D01*
X-21604Y268074D01*
X-21472Y267743D01*
X-21348Y267410D01*
X-21232Y267073D01*
X-21124Y266734D01*
X-21025Y266392D01*
X-20935Y266048D01*
X-20852Y265702D01*
X-20779Y265354D01*
X-20713Y265004D01*
X-20657Y264653D01*
X-20609Y264300D01*
X-20570Y263946D01*
X-20539Y263592D01*
X-20517Y263236D01*
X-20504Y262881D01*
X-20500Y262525D01*
X-20504Y262169D01*
X-20517Y261814D01*
X-20539Y261458D01*
X-20570Y261104D01*
X-20609Y260750D01*
X-20657Y260397D01*
X-20713Y260046D01*
X-20779Y259696D01*
X-20852Y259348D01*
X-20935Y259002D01*
X-21025Y258658D01*
X-21124Y258316D01*
X-21232Y257977D01*
X-21348Y257640D01*
X-21472Y257307D01*
X-21604Y256976D01*
X-21744Y256649D01*
X-21892Y256325D01*
X-22048Y256006D01*
X-22212Y255690D01*
X-22384Y255378D01*
X-22563Y255071D01*
X-22750Y254768D01*
X-22944Y254469D01*
X-23145Y254176D01*
X-23353Y253887D01*
X-23569Y253604D01*
X-23791Y253326D01*
X-24020Y253054D01*
X-24256Y252787D01*
X-24498Y252527D01*
X-24747Y252272D01*
X-25002Y252023D01*
X-25262Y251781D01*
X-25529Y251545D01*
X-25801Y251316D01*
X-26079Y251094D01*
X-26362Y250878D01*
X-26651Y250670D01*
X-26944Y250469D01*
X-27243Y250275D01*
X-27546Y250088D01*
X-27853Y249909D01*
X-28165Y249737D01*
X-28481Y249573D01*
X-28800Y249417D01*
X-29124Y249269D01*
X-29451Y249129D01*
X-29782Y248997D01*
X-30115Y248873D01*
X-30452Y248757D01*
X-30791Y248649D01*
X-31133Y248550D01*
X-31477Y248460D01*
X-31823Y248377D01*
X-32171Y248304D01*
X-32521Y248238D01*
X-32872Y248182D01*
X-33225Y248134D01*
X-33579Y248095D01*
X-33933Y248064D01*
X-34289Y248042D01*
X-34644Y248029D01*
X-35000Y248025D01*
X-35356Y248029D01*
X-35711Y248042D01*
X-36067Y248064D01*
X-36421Y248095D01*
X-36775Y248134D01*
X-37128Y248182D01*
X-37479Y248238D01*
X-37829Y248304D01*
X-38177Y248377D01*
X-38523Y248460D01*
X-38867Y248550D01*
X-39209Y248649D01*
X-39548Y248757D01*
X-39885Y248873D01*
X-40218Y248997D01*
X-40549Y249129D01*
X-40876Y249269D01*
X-41200Y249417D01*
X-41519Y249573D01*
X-41835Y249737D01*
X-42147Y249909D01*
X-42454Y250088D01*
X-42757Y250275D01*
X-43056Y250469D01*
X-43349Y250670D01*
X-43638Y250878D01*
X-43921Y251094D01*
X-44199Y251316D01*
X-44471Y251545D01*
X-44738Y251781D01*
X-44998Y252023D01*
X-45253Y252272D01*
X-45502Y252527D01*
X-45744Y252787D01*
X-45980Y253054D01*
X-46209Y253326D01*
X-46431Y253604D01*
X-46647Y253887D01*
X-46855Y254176D01*
X-47056Y254469D01*
X-47250Y254768D01*
X-47437Y255071D01*
X-47616Y255378D01*
X-47788Y255690D01*
X-47952Y256006D01*
X-48108Y256325D01*
X-48256Y256649D01*
X-48396Y256976D01*
X-48528Y257307D01*
X-48652Y257640D01*
X-48768Y257977D01*
X-48876Y258316D01*
X-48975Y258658D01*
X-49065Y259002D01*
X-49148Y259348D01*
X-49221Y259696D01*
X-49287Y260046D01*
X-49343Y260397D01*
X-49391Y260750D01*
X-49430Y261104D01*
X-49461Y261458D01*
X-49483Y261814D01*
X-49496Y262169D01*
X-49500Y262525D01*
X-14500Y262525D02*
X-14496Y262881D01*
X-14483Y263236D01*
X-14461Y263592D01*
X-14430Y263946D01*
X-14391Y264300D01*
X-14343Y264653D01*
X-14287Y265004D01*
X-14221Y265354D01*
X-14148Y265702D01*
X-14065Y266048D01*
X-13975Y266392D01*
X-13876Y266734D01*
X-13768Y267073D01*
X-13652Y267410D01*
X-13528Y267743D01*
X-13396Y268074D01*
X-13256Y268401D01*
X-13108Y268725D01*
X-12952Y269044D01*
X-12788Y269360D01*
X-12616Y269672D01*
X-12437Y269979D01*
X-12250Y270282D01*
X-12056Y270581D01*
X-11855Y270874D01*
X-11647Y271163D01*
X-11431Y271446D01*
X-11209Y271724D01*
X-10980Y271996D01*
X-10744Y272263D01*
X-10502Y272523D01*
X-10253Y272778D01*
X-9998Y273027D01*
X-9738Y273269D01*
X-9471Y273505D01*
X-9199Y273734D01*
X-8921Y273956D01*
X-8638Y274172D01*
X-8349Y274380D01*
X-8056Y274581D01*
X-7757Y274775D01*
X-7454Y274962D01*
X-7147Y275141D01*
X-6835Y275313D01*
X-6519Y275477D01*
X-6200Y275633D01*
X-5876Y275781D01*
X-5549Y275921D01*
X-5218Y276053D01*
X-4885Y276177D01*
X-4548Y276293D01*
X-4209Y276401D01*
X-3867Y276500D01*
X-3523Y276590D01*
X-3177Y276673D01*
X-2829Y276746D01*
X-2479Y276812D01*
X-2128Y276868D01*
X-1775Y276916D01*
X-1421Y276955D01*
X-1067Y276986D01*
X-711Y277008D01*
X-356Y277021D01*
X0Y277025D01*
X356Y277021D01*
X711Y277008D01*
X1067Y276986D01*
X1421Y276955D01*
X1775Y276916D01*
X2128Y276868D01*
X2479Y276812D01*
X2829Y276746D01*
X3177Y276673D01*
X3523Y276590D01*
X3867Y276500D01*
X4209Y276401D01*
X4548Y276293D01*
X4885Y276177D01*
X5218Y276053D01*
X5549Y275921D01*
X5876Y275781D01*
X6200Y275633D01*
X6519Y275477D01*
X6835Y275313D01*
X7147Y275141D01*
X7454Y274962D01*
X7757Y274775D01*
X8056Y274581D01*
X8349Y274380D01*
X8638Y274172D01*
X8921Y273956D01*
X9199Y273734D01*
X9471Y273505D01*
X9738Y273269D01*
X9998Y273027D01*
X10253Y272778D01*
X10502Y272523D01*
X10744Y272263D01*
X10980Y271996D01*
X11209Y271724D01*
X11431Y271446D01*
X11647Y271163D01*
X11855Y270874D01*
X12056Y270581D01*
X12250Y270282D01*
X12437Y269979D01*
X12616Y269672D01*
X12788Y269360D01*
X12952Y269044D01*
X13108Y268725D01*
X13256Y268401D01*
X13396Y268074D01*
X13528Y267743D01*
X13652Y267410D01*
X13768Y267073D01*
X13876Y266734D01*
X13975Y266392D01*
X14065Y266048D01*
X14148Y265702D01*
X14221Y265354D01*
X14287Y265004D01*
X14343Y264653D01*
X14391Y264300D01*
X14430Y263946D01*
X14461Y263592D01*
X14483Y263236D01*
X14496Y262881D01*
X14500Y262525D01*
X14496Y262169D01*
X14483Y261814D01*
X14461Y261458D01*
X14430Y261104D01*
X14391Y260750D01*
X14343Y260397D01*
X14287Y260046D01*
X14221Y259696D01*
X14148Y259348D01*
X14065Y259002D01*
X13975Y258658D01*
X13876Y258316D01*
X13768Y257977D01*
X13652Y257640D01*
X13528Y257307D01*
X13396Y256976D01*
X13256Y256649D01*
X13108Y256325D01*
X12952Y256006D01*
X12788Y255690D01*
X12616Y255378D01*
X12437Y255071D01*
X12250Y254768D01*
X12056Y254469D01*
X11855Y254176D01*
X11647Y253887D01*
X11431Y253604D01*
X11209Y253326D01*
X10980Y253054D01*
X10744Y252787D01*
X10502Y252527D01*
X10253Y252272D01*
X9998Y252023D01*
X9738Y251781D01*
X9471Y251545D01*
X9199Y251316D01*
X8921Y251094D01*
X8638Y250878D01*
X8349Y250670D01*
X8056Y250469D01*
X7757Y250275D01*
X7454Y250088D01*
X7147Y249909D01*
X6835Y249737D01*
X6519Y249573D01*
X6200Y249417D01*
X5876Y249269D01*
X5549Y249129D01*
X5218Y248997D01*
X4885Y248873D01*
X4548Y248757D01*
X4209Y248649D01*
X3867Y248550D01*
X3523Y248460D01*
X3177Y248377D01*
X2829Y248304D01*
X2479Y248238D01*
X2128Y248182D01*
X1775Y248134D01*
X1421Y248095D01*
X1067Y248064D01*
X711Y248042D01*
X356Y248029D01*
X0Y248025D01*
X-356Y248029D01*
X-711Y248042D01*
X-1067Y248064D01*
X-1421Y248095D01*
X-1775Y248134D01*
X-2128Y248182D01*
X-2479Y248238D01*
X-2829Y248304D01*
X-3177Y248377D01*
X-3523Y248460D01*
X-3867Y248550D01*
X-4209Y248649D01*
X-4548Y248757D01*
X-4885Y248873D01*
X-5218Y248997D01*
X-5549Y249129D01*
X-5876Y249269D01*
X-6200Y249417D01*
X-6519Y249573D01*
X-6835Y249737D01*
X-7147Y249909D01*
X-7454Y250088D01*
X-7757Y250275D01*
X-8056Y250469D01*
X-8349Y250670D01*
X-8638Y250878D01*
X-8921Y251094D01*
X-9199Y251316D01*
X-9471Y251545D01*
X-9738Y251781D01*
X-9998Y252023D01*
X-10253Y252272D01*
X-10502Y252527D01*
X-10744Y252787D01*
X-10980Y253054D01*
X-11209Y253326D01*
X-11431Y253604D01*
X-11647Y253887D01*
X-11855Y254176D01*
X-12056Y254469D01*
X-12250Y254768D01*
X-12437Y255071D01*
X-12616Y255378D01*
X-12788Y255690D01*
X-12952Y256006D01*
X-13108Y256325D01*
X-13256Y256649D01*
X-13396Y256976D01*
X-13528Y257307D01*
X-13652Y257640D01*
X-13768Y257977D01*
X-13876Y258316D01*
X-13975Y258658D01*
X-14065Y259002D01*
X-14148Y259348D01*
X-14221Y259696D01*
X-14287Y260046D01*
X-14343Y260397D01*
X-14391Y260750D01*
X-14430Y261104D01*
X-14461Y261458D01*
X-14483Y261814D01*
X-14496Y262169D01*
X-14500Y262525D01*
X20500Y262525D02*
X20504Y262881D01*
X20517Y263236D01*
X20539Y263592D01*
X20570Y263946D01*
X20609Y264300D01*
X20657Y264653D01*
X20713Y265004D01*
X20779Y265354D01*
X20852Y265702D01*
X20935Y266048D01*
X21025Y266392D01*
X21124Y266734D01*
X21232Y267073D01*
X21348Y267410D01*
X21472Y267743D01*
X21604Y268074D01*
X21744Y268401D01*
X21892Y268725D01*
X22048Y269044D01*
X22212Y269360D01*
X22384Y269672D01*
X22563Y269979D01*
X22750Y270282D01*
X22944Y270581D01*
X23145Y270874D01*
X23353Y271163D01*
X23569Y271446D01*
X23791Y271724D01*
X24020Y271996D01*
X24256Y272263D01*
X24498Y272523D01*
X24747Y272778D01*
X25002Y273027D01*
X25262Y273269D01*
X25529Y273505D01*
X25801Y273734D01*
X26079Y273956D01*
X26362Y274172D01*
X26651Y274380D01*
X26944Y274581D01*
X27243Y274775D01*
X27546Y274962D01*
X27853Y275141D01*
X28165Y275313D01*
X28481Y275477D01*
X28800Y275633D01*
X29124Y275781D01*
X29451Y275921D01*
X29782Y276053D01*
X30115Y276177D01*
X30452Y276293D01*
X30791Y276401D01*
X31133Y276500D01*
X31477Y276590D01*
X31823Y276673D01*
X32171Y276746D01*
X32521Y276812D01*
X32872Y276868D01*
X33225Y276916D01*
X33579Y276955D01*
X33933Y276986D01*
X34289Y277008D01*
X34644Y277021D01*
X35000Y277025D01*
X35356Y277021D01*
X35711Y277008D01*
X36067Y276986D01*
X36421Y276955D01*
X36775Y276916D01*
X37128Y276868D01*
X37479Y276812D01*
X37829Y276746D01*
X38177Y276673D01*
X38523Y276590D01*
X38867Y276500D01*
X39209Y276401D01*
X39548Y276293D01*
X39885Y276177D01*
X40218Y276053D01*
X40549Y275921D01*
X40876Y275781D01*
X41200Y275633D01*
X41519Y275477D01*
X41835Y275313D01*
X42147Y275141D01*
X42454Y274962D01*
X42757Y274775D01*
X43056Y274581D01*
X43349Y274380D01*
X43638Y274172D01*
X43921Y273956D01*
X44199Y273734D01*
X44471Y273505D01*
X44738Y273269D01*
X44998Y273027D01*
X45253Y272778D01*
X45502Y272523D01*
X45744Y272263D01*
X45980Y271996D01*
X46209Y271724D01*
X46431Y271446D01*
X46647Y271163D01*
X46855Y270874D01*
X47056Y270581D01*
X47250Y270282D01*
X47437Y269979D01*
X47616Y269672D01*
X47788Y269360D01*
X47952Y269044D01*
X48108Y268725D01*
X48256Y268401D01*
X48396Y268074D01*
X48528Y267743D01*
X48652Y267410D01*
X48768Y267073D01*
X48876Y266734D01*
X48975Y266392D01*
X49065Y266048D01*
X49148Y265702D01*
X49221Y265354D01*
X49287Y265004D01*
X49343Y264653D01*
X49391Y264300D01*
X49430Y263946D01*
X49461Y263592D01*
X49483Y263236D01*
X49496Y262881D01*
X49500Y262525D01*
X49496Y262169D01*
X49483Y261814D01*
X49461Y261458D01*
X49430Y261104D01*
X49391Y260750D01*
X49343Y260397D01*
X49287Y260046D01*
X49221Y259696D01*
X49148Y259348D01*
X49065Y259002D01*
X48975Y258658D01*
X48876Y258316D01*
X48768Y257977D01*
X48652Y257640D01*
X48528Y257307D01*
X48396Y256976D01*
X48256Y256649D01*
X48108Y256325D01*
X47952Y256006D01*
X47788Y255690D01*
X47616Y255378D01*
X47437Y255071D01*
X47250Y254768D01*
X47056Y254469D01*
X46855Y254176D01*
X46647Y253887D01*
X46431Y253604D01*
X46209Y253326D01*
X45980Y253054D01*
X45744Y252787D01*
X45502Y252527D01*
X45253Y252272D01*
X44998Y252023D01*
X44738Y251781D01*
X44471Y251545D01*
X44199Y251316D01*
X43921Y251094D01*
X43638Y250878D01*
X43349Y250670D01*
X43056Y250469D01*
X42757Y250275D01*
X42454Y250088D01*
X42147Y249909D01*
X41835Y249737D01*
X41519Y249573D01*
X41200Y249417D01*
X40876Y249269D01*
X40549Y249129D01*
X40218Y248997D01*
X39885Y248873D01*
X39548Y248757D01*
X39209Y248649D01*
X38867Y248550D01*
X38523Y248460D01*
X38177Y248377D01*
X37829Y248304D01*
X37479Y248238D01*
X37128Y248182D01*
X36775Y248134D01*
X36421Y248095D01*
X36067Y248064D01*
X35711Y248042D01*
X35356Y248029D01*
X35000Y248025D01*
X34644Y248029D01*
X34289Y248042D01*
X33933Y248064D01*
X33579Y248095D01*
X33225Y248134D01*
X32872Y248182D01*
X32521Y248238D01*
X32171Y248304D01*
X31823Y248377D01*
X31477Y248460D01*
X31133Y248550D01*
X30791Y248649D01*
X30452Y248757D01*
X30115Y248873D01*
X29782Y248997D01*
X29451Y249129D01*
X29124Y249269D01*
X28800Y249417D01*
X28481Y249573D01*
X28165Y249737D01*
X27853Y249909D01*
X27546Y250088D01*
X27243Y250275D01*
X26944Y250469D01*
X26651Y250670D01*
X26362Y250878D01*
X26079Y251094D01*
X25801Y251316D01*
X25529Y251545D01*
X25262Y251781D01*
X25002Y252023D01*
X24747Y252272D01*
X24498Y252527D01*
X24256Y252787D01*
X24020Y253054D01*
X23791Y253326D01*
X23569Y253604D01*
X23353Y253887D01*
X23145Y254176D01*
X22944Y254469D01*
X22750Y254768D01*
X22563Y255071D01*
X22384Y255378D01*
X22212Y255690D01*
X22048Y256006D01*
X21892Y256325D01*
X21744Y256649D01*
X21604Y256976D01*
X21472Y257307D01*
X21348Y257640D01*
X21232Y257977D01*
X21124Y258316D01*
X21025Y258658D01*
X20935Y259002D01*
X20852Y259348D01*
X20779Y259696D01*
X20713Y260046D01*
X20657Y260397D01*
X20609Y260750D01*
X20570Y261104D01*
X20539Y261458D01*
X20517Y261814D01*
X20504Y262169D01*
X20500Y262525D01*
X55500Y262525D02*
X55504Y262881D01*
X55517Y263236D01*
X55539Y263592D01*
X55570Y263946D01*
X55609Y264300D01*
X55657Y264653D01*
X55713Y265004D01*
X55779Y265354D01*
X55852Y265702D01*
X55935Y266048D01*
X56025Y266392D01*
X56124Y266734D01*
X56232Y267073D01*
X56348Y267410D01*
X56472Y267743D01*
X56604Y268074D01*
X56744Y268401D01*
X56892Y268725D01*
X57048Y269044D01*
X57212Y269360D01*
X57384Y269672D01*
X57563Y269979D01*
X57750Y270282D01*
X57944Y270581D01*
X58145Y270874D01*
X58353Y271163D01*
X58569Y271446D01*
X58791Y271724D01*
X59020Y271996D01*
X59256Y272263D01*
X59498Y272523D01*
X59747Y272778D01*
X60002Y273027D01*
X60262Y273269D01*
X60529Y273505D01*
X60801Y273734D01*
X61079Y273956D01*
X61362Y274172D01*
X61651Y274380D01*
X61944Y274581D01*
X62243Y274775D01*
X62546Y274962D01*
X62853Y275141D01*
X63165Y275313D01*
X63481Y275477D01*
X63800Y275633D01*
X64124Y275781D01*
X64451Y275921D01*
X64782Y276053D01*
X65115Y276177D01*
X65452Y276293D01*
X65791Y276401D01*
X66133Y276500D01*
X66477Y276590D01*
X66823Y276673D01*
X67171Y276746D01*
X67521Y276812D01*
X67872Y276868D01*
X68225Y276916D01*
X68579Y276955D01*
X68933Y276986D01*
X69289Y277008D01*
X69644Y277021D01*
X70000Y277025D01*
X70356Y277021D01*
X70711Y277008D01*
X71067Y276986D01*
X71421Y276955D01*
X71775Y276916D01*
X72128Y276868D01*
X72479Y276812D01*
X72829Y276746D01*
X73177Y276673D01*
X73523Y276590D01*
X73867Y276500D01*
X74209Y276401D01*
X74548Y276293D01*
X74885Y276177D01*
X75218Y276053D01*
X75549Y275921D01*
X75876Y275781D01*
X76200Y275633D01*
X76519Y275477D01*
X76835Y275313D01*
X77147Y275141D01*
X77454Y274962D01*
X77757Y274775D01*
X78056Y274581D01*
X78349Y274380D01*
X78638Y274172D01*
X78921Y273956D01*
X79199Y273734D01*
X79471Y273505D01*
X79738Y273269D01*
X79998Y273027D01*
X80253Y272778D01*
X80502Y272523D01*
X80744Y272263D01*
X80980Y271996D01*
X81209Y271724D01*
X81431Y271446D01*
X81647Y271163D01*
X81855Y270874D01*
X82056Y270581D01*
X82250Y270282D01*
X82437Y269979D01*
X82616Y269672D01*
X82788Y269360D01*
X82952Y269044D01*
X83108Y268725D01*
X83256Y268401D01*
X83396Y268074D01*
X83528Y267743D01*
X83652Y267410D01*
X83768Y267073D01*
X83876Y266734D01*
X83975Y266392D01*
X84065Y266048D01*
X84148Y265702D01*
X84221Y265354D01*
X84287Y265004D01*
X84343Y264653D01*
X84391Y264300D01*
X84430Y263946D01*
X84461Y263592D01*
X84483Y263236D01*
X84496Y262881D01*
X84500Y262525D01*
X84496Y262169D01*
X84483Y261814D01*
X84461Y261458D01*
X84430Y261104D01*
X84391Y260750D01*
X84343Y260397D01*
X84287Y260046D01*
X84221Y259696D01*
X84148Y259348D01*
X84065Y259002D01*
X83975Y258658D01*
X83876Y258316D01*
X83768Y257977D01*
X83652Y257640D01*
X83528Y257307D01*
X83396Y256976D01*
X83256Y256649D01*
X83108Y256325D01*
X82952Y256006D01*
X82788Y255690D01*
X82616Y255378D01*
X82437Y255071D01*
X82250Y254768D01*
X82056Y254469D01*
X81855Y254176D01*
X81647Y253887D01*
X81431Y253604D01*
X81209Y253326D01*
X80980Y253054D01*
X80744Y252787D01*
X80502Y252527D01*
X80253Y252272D01*
X79998Y252023D01*
X79738Y251781D01*
X79471Y251545D01*
X79199Y251316D01*
X78921Y251094D01*
X78638Y250878D01*
X78349Y250670D01*
X78056Y250469D01*
X77757Y250275D01*
X77454Y250088D01*
X77147Y249909D01*
X76835Y249737D01*
X76519Y249573D01*
X76200Y249417D01*
X75876Y249269D01*
X75549Y249129D01*
X75218Y248997D01*
X74885Y248873D01*
X74548Y248757D01*
X74209Y248649D01*
X73867Y248550D01*
X73523Y248460D01*
X73177Y248377D01*
X72829Y248304D01*
X72479Y248238D01*
X72128Y248182D01*
X71775Y248134D01*
X71421Y248095D01*
X71067Y248064D01*
X70711Y248042D01*
X70356Y248029D01*
X70000Y248025D01*
X69644Y248029D01*
X69289Y248042D01*
X68933Y248064D01*
X68579Y248095D01*
X68225Y248134D01*
X67872Y248182D01*
X67521Y248238D01*
X67171Y248304D01*
X66823Y248377D01*
X66477Y248460D01*
X66133Y248550D01*
X65791Y248649D01*
X65452Y248757D01*
X65115Y248873D01*
X64782Y248997D01*
X64451Y249129D01*
X64124Y249269D01*
X63800Y249417D01*
X63481Y249573D01*
X63165Y249737D01*
X62853Y249909D01*
X62546Y250088D01*
X62243Y250275D01*
X61944Y250469D01*
X61651Y250670D01*
X61362Y250878D01*
X61079Y251094D01*
X60801Y251316D01*
X60529Y251545D01*
X60262Y251781D01*
X60002Y252023D01*
X59747Y252272D01*
X59498Y252527D01*
X59256Y252787D01*
X59020Y253054D01*
X58791Y253326D01*
X58569Y253604D01*
X58353Y253887D01*
X58145Y254176D01*
X57944Y254469D01*
X57750Y254768D01*
X57563Y255071D01*
X57384Y255378D01*
X57212Y255690D01*
X57048Y256006D01*
X56892Y256325D01*
X56744Y256649D01*
X56604Y256976D01*
X56472Y257307D01*
X56348Y257640D01*
X56232Y257977D01*
X56124Y258316D01*
X56025Y258658D01*
X55935Y259002D01*
X55852Y259348D01*
X55779Y259696D01*
X55713Y260046D01*
X55657Y260397D01*
X55609Y260750D01*
X55570Y261104D01*
X55539Y261458D01*
X55517Y261814D01*
X55504Y262169D01*
X55500Y262525D01*
X90000Y300025D02*
X-90000Y300025D01*
X-90000Y282648D01*
X-90000Y242532D02*
X90000Y242532D01*
X90000Y247362D01*
X90000Y277892D01*
X90000Y282648D01*
X90000Y242532D02*
X90000Y234415D01*
X90000Y282648D02*
X-90000Y282648D01*
X-90000Y277892D02*
X-90000Y247362D01*
X-90000Y277892D02*
X-90000Y282648D01*
X-90000Y277892D02*
X90000Y277892D01*
X90000Y247362D02*
X-90000Y247362D01*
X90000Y282648D02*
X90000Y300025D01*
X-90000Y247362D02*
X-90000Y242532D01*
X-90000Y234415D01*
X90000Y234415D01*
X90000Y227025D02*
X-90000Y227025D01*
X90000Y227025D02*
X90000Y230025D01*
X-90000Y230025D01*
X-90000Y227025D01*
X-90000Y230025D02*
X-90000Y234415D01*
X90000Y234415D02*
X90000Y230025D01*
X-57940Y269635D02*
X-58000Y269575D01*
X-23000Y269575D02*
X-22940Y269635D01*
X12000Y269575D02*
X12060Y269635D01*
X47000Y269575D02*
X47060Y269635D01*
X82000Y269575D02*
X82060Y269635D01*
X-70746Y297942D02*
X-73992Y295346D01*
X-70746Y297942D02*
X-70746Y286258D01*
X-67501Y286258D02*
X-73992Y286258D01*
X-35497Y297942D02*
X-35390Y297940D01*
X-35284Y297934D01*
X-35178Y297924D01*
X-35072Y297911D01*
X-34966Y297893D01*
X-34862Y297872D01*
X-34758Y297847D01*
X-34655Y297818D01*
X-34554Y297786D01*
X-34454Y297749D01*
X-34355Y297709D01*
X-34257Y297666D01*
X-34161Y297619D01*
X-34067Y297568D01*
X-33975Y297514D01*
X-33885Y297457D01*
X-33797Y297397D01*
X-33712Y297333D01*
X-33629Y297266D01*
X-33548Y297196D01*
X-33470Y297124D01*
X-33394Y297048D01*
X-33322Y296970D01*
X-33252Y296889D01*
X-33185Y296806D01*
X-33121Y296721D01*
X-33061Y296633D01*
X-33004Y296543D01*
X-32950Y296451D01*
X-32899Y296357D01*
X-32852Y296261D01*
X-32809Y296163D01*
X-32769Y296064D01*
X-32732Y295964D01*
X-32700Y295863D01*
X-32671Y295760D01*
X-32646Y295656D01*
X-32625Y295552D01*
X-32607Y295446D01*
X-32594Y295340D01*
X-32584Y295234D01*
X-32578Y295128D01*
X-32576Y295021D01*
X-35497Y297942D02*
X-35618Y297940D01*
X-35739Y297934D01*
X-35859Y297924D01*
X-35980Y297911D01*
X-36099Y297893D01*
X-36219Y297872D01*
X-36337Y297847D01*
X-36454Y297818D01*
X-36571Y297785D01*
X-36686Y297749D01*
X-36800Y297708D01*
X-36913Y297665D01*
X-37025Y297617D01*
X-37134Y297566D01*
X-37242Y297511D01*
X-37349Y297453D01*
X-37453Y297392D01*
X-37555Y297327D01*
X-37655Y297259D01*
X-37753Y297188D01*
X-37849Y297114D01*
X-37942Y297037D01*
X-38032Y296956D01*
X-38120Y296873D01*
X-38205Y296787D01*
X-38288Y296698D01*
X-38367Y296607D01*
X-38444Y296513D01*
X-38517Y296417D01*
X-38587Y296319D01*
X-38654Y296218D01*
X-38718Y296115D01*
X-38779Y296010D01*
X-38836Y295903D01*
X-38889Y295795D01*
X-38939Y295685D01*
X-38985Y295573D01*
X-39028Y295460D01*
X-39067Y295345D01*
X-33550Y292749D02*
X-33471Y292827D01*
X-33395Y292907D01*
X-33322Y292990D01*
X-33252Y293076D01*
X-33185Y293163D01*
X-33121Y293254D01*
X-33061Y293346D01*
X-33003Y293440D01*
X-32949Y293537D01*
X-32899Y293635D01*
X-32852Y293735D01*
X-32808Y293836D01*
X-32768Y293939D01*
X-32732Y294044D01*
X-32700Y294149D01*
X-32671Y294256D01*
X-32646Y294363D01*
X-32624Y294472D01*
X-32607Y294581D01*
X-32593Y294690D01*
X-32584Y294800D01*
X-32578Y294911D01*
X-32576Y295021D01*
X-33550Y292749D02*
X-39067Y286258D01*
X-32576Y286258D01*
X-4142Y286258D02*
X-896Y286258D01*
X-783Y286260D01*
X-670Y286266D01*
X-557Y286276D01*
X-444Y286290D01*
X-332Y286307D01*
X-221Y286329D01*
X-111Y286354D01*
X-1Y286384D01*
X107Y286417D01*
X214Y286454D01*
X320Y286494D01*
X424Y286539D01*
X527Y286587D01*
X628Y286638D01*
X727Y286693D01*
X824Y286751D01*
X919Y286813D01*
X1012Y286878D01*
X1102Y286946D01*
X1190Y287017D01*
X1276Y287092D01*
X1359Y287169D01*
X1439Y287249D01*
X1516Y287332D01*
X1591Y287418D01*
X1662Y287506D01*
X1730Y287596D01*
X1795Y287689D01*
X1857Y287784D01*
X1915Y287881D01*
X1970Y287980D01*
X2021Y288081D01*
X2069Y288184D01*
X2114Y288288D01*
X2154Y288394D01*
X2191Y288501D01*
X2224Y288609D01*
X2254Y288719D01*
X2279Y288829D01*
X2301Y288940D01*
X2318Y289052D01*
X2332Y289165D01*
X2342Y289278D01*
X2348Y289391D01*
X2350Y289504D01*
X2348Y289617D01*
X2342Y289730D01*
X2332Y289843D01*
X2318Y289956D01*
X2301Y290068D01*
X2279Y290179D01*
X2254Y290289D01*
X2224Y290399D01*
X2191Y290507D01*
X2154Y290614D01*
X2114Y290720D01*
X2069Y290824D01*
X2021Y290927D01*
X1970Y291028D01*
X1915Y291127D01*
X1857Y291224D01*
X1795Y291319D01*
X1730Y291412D01*
X1662Y291502D01*
X1591Y291590D01*
X1516Y291676D01*
X1439Y291759D01*
X1359Y291839D01*
X1276Y291916D01*
X1190Y291991D01*
X1102Y292062D01*
X1012Y292130D01*
X919Y292195D01*
X824Y292257D01*
X727Y292315D01*
X628Y292370D01*
X527Y292421D01*
X424Y292469D01*
X320Y292514D01*
X214Y292554D01*
X107Y292591D01*
X-1Y292624D01*
X-111Y292654D01*
X-221Y292679D01*
X-332Y292701D01*
X-444Y292718D01*
X-557Y292732D01*
X-670Y292742D01*
X-783Y292748D01*
X-896Y292750D01*
X-247Y297942D02*
X-4142Y297942D01*
X-247Y297942D02*
X-146Y297940D01*
X-46Y297934D01*
X54Y297924D01*
X154Y297911D01*
X253Y297893D01*
X352Y297872D01*
X449Y297847D01*
X546Y297818D01*
X641Y297785D01*
X735Y297749D01*
X827Y297709D01*
X918Y297666D01*
X1007Y297619D01*
X1094Y297569D01*
X1180Y297515D01*
X1263Y297458D01*
X1343Y297398D01*
X1422Y297335D01*
X1498Y297268D01*
X1571Y297199D01*
X1641Y297127D01*
X1709Y297053D01*
X1774Y296976D01*
X1835Y296896D01*
X1894Y296814D01*
X1949Y296730D01*
X2001Y296644D01*
X2050Y296556D01*
X2095Y296466D01*
X2137Y296374D01*
X2175Y296281D01*
X2209Y296186D01*
X2240Y296091D01*
X2267Y295994D01*
X2290Y295896D01*
X2310Y295797D01*
X2325Y295697D01*
X2337Y295597D01*
X2345Y295497D01*
X2349Y295396D01*
X2349Y295296D01*
X2345Y295195D01*
X2337Y295095D01*
X2325Y294995D01*
X2310Y294895D01*
X2290Y294796D01*
X2267Y294698D01*
X2240Y294601D01*
X2209Y294506D01*
X2175Y294411D01*
X2137Y294318D01*
X2095Y294226D01*
X2050Y294136D01*
X2001Y294048D01*
X1949Y293962D01*
X1894Y293878D01*
X1835Y293796D01*
X1774Y293716D01*
X1709Y293639D01*
X1641Y293565D01*
X1571Y293493D01*
X1498Y293424D01*
X1422Y293357D01*
X1343Y293294D01*
X1263Y293234D01*
X1180Y293177D01*
X1094Y293123D01*
X1007Y293073D01*
X918Y293026D01*
X827Y292983D01*
X735Y292943D01*
X641Y292907D01*
X546Y292874D01*
X449Y292845D01*
X352Y292820D01*
X253Y292799D01*
X154Y292781D01*
X54Y292768D01*
X-46Y292758D01*
X-146Y292752D01*
X-247Y292750D01*
X-247Y292749D02*
X-2844Y292749D01*
X30783Y288854D02*
X33379Y297942D01*
X30783Y288854D02*
X37274Y288854D01*
X35327Y291451D02*
X35327Y286258D01*
X65708Y286258D02*
X69603Y286258D01*
X69702Y286260D01*
X69802Y286266D01*
X69901Y286275D01*
X69999Y286288D01*
X70097Y286305D01*
X70195Y286326D01*
X70291Y286351D01*
X70386Y286379D01*
X70480Y286411D01*
X70573Y286446D01*
X70665Y286485D01*
X70755Y286528D01*
X70843Y286573D01*
X70930Y286623D01*
X71014Y286675D01*
X71097Y286731D01*
X71177Y286789D01*
X71255Y286851D01*
X71330Y286916D01*
X71403Y286984D01*
X71473Y287054D01*
X71541Y287127D01*
X71606Y287202D01*
X71668Y287280D01*
X71726Y287360D01*
X71782Y287443D01*
X71834Y287527D01*
X71884Y287614D01*
X71929Y287702D01*
X71972Y287792D01*
X72011Y287884D01*
X72046Y287977D01*
X72078Y288071D01*
X72106Y288166D01*
X72131Y288262D01*
X72152Y288360D01*
X72169Y288458D01*
X72182Y288556D01*
X72191Y288655D01*
X72197Y288755D01*
X72199Y288854D01*
X72199Y290153D01*
X72197Y290252D01*
X72191Y290352D01*
X72182Y290451D01*
X72169Y290549D01*
X72152Y290647D01*
X72131Y290745D01*
X72106Y290841D01*
X72078Y290936D01*
X72046Y291030D01*
X72011Y291123D01*
X71972Y291215D01*
X71929Y291305D01*
X71884Y291393D01*
X71834Y291480D01*
X71782Y291564D01*
X71726Y291647D01*
X71668Y291727D01*
X71606Y291805D01*
X71541Y291880D01*
X71473Y291953D01*
X71403Y292023D01*
X71330Y292091D01*
X71255Y292156D01*
X71177Y292218D01*
X71097Y292276D01*
X71014Y292332D01*
X70930Y292384D01*
X70843Y292434D01*
X70755Y292479D01*
X70665Y292522D01*
X70573Y292561D01*
X70480Y292596D01*
X70386Y292628D01*
X70291Y292656D01*
X70195Y292681D01*
X70097Y292702D01*
X69999Y292719D01*
X69901Y292732D01*
X69802Y292741D01*
X69702Y292747D01*
X69603Y292749D01*
X65708Y292749D01*
X65708Y297942D01*
X72199Y297942D01*
X-83350Y169825D02*
X-83346Y170181D01*
X-83333Y170536D01*
X-83311Y170892D01*
X-83280Y171246D01*
X-83241Y171600D01*
X-83193Y171953D01*
X-83137Y172304D01*
X-83071Y172654D01*
X-82998Y173002D01*
X-82915Y173348D01*
X-82825Y173692D01*
X-82726Y174034D01*
X-82618Y174373D01*
X-82502Y174710D01*
X-82378Y175043D01*
X-82246Y175374D01*
X-82106Y175701D01*
X-81958Y176025D01*
X-81802Y176344D01*
X-81638Y176660D01*
X-81466Y176972D01*
X-81287Y177279D01*
X-81100Y177582D01*
X-80906Y177881D01*
X-80705Y178174D01*
X-80497Y178463D01*
X-80281Y178746D01*
X-80059Y179024D01*
X-79830Y179296D01*
X-79594Y179563D01*
X-79352Y179823D01*
X-79103Y180078D01*
X-78848Y180327D01*
X-78588Y180569D01*
X-78321Y180805D01*
X-78049Y181034D01*
X-77771Y181256D01*
X-77488Y181472D01*
X-77199Y181680D01*
X-76906Y181881D01*
X-76607Y182075D01*
X-76304Y182262D01*
X-75997Y182441D01*
X-75685Y182613D01*
X-75369Y182777D01*
X-75050Y182933D01*
X-74726Y183081D01*
X-74399Y183221D01*
X-74068Y183353D01*
X-73735Y183477D01*
X-73398Y183593D01*
X-73059Y183701D01*
X-72717Y183800D01*
X-72373Y183890D01*
X-72027Y183973D01*
X-71679Y184046D01*
X-71329Y184112D01*
X-70978Y184168D01*
X-70625Y184216D01*
X-70271Y184255D01*
X-69917Y184286D01*
X-69561Y184308D01*
X-69206Y184321D01*
X-68850Y184325D01*
X-68494Y184321D01*
X-68139Y184308D01*
X-67783Y184286D01*
X-67429Y184255D01*
X-67075Y184216D01*
X-66722Y184168D01*
X-66371Y184112D01*
X-66021Y184046D01*
X-65673Y183973D01*
X-65327Y183890D01*
X-64983Y183800D01*
X-64641Y183701D01*
X-64302Y183593D01*
X-63965Y183477D01*
X-63632Y183353D01*
X-63301Y183221D01*
X-62974Y183081D01*
X-62650Y182933D01*
X-62331Y182777D01*
X-62015Y182613D01*
X-61703Y182441D01*
X-61396Y182262D01*
X-61093Y182075D01*
X-60794Y181881D01*
X-60501Y181680D01*
X-60212Y181472D01*
X-59929Y181256D01*
X-59651Y181034D01*
X-59379Y180805D01*
X-59112Y180569D01*
X-58852Y180327D01*
X-58597Y180078D01*
X-58348Y179823D01*
X-58106Y179563D01*
X-57870Y179296D01*
X-57641Y179024D01*
X-57419Y178746D01*
X-57203Y178463D01*
X-56995Y178174D01*
X-56794Y177881D01*
X-56600Y177582D01*
X-56413Y177279D01*
X-56234Y176972D01*
X-56062Y176660D01*
X-55898Y176344D01*
X-55742Y176025D01*
X-55594Y175701D01*
X-55454Y175374D01*
X-55322Y175043D01*
X-55198Y174710D01*
X-55082Y174373D01*
X-54974Y174034D01*
X-54875Y173692D01*
X-54785Y173348D01*
X-54702Y173002D01*
X-54629Y172654D01*
X-54563Y172304D01*
X-54507Y171953D01*
X-54459Y171600D01*
X-54420Y171246D01*
X-54389Y170892D01*
X-54367Y170536D01*
X-54354Y170181D01*
X-54350Y169825D01*
X-54354Y169469D01*
X-54367Y169114D01*
X-54389Y168758D01*
X-54420Y168404D01*
X-54459Y168050D01*
X-54507Y167697D01*
X-54563Y167346D01*
X-54629Y166996D01*
X-54702Y166648D01*
X-54785Y166302D01*
X-54875Y165958D01*
X-54974Y165616D01*
X-55082Y165277D01*
X-55198Y164940D01*
X-55322Y164607D01*
X-55454Y164276D01*
X-55594Y163949D01*
X-55742Y163625D01*
X-55898Y163306D01*
X-56062Y162990D01*
X-56234Y162678D01*
X-56413Y162371D01*
X-56600Y162068D01*
X-56794Y161769D01*
X-56995Y161476D01*
X-57203Y161187D01*
X-57419Y160904D01*
X-57641Y160626D01*
X-57870Y160354D01*
X-58106Y160087D01*
X-58348Y159827D01*
X-58597Y159572D01*
X-58852Y159323D01*
X-59112Y159081D01*
X-59379Y158845D01*
X-59651Y158616D01*
X-59929Y158394D01*
X-60212Y158178D01*
X-60501Y157970D01*
X-60794Y157769D01*
X-61093Y157575D01*
X-61396Y157388D01*
X-61703Y157209D01*
X-62015Y157037D01*
X-62331Y156873D01*
X-62650Y156717D01*
X-62974Y156569D01*
X-63301Y156429D01*
X-63632Y156297D01*
X-63965Y156173D01*
X-64302Y156057D01*
X-64641Y155949D01*
X-64983Y155850D01*
X-65327Y155760D01*
X-65673Y155677D01*
X-66021Y155604D01*
X-66371Y155538D01*
X-66722Y155482D01*
X-67075Y155434D01*
X-67429Y155395D01*
X-67783Y155364D01*
X-68139Y155342D01*
X-68494Y155329D01*
X-68850Y155325D01*
X-69206Y155329D01*
X-69561Y155342D01*
X-69917Y155364D01*
X-70271Y155395D01*
X-70625Y155434D01*
X-70978Y155482D01*
X-71329Y155538D01*
X-71679Y155604D01*
X-72027Y155677D01*
X-72373Y155760D01*
X-72717Y155850D01*
X-73059Y155949D01*
X-73398Y156057D01*
X-73735Y156173D01*
X-74068Y156297D01*
X-74399Y156429D01*
X-74726Y156569D01*
X-75050Y156717D01*
X-75369Y156873D01*
X-75685Y157037D01*
X-75997Y157209D01*
X-76304Y157388D01*
X-76607Y157575D01*
X-76906Y157769D01*
X-77199Y157970D01*
X-77488Y158178D01*
X-77771Y158394D01*
X-78049Y158616D01*
X-78321Y158845D01*
X-78588Y159081D01*
X-78848Y159323D01*
X-79103Y159572D01*
X-79352Y159827D01*
X-79594Y160087D01*
X-79830Y160354D01*
X-80059Y160626D01*
X-80281Y160904D01*
X-80497Y161187D01*
X-80705Y161476D01*
X-80906Y161769D01*
X-81100Y162068D01*
X-81287Y162371D01*
X-81466Y162678D01*
X-81638Y162990D01*
X-81802Y163306D01*
X-81958Y163625D01*
X-82106Y163949D01*
X-82246Y164276D01*
X-82378Y164607D01*
X-82502Y164940D01*
X-82618Y165277D01*
X-82726Y165616D01*
X-82825Y165958D01*
X-82915Y166302D01*
X-82998Y166648D01*
X-83071Y166996D01*
X-83137Y167346D01*
X-83193Y167697D01*
X-83241Y168050D01*
X-83280Y168404D01*
X-83311Y168758D01*
X-83333Y169114D01*
X-83346Y169469D01*
X-83350Y169825D01*
X-83350Y204825D02*
X-83346Y205181D01*
X-83333Y205536D01*
X-83311Y205892D01*
X-83280Y206246D01*
X-83241Y206600D01*
X-83193Y206953D01*
X-83137Y207304D01*
X-83071Y207654D01*
X-82998Y208002D01*
X-82915Y208348D01*
X-82825Y208692D01*
X-82726Y209034D01*
X-82618Y209373D01*
X-82502Y209710D01*
X-82378Y210043D01*
X-82246Y210374D01*
X-82106Y210701D01*
X-81958Y211025D01*
X-81802Y211344D01*
X-81638Y211660D01*
X-81466Y211972D01*
X-81287Y212279D01*
X-81100Y212582D01*
X-80906Y212881D01*
X-80705Y213174D01*
X-80497Y213463D01*
X-80281Y213746D01*
X-80059Y214024D01*
X-79830Y214296D01*
X-79594Y214563D01*
X-79352Y214823D01*
X-79103Y215078D01*
X-78848Y215327D01*
X-78588Y215569D01*
X-78321Y215805D01*
X-78049Y216034D01*
X-77771Y216256D01*
X-77488Y216472D01*
X-77199Y216680D01*
X-76906Y216881D01*
X-76607Y217075D01*
X-76304Y217262D01*
X-75997Y217441D01*
X-75685Y217613D01*
X-75369Y217777D01*
X-75050Y217933D01*
X-74726Y218081D01*
X-74399Y218221D01*
X-74068Y218353D01*
X-73735Y218477D01*
X-73398Y218593D01*
X-73059Y218701D01*
X-72717Y218800D01*
X-72373Y218890D01*
X-72027Y218973D01*
X-71679Y219046D01*
X-71329Y219112D01*
X-70978Y219168D01*
X-70625Y219216D01*
X-70271Y219255D01*
X-69917Y219286D01*
X-69561Y219308D01*
X-69206Y219321D01*
X-68850Y219325D01*
X-68494Y219321D01*
X-68139Y219308D01*
X-67783Y219286D01*
X-67429Y219255D01*
X-67075Y219216D01*
X-66722Y219168D01*
X-66371Y219112D01*
X-66021Y219046D01*
X-65673Y218973D01*
X-65327Y218890D01*
X-64983Y218800D01*
X-64641Y218701D01*
X-64302Y218593D01*
X-63965Y218477D01*
X-63632Y218353D01*
X-63301Y218221D01*
X-62974Y218081D01*
X-62650Y217933D01*
X-62331Y217777D01*
X-62015Y217613D01*
X-61703Y217441D01*
X-61396Y217262D01*
X-61093Y217075D01*
X-60794Y216881D01*
X-60501Y216680D01*
X-60212Y216472D01*
X-59929Y216256D01*
X-59651Y216034D01*
X-59379Y215805D01*
X-59112Y215569D01*
X-58852Y215327D01*
X-58597Y215078D01*
X-58348Y214823D01*
X-58106Y214563D01*
X-57870Y214296D01*
X-57641Y214024D01*
X-57419Y213746D01*
X-57203Y213463D01*
X-56995Y213174D01*
X-56794Y212881D01*
X-56600Y212582D01*
X-56413Y212279D01*
X-56234Y211972D01*
X-56062Y211660D01*
X-55898Y211344D01*
X-55742Y211025D01*
X-55594Y210701D01*
X-55454Y210374D01*
X-55322Y210043D01*
X-55198Y209710D01*
X-55082Y209373D01*
X-54974Y209034D01*
X-54875Y208692D01*
X-54785Y208348D01*
X-54702Y208002D01*
X-54629Y207654D01*
X-54563Y207304D01*
X-54507Y206953D01*
X-54459Y206600D01*
X-54420Y206246D01*
X-54389Y205892D01*
X-54367Y205536D01*
X-54354Y205181D01*
X-54350Y204825D01*
X-54354Y204469D01*
X-54367Y204114D01*
X-54389Y203758D01*
X-54420Y203404D01*
X-54459Y203050D01*
X-54507Y202697D01*
X-54563Y202346D01*
X-54629Y201996D01*
X-54702Y201648D01*
X-54785Y201302D01*
X-54875Y200958D01*
X-54974Y200616D01*
X-55082Y200277D01*
X-55198Y199940D01*
X-55322Y199607D01*
X-55454Y199276D01*
X-55594Y198949D01*
X-55742Y198625D01*
X-55898Y198306D01*
X-56062Y197990D01*
X-56234Y197678D01*
X-56413Y197371D01*
X-56600Y197068D01*
X-56794Y196769D01*
X-56995Y196476D01*
X-57203Y196187D01*
X-57419Y195904D01*
X-57641Y195626D01*
X-57870Y195354D01*
X-58106Y195087D01*
X-58348Y194827D01*
X-58597Y194572D01*
X-58852Y194323D01*
X-59112Y194081D01*
X-59379Y193845D01*
X-59651Y193616D01*
X-59929Y193394D01*
X-60212Y193178D01*
X-60501Y192970D01*
X-60794Y192769D01*
X-61093Y192575D01*
X-61396Y192388D01*
X-61703Y192209D01*
X-62015Y192037D01*
X-62331Y191873D01*
X-62650Y191717D01*
X-62974Y191569D01*
X-63301Y191429D01*
X-63632Y191297D01*
X-63965Y191173D01*
X-64302Y191057D01*
X-64641Y190949D01*
X-64983Y190850D01*
X-65327Y190760D01*
X-65673Y190677D01*
X-66021Y190604D01*
X-66371Y190538D01*
X-66722Y190482D01*
X-67075Y190434D01*
X-67429Y190395D01*
X-67783Y190364D01*
X-68139Y190342D01*
X-68494Y190329D01*
X-68850Y190325D01*
X-69206Y190329D01*
X-69561Y190342D01*
X-69917Y190364D01*
X-70271Y190395D01*
X-70625Y190434D01*
X-70978Y190482D01*
X-71329Y190538D01*
X-71679Y190604D01*
X-72027Y190677D01*
X-72373Y190760D01*
X-72717Y190850D01*
X-73059Y190949D01*
X-73398Y191057D01*
X-73735Y191173D01*
X-74068Y191297D01*
X-74399Y191429D01*
X-74726Y191569D01*
X-75050Y191717D01*
X-75369Y191873D01*
X-75685Y192037D01*
X-75997Y192209D01*
X-76304Y192388D01*
X-76607Y192575D01*
X-76906Y192769D01*
X-77199Y192970D01*
X-77488Y193178D01*
X-77771Y193394D01*
X-78049Y193616D01*
X-78321Y193845D01*
X-78588Y194081D01*
X-78848Y194323D01*
X-79103Y194572D01*
X-79352Y194827D01*
X-79594Y195087D01*
X-79830Y195354D01*
X-80059Y195626D01*
X-80281Y195904D01*
X-80497Y196187D01*
X-80705Y196476D01*
X-80906Y196769D01*
X-81100Y197068D01*
X-81287Y197371D01*
X-81466Y197678D01*
X-81638Y197990D01*
X-81802Y198306D01*
X-81958Y198625D01*
X-82106Y198949D01*
X-82246Y199276D01*
X-82378Y199607D01*
X-82502Y199940D01*
X-82618Y200277D01*
X-82726Y200616D01*
X-82825Y200958D01*
X-82915Y201302D01*
X-82998Y201648D01*
X-83071Y201996D01*
X-83137Y202346D01*
X-83193Y202697D01*
X-83241Y203050D01*
X-83280Y203404D01*
X-83311Y203758D01*
X-83333Y204114D01*
X-83346Y204469D01*
X-83350Y204825D01*
X-106350Y224825D02*
X-106350Y149825D01*
X-88973Y149825D01*
X-48857Y149825D02*
X-48857Y224825D01*
X-53687Y224825D01*
X-84217Y224825D01*
X-88973Y224825D01*
X-48857Y224825D02*
X-40740Y224825D01*
X-88973Y224825D02*
X-88973Y149825D01*
X-84217Y149825D02*
X-53687Y149825D01*
X-84217Y149825D02*
X-88973Y149825D01*
X-84217Y149825D02*
X-84217Y224825D01*
X-53687Y224825D02*
X-53687Y149825D01*
X-88973Y224825D02*
X-106350Y224825D01*
X-53687Y149825D02*
X-48857Y149825D01*
X-40740Y149825D01*
X-40740Y224825D01*
X-33350Y224825D02*
X-33350Y149825D01*
X-33350Y224825D02*
X-36350Y224825D01*
X-36350Y149825D01*
X-33350Y149825D01*
X-36350Y149825D02*
X-40740Y149825D01*
X-40740Y224825D02*
X-36350Y224825D01*
X-75960Y181885D02*
X-75900Y181825D01*
X-75900Y216825D02*
X-75960Y216885D01*
X-104267Y169079D02*
X-101671Y165833D01*
X-104267Y169079D02*
X-92583Y169079D01*
X-92583Y172324D02*
X-92583Y165833D01*
X-104267Y204328D02*
X-104265Y204435D01*
X-104259Y204541D01*
X-104249Y204647D01*
X-104236Y204753D01*
X-104218Y204859D01*
X-104197Y204963D01*
X-104172Y205067D01*
X-104143Y205170D01*
X-104111Y205271D01*
X-104074Y205371D01*
X-104034Y205470D01*
X-103991Y205568D01*
X-103944Y205664D01*
X-103893Y205758D01*
X-103839Y205850D01*
X-103782Y205940D01*
X-103722Y206028D01*
X-103658Y206113D01*
X-103591Y206196D01*
X-103521Y206277D01*
X-103449Y206355D01*
X-103373Y206431D01*
X-103295Y206503D01*
X-103214Y206573D01*
X-103131Y206640D01*
X-103046Y206704D01*
X-102958Y206764D01*
X-102868Y206821D01*
X-102776Y206875D01*
X-102682Y206926D01*
X-102586Y206973D01*
X-102488Y207016D01*
X-102389Y207056D01*
X-102289Y207093D01*
X-102188Y207125D01*
X-102085Y207154D01*
X-101981Y207179D01*
X-101877Y207200D01*
X-101771Y207218D01*
X-101665Y207231D01*
X-101559Y207241D01*
X-101453Y207247D01*
X-101346Y207249D01*
X-104267Y204328D02*
X-104265Y204207D01*
X-104259Y204086D01*
X-104249Y203966D01*
X-104236Y203845D01*
X-104218Y203726D01*
X-104197Y203606D01*
X-104172Y203488D01*
X-104143Y203371D01*
X-104110Y203254D01*
X-104074Y203139D01*
X-104033Y203025D01*
X-103990Y202912D01*
X-103942Y202800D01*
X-103891Y202691D01*
X-103836Y202583D01*
X-103778Y202476D01*
X-103717Y202372D01*
X-103652Y202270D01*
X-103584Y202170D01*
X-103513Y202072D01*
X-103439Y201976D01*
X-103362Y201883D01*
X-103281Y201793D01*
X-103198Y201705D01*
X-103112Y201620D01*
X-103023Y201537D01*
X-102932Y201458D01*
X-102838Y201381D01*
X-102742Y201308D01*
X-102644Y201238D01*
X-102543Y201171D01*
X-102440Y201107D01*
X-102335Y201047D01*
X-102228Y200990D01*
X-102120Y200936D01*
X-102010Y200886D01*
X-101898Y200840D01*
X-101785Y200797D01*
X-101670Y200758D01*
X-99074Y206276D02*
X-99151Y206355D01*
X-99232Y206431D01*
X-99315Y206504D01*
X-99400Y206574D01*
X-99488Y206641D01*
X-99578Y206705D01*
X-99670Y206765D01*
X-99765Y206822D01*
X-99861Y206876D01*
X-99959Y206927D01*
X-100059Y206974D01*
X-100161Y207018D01*
X-100264Y207058D01*
X-100368Y207094D01*
X-100474Y207126D01*
X-100580Y207155D01*
X-100688Y207180D01*
X-100796Y207202D01*
X-100906Y207219D01*
X-101015Y207233D01*
X-101125Y207242D01*
X-101236Y207248D01*
X-101346Y207250D01*
X-99074Y206275D02*
X-92583Y200758D01*
X-92583Y207249D01*
D10*
X-90932Y148463D02*
X-92202Y143383D01*
X-80772Y143383D01*
X-82042Y148463D01*
D123*
X-19177Y177800D02*
X-12827Y177800D01*
D124*
X3434Y181425D02*
X3434Y174059D01*
X3434Y181425D02*
X5480Y181425D01*
X5480Y181424D02*
X5569Y181422D01*
X5658Y181416D01*
X5747Y181406D01*
X5835Y181393D01*
X5923Y181376D01*
X6010Y181354D01*
X6095Y181329D01*
X6180Y181301D01*
X6263Y181268D01*
X6345Y181232D01*
X6425Y181193D01*
X6503Y181150D01*
X6579Y181104D01*
X6654Y181054D01*
X6726Y181001D01*
X6795Y180945D01*
X6862Y180886D01*
X6927Y180825D01*
X6988Y180760D01*
X7047Y180693D01*
X7103Y180624D01*
X7156Y180552D01*
X7206Y180477D01*
X7252Y180401D01*
X7295Y180323D01*
X7334Y180243D01*
X7370Y180161D01*
X7403Y180078D01*
X7431Y179993D01*
X7456Y179908D01*
X7478Y179821D01*
X7495Y179733D01*
X7508Y179645D01*
X7518Y179556D01*
X7524Y179467D01*
X7526Y179378D01*
X7524Y179289D01*
X7518Y179200D01*
X7508Y179111D01*
X7495Y179023D01*
X7478Y178935D01*
X7456Y178848D01*
X7431Y178763D01*
X7403Y178678D01*
X7370Y178595D01*
X7334Y178513D01*
X7295Y178433D01*
X7252Y178355D01*
X7206Y178279D01*
X7156Y178204D01*
X7103Y178132D01*
X7047Y178063D01*
X6988Y177996D01*
X6927Y177931D01*
X6862Y177870D01*
X6795Y177811D01*
X6726Y177755D01*
X6654Y177702D01*
X6579Y177652D01*
X6503Y177606D01*
X6425Y177563D01*
X6345Y177524D01*
X6263Y177488D01*
X6180Y177455D01*
X6095Y177427D01*
X6010Y177402D01*
X5923Y177380D01*
X5835Y177363D01*
X5747Y177350D01*
X5658Y177340D01*
X5569Y177334D01*
X5480Y177332D01*
X3434Y177332D01*
X5890Y177332D02*
X7526Y174059D01*
X10698Y180606D02*
X10698Y181425D01*
X14790Y181425D01*
X12744Y174059D01*
D125*
X-51475Y48538D02*
X-53975Y48538D01*
X-56475Y48538D01*
X-53975Y48538D02*
X-51475Y43538D01*
X-56475Y43538D02*
X-53975Y48538D01*
X-56475Y43538D02*
X-51475Y43538D01*
X-48975Y33538D02*
X-58975Y33538D01*
X-58975Y58538D01*
X-48975Y58538D01*
X-48975Y33538D01*
D124*
X-61391Y41305D02*
X-68757Y41305D01*
X-68757Y43351D01*
X-68756Y43351D02*
X-68754Y43440D01*
X-68748Y43529D01*
X-68738Y43618D01*
X-68725Y43706D01*
X-68708Y43794D01*
X-68686Y43881D01*
X-68661Y43966D01*
X-68633Y44051D01*
X-68600Y44134D01*
X-68564Y44216D01*
X-68525Y44296D01*
X-68482Y44374D01*
X-68436Y44450D01*
X-68386Y44525D01*
X-68333Y44597D01*
X-68277Y44666D01*
X-68218Y44733D01*
X-68157Y44798D01*
X-68092Y44859D01*
X-68025Y44918D01*
X-67956Y44974D01*
X-67884Y45027D01*
X-67809Y45077D01*
X-67733Y45123D01*
X-67655Y45166D01*
X-67575Y45205D01*
X-67493Y45241D01*
X-67410Y45274D01*
X-67325Y45302D01*
X-67240Y45327D01*
X-67153Y45349D01*
X-67065Y45366D01*
X-66977Y45379D01*
X-66888Y45389D01*
X-66799Y45395D01*
X-66710Y45397D01*
X-63437Y45397D01*
X-63348Y45395D01*
X-63259Y45389D01*
X-63170Y45379D01*
X-63082Y45366D01*
X-62994Y45349D01*
X-62907Y45327D01*
X-62822Y45302D01*
X-62737Y45274D01*
X-62654Y45241D01*
X-62572Y45205D01*
X-62492Y45166D01*
X-62414Y45123D01*
X-62338Y45077D01*
X-62263Y45027D01*
X-62191Y44974D01*
X-62122Y44918D01*
X-62055Y44859D01*
X-61990Y44798D01*
X-61929Y44733D01*
X-61870Y44666D01*
X-61814Y44597D01*
X-61761Y44525D01*
X-61711Y44450D01*
X-61665Y44374D01*
X-61622Y44296D01*
X-61583Y44216D01*
X-61547Y44134D01*
X-61514Y44051D01*
X-61486Y43966D01*
X-61461Y43881D01*
X-61439Y43794D01*
X-61422Y43706D01*
X-61409Y43618D01*
X-61399Y43529D01*
X-61393Y43440D01*
X-61391Y43351D01*
X-61391Y41305D01*
X-67120Y48864D02*
X-68757Y50910D01*
X-61391Y50910D01*
X-61391Y48864D02*
X-61391Y52957D01*
D10*
X114300Y165100D02*
X127000Y165100D01*
X133350Y158750D01*
X133350Y146050D01*
X127000Y139700D01*
X107950Y146050D02*
X107950Y158750D01*
X114300Y165100D01*
X107950Y146050D02*
X114300Y139700D01*
X127000Y139700D01*
D123*
X72898Y177546D02*
X66040Y177546D01*
D124*
X63881Y187706D02*
X63881Y195072D01*
X67155Y195072D01*
X67155Y191798D02*
X63881Y191798D01*
X70323Y191798D02*
X72369Y191798D01*
X72458Y191796D01*
X72547Y191790D01*
X72636Y191780D01*
X72724Y191767D01*
X72812Y191750D01*
X72899Y191728D01*
X72984Y191703D01*
X73069Y191675D01*
X73152Y191642D01*
X73234Y191606D01*
X73314Y191567D01*
X73392Y191524D01*
X73468Y191478D01*
X73543Y191428D01*
X73615Y191375D01*
X73684Y191319D01*
X73751Y191260D01*
X73816Y191199D01*
X73877Y191134D01*
X73936Y191067D01*
X73992Y190998D01*
X74045Y190926D01*
X74095Y190851D01*
X74141Y190775D01*
X74184Y190697D01*
X74223Y190617D01*
X74259Y190535D01*
X74292Y190452D01*
X74320Y190367D01*
X74345Y190282D01*
X74367Y190195D01*
X74384Y190107D01*
X74397Y190019D01*
X74407Y189930D01*
X74413Y189841D01*
X74415Y189752D01*
X74413Y189663D01*
X74407Y189574D01*
X74397Y189485D01*
X74384Y189397D01*
X74367Y189309D01*
X74345Y189222D01*
X74320Y189137D01*
X74292Y189052D01*
X74259Y188969D01*
X74223Y188887D01*
X74184Y188807D01*
X74141Y188729D01*
X74095Y188653D01*
X74045Y188578D01*
X73992Y188506D01*
X73936Y188437D01*
X73877Y188370D01*
X73816Y188305D01*
X73751Y188244D01*
X73684Y188185D01*
X73615Y188129D01*
X73543Y188076D01*
X73468Y188026D01*
X73392Y187980D01*
X73314Y187937D01*
X73234Y187898D01*
X73152Y187862D01*
X73069Y187829D01*
X72984Y187801D01*
X72899Y187776D01*
X72812Y187754D01*
X72724Y187737D01*
X72636Y187724D01*
X72547Y187714D01*
X72458Y187708D01*
X72369Y187706D01*
X70323Y187706D01*
X70323Y195072D01*
X72369Y195072D01*
X72448Y195070D01*
X72527Y195064D01*
X72606Y195055D01*
X72684Y195042D01*
X72761Y195024D01*
X72837Y195004D01*
X72912Y194979D01*
X72986Y194951D01*
X73059Y194920D01*
X73130Y194884D01*
X73199Y194846D01*
X73266Y194804D01*
X73331Y194759D01*
X73394Y194711D01*
X73455Y194660D01*
X73512Y194606D01*
X73568Y194550D01*
X73620Y194491D01*
X73670Y194429D01*
X73716Y194365D01*
X73760Y194299D01*
X73800Y194231D01*
X73836Y194161D01*
X73870Y194089D01*
X73900Y194015D01*
X73926Y193941D01*
X73949Y193865D01*
X73967Y193788D01*
X73983Y193711D01*
X73994Y193632D01*
X74002Y193554D01*
X74006Y193475D01*
X74006Y193395D01*
X74002Y193316D01*
X73994Y193238D01*
X73983Y193159D01*
X73967Y193082D01*
X73949Y193005D01*
X73926Y192929D01*
X73900Y192855D01*
X73870Y192781D01*
X73836Y192709D01*
X73800Y192639D01*
X73760Y192571D01*
X73716Y192505D01*
X73670Y192441D01*
X73620Y192379D01*
X73568Y192320D01*
X73512Y192264D01*
X73455Y192210D01*
X73394Y192159D01*
X73331Y192111D01*
X73266Y192066D01*
X73199Y192024D01*
X73130Y191986D01*
X73059Y191950D01*
X72986Y191919D01*
X72912Y191891D01*
X72837Y191866D01*
X72761Y191846D01*
X72684Y191828D01*
X72606Y191815D01*
X72527Y191806D01*
X72448Y191800D01*
X72369Y191798D01*
X77276Y193435D02*
X79323Y195072D01*
X79323Y187706D01*
X81369Y187706D02*
X77276Y187706D01*
D10*
X-65088Y130175D02*
X-65088Y117475D01*
X-71438Y111125D01*
X-84138Y111125D01*
X-90488Y117475D01*
X-71438Y111125D02*
X-65088Y104775D01*
X-65088Y92075D01*
X-71438Y85725D01*
X-84138Y85725D01*
X-90488Y92075D01*
X-90488Y104775D01*
X-84138Y111125D01*
X-84138Y136525D02*
X-71438Y136525D01*
X-65088Y130175D01*
X-84138Y136525D02*
X-90488Y130175D01*
X-90488Y117475D01*
X-71438Y85725D02*
X-65088Y79375D01*
X-65088Y66675D01*
X-71438Y60325D01*
X-84138Y60325D01*
X-90488Y66675D01*
X-90488Y79375D01*
X-84138Y85725D01*
D123*
X76200Y104648D02*
X76200Y111252D01*
D124*
X82169Y81442D02*
X82169Y79805D01*
X82167Y79727D01*
X82162Y79649D01*
X82152Y79572D01*
X82139Y79495D01*
X82123Y79419D01*
X82103Y79344D01*
X82079Y79270D01*
X82052Y79197D01*
X82021Y79125D01*
X81987Y79055D01*
X81950Y78987D01*
X81909Y78920D01*
X81865Y78855D01*
X81819Y78793D01*
X81769Y78733D01*
X81717Y78675D01*
X81662Y78620D01*
X81604Y78568D01*
X81544Y78518D01*
X81482Y78472D01*
X81417Y78428D01*
X81351Y78387D01*
X81282Y78350D01*
X81212Y78316D01*
X81140Y78285D01*
X81067Y78258D01*
X80993Y78234D01*
X80918Y78214D01*
X80842Y78198D01*
X80765Y78185D01*
X80688Y78175D01*
X80610Y78170D01*
X80532Y78168D01*
X80532Y78169D02*
X76440Y78169D01*
X76440Y78168D02*
X76360Y78170D01*
X76280Y78176D01*
X76200Y78186D01*
X76121Y78199D01*
X76042Y78217D01*
X75965Y78238D01*
X75889Y78264D01*
X75814Y78293D01*
X75740Y78325D01*
X75668Y78361D01*
X75598Y78401D01*
X75531Y78444D01*
X75465Y78490D01*
X75402Y78540D01*
X75341Y78592D01*
X75282Y78647D01*
X75227Y78706D01*
X75175Y78766D01*
X75125Y78830D01*
X75079Y78895D01*
X75036Y78963D01*
X74996Y79033D01*
X74960Y79105D01*
X74928Y79179D01*
X74899Y79253D01*
X74874Y79330D01*
X74852Y79407D01*
X74834Y79486D01*
X74821Y79565D01*
X74811Y79644D01*
X74805Y79725D01*
X74803Y79805D01*
X74803Y81442D01*
X80123Y84288D02*
X80034Y84290D01*
X79945Y84296D01*
X79856Y84306D01*
X79768Y84319D01*
X79680Y84336D01*
X79593Y84358D01*
X79508Y84383D01*
X79423Y84411D01*
X79340Y84444D01*
X79258Y84480D01*
X79178Y84519D01*
X79100Y84562D01*
X79024Y84608D01*
X78949Y84658D01*
X78877Y84711D01*
X78808Y84767D01*
X78741Y84826D01*
X78676Y84887D01*
X78615Y84952D01*
X78556Y85019D01*
X78500Y85088D01*
X78447Y85160D01*
X78397Y85235D01*
X78351Y85311D01*
X78308Y85389D01*
X78269Y85469D01*
X78233Y85551D01*
X78200Y85634D01*
X78172Y85719D01*
X78147Y85804D01*
X78125Y85891D01*
X78108Y85979D01*
X78095Y86067D01*
X78085Y86156D01*
X78079Y86245D01*
X78077Y86334D01*
X78079Y86423D01*
X78085Y86512D01*
X78095Y86601D01*
X78108Y86689D01*
X78125Y86777D01*
X78147Y86864D01*
X78172Y86949D01*
X78200Y87034D01*
X78233Y87117D01*
X78269Y87199D01*
X78308Y87279D01*
X78351Y87357D01*
X78397Y87433D01*
X78447Y87508D01*
X78500Y87580D01*
X78556Y87649D01*
X78615Y87716D01*
X78676Y87781D01*
X78741Y87842D01*
X78808Y87901D01*
X78877Y87957D01*
X78949Y88010D01*
X79024Y88060D01*
X79100Y88106D01*
X79178Y88149D01*
X79258Y88188D01*
X79340Y88224D01*
X79423Y88257D01*
X79508Y88285D01*
X79593Y88310D01*
X79680Y88332D01*
X79768Y88349D01*
X79856Y88362D01*
X79945Y88372D01*
X80034Y88378D01*
X80123Y88380D01*
X80212Y88378D01*
X80301Y88372D01*
X80390Y88362D01*
X80478Y88349D01*
X80566Y88332D01*
X80653Y88310D01*
X80738Y88285D01*
X80823Y88257D01*
X80906Y88224D01*
X80988Y88188D01*
X81068Y88149D01*
X81146Y88106D01*
X81222Y88060D01*
X81297Y88010D01*
X81369Y87957D01*
X81438Y87901D01*
X81505Y87842D01*
X81570Y87781D01*
X81631Y87716D01*
X81690Y87649D01*
X81746Y87580D01*
X81799Y87508D01*
X81849Y87433D01*
X81895Y87357D01*
X81938Y87279D01*
X81977Y87199D01*
X82013Y87117D01*
X82046Y87034D01*
X82074Y86949D01*
X82099Y86864D01*
X82121Y86777D01*
X82138Y86689D01*
X82151Y86601D01*
X82161Y86512D01*
X82167Y86423D01*
X82169Y86334D01*
X82167Y86245D01*
X82161Y86156D01*
X82151Y86067D01*
X82138Y85979D01*
X82121Y85891D01*
X82099Y85804D01*
X82074Y85719D01*
X82046Y85634D01*
X82013Y85551D01*
X81977Y85469D01*
X81938Y85389D01*
X81895Y85311D01*
X81849Y85235D01*
X81799Y85160D01*
X81746Y85088D01*
X81690Y85019D01*
X81631Y84952D01*
X81570Y84887D01*
X81505Y84826D01*
X81438Y84767D01*
X81369Y84711D01*
X81297Y84658D01*
X81222Y84608D01*
X81146Y84562D01*
X81068Y84519D01*
X80988Y84480D01*
X80906Y84444D01*
X80823Y84411D01*
X80738Y84383D01*
X80653Y84358D01*
X80566Y84336D01*
X80478Y84319D01*
X80390Y84306D01*
X80301Y84296D01*
X80212Y84290D01*
X80123Y84288D01*
X76440Y84697D02*
X76361Y84699D01*
X76282Y84705D01*
X76203Y84714D01*
X76125Y84727D01*
X76048Y84745D01*
X75972Y84765D01*
X75897Y84790D01*
X75823Y84818D01*
X75750Y84849D01*
X75679Y84885D01*
X75610Y84923D01*
X75543Y84965D01*
X75478Y85010D01*
X75415Y85058D01*
X75354Y85109D01*
X75297Y85163D01*
X75241Y85219D01*
X75189Y85278D01*
X75139Y85340D01*
X75093Y85404D01*
X75049Y85470D01*
X75009Y85538D01*
X74973Y85608D01*
X74939Y85680D01*
X74909Y85754D01*
X74883Y85828D01*
X74860Y85904D01*
X74842Y85981D01*
X74826Y86058D01*
X74815Y86137D01*
X74807Y86215D01*
X74803Y86294D01*
X74803Y86374D01*
X74807Y86453D01*
X74815Y86531D01*
X74826Y86610D01*
X74842Y86687D01*
X74860Y86764D01*
X74883Y86840D01*
X74909Y86914D01*
X74939Y86988D01*
X74973Y87060D01*
X75009Y87130D01*
X75049Y87198D01*
X75093Y87264D01*
X75139Y87328D01*
X75189Y87390D01*
X75241Y87449D01*
X75297Y87505D01*
X75354Y87559D01*
X75415Y87610D01*
X75478Y87658D01*
X75543Y87703D01*
X75610Y87745D01*
X75679Y87783D01*
X75750Y87819D01*
X75823Y87850D01*
X75897Y87878D01*
X75972Y87903D01*
X76048Y87923D01*
X76125Y87941D01*
X76203Y87954D01*
X76282Y87963D01*
X76361Y87969D01*
X76440Y87971D01*
X76519Y87969D01*
X76598Y87963D01*
X76677Y87954D01*
X76755Y87941D01*
X76832Y87923D01*
X76908Y87903D01*
X76983Y87878D01*
X77057Y87850D01*
X77130Y87819D01*
X77201Y87783D01*
X77270Y87745D01*
X77337Y87703D01*
X77402Y87658D01*
X77465Y87610D01*
X77526Y87559D01*
X77583Y87505D01*
X77639Y87449D01*
X77691Y87390D01*
X77741Y87328D01*
X77787Y87264D01*
X77831Y87198D01*
X77871Y87130D01*
X77907Y87060D01*
X77941Y86988D01*
X77971Y86914D01*
X77997Y86840D01*
X78020Y86764D01*
X78038Y86687D01*
X78054Y86610D01*
X78065Y86531D01*
X78073Y86453D01*
X78077Y86374D01*
X78077Y86294D01*
X78073Y86215D01*
X78065Y86137D01*
X78054Y86058D01*
X78038Y85981D01*
X78020Y85904D01*
X77997Y85828D01*
X77971Y85754D01*
X77941Y85680D01*
X77907Y85608D01*
X77871Y85538D01*
X77831Y85470D01*
X77787Y85404D01*
X77741Y85340D01*
X77691Y85278D01*
X77639Y85219D01*
X77583Y85163D01*
X77526Y85109D01*
X77465Y85058D01*
X77402Y85010D01*
X77337Y84965D01*
X77270Y84923D01*
X77201Y84885D01*
X77130Y84849D01*
X77057Y84818D01*
X76983Y84790D01*
X76908Y84765D01*
X76832Y84745D01*
X76755Y84727D01*
X76677Y84714D01*
X76598Y84705D01*
X76519Y84699D01*
X76440Y84697D01*
D123*
X66675Y104648D02*
X66675Y111252D01*
D124*
X69469Y81442D02*
X69469Y79805D01*
X69467Y79727D01*
X69462Y79649D01*
X69452Y79572D01*
X69439Y79495D01*
X69423Y79419D01*
X69403Y79344D01*
X69379Y79270D01*
X69352Y79197D01*
X69321Y79125D01*
X69287Y79055D01*
X69250Y78987D01*
X69209Y78920D01*
X69165Y78855D01*
X69119Y78793D01*
X69069Y78733D01*
X69017Y78675D01*
X68962Y78620D01*
X68904Y78568D01*
X68844Y78518D01*
X68782Y78472D01*
X68717Y78428D01*
X68651Y78387D01*
X68582Y78350D01*
X68512Y78316D01*
X68440Y78285D01*
X68367Y78258D01*
X68293Y78234D01*
X68218Y78214D01*
X68142Y78198D01*
X68065Y78185D01*
X67988Y78175D01*
X67910Y78170D01*
X67832Y78168D01*
X67832Y78169D02*
X63740Y78169D01*
X63740Y78168D02*
X63660Y78170D01*
X63580Y78176D01*
X63500Y78186D01*
X63421Y78199D01*
X63342Y78217D01*
X63265Y78238D01*
X63189Y78264D01*
X63114Y78293D01*
X63040Y78325D01*
X62968Y78361D01*
X62898Y78401D01*
X62831Y78444D01*
X62765Y78490D01*
X62702Y78540D01*
X62641Y78592D01*
X62582Y78647D01*
X62527Y78706D01*
X62475Y78766D01*
X62425Y78830D01*
X62379Y78895D01*
X62336Y78963D01*
X62296Y79033D01*
X62260Y79105D01*
X62228Y79179D01*
X62199Y79253D01*
X62174Y79330D01*
X62152Y79407D01*
X62134Y79486D01*
X62121Y79565D01*
X62111Y79644D01*
X62105Y79725D01*
X62103Y79805D01*
X62103Y81442D01*
X66195Y85924D02*
X66195Y88380D01*
X66195Y85924D02*
X66193Y85846D01*
X66188Y85768D01*
X66178Y85691D01*
X66165Y85614D01*
X66149Y85538D01*
X66129Y85463D01*
X66105Y85389D01*
X66078Y85316D01*
X66047Y85244D01*
X66013Y85174D01*
X65976Y85106D01*
X65935Y85039D01*
X65891Y84974D01*
X65845Y84912D01*
X65795Y84852D01*
X65743Y84794D01*
X65688Y84739D01*
X65630Y84687D01*
X65570Y84637D01*
X65508Y84591D01*
X65443Y84547D01*
X65377Y84506D01*
X65308Y84469D01*
X65238Y84435D01*
X65166Y84404D01*
X65093Y84377D01*
X65019Y84353D01*
X64944Y84333D01*
X64868Y84317D01*
X64791Y84304D01*
X64714Y84294D01*
X64636Y84289D01*
X64558Y84287D01*
X64558Y84288D02*
X64149Y84288D01*
X64060Y84290D01*
X63971Y84296D01*
X63882Y84306D01*
X63794Y84319D01*
X63706Y84336D01*
X63619Y84358D01*
X63534Y84383D01*
X63449Y84411D01*
X63366Y84444D01*
X63284Y84480D01*
X63204Y84519D01*
X63126Y84562D01*
X63050Y84608D01*
X62975Y84658D01*
X62903Y84711D01*
X62834Y84767D01*
X62767Y84826D01*
X62702Y84887D01*
X62641Y84952D01*
X62582Y85019D01*
X62526Y85088D01*
X62473Y85160D01*
X62423Y85235D01*
X62377Y85311D01*
X62334Y85389D01*
X62295Y85469D01*
X62259Y85551D01*
X62226Y85634D01*
X62198Y85719D01*
X62173Y85804D01*
X62151Y85891D01*
X62134Y85979D01*
X62121Y86067D01*
X62111Y86156D01*
X62105Y86245D01*
X62103Y86334D01*
X62105Y86423D01*
X62111Y86512D01*
X62121Y86601D01*
X62134Y86689D01*
X62151Y86777D01*
X62173Y86864D01*
X62198Y86949D01*
X62226Y87034D01*
X62259Y87117D01*
X62295Y87199D01*
X62334Y87279D01*
X62377Y87357D01*
X62423Y87433D01*
X62473Y87508D01*
X62526Y87580D01*
X62582Y87649D01*
X62641Y87716D01*
X62702Y87781D01*
X62767Y87842D01*
X62834Y87901D01*
X62903Y87957D01*
X62975Y88010D01*
X63050Y88060D01*
X63126Y88106D01*
X63204Y88149D01*
X63284Y88188D01*
X63366Y88224D01*
X63449Y88257D01*
X63534Y88285D01*
X63619Y88310D01*
X63706Y88332D01*
X63794Y88349D01*
X63882Y88362D01*
X63971Y88372D01*
X64060Y88378D01*
X64149Y88380D01*
X66195Y88380D01*
X66307Y88378D01*
X66418Y88372D01*
X66530Y88363D01*
X66641Y88350D01*
X66751Y88332D01*
X66861Y88312D01*
X66970Y88287D01*
X67078Y88259D01*
X67185Y88227D01*
X67291Y88191D01*
X67396Y88152D01*
X67499Y88109D01*
X67601Y88063D01*
X67701Y88013D01*
X67800Y87960D01*
X67896Y87903D01*
X67991Y87844D01*
X68083Y87781D01*
X68173Y87715D01*
X68261Y87646D01*
X68347Y87574D01*
X68430Y87499D01*
X68510Y87421D01*
X68588Y87341D01*
X68663Y87258D01*
X68735Y87172D01*
X68804Y87084D01*
X68870Y86994D01*
X68933Y86902D01*
X68992Y86807D01*
X69049Y86711D01*
X69102Y86612D01*
X69152Y86512D01*
X69198Y86410D01*
X69241Y86307D01*
X69280Y86202D01*
X69316Y86096D01*
X69348Y85989D01*
X69376Y85881D01*
X69401Y85772D01*
X69421Y85662D01*
X69439Y85552D01*
X69452Y85441D01*
X69461Y85329D01*
X69467Y85218D01*
X69469Y85106D01*
D123*
X-26988Y84265D02*
X-26988Y77661D01*
D124*
X-21019Y48105D02*
X-21019Y46468D01*
X-21018Y46468D02*
X-21020Y46390D01*
X-21025Y46312D01*
X-21035Y46235D01*
X-21048Y46158D01*
X-21064Y46082D01*
X-21084Y46007D01*
X-21108Y45933D01*
X-21135Y45860D01*
X-21166Y45788D01*
X-21200Y45718D01*
X-21237Y45650D01*
X-21278Y45583D01*
X-21322Y45518D01*
X-21368Y45456D01*
X-21418Y45396D01*
X-21470Y45338D01*
X-21525Y45283D01*
X-21583Y45231D01*
X-21643Y45181D01*
X-21705Y45135D01*
X-21770Y45091D01*
X-21836Y45050D01*
X-21905Y45013D01*
X-21975Y44979D01*
X-22047Y44948D01*
X-22120Y44921D01*
X-22194Y44897D01*
X-22269Y44877D01*
X-22345Y44861D01*
X-22422Y44848D01*
X-22499Y44838D01*
X-22577Y44833D01*
X-22655Y44831D01*
X-26748Y44831D01*
X-26826Y44833D01*
X-26904Y44838D01*
X-26981Y44848D01*
X-27058Y44861D01*
X-27134Y44877D01*
X-27209Y44897D01*
X-27283Y44921D01*
X-27356Y44948D01*
X-27428Y44979D01*
X-27498Y45013D01*
X-27567Y45050D01*
X-27633Y45091D01*
X-27698Y45135D01*
X-27760Y45181D01*
X-27820Y45231D01*
X-27878Y45283D01*
X-27933Y45338D01*
X-27985Y45396D01*
X-28035Y45456D01*
X-28081Y45518D01*
X-28125Y45583D01*
X-28166Y45650D01*
X-28203Y45718D01*
X-28237Y45788D01*
X-28268Y45860D01*
X-28295Y45933D01*
X-28319Y46007D01*
X-28339Y46082D01*
X-28355Y46158D01*
X-28368Y46235D01*
X-28378Y46312D01*
X-28383Y46390D01*
X-28385Y46468D01*
X-28385Y48105D01*
X-26748Y50950D02*
X-28385Y52996D01*
X-21019Y52996D01*
X-21019Y50950D02*
X-21019Y55042D01*
X-25111Y58265D02*
X-25111Y60721D01*
X-25109Y60799D01*
X-25104Y60877D01*
X-25094Y60954D01*
X-25081Y61031D01*
X-25065Y61107D01*
X-25045Y61182D01*
X-25021Y61256D01*
X-24994Y61329D01*
X-24963Y61401D01*
X-24929Y61471D01*
X-24892Y61540D01*
X-24851Y61606D01*
X-24807Y61671D01*
X-24761Y61733D01*
X-24711Y61793D01*
X-24659Y61851D01*
X-24604Y61906D01*
X-24546Y61958D01*
X-24486Y62008D01*
X-24424Y62054D01*
X-24359Y62098D01*
X-24293Y62139D01*
X-24224Y62176D01*
X-24154Y62210D01*
X-24082Y62241D01*
X-24009Y62268D01*
X-23935Y62292D01*
X-23860Y62312D01*
X-23784Y62328D01*
X-23707Y62341D01*
X-23630Y62351D01*
X-23552Y62356D01*
X-23474Y62358D01*
X-23065Y62358D01*
X-23065Y62357D02*
X-22976Y62355D01*
X-22887Y62349D01*
X-22798Y62339D01*
X-22710Y62326D01*
X-22622Y62309D01*
X-22535Y62287D01*
X-22450Y62262D01*
X-22365Y62234D01*
X-22282Y62201D01*
X-22200Y62165D01*
X-22120Y62126D01*
X-22042Y62083D01*
X-21966Y62037D01*
X-21891Y61987D01*
X-21819Y61934D01*
X-21750Y61878D01*
X-21683Y61819D01*
X-21618Y61758D01*
X-21557Y61693D01*
X-21498Y61626D01*
X-21442Y61557D01*
X-21389Y61485D01*
X-21339Y61410D01*
X-21293Y61334D01*
X-21250Y61256D01*
X-21211Y61176D01*
X-21175Y61094D01*
X-21142Y61011D01*
X-21114Y60926D01*
X-21089Y60841D01*
X-21067Y60754D01*
X-21050Y60666D01*
X-21037Y60578D01*
X-21027Y60489D01*
X-21021Y60400D01*
X-21019Y60311D01*
X-21021Y60222D01*
X-21027Y60133D01*
X-21037Y60044D01*
X-21050Y59956D01*
X-21067Y59868D01*
X-21089Y59781D01*
X-21114Y59696D01*
X-21142Y59611D01*
X-21175Y59528D01*
X-21211Y59446D01*
X-21250Y59366D01*
X-21293Y59288D01*
X-21339Y59212D01*
X-21389Y59137D01*
X-21442Y59065D01*
X-21498Y58996D01*
X-21557Y58929D01*
X-21618Y58864D01*
X-21683Y58803D01*
X-21750Y58744D01*
X-21819Y58688D01*
X-21891Y58635D01*
X-21966Y58585D01*
X-22042Y58539D01*
X-22120Y58496D01*
X-22200Y58457D01*
X-22282Y58421D01*
X-22365Y58388D01*
X-22450Y58360D01*
X-22535Y58335D01*
X-22622Y58313D01*
X-22710Y58296D01*
X-22798Y58283D01*
X-22887Y58273D01*
X-22976Y58267D01*
X-23065Y58265D01*
X-25111Y58265D01*
X-25225Y58267D01*
X-25339Y58273D01*
X-25453Y58283D01*
X-25567Y58297D01*
X-25680Y58315D01*
X-25792Y58337D01*
X-25903Y58362D01*
X-26013Y58392D01*
X-26123Y58425D01*
X-26231Y58462D01*
X-26337Y58503D01*
X-26443Y58548D01*
X-26546Y58596D01*
X-26648Y58648D01*
X-26748Y58704D01*
X-26846Y58762D01*
X-26942Y58825D01*
X-27035Y58890D01*
X-27127Y58959D01*
X-27215Y59031D01*
X-27302Y59106D01*
X-27385Y59184D01*
X-27466Y59265D01*
X-27544Y59348D01*
X-27619Y59435D01*
X-27691Y59523D01*
X-27760Y59615D01*
X-27825Y59708D01*
X-27887Y59804D01*
X-27946Y59902D01*
X-28002Y60002D01*
X-28054Y60104D01*
X-28102Y60207D01*
X-28147Y60313D01*
X-28188Y60419D01*
X-28225Y60527D01*
X-28258Y60637D01*
X-28288Y60747D01*
X-28313Y60858D01*
X-28335Y60970D01*
X-28353Y61083D01*
X-28367Y61197D01*
X-28377Y61311D01*
X-28383Y61425D01*
X-28385Y61539D01*
D123*
X-36513Y77661D02*
X-36513Y84265D01*
D124*
X-32131Y48105D02*
X-32131Y46468D01*
X-32133Y46390D01*
X-32138Y46312D01*
X-32148Y46235D01*
X-32161Y46158D01*
X-32177Y46082D01*
X-32197Y46007D01*
X-32221Y45933D01*
X-32248Y45860D01*
X-32279Y45788D01*
X-32313Y45718D01*
X-32350Y45650D01*
X-32391Y45583D01*
X-32435Y45518D01*
X-32481Y45456D01*
X-32531Y45396D01*
X-32583Y45338D01*
X-32638Y45283D01*
X-32696Y45231D01*
X-32756Y45181D01*
X-32818Y45135D01*
X-32883Y45091D01*
X-32949Y45050D01*
X-33018Y45013D01*
X-33088Y44979D01*
X-33160Y44948D01*
X-33233Y44921D01*
X-33307Y44897D01*
X-33382Y44877D01*
X-33458Y44861D01*
X-33535Y44848D01*
X-33612Y44838D01*
X-33690Y44833D01*
X-33768Y44831D01*
X-37860Y44831D01*
X-37938Y44833D01*
X-38016Y44838D01*
X-38093Y44848D01*
X-38170Y44861D01*
X-38246Y44877D01*
X-38321Y44897D01*
X-38395Y44921D01*
X-38468Y44948D01*
X-38540Y44979D01*
X-38610Y45013D01*
X-38679Y45050D01*
X-38745Y45091D01*
X-38810Y45135D01*
X-38872Y45181D01*
X-38932Y45231D01*
X-38990Y45283D01*
X-39045Y45338D01*
X-39097Y45396D01*
X-39147Y45456D01*
X-39193Y45518D01*
X-39237Y45583D01*
X-39278Y45650D01*
X-39315Y45718D01*
X-39349Y45788D01*
X-39380Y45860D01*
X-39407Y45933D01*
X-39431Y46007D01*
X-39451Y46082D01*
X-39467Y46158D01*
X-39480Y46235D01*
X-39490Y46312D01*
X-39495Y46390D01*
X-39497Y46468D01*
X-39497Y48105D01*
X-37860Y50950D02*
X-39497Y52996D01*
X-32131Y52996D01*
X-32131Y50950D02*
X-32131Y55042D01*
X-35405Y59902D02*
X-35405Y62358D01*
X-35405Y59902D02*
X-35407Y59824D01*
X-35412Y59746D01*
X-35422Y59669D01*
X-35435Y59592D01*
X-35451Y59516D01*
X-35471Y59441D01*
X-35495Y59367D01*
X-35522Y59294D01*
X-35553Y59222D01*
X-35587Y59152D01*
X-35624Y59083D01*
X-35665Y59017D01*
X-35709Y58952D01*
X-35755Y58890D01*
X-35805Y58830D01*
X-35857Y58772D01*
X-35912Y58717D01*
X-35970Y58665D01*
X-36030Y58615D01*
X-36092Y58569D01*
X-36157Y58525D01*
X-36224Y58484D01*
X-36292Y58447D01*
X-36362Y58413D01*
X-36434Y58382D01*
X-36507Y58355D01*
X-36581Y58331D01*
X-36656Y58311D01*
X-36732Y58295D01*
X-36809Y58282D01*
X-36886Y58272D01*
X-36964Y58267D01*
X-37042Y58265D01*
X-37451Y58265D01*
X-37540Y58267D01*
X-37629Y58273D01*
X-37718Y58283D01*
X-37806Y58296D01*
X-37894Y58313D01*
X-37981Y58335D01*
X-38066Y58360D01*
X-38151Y58388D01*
X-38234Y58421D01*
X-38316Y58457D01*
X-38396Y58496D01*
X-38474Y58539D01*
X-38550Y58585D01*
X-38625Y58635D01*
X-38697Y58688D01*
X-38766Y58744D01*
X-38833Y58803D01*
X-38898Y58864D01*
X-38959Y58929D01*
X-39018Y58996D01*
X-39074Y59065D01*
X-39127Y59137D01*
X-39177Y59212D01*
X-39223Y59288D01*
X-39266Y59366D01*
X-39305Y59446D01*
X-39341Y59528D01*
X-39374Y59611D01*
X-39402Y59696D01*
X-39427Y59781D01*
X-39449Y59868D01*
X-39466Y59956D01*
X-39479Y60044D01*
X-39489Y60133D01*
X-39495Y60222D01*
X-39497Y60311D01*
X-39495Y60400D01*
X-39489Y60489D01*
X-39479Y60578D01*
X-39466Y60666D01*
X-39449Y60754D01*
X-39427Y60841D01*
X-39402Y60926D01*
X-39374Y61011D01*
X-39341Y61094D01*
X-39305Y61176D01*
X-39266Y61256D01*
X-39223Y61334D01*
X-39177Y61410D01*
X-39127Y61485D01*
X-39074Y61557D01*
X-39018Y61626D01*
X-38959Y61693D01*
X-38898Y61758D01*
X-38833Y61819D01*
X-38766Y61878D01*
X-38697Y61934D01*
X-38625Y61987D01*
X-38550Y62037D01*
X-38474Y62083D01*
X-38396Y62126D01*
X-38316Y62165D01*
X-38234Y62201D01*
X-38151Y62234D01*
X-38066Y62262D01*
X-37981Y62287D01*
X-37894Y62309D01*
X-37806Y62326D01*
X-37718Y62339D01*
X-37629Y62349D01*
X-37540Y62355D01*
X-37451Y62357D01*
X-37451Y62358D02*
X-35405Y62358D01*
X-35293Y62356D01*
X-35182Y62350D01*
X-35070Y62341D01*
X-34959Y62328D01*
X-34849Y62310D01*
X-34739Y62290D01*
X-34630Y62265D01*
X-34522Y62237D01*
X-34415Y62205D01*
X-34309Y62169D01*
X-34204Y62130D01*
X-34101Y62087D01*
X-33999Y62041D01*
X-33899Y61991D01*
X-33800Y61938D01*
X-33704Y61881D01*
X-33609Y61822D01*
X-33517Y61759D01*
X-33427Y61693D01*
X-33339Y61624D01*
X-33253Y61552D01*
X-33170Y61477D01*
X-33090Y61399D01*
X-33012Y61319D01*
X-32937Y61236D01*
X-32865Y61150D01*
X-32796Y61062D01*
X-32730Y60972D01*
X-32667Y60880D01*
X-32608Y60785D01*
X-32551Y60689D01*
X-32498Y60590D01*
X-32448Y60490D01*
X-32402Y60388D01*
X-32359Y60285D01*
X-32320Y60180D01*
X-32284Y60074D01*
X-32252Y59967D01*
X-32224Y59859D01*
X-32199Y59750D01*
X-32179Y59640D01*
X-32161Y59530D01*
X-32148Y59419D01*
X-32139Y59307D01*
X-32133Y59196D01*
X-32131Y59084D01*
M02*
