G04 EAGLE Gerber RS-274X export*
G75*
%MOMM*%
%FSLAX34Y34*%
%LPD*%
%INSilkscreen Bottom*%
%IPPOS*%
%AMOC8*
5,1,8,0,0,1.08239X$1,22.5*%
G01*
%ADD10C,0.152400*%
%ADD11C,0.101600*%
%ADD12C,0.127000*%
%ADD13C,0.076200*%
%ADD14C,0.254000*%
%ADD15C,0.150000*%
%ADD16C,0.600000*%
%ADD17C,0.250000*%


D10*
X172776Y504070D02*
X167837Y504070D01*
X167697Y504068D01*
X167558Y504062D01*
X167418Y504052D01*
X167279Y504038D01*
X167140Y504021D01*
X167002Y503999D01*
X166865Y503973D01*
X166728Y503944D01*
X166592Y503911D01*
X166458Y503874D01*
X166324Y503833D01*
X166192Y503788D01*
X166060Y503739D01*
X165931Y503687D01*
X165803Y503632D01*
X165676Y503572D01*
X165551Y503509D01*
X165428Y503443D01*
X165307Y503373D01*
X165188Y503300D01*
X165071Y503223D01*
X164957Y503143D01*
X164844Y503060D01*
X164734Y502974D01*
X164627Y502884D01*
X164522Y502792D01*
X164420Y502697D01*
X164320Y502599D01*
X164223Y502498D01*
X164129Y502394D01*
X164039Y502288D01*
X163951Y502179D01*
X163866Y502068D01*
X163785Y501954D01*
X163706Y501839D01*
X163631Y501721D01*
X163560Y501601D01*
X163492Y501478D01*
X163427Y501355D01*
X163366Y501229D01*
X163308Y501101D01*
X163254Y500973D01*
X163204Y500842D01*
X163157Y500710D01*
X163114Y500577D01*
X163075Y500443D01*
X163040Y500308D01*
X163009Y500172D01*
X162981Y500034D01*
X162958Y499897D01*
X162938Y499758D01*
X162922Y499619D01*
X162910Y499480D01*
X162902Y499341D01*
X162898Y499201D01*
X162898Y499061D01*
X162902Y498921D01*
X162910Y498782D01*
X162922Y498643D01*
X162938Y498504D01*
X162958Y498365D01*
X162981Y498228D01*
X163009Y498090D01*
X163040Y497954D01*
X163075Y497819D01*
X163114Y497685D01*
X163157Y497552D01*
X163204Y497420D01*
X163254Y497289D01*
X163308Y497161D01*
X163366Y497033D01*
X163427Y496907D01*
X163492Y496784D01*
X163560Y496662D01*
X163631Y496541D01*
X163706Y496423D01*
X163785Y496308D01*
X163866Y496194D01*
X163951Y496083D01*
X164039Y495974D01*
X164129Y495868D01*
X164223Y495764D01*
X164320Y495663D01*
X164420Y495565D01*
X164522Y495470D01*
X164627Y495378D01*
X164734Y495288D01*
X164844Y495202D01*
X164957Y495119D01*
X165071Y495039D01*
X165188Y494962D01*
X165307Y494889D01*
X165428Y494819D01*
X165551Y494753D01*
X165676Y494690D01*
X165803Y494630D01*
X165931Y494575D01*
X166060Y494523D01*
X166192Y494474D01*
X166324Y494429D01*
X166458Y494388D01*
X166592Y494351D01*
X166728Y494318D01*
X166865Y494289D01*
X167002Y494263D01*
X167140Y494241D01*
X167279Y494224D01*
X167418Y494210D01*
X167558Y494200D01*
X167697Y494194D01*
X167837Y494192D01*
X167837Y494193D02*
X172776Y494193D01*
X172776Y511973D01*
X167837Y511973D01*
X167837Y511972D02*
X167713Y511970D01*
X167589Y511964D01*
X167465Y511954D01*
X167342Y511941D01*
X167219Y511923D01*
X167097Y511902D01*
X166975Y511877D01*
X166854Y511848D01*
X166735Y511815D01*
X166616Y511779D01*
X166499Y511738D01*
X166383Y511695D01*
X166268Y511647D01*
X166155Y511596D01*
X166043Y511541D01*
X165934Y511483D01*
X165826Y511422D01*
X165720Y511357D01*
X165616Y511289D01*
X165515Y511217D01*
X165415Y511143D01*
X165319Y511065D01*
X165224Y510985D01*
X165132Y510901D01*
X165043Y510815D01*
X164957Y510726D01*
X164873Y510634D01*
X164793Y510539D01*
X164715Y510443D01*
X164641Y510343D01*
X164569Y510242D01*
X164501Y510138D01*
X164436Y510032D01*
X164375Y509924D01*
X164317Y509815D01*
X164262Y509703D01*
X164211Y509590D01*
X164163Y509475D01*
X164120Y509359D01*
X164079Y509242D01*
X164043Y509123D01*
X164010Y509004D01*
X163981Y508883D01*
X163956Y508761D01*
X163935Y508639D01*
X163917Y508516D01*
X163904Y508393D01*
X163894Y508269D01*
X163888Y508145D01*
X163886Y508021D01*
X163888Y507897D01*
X163894Y507773D01*
X163904Y507649D01*
X163917Y507526D01*
X163935Y507403D01*
X163956Y507281D01*
X163981Y507159D01*
X164010Y507038D01*
X164043Y506919D01*
X164079Y506800D01*
X164120Y506683D01*
X164163Y506567D01*
X164211Y506452D01*
X164262Y506339D01*
X164317Y506227D01*
X164375Y506118D01*
X164436Y506010D01*
X164501Y505904D01*
X164569Y505800D01*
X164641Y505699D01*
X164715Y505599D01*
X164793Y505503D01*
X164873Y505408D01*
X164957Y505316D01*
X165043Y505227D01*
X165132Y505141D01*
X165224Y505057D01*
X165319Y504977D01*
X165415Y504899D01*
X165515Y504825D01*
X165616Y504753D01*
X165720Y504685D01*
X165826Y504620D01*
X165934Y504559D01*
X166043Y504501D01*
X166155Y504446D01*
X166268Y504395D01*
X166383Y504347D01*
X166499Y504304D01*
X166616Y504263D01*
X166735Y504227D01*
X166854Y504194D01*
X166975Y504165D01*
X167097Y504140D01*
X167219Y504119D01*
X167342Y504101D01*
X167465Y504088D01*
X167589Y504078D01*
X167713Y504072D01*
X167837Y504070D01*
X350492Y288991D02*
X350492Y271211D01*
X350492Y288991D02*
X345553Y288991D01*
X345413Y288989D01*
X345274Y288983D01*
X345134Y288973D01*
X344995Y288959D01*
X344856Y288942D01*
X344718Y288920D01*
X344581Y288894D01*
X344444Y288865D01*
X344308Y288832D01*
X344174Y288795D01*
X344040Y288754D01*
X343908Y288709D01*
X343776Y288660D01*
X343647Y288608D01*
X343519Y288553D01*
X343392Y288493D01*
X343267Y288430D01*
X343144Y288364D01*
X343023Y288294D01*
X342904Y288221D01*
X342787Y288144D01*
X342673Y288064D01*
X342560Y287981D01*
X342450Y287895D01*
X342343Y287805D01*
X342238Y287713D01*
X342136Y287618D01*
X342036Y287520D01*
X341939Y287419D01*
X341845Y287315D01*
X341755Y287209D01*
X341667Y287100D01*
X341582Y286989D01*
X341501Y286875D01*
X341422Y286760D01*
X341347Y286642D01*
X341276Y286522D01*
X341208Y286399D01*
X341143Y286276D01*
X341082Y286150D01*
X341024Y286022D01*
X340970Y285894D01*
X340920Y285763D01*
X340873Y285631D01*
X340830Y285498D01*
X340791Y285364D01*
X340756Y285229D01*
X340725Y285093D01*
X340697Y284955D01*
X340674Y284818D01*
X340654Y284679D01*
X340638Y284540D01*
X340626Y284401D01*
X340618Y284262D01*
X340614Y284122D01*
X340614Y283982D01*
X340618Y283842D01*
X340626Y283703D01*
X340638Y283564D01*
X340654Y283425D01*
X340674Y283286D01*
X340697Y283149D01*
X340725Y283011D01*
X340756Y282875D01*
X340791Y282740D01*
X340830Y282606D01*
X340873Y282473D01*
X340920Y282341D01*
X340970Y282210D01*
X341024Y282082D01*
X341082Y281954D01*
X341143Y281828D01*
X341208Y281705D01*
X341276Y281583D01*
X341347Y281462D01*
X341422Y281344D01*
X341501Y281229D01*
X341582Y281115D01*
X341667Y281004D01*
X341755Y280895D01*
X341845Y280789D01*
X341939Y280685D01*
X342036Y280584D01*
X342136Y280486D01*
X342238Y280391D01*
X342343Y280299D01*
X342450Y280209D01*
X342560Y280123D01*
X342673Y280040D01*
X342787Y279960D01*
X342904Y279883D01*
X343023Y279810D01*
X343144Y279740D01*
X343267Y279674D01*
X343392Y279611D01*
X343519Y279551D01*
X343647Y279496D01*
X343776Y279444D01*
X343908Y279395D01*
X344040Y279350D01*
X344174Y279309D01*
X344308Y279272D01*
X344444Y279239D01*
X344581Y279210D01*
X344718Y279184D01*
X344856Y279162D01*
X344995Y279145D01*
X345134Y279131D01*
X345274Y279121D01*
X345413Y279115D01*
X345553Y279113D01*
X350492Y279113D01*
X344565Y279113D02*
X340614Y271211D01*
X195290Y434835D02*
X195290Y452615D01*
X190352Y452615D01*
X190213Y452613D01*
X190075Y452607D01*
X189937Y452598D01*
X189799Y452584D01*
X189662Y452567D01*
X189525Y452545D01*
X189388Y452520D01*
X189253Y452491D01*
X189118Y452458D01*
X188985Y452422D01*
X188852Y452382D01*
X188721Y452338D01*
X188591Y452290D01*
X188462Y452239D01*
X188335Y452184D01*
X188209Y452126D01*
X188085Y452064D01*
X187963Y451999D01*
X187843Y451930D01*
X187724Y451858D01*
X187608Y451783D01*
X187494Y451704D01*
X187382Y451622D01*
X187273Y451537D01*
X187165Y451450D01*
X187061Y451359D01*
X186959Y451265D01*
X186860Y451168D01*
X186763Y451069D01*
X186669Y450967D01*
X186578Y450863D01*
X186491Y450755D01*
X186406Y450646D01*
X186324Y450534D01*
X186245Y450420D01*
X186170Y450304D01*
X186098Y450185D01*
X186029Y450065D01*
X185964Y449943D01*
X185902Y449819D01*
X185844Y449693D01*
X185789Y449566D01*
X185738Y449437D01*
X185690Y449307D01*
X185646Y449176D01*
X185606Y449043D01*
X185570Y448910D01*
X185537Y448775D01*
X185508Y448640D01*
X185483Y448503D01*
X185461Y448366D01*
X185444Y448229D01*
X185430Y448091D01*
X185421Y447953D01*
X185415Y447815D01*
X185413Y447676D01*
X185413Y439774D01*
X185415Y439635D01*
X185421Y439497D01*
X185430Y439359D01*
X185444Y439221D01*
X185461Y439084D01*
X185483Y438947D01*
X185508Y438810D01*
X185537Y438675D01*
X185570Y438540D01*
X185606Y438407D01*
X185646Y438274D01*
X185690Y438143D01*
X185738Y438013D01*
X185789Y437884D01*
X185844Y437757D01*
X185902Y437631D01*
X185964Y437507D01*
X186029Y437385D01*
X186098Y437265D01*
X186170Y437146D01*
X186245Y437030D01*
X186324Y436916D01*
X186406Y436804D01*
X186491Y436695D01*
X186578Y436587D01*
X186669Y436483D01*
X186763Y436381D01*
X186860Y436282D01*
X186959Y436185D01*
X187061Y436091D01*
X187165Y436000D01*
X187273Y435913D01*
X187382Y435828D01*
X187494Y435746D01*
X187608Y435667D01*
X187724Y435592D01*
X187843Y435520D01*
X187963Y435451D01*
X188085Y435386D01*
X188209Y435324D01*
X188335Y435266D01*
X188462Y435211D01*
X188591Y435160D01*
X188721Y435112D01*
X188852Y435068D01*
X188985Y435028D01*
X189118Y434992D01*
X189253Y434959D01*
X189388Y434930D01*
X189525Y434905D01*
X189662Y434883D01*
X189799Y434866D01*
X189937Y434852D01*
X190075Y434843D01*
X190213Y434837D01*
X190352Y434835D01*
X195290Y434835D01*
X133201Y437853D02*
X129250Y437853D01*
X133201Y437853D02*
X133325Y437855D01*
X133449Y437861D01*
X133573Y437871D01*
X133696Y437884D01*
X133819Y437902D01*
X133941Y437923D01*
X134063Y437948D01*
X134184Y437977D01*
X134303Y438010D01*
X134422Y438046D01*
X134539Y438087D01*
X134655Y438130D01*
X134770Y438178D01*
X134883Y438229D01*
X134995Y438284D01*
X135104Y438342D01*
X135212Y438403D01*
X135318Y438468D01*
X135422Y438536D01*
X135523Y438608D01*
X135623Y438682D01*
X135719Y438760D01*
X135814Y438840D01*
X135906Y438924D01*
X135995Y439010D01*
X136081Y439099D01*
X136165Y439191D01*
X136245Y439286D01*
X136323Y439382D01*
X136397Y439482D01*
X136469Y439583D01*
X136537Y439687D01*
X136602Y439793D01*
X136663Y439901D01*
X136721Y440010D01*
X136776Y440122D01*
X136827Y440235D01*
X136875Y440350D01*
X136918Y440466D01*
X136959Y440583D01*
X136995Y440702D01*
X137028Y440821D01*
X137057Y440942D01*
X137082Y441064D01*
X137103Y441186D01*
X137121Y441309D01*
X137134Y441432D01*
X137144Y441556D01*
X137150Y441680D01*
X137152Y441804D01*
X137152Y451682D01*
X137150Y451806D01*
X137144Y451930D01*
X137134Y452054D01*
X137121Y452177D01*
X137103Y452300D01*
X137082Y452422D01*
X137057Y452544D01*
X137028Y452665D01*
X136995Y452784D01*
X136959Y452903D01*
X136918Y453020D01*
X136875Y453136D01*
X136827Y453251D01*
X136776Y453364D01*
X136721Y453476D01*
X136663Y453585D01*
X136602Y453693D01*
X136537Y453799D01*
X136469Y453903D01*
X136397Y454004D01*
X136323Y454104D01*
X136245Y454200D01*
X136165Y454295D01*
X136081Y454387D01*
X135995Y454476D01*
X135906Y454562D01*
X135814Y454646D01*
X135719Y454726D01*
X135623Y454804D01*
X135523Y454878D01*
X135422Y454950D01*
X135318Y455018D01*
X135212Y455083D01*
X135104Y455144D01*
X134995Y455202D01*
X134883Y455257D01*
X134770Y455308D01*
X134656Y455356D01*
X134539Y455399D01*
X134422Y455440D01*
X134303Y455476D01*
X134184Y455509D01*
X134063Y455538D01*
X133941Y455563D01*
X133819Y455584D01*
X133696Y455602D01*
X133573Y455615D01*
X133449Y455625D01*
X133325Y455631D01*
X133201Y455633D01*
X129250Y455633D01*
D11*
X88189Y243274D02*
X88189Y241326D01*
X88189Y243274D02*
X81698Y243274D01*
X81698Y239379D01*
X81700Y239280D01*
X81706Y239180D01*
X81715Y239081D01*
X81728Y238983D01*
X81745Y238885D01*
X81766Y238787D01*
X81791Y238691D01*
X81819Y238596D01*
X81851Y238502D01*
X81886Y238409D01*
X81925Y238317D01*
X81968Y238227D01*
X82013Y238139D01*
X82063Y238052D01*
X82115Y237968D01*
X82171Y237885D01*
X82229Y237805D01*
X82291Y237727D01*
X82356Y237652D01*
X82424Y237579D01*
X82494Y237509D01*
X82567Y237441D01*
X82642Y237376D01*
X82720Y237314D01*
X82800Y237256D01*
X82883Y237200D01*
X82967Y237148D01*
X83054Y237098D01*
X83142Y237053D01*
X83232Y237010D01*
X83324Y236971D01*
X83417Y236936D01*
X83511Y236904D01*
X83606Y236876D01*
X83702Y236851D01*
X83800Y236830D01*
X83898Y236813D01*
X83996Y236800D01*
X84095Y236791D01*
X84195Y236785D01*
X84294Y236783D01*
X90786Y236783D01*
X90885Y236785D01*
X90985Y236791D01*
X91084Y236800D01*
X91182Y236813D01*
X91280Y236830D01*
X91378Y236851D01*
X91474Y236876D01*
X91569Y236904D01*
X91663Y236936D01*
X91756Y236971D01*
X91848Y237010D01*
X91938Y237053D01*
X92026Y237098D01*
X92113Y237148D01*
X92197Y237200D01*
X92280Y237256D01*
X92360Y237314D01*
X92438Y237376D01*
X92513Y237441D01*
X92586Y237509D01*
X92656Y237579D01*
X92724Y237652D01*
X92789Y237727D01*
X92851Y237805D01*
X92909Y237885D01*
X92965Y237968D01*
X93017Y238052D01*
X93067Y238139D01*
X93112Y238227D01*
X93155Y238317D01*
X93194Y238409D01*
X93229Y238501D01*
X93261Y238596D01*
X93289Y238691D01*
X93314Y238787D01*
X93335Y238885D01*
X93352Y238983D01*
X93365Y239081D01*
X93374Y239180D01*
X93380Y239280D01*
X93382Y239379D01*
X93382Y243274D01*
X93382Y248974D02*
X81698Y248974D01*
X81698Y255466D02*
X93382Y248974D01*
X93382Y255466D02*
X81698Y255466D01*
X81698Y261166D02*
X93382Y261166D01*
X93382Y264412D01*
X93380Y264525D01*
X93374Y264638D01*
X93364Y264751D01*
X93350Y264864D01*
X93333Y264976D01*
X93311Y265087D01*
X93286Y265197D01*
X93256Y265307D01*
X93223Y265415D01*
X93186Y265522D01*
X93146Y265628D01*
X93101Y265732D01*
X93053Y265835D01*
X93002Y265936D01*
X92947Y266035D01*
X92889Y266132D01*
X92827Y266227D01*
X92762Y266320D01*
X92694Y266410D01*
X92623Y266498D01*
X92548Y266584D01*
X92471Y266667D01*
X92391Y266747D01*
X92308Y266824D01*
X92222Y266899D01*
X92134Y266970D01*
X92044Y267038D01*
X91951Y267103D01*
X91856Y267165D01*
X91759Y267223D01*
X91660Y267278D01*
X91559Y267329D01*
X91456Y267377D01*
X91352Y267422D01*
X91246Y267462D01*
X91139Y267499D01*
X91031Y267532D01*
X90921Y267562D01*
X90811Y267587D01*
X90700Y267609D01*
X90588Y267626D01*
X90475Y267640D01*
X90362Y267650D01*
X90249Y267656D01*
X90136Y267658D01*
X84944Y267658D01*
X84831Y267656D01*
X84718Y267650D01*
X84605Y267640D01*
X84492Y267626D01*
X84380Y267609D01*
X84269Y267587D01*
X84159Y267562D01*
X84049Y267532D01*
X83941Y267499D01*
X83834Y267462D01*
X83728Y267422D01*
X83624Y267377D01*
X83521Y267329D01*
X83420Y267278D01*
X83321Y267223D01*
X83224Y267165D01*
X83129Y267103D01*
X83036Y267038D01*
X82946Y266970D01*
X82858Y266899D01*
X82772Y266824D01*
X82689Y266747D01*
X82609Y266667D01*
X82532Y266584D01*
X82457Y266498D01*
X82386Y266410D01*
X82318Y266320D01*
X82253Y266227D01*
X82191Y266132D01*
X82133Y266035D01*
X82078Y265936D01*
X82027Y265835D01*
X81979Y265732D01*
X81934Y265628D01*
X81894Y265522D01*
X81857Y265415D01*
X81824Y265307D01*
X81794Y265197D01*
X81769Y265087D01*
X81747Y264976D01*
X81730Y264864D01*
X81716Y264751D01*
X81706Y264638D01*
X81700Y264525D01*
X81698Y264412D01*
X81698Y261166D01*
X308916Y132183D02*
X310511Y133300D01*
X308916Y132183D02*
X312639Y126866D01*
X315830Y129100D01*
X315829Y129100D02*
X315909Y129159D01*
X315987Y129221D01*
X316063Y129285D01*
X316136Y129353D01*
X316207Y129423D01*
X316274Y129496D01*
X316339Y129571D01*
X316401Y129649D01*
X316460Y129729D01*
X316516Y129811D01*
X316569Y129896D01*
X316618Y129982D01*
X316664Y130070D01*
X316707Y130160D01*
X316746Y130251D01*
X316781Y130344D01*
X316813Y130438D01*
X316842Y130534D01*
X316866Y130630D01*
X316887Y130727D01*
X316905Y130825D01*
X316918Y130924D01*
X316928Y131023D01*
X316934Y131122D01*
X316936Y131221D01*
X316934Y131321D01*
X316929Y131420D01*
X316919Y131519D01*
X316906Y131618D01*
X316890Y131716D01*
X316869Y131813D01*
X316845Y131910D01*
X316817Y132005D01*
X316785Y132099D01*
X316750Y132192D01*
X316711Y132284D01*
X316669Y132374D01*
X316623Y132462D01*
X316574Y132549D01*
X316522Y132633D01*
X316467Y132716D01*
X312744Y138033D01*
X312685Y138113D01*
X312623Y138191D01*
X312559Y138267D01*
X312491Y138340D01*
X312421Y138411D01*
X312348Y138478D01*
X312273Y138543D01*
X312195Y138605D01*
X312115Y138664D01*
X312033Y138720D01*
X311948Y138773D01*
X311862Y138822D01*
X311774Y138868D01*
X311684Y138911D01*
X311593Y138950D01*
X311500Y138985D01*
X311406Y139017D01*
X311310Y139046D01*
X311214Y139070D01*
X311117Y139091D01*
X311019Y139109D01*
X310920Y139122D01*
X310821Y139132D01*
X310722Y139138D01*
X310623Y139140D01*
X310523Y139138D01*
X310424Y139133D01*
X310325Y139124D01*
X310226Y139110D01*
X310128Y139094D01*
X310031Y139073D01*
X309934Y139049D01*
X309839Y139021D01*
X309745Y138989D01*
X309652Y138954D01*
X309560Y138915D01*
X309470Y138873D01*
X309382Y138827D01*
X309295Y138778D01*
X309211Y138726D01*
X309128Y138671D01*
X305938Y136437D01*
X301268Y133167D02*
X307969Y123596D01*
X302652Y119873D02*
X301268Y133167D01*
X295951Y129444D02*
X302652Y119873D01*
X297982Y116603D02*
X291281Y126174D01*
X288622Y124312D01*
X288622Y124313D02*
X288531Y124246D01*
X288441Y124177D01*
X288354Y124104D01*
X288270Y124028D01*
X288189Y123949D01*
X288110Y123868D01*
X288034Y123784D01*
X287961Y123697D01*
X287892Y123608D01*
X287825Y123516D01*
X287762Y123422D01*
X287702Y123326D01*
X287645Y123228D01*
X287592Y123128D01*
X287542Y123026D01*
X287496Y122922D01*
X287454Y122817D01*
X287415Y122711D01*
X287380Y122603D01*
X287349Y122494D01*
X287321Y122384D01*
X287298Y122273D01*
X287278Y122162D01*
X287262Y122050D01*
X287250Y121937D01*
X287242Y121824D01*
X287238Y121711D01*
X287238Y121597D01*
X287242Y121484D01*
X287250Y121371D01*
X287262Y121258D01*
X287278Y121146D01*
X287298Y121035D01*
X287321Y120924D01*
X287349Y120814D01*
X287380Y120705D01*
X287415Y120597D01*
X287454Y120491D01*
X287496Y120386D01*
X287542Y120282D01*
X287592Y120180D01*
X287645Y120080D01*
X287702Y119982D01*
X287762Y119886D01*
X287825Y119792D01*
X290804Y115538D01*
X290803Y115538D02*
X290870Y115447D01*
X290939Y115357D01*
X291012Y115270D01*
X291088Y115186D01*
X291167Y115105D01*
X291248Y115026D01*
X291332Y114950D01*
X291419Y114877D01*
X291509Y114808D01*
X291600Y114741D01*
X291694Y114678D01*
X291790Y114618D01*
X291888Y114561D01*
X291988Y114508D01*
X292090Y114458D01*
X292194Y114412D01*
X292299Y114370D01*
X292405Y114331D01*
X292513Y114296D01*
X292622Y114265D01*
X292732Y114237D01*
X292843Y114214D01*
X292954Y114194D01*
X293066Y114178D01*
X293179Y114166D01*
X293292Y114158D01*
X293405Y114154D01*
X293519Y114154D01*
X293632Y114158D01*
X293745Y114166D01*
X293858Y114178D01*
X293970Y114194D01*
X294081Y114214D01*
X294192Y114237D01*
X294302Y114265D01*
X294411Y114296D01*
X294519Y114331D01*
X294625Y114370D01*
X294730Y114412D01*
X294834Y114458D01*
X294936Y114508D01*
X295036Y114561D01*
X295134Y114618D01*
X295230Y114678D01*
X295324Y114741D01*
X297982Y116603D01*
X168596Y119533D02*
X167001Y120650D01*
X163278Y115333D01*
X166468Y113099D01*
X166551Y113044D01*
X166635Y112992D01*
X166722Y112943D01*
X166810Y112897D01*
X166900Y112855D01*
X166992Y112816D01*
X167085Y112781D01*
X167179Y112749D01*
X167274Y112721D01*
X167371Y112697D01*
X167468Y112676D01*
X167566Y112660D01*
X167665Y112646D01*
X167764Y112637D01*
X167863Y112632D01*
X167963Y112630D01*
X168062Y112632D01*
X168161Y112638D01*
X168260Y112648D01*
X168359Y112661D01*
X168457Y112679D01*
X168554Y112700D01*
X168650Y112724D01*
X168746Y112753D01*
X168840Y112785D01*
X168933Y112820D01*
X169024Y112859D01*
X169114Y112902D01*
X169202Y112948D01*
X169288Y112997D01*
X169373Y113050D01*
X169455Y113106D01*
X169535Y113165D01*
X169613Y113227D01*
X169688Y113292D01*
X169761Y113359D01*
X169831Y113430D01*
X169899Y113503D01*
X169963Y113579D01*
X170025Y113657D01*
X170084Y113737D01*
X173807Y119054D01*
X173862Y119137D01*
X173914Y119221D01*
X173963Y119308D01*
X174009Y119396D01*
X174051Y119486D01*
X174090Y119578D01*
X174125Y119671D01*
X174157Y119765D01*
X174185Y119860D01*
X174209Y119957D01*
X174230Y120054D01*
X174246Y120152D01*
X174260Y120251D01*
X174269Y120350D01*
X174274Y120449D01*
X174276Y120549D01*
X174274Y120648D01*
X174268Y120747D01*
X174258Y120846D01*
X174245Y120945D01*
X174227Y121043D01*
X174206Y121140D01*
X174182Y121236D01*
X174153Y121332D01*
X174121Y121426D01*
X174086Y121519D01*
X174047Y121610D01*
X174004Y121700D01*
X173958Y121788D01*
X173909Y121874D01*
X173856Y121959D01*
X173800Y122041D01*
X173741Y122121D01*
X173679Y122199D01*
X173614Y122274D01*
X173547Y122347D01*
X173476Y122417D01*
X173403Y122485D01*
X173327Y122549D01*
X173249Y122611D01*
X173169Y122670D01*
X173170Y122670D02*
X169979Y124904D01*
X165310Y128174D02*
X158608Y118603D01*
X153291Y122326D02*
X165310Y128174D01*
X159992Y131897D02*
X153291Y122326D01*
X148621Y125596D02*
X155322Y135167D01*
X152664Y137028D01*
X152664Y137029D02*
X152570Y137092D01*
X152474Y137152D01*
X152376Y137209D01*
X152276Y137262D01*
X152174Y137312D01*
X152070Y137358D01*
X151965Y137400D01*
X151859Y137439D01*
X151751Y137474D01*
X151642Y137505D01*
X151532Y137533D01*
X151421Y137556D01*
X151310Y137576D01*
X151198Y137592D01*
X151085Y137604D01*
X150972Y137612D01*
X150859Y137616D01*
X150745Y137616D01*
X150632Y137612D01*
X150519Y137604D01*
X150406Y137592D01*
X150294Y137576D01*
X150183Y137556D01*
X150072Y137533D01*
X149962Y137505D01*
X149853Y137474D01*
X149745Y137439D01*
X149639Y137400D01*
X149534Y137358D01*
X149430Y137312D01*
X149328Y137262D01*
X149228Y137209D01*
X149130Y137152D01*
X149034Y137092D01*
X148940Y137029D01*
X148849Y136962D01*
X148759Y136893D01*
X148672Y136820D01*
X148588Y136744D01*
X148507Y136665D01*
X148428Y136584D01*
X148352Y136500D01*
X148279Y136413D01*
X148210Y136324D01*
X148143Y136232D01*
X148144Y136231D02*
X145165Y131978D01*
X145102Y131884D01*
X145042Y131788D01*
X144985Y131690D01*
X144932Y131590D01*
X144882Y131488D01*
X144836Y131384D01*
X144794Y131279D01*
X144755Y131173D01*
X144720Y131065D01*
X144689Y130956D01*
X144661Y130846D01*
X144638Y130735D01*
X144618Y130624D01*
X144602Y130512D01*
X144590Y130399D01*
X144582Y130286D01*
X144578Y130173D01*
X144578Y130059D01*
X144582Y129946D01*
X144590Y129833D01*
X144602Y129720D01*
X144618Y129608D01*
X144638Y129497D01*
X144661Y129386D01*
X144689Y129276D01*
X144720Y129167D01*
X144755Y129059D01*
X144794Y128953D01*
X144836Y128848D01*
X144882Y128744D01*
X144932Y128642D01*
X144985Y128542D01*
X145042Y128444D01*
X145102Y128348D01*
X145165Y128254D01*
X145232Y128162D01*
X145301Y128073D01*
X145374Y127986D01*
X145450Y127902D01*
X145529Y127821D01*
X145610Y127742D01*
X145694Y127666D01*
X145781Y127593D01*
X145871Y127524D01*
X145962Y127457D01*
X148621Y125596D01*
X378179Y241326D02*
X378179Y243274D01*
X371688Y243274D01*
X371688Y239379D01*
X371690Y239280D01*
X371696Y239180D01*
X371705Y239081D01*
X371718Y238983D01*
X371735Y238885D01*
X371756Y238787D01*
X371781Y238691D01*
X371809Y238596D01*
X371841Y238502D01*
X371876Y238409D01*
X371915Y238317D01*
X371958Y238227D01*
X372003Y238139D01*
X372053Y238052D01*
X372105Y237968D01*
X372161Y237885D01*
X372219Y237805D01*
X372281Y237727D01*
X372346Y237652D01*
X372414Y237579D01*
X372484Y237509D01*
X372557Y237441D01*
X372632Y237376D01*
X372710Y237314D01*
X372790Y237256D01*
X372873Y237200D01*
X372957Y237148D01*
X373044Y237098D01*
X373132Y237053D01*
X373222Y237010D01*
X373314Y236971D01*
X373407Y236936D01*
X373501Y236904D01*
X373596Y236876D01*
X373692Y236851D01*
X373790Y236830D01*
X373888Y236813D01*
X373986Y236800D01*
X374085Y236791D01*
X374185Y236785D01*
X374284Y236783D01*
X380776Y236783D01*
X380875Y236785D01*
X380975Y236791D01*
X381074Y236800D01*
X381172Y236813D01*
X381270Y236830D01*
X381368Y236851D01*
X381464Y236876D01*
X381559Y236904D01*
X381653Y236936D01*
X381746Y236971D01*
X381838Y237010D01*
X381928Y237053D01*
X382016Y237098D01*
X382103Y237148D01*
X382187Y237200D01*
X382270Y237256D01*
X382350Y237314D01*
X382428Y237376D01*
X382503Y237441D01*
X382576Y237509D01*
X382646Y237579D01*
X382714Y237652D01*
X382779Y237727D01*
X382841Y237805D01*
X382899Y237885D01*
X382955Y237968D01*
X383007Y238052D01*
X383057Y238139D01*
X383102Y238227D01*
X383145Y238317D01*
X383184Y238409D01*
X383219Y238501D01*
X383251Y238596D01*
X383279Y238691D01*
X383304Y238787D01*
X383325Y238885D01*
X383342Y238983D01*
X383355Y239081D01*
X383364Y239180D01*
X383370Y239280D01*
X383372Y239379D01*
X383372Y243274D01*
X383372Y248974D02*
X371688Y248974D01*
X371688Y255466D02*
X383372Y248974D01*
X383372Y255466D02*
X371688Y255466D01*
X371688Y261166D02*
X383372Y261166D01*
X383372Y264412D01*
X383370Y264525D01*
X383364Y264638D01*
X383354Y264751D01*
X383340Y264864D01*
X383323Y264976D01*
X383301Y265087D01*
X383276Y265197D01*
X383246Y265307D01*
X383213Y265415D01*
X383176Y265522D01*
X383136Y265628D01*
X383091Y265732D01*
X383043Y265835D01*
X382992Y265936D01*
X382937Y266035D01*
X382879Y266132D01*
X382817Y266227D01*
X382752Y266320D01*
X382684Y266410D01*
X382613Y266498D01*
X382538Y266584D01*
X382461Y266667D01*
X382381Y266747D01*
X382298Y266824D01*
X382212Y266899D01*
X382124Y266970D01*
X382034Y267038D01*
X381941Y267103D01*
X381846Y267165D01*
X381749Y267223D01*
X381650Y267278D01*
X381549Y267329D01*
X381446Y267377D01*
X381342Y267422D01*
X381236Y267462D01*
X381129Y267499D01*
X381021Y267532D01*
X380911Y267562D01*
X380801Y267587D01*
X380690Y267609D01*
X380578Y267626D01*
X380465Y267640D01*
X380352Y267650D01*
X380239Y267656D01*
X380126Y267658D01*
X374934Y267658D01*
X374821Y267656D01*
X374708Y267650D01*
X374595Y267640D01*
X374482Y267626D01*
X374370Y267609D01*
X374259Y267587D01*
X374149Y267562D01*
X374039Y267532D01*
X373931Y267499D01*
X373824Y267462D01*
X373718Y267422D01*
X373614Y267377D01*
X373511Y267329D01*
X373410Y267278D01*
X373311Y267223D01*
X373214Y267165D01*
X373119Y267103D01*
X373026Y267038D01*
X372936Y266970D01*
X372848Y266899D01*
X372762Y266824D01*
X372679Y266747D01*
X372599Y266667D01*
X372522Y266584D01*
X372447Y266498D01*
X372376Y266410D01*
X372308Y266320D01*
X372243Y266227D01*
X372181Y266132D01*
X372123Y266035D01*
X372068Y265936D01*
X372017Y265835D01*
X371969Y265732D01*
X371924Y265628D01*
X371884Y265522D01*
X371847Y265415D01*
X371814Y265307D01*
X371784Y265197D01*
X371759Y265087D01*
X371737Y264976D01*
X371720Y264864D01*
X371706Y264751D01*
X371696Y264638D01*
X371690Y264525D01*
X371688Y264412D01*
X371688Y261166D01*
D10*
X275465Y199913D02*
X275465Y182133D01*
X275465Y192011D02*
X265588Y192011D01*
X265588Y199913D02*
X265588Y182133D01*
X248279Y195468D02*
X248281Y195600D01*
X248287Y195731D01*
X248297Y195863D01*
X248310Y195994D01*
X248328Y196124D01*
X248349Y196254D01*
X248374Y196384D01*
X248403Y196512D01*
X248436Y196640D01*
X248473Y196766D01*
X248513Y196892D01*
X248557Y197016D01*
X248605Y197139D01*
X248656Y197260D01*
X248711Y197380D01*
X248769Y197498D01*
X248831Y197614D01*
X248897Y197728D01*
X248965Y197841D01*
X249037Y197951D01*
X249112Y198059D01*
X249191Y198165D01*
X249272Y198269D01*
X249357Y198370D01*
X249444Y198468D01*
X249535Y198564D01*
X249628Y198657D01*
X249724Y198748D01*
X249822Y198835D01*
X249923Y198920D01*
X250027Y199001D01*
X250133Y199080D01*
X250241Y199155D01*
X250351Y199227D01*
X250464Y199295D01*
X250578Y199361D01*
X250694Y199423D01*
X250812Y199481D01*
X250932Y199536D01*
X251053Y199587D01*
X251176Y199635D01*
X251300Y199679D01*
X251426Y199719D01*
X251552Y199756D01*
X251680Y199789D01*
X251808Y199818D01*
X251938Y199843D01*
X252068Y199864D01*
X252198Y199882D01*
X252329Y199895D01*
X252461Y199905D01*
X252592Y199911D01*
X252724Y199913D01*
X252724Y199914D02*
X252874Y199912D01*
X253023Y199906D01*
X253172Y199896D01*
X253321Y199883D01*
X253470Y199865D01*
X253618Y199844D01*
X253766Y199818D01*
X253912Y199789D01*
X254058Y199756D01*
X254203Y199719D01*
X254347Y199678D01*
X254490Y199634D01*
X254632Y199586D01*
X254772Y199534D01*
X254911Y199479D01*
X255049Y199420D01*
X255184Y199357D01*
X255319Y199291D01*
X255451Y199221D01*
X255581Y199148D01*
X255710Y199071D01*
X255837Y198991D01*
X255961Y198908D01*
X256083Y198822D01*
X256203Y198732D01*
X256320Y198639D01*
X256435Y198544D01*
X256548Y198445D01*
X256658Y198343D01*
X256765Y198239D01*
X256869Y198132D01*
X256971Y198022D01*
X257069Y197909D01*
X257165Y197794D01*
X257257Y197676D01*
X257347Y197556D01*
X257433Y197434D01*
X257516Y197310D01*
X257596Y197183D01*
X257672Y197055D01*
X257745Y196924D01*
X257815Y196791D01*
X257881Y196657D01*
X257943Y196521D01*
X258002Y196384D01*
X258058Y196245D01*
X258109Y196104D01*
X258157Y195963D01*
X249761Y192011D02*
X249665Y192104D01*
X249573Y192200D01*
X249483Y192299D01*
X249396Y192400D01*
X249312Y192503D01*
X249230Y192608D01*
X249152Y192716D01*
X249077Y192826D01*
X249004Y192938D01*
X248935Y193052D01*
X248869Y193168D01*
X248807Y193286D01*
X248748Y193405D01*
X248692Y193526D01*
X248639Y193649D01*
X248590Y193773D01*
X248545Y193898D01*
X248502Y194025D01*
X248464Y194152D01*
X248429Y194281D01*
X248398Y194410D01*
X248370Y194541D01*
X248346Y194672D01*
X248325Y194804D01*
X248309Y194936D01*
X248296Y195069D01*
X248286Y195202D01*
X248281Y195335D01*
X248279Y195468D01*
X249760Y192011D02*
X258157Y182133D01*
X248279Y182133D01*
X241406Y192011D02*
X235479Y192011D01*
X235355Y192009D01*
X235231Y192003D01*
X235107Y191993D01*
X234984Y191980D01*
X234861Y191962D01*
X234739Y191941D01*
X234617Y191916D01*
X234496Y191887D01*
X234377Y191854D01*
X234258Y191818D01*
X234141Y191777D01*
X234025Y191734D01*
X233910Y191686D01*
X233797Y191635D01*
X233685Y191580D01*
X233576Y191522D01*
X233468Y191461D01*
X233362Y191396D01*
X233258Y191328D01*
X233157Y191256D01*
X233057Y191182D01*
X232961Y191104D01*
X232866Y191024D01*
X232774Y190940D01*
X232685Y190854D01*
X232599Y190765D01*
X232515Y190673D01*
X232435Y190578D01*
X232357Y190482D01*
X232283Y190382D01*
X232211Y190281D01*
X232143Y190177D01*
X232078Y190071D01*
X232017Y189963D01*
X231959Y189854D01*
X231904Y189742D01*
X231853Y189629D01*
X231805Y189514D01*
X231762Y189398D01*
X231721Y189281D01*
X231685Y189162D01*
X231652Y189043D01*
X231623Y188922D01*
X231598Y188800D01*
X231577Y188678D01*
X231559Y188555D01*
X231546Y188432D01*
X231536Y188308D01*
X231530Y188184D01*
X231528Y188060D01*
X231528Y187072D01*
X231530Y186932D01*
X231536Y186793D01*
X231546Y186653D01*
X231560Y186514D01*
X231577Y186375D01*
X231599Y186237D01*
X231625Y186100D01*
X231654Y185963D01*
X231687Y185827D01*
X231724Y185693D01*
X231765Y185559D01*
X231810Y185427D01*
X231859Y185295D01*
X231911Y185166D01*
X231966Y185038D01*
X232026Y184911D01*
X232089Y184786D01*
X232155Y184663D01*
X232225Y184542D01*
X232298Y184423D01*
X232375Y184306D01*
X232455Y184192D01*
X232538Y184079D01*
X232624Y183969D01*
X232714Y183862D01*
X232806Y183757D01*
X232901Y183655D01*
X232999Y183555D01*
X233100Y183458D01*
X233204Y183364D01*
X233310Y183274D01*
X233419Y183186D01*
X233530Y183101D01*
X233644Y183020D01*
X233759Y182941D01*
X233877Y182866D01*
X233998Y182795D01*
X234120Y182727D01*
X234243Y182662D01*
X234369Y182601D01*
X234497Y182543D01*
X234625Y182489D01*
X234756Y182439D01*
X234888Y182392D01*
X235021Y182349D01*
X235155Y182310D01*
X235290Y182275D01*
X235426Y182244D01*
X235564Y182216D01*
X235701Y182193D01*
X235840Y182173D01*
X235979Y182157D01*
X236118Y182145D01*
X236257Y182137D01*
X236397Y182133D01*
X236537Y182133D01*
X236677Y182137D01*
X236816Y182145D01*
X236955Y182157D01*
X237094Y182173D01*
X237233Y182193D01*
X237370Y182216D01*
X237508Y182244D01*
X237644Y182275D01*
X237779Y182310D01*
X237913Y182349D01*
X238046Y182392D01*
X238178Y182439D01*
X238309Y182489D01*
X238437Y182543D01*
X238565Y182601D01*
X238691Y182662D01*
X238814Y182727D01*
X238937Y182795D01*
X239057Y182866D01*
X239175Y182941D01*
X239290Y183020D01*
X239404Y183101D01*
X239515Y183186D01*
X239624Y183274D01*
X239730Y183364D01*
X239834Y183458D01*
X239935Y183555D01*
X240033Y183655D01*
X240128Y183757D01*
X240220Y183862D01*
X240310Y183969D01*
X240396Y184079D01*
X240479Y184192D01*
X240559Y184306D01*
X240636Y184423D01*
X240709Y184542D01*
X240779Y184663D01*
X240845Y184786D01*
X240908Y184911D01*
X240968Y185038D01*
X241023Y185166D01*
X241075Y185295D01*
X241124Y185427D01*
X241169Y185559D01*
X241210Y185693D01*
X241247Y185827D01*
X241280Y185963D01*
X241309Y186100D01*
X241335Y186237D01*
X241357Y186375D01*
X241374Y186514D01*
X241388Y186653D01*
X241398Y186793D01*
X241404Y186932D01*
X241406Y187072D01*
X241406Y192011D01*
X241404Y192205D01*
X241396Y192399D01*
X241385Y192592D01*
X241368Y192786D01*
X241347Y192978D01*
X241320Y193170D01*
X241290Y193362D01*
X241254Y193553D01*
X241214Y193742D01*
X241169Y193931D01*
X241120Y194119D01*
X241066Y194305D01*
X241007Y194490D01*
X240944Y194673D01*
X240877Y194855D01*
X240805Y195035D01*
X240728Y195213D01*
X240647Y195390D01*
X240562Y195564D01*
X240473Y195736D01*
X240379Y195906D01*
X240282Y196073D01*
X240180Y196239D01*
X240074Y196401D01*
X239965Y196561D01*
X239851Y196718D01*
X239734Y196873D01*
X239612Y197024D01*
X239487Y197172D01*
X239359Y197318D01*
X239227Y197460D01*
X239092Y197599D01*
X238953Y197734D01*
X238811Y197866D01*
X238665Y197994D01*
X238517Y198119D01*
X238366Y198240D01*
X238211Y198358D01*
X238054Y198472D01*
X237894Y198581D01*
X237732Y198687D01*
X237566Y198789D01*
X237399Y198886D01*
X237229Y198980D01*
X237057Y199069D01*
X236883Y199154D01*
X236706Y199235D01*
X236528Y199311D01*
X236348Y199383D01*
X236166Y199451D01*
X235983Y199514D01*
X235798Y199573D01*
X235612Y199627D01*
X235424Y199676D01*
X235235Y199721D01*
X235046Y199761D01*
X234855Y199797D01*
X234664Y199827D01*
X234471Y199854D01*
X234279Y199875D01*
X234085Y199892D01*
X233892Y199903D01*
X233698Y199911D01*
X233504Y199913D01*
X224012Y199913D02*
X224012Y182133D01*
X224012Y199913D02*
X219073Y199913D01*
X218933Y199911D01*
X218794Y199905D01*
X218654Y199895D01*
X218515Y199881D01*
X218376Y199864D01*
X218238Y199842D01*
X218101Y199816D01*
X217964Y199787D01*
X217828Y199754D01*
X217694Y199717D01*
X217560Y199676D01*
X217428Y199631D01*
X217296Y199582D01*
X217167Y199530D01*
X217039Y199475D01*
X216912Y199415D01*
X216787Y199352D01*
X216664Y199286D01*
X216543Y199216D01*
X216424Y199143D01*
X216307Y199066D01*
X216193Y198986D01*
X216080Y198903D01*
X215970Y198817D01*
X215863Y198727D01*
X215758Y198635D01*
X215656Y198540D01*
X215556Y198442D01*
X215459Y198341D01*
X215365Y198237D01*
X215275Y198131D01*
X215187Y198022D01*
X215102Y197911D01*
X215021Y197797D01*
X214942Y197682D01*
X214867Y197564D01*
X214796Y197444D01*
X214728Y197321D01*
X214663Y197198D01*
X214602Y197072D01*
X214544Y196944D01*
X214490Y196816D01*
X214440Y196685D01*
X214393Y196553D01*
X214350Y196420D01*
X214311Y196286D01*
X214276Y196151D01*
X214245Y196015D01*
X214217Y195877D01*
X214194Y195740D01*
X214174Y195601D01*
X214158Y195462D01*
X214146Y195323D01*
X214138Y195184D01*
X214134Y195044D01*
X214134Y194904D01*
X214138Y194764D01*
X214146Y194625D01*
X214158Y194486D01*
X214174Y194347D01*
X214194Y194208D01*
X214217Y194071D01*
X214245Y193933D01*
X214276Y193797D01*
X214311Y193662D01*
X214350Y193528D01*
X214393Y193395D01*
X214440Y193263D01*
X214490Y193132D01*
X214544Y193004D01*
X214602Y192876D01*
X214663Y192750D01*
X214728Y192627D01*
X214796Y192504D01*
X214867Y192384D01*
X214942Y192266D01*
X215021Y192151D01*
X215102Y192037D01*
X215187Y191926D01*
X215275Y191817D01*
X215365Y191711D01*
X215459Y191607D01*
X215556Y191506D01*
X215656Y191408D01*
X215758Y191313D01*
X215863Y191221D01*
X215970Y191131D01*
X216080Y191045D01*
X216193Y190962D01*
X216307Y190882D01*
X216424Y190805D01*
X216543Y190732D01*
X216664Y190662D01*
X216787Y190596D01*
X216912Y190533D01*
X217039Y190473D01*
X217167Y190418D01*
X217296Y190366D01*
X217428Y190317D01*
X217560Y190272D01*
X217694Y190231D01*
X217828Y190194D01*
X217964Y190161D01*
X218101Y190132D01*
X218238Y190106D01*
X218376Y190084D01*
X218515Y190067D01*
X218654Y190053D01*
X218794Y190043D01*
X218933Y190037D01*
X219073Y190035D01*
X224012Y190035D01*
X218085Y190035D02*
X214134Y182133D01*
X207347Y195962D02*
X202408Y199913D01*
X202408Y182133D01*
X207347Y182133D02*
X197469Y182133D01*
X190596Y191023D02*
X190592Y191373D01*
X190579Y191722D01*
X190558Y192071D01*
X190529Y192420D01*
X190492Y192768D01*
X190446Y193115D01*
X190392Y193460D01*
X190330Y193804D01*
X190259Y194147D01*
X190180Y194488D01*
X190094Y194827D01*
X189999Y195163D01*
X189896Y195498D01*
X189785Y195829D01*
X189667Y196159D01*
X189540Y196485D01*
X189406Y196808D01*
X189264Y197127D01*
X189114Y197444D01*
X189115Y197444D02*
X189075Y197557D01*
X189031Y197667D01*
X188983Y197777D01*
X188932Y197884D01*
X188877Y197990D01*
X188819Y198095D01*
X188757Y198197D01*
X188692Y198297D01*
X188624Y198395D01*
X188553Y198491D01*
X188478Y198584D01*
X188401Y198675D01*
X188321Y198763D01*
X188238Y198848D01*
X188152Y198931D01*
X188063Y199011D01*
X187972Y199088D01*
X187878Y199162D01*
X187782Y199233D01*
X187684Y199301D01*
X187584Y199365D01*
X187481Y199427D01*
X187377Y199484D01*
X187271Y199539D01*
X187163Y199590D01*
X187053Y199637D01*
X186942Y199681D01*
X186830Y199721D01*
X186716Y199757D01*
X186602Y199790D01*
X186486Y199819D01*
X186369Y199844D01*
X186252Y199865D01*
X186134Y199883D01*
X186015Y199896D01*
X185896Y199906D01*
X185777Y199912D01*
X185658Y199914D01*
X185658Y199913D02*
X185539Y199911D01*
X185420Y199905D01*
X185301Y199895D01*
X185182Y199882D01*
X185064Y199864D01*
X184947Y199843D01*
X184830Y199818D01*
X184714Y199789D01*
X184600Y199756D01*
X184486Y199720D01*
X184374Y199680D01*
X184263Y199636D01*
X184153Y199589D01*
X184045Y199538D01*
X183939Y199483D01*
X183835Y199426D01*
X183732Y199364D01*
X183632Y199300D01*
X183534Y199232D01*
X183438Y199161D01*
X183344Y199087D01*
X183253Y199010D01*
X183164Y198930D01*
X183079Y198847D01*
X182995Y198762D01*
X182915Y198674D01*
X182838Y198583D01*
X182763Y198490D01*
X182692Y198394D01*
X182624Y198296D01*
X182559Y198196D01*
X182497Y198094D01*
X182439Y197989D01*
X182384Y197884D01*
X182333Y197776D01*
X182285Y197666D01*
X182241Y197556D01*
X182201Y197443D01*
X182201Y197444D02*
X182051Y197127D01*
X181909Y196808D01*
X181775Y196485D01*
X181648Y196159D01*
X181530Y195829D01*
X181419Y195498D01*
X181316Y195163D01*
X181221Y194827D01*
X181135Y194488D01*
X181056Y194147D01*
X180985Y193804D01*
X180923Y193460D01*
X180869Y193115D01*
X180823Y192768D01*
X180786Y192420D01*
X180757Y192071D01*
X180736Y191722D01*
X180723Y191373D01*
X180719Y191023D01*
X190596Y191023D02*
X190592Y190673D01*
X190579Y190324D01*
X190558Y189975D01*
X190529Y189626D01*
X190492Y189278D01*
X190446Y188931D01*
X190392Y188586D01*
X190330Y188242D01*
X190259Y187899D01*
X190180Y187558D01*
X190094Y187219D01*
X189999Y186883D01*
X189896Y186548D01*
X189785Y186217D01*
X189667Y185888D01*
X189540Y185561D01*
X189406Y185238D01*
X189264Y184919D01*
X189114Y184603D01*
X189115Y184603D02*
X189075Y184490D01*
X189031Y184380D01*
X188983Y184270D01*
X188932Y184163D01*
X188877Y184057D01*
X188819Y183952D01*
X188757Y183850D01*
X188692Y183750D01*
X188624Y183652D01*
X188553Y183556D01*
X188478Y183463D01*
X188401Y183372D01*
X188321Y183284D01*
X188238Y183199D01*
X188152Y183116D01*
X188063Y183036D01*
X187972Y182959D01*
X187878Y182885D01*
X187782Y182814D01*
X187684Y182746D01*
X187584Y182682D01*
X187481Y182620D01*
X187377Y182563D01*
X187271Y182508D01*
X187163Y182457D01*
X187053Y182410D01*
X186942Y182366D01*
X186830Y182326D01*
X186716Y182290D01*
X186602Y182257D01*
X186486Y182228D01*
X186369Y182203D01*
X186252Y182182D01*
X186134Y182164D01*
X186015Y182151D01*
X185896Y182141D01*
X185777Y182135D01*
X185658Y182133D01*
X182201Y184603D02*
X182051Y184919D01*
X181909Y185238D01*
X181775Y185561D01*
X181648Y185888D01*
X181530Y186217D01*
X181419Y186548D01*
X181316Y186883D01*
X181221Y187219D01*
X181135Y187558D01*
X181056Y187899D01*
X180985Y188242D01*
X180923Y188586D01*
X180869Y188931D01*
X180823Y189278D01*
X180786Y189626D01*
X180757Y189975D01*
X180736Y190324D01*
X180723Y190673D01*
X180719Y191023D01*
X182201Y184603D02*
X182241Y184490D01*
X182285Y184380D01*
X182333Y184270D01*
X182384Y184162D01*
X182439Y184056D01*
X182497Y183952D01*
X182559Y183850D01*
X182624Y183750D01*
X182692Y183652D01*
X182763Y183556D01*
X182838Y183463D01*
X182915Y183372D01*
X182995Y183284D01*
X183079Y183199D01*
X183164Y183116D01*
X183253Y183036D01*
X183344Y182959D01*
X183438Y182885D01*
X183534Y182814D01*
X183632Y182746D01*
X183732Y182682D01*
X183835Y182620D01*
X183939Y182562D01*
X184045Y182508D01*
X184153Y182457D01*
X184263Y182410D01*
X184374Y182366D01*
X184486Y182326D01*
X184600Y182290D01*
X184714Y182257D01*
X184830Y182228D01*
X184947Y182203D01*
X185064Y182182D01*
X185182Y182164D01*
X185301Y182151D01*
X185420Y182141D01*
X185539Y182135D01*
X185658Y182133D01*
X189609Y186084D02*
X181706Y195962D01*
D11*
X374369Y543586D02*
X374369Y545534D01*
X367878Y545534D01*
X367878Y541639D01*
X367880Y541540D01*
X367886Y541440D01*
X367895Y541341D01*
X367908Y541243D01*
X367925Y541145D01*
X367946Y541047D01*
X367971Y540951D01*
X367999Y540856D01*
X368031Y540762D01*
X368066Y540669D01*
X368105Y540577D01*
X368148Y540487D01*
X368193Y540399D01*
X368243Y540312D01*
X368295Y540228D01*
X368351Y540145D01*
X368409Y540065D01*
X368471Y539987D01*
X368536Y539912D01*
X368604Y539839D01*
X368674Y539769D01*
X368747Y539701D01*
X368822Y539636D01*
X368900Y539574D01*
X368980Y539516D01*
X369063Y539460D01*
X369147Y539408D01*
X369234Y539358D01*
X369322Y539313D01*
X369412Y539270D01*
X369504Y539231D01*
X369597Y539196D01*
X369691Y539164D01*
X369786Y539136D01*
X369882Y539111D01*
X369980Y539090D01*
X370078Y539073D01*
X370176Y539060D01*
X370275Y539051D01*
X370375Y539045D01*
X370474Y539043D01*
X376966Y539043D01*
X377065Y539045D01*
X377165Y539051D01*
X377264Y539060D01*
X377362Y539073D01*
X377460Y539090D01*
X377558Y539111D01*
X377654Y539136D01*
X377749Y539164D01*
X377843Y539196D01*
X377936Y539231D01*
X378028Y539270D01*
X378118Y539313D01*
X378206Y539358D01*
X378293Y539408D01*
X378377Y539460D01*
X378460Y539516D01*
X378540Y539574D01*
X378618Y539636D01*
X378693Y539701D01*
X378766Y539769D01*
X378836Y539839D01*
X378904Y539912D01*
X378969Y539987D01*
X379031Y540065D01*
X379089Y540145D01*
X379145Y540228D01*
X379197Y540312D01*
X379247Y540399D01*
X379292Y540487D01*
X379335Y540577D01*
X379374Y540669D01*
X379409Y540761D01*
X379441Y540856D01*
X379469Y540951D01*
X379494Y541047D01*
X379515Y541145D01*
X379532Y541243D01*
X379545Y541341D01*
X379554Y541440D01*
X379560Y541540D01*
X379562Y541639D01*
X379562Y545534D01*
X379562Y551234D02*
X367878Y551234D01*
X367878Y557726D02*
X379562Y551234D01*
X379562Y557726D02*
X367878Y557726D01*
X367878Y563426D02*
X379562Y563426D01*
X379562Y566672D01*
X379560Y566785D01*
X379554Y566898D01*
X379544Y567011D01*
X379530Y567124D01*
X379513Y567236D01*
X379491Y567347D01*
X379466Y567457D01*
X379436Y567567D01*
X379403Y567675D01*
X379366Y567782D01*
X379326Y567888D01*
X379281Y567992D01*
X379233Y568095D01*
X379182Y568196D01*
X379127Y568295D01*
X379069Y568392D01*
X379007Y568487D01*
X378942Y568580D01*
X378874Y568670D01*
X378803Y568758D01*
X378728Y568844D01*
X378651Y568927D01*
X378571Y569007D01*
X378488Y569084D01*
X378402Y569159D01*
X378314Y569230D01*
X378224Y569298D01*
X378131Y569363D01*
X378036Y569425D01*
X377939Y569483D01*
X377840Y569538D01*
X377739Y569589D01*
X377636Y569637D01*
X377532Y569682D01*
X377426Y569722D01*
X377319Y569759D01*
X377211Y569792D01*
X377101Y569822D01*
X376991Y569847D01*
X376880Y569869D01*
X376768Y569886D01*
X376655Y569900D01*
X376542Y569910D01*
X376429Y569916D01*
X376316Y569918D01*
X371124Y569918D01*
X371011Y569916D01*
X370898Y569910D01*
X370785Y569900D01*
X370672Y569886D01*
X370560Y569869D01*
X370449Y569847D01*
X370339Y569822D01*
X370229Y569792D01*
X370121Y569759D01*
X370014Y569722D01*
X369908Y569682D01*
X369804Y569637D01*
X369701Y569589D01*
X369600Y569538D01*
X369501Y569483D01*
X369404Y569425D01*
X369309Y569363D01*
X369216Y569298D01*
X369126Y569230D01*
X369038Y569159D01*
X368952Y569084D01*
X368869Y569007D01*
X368789Y568927D01*
X368712Y568844D01*
X368637Y568758D01*
X368566Y568670D01*
X368498Y568580D01*
X368433Y568487D01*
X368371Y568392D01*
X368313Y568295D01*
X368258Y568196D01*
X368207Y568095D01*
X368159Y567992D01*
X368114Y567888D01*
X368074Y567782D01*
X368037Y567675D01*
X368004Y567567D01*
X367974Y567457D01*
X367949Y567347D01*
X367927Y567236D01*
X367910Y567124D01*
X367896Y567011D01*
X367886Y566898D01*
X367880Y566785D01*
X367878Y566672D01*
X367878Y563426D01*
X86079Y542994D02*
X86079Y541046D01*
X86079Y542994D02*
X79588Y542994D01*
X79588Y539099D01*
X79590Y539000D01*
X79596Y538900D01*
X79605Y538801D01*
X79618Y538703D01*
X79635Y538605D01*
X79656Y538507D01*
X79681Y538411D01*
X79709Y538316D01*
X79741Y538222D01*
X79776Y538129D01*
X79815Y538037D01*
X79858Y537947D01*
X79903Y537859D01*
X79953Y537772D01*
X80005Y537688D01*
X80061Y537605D01*
X80119Y537525D01*
X80181Y537447D01*
X80246Y537372D01*
X80314Y537299D01*
X80384Y537229D01*
X80457Y537161D01*
X80532Y537096D01*
X80610Y537034D01*
X80690Y536976D01*
X80773Y536920D01*
X80857Y536868D01*
X80944Y536818D01*
X81032Y536773D01*
X81122Y536730D01*
X81214Y536691D01*
X81307Y536656D01*
X81401Y536624D01*
X81496Y536596D01*
X81592Y536571D01*
X81690Y536550D01*
X81788Y536533D01*
X81886Y536520D01*
X81985Y536511D01*
X82085Y536505D01*
X82184Y536503D01*
X88676Y536503D01*
X88775Y536505D01*
X88875Y536511D01*
X88974Y536520D01*
X89072Y536533D01*
X89170Y536550D01*
X89268Y536571D01*
X89364Y536596D01*
X89459Y536624D01*
X89553Y536656D01*
X89646Y536691D01*
X89738Y536730D01*
X89828Y536773D01*
X89916Y536818D01*
X90003Y536868D01*
X90087Y536920D01*
X90170Y536976D01*
X90250Y537034D01*
X90328Y537096D01*
X90403Y537161D01*
X90476Y537229D01*
X90546Y537299D01*
X90614Y537372D01*
X90679Y537447D01*
X90741Y537525D01*
X90799Y537605D01*
X90855Y537688D01*
X90907Y537772D01*
X90957Y537859D01*
X91002Y537947D01*
X91045Y538037D01*
X91084Y538129D01*
X91119Y538221D01*
X91151Y538316D01*
X91179Y538411D01*
X91204Y538507D01*
X91225Y538605D01*
X91242Y538703D01*
X91255Y538801D01*
X91264Y538900D01*
X91270Y539000D01*
X91272Y539099D01*
X91272Y542994D01*
X91272Y548694D02*
X79588Y548694D01*
X79588Y555186D02*
X91272Y548694D01*
X91272Y555186D02*
X79588Y555186D01*
X79588Y560886D02*
X91272Y560886D01*
X91272Y564132D01*
X91270Y564245D01*
X91264Y564358D01*
X91254Y564471D01*
X91240Y564584D01*
X91223Y564696D01*
X91201Y564807D01*
X91176Y564917D01*
X91146Y565027D01*
X91113Y565135D01*
X91076Y565242D01*
X91036Y565348D01*
X90991Y565452D01*
X90943Y565555D01*
X90892Y565656D01*
X90837Y565755D01*
X90779Y565852D01*
X90717Y565947D01*
X90652Y566040D01*
X90584Y566130D01*
X90513Y566218D01*
X90438Y566304D01*
X90361Y566387D01*
X90281Y566467D01*
X90198Y566544D01*
X90112Y566619D01*
X90024Y566690D01*
X89934Y566758D01*
X89841Y566823D01*
X89746Y566885D01*
X89649Y566943D01*
X89550Y566998D01*
X89449Y567049D01*
X89346Y567097D01*
X89242Y567142D01*
X89136Y567182D01*
X89029Y567219D01*
X88921Y567252D01*
X88811Y567282D01*
X88701Y567307D01*
X88590Y567329D01*
X88478Y567346D01*
X88365Y567360D01*
X88252Y567370D01*
X88139Y567376D01*
X88026Y567378D01*
X82834Y567378D01*
X82721Y567376D01*
X82608Y567370D01*
X82495Y567360D01*
X82382Y567346D01*
X82270Y567329D01*
X82159Y567307D01*
X82049Y567282D01*
X81939Y567252D01*
X81831Y567219D01*
X81724Y567182D01*
X81618Y567142D01*
X81514Y567097D01*
X81411Y567049D01*
X81310Y566998D01*
X81211Y566943D01*
X81114Y566885D01*
X81019Y566823D01*
X80926Y566758D01*
X80836Y566690D01*
X80748Y566619D01*
X80662Y566544D01*
X80579Y566467D01*
X80499Y566387D01*
X80422Y566304D01*
X80347Y566218D01*
X80276Y566130D01*
X80208Y566040D01*
X80143Y565947D01*
X80081Y565852D01*
X80023Y565755D01*
X79968Y565656D01*
X79917Y565555D01*
X79869Y565452D01*
X79824Y565348D01*
X79784Y565242D01*
X79747Y565135D01*
X79714Y565027D01*
X79684Y564917D01*
X79659Y564807D01*
X79637Y564696D01*
X79620Y564584D01*
X79606Y564471D01*
X79596Y564358D01*
X79590Y564245D01*
X79588Y564132D01*
X79588Y560886D01*
X172439Y394404D02*
X172439Y392456D01*
X172439Y394404D02*
X165948Y394404D01*
X165948Y390509D01*
X165950Y390410D01*
X165956Y390310D01*
X165965Y390211D01*
X165978Y390113D01*
X165995Y390015D01*
X166016Y389917D01*
X166041Y389821D01*
X166069Y389726D01*
X166101Y389632D01*
X166136Y389539D01*
X166175Y389447D01*
X166218Y389357D01*
X166263Y389269D01*
X166313Y389182D01*
X166365Y389098D01*
X166421Y389015D01*
X166479Y388935D01*
X166541Y388857D01*
X166606Y388782D01*
X166674Y388709D01*
X166744Y388639D01*
X166817Y388571D01*
X166892Y388506D01*
X166970Y388444D01*
X167050Y388386D01*
X167133Y388330D01*
X167217Y388278D01*
X167304Y388228D01*
X167392Y388183D01*
X167482Y388140D01*
X167574Y388101D01*
X167667Y388066D01*
X167761Y388034D01*
X167856Y388006D01*
X167952Y387981D01*
X168050Y387960D01*
X168148Y387943D01*
X168246Y387930D01*
X168345Y387921D01*
X168445Y387915D01*
X168544Y387913D01*
X175036Y387913D01*
X175135Y387915D01*
X175235Y387921D01*
X175334Y387930D01*
X175432Y387943D01*
X175530Y387960D01*
X175628Y387981D01*
X175724Y388006D01*
X175819Y388034D01*
X175913Y388066D01*
X176006Y388101D01*
X176098Y388140D01*
X176188Y388183D01*
X176276Y388228D01*
X176363Y388278D01*
X176447Y388330D01*
X176530Y388386D01*
X176610Y388444D01*
X176688Y388506D01*
X176763Y388571D01*
X176836Y388639D01*
X176906Y388709D01*
X176974Y388782D01*
X177039Y388857D01*
X177101Y388935D01*
X177159Y389015D01*
X177215Y389098D01*
X177267Y389182D01*
X177317Y389269D01*
X177362Y389357D01*
X177405Y389447D01*
X177444Y389539D01*
X177479Y389631D01*
X177511Y389726D01*
X177539Y389821D01*
X177564Y389917D01*
X177585Y390015D01*
X177602Y390113D01*
X177615Y390211D01*
X177624Y390310D01*
X177630Y390410D01*
X177632Y390509D01*
X177632Y394404D01*
X177632Y400104D02*
X165948Y400104D01*
X165948Y406596D02*
X177632Y400104D01*
X177632Y406596D02*
X165948Y406596D01*
X165948Y412296D02*
X177632Y412296D01*
X177632Y415542D01*
X177630Y415655D01*
X177624Y415768D01*
X177614Y415881D01*
X177600Y415994D01*
X177583Y416106D01*
X177561Y416217D01*
X177536Y416327D01*
X177506Y416437D01*
X177473Y416545D01*
X177436Y416652D01*
X177396Y416758D01*
X177351Y416862D01*
X177303Y416965D01*
X177252Y417066D01*
X177197Y417165D01*
X177139Y417262D01*
X177077Y417357D01*
X177012Y417450D01*
X176944Y417540D01*
X176873Y417628D01*
X176798Y417714D01*
X176721Y417797D01*
X176641Y417877D01*
X176558Y417954D01*
X176472Y418029D01*
X176384Y418100D01*
X176294Y418168D01*
X176201Y418233D01*
X176106Y418295D01*
X176009Y418353D01*
X175910Y418408D01*
X175809Y418459D01*
X175706Y418507D01*
X175602Y418552D01*
X175496Y418592D01*
X175389Y418629D01*
X175281Y418662D01*
X175171Y418692D01*
X175061Y418717D01*
X174950Y418739D01*
X174838Y418756D01*
X174725Y418770D01*
X174612Y418780D01*
X174499Y418786D01*
X174386Y418788D01*
X169194Y418788D01*
X169081Y418786D01*
X168968Y418780D01*
X168855Y418770D01*
X168742Y418756D01*
X168630Y418739D01*
X168519Y418717D01*
X168409Y418692D01*
X168299Y418662D01*
X168191Y418629D01*
X168084Y418592D01*
X167978Y418552D01*
X167874Y418507D01*
X167771Y418459D01*
X167670Y418408D01*
X167571Y418353D01*
X167474Y418295D01*
X167379Y418233D01*
X167286Y418168D01*
X167196Y418100D01*
X167108Y418029D01*
X167022Y417954D01*
X166939Y417877D01*
X166859Y417797D01*
X166782Y417714D01*
X166707Y417628D01*
X166636Y417540D01*
X166568Y417450D01*
X166503Y417357D01*
X166441Y417262D01*
X166383Y417165D01*
X166328Y417066D01*
X166277Y416965D01*
X166229Y416862D01*
X166184Y416758D01*
X166144Y416652D01*
X166107Y416545D01*
X166074Y416437D01*
X166044Y416327D01*
X166019Y416217D01*
X165997Y416106D01*
X165980Y415994D01*
X165966Y415881D01*
X165956Y415768D01*
X165950Y415655D01*
X165948Y415542D01*
X165948Y412296D01*
X286739Y394404D02*
X286739Y392456D01*
X286739Y394404D02*
X280248Y394404D01*
X280248Y390509D01*
X280250Y390410D01*
X280256Y390310D01*
X280265Y390211D01*
X280278Y390113D01*
X280295Y390015D01*
X280316Y389917D01*
X280341Y389821D01*
X280369Y389726D01*
X280401Y389632D01*
X280436Y389539D01*
X280475Y389447D01*
X280518Y389357D01*
X280563Y389269D01*
X280613Y389182D01*
X280665Y389098D01*
X280721Y389015D01*
X280779Y388935D01*
X280841Y388857D01*
X280906Y388782D01*
X280974Y388709D01*
X281044Y388639D01*
X281117Y388571D01*
X281192Y388506D01*
X281270Y388444D01*
X281350Y388386D01*
X281433Y388330D01*
X281517Y388278D01*
X281604Y388228D01*
X281692Y388183D01*
X281782Y388140D01*
X281874Y388101D01*
X281967Y388066D01*
X282061Y388034D01*
X282156Y388006D01*
X282252Y387981D01*
X282350Y387960D01*
X282448Y387943D01*
X282546Y387930D01*
X282645Y387921D01*
X282745Y387915D01*
X282844Y387913D01*
X289336Y387913D01*
X289435Y387915D01*
X289535Y387921D01*
X289634Y387930D01*
X289732Y387943D01*
X289830Y387960D01*
X289928Y387981D01*
X290024Y388006D01*
X290119Y388034D01*
X290213Y388066D01*
X290306Y388101D01*
X290398Y388140D01*
X290488Y388183D01*
X290576Y388228D01*
X290663Y388278D01*
X290747Y388330D01*
X290830Y388386D01*
X290910Y388444D01*
X290988Y388506D01*
X291063Y388571D01*
X291136Y388639D01*
X291206Y388709D01*
X291274Y388782D01*
X291339Y388857D01*
X291401Y388935D01*
X291459Y389015D01*
X291515Y389098D01*
X291567Y389182D01*
X291617Y389269D01*
X291662Y389357D01*
X291705Y389447D01*
X291744Y389539D01*
X291779Y389631D01*
X291811Y389726D01*
X291839Y389821D01*
X291864Y389917D01*
X291885Y390015D01*
X291902Y390113D01*
X291915Y390211D01*
X291924Y390310D01*
X291930Y390410D01*
X291932Y390509D01*
X291932Y394404D01*
X291932Y400104D02*
X280248Y400104D01*
X280248Y406596D02*
X291932Y400104D01*
X291932Y406596D02*
X280248Y406596D01*
X280248Y412296D02*
X291932Y412296D01*
X291932Y415542D01*
X291930Y415655D01*
X291924Y415768D01*
X291914Y415881D01*
X291900Y415994D01*
X291883Y416106D01*
X291861Y416217D01*
X291836Y416327D01*
X291806Y416437D01*
X291773Y416545D01*
X291736Y416652D01*
X291696Y416758D01*
X291651Y416862D01*
X291603Y416965D01*
X291552Y417066D01*
X291497Y417165D01*
X291439Y417262D01*
X291377Y417357D01*
X291312Y417450D01*
X291244Y417540D01*
X291173Y417628D01*
X291098Y417714D01*
X291021Y417797D01*
X290941Y417877D01*
X290858Y417954D01*
X290772Y418029D01*
X290684Y418100D01*
X290594Y418168D01*
X290501Y418233D01*
X290406Y418295D01*
X290309Y418353D01*
X290210Y418408D01*
X290109Y418459D01*
X290006Y418507D01*
X289902Y418552D01*
X289796Y418592D01*
X289689Y418629D01*
X289581Y418662D01*
X289471Y418692D01*
X289361Y418717D01*
X289250Y418739D01*
X289138Y418756D01*
X289025Y418770D01*
X288912Y418780D01*
X288799Y418786D01*
X288686Y418788D01*
X283494Y418788D01*
X283381Y418786D01*
X283268Y418780D01*
X283155Y418770D01*
X283042Y418756D01*
X282930Y418739D01*
X282819Y418717D01*
X282709Y418692D01*
X282599Y418662D01*
X282491Y418629D01*
X282384Y418592D01*
X282278Y418552D01*
X282174Y418507D01*
X282071Y418459D01*
X281970Y418408D01*
X281871Y418353D01*
X281774Y418295D01*
X281679Y418233D01*
X281586Y418168D01*
X281496Y418100D01*
X281408Y418029D01*
X281322Y417954D01*
X281239Y417877D01*
X281159Y417797D01*
X281082Y417714D01*
X281007Y417628D01*
X280936Y417540D01*
X280868Y417450D01*
X280803Y417357D01*
X280741Y417262D01*
X280683Y417165D01*
X280628Y417066D01*
X280577Y416965D01*
X280529Y416862D01*
X280484Y416758D01*
X280444Y416652D01*
X280407Y416545D01*
X280374Y416437D01*
X280344Y416327D01*
X280319Y416217D01*
X280297Y416106D01*
X280280Y415994D01*
X280266Y415881D01*
X280256Y415768D01*
X280250Y415655D01*
X280248Y415542D01*
X280248Y412296D01*
D10*
X303729Y159838D02*
X315583Y159838D01*
X296728Y166752D02*
X291789Y170703D01*
X291789Y152923D01*
X296728Y152923D02*
X286850Y152923D01*
X279977Y152923D02*
X274051Y152923D01*
X273927Y152925D01*
X273803Y152931D01*
X273679Y152941D01*
X273556Y152954D01*
X273433Y152972D01*
X273311Y152993D01*
X273189Y153018D01*
X273068Y153047D01*
X272949Y153080D01*
X272830Y153116D01*
X272713Y153157D01*
X272597Y153200D01*
X272482Y153248D01*
X272369Y153299D01*
X272257Y153354D01*
X272148Y153412D01*
X272040Y153473D01*
X271934Y153538D01*
X271830Y153606D01*
X271729Y153678D01*
X271629Y153752D01*
X271533Y153830D01*
X271438Y153910D01*
X271346Y153994D01*
X271257Y154080D01*
X271171Y154169D01*
X271087Y154261D01*
X271007Y154356D01*
X270929Y154452D01*
X270855Y154552D01*
X270783Y154653D01*
X270715Y154757D01*
X270650Y154863D01*
X270589Y154971D01*
X270531Y155080D01*
X270476Y155192D01*
X270425Y155305D01*
X270377Y155420D01*
X270334Y155536D01*
X270293Y155653D01*
X270257Y155772D01*
X270224Y155891D01*
X270195Y156012D01*
X270170Y156134D01*
X270149Y156256D01*
X270131Y156379D01*
X270118Y156502D01*
X270108Y156626D01*
X270102Y156750D01*
X270100Y156874D01*
X270100Y158850D01*
X270102Y158974D01*
X270108Y159098D01*
X270118Y159222D01*
X270131Y159345D01*
X270149Y159468D01*
X270170Y159590D01*
X270195Y159712D01*
X270224Y159833D01*
X270257Y159952D01*
X270293Y160071D01*
X270334Y160188D01*
X270377Y160304D01*
X270425Y160419D01*
X270476Y160532D01*
X270531Y160644D01*
X270589Y160753D01*
X270650Y160861D01*
X270715Y160967D01*
X270783Y161071D01*
X270855Y161172D01*
X270929Y161272D01*
X271007Y161368D01*
X271087Y161463D01*
X271171Y161555D01*
X271257Y161644D01*
X271346Y161730D01*
X271438Y161814D01*
X271533Y161894D01*
X271629Y161972D01*
X271729Y162046D01*
X271830Y162118D01*
X271934Y162186D01*
X272040Y162251D01*
X272148Y162312D01*
X272257Y162370D01*
X272369Y162425D01*
X272482Y162476D01*
X272597Y162524D01*
X272713Y162567D01*
X272830Y162608D01*
X272949Y162644D01*
X273068Y162677D01*
X273189Y162706D01*
X273311Y162731D01*
X273433Y162752D01*
X273556Y162770D01*
X273679Y162783D01*
X273803Y162793D01*
X273927Y162799D01*
X274051Y162801D01*
X279977Y162801D01*
X279977Y170703D01*
X270100Y170703D01*
X264215Y170703D02*
X258288Y152923D01*
X252361Y170703D01*
X206363Y161108D02*
X194509Y161108D01*
X200436Y167034D02*
X200436Y155181D01*
X187508Y168022D02*
X182569Y171973D01*
X182569Y154193D01*
X187508Y154193D02*
X177630Y154193D01*
X170757Y154193D02*
X164831Y154193D01*
X164707Y154195D01*
X164583Y154201D01*
X164459Y154211D01*
X164336Y154224D01*
X164213Y154242D01*
X164091Y154263D01*
X163969Y154288D01*
X163848Y154317D01*
X163729Y154350D01*
X163610Y154386D01*
X163493Y154427D01*
X163377Y154470D01*
X163262Y154518D01*
X163149Y154569D01*
X163037Y154624D01*
X162928Y154682D01*
X162820Y154743D01*
X162714Y154808D01*
X162610Y154876D01*
X162509Y154948D01*
X162409Y155022D01*
X162313Y155100D01*
X162218Y155180D01*
X162126Y155264D01*
X162037Y155350D01*
X161951Y155439D01*
X161867Y155531D01*
X161787Y155626D01*
X161709Y155722D01*
X161635Y155822D01*
X161563Y155923D01*
X161495Y156027D01*
X161430Y156133D01*
X161369Y156241D01*
X161311Y156350D01*
X161256Y156462D01*
X161205Y156575D01*
X161157Y156690D01*
X161114Y156806D01*
X161073Y156923D01*
X161037Y157042D01*
X161004Y157161D01*
X160975Y157282D01*
X160950Y157404D01*
X160929Y157526D01*
X160911Y157649D01*
X160898Y157772D01*
X160888Y157896D01*
X160882Y158020D01*
X160880Y158144D01*
X160880Y160120D01*
X160882Y160244D01*
X160888Y160368D01*
X160898Y160492D01*
X160911Y160615D01*
X160929Y160738D01*
X160950Y160860D01*
X160975Y160982D01*
X161004Y161103D01*
X161037Y161222D01*
X161073Y161341D01*
X161114Y161458D01*
X161157Y161574D01*
X161205Y161689D01*
X161256Y161802D01*
X161311Y161914D01*
X161369Y162023D01*
X161430Y162131D01*
X161495Y162237D01*
X161563Y162341D01*
X161635Y162442D01*
X161709Y162542D01*
X161787Y162638D01*
X161867Y162733D01*
X161951Y162825D01*
X162037Y162914D01*
X162126Y163000D01*
X162218Y163084D01*
X162313Y163164D01*
X162409Y163242D01*
X162509Y163316D01*
X162610Y163388D01*
X162714Y163456D01*
X162820Y163521D01*
X162928Y163582D01*
X163037Y163640D01*
X163149Y163695D01*
X163262Y163746D01*
X163377Y163794D01*
X163493Y163837D01*
X163610Y163878D01*
X163729Y163914D01*
X163848Y163947D01*
X163969Y163976D01*
X164091Y164001D01*
X164213Y164022D01*
X164336Y164040D01*
X164459Y164053D01*
X164583Y164063D01*
X164707Y164069D01*
X164831Y164071D01*
X170757Y164071D01*
X170757Y171973D01*
X160880Y171973D01*
X154995Y171973D02*
X149068Y154193D01*
X143141Y171973D01*
X242290Y115811D02*
X245254Y115811D01*
X242290Y115811D02*
X242290Y105933D01*
X248217Y105933D01*
X248341Y105935D01*
X248465Y105941D01*
X248589Y105951D01*
X248712Y105964D01*
X248835Y105982D01*
X248957Y106003D01*
X249079Y106028D01*
X249200Y106057D01*
X249319Y106090D01*
X249438Y106126D01*
X249555Y106167D01*
X249671Y106210D01*
X249786Y106258D01*
X249899Y106309D01*
X250011Y106364D01*
X250120Y106422D01*
X250228Y106483D01*
X250334Y106548D01*
X250438Y106616D01*
X250539Y106688D01*
X250639Y106762D01*
X250735Y106840D01*
X250830Y106920D01*
X250922Y107004D01*
X251011Y107090D01*
X251097Y107179D01*
X251181Y107271D01*
X251261Y107366D01*
X251339Y107462D01*
X251413Y107562D01*
X251485Y107663D01*
X251553Y107767D01*
X251618Y107873D01*
X251679Y107981D01*
X251737Y108090D01*
X251792Y108202D01*
X251843Y108315D01*
X251891Y108430D01*
X251934Y108546D01*
X251975Y108663D01*
X252011Y108782D01*
X252044Y108901D01*
X252073Y109022D01*
X252098Y109144D01*
X252119Y109266D01*
X252137Y109389D01*
X252150Y109512D01*
X252160Y109636D01*
X252166Y109760D01*
X252168Y109884D01*
X252168Y119762D01*
X252166Y119886D01*
X252160Y120010D01*
X252150Y120134D01*
X252137Y120257D01*
X252119Y120380D01*
X252098Y120502D01*
X252073Y120624D01*
X252044Y120745D01*
X252011Y120864D01*
X251975Y120983D01*
X251934Y121100D01*
X251891Y121216D01*
X251843Y121331D01*
X251792Y121444D01*
X251737Y121556D01*
X251679Y121665D01*
X251618Y121773D01*
X251553Y121879D01*
X251485Y121983D01*
X251413Y122084D01*
X251339Y122184D01*
X251261Y122280D01*
X251181Y122375D01*
X251097Y122467D01*
X251011Y122556D01*
X250922Y122642D01*
X250830Y122726D01*
X250735Y122806D01*
X250639Y122884D01*
X250539Y122958D01*
X250438Y123030D01*
X250334Y123098D01*
X250228Y123163D01*
X250120Y123224D01*
X250011Y123282D01*
X249899Y123337D01*
X249786Y123388D01*
X249672Y123436D01*
X249555Y123479D01*
X249438Y123520D01*
X249319Y123556D01*
X249200Y123589D01*
X249079Y123618D01*
X248957Y123643D01*
X248835Y123664D01*
X248712Y123682D01*
X248589Y123695D01*
X248465Y123705D01*
X248341Y123711D01*
X248217Y123713D01*
X242290Y123713D01*
X234301Y123713D02*
X234301Y105933D01*
X224423Y105933D02*
X234301Y123713D01*
X224423Y123713D02*
X224423Y105933D01*
X216434Y105933D02*
X216434Y123713D01*
X211495Y123713D01*
X211356Y123711D01*
X211218Y123705D01*
X211080Y123696D01*
X210942Y123682D01*
X210805Y123665D01*
X210668Y123643D01*
X210531Y123618D01*
X210396Y123589D01*
X210261Y123556D01*
X210128Y123520D01*
X209995Y123480D01*
X209864Y123436D01*
X209734Y123388D01*
X209605Y123337D01*
X209478Y123282D01*
X209352Y123224D01*
X209228Y123162D01*
X209106Y123097D01*
X208986Y123028D01*
X208867Y122956D01*
X208751Y122881D01*
X208637Y122802D01*
X208525Y122720D01*
X208416Y122635D01*
X208308Y122548D01*
X208204Y122457D01*
X208102Y122363D01*
X208003Y122266D01*
X207906Y122167D01*
X207812Y122065D01*
X207721Y121961D01*
X207634Y121853D01*
X207549Y121744D01*
X207467Y121632D01*
X207388Y121518D01*
X207313Y121402D01*
X207241Y121283D01*
X207172Y121163D01*
X207107Y121041D01*
X207045Y120917D01*
X206987Y120791D01*
X206932Y120664D01*
X206881Y120535D01*
X206833Y120405D01*
X206789Y120274D01*
X206749Y120141D01*
X206713Y120008D01*
X206680Y119873D01*
X206651Y119738D01*
X206626Y119601D01*
X206604Y119464D01*
X206587Y119327D01*
X206573Y119189D01*
X206564Y119051D01*
X206558Y118913D01*
X206556Y118774D01*
X206556Y110872D01*
X206558Y110733D01*
X206564Y110595D01*
X206573Y110457D01*
X206587Y110319D01*
X206604Y110182D01*
X206626Y110045D01*
X206651Y109908D01*
X206680Y109773D01*
X206713Y109638D01*
X206749Y109505D01*
X206789Y109372D01*
X206833Y109241D01*
X206881Y109111D01*
X206932Y108982D01*
X206987Y108855D01*
X207045Y108729D01*
X207107Y108605D01*
X207172Y108483D01*
X207241Y108363D01*
X207313Y108244D01*
X207388Y108128D01*
X207467Y108014D01*
X207549Y107902D01*
X207634Y107793D01*
X207721Y107685D01*
X207812Y107581D01*
X207906Y107479D01*
X208003Y107380D01*
X208102Y107283D01*
X208204Y107189D01*
X208308Y107098D01*
X208416Y107011D01*
X208525Y106926D01*
X208637Y106844D01*
X208751Y106765D01*
X208867Y106690D01*
X208986Y106618D01*
X209106Y106549D01*
X209228Y106484D01*
X209352Y106422D01*
X209478Y106364D01*
X209605Y106309D01*
X209734Y106258D01*
X209864Y106210D01*
X209995Y106166D01*
X210128Y106126D01*
X210261Y106090D01*
X210396Y106057D01*
X210531Y106028D01*
X210668Y106003D01*
X210805Y105981D01*
X210942Y105964D01*
X211080Y105950D01*
X211218Y105941D01*
X211356Y105935D01*
X211495Y105933D01*
X216434Y105933D01*
X345776Y596040D02*
X345776Y613820D01*
X340838Y613820D01*
X340698Y613818D01*
X340559Y613812D01*
X340419Y613802D01*
X340280Y613788D01*
X340141Y613771D01*
X340003Y613749D01*
X339866Y613723D01*
X339729Y613694D01*
X339593Y613661D01*
X339459Y613624D01*
X339325Y613583D01*
X339193Y613538D01*
X339061Y613489D01*
X338932Y613437D01*
X338804Y613382D01*
X338677Y613322D01*
X338552Y613259D01*
X338429Y613193D01*
X338308Y613123D01*
X338189Y613050D01*
X338072Y612973D01*
X337958Y612893D01*
X337845Y612810D01*
X337735Y612724D01*
X337628Y612634D01*
X337523Y612542D01*
X337421Y612447D01*
X337321Y612349D01*
X337224Y612248D01*
X337130Y612144D01*
X337040Y612038D01*
X336952Y611929D01*
X336867Y611818D01*
X336786Y611704D01*
X336707Y611589D01*
X336632Y611471D01*
X336561Y611351D01*
X336493Y611228D01*
X336428Y611105D01*
X336367Y610979D01*
X336309Y610851D01*
X336255Y610723D01*
X336205Y610592D01*
X336158Y610460D01*
X336115Y610327D01*
X336076Y610193D01*
X336041Y610058D01*
X336010Y609922D01*
X335982Y609784D01*
X335959Y609647D01*
X335939Y609508D01*
X335923Y609369D01*
X335911Y609230D01*
X335903Y609091D01*
X335899Y608951D01*
X335899Y608811D01*
X335903Y608671D01*
X335911Y608532D01*
X335923Y608393D01*
X335939Y608254D01*
X335959Y608115D01*
X335982Y607978D01*
X336010Y607840D01*
X336041Y607704D01*
X336076Y607569D01*
X336115Y607435D01*
X336158Y607302D01*
X336205Y607170D01*
X336255Y607039D01*
X336309Y606911D01*
X336367Y606783D01*
X336428Y606657D01*
X336493Y606534D01*
X336561Y606412D01*
X336632Y606291D01*
X336707Y606173D01*
X336786Y606058D01*
X336867Y605944D01*
X336952Y605833D01*
X337040Y605724D01*
X337130Y605618D01*
X337224Y605514D01*
X337321Y605413D01*
X337421Y605315D01*
X337523Y605220D01*
X337628Y605128D01*
X337735Y605038D01*
X337845Y604952D01*
X337958Y604869D01*
X338072Y604789D01*
X338189Y604712D01*
X338308Y604639D01*
X338429Y604569D01*
X338552Y604503D01*
X338677Y604440D01*
X338804Y604380D01*
X338932Y604325D01*
X339061Y604273D01*
X339193Y604224D01*
X339325Y604179D01*
X339459Y604138D01*
X339593Y604101D01*
X339729Y604068D01*
X339866Y604039D01*
X340003Y604013D01*
X340141Y603991D01*
X340280Y603974D01*
X340419Y603960D01*
X340559Y603950D01*
X340698Y603944D01*
X340838Y603942D01*
X345776Y603942D01*
X329781Y609869D02*
X324842Y613820D01*
X324842Y596040D01*
X319904Y596040D02*
X329781Y596040D01*
X143846Y597310D02*
X143846Y615090D01*
X138908Y615090D01*
X138768Y615088D01*
X138629Y615082D01*
X138489Y615072D01*
X138350Y615058D01*
X138211Y615041D01*
X138073Y615019D01*
X137936Y614993D01*
X137799Y614964D01*
X137663Y614931D01*
X137529Y614894D01*
X137395Y614853D01*
X137263Y614808D01*
X137131Y614759D01*
X137002Y614707D01*
X136874Y614652D01*
X136747Y614592D01*
X136622Y614529D01*
X136499Y614463D01*
X136378Y614393D01*
X136259Y614320D01*
X136142Y614243D01*
X136028Y614163D01*
X135915Y614080D01*
X135805Y613994D01*
X135698Y613904D01*
X135593Y613812D01*
X135491Y613717D01*
X135391Y613619D01*
X135294Y613518D01*
X135200Y613414D01*
X135110Y613308D01*
X135022Y613199D01*
X134937Y613088D01*
X134856Y612974D01*
X134777Y612859D01*
X134702Y612741D01*
X134631Y612621D01*
X134563Y612498D01*
X134498Y612375D01*
X134437Y612249D01*
X134379Y612121D01*
X134325Y611993D01*
X134275Y611862D01*
X134228Y611730D01*
X134185Y611597D01*
X134146Y611463D01*
X134111Y611328D01*
X134080Y611192D01*
X134052Y611054D01*
X134029Y610917D01*
X134009Y610778D01*
X133993Y610639D01*
X133981Y610500D01*
X133973Y610361D01*
X133969Y610221D01*
X133969Y610081D01*
X133973Y609941D01*
X133981Y609802D01*
X133993Y609663D01*
X134009Y609524D01*
X134029Y609385D01*
X134052Y609248D01*
X134080Y609110D01*
X134111Y608974D01*
X134146Y608839D01*
X134185Y608705D01*
X134228Y608572D01*
X134275Y608440D01*
X134325Y608309D01*
X134379Y608181D01*
X134437Y608053D01*
X134498Y607927D01*
X134563Y607804D01*
X134631Y607682D01*
X134702Y607561D01*
X134777Y607443D01*
X134856Y607328D01*
X134937Y607214D01*
X135022Y607103D01*
X135110Y606994D01*
X135200Y606888D01*
X135294Y606784D01*
X135391Y606683D01*
X135491Y606585D01*
X135593Y606490D01*
X135698Y606398D01*
X135805Y606308D01*
X135915Y606222D01*
X136028Y606139D01*
X136142Y606059D01*
X136259Y605982D01*
X136378Y605909D01*
X136499Y605839D01*
X136622Y605773D01*
X136747Y605710D01*
X136874Y605650D01*
X137002Y605595D01*
X137131Y605543D01*
X137263Y605494D01*
X137395Y605449D01*
X137529Y605408D01*
X137663Y605371D01*
X137799Y605338D01*
X137936Y605309D01*
X138073Y605283D01*
X138211Y605261D01*
X138350Y605244D01*
X138489Y605230D01*
X138629Y605220D01*
X138768Y605214D01*
X138908Y605212D01*
X143846Y605212D01*
X127851Y602249D02*
X127849Y602389D01*
X127843Y602528D01*
X127833Y602668D01*
X127819Y602807D01*
X127802Y602946D01*
X127780Y603084D01*
X127754Y603221D01*
X127725Y603358D01*
X127692Y603494D01*
X127655Y603628D01*
X127614Y603762D01*
X127569Y603894D01*
X127520Y604026D01*
X127468Y604155D01*
X127413Y604283D01*
X127353Y604410D01*
X127290Y604535D01*
X127224Y604658D01*
X127154Y604779D01*
X127081Y604898D01*
X127004Y605015D01*
X126924Y605129D01*
X126841Y605242D01*
X126755Y605352D01*
X126665Y605459D01*
X126573Y605564D01*
X126478Y605666D01*
X126380Y605766D01*
X126279Y605863D01*
X126175Y605957D01*
X126069Y606047D01*
X125960Y606135D01*
X125849Y606220D01*
X125735Y606301D01*
X125620Y606380D01*
X125502Y606455D01*
X125382Y606526D01*
X125259Y606594D01*
X125136Y606659D01*
X125010Y606720D01*
X124882Y606778D01*
X124754Y606832D01*
X124623Y606882D01*
X124491Y606929D01*
X124358Y606972D01*
X124224Y607011D01*
X124089Y607046D01*
X123953Y607077D01*
X123815Y607105D01*
X123678Y607128D01*
X123539Y607148D01*
X123400Y607164D01*
X123261Y607176D01*
X123122Y607184D01*
X122982Y607188D01*
X122842Y607188D01*
X122702Y607184D01*
X122563Y607176D01*
X122424Y607164D01*
X122285Y607148D01*
X122146Y607128D01*
X122009Y607105D01*
X121871Y607077D01*
X121735Y607046D01*
X121600Y607011D01*
X121466Y606972D01*
X121333Y606929D01*
X121201Y606882D01*
X121070Y606832D01*
X120942Y606778D01*
X120814Y606720D01*
X120688Y606659D01*
X120565Y606594D01*
X120443Y606526D01*
X120322Y606455D01*
X120204Y606380D01*
X120089Y606301D01*
X119975Y606220D01*
X119864Y606135D01*
X119755Y606047D01*
X119649Y605957D01*
X119545Y605863D01*
X119444Y605766D01*
X119346Y605666D01*
X119251Y605564D01*
X119159Y605459D01*
X119069Y605352D01*
X118983Y605242D01*
X118900Y605129D01*
X118820Y605015D01*
X118743Y604898D01*
X118670Y604779D01*
X118600Y604658D01*
X118534Y604535D01*
X118471Y604410D01*
X118411Y604283D01*
X118356Y604155D01*
X118304Y604026D01*
X118255Y603894D01*
X118210Y603762D01*
X118169Y603628D01*
X118132Y603494D01*
X118099Y603358D01*
X118070Y603221D01*
X118044Y603084D01*
X118022Y602946D01*
X118005Y602807D01*
X117991Y602668D01*
X117981Y602528D01*
X117975Y602389D01*
X117973Y602249D01*
X117975Y602109D01*
X117981Y601970D01*
X117991Y601830D01*
X118005Y601691D01*
X118022Y601552D01*
X118044Y601414D01*
X118070Y601277D01*
X118099Y601140D01*
X118132Y601004D01*
X118169Y600870D01*
X118210Y600736D01*
X118255Y600604D01*
X118304Y600472D01*
X118356Y600343D01*
X118411Y600215D01*
X118471Y600088D01*
X118534Y599963D01*
X118600Y599840D01*
X118670Y599719D01*
X118743Y599600D01*
X118820Y599483D01*
X118900Y599369D01*
X118983Y599256D01*
X119069Y599146D01*
X119159Y599039D01*
X119251Y598934D01*
X119346Y598832D01*
X119444Y598732D01*
X119545Y598635D01*
X119649Y598541D01*
X119755Y598451D01*
X119864Y598363D01*
X119975Y598278D01*
X120089Y598197D01*
X120204Y598118D01*
X120322Y598043D01*
X120443Y597972D01*
X120565Y597904D01*
X120688Y597839D01*
X120814Y597778D01*
X120942Y597720D01*
X121070Y597666D01*
X121201Y597616D01*
X121333Y597569D01*
X121466Y597526D01*
X121600Y597487D01*
X121735Y597452D01*
X121871Y597421D01*
X122009Y597393D01*
X122146Y597370D01*
X122285Y597350D01*
X122424Y597334D01*
X122563Y597322D01*
X122702Y597314D01*
X122842Y597310D01*
X122982Y597310D01*
X123122Y597314D01*
X123261Y597322D01*
X123400Y597334D01*
X123539Y597350D01*
X123678Y597370D01*
X123815Y597393D01*
X123953Y597421D01*
X124089Y597452D01*
X124224Y597487D01*
X124358Y597526D01*
X124491Y597569D01*
X124623Y597616D01*
X124754Y597666D01*
X124882Y597720D01*
X125010Y597778D01*
X125136Y597839D01*
X125259Y597904D01*
X125382Y597972D01*
X125502Y598043D01*
X125620Y598118D01*
X125735Y598197D01*
X125849Y598278D01*
X125960Y598363D01*
X126069Y598451D01*
X126175Y598541D01*
X126279Y598635D01*
X126380Y598732D01*
X126478Y598832D01*
X126573Y598934D01*
X126665Y599039D01*
X126755Y599146D01*
X126841Y599256D01*
X126924Y599369D01*
X127004Y599483D01*
X127081Y599600D01*
X127154Y599719D01*
X127224Y599840D01*
X127290Y599963D01*
X127353Y600088D01*
X127413Y600215D01*
X127468Y600343D01*
X127520Y600472D01*
X127569Y600604D01*
X127614Y600736D01*
X127655Y600870D01*
X127692Y601004D01*
X127725Y601140D01*
X127754Y601277D01*
X127780Y601414D01*
X127802Y601552D01*
X127819Y601691D01*
X127833Y601830D01*
X127843Y601970D01*
X127849Y602109D01*
X127851Y602249D01*
X126863Y611139D02*
X126861Y611263D01*
X126855Y611387D01*
X126845Y611511D01*
X126832Y611634D01*
X126814Y611757D01*
X126793Y611879D01*
X126768Y612001D01*
X126739Y612122D01*
X126706Y612241D01*
X126670Y612360D01*
X126629Y612477D01*
X126586Y612593D01*
X126538Y612708D01*
X126487Y612821D01*
X126432Y612933D01*
X126374Y613042D01*
X126313Y613150D01*
X126248Y613256D01*
X126180Y613360D01*
X126108Y613461D01*
X126034Y613561D01*
X125956Y613657D01*
X125876Y613752D01*
X125792Y613844D01*
X125706Y613933D01*
X125617Y614019D01*
X125525Y614103D01*
X125430Y614183D01*
X125334Y614261D01*
X125234Y614335D01*
X125133Y614407D01*
X125029Y614475D01*
X124923Y614540D01*
X124815Y614601D01*
X124706Y614659D01*
X124594Y614714D01*
X124481Y614765D01*
X124366Y614813D01*
X124250Y614856D01*
X124133Y614897D01*
X124014Y614933D01*
X123895Y614966D01*
X123774Y614995D01*
X123652Y615020D01*
X123530Y615041D01*
X123407Y615059D01*
X123284Y615072D01*
X123160Y615082D01*
X123036Y615088D01*
X122912Y615090D01*
X122788Y615088D01*
X122664Y615082D01*
X122540Y615072D01*
X122417Y615059D01*
X122294Y615041D01*
X122172Y615020D01*
X122050Y614995D01*
X121929Y614966D01*
X121810Y614933D01*
X121691Y614897D01*
X121574Y614856D01*
X121458Y614813D01*
X121343Y614765D01*
X121230Y614714D01*
X121118Y614659D01*
X121009Y614601D01*
X120901Y614540D01*
X120795Y614475D01*
X120691Y614407D01*
X120590Y614335D01*
X120490Y614261D01*
X120394Y614183D01*
X120299Y614103D01*
X120207Y614019D01*
X120118Y613933D01*
X120032Y613844D01*
X119948Y613752D01*
X119868Y613657D01*
X119790Y613561D01*
X119716Y613461D01*
X119644Y613360D01*
X119576Y613256D01*
X119511Y613150D01*
X119450Y613042D01*
X119392Y612933D01*
X119337Y612821D01*
X119286Y612708D01*
X119238Y612593D01*
X119195Y612477D01*
X119154Y612360D01*
X119118Y612241D01*
X119085Y612122D01*
X119056Y612001D01*
X119031Y611879D01*
X119010Y611757D01*
X118992Y611634D01*
X118979Y611511D01*
X118969Y611387D01*
X118963Y611263D01*
X118961Y611139D01*
X118963Y611015D01*
X118969Y610891D01*
X118979Y610767D01*
X118992Y610644D01*
X119010Y610521D01*
X119031Y610399D01*
X119056Y610277D01*
X119085Y610156D01*
X119118Y610037D01*
X119154Y609918D01*
X119195Y609801D01*
X119238Y609685D01*
X119286Y609570D01*
X119337Y609457D01*
X119392Y609345D01*
X119450Y609236D01*
X119511Y609128D01*
X119576Y609022D01*
X119644Y608918D01*
X119716Y608817D01*
X119790Y608717D01*
X119868Y608621D01*
X119948Y608526D01*
X120032Y608434D01*
X120118Y608345D01*
X120207Y608259D01*
X120299Y608175D01*
X120394Y608095D01*
X120490Y608017D01*
X120590Y607943D01*
X120691Y607871D01*
X120795Y607803D01*
X120901Y607738D01*
X121009Y607677D01*
X121118Y607619D01*
X121230Y607564D01*
X121343Y607513D01*
X121458Y607465D01*
X121574Y607422D01*
X121691Y607381D01*
X121810Y607345D01*
X121929Y607312D01*
X122050Y607283D01*
X122172Y607258D01*
X122294Y607237D01*
X122417Y607219D01*
X122540Y607206D01*
X122664Y607196D01*
X122788Y607190D01*
X122912Y607188D01*
X123036Y607190D01*
X123160Y607196D01*
X123284Y607206D01*
X123407Y607219D01*
X123530Y607237D01*
X123652Y607258D01*
X123774Y607283D01*
X123895Y607312D01*
X124014Y607345D01*
X124133Y607381D01*
X124250Y607422D01*
X124366Y607465D01*
X124481Y607513D01*
X124594Y607564D01*
X124706Y607619D01*
X124815Y607677D01*
X124923Y607738D01*
X125029Y607803D01*
X125133Y607871D01*
X125234Y607943D01*
X125334Y608017D01*
X125430Y608095D01*
X125525Y608175D01*
X125617Y608259D01*
X125706Y608345D01*
X125792Y608434D01*
X125876Y608526D01*
X125956Y608621D01*
X126034Y608717D01*
X126108Y608817D01*
X126180Y608918D01*
X126248Y609022D01*
X126313Y609128D01*
X126374Y609236D01*
X126432Y609345D01*
X126487Y609457D01*
X126538Y609570D01*
X126586Y609685D01*
X126629Y609801D01*
X126670Y609918D01*
X126706Y610037D01*
X126739Y610156D01*
X126768Y610277D01*
X126793Y610399D01*
X126814Y610521D01*
X126832Y610644D01*
X126845Y610767D01*
X126855Y610891D01*
X126861Y611015D01*
X126863Y611139D01*
X147656Y484280D02*
X147656Y466500D01*
X147656Y484280D02*
X142718Y484280D01*
X142578Y484278D01*
X142439Y484272D01*
X142299Y484262D01*
X142160Y484248D01*
X142021Y484231D01*
X141883Y484209D01*
X141746Y484183D01*
X141609Y484154D01*
X141473Y484121D01*
X141339Y484084D01*
X141205Y484043D01*
X141073Y483998D01*
X140941Y483949D01*
X140812Y483897D01*
X140684Y483842D01*
X140557Y483782D01*
X140432Y483719D01*
X140309Y483653D01*
X140188Y483583D01*
X140069Y483510D01*
X139952Y483433D01*
X139838Y483353D01*
X139725Y483270D01*
X139615Y483184D01*
X139508Y483094D01*
X139403Y483002D01*
X139301Y482907D01*
X139201Y482809D01*
X139104Y482708D01*
X139010Y482604D01*
X138920Y482498D01*
X138832Y482389D01*
X138747Y482278D01*
X138666Y482164D01*
X138587Y482049D01*
X138512Y481931D01*
X138441Y481811D01*
X138373Y481688D01*
X138308Y481565D01*
X138247Y481439D01*
X138189Y481311D01*
X138135Y481183D01*
X138085Y481052D01*
X138038Y480920D01*
X137995Y480787D01*
X137956Y480653D01*
X137921Y480518D01*
X137890Y480382D01*
X137862Y480244D01*
X137839Y480107D01*
X137819Y479968D01*
X137803Y479829D01*
X137791Y479690D01*
X137783Y479551D01*
X137779Y479411D01*
X137779Y479271D01*
X137783Y479131D01*
X137791Y478992D01*
X137803Y478853D01*
X137819Y478714D01*
X137839Y478575D01*
X137862Y478438D01*
X137890Y478300D01*
X137921Y478164D01*
X137956Y478029D01*
X137995Y477895D01*
X138038Y477762D01*
X138085Y477630D01*
X138135Y477499D01*
X138189Y477371D01*
X138247Y477243D01*
X138308Y477117D01*
X138373Y476994D01*
X138441Y476872D01*
X138512Y476751D01*
X138587Y476633D01*
X138666Y476518D01*
X138747Y476404D01*
X138832Y476293D01*
X138920Y476184D01*
X139010Y476078D01*
X139104Y475974D01*
X139201Y475873D01*
X139301Y475775D01*
X139403Y475680D01*
X139508Y475588D01*
X139615Y475498D01*
X139725Y475412D01*
X139838Y475329D01*
X139952Y475249D01*
X140069Y475172D01*
X140188Y475099D01*
X140309Y475029D01*
X140432Y474963D01*
X140557Y474900D01*
X140684Y474840D01*
X140812Y474785D01*
X140941Y474733D01*
X141073Y474684D01*
X141205Y474639D01*
X141339Y474598D01*
X141473Y474561D01*
X141609Y474528D01*
X141746Y474499D01*
X141883Y474473D01*
X142021Y474451D01*
X142160Y474434D01*
X142299Y474420D01*
X142439Y474410D01*
X142578Y474404D01*
X142718Y474402D01*
X147656Y474402D01*
X131661Y482304D02*
X131661Y484280D01*
X121784Y484280D01*
X126722Y466500D01*
X338168Y464660D02*
X338168Y482440D01*
X333229Y482440D01*
X333089Y482438D01*
X332950Y482432D01*
X332810Y482422D01*
X332671Y482408D01*
X332532Y482391D01*
X332394Y482369D01*
X332257Y482343D01*
X332120Y482314D01*
X331984Y482281D01*
X331850Y482244D01*
X331716Y482203D01*
X331584Y482158D01*
X331452Y482109D01*
X331323Y482057D01*
X331195Y482002D01*
X331068Y481942D01*
X330943Y481879D01*
X330820Y481813D01*
X330699Y481743D01*
X330580Y481670D01*
X330463Y481593D01*
X330349Y481513D01*
X330236Y481430D01*
X330126Y481344D01*
X330019Y481254D01*
X329914Y481162D01*
X329812Y481067D01*
X329712Y480969D01*
X329615Y480868D01*
X329521Y480764D01*
X329431Y480658D01*
X329343Y480549D01*
X329258Y480438D01*
X329177Y480324D01*
X329098Y480209D01*
X329023Y480091D01*
X328952Y479971D01*
X328884Y479848D01*
X328819Y479725D01*
X328758Y479599D01*
X328700Y479471D01*
X328646Y479343D01*
X328596Y479212D01*
X328549Y479080D01*
X328506Y478947D01*
X328467Y478813D01*
X328432Y478678D01*
X328401Y478542D01*
X328373Y478404D01*
X328350Y478267D01*
X328330Y478128D01*
X328314Y477989D01*
X328302Y477850D01*
X328294Y477711D01*
X328290Y477571D01*
X328290Y477431D01*
X328294Y477291D01*
X328302Y477152D01*
X328314Y477013D01*
X328330Y476874D01*
X328350Y476735D01*
X328373Y476598D01*
X328401Y476460D01*
X328432Y476324D01*
X328467Y476189D01*
X328506Y476055D01*
X328549Y475922D01*
X328596Y475790D01*
X328646Y475659D01*
X328700Y475531D01*
X328758Y475403D01*
X328819Y475277D01*
X328884Y475154D01*
X328952Y475032D01*
X329023Y474911D01*
X329098Y474793D01*
X329177Y474678D01*
X329258Y474564D01*
X329343Y474453D01*
X329431Y474344D01*
X329521Y474238D01*
X329615Y474134D01*
X329712Y474033D01*
X329812Y473935D01*
X329914Y473840D01*
X330019Y473748D01*
X330126Y473658D01*
X330236Y473572D01*
X330349Y473489D01*
X330463Y473409D01*
X330580Y473332D01*
X330699Y473259D01*
X330820Y473189D01*
X330943Y473123D01*
X331068Y473060D01*
X331195Y473000D01*
X331323Y472945D01*
X331452Y472893D01*
X331584Y472844D01*
X331716Y472799D01*
X331850Y472758D01*
X331984Y472721D01*
X332120Y472688D01*
X332257Y472659D01*
X332394Y472633D01*
X332532Y472611D01*
X332671Y472594D01*
X332810Y472580D01*
X332950Y472570D01*
X333089Y472564D01*
X333229Y472562D01*
X338168Y472562D01*
X316740Y482440D02*
X316608Y482438D01*
X316477Y482432D01*
X316345Y482422D01*
X316214Y482409D01*
X316084Y482391D01*
X315954Y482370D01*
X315824Y482345D01*
X315696Y482316D01*
X315568Y482283D01*
X315442Y482246D01*
X315316Y482206D01*
X315192Y482162D01*
X315069Y482114D01*
X314948Y482063D01*
X314828Y482008D01*
X314710Y481950D01*
X314594Y481888D01*
X314480Y481822D01*
X314367Y481754D01*
X314257Y481682D01*
X314149Y481607D01*
X314043Y481528D01*
X313939Y481447D01*
X313838Y481362D01*
X313740Y481275D01*
X313644Y481184D01*
X313551Y481091D01*
X313460Y480995D01*
X313373Y480897D01*
X313288Y480796D01*
X313207Y480692D01*
X313128Y480586D01*
X313053Y480478D01*
X312981Y480368D01*
X312913Y480255D01*
X312847Y480141D01*
X312785Y480025D01*
X312727Y479907D01*
X312672Y479787D01*
X312621Y479666D01*
X312573Y479543D01*
X312529Y479419D01*
X312489Y479293D01*
X312452Y479167D01*
X312419Y479039D01*
X312390Y478911D01*
X312365Y478781D01*
X312344Y478651D01*
X312326Y478521D01*
X312313Y478390D01*
X312303Y478258D01*
X312297Y478127D01*
X312295Y477995D01*
X316740Y482440D02*
X316890Y482438D01*
X317039Y482432D01*
X317188Y482422D01*
X317337Y482409D01*
X317486Y482391D01*
X317634Y482370D01*
X317782Y482344D01*
X317928Y482315D01*
X318074Y482282D01*
X318219Y482245D01*
X318363Y482204D01*
X318506Y482160D01*
X318648Y482112D01*
X318788Y482060D01*
X318927Y482005D01*
X319065Y481946D01*
X319200Y481883D01*
X319335Y481817D01*
X319467Y481747D01*
X319597Y481674D01*
X319726Y481597D01*
X319853Y481517D01*
X319977Y481434D01*
X320099Y481348D01*
X320219Y481258D01*
X320336Y481165D01*
X320451Y481070D01*
X320564Y480971D01*
X320674Y480869D01*
X320781Y480765D01*
X320885Y480658D01*
X320987Y480548D01*
X321085Y480435D01*
X321181Y480320D01*
X321273Y480202D01*
X321363Y480082D01*
X321449Y479960D01*
X321532Y479836D01*
X321612Y479709D01*
X321688Y479581D01*
X321761Y479450D01*
X321831Y479317D01*
X321897Y479183D01*
X321959Y479047D01*
X322018Y478910D01*
X322074Y478771D01*
X322125Y478630D01*
X322173Y478489D01*
X313777Y474538D02*
X313681Y474631D01*
X313589Y474727D01*
X313499Y474826D01*
X313412Y474927D01*
X313328Y475030D01*
X313246Y475135D01*
X313168Y475243D01*
X313093Y475353D01*
X313020Y475465D01*
X312951Y475579D01*
X312885Y475695D01*
X312823Y475813D01*
X312764Y475932D01*
X312708Y476053D01*
X312655Y476176D01*
X312606Y476300D01*
X312561Y476425D01*
X312518Y476552D01*
X312480Y476679D01*
X312445Y476808D01*
X312414Y476937D01*
X312386Y477068D01*
X312362Y477199D01*
X312341Y477331D01*
X312325Y477463D01*
X312312Y477596D01*
X312302Y477729D01*
X312297Y477862D01*
X312295Y477995D01*
X313777Y474538D02*
X322173Y464660D01*
X312295Y464660D01*
X299925Y471574D02*
X299925Y477501D01*
X299925Y471574D02*
X296468Y467129D01*
X299925Y471574D02*
X303382Y467129D01*
X299925Y471574D02*
X294492Y473550D01*
X299925Y471574D02*
X305358Y473550D01*
X338156Y354740D02*
X338156Y336960D01*
X338156Y354740D02*
X333218Y354740D01*
X333078Y354738D01*
X332939Y354732D01*
X332799Y354722D01*
X332660Y354708D01*
X332521Y354691D01*
X332383Y354669D01*
X332246Y354643D01*
X332109Y354614D01*
X331973Y354581D01*
X331839Y354544D01*
X331705Y354503D01*
X331573Y354458D01*
X331441Y354409D01*
X331312Y354357D01*
X331184Y354302D01*
X331057Y354242D01*
X330932Y354179D01*
X330809Y354113D01*
X330688Y354043D01*
X330569Y353970D01*
X330452Y353893D01*
X330338Y353813D01*
X330225Y353730D01*
X330115Y353644D01*
X330008Y353554D01*
X329903Y353462D01*
X329801Y353367D01*
X329701Y353269D01*
X329604Y353168D01*
X329510Y353064D01*
X329420Y352958D01*
X329332Y352849D01*
X329247Y352738D01*
X329166Y352624D01*
X329087Y352509D01*
X329012Y352391D01*
X328941Y352271D01*
X328873Y352148D01*
X328808Y352025D01*
X328747Y351899D01*
X328689Y351771D01*
X328635Y351643D01*
X328585Y351512D01*
X328538Y351380D01*
X328495Y351247D01*
X328456Y351113D01*
X328421Y350978D01*
X328390Y350842D01*
X328362Y350704D01*
X328339Y350567D01*
X328319Y350428D01*
X328303Y350289D01*
X328291Y350150D01*
X328283Y350011D01*
X328279Y349871D01*
X328279Y349731D01*
X328283Y349591D01*
X328291Y349452D01*
X328303Y349313D01*
X328319Y349174D01*
X328339Y349035D01*
X328362Y348898D01*
X328390Y348760D01*
X328421Y348624D01*
X328456Y348489D01*
X328495Y348355D01*
X328538Y348222D01*
X328585Y348090D01*
X328635Y347959D01*
X328689Y347831D01*
X328747Y347703D01*
X328808Y347577D01*
X328873Y347454D01*
X328941Y347332D01*
X329012Y347211D01*
X329087Y347093D01*
X329166Y346978D01*
X329247Y346864D01*
X329332Y346753D01*
X329420Y346644D01*
X329510Y346538D01*
X329604Y346434D01*
X329701Y346333D01*
X329801Y346235D01*
X329903Y346140D01*
X330008Y346048D01*
X330115Y345958D01*
X330225Y345872D01*
X330338Y345789D01*
X330452Y345709D01*
X330569Y345632D01*
X330688Y345559D01*
X330809Y345489D01*
X330932Y345423D01*
X331057Y345360D01*
X331184Y345300D01*
X331312Y345245D01*
X331441Y345193D01*
X331573Y345144D01*
X331705Y345099D01*
X331839Y345058D01*
X331973Y345021D01*
X332109Y344988D01*
X332246Y344959D01*
X332383Y344933D01*
X332521Y344911D01*
X332660Y344894D01*
X332799Y344880D01*
X332939Y344870D01*
X333078Y344864D01*
X333218Y344862D01*
X338156Y344862D01*
X322161Y336960D02*
X317222Y336960D01*
X317082Y336962D01*
X316943Y336968D01*
X316803Y336978D01*
X316664Y336992D01*
X316525Y337009D01*
X316387Y337031D01*
X316250Y337057D01*
X316113Y337086D01*
X315977Y337119D01*
X315843Y337156D01*
X315709Y337197D01*
X315577Y337242D01*
X315445Y337291D01*
X315316Y337343D01*
X315188Y337398D01*
X315061Y337458D01*
X314936Y337521D01*
X314813Y337587D01*
X314692Y337657D01*
X314573Y337730D01*
X314456Y337807D01*
X314342Y337887D01*
X314229Y337970D01*
X314119Y338056D01*
X314012Y338146D01*
X313907Y338238D01*
X313805Y338333D01*
X313705Y338431D01*
X313608Y338532D01*
X313514Y338636D01*
X313424Y338742D01*
X313336Y338851D01*
X313251Y338962D01*
X313170Y339076D01*
X313091Y339191D01*
X313016Y339309D01*
X312945Y339430D01*
X312877Y339552D01*
X312812Y339675D01*
X312751Y339801D01*
X312693Y339929D01*
X312639Y340057D01*
X312589Y340188D01*
X312542Y340320D01*
X312499Y340453D01*
X312460Y340587D01*
X312425Y340722D01*
X312394Y340858D01*
X312366Y340996D01*
X312343Y341133D01*
X312323Y341272D01*
X312307Y341411D01*
X312295Y341550D01*
X312287Y341689D01*
X312283Y341829D01*
X312283Y341969D01*
X312287Y342109D01*
X312295Y342248D01*
X312307Y342387D01*
X312323Y342526D01*
X312343Y342665D01*
X312366Y342802D01*
X312394Y342940D01*
X312425Y343076D01*
X312460Y343211D01*
X312499Y343345D01*
X312542Y343478D01*
X312589Y343610D01*
X312639Y343741D01*
X312693Y343869D01*
X312751Y343997D01*
X312812Y344123D01*
X312877Y344246D01*
X312945Y344369D01*
X313016Y344489D01*
X313091Y344607D01*
X313170Y344722D01*
X313251Y344836D01*
X313336Y344947D01*
X313424Y345056D01*
X313514Y345162D01*
X313608Y345266D01*
X313705Y345367D01*
X313805Y345465D01*
X313907Y345560D01*
X314012Y345652D01*
X314119Y345742D01*
X314229Y345828D01*
X314342Y345911D01*
X314456Y345991D01*
X314573Y346068D01*
X314692Y346141D01*
X314813Y346211D01*
X314936Y346277D01*
X315061Y346340D01*
X315188Y346400D01*
X315316Y346455D01*
X315445Y346507D01*
X315577Y346556D01*
X315709Y346601D01*
X315843Y346642D01*
X315977Y346679D01*
X316113Y346712D01*
X316250Y346741D01*
X316387Y346767D01*
X316525Y346789D01*
X316664Y346806D01*
X316803Y346820D01*
X316943Y346830D01*
X317082Y346836D01*
X317222Y346838D01*
X316235Y354740D02*
X322161Y354740D01*
X316235Y354740D02*
X316111Y354738D01*
X315987Y354732D01*
X315863Y354722D01*
X315740Y354709D01*
X315617Y354691D01*
X315495Y354670D01*
X315373Y354645D01*
X315252Y354616D01*
X315133Y354583D01*
X315014Y354547D01*
X314897Y354506D01*
X314781Y354463D01*
X314666Y354415D01*
X314553Y354364D01*
X314441Y354309D01*
X314332Y354251D01*
X314224Y354190D01*
X314118Y354125D01*
X314014Y354057D01*
X313913Y353985D01*
X313813Y353911D01*
X313717Y353833D01*
X313622Y353753D01*
X313530Y353669D01*
X313441Y353583D01*
X313355Y353494D01*
X313271Y353402D01*
X313191Y353307D01*
X313113Y353211D01*
X313039Y353111D01*
X312967Y353010D01*
X312899Y352906D01*
X312834Y352800D01*
X312773Y352692D01*
X312715Y352583D01*
X312660Y352471D01*
X312609Y352358D01*
X312561Y352243D01*
X312518Y352127D01*
X312477Y352010D01*
X312441Y351891D01*
X312408Y351772D01*
X312379Y351651D01*
X312354Y351529D01*
X312333Y351407D01*
X312315Y351284D01*
X312302Y351161D01*
X312292Y351037D01*
X312286Y350913D01*
X312284Y350789D01*
X312286Y350665D01*
X312292Y350541D01*
X312302Y350417D01*
X312315Y350294D01*
X312333Y350171D01*
X312354Y350049D01*
X312379Y349927D01*
X312408Y349806D01*
X312441Y349687D01*
X312477Y349568D01*
X312518Y349451D01*
X312561Y349335D01*
X312609Y349220D01*
X312660Y349107D01*
X312715Y348995D01*
X312773Y348886D01*
X312834Y348778D01*
X312899Y348672D01*
X312967Y348568D01*
X313039Y348467D01*
X313113Y348367D01*
X313191Y348271D01*
X313271Y348176D01*
X313355Y348084D01*
X313441Y347995D01*
X313530Y347909D01*
X313622Y347825D01*
X313717Y347745D01*
X313813Y347667D01*
X313913Y347593D01*
X314014Y347521D01*
X314118Y347453D01*
X314224Y347388D01*
X314332Y347327D01*
X314441Y347269D01*
X314553Y347214D01*
X314666Y347163D01*
X314781Y347115D01*
X314897Y347072D01*
X315014Y347031D01*
X315133Y346995D01*
X315252Y346962D01*
X315373Y346933D01*
X315495Y346908D01*
X315617Y346887D01*
X315740Y346869D01*
X315863Y346856D01*
X315987Y346846D01*
X316111Y346840D01*
X316235Y346838D01*
X320186Y346838D01*
X140048Y308450D02*
X140048Y290670D01*
X140048Y308450D02*
X135109Y308450D01*
X134969Y308448D01*
X134830Y308442D01*
X134690Y308432D01*
X134551Y308418D01*
X134412Y308401D01*
X134274Y308379D01*
X134137Y308353D01*
X134000Y308324D01*
X133864Y308291D01*
X133730Y308254D01*
X133596Y308213D01*
X133464Y308168D01*
X133332Y308119D01*
X133203Y308067D01*
X133075Y308012D01*
X132948Y307952D01*
X132823Y307889D01*
X132700Y307823D01*
X132579Y307753D01*
X132460Y307680D01*
X132343Y307603D01*
X132229Y307523D01*
X132116Y307440D01*
X132006Y307354D01*
X131899Y307264D01*
X131794Y307172D01*
X131692Y307077D01*
X131592Y306979D01*
X131495Y306878D01*
X131401Y306774D01*
X131311Y306668D01*
X131223Y306559D01*
X131138Y306448D01*
X131057Y306334D01*
X130978Y306219D01*
X130903Y306101D01*
X130832Y305981D01*
X130764Y305858D01*
X130699Y305735D01*
X130638Y305609D01*
X130580Y305481D01*
X130526Y305353D01*
X130476Y305222D01*
X130429Y305090D01*
X130386Y304957D01*
X130347Y304823D01*
X130312Y304688D01*
X130281Y304552D01*
X130253Y304414D01*
X130230Y304277D01*
X130210Y304138D01*
X130194Y303999D01*
X130182Y303860D01*
X130174Y303721D01*
X130170Y303581D01*
X130170Y303441D01*
X130174Y303301D01*
X130182Y303162D01*
X130194Y303023D01*
X130210Y302884D01*
X130230Y302745D01*
X130253Y302608D01*
X130281Y302470D01*
X130312Y302334D01*
X130347Y302199D01*
X130386Y302065D01*
X130429Y301932D01*
X130476Y301800D01*
X130526Y301669D01*
X130580Y301541D01*
X130638Y301413D01*
X130699Y301287D01*
X130764Y301164D01*
X130832Y301042D01*
X130903Y300921D01*
X130978Y300803D01*
X131057Y300688D01*
X131138Y300574D01*
X131223Y300463D01*
X131311Y300354D01*
X131401Y300248D01*
X131495Y300144D01*
X131592Y300043D01*
X131692Y299945D01*
X131794Y299850D01*
X131899Y299758D01*
X132006Y299668D01*
X132116Y299582D01*
X132229Y299499D01*
X132343Y299419D01*
X132460Y299342D01*
X132579Y299269D01*
X132700Y299199D01*
X132823Y299133D01*
X132948Y299070D01*
X133075Y299010D01*
X133203Y298955D01*
X133332Y298903D01*
X133464Y298854D01*
X133596Y298809D01*
X133730Y298768D01*
X133864Y298731D01*
X134000Y298698D01*
X134137Y298669D01*
X134274Y298643D01*
X134412Y298621D01*
X134551Y298604D01*
X134690Y298590D01*
X134830Y298580D01*
X134969Y298574D01*
X135109Y298572D01*
X140048Y298572D01*
X124053Y300548D02*
X118126Y300548D01*
X118002Y300546D01*
X117878Y300540D01*
X117754Y300530D01*
X117631Y300517D01*
X117508Y300499D01*
X117386Y300478D01*
X117264Y300453D01*
X117143Y300424D01*
X117024Y300391D01*
X116905Y300355D01*
X116788Y300314D01*
X116672Y300271D01*
X116557Y300223D01*
X116444Y300172D01*
X116332Y300117D01*
X116223Y300059D01*
X116115Y299998D01*
X116009Y299933D01*
X115905Y299865D01*
X115804Y299793D01*
X115704Y299719D01*
X115608Y299641D01*
X115513Y299561D01*
X115421Y299477D01*
X115332Y299391D01*
X115246Y299302D01*
X115162Y299210D01*
X115082Y299115D01*
X115004Y299019D01*
X114930Y298919D01*
X114858Y298818D01*
X114790Y298714D01*
X114725Y298608D01*
X114664Y298500D01*
X114606Y298391D01*
X114551Y298279D01*
X114500Y298166D01*
X114452Y298051D01*
X114409Y297935D01*
X114368Y297818D01*
X114332Y297699D01*
X114299Y297580D01*
X114270Y297459D01*
X114245Y297337D01*
X114224Y297215D01*
X114206Y297092D01*
X114193Y296969D01*
X114183Y296845D01*
X114177Y296721D01*
X114175Y296597D01*
X114175Y295609D01*
X114177Y295469D01*
X114183Y295330D01*
X114193Y295190D01*
X114207Y295051D01*
X114224Y294912D01*
X114246Y294774D01*
X114272Y294637D01*
X114301Y294500D01*
X114334Y294364D01*
X114371Y294230D01*
X114412Y294096D01*
X114457Y293964D01*
X114506Y293832D01*
X114558Y293703D01*
X114613Y293575D01*
X114673Y293448D01*
X114736Y293323D01*
X114802Y293200D01*
X114872Y293079D01*
X114945Y292960D01*
X115022Y292843D01*
X115102Y292729D01*
X115185Y292616D01*
X115271Y292506D01*
X115361Y292399D01*
X115453Y292294D01*
X115548Y292192D01*
X115646Y292092D01*
X115747Y291995D01*
X115851Y291901D01*
X115957Y291811D01*
X116066Y291723D01*
X116177Y291638D01*
X116291Y291557D01*
X116406Y291478D01*
X116524Y291403D01*
X116645Y291332D01*
X116767Y291264D01*
X116890Y291199D01*
X117016Y291138D01*
X117144Y291080D01*
X117272Y291026D01*
X117403Y290976D01*
X117535Y290929D01*
X117668Y290886D01*
X117802Y290847D01*
X117937Y290812D01*
X118073Y290781D01*
X118211Y290753D01*
X118348Y290730D01*
X118487Y290710D01*
X118626Y290694D01*
X118765Y290682D01*
X118904Y290674D01*
X119044Y290670D01*
X119184Y290670D01*
X119324Y290674D01*
X119463Y290682D01*
X119602Y290694D01*
X119741Y290710D01*
X119880Y290730D01*
X120017Y290753D01*
X120155Y290781D01*
X120291Y290812D01*
X120426Y290847D01*
X120560Y290886D01*
X120693Y290929D01*
X120825Y290976D01*
X120956Y291026D01*
X121084Y291080D01*
X121212Y291138D01*
X121338Y291199D01*
X121461Y291264D01*
X121584Y291332D01*
X121704Y291403D01*
X121822Y291478D01*
X121937Y291557D01*
X122051Y291638D01*
X122162Y291723D01*
X122271Y291811D01*
X122377Y291901D01*
X122481Y291995D01*
X122582Y292092D01*
X122680Y292192D01*
X122775Y292294D01*
X122867Y292399D01*
X122957Y292506D01*
X123043Y292616D01*
X123126Y292729D01*
X123206Y292843D01*
X123283Y292960D01*
X123356Y293079D01*
X123426Y293200D01*
X123492Y293323D01*
X123555Y293448D01*
X123615Y293575D01*
X123670Y293703D01*
X123722Y293832D01*
X123771Y293964D01*
X123816Y294096D01*
X123857Y294230D01*
X123894Y294364D01*
X123927Y294500D01*
X123956Y294637D01*
X123982Y294774D01*
X124004Y294912D01*
X124021Y295051D01*
X124035Y295190D01*
X124045Y295330D01*
X124051Y295469D01*
X124053Y295609D01*
X124053Y300548D01*
X124052Y300548D02*
X124050Y300742D01*
X124042Y300936D01*
X124031Y301129D01*
X124014Y301323D01*
X123993Y301515D01*
X123966Y301707D01*
X123936Y301899D01*
X123900Y302090D01*
X123860Y302279D01*
X123815Y302468D01*
X123766Y302656D01*
X123712Y302842D01*
X123653Y303027D01*
X123590Y303210D01*
X123523Y303392D01*
X123451Y303572D01*
X123374Y303750D01*
X123293Y303927D01*
X123208Y304101D01*
X123119Y304273D01*
X123025Y304443D01*
X122928Y304610D01*
X122826Y304776D01*
X122720Y304938D01*
X122611Y305098D01*
X122497Y305255D01*
X122380Y305410D01*
X122258Y305561D01*
X122133Y305709D01*
X122005Y305855D01*
X121873Y305997D01*
X121738Y306136D01*
X121599Y306271D01*
X121457Y306403D01*
X121311Y306531D01*
X121163Y306656D01*
X121012Y306777D01*
X120857Y306895D01*
X120700Y307009D01*
X120540Y307118D01*
X120378Y307224D01*
X120212Y307326D01*
X120045Y307423D01*
X119875Y307517D01*
X119703Y307606D01*
X119529Y307691D01*
X119352Y307772D01*
X119174Y307848D01*
X118994Y307920D01*
X118812Y307988D01*
X118629Y308051D01*
X118444Y308110D01*
X118258Y308164D01*
X118070Y308213D01*
X117881Y308258D01*
X117692Y308298D01*
X117501Y308334D01*
X117310Y308364D01*
X117117Y308391D01*
X116925Y308412D01*
X116731Y308429D01*
X116538Y308440D01*
X116344Y308448D01*
X116150Y308450D01*
X101805Y303511D02*
X101805Y297584D01*
X98348Y293139D01*
X101805Y297584D02*
X105262Y293139D01*
X101805Y297584D02*
X96372Y299560D01*
X101805Y297584D02*
X107238Y299560D01*
X146386Y194720D02*
X146386Y176940D01*
X146386Y194720D02*
X141448Y194720D01*
X141308Y194718D01*
X141169Y194712D01*
X141029Y194702D01*
X140890Y194688D01*
X140751Y194671D01*
X140613Y194649D01*
X140476Y194623D01*
X140339Y194594D01*
X140203Y194561D01*
X140069Y194524D01*
X139935Y194483D01*
X139803Y194438D01*
X139671Y194389D01*
X139542Y194337D01*
X139414Y194282D01*
X139287Y194222D01*
X139162Y194159D01*
X139039Y194093D01*
X138918Y194023D01*
X138799Y193950D01*
X138682Y193873D01*
X138568Y193793D01*
X138455Y193710D01*
X138345Y193624D01*
X138238Y193534D01*
X138133Y193442D01*
X138031Y193347D01*
X137931Y193249D01*
X137834Y193148D01*
X137740Y193044D01*
X137650Y192938D01*
X137562Y192829D01*
X137477Y192718D01*
X137396Y192604D01*
X137317Y192489D01*
X137242Y192371D01*
X137171Y192251D01*
X137103Y192128D01*
X137038Y192005D01*
X136977Y191879D01*
X136919Y191751D01*
X136865Y191623D01*
X136815Y191492D01*
X136768Y191360D01*
X136725Y191227D01*
X136686Y191093D01*
X136651Y190958D01*
X136620Y190822D01*
X136592Y190684D01*
X136569Y190547D01*
X136549Y190408D01*
X136533Y190269D01*
X136521Y190130D01*
X136513Y189991D01*
X136509Y189851D01*
X136509Y189711D01*
X136513Y189571D01*
X136521Y189432D01*
X136533Y189293D01*
X136549Y189154D01*
X136569Y189015D01*
X136592Y188878D01*
X136620Y188740D01*
X136651Y188604D01*
X136686Y188469D01*
X136725Y188335D01*
X136768Y188202D01*
X136815Y188070D01*
X136865Y187939D01*
X136919Y187811D01*
X136977Y187683D01*
X137038Y187557D01*
X137103Y187434D01*
X137171Y187311D01*
X137242Y187191D01*
X137317Y187073D01*
X137396Y186958D01*
X137477Y186844D01*
X137562Y186733D01*
X137650Y186624D01*
X137740Y186518D01*
X137834Y186414D01*
X137931Y186313D01*
X138031Y186215D01*
X138133Y186120D01*
X138238Y186028D01*
X138345Y185938D01*
X138455Y185852D01*
X138568Y185769D01*
X138682Y185689D01*
X138799Y185612D01*
X138918Y185539D01*
X139039Y185469D01*
X139162Y185403D01*
X139287Y185340D01*
X139414Y185280D01*
X139542Y185225D01*
X139671Y185173D01*
X139803Y185124D01*
X139935Y185079D01*
X140069Y185038D01*
X140203Y185001D01*
X140339Y184968D01*
X140476Y184939D01*
X140613Y184913D01*
X140751Y184891D01*
X140890Y184874D01*
X141029Y184860D01*
X141169Y184850D01*
X141308Y184844D01*
X141448Y184842D01*
X146386Y184842D01*
X130391Y176940D02*
X124465Y176940D01*
X124341Y176942D01*
X124217Y176948D01*
X124093Y176958D01*
X123970Y176971D01*
X123847Y176989D01*
X123725Y177010D01*
X123603Y177035D01*
X123482Y177064D01*
X123363Y177097D01*
X123244Y177133D01*
X123127Y177174D01*
X123011Y177217D01*
X122896Y177265D01*
X122783Y177316D01*
X122671Y177371D01*
X122562Y177429D01*
X122454Y177490D01*
X122348Y177555D01*
X122244Y177623D01*
X122143Y177695D01*
X122043Y177769D01*
X121947Y177847D01*
X121852Y177927D01*
X121760Y178011D01*
X121671Y178097D01*
X121585Y178186D01*
X121501Y178278D01*
X121421Y178373D01*
X121343Y178469D01*
X121269Y178569D01*
X121197Y178670D01*
X121129Y178774D01*
X121064Y178880D01*
X121003Y178988D01*
X120945Y179097D01*
X120890Y179209D01*
X120839Y179322D01*
X120791Y179437D01*
X120748Y179553D01*
X120707Y179670D01*
X120671Y179789D01*
X120638Y179908D01*
X120609Y180029D01*
X120584Y180151D01*
X120563Y180273D01*
X120545Y180396D01*
X120532Y180519D01*
X120522Y180643D01*
X120516Y180767D01*
X120514Y180891D01*
X120514Y182867D01*
X120516Y182991D01*
X120522Y183115D01*
X120532Y183239D01*
X120545Y183362D01*
X120563Y183485D01*
X120584Y183607D01*
X120609Y183729D01*
X120638Y183850D01*
X120671Y183969D01*
X120707Y184088D01*
X120748Y184205D01*
X120791Y184321D01*
X120839Y184436D01*
X120890Y184549D01*
X120945Y184661D01*
X121003Y184770D01*
X121064Y184878D01*
X121129Y184984D01*
X121197Y185088D01*
X121269Y185189D01*
X121343Y185289D01*
X121421Y185385D01*
X121501Y185480D01*
X121585Y185572D01*
X121671Y185661D01*
X121760Y185747D01*
X121852Y185831D01*
X121947Y185911D01*
X122043Y185989D01*
X122143Y186063D01*
X122244Y186135D01*
X122348Y186203D01*
X122454Y186268D01*
X122562Y186329D01*
X122671Y186387D01*
X122783Y186442D01*
X122896Y186493D01*
X123011Y186541D01*
X123127Y186584D01*
X123244Y186625D01*
X123363Y186661D01*
X123482Y186694D01*
X123603Y186723D01*
X123725Y186748D01*
X123847Y186769D01*
X123970Y186787D01*
X124093Y186800D01*
X124217Y186810D01*
X124341Y186816D01*
X124465Y186818D01*
X130391Y186818D01*
X130391Y194720D01*
X120514Y194720D01*
X359746Y198530D02*
X359746Y216310D01*
X354808Y216310D01*
X354668Y216308D01*
X354529Y216302D01*
X354389Y216292D01*
X354250Y216278D01*
X354111Y216261D01*
X353973Y216239D01*
X353836Y216213D01*
X353699Y216184D01*
X353563Y216151D01*
X353429Y216114D01*
X353295Y216073D01*
X353163Y216028D01*
X353031Y215979D01*
X352902Y215927D01*
X352774Y215872D01*
X352647Y215812D01*
X352522Y215749D01*
X352399Y215683D01*
X352278Y215613D01*
X352159Y215540D01*
X352042Y215463D01*
X351928Y215383D01*
X351815Y215300D01*
X351705Y215214D01*
X351598Y215124D01*
X351493Y215032D01*
X351391Y214937D01*
X351291Y214839D01*
X351194Y214738D01*
X351100Y214634D01*
X351010Y214528D01*
X350922Y214419D01*
X350837Y214308D01*
X350756Y214194D01*
X350677Y214079D01*
X350602Y213961D01*
X350531Y213841D01*
X350463Y213718D01*
X350398Y213595D01*
X350337Y213469D01*
X350279Y213341D01*
X350225Y213213D01*
X350175Y213082D01*
X350128Y212950D01*
X350085Y212817D01*
X350046Y212683D01*
X350011Y212548D01*
X349980Y212412D01*
X349952Y212274D01*
X349929Y212137D01*
X349909Y211998D01*
X349893Y211859D01*
X349881Y211720D01*
X349873Y211581D01*
X349869Y211441D01*
X349869Y211301D01*
X349873Y211161D01*
X349881Y211022D01*
X349893Y210883D01*
X349909Y210744D01*
X349929Y210605D01*
X349952Y210468D01*
X349980Y210330D01*
X350011Y210194D01*
X350046Y210059D01*
X350085Y209925D01*
X350128Y209792D01*
X350175Y209660D01*
X350225Y209529D01*
X350279Y209401D01*
X350337Y209273D01*
X350398Y209147D01*
X350463Y209024D01*
X350531Y208901D01*
X350602Y208781D01*
X350677Y208663D01*
X350756Y208548D01*
X350837Y208434D01*
X350922Y208323D01*
X351010Y208214D01*
X351100Y208108D01*
X351194Y208004D01*
X351291Y207903D01*
X351391Y207805D01*
X351493Y207710D01*
X351598Y207618D01*
X351705Y207528D01*
X351815Y207442D01*
X351928Y207359D01*
X352042Y207279D01*
X352159Y207202D01*
X352278Y207129D01*
X352399Y207059D01*
X352522Y206993D01*
X352647Y206930D01*
X352774Y206870D01*
X352902Y206815D01*
X353031Y206763D01*
X353163Y206714D01*
X353295Y206669D01*
X353429Y206628D01*
X353563Y206591D01*
X353699Y206558D01*
X353836Y206529D01*
X353973Y206503D01*
X354111Y206481D01*
X354250Y206464D01*
X354389Y206450D01*
X354529Y206440D01*
X354668Y206434D01*
X354808Y206432D01*
X359746Y206432D01*
X343751Y202481D02*
X339800Y216310D01*
X343751Y202481D02*
X333874Y202481D01*
X336837Y206432D02*
X336837Y198530D01*
D12*
X152105Y584831D02*
X152107Y584942D01*
X152113Y585052D01*
X152123Y585163D01*
X152137Y585273D01*
X152154Y585382D01*
X152176Y585491D01*
X152201Y585599D01*
X152231Y585705D01*
X152264Y585811D01*
X152301Y585916D01*
X152341Y586019D01*
X152386Y586120D01*
X152433Y586220D01*
X152485Y586319D01*
X152540Y586415D01*
X152598Y586509D01*
X152659Y586601D01*
X152724Y586691D01*
X152792Y586779D01*
X152863Y586864D01*
X152937Y586946D01*
X153014Y587026D01*
X153094Y587103D01*
X153176Y587177D01*
X153261Y587248D01*
X153349Y587316D01*
X153439Y587381D01*
X153531Y587442D01*
X153625Y587500D01*
X153721Y587555D01*
X153820Y587607D01*
X153920Y587654D01*
X154021Y587699D01*
X154124Y587739D01*
X154229Y587776D01*
X154335Y587809D01*
X154441Y587839D01*
X154549Y587864D01*
X154658Y587886D01*
X154767Y587903D01*
X154877Y587917D01*
X154988Y587927D01*
X155098Y587933D01*
X155209Y587935D01*
X152105Y584831D02*
X152107Y584674D01*
X152113Y584517D01*
X152122Y584361D01*
X152135Y584204D01*
X152152Y584048D01*
X152172Y583893D01*
X152197Y583738D01*
X152225Y583583D01*
X152256Y583430D01*
X152292Y583277D01*
X152331Y583125D01*
X152373Y582974D01*
X152420Y582824D01*
X152469Y582675D01*
X152523Y582528D01*
X152580Y582381D01*
X152640Y582236D01*
X152704Y582093D01*
X152771Y581951D01*
X152842Y581811D01*
X152916Y581673D01*
X152993Y581536D01*
X153073Y581402D01*
X153157Y581269D01*
X153244Y581138D01*
X153334Y581009D01*
X153426Y580883D01*
X153522Y580759D01*
X153621Y580637D01*
X153723Y580518D01*
X153828Y580401D01*
X153935Y580286D01*
X154045Y580174D01*
X162971Y580563D02*
X163079Y580565D01*
X163188Y580571D01*
X163295Y580580D01*
X163403Y580593D01*
X163510Y580610D01*
X163616Y580631D01*
X163722Y580655D01*
X163827Y580683D01*
X163930Y580715D01*
X164033Y580750D01*
X164134Y580789D01*
X164234Y580831D01*
X164332Y580877D01*
X164428Y580926D01*
X164523Y580979D01*
X164616Y581035D01*
X164707Y581094D01*
X164795Y581156D01*
X164882Y581221D01*
X164966Y581289D01*
X165048Y581360D01*
X165127Y581434D01*
X165204Y581511D01*
X165278Y581590D01*
X165349Y581672D01*
X165417Y581756D01*
X165482Y581843D01*
X165544Y581931D01*
X165603Y582022D01*
X165659Y582115D01*
X165712Y582210D01*
X165761Y582306D01*
X165807Y582405D01*
X165849Y582504D01*
X165888Y582605D01*
X165923Y582708D01*
X165955Y582811D01*
X165983Y582916D01*
X166007Y583022D01*
X166028Y583128D01*
X166045Y583235D01*
X166058Y583343D01*
X166067Y583451D01*
X166073Y583559D01*
X166075Y583667D01*
X166073Y583817D01*
X166067Y583967D01*
X166058Y584116D01*
X166044Y584265D01*
X166027Y584414D01*
X166006Y584562D01*
X165981Y584710D01*
X165952Y584857D01*
X165919Y585004D01*
X165883Y585149D01*
X165843Y585293D01*
X165800Y585437D01*
X165752Y585579D01*
X165701Y585720D01*
X165646Y585859D01*
X165588Y585997D01*
X165527Y586134D01*
X165461Y586269D01*
X165393Y586402D01*
X165321Y586533D01*
X165245Y586662D01*
X165166Y586790D01*
X165084Y586915D01*
X164999Y587039D01*
X164911Y587160D01*
X160255Y582115D02*
X160312Y582022D01*
X160372Y581931D01*
X160435Y581842D01*
X160501Y581756D01*
X160571Y581671D01*
X160643Y581590D01*
X160718Y581510D01*
X160796Y581434D01*
X160876Y581360D01*
X160959Y581289D01*
X161044Y581221D01*
X161131Y581155D01*
X161221Y581093D01*
X161313Y581034D01*
X161407Y580978D01*
X161502Y580926D01*
X161600Y580877D01*
X161699Y580831D01*
X161799Y580789D01*
X161901Y580750D01*
X162005Y580715D01*
X162109Y580683D01*
X162215Y580655D01*
X162321Y580631D01*
X162428Y580610D01*
X162536Y580593D01*
X162644Y580580D01*
X162753Y580571D01*
X162862Y580565D01*
X162971Y580563D01*
X157925Y586384D02*
X157868Y586477D01*
X157808Y586568D01*
X157745Y586657D01*
X157679Y586743D01*
X157609Y586828D01*
X157537Y586909D01*
X157462Y586989D01*
X157384Y587065D01*
X157304Y587139D01*
X157221Y587210D01*
X157136Y587279D01*
X157049Y587344D01*
X156959Y587406D01*
X156867Y587465D01*
X156773Y587521D01*
X156678Y587573D01*
X156580Y587622D01*
X156481Y587668D01*
X156381Y587710D01*
X156279Y587749D01*
X156175Y587784D01*
X156071Y587816D01*
X155965Y587844D01*
X155859Y587868D01*
X155752Y587889D01*
X155644Y587906D01*
X155536Y587919D01*
X155427Y587928D01*
X155318Y587934D01*
X155209Y587936D01*
X157926Y586384D02*
X160254Y582115D01*
X166075Y593863D02*
X152105Y593863D01*
X159866Y593863D02*
X159866Y601624D01*
X166075Y601624D02*
X152105Y601624D01*
X152105Y609151D02*
X166075Y609151D01*
X152105Y607599D02*
X152105Y610703D01*
X166075Y610703D02*
X166075Y607599D01*
X152105Y616705D02*
X152105Y622914D01*
X152105Y616705D02*
X166075Y616705D01*
X166075Y622914D01*
X159866Y621362D02*
X159866Y616705D01*
X166075Y628568D02*
X152105Y628568D01*
X152105Y634777D01*
X152105Y640404D02*
X166075Y640404D01*
X166075Y644285D01*
X166073Y644407D01*
X166067Y644529D01*
X166058Y644650D01*
X166044Y644771D01*
X166027Y644892D01*
X166006Y645012D01*
X165982Y645132D01*
X165953Y645250D01*
X165921Y645368D01*
X165885Y645484D01*
X165846Y645600D01*
X165802Y645714D01*
X165756Y645826D01*
X165706Y645937D01*
X165652Y646047D01*
X165595Y646155D01*
X165535Y646261D01*
X165471Y646365D01*
X165404Y646466D01*
X165334Y646566D01*
X165261Y646664D01*
X165184Y646759D01*
X165105Y646852D01*
X165023Y646942D01*
X164938Y647029D01*
X164851Y647114D01*
X164761Y647196D01*
X164668Y647275D01*
X164573Y647352D01*
X164475Y647425D01*
X164375Y647495D01*
X164274Y647562D01*
X164170Y647626D01*
X164064Y647686D01*
X163956Y647743D01*
X163846Y647797D01*
X163735Y647847D01*
X163623Y647893D01*
X163509Y647937D01*
X163393Y647976D01*
X163277Y648012D01*
X163159Y648044D01*
X163041Y648073D01*
X162921Y648097D01*
X162801Y648118D01*
X162680Y648135D01*
X162559Y648149D01*
X162438Y648158D01*
X162316Y648164D01*
X162194Y648166D01*
X162194Y648165D02*
X155986Y648165D01*
X155986Y648166D02*
X155864Y648164D01*
X155742Y648158D01*
X155621Y648149D01*
X155500Y648135D01*
X155379Y648118D01*
X155259Y648097D01*
X155139Y648073D01*
X155021Y648044D01*
X154903Y648012D01*
X154787Y647976D01*
X154671Y647937D01*
X154557Y647893D01*
X154445Y647847D01*
X154334Y647797D01*
X154224Y647743D01*
X154116Y647686D01*
X154010Y647626D01*
X153906Y647562D01*
X153805Y647495D01*
X153705Y647425D01*
X153607Y647352D01*
X153512Y647275D01*
X153419Y647196D01*
X153329Y647114D01*
X153242Y647029D01*
X153157Y646942D01*
X153075Y646852D01*
X152996Y646759D01*
X152919Y646664D01*
X152846Y646566D01*
X152776Y646466D01*
X152709Y646365D01*
X152645Y646261D01*
X152585Y646155D01*
X152528Y646047D01*
X152474Y645937D01*
X152424Y645826D01*
X152378Y645714D01*
X152334Y645600D01*
X152295Y645484D01*
X152259Y645368D01*
X152227Y645250D01*
X152198Y645132D01*
X152174Y645012D01*
X152153Y644892D01*
X152136Y644771D01*
X152122Y644650D01*
X152113Y644529D01*
X152107Y644407D01*
X152105Y644285D01*
X152105Y640404D01*
X191546Y598259D02*
X197754Y598259D01*
X197754Y598258D02*
X197877Y598260D01*
X198000Y598266D01*
X198123Y598276D01*
X198245Y598289D01*
X198367Y598307D01*
X198488Y598328D01*
X198609Y598353D01*
X198729Y598382D01*
X198847Y598415D01*
X198965Y598452D01*
X199081Y598492D01*
X199196Y598536D01*
X199310Y598584D01*
X199422Y598635D01*
X199532Y598689D01*
X199641Y598748D01*
X199748Y598809D01*
X199852Y598874D01*
X199955Y598942D01*
X200055Y599014D01*
X200153Y599088D01*
X200249Y599166D01*
X200342Y599247D01*
X200432Y599330D01*
X200520Y599417D01*
X200605Y599506D01*
X200687Y599597D01*
X200766Y599692D01*
X200842Y599789D01*
X200915Y599888D01*
X200985Y599989D01*
X201052Y600093D01*
X201115Y600199D01*
X201175Y600306D01*
X201231Y600416D01*
X201284Y600527D01*
X201334Y600640D01*
X201379Y600754D01*
X201422Y600870D01*
X201460Y600987D01*
X201495Y601105D01*
X201526Y601224D01*
X201553Y601344D01*
X201576Y601465D01*
X201595Y601587D01*
X201611Y601709D01*
X201623Y601831D01*
X201631Y601954D01*
X201635Y602077D01*
X201635Y602201D01*
X201631Y602324D01*
X201623Y602447D01*
X201611Y602569D01*
X201595Y602691D01*
X201576Y602813D01*
X201553Y602934D01*
X201526Y603054D01*
X201495Y603173D01*
X201460Y603291D01*
X201422Y603408D01*
X201379Y603524D01*
X201334Y603638D01*
X201284Y603751D01*
X201231Y603862D01*
X201175Y603972D01*
X201115Y604080D01*
X201052Y604185D01*
X200985Y604289D01*
X200915Y604390D01*
X200842Y604489D01*
X200766Y604586D01*
X200687Y604681D01*
X200605Y604772D01*
X200520Y604861D01*
X200432Y604948D01*
X200342Y605031D01*
X200249Y605112D01*
X200153Y605190D01*
X200055Y605264D01*
X199955Y605336D01*
X199852Y605404D01*
X199748Y605469D01*
X199641Y605530D01*
X199532Y605589D01*
X199422Y605643D01*
X199310Y605694D01*
X199196Y605742D01*
X199081Y605786D01*
X198965Y605826D01*
X198847Y605863D01*
X198729Y605896D01*
X198609Y605925D01*
X198488Y605950D01*
X198367Y605971D01*
X198245Y605989D01*
X198123Y606002D01*
X198000Y606012D01*
X197877Y606018D01*
X197754Y606020D01*
X191546Y606020D01*
X191423Y606018D01*
X191300Y606012D01*
X191177Y606002D01*
X191055Y605989D01*
X190933Y605971D01*
X190812Y605950D01*
X190691Y605925D01*
X190571Y605896D01*
X190453Y605863D01*
X190335Y605826D01*
X190219Y605786D01*
X190104Y605742D01*
X189990Y605694D01*
X189878Y605643D01*
X189768Y605589D01*
X189659Y605530D01*
X189552Y605469D01*
X189448Y605404D01*
X189345Y605336D01*
X189245Y605264D01*
X189147Y605190D01*
X189051Y605112D01*
X188958Y605031D01*
X188868Y604948D01*
X188780Y604861D01*
X188695Y604772D01*
X188613Y604681D01*
X188534Y604586D01*
X188458Y604489D01*
X188385Y604390D01*
X188315Y604289D01*
X188248Y604185D01*
X188185Y604080D01*
X188125Y603972D01*
X188069Y603862D01*
X188016Y603751D01*
X187966Y603638D01*
X187921Y603524D01*
X187878Y603408D01*
X187840Y603291D01*
X187805Y603173D01*
X187774Y603054D01*
X187747Y602934D01*
X187724Y602813D01*
X187705Y602691D01*
X187689Y602569D01*
X187677Y602447D01*
X187669Y602324D01*
X187665Y602201D01*
X187665Y602077D01*
X187669Y601954D01*
X187677Y601831D01*
X187689Y601709D01*
X187705Y601587D01*
X187724Y601465D01*
X187747Y601344D01*
X187774Y601224D01*
X187805Y601105D01*
X187840Y600987D01*
X187878Y600870D01*
X187921Y600754D01*
X187966Y600640D01*
X188016Y600527D01*
X188069Y600416D01*
X188125Y600306D01*
X188185Y600199D01*
X188248Y600093D01*
X188315Y599989D01*
X188385Y599888D01*
X188458Y599789D01*
X188534Y599692D01*
X188613Y599597D01*
X188695Y599506D01*
X188780Y599417D01*
X188868Y599330D01*
X188958Y599247D01*
X189051Y599166D01*
X189147Y599088D01*
X189245Y599014D01*
X189345Y598942D01*
X189448Y598874D01*
X189552Y598809D01*
X189659Y598748D01*
X189768Y598689D01*
X189878Y598635D01*
X189990Y598584D01*
X190104Y598536D01*
X190219Y598492D01*
X190335Y598452D01*
X190453Y598415D01*
X190571Y598382D01*
X190691Y598353D01*
X190812Y598328D01*
X190933Y598307D01*
X191055Y598289D01*
X191177Y598276D01*
X191300Y598266D01*
X191423Y598260D01*
X191546Y598258D01*
X191546Y612403D02*
X201635Y612403D01*
X191546Y612403D02*
X191423Y612405D01*
X191300Y612411D01*
X191177Y612421D01*
X191055Y612434D01*
X190933Y612452D01*
X190812Y612473D01*
X190691Y612498D01*
X190571Y612527D01*
X190453Y612560D01*
X190335Y612597D01*
X190219Y612637D01*
X190104Y612681D01*
X189990Y612729D01*
X189878Y612780D01*
X189768Y612834D01*
X189659Y612893D01*
X189552Y612954D01*
X189448Y613019D01*
X189345Y613087D01*
X189245Y613159D01*
X189147Y613233D01*
X189051Y613311D01*
X188958Y613392D01*
X188868Y613475D01*
X188780Y613562D01*
X188695Y613651D01*
X188613Y613742D01*
X188534Y613837D01*
X188458Y613934D01*
X188385Y614033D01*
X188315Y614134D01*
X188248Y614238D01*
X188185Y614344D01*
X188125Y614451D01*
X188069Y614561D01*
X188016Y614672D01*
X187966Y614785D01*
X187921Y614899D01*
X187878Y615015D01*
X187840Y615132D01*
X187805Y615250D01*
X187774Y615369D01*
X187747Y615489D01*
X187724Y615610D01*
X187705Y615732D01*
X187689Y615854D01*
X187677Y615976D01*
X187669Y616099D01*
X187665Y616222D01*
X187665Y616346D01*
X187669Y616469D01*
X187677Y616592D01*
X187689Y616714D01*
X187705Y616836D01*
X187724Y616958D01*
X187747Y617079D01*
X187774Y617199D01*
X187805Y617318D01*
X187840Y617436D01*
X187878Y617553D01*
X187921Y617669D01*
X187966Y617783D01*
X188016Y617896D01*
X188069Y618007D01*
X188125Y618117D01*
X188185Y618225D01*
X188248Y618330D01*
X188315Y618434D01*
X188385Y618535D01*
X188458Y618634D01*
X188534Y618731D01*
X188613Y618826D01*
X188695Y618917D01*
X188780Y619006D01*
X188868Y619093D01*
X188958Y619176D01*
X189051Y619257D01*
X189147Y619335D01*
X189245Y619409D01*
X189345Y619481D01*
X189448Y619549D01*
X189552Y619614D01*
X189659Y619675D01*
X189768Y619734D01*
X189878Y619788D01*
X189990Y619839D01*
X190104Y619887D01*
X190219Y619931D01*
X190335Y619971D01*
X190453Y620008D01*
X190571Y620041D01*
X190691Y620070D01*
X190812Y620095D01*
X190933Y620116D01*
X191055Y620134D01*
X191177Y620147D01*
X191300Y620157D01*
X191423Y620163D01*
X191546Y620165D01*
X201635Y620165D01*
X201635Y629516D02*
X187665Y629516D01*
X201635Y625636D02*
X201635Y633397D01*
X193098Y638548D02*
X193098Y647861D01*
X197754Y643205D02*
X188441Y643205D01*
X225836Y598259D02*
X232044Y598259D01*
X232044Y598258D02*
X232167Y598260D01*
X232290Y598266D01*
X232413Y598276D01*
X232535Y598289D01*
X232657Y598307D01*
X232778Y598328D01*
X232899Y598353D01*
X233019Y598382D01*
X233137Y598415D01*
X233255Y598452D01*
X233371Y598492D01*
X233486Y598536D01*
X233600Y598584D01*
X233712Y598635D01*
X233822Y598689D01*
X233931Y598748D01*
X234038Y598809D01*
X234142Y598874D01*
X234245Y598942D01*
X234345Y599014D01*
X234443Y599088D01*
X234539Y599166D01*
X234632Y599247D01*
X234722Y599330D01*
X234810Y599417D01*
X234895Y599506D01*
X234977Y599597D01*
X235056Y599692D01*
X235132Y599789D01*
X235205Y599888D01*
X235275Y599989D01*
X235342Y600093D01*
X235405Y600199D01*
X235465Y600306D01*
X235521Y600416D01*
X235574Y600527D01*
X235624Y600640D01*
X235669Y600754D01*
X235712Y600870D01*
X235750Y600987D01*
X235785Y601105D01*
X235816Y601224D01*
X235843Y601344D01*
X235866Y601465D01*
X235885Y601587D01*
X235901Y601709D01*
X235913Y601831D01*
X235921Y601954D01*
X235925Y602077D01*
X235925Y602201D01*
X235921Y602324D01*
X235913Y602447D01*
X235901Y602569D01*
X235885Y602691D01*
X235866Y602813D01*
X235843Y602934D01*
X235816Y603054D01*
X235785Y603173D01*
X235750Y603291D01*
X235712Y603408D01*
X235669Y603524D01*
X235624Y603638D01*
X235574Y603751D01*
X235521Y603862D01*
X235465Y603972D01*
X235405Y604080D01*
X235342Y604185D01*
X235275Y604289D01*
X235205Y604390D01*
X235132Y604489D01*
X235056Y604586D01*
X234977Y604681D01*
X234895Y604772D01*
X234810Y604861D01*
X234722Y604948D01*
X234632Y605031D01*
X234539Y605112D01*
X234443Y605190D01*
X234345Y605264D01*
X234245Y605336D01*
X234142Y605404D01*
X234038Y605469D01*
X233931Y605530D01*
X233822Y605589D01*
X233712Y605643D01*
X233600Y605694D01*
X233486Y605742D01*
X233371Y605786D01*
X233255Y605826D01*
X233137Y605863D01*
X233019Y605896D01*
X232899Y605925D01*
X232778Y605950D01*
X232657Y605971D01*
X232535Y605989D01*
X232413Y606002D01*
X232290Y606012D01*
X232167Y606018D01*
X232044Y606020D01*
X225836Y606020D01*
X225713Y606018D01*
X225590Y606012D01*
X225467Y606002D01*
X225345Y605989D01*
X225223Y605971D01*
X225102Y605950D01*
X224981Y605925D01*
X224861Y605896D01*
X224743Y605863D01*
X224625Y605826D01*
X224509Y605786D01*
X224394Y605742D01*
X224280Y605694D01*
X224168Y605643D01*
X224058Y605589D01*
X223949Y605530D01*
X223842Y605469D01*
X223738Y605404D01*
X223635Y605336D01*
X223535Y605264D01*
X223437Y605190D01*
X223341Y605112D01*
X223248Y605031D01*
X223158Y604948D01*
X223070Y604861D01*
X222985Y604772D01*
X222903Y604681D01*
X222824Y604586D01*
X222748Y604489D01*
X222675Y604390D01*
X222605Y604289D01*
X222538Y604185D01*
X222475Y604080D01*
X222415Y603972D01*
X222359Y603862D01*
X222306Y603751D01*
X222256Y603638D01*
X222211Y603524D01*
X222168Y603408D01*
X222130Y603291D01*
X222095Y603173D01*
X222064Y603054D01*
X222037Y602934D01*
X222014Y602813D01*
X221995Y602691D01*
X221979Y602569D01*
X221967Y602447D01*
X221959Y602324D01*
X221955Y602201D01*
X221955Y602077D01*
X221959Y601954D01*
X221967Y601831D01*
X221979Y601709D01*
X221995Y601587D01*
X222014Y601465D01*
X222037Y601344D01*
X222064Y601224D01*
X222095Y601105D01*
X222130Y600987D01*
X222168Y600870D01*
X222211Y600754D01*
X222256Y600640D01*
X222306Y600527D01*
X222359Y600416D01*
X222415Y600306D01*
X222475Y600199D01*
X222538Y600093D01*
X222605Y599989D01*
X222675Y599888D01*
X222748Y599789D01*
X222824Y599692D01*
X222903Y599597D01*
X222985Y599506D01*
X223070Y599417D01*
X223158Y599330D01*
X223248Y599247D01*
X223341Y599166D01*
X223437Y599088D01*
X223535Y599014D01*
X223635Y598942D01*
X223738Y598874D01*
X223842Y598809D01*
X223949Y598748D01*
X224058Y598689D01*
X224168Y598635D01*
X224280Y598584D01*
X224394Y598536D01*
X224509Y598492D01*
X224625Y598452D01*
X224743Y598415D01*
X224861Y598382D01*
X224981Y598353D01*
X225102Y598328D01*
X225223Y598307D01*
X225345Y598289D01*
X225467Y598276D01*
X225590Y598266D01*
X225713Y598260D01*
X225836Y598258D01*
X225836Y612403D02*
X235925Y612403D01*
X225836Y612403D02*
X225713Y612405D01*
X225590Y612411D01*
X225467Y612421D01*
X225345Y612434D01*
X225223Y612452D01*
X225102Y612473D01*
X224981Y612498D01*
X224861Y612527D01*
X224743Y612560D01*
X224625Y612597D01*
X224509Y612637D01*
X224394Y612681D01*
X224280Y612729D01*
X224168Y612780D01*
X224058Y612834D01*
X223949Y612893D01*
X223842Y612954D01*
X223738Y613019D01*
X223635Y613087D01*
X223535Y613159D01*
X223437Y613233D01*
X223341Y613311D01*
X223248Y613392D01*
X223158Y613475D01*
X223070Y613562D01*
X222985Y613651D01*
X222903Y613742D01*
X222824Y613837D01*
X222748Y613934D01*
X222675Y614033D01*
X222605Y614134D01*
X222538Y614238D01*
X222475Y614344D01*
X222415Y614451D01*
X222359Y614561D01*
X222306Y614672D01*
X222256Y614785D01*
X222211Y614899D01*
X222168Y615015D01*
X222130Y615132D01*
X222095Y615250D01*
X222064Y615369D01*
X222037Y615489D01*
X222014Y615610D01*
X221995Y615732D01*
X221979Y615854D01*
X221967Y615976D01*
X221959Y616099D01*
X221955Y616222D01*
X221955Y616346D01*
X221959Y616469D01*
X221967Y616592D01*
X221979Y616714D01*
X221995Y616836D01*
X222014Y616958D01*
X222037Y617079D01*
X222064Y617199D01*
X222095Y617318D01*
X222130Y617436D01*
X222168Y617553D01*
X222211Y617669D01*
X222256Y617783D01*
X222306Y617896D01*
X222359Y618007D01*
X222415Y618117D01*
X222475Y618225D01*
X222538Y618330D01*
X222605Y618434D01*
X222675Y618535D01*
X222748Y618634D01*
X222824Y618731D01*
X222903Y618826D01*
X222985Y618917D01*
X223070Y619006D01*
X223158Y619093D01*
X223248Y619176D01*
X223341Y619257D01*
X223437Y619335D01*
X223535Y619409D01*
X223635Y619481D01*
X223738Y619549D01*
X223842Y619614D01*
X223949Y619675D01*
X224058Y619734D01*
X224168Y619788D01*
X224280Y619839D01*
X224394Y619887D01*
X224509Y619931D01*
X224625Y619971D01*
X224743Y620008D01*
X224861Y620041D01*
X224981Y620070D01*
X225102Y620095D01*
X225223Y620116D01*
X225345Y620134D01*
X225467Y620147D01*
X225590Y620157D01*
X225713Y620163D01*
X225836Y620165D01*
X235925Y620165D01*
X235925Y629516D02*
X221955Y629516D01*
X235925Y625636D02*
X235925Y633397D01*
X227388Y638548D02*
X227388Y647861D01*
X262948Y540688D02*
X262948Y531374D01*
X268381Y546752D02*
X271485Y550632D01*
X257515Y550632D01*
X257515Y546752D02*
X257515Y554513D01*
X257515Y560440D02*
X257515Y565097D01*
X257517Y565208D01*
X257523Y565318D01*
X257533Y565429D01*
X257547Y565539D01*
X257564Y565648D01*
X257586Y565757D01*
X257611Y565865D01*
X257641Y565971D01*
X257674Y566077D01*
X257711Y566182D01*
X257751Y566285D01*
X257796Y566386D01*
X257843Y566486D01*
X257895Y566585D01*
X257950Y566681D01*
X258008Y566775D01*
X258069Y566867D01*
X258134Y566957D01*
X258202Y567045D01*
X258273Y567130D01*
X258347Y567212D01*
X258424Y567292D01*
X258504Y567369D01*
X258586Y567443D01*
X258671Y567514D01*
X258759Y567582D01*
X258849Y567647D01*
X258941Y567708D01*
X259035Y567766D01*
X259131Y567821D01*
X259230Y567873D01*
X259330Y567920D01*
X259431Y567965D01*
X259534Y568005D01*
X259639Y568042D01*
X259745Y568075D01*
X259851Y568105D01*
X259959Y568130D01*
X260068Y568152D01*
X260177Y568169D01*
X260287Y568183D01*
X260398Y568193D01*
X260508Y568199D01*
X260619Y568201D01*
X262172Y568201D01*
X262283Y568199D01*
X262393Y568193D01*
X262504Y568183D01*
X262614Y568169D01*
X262723Y568152D01*
X262832Y568130D01*
X262940Y568105D01*
X263046Y568075D01*
X263152Y568042D01*
X263257Y568005D01*
X263360Y567965D01*
X263461Y567920D01*
X263561Y567873D01*
X263660Y567821D01*
X263756Y567766D01*
X263850Y567708D01*
X263942Y567647D01*
X264032Y567582D01*
X264120Y567514D01*
X264205Y567443D01*
X264287Y567369D01*
X264367Y567292D01*
X264444Y567212D01*
X264518Y567130D01*
X264589Y567045D01*
X264657Y566957D01*
X264722Y566867D01*
X264783Y566775D01*
X264841Y566681D01*
X264896Y566585D01*
X264948Y566486D01*
X264995Y566386D01*
X265040Y566285D01*
X265080Y566182D01*
X265117Y566077D01*
X265150Y565971D01*
X265180Y565865D01*
X265205Y565757D01*
X265227Y565648D01*
X265244Y565539D01*
X265258Y565429D01*
X265268Y565318D01*
X265274Y565208D01*
X265276Y565097D01*
X265276Y560440D01*
X271485Y560440D01*
X271485Y568201D01*
X271485Y573352D02*
X257515Y578009D01*
X271485Y582666D01*
X293075Y617166D02*
X307045Y617166D01*
X293075Y618718D02*
X293075Y615613D01*
X307045Y615613D02*
X307045Y618718D01*
X307045Y624692D02*
X293075Y624692D01*
X293075Y632453D02*
X307045Y624692D01*
X307045Y632453D02*
X293075Y632453D01*
X298508Y638973D02*
X298508Y648287D01*
X293851Y643630D02*
X303164Y643630D01*
X235925Y465793D02*
X221955Y461137D01*
X221955Y470450D02*
X235925Y465793D01*
X225448Y469286D02*
X225448Y462301D01*
X221955Y476744D02*
X235925Y476744D01*
X221955Y475192D02*
X221955Y478296D01*
X235925Y478296D02*
X235925Y475192D01*
X235925Y484271D02*
X221955Y484271D01*
X221955Y492032D02*
X235925Y484271D01*
X235925Y492032D02*
X221955Y492032D01*
X227388Y505853D02*
X227388Y515166D01*
X232821Y521230D02*
X235925Y525110D01*
X221955Y525110D01*
X221955Y521230D02*
X221955Y528991D01*
X228940Y534919D02*
X229215Y534922D01*
X229489Y534932D01*
X229764Y534949D01*
X230038Y534971D01*
X230311Y535001D01*
X230583Y535037D01*
X230855Y535079D01*
X231125Y535128D01*
X231395Y535184D01*
X231662Y535246D01*
X231929Y535314D01*
X232193Y535388D01*
X232456Y535469D01*
X232716Y535556D01*
X232975Y535649D01*
X233231Y535749D01*
X233485Y535854D01*
X233736Y535966D01*
X233985Y536083D01*
X233984Y536082D02*
X234083Y536118D01*
X234180Y536157D01*
X234276Y536200D01*
X234370Y536247D01*
X234462Y536296D01*
X234552Y536349D01*
X234641Y536406D01*
X234727Y536465D01*
X234811Y536528D01*
X234893Y536593D01*
X234972Y536662D01*
X235048Y536733D01*
X235122Y536808D01*
X235194Y536884D01*
X235262Y536964D01*
X235328Y537046D01*
X235390Y537130D01*
X235449Y537216D01*
X235506Y537305D01*
X235558Y537395D01*
X235608Y537487D01*
X235654Y537581D01*
X235697Y537677D01*
X235736Y537774D01*
X235772Y537873D01*
X235804Y537973D01*
X235832Y538073D01*
X235856Y538175D01*
X235877Y538278D01*
X235894Y538381D01*
X235908Y538485D01*
X235917Y538590D01*
X235923Y538694D01*
X235925Y538799D01*
X235923Y538904D01*
X235917Y539008D01*
X235908Y539113D01*
X235894Y539217D01*
X235877Y539320D01*
X235856Y539423D01*
X235832Y539525D01*
X235804Y539625D01*
X235772Y539725D01*
X235736Y539824D01*
X235697Y539921D01*
X235654Y540017D01*
X235608Y540111D01*
X235558Y540203D01*
X235506Y540293D01*
X235449Y540382D01*
X235390Y540468D01*
X235328Y540552D01*
X235262Y540634D01*
X235194Y540714D01*
X235122Y540790D01*
X235048Y540865D01*
X234972Y540936D01*
X234893Y541005D01*
X234811Y541070D01*
X234727Y541133D01*
X234641Y541192D01*
X234552Y541249D01*
X234462Y541302D01*
X234370Y541351D01*
X234276Y541398D01*
X234180Y541441D01*
X234083Y541480D01*
X233984Y541516D01*
X233985Y541515D02*
X233736Y541632D01*
X233485Y541744D01*
X233231Y541849D01*
X232975Y541949D01*
X232716Y542042D01*
X232456Y542129D01*
X232193Y542210D01*
X231929Y542284D01*
X231662Y542352D01*
X231394Y542414D01*
X231125Y542470D01*
X230855Y542519D01*
X230583Y542561D01*
X230311Y542597D01*
X230038Y542627D01*
X229764Y542649D01*
X229489Y542666D01*
X229215Y542676D01*
X228940Y542679D01*
X228940Y534918D02*
X228665Y534921D01*
X228391Y534931D01*
X228116Y534948D01*
X227842Y534970D01*
X227569Y535000D01*
X227297Y535036D01*
X227025Y535078D01*
X226755Y535127D01*
X226485Y535183D01*
X226218Y535245D01*
X225951Y535313D01*
X225687Y535387D01*
X225424Y535468D01*
X225163Y535555D01*
X224905Y535648D01*
X224649Y535748D01*
X224395Y535853D01*
X224144Y535965D01*
X223895Y536082D01*
X223896Y536082D02*
X223797Y536118D01*
X223700Y536157D01*
X223604Y536200D01*
X223510Y536247D01*
X223418Y536296D01*
X223328Y536349D01*
X223239Y536406D01*
X223153Y536465D01*
X223069Y536528D01*
X222987Y536593D01*
X222908Y536662D01*
X222832Y536733D01*
X222758Y536808D01*
X222686Y536884D01*
X222618Y536964D01*
X222552Y537046D01*
X222490Y537130D01*
X222431Y537216D01*
X222374Y537305D01*
X222322Y537395D01*
X222272Y537487D01*
X222226Y537581D01*
X222183Y537677D01*
X222144Y537774D01*
X222108Y537873D01*
X222076Y537973D01*
X222048Y538073D01*
X222024Y538175D01*
X222003Y538278D01*
X221986Y538381D01*
X221972Y538485D01*
X221963Y538590D01*
X221957Y538694D01*
X221955Y538799D01*
X223895Y541516D02*
X224144Y541633D01*
X224395Y541745D01*
X224649Y541850D01*
X224905Y541950D01*
X225163Y542043D01*
X225424Y542130D01*
X225687Y542211D01*
X225951Y542285D01*
X226218Y542353D01*
X226485Y542415D01*
X226755Y542471D01*
X227025Y542520D01*
X227297Y542562D01*
X227569Y542598D01*
X227842Y542628D01*
X228116Y542650D01*
X228391Y542667D01*
X228665Y542677D01*
X228940Y542680D01*
X223896Y541516D02*
X223797Y541480D01*
X223700Y541441D01*
X223604Y541398D01*
X223510Y541351D01*
X223418Y541302D01*
X223328Y541249D01*
X223239Y541192D01*
X223153Y541133D01*
X223069Y541070D01*
X222987Y541005D01*
X222908Y540936D01*
X222832Y540865D01*
X222758Y540790D01*
X222686Y540714D01*
X222618Y540634D01*
X222552Y540552D01*
X222490Y540468D01*
X222431Y540382D01*
X222374Y540293D01*
X222322Y540203D01*
X222272Y540111D01*
X222226Y540017D01*
X222183Y539921D01*
X222144Y539824D01*
X222108Y539725D01*
X222076Y539625D01*
X222048Y539525D01*
X222024Y539423D01*
X222003Y539320D01*
X221986Y539217D01*
X221972Y539113D01*
X221963Y539008D01*
X221957Y538904D01*
X221955Y538799D01*
X225059Y535694D02*
X232821Y541903D01*
X222731Y547993D02*
X221955Y547993D01*
X222731Y547993D02*
X222731Y548769D01*
X221955Y548769D01*
X221955Y547993D01*
X221955Y553468D02*
X222731Y553468D01*
X222731Y554244D01*
X221955Y554244D01*
X221955Y553468D01*
X228940Y559558D02*
X229215Y559561D01*
X229489Y559571D01*
X229764Y559588D01*
X230038Y559610D01*
X230311Y559640D01*
X230583Y559676D01*
X230855Y559718D01*
X231125Y559767D01*
X231395Y559823D01*
X231662Y559885D01*
X231929Y559953D01*
X232193Y560027D01*
X232456Y560108D01*
X232716Y560195D01*
X232975Y560288D01*
X233231Y560388D01*
X233485Y560493D01*
X233736Y560605D01*
X233985Y560722D01*
X233984Y560721D02*
X234083Y560757D01*
X234180Y560796D01*
X234276Y560839D01*
X234370Y560886D01*
X234462Y560935D01*
X234552Y560988D01*
X234641Y561045D01*
X234727Y561104D01*
X234811Y561167D01*
X234893Y561232D01*
X234972Y561301D01*
X235048Y561372D01*
X235122Y561447D01*
X235194Y561523D01*
X235262Y561603D01*
X235328Y561685D01*
X235390Y561769D01*
X235449Y561855D01*
X235506Y561944D01*
X235558Y562034D01*
X235608Y562126D01*
X235654Y562220D01*
X235697Y562316D01*
X235736Y562413D01*
X235772Y562512D01*
X235804Y562612D01*
X235832Y562712D01*
X235856Y562814D01*
X235877Y562917D01*
X235894Y563020D01*
X235908Y563124D01*
X235917Y563229D01*
X235923Y563333D01*
X235925Y563438D01*
X235923Y563543D01*
X235917Y563647D01*
X235908Y563752D01*
X235894Y563856D01*
X235877Y563959D01*
X235856Y564062D01*
X235832Y564164D01*
X235804Y564264D01*
X235772Y564364D01*
X235736Y564463D01*
X235697Y564560D01*
X235654Y564656D01*
X235608Y564750D01*
X235558Y564842D01*
X235506Y564932D01*
X235449Y565021D01*
X235390Y565107D01*
X235328Y565191D01*
X235262Y565273D01*
X235194Y565353D01*
X235122Y565429D01*
X235048Y565504D01*
X234972Y565575D01*
X234893Y565644D01*
X234811Y565709D01*
X234727Y565772D01*
X234641Y565831D01*
X234552Y565888D01*
X234462Y565941D01*
X234370Y565990D01*
X234276Y566037D01*
X234180Y566080D01*
X234083Y566119D01*
X233984Y566155D01*
X233985Y566154D02*
X233736Y566271D01*
X233485Y566383D01*
X233231Y566488D01*
X232975Y566588D01*
X232716Y566681D01*
X232456Y566768D01*
X232193Y566849D01*
X231929Y566923D01*
X231662Y566991D01*
X231394Y567053D01*
X231125Y567109D01*
X230855Y567158D01*
X230583Y567200D01*
X230311Y567236D01*
X230038Y567266D01*
X229764Y567288D01*
X229489Y567305D01*
X229215Y567315D01*
X228940Y567318D01*
X228940Y559557D02*
X228665Y559560D01*
X228391Y559570D01*
X228116Y559587D01*
X227842Y559609D01*
X227569Y559639D01*
X227297Y559675D01*
X227025Y559717D01*
X226755Y559766D01*
X226485Y559822D01*
X226218Y559884D01*
X225951Y559952D01*
X225687Y560026D01*
X225424Y560107D01*
X225163Y560194D01*
X224905Y560287D01*
X224649Y560387D01*
X224395Y560492D01*
X224144Y560604D01*
X223895Y560721D01*
X223896Y560721D02*
X223797Y560757D01*
X223700Y560796D01*
X223604Y560839D01*
X223510Y560886D01*
X223418Y560935D01*
X223328Y560988D01*
X223239Y561045D01*
X223153Y561104D01*
X223069Y561167D01*
X222987Y561232D01*
X222908Y561301D01*
X222832Y561372D01*
X222758Y561447D01*
X222686Y561523D01*
X222618Y561603D01*
X222552Y561685D01*
X222490Y561769D01*
X222431Y561855D01*
X222374Y561944D01*
X222322Y562034D01*
X222272Y562126D01*
X222226Y562220D01*
X222183Y562316D01*
X222144Y562413D01*
X222108Y562512D01*
X222076Y562612D01*
X222048Y562712D01*
X222024Y562814D01*
X222003Y562917D01*
X221986Y563020D01*
X221972Y563124D01*
X221963Y563229D01*
X221957Y563333D01*
X221955Y563438D01*
X223895Y566155D02*
X224144Y566272D01*
X224395Y566384D01*
X224649Y566489D01*
X224905Y566589D01*
X225163Y566682D01*
X225424Y566769D01*
X225687Y566850D01*
X225951Y566924D01*
X226218Y566992D01*
X226485Y567054D01*
X226755Y567110D01*
X227025Y567159D01*
X227297Y567201D01*
X227569Y567237D01*
X227842Y567267D01*
X228116Y567289D01*
X228391Y567306D01*
X228665Y567316D01*
X228940Y567319D01*
X223896Y566155D02*
X223797Y566119D01*
X223700Y566080D01*
X223604Y566037D01*
X223510Y565990D01*
X223418Y565941D01*
X223328Y565888D01*
X223239Y565831D01*
X223153Y565772D01*
X223069Y565709D01*
X222987Y565644D01*
X222908Y565575D01*
X222832Y565504D01*
X222758Y565429D01*
X222686Y565353D01*
X222618Y565273D01*
X222552Y565191D01*
X222490Y565107D01*
X222431Y565021D01*
X222374Y564932D01*
X222322Y564842D01*
X222272Y564750D01*
X222226Y564656D01*
X222183Y564560D01*
X222144Y564463D01*
X222108Y564364D01*
X222076Y564264D01*
X222048Y564164D01*
X222024Y564062D01*
X222003Y563959D01*
X221986Y563856D01*
X221972Y563752D01*
X221963Y563647D01*
X221957Y563543D01*
X221955Y563438D01*
X225059Y560334D02*
X232821Y566543D01*
X235925Y572470D02*
X221955Y577127D01*
X235925Y581783D01*
X200365Y467063D02*
X186395Y462407D01*
X186395Y471720D02*
X200365Y467063D01*
X189888Y470556D02*
X189888Y463571D01*
X186395Y478014D02*
X200365Y478014D01*
X186395Y476462D02*
X186395Y479566D01*
X200365Y479566D02*
X200365Y476462D01*
X200365Y485541D02*
X186395Y485541D01*
X186395Y493302D02*
X200365Y485541D01*
X200365Y493302D02*
X186395Y493302D01*
X193380Y506986D02*
X193655Y506989D01*
X193929Y506999D01*
X194204Y507016D01*
X194478Y507038D01*
X194751Y507068D01*
X195023Y507104D01*
X195295Y507146D01*
X195565Y507195D01*
X195835Y507251D01*
X196102Y507313D01*
X196369Y507381D01*
X196633Y507455D01*
X196896Y507536D01*
X197156Y507623D01*
X197415Y507716D01*
X197671Y507816D01*
X197925Y507921D01*
X198176Y508033D01*
X198425Y508150D01*
X198424Y508150D02*
X198523Y508186D01*
X198620Y508225D01*
X198716Y508268D01*
X198810Y508315D01*
X198902Y508364D01*
X198992Y508417D01*
X199081Y508474D01*
X199167Y508533D01*
X199251Y508596D01*
X199333Y508661D01*
X199412Y508730D01*
X199488Y508801D01*
X199562Y508876D01*
X199634Y508952D01*
X199702Y509032D01*
X199768Y509114D01*
X199830Y509198D01*
X199889Y509284D01*
X199946Y509373D01*
X199998Y509463D01*
X200048Y509555D01*
X200094Y509649D01*
X200137Y509745D01*
X200176Y509842D01*
X200212Y509941D01*
X200244Y510041D01*
X200272Y510141D01*
X200296Y510243D01*
X200317Y510346D01*
X200334Y510449D01*
X200348Y510553D01*
X200357Y510658D01*
X200363Y510762D01*
X200365Y510867D01*
X200363Y510972D01*
X200357Y511076D01*
X200348Y511181D01*
X200334Y511285D01*
X200317Y511388D01*
X200296Y511491D01*
X200272Y511593D01*
X200244Y511693D01*
X200212Y511793D01*
X200176Y511892D01*
X200137Y511989D01*
X200094Y512085D01*
X200048Y512179D01*
X199998Y512271D01*
X199946Y512361D01*
X199889Y512450D01*
X199830Y512536D01*
X199768Y512620D01*
X199702Y512702D01*
X199634Y512782D01*
X199562Y512858D01*
X199488Y512933D01*
X199412Y513004D01*
X199333Y513073D01*
X199251Y513138D01*
X199167Y513201D01*
X199081Y513260D01*
X198992Y513317D01*
X198902Y513370D01*
X198810Y513419D01*
X198716Y513466D01*
X198620Y513509D01*
X198523Y513548D01*
X198424Y513584D01*
X198425Y513583D02*
X198176Y513700D01*
X197925Y513812D01*
X197671Y513917D01*
X197415Y514017D01*
X197156Y514110D01*
X196896Y514197D01*
X196633Y514278D01*
X196369Y514352D01*
X196102Y514420D01*
X195834Y514482D01*
X195565Y514538D01*
X195295Y514587D01*
X195023Y514629D01*
X194751Y514665D01*
X194478Y514695D01*
X194204Y514717D01*
X193929Y514734D01*
X193655Y514744D01*
X193380Y514747D01*
X193380Y506986D02*
X193105Y506989D01*
X192831Y506999D01*
X192556Y507016D01*
X192282Y507038D01*
X192009Y507068D01*
X191737Y507104D01*
X191465Y507146D01*
X191195Y507195D01*
X190925Y507251D01*
X190658Y507313D01*
X190391Y507381D01*
X190127Y507455D01*
X189864Y507536D01*
X189603Y507623D01*
X189345Y507716D01*
X189089Y507816D01*
X188835Y507921D01*
X188584Y508033D01*
X188335Y508150D01*
X188336Y508150D02*
X188237Y508186D01*
X188140Y508225D01*
X188044Y508268D01*
X187950Y508315D01*
X187858Y508364D01*
X187768Y508417D01*
X187679Y508474D01*
X187593Y508533D01*
X187509Y508596D01*
X187427Y508661D01*
X187348Y508730D01*
X187272Y508801D01*
X187198Y508876D01*
X187126Y508952D01*
X187058Y509032D01*
X186992Y509114D01*
X186930Y509198D01*
X186871Y509284D01*
X186814Y509373D01*
X186762Y509463D01*
X186712Y509555D01*
X186666Y509649D01*
X186623Y509745D01*
X186584Y509842D01*
X186548Y509941D01*
X186516Y510041D01*
X186488Y510141D01*
X186464Y510243D01*
X186443Y510346D01*
X186426Y510449D01*
X186412Y510553D01*
X186403Y510658D01*
X186397Y510762D01*
X186395Y510867D01*
X188335Y513584D02*
X188584Y513701D01*
X188835Y513813D01*
X189089Y513918D01*
X189345Y514018D01*
X189603Y514111D01*
X189864Y514198D01*
X190127Y514279D01*
X190391Y514353D01*
X190658Y514421D01*
X190925Y514483D01*
X191195Y514539D01*
X191465Y514588D01*
X191737Y514630D01*
X192009Y514666D01*
X192282Y514696D01*
X192556Y514718D01*
X192831Y514735D01*
X193105Y514745D01*
X193380Y514748D01*
X188336Y513584D02*
X188237Y513548D01*
X188140Y513509D01*
X188044Y513466D01*
X187950Y513419D01*
X187858Y513370D01*
X187768Y513317D01*
X187679Y513260D01*
X187593Y513201D01*
X187509Y513138D01*
X187427Y513073D01*
X187348Y513004D01*
X187272Y512933D01*
X187198Y512858D01*
X187126Y512782D01*
X187058Y512702D01*
X186992Y512620D01*
X186930Y512536D01*
X186871Y512450D01*
X186814Y512361D01*
X186762Y512271D01*
X186712Y512179D01*
X186666Y512085D01*
X186623Y511989D01*
X186584Y511892D01*
X186548Y511793D01*
X186516Y511693D01*
X186488Y511593D01*
X186464Y511491D01*
X186443Y511388D01*
X186426Y511285D01*
X186412Y511181D01*
X186403Y511076D01*
X186397Y510972D01*
X186395Y510867D01*
X189499Y507762D02*
X197261Y513971D01*
X187171Y520061D02*
X186395Y520061D01*
X187171Y520061D02*
X187171Y520837D01*
X186395Y520837D01*
X186395Y520061D01*
X186395Y525536D02*
X187171Y525536D01*
X187171Y526312D01*
X186395Y526312D01*
X186395Y525536D01*
X191828Y531762D02*
X191828Y541075D01*
X196484Y536419D02*
X187171Y536419D01*
X197261Y547139D02*
X200365Y551020D01*
X186395Y551020D01*
X186395Y554900D02*
X186395Y547139D01*
X193380Y560828D02*
X193655Y560831D01*
X193929Y560841D01*
X194204Y560858D01*
X194478Y560880D01*
X194751Y560910D01*
X195023Y560946D01*
X195295Y560988D01*
X195565Y561037D01*
X195835Y561093D01*
X196102Y561155D01*
X196369Y561223D01*
X196633Y561297D01*
X196896Y561378D01*
X197156Y561465D01*
X197415Y561558D01*
X197671Y561658D01*
X197925Y561763D01*
X198176Y561875D01*
X198425Y561992D01*
X198424Y561991D02*
X198523Y562027D01*
X198620Y562066D01*
X198716Y562109D01*
X198810Y562156D01*
X198902Y562205D01*
X198992Y562258D01*
X199081Y562315D01*
X199167Y562374D01*
X199251Y562437D01*
X199333Y562502D01*
X199412Y562571D01*
X199488Y562642D01*
X199562Y562717D01*
X199634Y562793D01*
X199702Y562873D01*
X199768Y562955D01*
X199830Y563039D01*
X199889Y563125D01*
X199946Y563214D01*
X199998Y563304D01*
X200048Y563396D01*
X200094Y563490D01*
X200137Y563586D01*
X200176Y563683D01*
X200212Y563782D01*
X200244Y563882D01*
X200272Y563982D01*
X200296Y564084D01*
X200317Y564187D01*
X200334Y564290D01*
X200348Y564394D01*
X200357Y564499D01*
X200363Y564603D01*
X200365Y564708D01*
X200363Y564813D01*
X200357Y564917D01*
X200348Y565022D01*
X200334Y565126D01*
X200317Y565229D01*
X200296Y565332D01*
X200272Y565434D01*
X200244Y565534D01*
X200212Y565634D01*
X200176Y565733D01*
X200137Y565830D01*
X200094Y565926D01*
X200048Y566020D01*
X199998Y566112D01*
X199946Y566202D01*
X199889Y566291D01*
X199830Y566377D01*
X199768Y566461D01*
X199702Y566543D01*
X199634Y566623D01*
X199562Y566699D01*
X199488Y566774D01*
X199412Y566845D01*
X199333Y566914D01*
X199251Y566979D01*
X199167Y567042D01*
X199081Y567101D01*
X198992Y567158D01*
X198902Y567211D01*
X198810Y567260D01*
X198716Y567307D01*
X198620Y567350D01*
X198523Y567389D01*
X198424Y567425D01*
X198425Y567424D02*
X198176Y567541D01*
X197925Y567653D01*
X197671Y567758D01*
X197415Y567858D01*
X197156Y567951D01*
X196896Y568038D01*
X196633Y568119D01*
X196369Y568193D01*
X196102Y568261D01*
X195834Y568323D01*
X195565Y568379D01*
X195295Y568428D01*
X195023Y568470D01*
X194751Y568506D01*
X194478Y568536D01*
X194204Y568558D01*
X193929Y568575D01*
X193655Y568585D01*
X193380Y568588D01*
X193380Y560827D02*
X193105Y560830D01*
X192831Y560840D01*
X192556Y560857D01*
X192282Y560879D01*
X192009Y560909D01*
X191737Y560945D01*
X191465Y560987D01*
X191195Y561036D01*
X190925Y561092D01*
X190658Y561154D01*
X190391Y561222D01*
X190127Y561296D01*
X189864Y561377D01*
X189603Y561464D01*
X189345Y561557D01*
X189089Y561657D01*
X188835Y561762D01*
X188584Y561874D01*
X188335Y561991D01*
X188336Y561991D02*
X188237Y562027D01*
X188140Y562066D01*
X188044Y562109D01*
X187950Y562156D01*
X187858Y562205D01*
X187768Y562258D01*
X187679Y562315D01*
X187593Y562374D01*
X187509Y562437D01*
X187427Y562502D01*
X187348Y562571D01*
X187272Y562642D01*
X187198Y562717D01*
X187126Y562793D01*
X187058Y562873D01*
X186992Y562955D01*
X186930Y563039D01*
X186871Y563125D01*
X186814Y563214D01*
X186762Y563304D01*
X186712Y563396D01*
X186666Y563490D01*
X186623Y563586D01*
X186584Y563683D01*
X186548Y563782D01*
X186516Y563882D01*
X186488Y563982D01*
X186464Y564084D01*
X186443Y564187D01*
X186426Y564290D01*
X186412Y564394D01*
X186403Y564499D01*
X186397Y564603D01*
X186395Y564708D01*
X188335Y567425D02*
X188584Y567542D01*
X188835Y567654D01*
X189089Y567759D01*
X189345Y567859D01*
X189603Y567952D01*
X189864Y568039D01*
X190127Y568120D01*
X190391Y568194D01*
X190658Y568262D01*
X190925Y568324D01*
X191195Y568380D01*
X191465Y568429D01*
X191737Y568471D01*
X192009Y568507D01*
X192282Y568537D01*
X192556Y568559D01*
X192831Y568576D01*
X193105Y568586D01*
X193380Y568589D01*
X188336Y567425D02*
X188237Y567389D01*
X188140Y567350D01*
X188044Y567307D01*
X187950Y567260D01*
X187858Y567211D01*
X187768Y567158D01*
X187679Y567101D01*
X187593Y567042D01*
X187509Y566979D01*
X187427Y566914D01*
X187348Y566845D01*
X187272Y566774D01*
X187198Y566699D01*
X187126Y566623D01*
X187058Y566543D01*
X186992Y566461D01*
X186930Y566377D01*
X186871Y566291D01*
X186814Y566202D01*
X186762Y566112D01*
X186712Y566020D01*
X186666Y565926D01*
X186623Y565830D01*
X186584Y565733D01*
X186548Y565634D01*
X186516Y565534D01*
X186488Y565434D01*
X186464Y565332D01*
X186443Y565229D01*
X186426Y565126D01*
X186412Y565022D01*
X186403Y564917D01*
X186397Y564813D01*
X186395Y564708D01*
X189499Y561604D02*
X197261Y567813D01*
X200365Y573740D02*
X186395Y578397D01*
X200365Y583053D01*
X298508Y541958D02*
X298508Y532644D01*
X293851Y537301D02*
X303164Y537301D01*
X303941Y548022D02*
X307045Y551902D01*
X293075Y551902D01*
X293075Y548022D02*
X293075Y555783D01*
X293075Y561710D02*
X293075Y566367D01*
X293077Y566478D01*
X293083Y566588D01*
X293093Y566699D01*
X293107Y566809D01*
X293124Y566918D01*
X293146Y567027D01*
X293171Y567135D01*
X293201Y567241D01*
X293234Y567347D01*
X293271Y567452D01*
X293311Y567555D01*
X293356Y567656D01*
X293403Y567756D01*
X293455Y567855D01*
X293510Y567951D01*
X293568Y568045D01*
X293629Y568137D01*
X293694Y568227D01*
X293762Y568315D01*
X293833Y568400D01*
X293907Y568482D01*
X293984Y568562D01*
X294064Y568639D01*
X294146Y568713D01*
X294231Y568784D01*
X294319Y568852D01*
X294409Y568917D01*
X294501Y568978D01*
X294595Y569036D01*
X294691Y569091D01*
X294790Y569143D01*
X294890Y569190D01*
X294991Y569235D01*
X295094Y569275D01*
X295199Y569312D01*
X295305Y569345D01*
X295411Y569375D01*
X295519Y569400D01*
X295628Y569422D01*
X295737Y569439D01*
X295847Y569453D01*
X295958Y569463D01*
X296068Y569469D01*
X296179Y569471D01*
X297732Y569471D01*
X297843Y569469D01*
X297953Y569463D01*
X298064Y569453D01*
X298174Y569439D01*
X298283Y569422D01*
X298392Y569400D01*
X298500Y569375D01*
X298606Y569345D01*
X298712Y569312D01*
X298817Y569275D01*
X298920Y569235D01*
X299021Y569190D01*
X299121Y569143D01*
X299220Y569091D01*
X299316Y569036D01*
X299410Y568978D01*
X299502Y568917D01*
X299592Y568852D01*
X299680Y568784D01*
X299765Y568713D01*
X299847Y568639D01*
X299927Y568562D01*
X300004Y568482D01*
X300078Y568400D01*
X300149Y568315D01*
X300217Y568227D01*
X300282Y568137D01*
X300343Y568045D01*
X300401Y567951D01*
X300456Y567855D01*
X300508Y567756D01*
X300555Y567656D01*
X300600Y567555D01*
X300640Y567452D01*
X300677Y567347D01*
X300710Y567241D01*
X300740Y567135D01*
X300765Y567027D01*
X300787Y566918D01*
X300804Y566809D01*
X300818Y566699D01*
X300828Y566588D01*
X300834Y566478D01*
X300836Y566367D01*
X300836Y561710D01*
X307045Y561710D01*
X307045Y569471D01*
X307045Y574622D02*
X293075Y579279D01*
X307045Y583936D01*
X272755Y617166D02*
X258785Y617166D01*
X258785Y618718D02*
X258785Y615613D01*
X272755Y615613D02*
X272755Y618718D01*
X272755Y624692D02*
X258785Y624692D01*
X258785Y632453D02*
X272755Y624692D01*
X272755Y632453D02*
X258785Y632453D01*
X264218Y638973D02*
X264218Y648287D01*
D13*
X347069Y251065D02*
X347069Y248976D01*
X347071Y248887D01*
X347077Y248799D01*
X347086Y248711D01*
X347099Y248623D01*
X347116Y248536D01*
X347136Y248450D01*
X347161Y248365D01*
X347188Y248280D01*
X347220Y248197D01*
X347254Y248116D01*
X347293Y248036D01*
X347334Y247958D01*
X347379Y247881D01*
X347427Y247807D01*
X347478Y247734D01*
X347532Y247664D01*
X347590Y247597D01*
X347650Y247531D01*
X347712Y247469D01*
X347778Y247409D01*
X347845Y247351D01*
X347915Y247297D01*
X347988Y247246D01*
X348062Y247198D01*
X348139Y247153D01*
X348217Y247112D01*
X348297Y247073D01*
X348378Y247039D01*
X348461Y247007D01*
X348546Y246980D01*
X348631Y246955D01*
X348717Y246935D01*
X348804Y246918D01*
X348892Y246905D01*
X348980Y246896D01*
X349068Y246890D01*
X349157Y246888D01*
X354378Y246888D01*
X354469Y246890D01*
X354560Y246896D01*
X354651Y246906D01*
X354741Y246920D01*
X354830Y246937D01*
X354918Y246959D01*
X355006Y246985D01*
X355092Y247014D01*
X355177Y247047D01*
X355260Y247084D01*
X355342Y247124D01*
X355422Y247168D01*
X355500Y247215D01*
X355576Y247266D01*
X355649Y247319D01*
X355720Y247376D01*
X355789Y247437D01*
X355854Y247500D01*
X355917Y247565D01*
X355977Y247634D01*
X356035Y247705D01*
X356088Y247778D01*
X356139Y247854D01*
X356186Y247932D01*
X356230Y248012D01*
X356270Y248094D01*
X356307Y248177D01*
X356340Y248262D01*
X356369Y248348D01*
X356395Y248436D01*
X356417Y248524D01*
X356434Y248613D01*
X356448Y248703D01*
X356458Y248794D01*
X356464Y248885D01*
X356466Y248976D01*
X356467Y248976D02*
X356467Y251065D01*
X349679Y254533D02*
X349780Y254535D01*
X349881Y254541D01*
X349982Y254551D01*
X350082Y254564D01*
X350182Y254582D01*
X350281Y254603D01*
X350379Y254629D01*
X350476Y254658D01*
X350572Y254690D01*
X350666Y254727D01*
X350759Y254767D01*
X350851Y254811D01*
X350940Y254858D01*
X351028Y254909D01*
X351114Y254963D01*
X351197Y255020D01*
X351279Y255080D01*
X351357Y255144D01*
X351434Y255210D01*
X351507Y255280D01*
X351578Y255352D01*
X351646Y255427D01*
X351711Y255505D01*
X351773Y255585D01*
X351832Y255667D01*
X351888Y255752D01*
X351940Y255838D01*
X351989Y255927D01*
X352035Y256018D01*
X352076Y256110D01*
X352115Y256204D01*
X352149Y256299D01*
X352180Y256395D01*
X352207Y256493D01*
X352231Y256591D01*
X352250Y256691D01*
X352266Y256791D01*
X352278Y256891D01*
X352286Y256992D01*
X352290Y257093D01*
X352290Y257195D01*
X352286Y257296D01*
X352278Y257397D01*
X352266Y257497D01*
X352250Y257597D01*
X352231Y257697D01*
X352207Y257795D01*
X352180Y257893D01*
X352149Y257989D01*
X352115Y258084D01*
X352076Y258178D01*
X352035Y258270D01*
X351989Y258361D01*
X351940Y258449D01*
X351888Y258536D01*
X351832Y258621D01*
X351773Y258703D01*
X351711Y258783D01*
X351646Y258861D01*
X351578Y258936D01*
X351507Y259008D01*
X351434Y259078D01*
X351357Y259144D01*
X351279Y259208D01*
X351197Y259268D01*
X351114Y259325D01*
X351028Y259379D01*
X350940Y259430D01*
X350851Y259477D01*
X350759Y259521D01*
X350666Y259561D01*
X350572Y259598D01*
X350476Y259630D01*
X350379Y259659D01*
X350281Y259685D01*
X350182Y259706D01*
X350082Y259724D01*
X349982Y259737D01*
X349881Y259747D01*
X349780Y259753D01*
X349679Y259755D01*
X349578Y259753D01*
X349477Y259747D01*
X349376Y259737D01*
X349276Y259724D01*
X349176Y259706D01*
X349077Y259685D01*
X348979Y259659D01*
X348882Y259630D01*
X348786Y259598D01*
X348692Y259561D01*
X348599Y259521D01*
X348507Y259477D01*
X348418Y259430D01*
X348330Y259379D01*
X348244Y259325D01*
X348161Y259268D01*
X348079Y259208D01*
X348001Y259144D01*
X347924Y259078D01*
X347851Y259008D01*
X347780Y258936D01*
X347712Y258861D01*
X347647Y258783D01*
X347585Y258703D01*
X347526Y258621D01*
X347470Y258536D01*
X347418Y258450D01*
X347369Y258361D01*
X347323Y258270D01*
X347282Y258178D01*
X347243Y258084D01*
X347209Y257989D01*
X347178Y257893D01*
X347151Y257795D01*
X347127Y257697D01*
X347108Y257597D01*
X347092Y257497D01*
X347080Y257397D01*
X347072Y257296D01*
X347068Y257195D01*
X347068Y257093D01*
X347072Y256992D01*
X347080Y256891D01*
X347092Y256791D01*
X347108Y256691D01*
X347127Y256591D01*
X347151Y256493D01*
X347178Y256395D01*
X347209Y256299D01*
X347243Y256204D01*
X347282Y256110D01*
X347323Y256018D01*
X347369Y255927D01*
X347418Y255839D01*
X347470Y255752D01*
X347526Y255667D01*
X347585Y255585D01*
X347647Y255505D01*
X347712Y255427D01*
X347780Y255352D01*
X347851Y255280D01*
X347924Y255210D01*
X348001Y255144D01*
X348079Y255080D01*
X348161Y255020D01*
X348244Y254963D01*
X348330Y254909D01*
X348418Y254858D01*
X348507Y254811D01*
X348599Y254767D01*
X348692Y254727D01*
X348786Y254690D01*
X348882Y254658D01*
X348979Y254629D01*
X349077Y254603D01*
X349176Y254582D01*
X349276Y254564D01*
X349376Y254551D01*
X349477Y254541D01*
X349578Y254535D01*
X349679Y254533D01*
X354378Y255056D02*
X354468Y255058D01*
X354557Y255064D01*
X354647Y255073D01*
X354736Y255087D01*
X354824Y255104D01*
X354911Y255125D01*
X354998Y255150D01*
X355083Y255179D01*
X355167Y255211D01*
X355249Y255246D01*
X355330Y255286D01*
X355409Y255328D01*
X355486Y255374D01*
X355561Y255424D01*
X355634Y255476D01*
X355705Y255532D01*
X355773Y255590D01*
X355838Y255652D01*
X355901Y255716D01*
X355961Y255783D01*
X356018Y255852D01*
X356072Y255924D01*
X356123Y255998D01*
X356171Y256074D01*
X356215Y256152D01*
X356256Y256232D01*
X356294Y256314D01*
X356328Y256397D01*
X356358Y256482D01*
X356385Y256568D01*
X356408Y256654D01*
X356427Y256742D01*
X356442Y256831D01*
X356454Y256920D01*
X356462Y257009D01*
X356466Y257099D01*
X356466Y257189D01*
X356462Y257279D01*
X356454Y257368D01*
X356442Y257457D01*
X356427Y257546D01*
X356408Y257634D01*
X356385Y257720D01*
X356358Y257806D01*
X356328Y257891D01*
X356294Y257974D01*
X356256Y258056D01*
X356215Y258136D01*
X356171Y258214D01*
X356123Y258290D01*
X356072Y258364D01*
X356018Y258436D01*
X355961Y258505D01*
X355901Y258572D01*
X355838Y258636D01*
X355773Y258698D01*
X355705Y258756D01*
X355634Y258812D01*
X355561Y258864D01*
X355486Y258914D01*
X355409Y258960D01*
X355330Y259002D01*
X355249Y259042D01*
X355167Y259077D01*
X355083Y259109D01*
X354998Y259138D01*
X354911Y259163D01*
X354824Y259184D01*
X354736Y259201D01*
X354647Y259215D01*
X354557Y259224D01*
X354468Y259230D01*
X354378Y259232D01*
X354288Y259230D01*
X354199Y259224D01*
X354109Y259215D01*
X354020Y259201D01*
X353932Y259184D01*
X353845Y259163D01*
X353758Y259138D01*
X353673Y259109D01*
X353589Y259077D01*
X353507Y259042D01*
X353426Y259002D01*
X353347Y258960D01*
X353270Y258914D01*
X353195Y258864D01*
X353122Y258812D01*
X353051Y258756D01*
X352983Y258698D01*
X352918Y258636D01*
X352855Y258572D01*
X352795Y258505D01*
X352738Y258436D01*
X352684Y258364D01*
X352633Y258290D01*
X352585Y258214D01*
X352541Y258136D01*
X352500Y258056D01*
X352462Y257974D01*
X352428Y257891D01*
X352398Y257806D01*
X352371Y257720D01*
X352348Y257634D01*
X352329Y257546D01*
X352314Y257457D01*
X352302Y257368D01*
X352294Y257279D01*
X352290Y257189D01*
X352290Y257099D01*
X352294Y257009D01*
X352302Y256920D01*
X352314Y256831D01*
X352329Y256742D01*
X352348Y256654D01*
X352371Y256568D01*
X352398Y256482D01*
X352428Y256397D01*
X352462Y256314D01*
X352500Y256232D01*
X352541Y256152D01*
X352585Y256074D01*
X352633Y255998D01*
X352684Y255924D01*
X352738Y255852D01*
X352795Y255783D01*
X352855Y255716D01*
X352918Y255652D01*
X352983Y255590D01*
X353051Y255532D01*
X353122Y255476D01*
X353195Y255424D01*
X353270Y255374D01*
X353347Y255328D01*
X353426Y255286D01*
X353507Y255246D01*
X353589Y255211D01*
X353673Y255179D01*
X353758Y255150D01*
X353845Y255125D01*
X353932Y255104D01*
X354020Y255087D01*
X354109Y255073D01*
X354199Y255064D01*
X354288Y255058D01*
X354378Y255056D01*
D10*
X174497Y342135D02*
X174497Y362264D01*
D13*
X158285Y364953D02*
X156196Y364953D01*
X158285Y364953D02*
X158374Y364955D01*
X158462Y364961D01*
X158550Y364970D01*
X158638Y364983D01*
X158725Y365000D01*
X158811Y365020D01*
X158896Y365045D01*
X158981Y365072D01*
X159064Y365104D01*
X159145Y365138D01*
X159225Y365177D01*
X159303Y365218D01*
X159380Y365263D01*
X159454Y365311D01*
X159527Y365362D01*
X159597Y365416D01*
X159664Y365474D01*
X159730Y365534D01*
X159792Y365596D01*
X159852Y365662D01*
X159910Y365729D01*
X159964Y365799D01*
X160015Y365872D01*
X160063Y365946D01*
X160108Y366023D01*
X160149Y366101D01*
X160188Y366181D01*
X160222Y366262D01*
X160254Y366345D01*
X160281Y366430D01*
X160306Y366515D01*
X160326Y366601D01*
X160343Y366688D01*
X160356Y366776D01*
X160365Y366864D01*
X160371Y366952D01*
X160373Y367041D01*
X160373Y372263D01*
X160371Y372352D01*
X160365Y372440D01*
X160356Y372528D01*
X160343Y372616D01*
X160326Y372703D01*
X160306Y372789D01*
X160281Y372874D01*
X160254Y372959D01*
X160222Y373042D01*
X160188Y373123D01*
X160149Y373203D01*
X160108Y373281D01*
X160063Y373358D01*
X160015Y373432D01*
X159964Y373505D01*
X159910Y373575D01*
X159852Y373642D01*
X159792Y373708D01*
X159730Y373770D01*
X159664Y373830D01*
X159597Y373888D01*
X159527Y373942D01*
X159454Y373993D01*
X159380Y374041D01*
X159303Y374086D01*
X159225Y374127D01*
X159145Y374166D01*
X159064Y374200D01*
X158981Y374232D01*
X158896Y374259D01*
X158811Y374284D01*
X158725Y374304D01*
X158638Y374321D01*
X158550Y374334D01*
X158462Y374343D01*
X158374Y374349D01*
X158285Y374351D01*
X156196Y374351D01*
X149856Y374352D02*
X149761Y374350D01*
X149667Y374344D01*
X149573Y374335D01*
X149479Y374322D01*
X149386Y374305D01*
X149294Y374284D01*
X149202Y374259D01*
X149112Y374231D01*
X149023Y374199D01*
X148935Y374164D01*
X148849Y374125D01*
X148764Y374083D01*
X148681Y374037D01*
X148600Y373988D01*
X148521Y373936D01*
X148444Y373881D01*
X148370Y373822D01*
X148298Y373761D01*
X148228Y373697D01*
X148161Y373630D01*
X148097Y373560D01*
X148036Y373488D01*
X147977Y373414D01*
X147922Y373337D01*
X147870Y373258D01*
X147821Y373177D01*
X147775Y373094D01*
X147733Y373009D01*
X147694Y372923D01*
X147659Y372835D01*
X147627Y372746D01*
X147599Y372656D01*
X147574Y372564D01*
X147553Y372472D01*
X147536Y372379D01*
X147523Y372285D01*
X147514Y372191D01*
X147508Y372097D01*
X147506Y372002D01*
X149856Y374351D02*
X149964Y374349D01*
X150073Y374343D01*
X150181Y374333D01*
X150288Y374320D01*
X150395Y374302D01*
X150502Y374281D01*
X150607Y374256D01*
X150712Y374227D01*
X150815Y374195D01*
X150917Y374158D01*
X151018Y374118D01*
X151117Y374075D01*
X151215Y374028D01*
X151311Y373977D01*
X151405Y373923D01*
X151497Y373866D01*
X151587Y373805D01*
X151675Y373741D01*
X151760Y373675D01*
X151843Y373605D01*
X151923Y373532D01*
X152001Y373456D01*
X152076Y373378D01*
X152148Y373297D01*
X152217Y373213D01*
X152283Y373127D01*
X152346Y373039D01*
X152405Y372948D01*
X152462Y372856D01*
X152515Y372761D01*
X152564Y372664D01*
X152610Y372566D01*
X152653Y372467D01*
X152692Y372365D01*
X152727Y372263D01*
X148289Y370174D02*
X148220Y370243D01*
X148154Y370314D01*
X148090Y370387D01*
X148029Y370463D01*
X147971Y370542D01*
X147917Y370622D01*
X147865Y370705D01*
X147817Y370789D01*
X147771Y370875D01*
X147730Y370963D01*
X147691Y371053D01*
X147656Y371144D01*
X147625Y371236D01*
X147597Y371329D01*
X147573Y371423D01*
X147553Y371518D01*
X147536Y371614D01*
X147523Y371711D01*
X147514Y371808D01*
X147508Y371905D01*
X147506Y372002D01*
X148290Y370174D02*
X152728Y364953D01*
X147506Y364953D01*
D14*
X296385Y312910D02*
X296385Y277350D01*
X316705Y277350D01*
X316705Y312910D01*
X296385Y312910D01*
D13*
X322562Y278140D02*
X331960Y284405D01*
X331960Y278140D02*
X322562Y284405D01*
X329872Y287806D02*
X331960Y290416D01*
X322562Y290416D01*
X322562Y287806D02*
X322562Y293027D01*
X170277Y522201D02*
X160879Y522201D01*
X170277Y522201D02*
X170277Y524812D01*
X170275Y524913D01*
X170269Y525014D01*
X170259Y525115D01*
X170246Y525215D01*
X170228Y525315D01*
X170207Y525414D01*
X170181Y525512D01*
X170152Y525609D01*
X170120Y525705D01*
X170083Y525799D01*
X170043Y525892D01*
X169999Y525984D01*
X169952Y526073D01*
X169901Y526161D01*
X169847Y526247D01*
X169790Y526330D01*
X169730Y526412D01*
X169666Y526490D01*
X169600Y526567D01*
X169530Y526640D01*
X169458Y526711D01*
X169383Y526779D01*
X169305Y526844D01*
X169225Y526906D01*
X169143Y526965D01*
X169058Y527021D01*
X168972Y527073D01*
X168883Y527122D01*
X168792Y527168D01*
X168700Y527209D01*
X168606Y527248D01*
X168511Y527282D01*
X168415Y527313D01*
X168317Y527340D01*
X168219Y527364D01*
X168119Y527383D01*
X168019Y527399D01*
X167919Y527411D01*
X167818Y527419D01*
X167717Y527423D01*
X167615Y527423D01*
X167514Y527419D01*
X167413Y527411D01*
X167313Y527399D01*
X167213Y527383D01*
X167113Y527364D01*
X167015Y527340D01*
X166917Y527313D01*
X166821Y527282D01*
X166726Y527248D01*
X166632Y527209D01*
X166540Y527168D01*
X166449Y527122D01*
X166361Y527073D01*
X166274Y527021D01*
X166189Y526965D01*
X166107Y526906D01*
X166027Y526844D01*
X165949Y526779D01*
X165874Y526711D01*
X165802Y526640D01*
X165732Y526567D01*
X165666Y526490D01*
X165602Y526412D01*
X165542Y526330D01*
X165485Y526247D01*
X165431Y526161D01*
X165380Y526073D01*
X165333Y525984D01*
X165289Y525892D01*
X165249Y525799D01*
X165212Y525705D01*
X165180Y525609D01*
X165151Y525512D01*
X165125Y525414D01*
X165104Y525315D01*
X165086Y525215D01*
X165073Y525115D01*
X165063Y525014D01*
X165057Y524913D01*
X165055Y524812D01*
X165055Y522201D01*
X165055Y525334D02*
X160879Y527422D01*
X167927Y536510D02*
X168022Y536508D01*
X168116Y536502D01*
X168210Y536493D01*
X168304Y536480D01*
X168397Y536463D01*
X168489Y536442D01*
X168581Y536417D01*
X168671Y536389D01*
X168760Y536357D01*
X168848Y536322D01*
X168934Y536283D01*
X169019Y536241D01*
X169102Y536195D01*
X169183Y536146D01*
X169262Y536094D01*
X169339Y536039D01*
X169413Y535980D01*
X169485Y535919D01*
X169555Y535855D01*
X169622Y535788D01*
X169686Y535718D01*
X169747Y535646D01*
X169806Y535572D01*
X169861Y535495D01*
X169913Y535416D01*
X169962Y535335D01*
X170008Y535252D01*
X170050Y535167D01*
X170089Y535081D01*
X170124Y534993D01*
X170156Y534904D01*
X170184Y534814D01*
X170209Y534722D01*
X170230Y534630D01*
X170247Y534537D01*
X170260Y534443D01*
X170269Y534349D01*
X170275Y534255D01*
X170277Y534160D01*
X170276Y534160D02*
X170274Y534052D01*
X170268Y533943D01*
X170258Y533835D01*
X170245Y533728D01*
X170227Y533621D01*
X170206Y533514D01*
X170181Y533409D01*
X170152Y533304D01*
X170120Y533201D01*
X170083Y533099D01*
X170043Y532998D01*
X170000Y532899D01*
X169953Y532801D01*
X169902Y532705D01*
X169848Y532611D01*
X169791Y532519D01*
X169730Y532429D01*
X169666Y532341D01*
X169600Y532256D01*
X169530Y532173D01*
X169457Y532093D01*
X169381Y532015D01*
X169303Y531940D01*
X169222Y531868D01*
X169138Y531799D01*
X169052Y531733D01*
X168964Y531670D01*
X168873Y531611D01*
X168781Y531554D01*
X168686Y531501D01*
X168590Y531452D01*
X168491Y531406D01*
X168392Y531363D01*
X168290Y531324D01*
X168188Y531289D01*
X166099Y535726D02*
X166168Y535795D01*
X166239Y535861D01*
X166312Y535925D01*
X166388Y535986D01*
X166467Y536044D01*
X166547Y536098D01*
X166630Y536150D01*
X166714Y536198D01*
X166800Y536244D01*
X166888Y536285D01*
X166978Y536324D01*
X167069Y536359D01*
X167161Y536390D01*
X167254Y536418D01*
X167348Y536442D01*
X167443Y536462D01*
X167539Y536479D01*
X167636Y536492D01*
X167733Y536501D01*
X167830Y536507D01*
X167927Y536509D01*
X166100Y535726D02*
X160879Y531288D01*
X160879Y536509D01*
D10*
X308785Y186992D02*
X328915Y186992D01*
D13*
X312857Y231406D02*
X312857Y233494D01*
X312857Y231406D02*
X312859Y231317D01*
X312865Y231229D01*
X312874Y231141D01*
X312887Y231053D01*
X312904Y230966D01*
X312924Y230880D01*
X312949Y230795D01*
X312976Y230710D01*
X313008Y230627D01*
X313042Y230546D01*
X313081Y230466D01*
X313122Y230388D01*
X313167Y230311D01*
X313215Y230237D01*
X313266Y230164D01*
X313320Y230094D01*
X313378Y230027D01*
X313438Y229961D01*
X313500Y229899D01*
X313566Y229839D01*
X313633Y229781D01*
X313703Y229727D01*
X313776Y229676D01*
X313850Y229628D01*
X313927Y229583D01*
X314005Y229542D01*
X314085Y229503D01*
X314166Y229469D01*
X314249Y229437D01*
X314334Y229410D01*
X314419Y229385D01*
X314505Y229365D01*
X314592Y229348D01*
X314680Y229335D01*
X314768Y229326D01*
X314856Y229320D01*
X314945Y229318D01*
X314945Y229317D02*
X320166Y229317D01*
X320166Y229318D02*
X320257Y229320D01*
X320348Y229326D01*
X320439Y229336D01*
X320529Y229350D01*
X320618Y229367D01*
X320706Y229389D01*
X320794Y229415D01*
X320880Y229444D01*
X320965Y229477D01*
X321048Y229514D01*
X321130Y229554D01*
X321210Y229598D01*
X321288Y229645D01*
X321364Y229696D01*
X321437Y229749D01*
X321508Y229806D01*
X321577Y229867D01*
X321642Y229930D01*
X321705Y229995D01*
X321765Y230064D01*
X321823Y230135D01*
X321876Y230208D01*
X321927Y230284D01*
X321974Y230362D01*
X322018Y230442D01*
X322058Y230524D01*
X322095Y230607D01*
X322128Y230692D01*
X322157Y230778D01*
X322183Y230866D01*
X322205Y230954D01*
X322222Y231043D01*
X322236Y231133D01*
X322246Y231224D01*
X322252Y231315D01*
X322254Y231406D01*
X322255Y231406D02*
X322255Y233494D01*
X322255Y239051D02*
X314945Y236963D01*
X314945Y242184D01*
X317034Y240618D02*
X312857Y240618D01*
D10*
X174450Y230096D02*
X154320Y230096D01*
D13*
X150558Y242372D02*
X150558Y244461D01*
X150559Y242372D02*
X150561Y242283D01*
X150567Y242195D01*
X150576Y242107D01*
X150589Y242019D01*
X150606Y241932D01*
X150626Y241846D01*
X150651Y241761D01*
X150678Y241676D01*
X150710Y241593D01*
X150744Y241512D01*
X150783Y241432D01*
X150824Y241354D01*
X150869Y241277D01*
X150917Y241203D01*
X150968Y241130D01*
X151022Y241060D01*
X151080Y240993D01*
X151140Y240927D01*
X151202Y240865D01*
X151268Y240805D01*
X151335Y240747D01*
X151405Y240693D01*
X151478Y240642D01*
X151552Y240594D01*
X151629Y240549D01*
X151707Y240508D01*
X151787Y240469D01*
X151868Y240435D01*
X151951Y240403D01*
X152036Y240376D01*
X152121Y240351D01*
X152207Y240331D01*
X152294Y240314D01*
X152382Y240301D01*
X152470Y240292D01*
X152558Y240286D01*
X152647Y240284D01*
X157868Y240284D01*
X157959Y240286D01*
X158050Y240292D01*
X158141Y240302D01*
X158231Y240316D01*
X158320Y240333D01*
X158408Y240355D01*
X158496Y240381D01*
X158582Y240410D01*
X158667Y240443D01*
X158750Y240480D01*
X158832Y240520D01*
X158912Y240564D01*
X158990Y240611D01*
X159066Y240662D01*
X159139Y240715D01*
X159210Y240772D01*
X159279Y240833D01*
X159344Y240896D01*
X159407Y240961D01*
X159467Y241030D01*
X159525Y241101D01*
X159578Y241174D01*
X159629Y241250D01*
X159676Y241328D01*
X159720Y241408D01*
X159760Y241490D01*
X159797Y241573D01*
X159830Y241658D01*
X159859Y241744D01*
X159885Y241832D01*
X159907Y241920D01*
X159924Y242009D01*
X159938Y242099D01*
X159948Y242190D01*
X159954Y242281D01*
X159956Y242372D01*
X159956Y244461D01*
X159956Y247929D02*
X158912Y247929D01*
X159956Y247929D02*
X159956Y253150D01*
X150558Y250540D01*
X155496Y310731D02*
X157584Y310731D01*
X157673Y310733D01*
X157761Y310739D01*
X157849Y310748D01*
X157937Y310761D01*
X158024Y310778D01*
X158110Y310798D01*
X158195Y310823D01*
X158280Y310850D01*
X158363Y310882D01*
X158444Y310916D01*
X158524Y310955D01*
X158602Y310996D01*
X158679Y311041D01*
X158753Y311089D01*
X158826Y311140D01*
X158896Y311194D01*
X158963Y311252D01*
X159029Y311312D01*
X159091Y311374D01*
X159151Y311440D01*
X159209Y311507D01*
X159263Y311577D01*
X159314Y311650D01*
X159362Y311724D01*
X159407Y311801D01*
X159448Y311879D01*
X159487Y311959D01*
X159521Y312040D01*
X159553Y312123D01*
X159580Y312208D01*
X159605Y312293D01*
X159625Y312379D01*
X159642Y312466D01*
X159655Y312554D01*
X159664Y312642D01*
X159670Y312730D01*
X159672Y312819D01*
X159673Y312819D02*
X159673Y318040D01*
X159672Y318040D02*
X159670Y318129D01*
X159664Y318217D01*
X159655Y318305D01*
X159642Y318393D01*
X159625Y318480D01*
X159605Y318566D01*
X159580Y318651D01*
X159553Y318736D01*
X159521Y318819D01*
X159487Y318900D01*
X159448Y318980D01*
X159407Y319058D01*
X159362Y319135D01*
X159314Y319209D01*
X159263Y319282D01*
X159209Y319352D01*
X159151Y319419D01*
X159091Y319485D01*
X159029Y319547D01*
X158963Y319607D01*
X158896Y319665D01*
X158826Y319719D01*
X158753Y319770D01*
X158679Y319818D01*
X158602Y319863D01*
X158524Y319904D01*
X158444Y319943D01*
X158363Y319977D01*
X158280Y320009D01*
X158195Y320036D01*
X158110Y320061D01*
X158024Y320081D01*
X157937Y320098D01*
X157849Y320111D01*
X157761Y320120D01*
X157673Y320126D01*
X157584Y320128D01*
X157584Y320129D02*
X155496Y320129D01*
X152027Y318040D02*
X149416Y320129D01*
X149416Y310731D01*
X146806Y310731D02*
X152027Y310731D01*
X289245Y227964D02*
X289245Y225876D01*
X289247Y225787D01*
X289253Y225699D01*
X289262Y225611D01*
X289275Y225523D01*
X289292Y225436D01*
X289312Y225350D01*
X289337Y225265D01*
X289364Y225180D01*
X289396Y225097D01*
X289430Y225016D01*
X289469Y224936D01*
X289510Y224858D01*
X289555Y224781D01*
X289603Y224707D01*
X289654Y224634D01*
X289708Y224564D01*
X289766Y224497D01*
X289826Y224431D01*
X289888Y224369D01*
X289954Y224309D01*
X290021Y224251D01*
X290091Y224197D01*
X290164Y224146D01*
X290238Y224098D01*
X290315Y224053D01*
X290393Y224012D01*
X290473Y223973D01*
X290554Y223939D01*
X290637Y223907D01*
X290722Y223880D01*
X290807Y223855D01*
X290893Y223835D01*
X290980Y223818D01*
X291068Y223805D01*
X291156Y223796D01*
X291244Y223790D01*
X291333Y223788D01*
X296555Y223788D01*
X296646Y223790D01*
X296737Y223796D01*
X296828Y223806D01*
X296918Y223820D01*
X297007Y223837D01*
X297095Y223859D01*
X297183Y223885D01*
X297269Y223914D01*
X297354Y223947D01*
X297437Y223984D01*
X297519Y224024D01*
X297599Y224068D01*
X297677Y224115D01*
X297753Y224166D01*
X297826Y224219D01*
X297897Y224276D01*
X297966Y224337D01*
X298031Y224400D01*
X298094Y224465D01*
X298154Y224534D01*
X298212Y224605D01*
X298265Y224678D01*
X298316Y224754D01*
X298363Y224832D01*
X298407Y224912D01*
X298447Y224994D01*
X298484Y225077D01*
X298517Y225162D01*
X298546Y225248D01*
X298572Y225336D01*
X298594Y225424D01*
X298611Y225513D01*
X298625Y225603D01*
X298635Y225694D01*
X298641Y225785D01*
X298643Y225876D01*
X298643Y227964D01*
X289245Y231433D02*
X289245Y234044D01*
X289247Y234145D01*
X289253Y234246D01*
X289263Y234347D01*
X289276Y234447D01*
X289294Y234547D01*
X289315Y234646D01*
X289341Y234744D01*
X289370Y234841D01*
X289402Y234937D01*
X289439Y235031D01*
X289479Y235124D01*
X289523Y235216D01*
X289570Y235305D01*
X289621Y235393D01*
X289675Y235479D01*
X289732Y235562D01*
X289792Y235644D01*
X289856Y235722D01*
X289922Y235799D01*
X289992Y235872D01*
X290064Y235943D01*
X290139Y236011D01*
X290217Y236076D01*
X290297Y236138D01*
X290379Y236197D01*
X290464Y236253D01*
X290551Y236305D01*
X290639Y236354D01*
X290730Y236400D01*
X290822Y236441D01*
X290916Y236480D01*
X291011Y236514D01*
X291107Y236545D01*
X291205Y236572D01*
X291303Y236596D01*
X291403Y236615D01*
X291503Y236631D01*
X291603Y236643D01*
X291704Y236651D01*
X291805Y236655D01*
X291907Y236655D01*
X292008Y236651D01*
X292109Y236643D01*
X292209Y236631D01*
X292309Y236615D01*
X292409Y236596D01*
X292507Y236572D01*
X292605Y236545D01*
X292701Y236514D01*
X292796Y236480D01*
X292890Y236441D01*
X292982Y236400D01*
X293073Y236354D01*
X293162Y236305D01*
X293248Y236253D01*
X293333Y236197D01*
X293415Y236138D01*
X293495Y236076D01*
X293573Y236011D01*
X293648Y235943D01*
X293720Y235872D01*
X293790Y235799D01*
X293856Y235722D01*
X293920Y235644D01*
X293980Y235562D01*
X294037Y235479D01*
X294091Y235393D01*
X294142Y235305D01*
X294189Y235216D01*
X294233Y235124D01*
X294273Y235031D01*
X294310Y234937D01*
X294342Y234841D01*
X294371Y234744D01*
X294397Y234646D01*
X294418Y234547D01*
X294436Y234447D01*
X294449Y234347D01*
X294459Y234246D01*
X294465Y234145D01*
X294467Y234044D01*
X298643Y234566D02*
X298643Y231433D01*
X298643Y234566D02*
X298641Y234656D01*
X298635Y234745D01*
X298626Y234835D01*
X298612Y234924D01*
X298595Y235012D01*
X298574Y235099D01*
X298549Y235186D01*
X298520Y235271D01*
X298488Y235355D01*
X298453Y235437D01*
X298413Y235518D01*
X298371Y235597D01*
X298325Y235674D01*
X298275Y235749D01*
X298223Y235822D01*
X298167Y235893D01*
X298109Y235961D01*
X298047Y236026D01*
X297983Y236089D01*
X297916Y236149D01*
X297847Y236206D01*
X297775Y236260D01*
X297701Y236311D01*
X297625Y236359D01*
X297547Y236403D01*
X297467Y236444D01*
X297385Y236482D01*
X297302Y236516D01*
X297217Y236546D01*
X297131Y236573D01*
X297045Y236596D01*
X296957Y236615D01*
X296868Y236630D01*
X296779Y236642D01*
X296690Y236650D01*
X296600Y236654D01*
X296510Y236654D01*
X296420Y236650D01*
X296331Y236642D01*
X296242Y236630D01*
X296153Y236615D01*
X296065Y236596D01*
X295979Y236573D01*
X295893Y236546D01*
X295808Y236516D01*
X295725Y236482D01*
X295643Y236444D01*
X295563Y236403D01*
X295485Y236359D01*
X295409Y236311D01*
X295335Y236260D01*
X295263Y236206D01*
X295194Y236149D01*
X295127Y236089D01*
X295063Y236026D01*
X295001Y235961D01*
X294943Y235893D01*
X294887Y235822D01*
X294835Y235749D01*
X294785Y235674D01*
X294739Y235597D01*
X294697Y235518D01*
X294657Y235437D01*
X294622Y235355D01*
X294590Y235271D01*
X294561Y235186D01*
X294536Y235099D01*
X294515Y235012D01*
X294498Y234924D01*
X294484Y234835D01*
X294475Y234745D01*
X294469Y234656D01*
X294467Y234566D01*
X294466Y234566D02*
X294466Y232477D01*
X316487Y258193D02*
X318576Y258193D01*
X318576Y258194D02*
X318665Y258196D01*
X318753Y258202D01*
X318841Y258211D01*
X318929Y258224D01*
X319016Y258241D01*
X319102Y258261D01*
X319187Y258286D01*
X319272Y258313D01*
X319355Y258345D01*
X319436Y258379D01*
X319516Y258418D01*
X319594Y258459D01*
X319671Y258504D01*
X319745Y258552D01*
X319818Y258603D01*
X319888Y258657D01*
X319955Y258715D01*
X320021Y258775D01*
X320083Y258837D01*
X320143Y258903D01*
X320201Y258970D01*
X320255Y259040D01*
X320306Y259113D01*
X320354Y259187D01*
X320399Y259264D01*
X320440Y259342D01*
X320479Y259422D01*
X320513Y259503D01*
X320545Y259586D01*
X320572Y259671D01*
X320597Y259756D01*
X320617Y259842D01*
X320634Y259929D01*
X320647Y260017D01*
X320656Y260105D01*
X320662Y260193D01*
X320664Y260282D01*
X320664Y265503D01*
X320662Y265592D01*
X320656Y265680D01*
X320647Y265768D01*
X320634Y265856D01*
X320617Y265943D01*
X320597Y266029D01*
X320572Y266114D01*
X320545Y266199D01*
X320513Y266282D01*
X320479Y266363D01*
X320440Y266443D01*
X320399Y266521D01*
X320354Y266598D01*
X320306Y266672D01*
X320255Y266745D01*
X320201Y266815D01*
X320143Y266882D01*
X320083Y266948D01*
X320021Y267010D01*
X319955Y267070D01*
X319888Y267128D01*
X319818Y267182D01*
X319745Y267233D01*
X319671Y267281D01*
X319594Y267326D01*
X319516Y267367D01*
X319436Y267406D01*
X319355Y267440D01*
X319272Y267472D01*
X319187Y267499D01*
X319102Y267524D01*
X319016Y267544D01*
X318929Y267561D01*
X318841Y267574D01*
X318753Y267583D01*
X318665Y267589D01*
X318576Y267591D01*
X316487Y267591D01*
X313018Y258193D02*
X309886Y258193D01*
X309886Y258194D02*
X309797Y258196D01*
X309709Y258202D01*
X309621Y258211D01*
X309533Y258224D01*
X309446Y258241D01*
X309360Y258261D01*
X309275Y258286D01*
X309190Y258313D01*
X309107Y258345D01*
X309026Y258379D01*
X308946Y258418D01*
X308868Y258459D01*
X308791Y258504D01*
X308717Y258552D01*
X308644Y258603D01*
X308574Y258657D01*
X308507Y258715D01*
X308441Y258775D01*
X308379Y258837D01*
X308319Y258903D01*
X308261Y258970D01*
X308207Y259040D01*
X308156Y259113D01*
X308108Y259187D01*
X308063Y259264D01*
X308022Y259342D01*
X307983Y259422D01*
X307949Y259503D01*
X307917Y259586D01*
X307890Y259671D01*
X307865Y259756D01*
X307845Y259842D01*
X307828Y259929D01*
X307815Y260017D01*
X307806Y260105D01*
X307800Y260193D01*
X307798Y260282D01*
X307797Y260282D02*
X307797Y261326D01*
X307798Y261326D02*
X307800Y261415D01*
X307806Y261503D01*
X307815Y261591D01*
X307828Y261679D01*
X307845Y261766D01*
X307865Y261852D01*
X307890Y261937D01*
X307917Y262022D01*
X307949Y262105D01*
X307983Y262186D01*
X308022Y262266D01*
X308063Y262344D01*
X308108Y262421D01*
X308156Y262495D01*
X308207Y262568D01*
X308261Y262638D01*
X308319Y262705D01*
X308379Y262771D01*
X308441Y262833D01*
X308507Y262893D01*
X308574Y262951D01*
X308644Y263005D01*
X308717Y263056D01*
X308791Y263104D01*
X308868Y263149D01*
X308946Y263190D01*
X309026Y263229D01*
X309107Y263263D01*
X309190Y263295D01*
X309275Y263322D01*
X309360Y263347D01*
X309446Y263367D01*
X309533Y263384D01*
X309621Y263397D01*
X309709Y263406D01*
X309797Y263412D01*
X309886Y263414D01*
X309886Y263415D02*
X313018Y263415D01*
X313018Y267591D01*
X307797Y267591D01*
X263093Y366373D02*
X261005Y366373D01*
X263093Y366373D02*
X263182Y366375D01*
X263270Y366381D01*
X263358Y366390D01*
X263446Y366403D01*
X263533Y366420D01*
X263619Y366440D01*
X263704Y366465D01*
X263789Y366492D01*
X263872Y366524D01*
X263953Y366558D01*
X264033Y366597D01*
X264111Y366638D01*
X264188Y366683D01*
X264262Y366731D01*
X264335Y366782D01*
X264405Y366836D01*
X264472Y366894D01*
X264538Y366954D01*
X264600Y367016D01*
X264660Y367082D01*
X264718Y367149D01*
X264772Y367219D01*
X264823Y367292D01*
X264871Y367366D01*
X264916Y367443D01*
X264957Y367521D01*
X264996Y367601D01*
X265030Y367682D01*
X265062Y367765D01*
X265089Y367850D01*
X265114Y367935D01*
X265134Y368021D01*
X265151Y368108D01*
X265164Y368196D01*
X265173Y368284D01*
X265179Y368372D01*
X265181Y368461D01*
X265182Y368461D02*
X265182Y373682D01*
X265181Y373682D02*
X265179Y373771D01*
X265173Y373859D01*
X265164Y373947D01*
X265151Y374035D01*
X265134Y374122D01*
X265114Y374208D01*
X265089Y374293D01*
X265062Y374378D01*
X265030Y374461D01*
X264996Y374542D01*
X264957Y374622D01*
X264916Y374700D01*
X264871Y374777D01*
X264823Y374851D01*
X264772Y374924D01*
X264718Y374994D01*
X264660Y375061D01*
X264600Y375127D01*
X264538Y375189D01*
X264472Y375249D01*
X264405Y375307D01*
X264335Y375361D01*
X264262Y375412D01*
X264188Y375460D01*
X264111Y375505D01*
X264033Y375546D01*
X263953Y375585D01*
X263872Y375619D01*
X263789Y375651D01*
X263704Y375678D01*
X263619Y375703D01*
X263533Y375723D01*
X263446Y375740D01*
X263358Y375753D01*
X263270Y375762D01*
X263182Y375768D01*
X263093Y375770D01*
X263093Y375771D02*
X261005Y375771D01*
X257536Y371594D02*
X254403Y371594D01*
X254403Y371593D02*
X254314Y371591D01*
X254226Y371585D01*
X254138Y371576D01*
X254050Y371563D01*
X253963Y371546D01*
X253877Y371526D01*
X253792Y371501D01*
X253707Y371474D01*
X253624Y371442D01*
X253543Y371408D01*
X253463Y371369D01*
X253385Y371328D01*
X253308Y371283D01*
X253234Y371235D01*
X253161Y371184D01*
X253091Y371130D01*
X253024Y371072D01*
X252958Y371012D01*
X252896Y370950D01*
X252836Y370884D01*
X252778Y370817D01*
X252724Y370747D01*
X252673Y370674D01*
X252625Y370600D01*
X252580Y370523D01*
X252539Y370445D01*
X252500Y370365D01*
X252466Y370284D01*
X252434Y370201D01*
X252407Y370116D01*
X252382Y370031D01*
X252362Y369945D01*
X252345Y369858D01*
X252332Y369770D01*
X252323Y369682D01*
X252317Y369594D01*
X252315Y369505D01*
X252315Y368983D01*
X252314Y368983D02*
X252316Y368882D01*
X252322Y368781D01*
X252332Y368680D01*
X252345Y368580D01*
X252363Y368480D01*
X252384Y368381D01*
X252410Y368283D01*
X252439Y368186D01*
X252471Y368090D01*
X252508Y367996D01*
X252548Y367903D01*
X252592Y367811D01*
X252639Y367722D01*
X252690Y367634D01*
X252744Y367548D01*
X252801Y367465D01*
X252861Y367383D01*
X252925Y367305D01*
X252991Y367228D01*
X253061Y367155D01*
X253133Y367084D01*
X253208Y367016D01*
X253286Y366951D01*
X253366Y366889D01*
X253448Y366830D01*
X253533Y366774D01*
X253620Y366722D01*
X253708Y366673D01*
X253799Y366627D01*
X253891Y366586D01*
X253985Y366547D01*
X254080Y366513D01*
X254176Y366482D01*
X254274Y366455D01*
X254372Y366431D01*
X254472Y366412D01*
X254572Y366396D01*
X254672Y366384D01*
X254773Y366376D01*
X254874Y366372D01*
X254976Y366372D01*
X255077Y366376D01*
X255178Y366384D01*
X255278Y366396D01*
X255378Y366412D01*
X255478Y366431D01*
X255576Y366455D01*
X255674Y366482D01*
X255770Y366513D01*
X255865Y366547D01*
X255959Y366586D01*
X256051Y366627D01*
X256142Y366673D01*
X256230Y366722D01*
X256317Y366774D01*
X256402Y366830D01*
X256484Y366889D01*
X256564Y366951D01*
X256642Y367016D01*
X256717Y367084D01*
X256789Y367155D01*
X256859Y367228D01*
X256925Y367305D01*
X256989Y367383D01*
X257049Y367465D01*
X257106Y367548D01*
X257160Y367634D01*
X257211Y367722D01*
X257258Y367811D01*
X257302Y367903D01*
X257342Y367996D01*
X257379Y368090D01*
X257411Y368186D01*
X257440Y368283D01*
X257466Y368381D01*
X257487Y368480D01*
X257505Y368580D01*
X257518Y368680D01*
X257528Y368781D01*
X257534Y368882D01*
X257536Y368983D01*
X257536Y371594D01*
X257534Y371720D01*
X257528Y371846D01*
X257519Y371972D01*
X257506Y372097D01*
X257488Y372222D01*
X257468Y372347D01*
X257443Y372471D01*
X257415Y372594D01*
X257383Y372716D01*
X257347Y372837D01*
X257308Y372957D01*
X257265Y373075D01*
X257218Y373192D01*
X257168Y373308D01*
X257114Y373423D01*
X257058Y373535D01*
X256997Y373646D01*
X256934Y373755D01*
X256867Y373862D01*
X256797Y373967D01*
X256723Y374070D01*
X256647Y374170D01*
X256568Y374268D01*
X256486Y374364D01*
X256400Y374457D01*
X256313Y374548D01*
X256222Y374635D01*
X256129Y374721D01*
X256033Y374803D01*
X255935Y374882D01*
X255835Y374958D01*
X255732Y375032D01*
X255627Y375102D01*
X255520Y375169D01*
X255411Y375232D01*
X255300Y375293D01*
X255188Y375349D01*
X255073Y375403D01*
X254957Y375453D01*
X254840Y375500D01*
X254722Y375543D01*
X254602Y375582D01*
X254481Y375618D01*
X254359Y375650D01*
X254236Y375678D01*
X254112Y375703D01*
X253987Y375723D01*
X253862Y375741D01*
X253737Y375754D01*
X253611Y375763D01*
X253485Y375769D01*
X253359Y375771D01*
X297808Y336220D02*
X299896Y336220D01*
X299985Y336222D01*
X300073Y336228D01*
X300161Y336237D01*
X300249Y336250D01*
X300336Y336267D01*
X300422Y336287D01*
X300507Y336312D01*
X300592Y336339D01*
X300675Y336371D01*
X300756Y336405D01*
X300836Y336444D01*
X300914Y336485D01*
X300991Y336530D01*
X301065Y336578D01*
X301138Y336629D01*
X301208Y336683D01*
X301275Y336741D01*
X301341Y336801D01*
X301403Y336863D01*
X301463Y336929D01*
X301521Y336996D01*
X301575Y337066D01*
X301626Y337139D01*
X301674Y337213D01*
X301719Y337290D01*
X301760Y337368D01*
X301799Y337448D01*
X301833Y337529D01*
X301865Y337612D01*
X301892Y337697D01*
X301917Y337782D01*
X301937Y337868D01*
X301954Y337955D01*
X301967Y338043D01*
X301976Y338131D01*
X301982Y338219D01*
X301984Y338308D01*
X301985Y338308D02*
X301985Y343529D01*
X301984Y343529D02*
X301982Y343618D01*
X301976Y343706D01*
X301967Y343794D01*
X301954Y343882D01*
X301937Y343969D01*
X301917Y344055D01*
X301892Y344140D01*
X301865Y344225D01*
X301833Y344308D01*
X301799Y344389D01*
X301760Y344469D01*
X301719Y344547D01*
X301674Y344624D01*
X301626Y344698D01*
X301575Y344771D01*
X301521Y344841D01*
X301463Y344908D01*
X301403Y344974D01*
X301341Y345036D01*
X301275Y345096D01*
X301208Y345154D01*
X301138Y345208D01*
X301065Y345259D01*
X300991Y345307D01*
X300914Y345352D01*
X300836Y345393D01*
X300756Y345432D01*
X300675Y345466D01*
X300592Y345498D01*
X300507Y345525D01*
X300422Y345550D01*
X300336Y345570D01*
X300249Y345587D01*
X300161Y345600D01*
X300073Y345609D01*
X299985Y345615D01*
X299896Y345617D01*
X299896Y345618D02*
X297808Y345618D01*
X292251Y340397D02*
X289118Y340397D01*
X292251Y340397D02*
X292340Y340399D01*
X292428Y340405D01*
X292516Y340414D01*
X292604Y340427D01*
X292691Y340444D01*
X292777Y340464D01*
X292862Y340489D01*
X292947Y340516D01*
X293030Y340548D01*
X293111Y340582D01*
X293191Y340621D01*
X293269Y340662D01*
X293346Y340707D01*
X293420Y340755D01*
X293493Y340806D01*
X293563Y340860D01*
X293630Y340918D01*
X293696Y340978D01*
X293758Y341040D01*
X293818Y341106D01*
X293876Y341173D01*
X293930Y341243D01*
X293981Y341316D01*
X294029Y341390D01*
X294074Y341467D01*
X294115Y341545D01*
X294154Y341625D01*
X294188Y341706D01*
X294220Y341789D01*
X294247Y341874D01*
X294272Y341959D01*
X294292Y342045D01*
X294309Y342132D01*
X294322Y342220D01*
X294331Y342308D01*
X294337Y342396D01*
X294339Y342485D01*
X294339Y343007D01*
X294340Y343007D02*
X294338Y343108D01*
X294332Y343209D01*
X294322Y343310D01*
X294309Y343410D01*
X294291Y343510D01*
X294270Y343609D01*
X294244Y343707D01*
X294215Y343804D01*
X294183Y343900D01*
X294146Y343994D01*
X294106Y344087D01*
X294062Y344179D01*
X294015Y344268D01*
X293964Y344356D01*
X293910Y344442D01*
X293853Y344525D01*
X293793Y344607D01*
X293729Y344685D01*
X293663Y344762D01*
X293593Y344835D01*
X293521Y344906D01*
X293446Y344974D01*
X293368Y345039D01*
X293288Y345101D01*
X293206Y345160D01*
X293121Y345216D01*
X293035Y345268D01*
X292946Y345317D01*
X292855Y345363D01*
X292763Y345404D01*
X292669Y345443D01*
X292574Y345477D01*
X292478Y345508D01*
X292380Y345535D01*
X292282Y345559D01*
X292182Y345578D01*
X292082Y345594D01*
X291982Y345606D01*
X291881Y345614D01*
X291780Y345618D01*
X291678Y345618D01*
X291577Y345614D01*
X291476Y345606D01*
X291376Y345594D01*
X291276Y345578D01*
X291176Y345559D01*
X291078Y345535D01*
X290980Y345508D01*
X290884Y345477D01*
X290789Y345443D01*
X290695Y345404D01*
X290603Y345363D01*
X290512Y345317D01*
X290424Y345268D01*
X290337Y345216D01*
X290252Y345160D01*
X290170Y345101D01*
X290090Y345039D01*
X290012Y344974D01*
X289937Y344906D01*
X289865Y344835D01*
X289795Y344762D01*
X289729Y344685D01*
X289665Y344607D01*
X289605Y344525D01*
X289548Y344442D01*
X289494Y344356D01*
X289443Y344268D01*
X289396Y344179D01*
X289352Y344087D01*
X289312Y343994D01*
X289275Y343900D01*
X289243Y343804D01*
X289214Y343707D01*
X289188Y343609D01*
X289167Y343510D01*
X289149Y343410D01*
X289136Y343310D01*
X289126Y343209D01*
X289120Y343108D01*
X289118Y343007D01*
X289118Y340397D01*
X289120Y340271D01*
X289126Y340145D01*
X289135Y340019D01*
X289148Y339894D01*
X289166Y339769D01*
X289186Y339644D01*
X289211Y339520D01*
X289239Y339397D01*
X289271Y339275D01*
X289307Y339154D01*
X289346Y339034D01*
X289389Y338916D01*
X289436Y338799D01*
X289486Y338683D01*
X289540Y338568D01*
X289596Y338456D01*
X289657Y338345D01*
X289720Y338236D01*
X289787Y338129D01*
X289857Y338024D01*
X289931Y337921D01*
X290007Y337821D01*
X290086Y337723D01*
X290168Y337627D01*
X290254Y337534D01*
X290341Y337443D01*
X290432Y337356D01*
X290525Y337270D01*
X290621Y337188D01*
X290719Y337109D01*
X290819Y337033D01*
X290922Y336959D01*
X291027Y336889D01*
X291134Y336822D01*
X291243Y336759D01*
X291354Y336698D01*
X291466Y336642D01*
X291581Y336588D01*
X291697Y336538D01*
X291814Y336491D01*
X291932Y336448D01*
X292052Y336409D01*
X292173Y336373D01*
X292295Y336341D01*
X292418Y336313D01*
X292542Y336288D01*
X292667Y336268D01*
X292792Y336250D01*
X292917Y336237D01*
X293043Y336228D01*
X293169Y336222D01*
X293295Y336220D01*
X139319Y244221D02*
X129921Y244221D01*
X139319Y244221D02*
X139319Y248398D01*
X135142Y248398D02*
X135142Y244221D01*
X135142Y252260D02*
X135142Y254870D01*
X135143Y254870D02*
X135141Y254971D01*
X135135Y255072D01*
X135125Y255173D01*
X135112Y255273D01*
X135094Y255373D01*
X135073Y255472D01*
X135047Y255570D01*
X135018Y255667D01*
X134986Y255763D01*
X134949Y255857D01*
X134909Y255950D01*
X134865Y256042D01*
X134818Y256131D01*
X134767Y256219D01*
X134713Y256305D01*
X134656Y256388D01*
X134596Y256470D01*
X134532Y256548D01*
X134466Y256625D01*
X134396Y256698D01*
X134324Y256769D01*
X134249Y256837D01*
X134171Y256902D01*
X134091Y256964D01*
X134009Y257023D01*
X133924Y257079D01*
X133838Y257131D01*
X133749Y257180D01*
X133658Y257226D01*
X133566Y257267D01*
X133472Y257306D01*
X133377Y257340D01*
X133281Y257371D01*
X133183Y257398D01*
X133085Y257422D01*
X132985Y257441D01*
X132885Y257457D01*
X132785Y257469D01*
X132684Y257477D01*
X132583Y257481D01*
X132481Y257481D01*
X132380Y257477D01*
X132279Y257469D01*
X132179Y257457D01*
X132079Y257441D01*
X131979Y257422D01*
X131881Y257398D01*
X131783Y257371D01*
X131687Y257340D01*
X131592Y257306D01*
X131498Y257267D01*
X131406Y257226D01*
X131315Y257180D01*
X131227Y257131D01*
X131140Y257079D01*
X131055Y257023D01*
X130973Y256964D01*
X130893Y256902D01*
X130815Y256837D01*
X130740Y256769D01*
X130668Y256698D01*
X130598Y256625D01*
X130532Y256548D01*
X130468Y256470D01*
X130408Y256388D01*
X130351Y256305D01*
X130297Y256219D01*
X130246Y256131D01*
X130199Y256042D01*
X130155Y255950D01*
X130115Y255857D01*
X130078Y255763D01*
X130046Y255667D01*
X130017Y255570D01*
X129991Y255472D01*
X129970Y255373D01*
X129952Y255273D01*
X129939Y255173D01*
X129929Y255072D01*
X129923Y254971D01*
X129921Y254870D01*
X129921Y252260D01*
X139319Y252260D01*
X139319Y254870D01*
X139317Y254960D01*
X139311Y255049D01*
X139302Y255139D01*
X139288Y255228D01*
X139271Y255316D01*
X139250Y255403D01*
X139225Y255490D01*
X139196Y255575D01*
X139164Y255659D01*
X139129Y255741D01*
X139089Y255822D01*
X139047Y255901D01*
X139001Y255978D01*
X138951Y256053D01*
X138899Y256126D01*
X138843Y256197D01*
X138785Y256265D01*
X138723Y256330D01*
X138659Y256393D01*
X138592Y256453D01*
X138523Y256510D01*
X138451Y256564D01*
X138377Y256615D01*
X138301Y256663D01*
X138223Y256707D01*
X138143Y256748D01*
X138061Y256786D01*
X137978Y256820D01*
X137893Y256850D01*
X137807Y256877D01*
X137721Y256900D01*
X137633Y256919D01*
X137544Y256934D01*
X137455Y256946D01*
X137366Y256954D01*
X137276Y256958D01*
X137186Y256958D01*
X137096Y256954D01*
X137007Y256946D01*
X136918Y256934D01*
X136829Y256919D01*
X136741Y256900D01*
X136655Y256877D01*
X136569Y256850D01*
X136484Y256820D01*
X136401Y256786D01*
X136319Y256748D01*
X136239Y256707D01*
X136161Y256663D01*
X136085Y256615D01*
X136011Y256564D01*
X135939Y256510D01*
X135870Y256453D01*
X135803Y256393D01*
X135739Y256330D01*
X135677Y256265D01*
X135619Y256197D01*
X135563Y256126D01*
X135511Y256053D01*
X135461Y255978D01*
X135415Y255901D01*
X135373Y255822D01*
X135333Y255741D01*
X135298Y255659D01*
X135266Y255575D01*
X135237Y255490D01*
X135212Y255403D01*
X135191Y255316D01*
X135174Y255228D01*
X135160Y255139D01*
X135151Y255049D01*
X135145Y254960D01*
X135143Y254870D01*
X132009Y260967D02*
X139319Y263056D01*
X132009Y260967D02*
X132009Y266189D01*
X129921Y264622D02*
X134098Y264622D01*
D15*
X183870Y229590D02*
X275870Y229590D01*
X275870Y321590D02*
X183870Y321590D01*
X183870Y229590D01*
X275870Y229590D02*
X275870Y321590D01*
D16*
X262870Y311590D02*
X262872Y311699D01*
X262878Y311808D01*
X262888Y311916D01*
X262902Y312024D01*
X262919Y312132D01*
X262941Y312239D01*
X262966Y312345D01*
X262996Y312449D01*
X263029Y312553D01*
X263066Y312656D01*
X263106Y312757D01*
X263150Y312856D01*
X263198Y312954D01*
X263250Y313051D01*
X263304Y313145D01*
X263362Y313237D01*
X263424Y313327D01*
X263489Y313414D01*
X263556Y313500D01*
X263627Y313583D01*
X263701Y313663D01*
X263778Y313740D01*
X263857Y313815D01*
X263939Y313886D01*
X264024Y313955D01*
X264111Y314020D01*
X264200Y314083D01*
X264292Y314141D01*
X264386Y314197D01*
X264481Y314249D01*
X264579Y314298D01*
X264678Y314343D01*
X264779Y314385D01*
X264881Y314422D01*
X264984Y314456D01*
X265089Y314487D01*
X265195Y314513D01*
X265301Y314536D01*
X265409Y314554D01*
X265517Y314569D01*
X265625Y314580D01*
X265734Y314587D01*
X265843Y314590D01*
X265952Y314589D01*
X266061Y314584D01*
X266169Y314575D01*
X266277Y314562D01*
X266385Y314545D01*
X266492Y314525D01*
X266598Y314500D01*
X266703Y314472D01*
X266807Y314440D01*
X266910Y314404D01*
X267012Y314364D01*
X267112Y314321D01*
X267210Y314274D01*
X267307Y314224D01*
X267401Y314170D01*
X267494Y314112D01*
X267585Y314052D01*
X267673Y313988D01*
X267759Y313921D01*
X267842Y313851D01*
X267923Y313778D01*
X268001Y313702D01*
X268076Y313623D01*
X268149Y313541D01*
X268218Y313457D01*
X268284Y313371D01*
X268347Y313282D01*
X268407Y313191D01*
X268464Y313098D01*
X268517Y313003D01*
X268566Y312906D01*
X268612Y312807D01*
X268654Y312707D01*
X268693Y312605D01*
X268728Y312501D01*
X268759Y312397D01*
X268787Y312292D01*
X268810Y312185D01*
X268830Y312078D01*
X268846Y311970D01*
X268858Y311862D01*
X268866Y311753D01*
X268870Y311644D01*
X268870Y311536D01*
X268866Y311427D01*
X268858Y311318D01*
X268846Y311210D01*
X268830Y311102D01*
X268810Y310995D01*
X268787Y310888D01*
X268759Y310783D01*
X268728Y310679D01*
X268693Y310575D01*
X268654Y310473D01*
X268612Y310373D01*
X268566Y310274D01*
X268517Y310177D01*
X268464Y310082D01*
X268407Y309989D01*
X268347Y309898D01*
X268284Y309809D01*
X268218Y309723D01*
X268149Y309639D01*
X268076Y309557D01*
X268001Y309478D01*
X267923Y309402D01*
X267842Y309329D01*
X267759Y309259D01*
X267673Y309192D01*
X267585Y309128D01*
X267494Y309068D01*
X267401Y309010D01*
X267307Y308956D01*
X267210Y308906D01*
X267112Y308859D01*
X267012Y308816D01*
X266910Y308776D01*
X266807Y308740D01*
X266703Y308708D01*
X266598Y308680D01*
X266492Y308655D01*
X266385Y308635D01*
X266277Y308618D01*
X266169Y308605D01*
X266061Y308596D01*
X265952Y308591D01*
X265843Y308590D01*
X265734Y308593D01*
X265625Y308600D01*
X265517Y308611D01*
X265409Y308626D01*
X265301Y308644D01*
X265195Y308667D01*
X265089Y308693D01*
X264984Y308724D01*
X264881Y308758D01*
X264779Y308795D01*
X264678Y308837D01*
X264579Y308882D01*
X264481Y308931D01*
X264386Y308983D01*
X264292Y309039D01*
X264200Y309097D01*
X264111Y309160D01*
X264024Y309225D01*
X263939Y309294D01*
X263857Y309365D01*
X263778Y309440D01*
X263701Y309517D01*
X263627Y309597D01*
X263556Y309680D01*
X263489Y309766D01*
X263424Y309853D01*
X263362Y309943D01*
X263304Y310035D01*
X263250Y310129D01*
X263198Y310226D01*
X263150Y310324D01*
X263106Y310423D01*
X263066Y310524D01*
X263029Y310627D01*
X262996Y310731D01*
X262966Y310835D01*
X262941Y310941D01*
X262919Y311048D01*
X262902Y311156D01*
X262888Y311264D01*
X262878Y311372D01*
X262872Y311481D01*
X262870Y311590D01*
D17*
X285120Y320090D02*
X285122Y320160D01*
X285128Y320230D01*
X285138Y320299D01*
X285151Y320368D01*
X285169Y320436D01*
X285190Y320503D01*
X285215Y320568D01*
X285244Y320632D01*
X285276Y320695D01*
X285312Y320755D01*
X285351Y320813D01*
X285393Y320869D01*
X285438Y320923D01*
X285486Y320974D01*
X285537Y321022D01*
X285591Y321067D01*
X285647Y321109D01*
X285705Y321148D01*
X285765Y321184D01*
X285828Y321216D01*
X285892Y321245D01*
X285957Y321270D01*
X286024Y321291D01*
X286092Y321309D01*
X286161Y321322D01*
X286230Y321332D01*
X286300Y321338D01*
X286370Y321340D01*
X286440Y321338D01*
X286510Y321332D01*
X286579Y321322D01*
X286648Y321309D01*
X286716Y321291D01*
X286783Y321270D01*
X286848Y321245D01*
X286912Y321216D01*
X286975Y321184D01*
X287035Y321148D01*
X287093Y321109D01*
X287149Y321067D01*
X287203Y321022D01*
X287254Y320974D01*
X287302Y320923D01*
X287347Y320869D01*
X287389Y320813D01*
X287428Y320755D01*
X287464Y320695D01*
X287496Y320632D01*
X287525Y320568D01*
X287550Y320503D01*
X287571Y320436D01*
X287589Y320368D01*
X287602Y320299D01*
X287612Y320230D01*
X287618Y320160D01*
X287620Y320090D01*
X287618Y320020D01*
X287612Y319950D01*
X287602Y319881D01*
X287589Y319812D01*
X287571Y319744D01*
X287550Y319677D01*
X287525Y319612D01*
X287496Y319548D01*
X287464Y319485D01*
X287428Y319425D01*
X287389Y319367D01*
X287347Y319311D01*
X287302Y319257D01*
X287254Y319206D01*
X287203Y319158D01*
X287149Y319113D01*
X287093Y319071D01*
X287035Y319032D01*
X286975Y318996D01*
X286912Y318964D01*
X286848Y318935D01*
X286783Y318910D01*
X286716Y318889D01*
X286648Y318871D01*
X286579Y318858D01*
X286510Y318848D01*
X286440Y318842D01*
X286370Y318840D01*
X286300Y318842D01*
X286230Y318848D01*
X286161Y318858D01*
X286092Y318871D01*
X286024Y318889D01*
X285957Y318910D01*
X285892Y318935D01*
X285828Y318964D01*
X285765Y318996D01*
X285705Y319032D01*
X285647Y319071D01*
X285591Y319113D01*
X285537Y319158D01*
X285486Y319206D01*
X285438Y319257D01*
X285393Y319311D01*
X285351Y319367D01*
X285312Y319425D01*
X285276Y319485D01*
X285244Y319548D01*
X285215Y319612D01*
X285190Y319677D01*
X285169Y319744D01*
X285151Y319812D01*
X285138Y319881D01*
X285128Y319950D01*
X285122Y320020D01*
X285120Y320090D01*
D13*
X205679Y346327D02*
X205679Y352999D01*
X205679Y346327D02*
X205677Y346228D01*
X205671Y346128D01*
X205662Y346029D01*
X205648Y345931D01*
X205631Y345833D01*
X205610Y345735D01*
X205585Y345639D01*
X205556Y345544D01*
X205524Y345449D01*
X205488Y345357D01*
X205449Y345265D01*
X205406Y345175D01*
X205360Y345087D01*
X205310Y345001D01*
X205257Y344917D01*
X205201Y344835D01*
X205141Y344755D01*
X205079Y344678D01*
X205013Y344603D01*
X204945Y344530D01*
X204874Y344461D01*
X204800Y344394D01*
X204724Y344330D01*
X204645Y344269D01*
X204564Y344211D01*
X204481Y344156D01*
X204396Y344105D01*
X204309Y344057D01*
X204220Y344012D01*
X204129Y343971D01*
X204037Y343933D01*
X203944Y343899D01*
X203849Y343869D01*
X203753Y343842D01*
X203656Y343819D01*
X203559Y343800D01*
X203460Y343785D01*
X203361Y343773D01*
X203262Y343765D01*
X203163Y343761D01*
X203063Y343761D01*
X202964Y343765D01*
X202865Y343773D01*
X202766Y343785D01*
X202667Y343800D01*
X202570Y343819D01*
X202473Y343842D01*
X202377Y343869D01*
X202282Y343899D01*
X202189Y343933D01*
X202097Y343971D01*
X202006Y344012D01*
X201917Y344057D01*
X201830Y344105D01*
X201745Y344156D01*
X201662Y344211D01*
X201581Y344269D01*
X201502Y344330D01*
X201426Y344394D01*
X201352Y344461D01*
X201281Y344530D01*
X201213Y344603D01*
X201147Y344678D01*
X201085Y344755D01*
X201025Y344835D01*
X200969Y344917D01*
X200916Y345001D01*
X200866Y345087D01*
X200820Y345175D01*
X200777Y345265D01*
X200738Y345357D01*
X200702Y345449D01*
X200670Y345544D01*
X200641Y345639D01*
X200616Y345735D01*
X200595Y345833D01*
X200578Y345931D01*
X200564Y346029D01*
X200555Y346128D01*
X200549Y346228D01*
X200547Y346327D01*
X200547Y352999D01*
X196379Y350946D02*
X193813Y352999D01*
X193813Y343761D01*
X196379Y343761D02*
X191247Y343761D01*
M02*
