G04 EAGLE Gerber RS-274X export*
G75*
%MOMM*%
%FSLAX34Y34*%
%LPD*%
%INSolderpaste Top*%
%IPPOS*%
%AMOC8*
5,1,8,0,0,1.08239X$1,22.5*%
G01*
%ADD10R,1.200000X0.600000*%
%ADD11R,1.100000X1.000000*%
%ADD12R,1.000000X1.100000*%
%ADD13R,0.800000X0.800000*%


D10*
X48638Y69850D03*
X48638Y82550D03*
X48638Y95250D03*
X48638Y107950D03*
X48638Y120650D03*
X48638Y133350D03*
X48638Y146050D03*
X48638Y158750D03*
X-7363Y158750D03*
X-7363Y146050D03*
X-7363Y133350D03*
X-7363Y120650D03*
X-7363Y107950D03*
X-7363Y95250D03*
X-7363Y82550D03*
X-7363Y69850D03*
D11*
X11113Y201050D03*
X11113Y218050D03*
D12*
X65088Y159313D03*
X65088Y142313D03*
X-23813Y159313D03*
X-23813Y142313D03*
D11*
X30163Y201050D03*
X30163Y218050D03*
D12*
X-7375Y195263D03*
X-24375Y195263D03*
X-7375Y177800D03*
X-24375Y177800D03*
D13*
X-53975Y38538D03*
X-53975Y53538D03*
D12*
X61350Y177800D03*
X78350Y177800D03*
X76200Y99450D03*
X76200Y116450D03*
X66675Y99450D03*
X66675Y116450D03*
X-26988Y72463D03*
X-26988Y89463D03*
X-36513Y72463D03*
X-36513Y89463D03*
M02*
