G04 EAGLE Gerber RS-274X export*
G75*
%MOMM*%
%FSLAX34Y34*%
%LPD*%
%INSolderpaste Top*%
%IPPOS*%
%AMOC8*
5,1,8,0,0,1.08239X$1,22.5*%
G01*
%ADD10R,0.800000X0.800000*%
%ADD11R,1.000000X1.100000*%
%ADD12R,0.254000X1.066800*%
%ADD13R,1.066800X0.254000*%
%ADD14R,0.279400X1.778000*%
%ADD15R,0.431800X1.778000*%
%ADD16R,1.800000X2.200000*%
%ADD17R,1.400000X1.000000*%
%ADD18R,1.100000X1.000000*%
%ADD19R,1.300000X1.500000*%
%ADD20R,2.200000X1.800000*%
%ADD21R,1.800000X1.120000*%
%ADD22R,1.500000X1.050000*%
%ADD23R,1.500000X2.400000*%
%ADD24R,1.500000X1.300000*%
%ADD25R,0.800000X0.600000*%
%ADD26R,0.650000X0.600000*%
%ADD27R,1.500000X2.000000*%
%ADD28R,2.000000X1.500000*%


D10*
X96330Y268362D03*
X96330Y283362D03*
D11*
X111627Y268934D03*
X128627Y268934D03*
D12*
X239620Y493903D03*
X233120Y493903D03*
X226620Y493903D03*
X220120Y493903D03*
D13*
X212217Y486000D03*
X212217Y479500D03*
X212217Y473000D03*
X212217Y466500D03*
D12*
X220120Y458597D03*
X226620Y458597D03*
X233120Y458597D03*
X239620Y458597D03*
D13*
X247523Y466500D03*
X247523Y473000D03*
X247523Y479500D03*
X247523Y486000D03*
D14*
X180180Y335407D03*
X175180Y335407D03*
X170180Y335407D03*
X165180Y335407D03*
X160180Y335407D03*
X160180Y294513D03*
X165180Y294513D03*
X170180Y294513D03*
X175180Y294513D03*
X180180Y294513D03*
D15*
X293780Y316103D03*
X300280Y316103D03*
X306780Y316103D03*
X313280Y316103D03*
X313280Y356997D03*
X306780Y356997D03*
X300280Y356997D03*
X293780Y356997D03*
X233270Y429387D03*
X226770Y429387D03*
X220270Y429387D03*
X213770Y429387D03*
X213770Y388493D03*
X220270Y388493D03*
X226770Y388493D03*
X233270Y388493D03*
D16*
X306170Y610870D03*
X255170Y610870D03*
X158650Y610870D03*
X209650Y610870D03*
D11*
X312030Y532130D03*
X295030Y532130D03*
X140090Y532130D03*
X157090Y532130D03*
D17*
X286590Y567690D03*
X264590Y558190D03*
X264590Y577190D03*
X173150Y567690D03*
X195150Y577190D03*
X195150Y558190D03*
D18*
X238370Y541020D03*
X221370Y541020D03*
D11*
X184150Y543170D03*
X184150Y526170D03*
X274320Y523630D03*
X274320Y540630D03*
D19*
X220370Y516890D03*
X239370Y516890D03*
D11*
X274320Y488070D03*
X274320Y505070D03*
X184150Y489340D03*
X184150Y506340D03*
D20*
X200660Y189130D03*
X200660Y240130D03*
X251460Y240130D03*
X251460Y189130D03*
D21*
X157480Y167300D03*
X157480Y137500D03*
X302260Y164760D03*
X302260Y134960D03*
D22*
X157480Y187950D03*
D23*
X157480Y211700D03*
D22*
X302260Y218450D03*
D23*
X302260Y194700D03*
D24*
X130810Y211480D03*
X130810Y230480D03*
X226060Y243230D03*
X226060Y262230D03*
X331470Y215290D03*
X331470Y234290D03*
D25*
X102870Y232570D03*
X102870Y252570D03*
D26*
X109120Y242570D03*
X96620Y242570D03*
D25*
X355600Y217330D03*
X355600Y237330D03*
D26*
X361850Y227330D03*
X349350Y227330D03*
D27*
X279160Y285750D03*
X249160Y285750D03*
D28*
X278130Y262650D03*
X278130Y232650D03*
X313690Y291860D03*
X313690Y261860D03*
D11*
X295910Y287900D03*
X295910Y270900D03*
X272660Y405130D03*
X255660Y405130D03*
D18*
X266700Y389500D03*
X266700Y372500D03*
D11*
X259080Y446650D03*
X259080Y429650D03*
X247650Y385690D03*
X247650Y368690D03*
X197730Y393700D03*
X180730Y393700D03*
X225670Y369570D03*
X208670Y369570D03*
D18*
X167250Y364490D03*
X150250Y364490D03*
D28*
X199390Y333770D03*
X199390Y303770D03*
D18*
X195970Y283210D03*
X212970Y283210D03*
D11*
X197730Y260350D03*
X180730Y260350D03*
X193040Y348370D03*
X193040Y365370D03*
M02*
