G04 EAGLE Gerber RS-274X export*
G75*
%MOMM*%
%FSLAX34Y34*%
%LPD*%
%INSolderpaste Bottom*%
%IPPOS*%
%AMOC8*
5,1,8,0,0,1.08239X$1,22.5*%
G01*
%ADD10R,1.000000X1.100000*%
%ADD11R,1.300000X1.500000*%
%ADD12R,1.399997X0.400000*%
%ADD13R,1.100000X1.000000*%
%ADD14R,1.500000X1.300000*%
%ADD15C,0.300000*%


D10*
X365470Y261669D03*
X365470Y244669D03*
D11*
X163842Y352307D03*
X144842Y352307D03*
D12*
X306545Y307130D03*
X306545Y295130D03*
X306545Y283130D03*
D13*
X151440Y537702D03*
X151440Y520702D03*
D14*
X318958Y197647D03*
X318958Y216647D03*
X164277Y219441D03*
X164277Y200441D03*
D13*
X163016Y329796D03*
X146016Y329796D03*
D10*
X293873Y197004D03*
X293873Y214004D03*
D13*
X305995Y249354D03*
X322995Y249354D03*
X267184Y353284D03*
X250184Y353284D03*
X294789Y325514D03*
X311789Y325514D03*
D14*
X134620Y211480D03*
X134620Y230480D03*
D15*
X267370Y327090D02*
X267370Y337090D01*
X262370Y337090D02*
X262370Y327090D01*
X257370Y327090D02*
X257370Y337090D01*
X252370Y337090D02*
X252370Y327090D01*
X247370Y327090D02*
X247370Y337090D01*
X242370Y337090D02*
X242370Y327090D01*
X237370Y327090D02*
X237370Y337090D01*
X232370Y337090D02*
X232370Y327090D01*
X227370Y327090D02*
X227370Y337090D01*
X222370Y337090D02*
X222370Y327090D01*
X217370Y327090D02*
X217370Y337090D01*
X212370Y337090D02*
X212370Y327090D01*
X207370Y327090D02*
X207370Y337090D01*
X202370Y337090D02*
X202370Y327090D01*
X197370Y327090D02*
X197370Y337090D01*
X192370Y337090D02*
X192370Y327090D01*
X178370Y313090D02*
X168370Y313090D01*
X168370Y308090D02*
X178370Y308090D01*
X178370Y303090D02*
X168370Y303090D01*
X168370Y298090D02*
X178370Y298090D01*
X178370Y293090D02*
X168370Y293090D01*
X168370Y288090D02*
X178370Y288090D01*
X178370Y283090D02*
X168370Y283090D01*
X168370Y278090D02*
X178370Y278090D01*
X178370Y273090D02*
X168370Y273090D01*
X168370Y268090D02*
X178370Y268090D01*
X178370Y263090D02*
X168370Y263090D01*
X168370Y258090D02*
X178370Y258090D01*
X178370Y253090D02*
X168370Y253090D01*
X168370Y248090D02*
X178370Y248090D01*
X178370Y243090D02*
X168370Y243090D01*
X168370Y238090D02*
X178370Y238090D01*
X192370Y224090D02*
X192370Y214090D01*
X197370Y214090D02*
X197370Y224090D01*
X202370Y224090D02*
X202370Y214090D01*
X207370Y214090D02*
X207370Y224090D01*
X212370Y224090D02*
X212370Y214090D01*
X217370Y214090D02*
X217370Y224090D01*
X222370Y224090D02*
X222370Y214090D01*
X227370Y214090D02*
X227370Y224090D01*
X232370Y224090D02*
X232370Y214090D01*
X237370Y214090D02*
X237370Y224090D01*
X242370Y224090D02*
X242370Y214090D01*
X247370Y214090D02*
X247370Y224090D01*
X252370Y224090D02*
X252370Y214090D01*
X257370Y214090D02*
X257370Y224090D01*
X262370Y224090D02*
X262370Y214090D01*
X267370Y214090D02*
X267370Y224090D01*
X281370Y238090D02*
X291370Y238090D01*
X291370Y243090D02*
X281370Y243090D01*
X281370Y248090D02*
X291370Y248090D01*
X291370Y253090D02*
X281370Y253090D01*
X281370Y258090D02*
X291370Y258090D01*
X291370Y263090D02*
X281370Y263090D01*
X281370Y268090D02*
X291370Y268090D01*
X291370Y273090D02*
X281370Y273090D01*
X281370Y278090D02*
X291370Y278090D01*
X291370Y283090D02*
X281370Y283090D01*
X281370Y288090D02*
X291370Y288090D01*
X291370Y293090D02*
X281370Y293090D01*
X281370Y298090D02*
X291370Y298090D01*
X291370Y303090D02*
X281370Y303090D01*
X281370Y308090D02*
X291370Y308090D01*
X291370Y313090D02*
X281370Y313090D01*
M02*
